%TF.GenerationSoftware,KiCad,Pcbnew,6.0.7+dfsg-1build1*%
%TF.CreationDate,2023-02-23T20:10:15+01:00*%
%TF.ProjectId,mqtt_bridge,6d717474-5f62-4726-9964-67652e6b6963,rev?*%
%TF.SameCoordinates,Original*%
%TF.FileFunction,Drillmap*%
%TF.FilePolarity,Positive*%
%FSLAX45Y45*%
G04 Gerber Fmt 4.5, Leading zero omitted, Abs format (unit mm)*
G04 Created by KiCad (PCBNEW 6.0.7+dfsg-1build1) date 2023-02-23 20:10:15*
%MOMM*%
%LPD*%
G01*
G04 APERTURE LIST*
%ADD10C,0.100000*%
%ADD11C,0.200000*%
%ADD12C,0.080000*%
%ADD13C,0.150000*%
%ADD14C,0.170000*%
%ADD15C,0.250000*%
G04 APERTURE END LIST*
D10*
X15900000Y-9750000D02*
X6700000Y-9750000D01*
X6700000Y-2700000D01*
X15900000Y-2700000D01*
X15900000Y-9750000D01*
D11*
D12*
X9510000Y-6520000D02*
X9590000Y-6600000D01*
X9590000Y-6520000D02*
X9510000Y-6600000D01*
X9510000Y-9060000D02*
X9590000Y-9140000D01*
X9590000Y-9060000D02*
X9510000Y-9140000D01*
X9764000Y-6520000D02*
X9844000Y-6600000D01*
X9844000Y-6520000D02*
X9764000Y-6600000D01*
X9764000Y-9060000D02*
X9844000Y-9140000D01*
X9844000Y-9060000D02*
X9764000Y-9140000D01*
X10018000Y-6520000D02*
X10098000Y-6600000D01*
X10098000Y-6520000D02*
X10018000Y-6600000D01*
X10018000Y-9060000D02*
X10098000Y-9140000D01*
X10098000Y-9060000D02*
X10018000Y-9140000D01*
X10272000Y-6520000D02*
X10352000Y-6600000D01*
X10352000Y-6520000D02*
X10272000Y-6600000D01*
X10272000Y-9060000D02*
X10352000Y-9140000D01*
X10352000Y-9060000D02*
X10272000Y-9140000D01*
X10526000Y-6520000D02*
X10606000Y-6600000D01*
X10606000Y-6520000D02*
X10526000Y-6600000D01*
X10526000Y-9060000D02*
X10606000Y-9140000D01*
X10606000Y-9060000D02*
X10526000Y-9140000D01*
X10780000Y-6520000D02*
X10860000Y-6600000D01*
X10860000Y-6520000D02*
X10780000Y-6600000D01*
X10780000Y-9060000D02*
X10860000Y-9140000D01*
X10860000Y-9060000D02*
X10780000Y-9140000D01*
X11034000Y-6520000D02*
X11114000Y-6600000D01*
X11114000Y-6520000D02*
X11034000Y-6600000D01*
X11034000Y-9060000D02*
X11114000Y-9140000D01*
X11114000Y-9060000D02*
X11034000Y-9140000D01*
X11288000Y-6520000D02*
X11368000Y-6600000D01*
X11368000Y-6520000D02*
X11288000Y-6600000D01*
X11288000Y-9060000D02*
X11368000Y-9140000D01*
X11368000Y-9060000D02*
X11288000Y-9140000D01*
X11542000Y-6520000D02*
X11622000Y-6600000D01*
X11622000Y-6520000D02*
X11542000Y-6600000D01*
X11542000Y-9060000D02*
X11622000Y-9140000D01*
X11622000Y-9060000D02*
X11542000Y-9140000D01*
X11796000Y-6520000D02*
X11876000Y-6600000D01*
X11876000Y-6520000D02*
X11796000Y-6600000D01*
X11796000Y-9060000D02*
X11876000Y-9140000D01*
X11876000Y-9060000D02*
X11796000Y-9140000D01*
X12050000Y-6520000D02*
X12130000Y-6600000D01*
X12130000Y-6520000D02*
X12050000Y-6600000D01*
X12050000Y-9060000D02*
X12130000Y-9140000D01*
X12130000Y-9060000D02*
X12050000Y-9140000D01*
X12119250Y-3070750D02*
X12199250Y-3150750D01*
X12199250Y-3070750D02*
X12119250Y-3150750D01*
X12119250Y-4430750D02*
X12199250Y-4510750D01*
X12199250Y-4430750D02*
X12119250Y-4510750D01*
X12304000Y-6520000D02*
X12384000Y-6600000D01*
X12384000Y-6520000D02*
X12304000Y-6600000D01*
X12304000Y-9060000D02*
X12384000Y-9140000D01*
X12384000Y-9060000D02*
X12304000Y-9140000D01*
X12319250Y-3070750D02*
X12399250Y-3150750D01*
X12399250Y-3070750D02*
X12319250Y-3150750D01*
X12319250Y-4430750D02*
X12399250Y-4510750D01*
X12399250Y-4430750D02*
X12319250Y-4510750D01*
X12519250Y-3070750D02*
X12599250Y-3150750D01*
X12599250Y-3070750D02*
X12519250Y-3150750D01*
X12519250Y-4430750D02*
X12599250Y-4510750D01*
X12599250Y-4430750D02*
X12519250Y-4510750D01*
X12558000Y-6520000D02*
X12638000Y-6600000D01*
X12638000Y-6520000D02*
X12558000Y-6600000D01*
X12558000Y-9060000D02*
X12638000Y-9140000D01*
X12638000Y-9060000D02*
X12558000Y-9140000D01*
X12719250Y-3070750D02*
X12799250Y-3150750D01*
X12799250Y-3070750D02*
X12719250Y-3150750D01*
X12719250Y-4430750D02*
X12799250Y-4510750D01*
X12799250Y-4430750D02*
X12719250Y-4510750D01*
X12812000Y-6520000D02*
X12892000Y-6600000D01*
X12892000Y-6520000D02*
X12812000Y-6600000D01*
X12812000Y-9060000D02*
X12892000Y-9140000D01*
X12892000Y-9060000D02*
X12812000Y-9140000D01*
X12919250Y-3070750D02*
X12999250Y-3150750D01*
X12999250Y-3070750D02*
X12919250Y-3150750D01*
X12919250Y-4430750D02*
X12999250Y-4510750D01*
X12999250Y-4430750D02*
X12919250Y-4510750D01*
X13066000Y-6520000D02*
X13146000Y-6600000D01*
X13146000Y-6520000D02*
X13066000Y-6600000D01*
X13066000Y-9060000D02*
X13146000Y-9140000D01*
X13146000Y-9060000D02*
X13066000Y-9140000D01*
X13119250Y-3070750D02*
X13199250Y-3150750D01*
X13199250Y-3070750D02*
X13119250Y-3150750D01*
X13119250Y-4430750D02*
X13199250Y-4510750D01*
X13199250Y-4430750D02*
X13119250Y-4510750D01*
X13319250Y-3070750D02*
X13399250Y-3150750D01*
X13399250Y-3070750D02*
X13319250Y-3150750D01*
X13319250Y-4430750D02*
X13399250Y-4510750D01*
X13399250Y-4430750D02*
X13319250Y-4510750D01*
X13320000Y-6520000D02*
X13400000Y-6600000D01*
X13400000Y-6520000D02*
X13320000Y-6600000D01*
X13320000Y-9060000D02*
X13400000Y-9140000D01*
X13400000Y-9060000D02*
X13320000Y-9140000D01*
X13519250Y-3070750D02*
X13599250Y-3150750D01*
X13599250Y-3070750D02*
X13519250Y-3150750D01*
X13519250Y-4430750D02*
X13599250Y-4510750D01*
X13599250Y-4430750D02*
X13519250Y-4510750D01*
X13574000Y-6520000D02*
X13654000Y-6600000D01*
X13654000Y-6520000D02*
X13574000Y-6600000D01*
X13574000Y-9060000D02*
X13654000Y-9140000D01*
X13654000Y-9060000D02*
X13574000Y-9140000D01*
X13827728Y-6520368D02*
X13907728Y-6600368D01*
X13907728Y-6520368D02*
X13827728Y-6600368D01*
X13828000Y-9060000D02*
X13908000Y-9140000D01*
X13908000Y-9060000D02*
X13828000Y-9140000D01*
X14081728Y-6520368D02*
X14161728Y-6600368D01*
X14161728Y-6520368D02*
X14081728Y-6600368D01*
X14082000Y-9060000D02*
X14162000Y-9140000D01*
X14162000Y-9060000D02*
X14082000Y-9140000D01*
D10*
X9108000Y-2955000D02*
G75*
G03*
X9108000Y-2955000I-50000J0D01*
G01*
X9362000Y-2955000D02*
G75*
G03*
X9362000Y-2955000I-50000J0D01*
G01*
X9616000Y-2955000D02*
G75*
G03*
X9616000Y-2955000I-50000J0D01*
G01*
X9870000Y-2955000D02*
G75*
G03*
X9870000Y-2955000I-50000J0D01*
G01*
D13*
X14650000Y-4625000D02*
X14650000Y-4775000D01*
X14575000Y-4700000D02*
X14725000Y-4700000D01*
D14*
X14456105Y-4506105D02*
X14456105Y-4385895D01*
X14335895Y-4385895D01*
X14335895Y-4506105D01*
X14456105Y-4506105D01*
X14456105Y-5014105D02*
X14456105Y-4893895D01*
X14335895Y-4893895D01*
X14335895Y-5014105D01*
X14456105Y-5014105D01*
X14964105Y-4506105D02*
X14964105Y-4385895D01*
X14843895Y-4385895D01*
X14843895Y-4506105D01*
X14964105Y-4506105D01*
X14964105Y-5014105D02*
X14964105Y-4893895D01*
X14843895Y-4893895D01*
X14843895Y-5014105D01*
X14964105Y-5014105D01*
D15*
X8340000Y-3070000D02*
X8465000Y-2945000D01*
X8340000Y-2820000D01*
X8215000Y-2945000D01*
X8340000Y-3070000D01*
D11*
X8440000Y-2820000D02*
X8240000Y-2820000D01*
X8440000Y-3070000D02*
X8240000Y-3070000D01*
X8240000Y-2820000D02*
G75*
G03*
X8240000Y-3070000I0J-125000D01*
G01*
X8440000Y-3070000D02*
G75*
G03*
X8440000Y-2820000I0J125000D01*
G01*
D15*
X8340000Y-5480000D02*
X8465000Y-5355000D01*
X8340000Y-5230000D01*
X8215000Y-5355000D01*
X8340000Y-5480000D01*
D11*
X8440000Y-5230000D02*
X8240000Y-5230000D01*
X8440000Y-5480000D02*
X8240000Y-5480000D01*
X8240000Y-5230000D02*
G75*
G03*
X8240000Y-5480000I0J-125000D01*
G01*
X8440000Y-5480000D02*
G75*
G03*
X8440000Y-5230000I0J125000D01*
G01*
D15*
X10550000Y-3070000D02*
X10675000Y-2945000D01*
X10550000Y-2820000D01*
X10425000Y-2945000D01*
X10550000Y-3070000D01*
D11*
X10650000Y-2820000D02*
X10450000Y-2820000D01*
X10650000Y-3070000D02*
X10450000Y-3070000D01*
X10450000Y-2820000D02*
G75*
G03*
X10450000Y-3070000I0J-125000D01*
G01*
X10650000Y-3070000D02*
G75*
G03*
X10650000Y-2820000I0J125000D01*
G01*
D15*
X10560000Y-5480000D02*
X10685000Y-5355000D01*
X10560000Y-5230000D01*
X10435000Y-5355000D01*
X10560000Y-5480000D01*
D11*
X10660000Y-5230000D02*
X10460000Y-5230000D01*
X10660000Y-5480000D02*
X10460000Y-5480000D01*
X10460000Y-5230000D02*
G75*
G03*
X10460000Y-5480000I0J-125000D01*
G01*
X10660000Y-5480000D02*
G75*
G03*
X10660000Y-5230000I0J125000D01*
G01*
X6952619Y-10065476D02*
X6952619Y-9865476D01*
X7000238Y-9865476D01*
X7028809Y-9875000D01*
X7047857Y-9894048D01*
X7057381Y-9913095D01*
X7066905Y-9951190D01*
X7066905Y-9979762D01*
X7057381Y-10017857D01*
X7047857Y-10036905D01*
X7028809Y-10055952D01*
X7000238Y-10065476D01*
X6952619Y-10065476D01*
X7152619Y-10065476D02*
X7152619Y-9932143D01*
X7152619Y-9970238D02*
X7162143Y-9951190D01*
X7171667Y-9941667D01*
X7190714Y-9932143D01*
X7209762Y-9932143D01*
X7276428Y-10065476D02*
X7276428Y-9932143D01*
X7276428Y-9865476D02*
X7266905Y-9875000D01*
X7276428Y-9884524D01*
X7285952Y-9875000D01*
X7276428Y-9865476D01*
X7276428Y-9884524D01*
X7400238Y-10065476D02*
X7381190Y-10055952D01*
X7371667Y-10036905D01*
X7371667Y-9865476D01*
X7505000Y-10065476D02*
X7485952Y-10055952D01*
X7476428Y-10036905D01*
X7476428Y-9865476D01*
X7733571Y-10065476D02*
X7733571Y-9865476D01*
X7800238Y-10008333D01*
X7866905Y-9865476D01*
X7866905Y-10065476D01*
X8047857Y-10065476D02*
X8047857Y-9960714D01*
X8038333Y-9941667D01*
X8019286Y-9932143D01*
X7981190Y-9932143D01*
X7962143Y-9941667D01*
X8047857Y-10055952D02*
X8028809Y-10065476D01*
X7981190Y-10065476D01*
X7962143Y-10055952D01*
X7952619Y-10036905D01*
X7952619Y-10017857D01*
X7962143Y-9998810D01*
X7981190Y-9989286D01*
X8028809Y-9989286D01*
X8047857Y-9979762D01*
X8143095Y-9932143D02*
X8143095Y-10132143D01*
X8143095Y-9941667D02*
X8162143Y-9932143D01*
X8200238Y-9932143D01*
X8219286Y-9941667D01*
X8228809Y-9951190D01*
X8238333Y-9970238D01*
X8238333Y-10027381D01*
X8228809Y-10046429D01*
X8219286Y-10055952D01*
X8200238Y-10065476D01*
X8162143Y-10065476D01*
X8143095Y-10055952D01*
X8324048Y-10046429D02*
X8333571Y-10055952D01*
X8324048Y-10065476D01*
X8314524Y-10055952D01*
X8324048Y-10046429D01*
X8324048Y-10065476D01*
X8324048Y-9941667D02*
X8333571Y-9951190D01*
X8324048Y-9960714D01*
X8314524Y-9951190D01*
X8324048Y-9941667D01*
X8324048Y-9960714D01*
D12*
X6615000Y-10355000D02*
X6695000Y-10435000D01*
X6695000Y-10355000D02*
X6615000Y-10435000D01*
D11*
X6990714Y-10285476D02*
X7009762Y-10285476D01*
X7028809Y-10295000D01*
X7038333Y-10304524D01*
X7047857Y-10323571D01*
X7057381Y-10361667D01*
X7057381Y-10409286D01*
X7047857Y-10447381D01*
X7038333Y-10466429D01*
X7028809Y-10475952D01*
X7009762Y-10485476D01*
X6990714Y-10485476D01*
X6971667Y-10475952D01*
X6962143Y-10466429D01*
X6952619Y-10447381D01*
X6943095Y-10409286D01*
X6943095Y-10361667D01*
X6952619Y-10323571D01*
X6962143Y-10304524D01*
X6971667Y-10295000D01*
X6990714Y-10285476D01*
X7143095Y-10466429D02*
X7152619Y-10475952D01*
X7143095Y-10485476D01*
X7133571Y-10475952D01*
X7143095Y-10466429D01*
X7143095Y-10485476D01*
X7266905Y-10371190D02*
X7247857Y-10361667D01*
X7238333Y-10352143D01*
X7228809Y-10333095D01*
X7228809Y-10323571D01*
X7238333Y-10304524D01*
X7247857Y-10295000D01*
X7266905Y-10285476D01*
X7305000Y-10285476D01*
X7324048Y-10295000D01*
X7333571Y-10304524D01*
X7343095Y-10323571D01*
X7343095Y-10333095D01*
X7333571Y-10352143D01*
X7324048Y-10361667D01*
X7305000Y-10371190D01*
X7266905Y-10371190D01*
X7247857Y-10380714D01*
X7238333Y-10390238D01*
X7228809Y-10409286D01*
X7228809Y-10447381D01*
X7238333Y-10466429D01*
X7247857Y-10475952D01*
X7266905Y-10485476D01*
X7305000Y-10485476D01*
X7324048Y-10475952D01*
X7333571Y-10466429D01*
X7343095Y-10447381D01*
X7343095Y-10409286D01*
X7333571Y-10390238D01*
X7324048Y-10380714D01*
X7305000Y-10371190D01*
X7466905Y-10285476D02*
X7485952Y-10285476D01*
X7505000Y-10295000D01*
X7514524Y-10304524D01*
X7524048Y-10323571D01*
X7533571Y-10361667D01*
X7533571Y-10409286D01*
X7524048Y-10447381D01*
X7514524Y-10466429D01*
X7505000Y-10475952D01*
X7485952Y-10485476D01*
X7466905Y-10485476D01*
X7447857Y-10475952D01*
X7438333Y-10466429D01*
X7428809Y-10447381D01*
X7419286Y-10409286D01*
X7419286Y-10361667D01*
X7428809Y-10323571D01*
X7438333Y-10304524D01*
X7447857Y-10295000D01*
X7466905Y-10285476D01*
X7657381Y-10285476D02*
X7676428Y-10285476D01*
X7695476Y-10295000D01*
X7705000Y-10304524D01*
X7714524Y-10323571D01*
X7724048Y-10361667D01*
X7724048Y-10409286D01*
X7714524Y-10447381D01*
X7705000Y-10466429D01*
X7695476Y-10475952D01*
X7676428Y-10485476D01*
X7657381Y-10485476D01*
X7638333Y-10475952D01*
X7628809Y-10466429D01*
X7619286Y-10447381D01*
X7609762Y-10409286D01*
X7609762Y-10361667D01*
X7619286Y-10323571D01*
X7628809Y-10304524D01*
X7638333Y-10295000D01*
X7657381Y-10285476D01*
X7809762Y-10485476D02*
X7809762Y-10352143D01*
X7809762Y-10371190D02*
X7819286Y-10361667D01*
X7838333Y-10352143D01*
X7866905Y-10352143D01*
X7885952Y-10361667D01*
X7895476Y-10380714D01*
X7895476Y-10485476D01*
X7895476Y-10380714D02*
X7905000Y-10361667D01*
X7924048Y-10352143D01*
X7952619Y-10352143D01*
X7971667Y-10361667D01*
X7981190Y-10380714D01*
X7981190Y-10485476D01*
X8076428Y-10485476D02*
X8076428Y-10352143D01*
X8076428Y-10371190D02*
X8085952Y-10361667D01*
X8105000Y-10352143D01*
X8133571Y-10352143D01*
X8152619Y-10361667D01*
X8162143Y-10380714D01*
X8162143Y-10485476D01*
X8162143Y-10380714D02*
X8171667Y-10361667D01*
X8190714Y-10352143D01*
X8219286Y-10352143D01*
X8238333Y-10361667D01*
X8247857Y-10380714D01*
X8247857Y-10485476D01*
X8638333Y-10275952D02*
X8466905Y-10533095D01*
X8895476Y-10285476D02*
X8914524Y-10285476D01*
X8933571Y-10295000D01*
X8943095Y-10304524D01*
X8952619Y-10323571D01*
X8962143Y-10361667D01*
X8962143Y-10409286D01*
X8952619Y-10447381D01*
X8943095Y-10466429D01*
X8933571Y-10475952D01*
X8914524Y-10485476D01*
X8895476Y-10485476D01*
X8876429Y-10475952D01*
X8866905Y-10466429D01*
X8857381Y-10447381D01*
X8847857Y-10409286D01*
X8847857Y-10361667D01*
X8857381Y-10323571D01*
X8866905Y-10304524D01*
X8876429Y-10295000D01*
X8895476Y-10285476D01*
X9047857Y-10466429D02*
X9057381Y-10475952D01*
X9047857Y-10485476D01*
X9038333Y-10475952D01*
X9047857Y-10466429D01*
X9047857Y-10485476D01*
X9181190Y-10285476D02*
X9200238Y-10285476D01*
X9219286Y-10295000D01*
X9228810Y-10304524D01*
X9238333Y-10323571D01*
X9247857Y-10361667D01*
X9247857Y-10409286D01*
X9238333Y-10447381D01*
X9228810Y-10466429D01*
X9219286Y-10475952D01*
X9200238Y-10485476D01*
X9181190Y-10485476D01*
X9162143Y-10475952D01*
X9152619Y-10466429D01*
X9143095Y-10447381D01*
X9133571Y-10409286D01*
X9133571Y-10361667D01*
X9143095Y-10323571D01*
X9152619Y-10304524D01*
X9162143Y-10295000D01*
X9181190Y-10285476D01*
X9314524Y-10285476D02*
X9438333Y-10285476D01*
X9371667Y-10361667D01*
X9400238Y-10361667D01*
X9419286Y-10371190D01*
X9428810Y-10380714D01*
X9438333Y-10399762D01*
X9438333Y-10447381D01*
X9428810Y-10466429D01*
X9419286Y-10475952D01*
X9400238Y-10485476D01*
X9343095Y-10485476D01*
X9324048Y-10475952D01*
X9314524Y-10466429D01*
X9628810Y-10485476D02*
X9514524Y-10485476D01*
X9571667Y-10485476D02*
X9571667Y-10285476D01*
X9552619Y-10314048D01*
X9533571Y-10333095D01*
X9514524Y-10342619D01*
X9809762Y-10285476D02*
X9714524Y-10285476D01*
X9705000Y-10380714D01*
X9714524Y-10371190D01*
X9733571Y-10361667D01*
X9781190Y-10361667D01*
X9800238Y-10371190D01*
X9809762Y-10380714D01*
X9819286Y-10399762D01*
X9819286Y-10447381D01*
X9809762Y-10466429D01*
X9800238Y-10475952D01*
X9781190Y-10485476D01*
X9733571Y-10485476D01*
X9714524Y-10475952D01*
X9705000Y-10466429D01*
X9895476Y-10285476D02*
X9895476Y-10323571D01*
X9971667Y-10285476D02*
X9971667Y-10323571D01*
X10266905Y-10561667D02*
X10257381Y-10552143D01*
X10238333Y-10523571D01*
X10228810Y-10504524D01*
X10219286Y-10475952D01*
X10209762Y-10428333D01*
X10209762Y-10390238D01*
X10219286Y-10342619D01*
X10228810Y-10314048D01*
X10238333Y-10295000D01*
X10257381Y-10266429D01*
X10266905Y-10256905D01*
X10438333Y-10285476D02*
X10343095Y-10285476D01*
X10333571Y-10380714D01*
X10343095Y-10371190D01*
X10362143Y-10361667D01*
X10409762Y-10361667D01*
X10428810Y-10371190D01*
X10438333Y-10380714D01*
X10447857Y-10399762D01*
X10447857Y-10447381D01*
X10438333Y-10466429D01*
X10428810Y-10475952D01*
X10409762Y-10485476D01*
X10362143Y-10485476D01*
X10343095Y-10475952D01*
X10333571Y-10466429D01*
X10619286Y-10352143D02*
X10619286Y-10485476D01*
X10571667Y-10275952D02*
X10524048Y-10418810D01*
X10647857Y-10418810D01*
X10876429Y-10485476D02*
X10876429Y-10285476D01*
X10962143Y-10485476D02*
X10962143Y-10380714D01*
X10952619Y-10361667D01*
X10933571Y-10352143D01*
X10905000Y-10352143D01*
X10885952Y-10361667D01*
X10876429Y-10371190D01*
X11085952Y-10485476D02*
X11066905Y-10475952D01*
X11057381Y-10466429D01*
X11047857Y-10447381D01*
X11047857Y-10390238D01*
X11057381Y-10371190D01*
X11066905Y-10361667D01*
X11085952Y-10352143D01*
X11114524Y-10352143D01*
X11133571Y-10361667D01*
X11143095Y-10371190D01*
X11152619Y-10390238D01*
X11152619Y-10447381D01*
X11143095Y-10466429D01*
X11133571Y-10475952D01*
X11114524Y-10485476D01*
X11085952Y-10485476D01*
X11266905Y-10485476D02*
X11247857Y-10475952D01*
X11238333Y-10456905D01*
X11238333Y-10285476D01*
X11419286Y-10475952D02*
X11400238Y-10485476D01*
X11362143Y-10485476D01*
X11343095Y-10475952D01*
X11333571Y-10456905D01*
X11333571Y-10380714D01*
X11343095Y-10361667D01*
X11362143Y-10352143D01*
X11400238Y-10352143D01*
X11419286Y-10361667D01*
X11428809Y-10380714D01*
X11428809Y-10399762D01*
X11333571Y-10418810D01*
X11505000Y-10475952D02*
X11524048Y-10485476D01*
X11562143Y-10485476D01*
X11581190Y-10475952D01*
X11590714Y-10456905D01*
X11590714Y-10447381D01*
X11581190Y-10428333D01*
X11562143Y-10418810D01*
X11533571Y-10418810D01*
X11514524Y-10409286D01*
X11505000Y-10390238D01*
X11505000Y-10380714D01*
X11514524Y-10361667D01*
X11533571Y-10352143D01*
X11562143Y-10352143D01*
X11581190Y-10361667D01*
X11657381Y-10561667D02*
X11666905Y-10552143D01*
X11685952Y-10523571D01*
X11695476Y-10504524D01*
X11705000Y-10475952D01*
X11714524Y-10428333D01*
X11714524Y-10390238D01*
X11705000Y-10342619D01*
X11695476Y-10314048D01*
X11685952Y-10295000D01*
X11666905Y-10266429D01*
X11657381Y-10256905D01*
D10*
X6695000Y-10659000D02*
G75*
G03*
X6695000Y-10659000I-50000J0D01*
G01*
D11*
X7057381Y-10749476D02*
X6943095Y-10749476D01*
X7000238Y-10749476D02*
X7000238Y-10549476D01*
X6981190Y-10578048D01*
X6962143Y-10597095D01*
X6943095Y-10606619D01*
X7143095Y-10730429D02*
X7152619Y-10739952D01*
X7143095Y-10749476D01*
X7133571Y-10739952D01*
X7143095Y-10730429D01*
X7143095Y-10749476D01*
X7276428Y-10549476D02*
X7295476Y-10549476D01*
X7314524Y-10559000D01*
X7324048Y-10568524D01*
X7333571Y-10587571D01*
X7343095Y-10625667D01*
X7343095Y-10673286D01*
X7333571Y-10711381D01*
X7324048Y-10730429D01*
X7314524Y-10739952D01*
X7295476Y-10749476D01*
X7276428Y-10749476D01*
X7257381Y-10739952D01*
X7247857Y-10730429D01*
X7238333Y-10711381D01*
X7228809Y-10673286D01*
X7228809Y-10625667D01*
X7238333Y-10587571D01*
X7247857Y-10568524D01*
X7257381Y-10559000D01*
X7276428Y-10549476D01*
X7466905Y-10549476D02*
X7485952Y-10549476D01*
X7505000Y-10559000D01*
X7514524Y-10568524D01*
X7524048Y-10587571D01*
X7533571Y-10625667D01*
X7533571Y-10673286D01*
X7524048Y-10711381D01*
X7514524Y-10730429D01*
X7505000Y-10739952D01*
X7485952Y-10749476D01*
X7466905Y-10749476D01*
X7447857Y-10739952D01*
X7438333Y-10730429D01*
X7428809Y-10711381D01*
X7419286Y-10673286D01*
X7419286Y-10625667D01*
X7428809Y-10587571D01*
X7438333Y-10568524D01*
X7447857Y-10559000D01*
X7466905Y-10549476D01*
X7657381Y-10549476D02*
X7676428Y-10549476D01*
X7695476Y-10559000D01*
X7705000Y-10568524D01*
X7714524Y-10587571D01*
X7724048Y-10625667D01*
X7724048Y-10673286D01*
X7714524Y-10711381D01*
X7705000Y-10730429D01*
X7695476Y-10739952D01*
X7676428Y-10749476D01*
X7657381Y-10749476D01*
X7638333Y-10739952D01*
X7628809Y-10730429D01*
X7619286Y-10711381D01*
X7609762Y-10673286D01*
X7609762Y-10625667D01*
X7619286Y-10587571D01*
X7628809Y-10568524D01*
X7638333Y-10559000D01*
X7657381Y-10549476D01*
X7809762Y-10749476D02*
X7809762Y-10616143D01*
X7809762Y-10635190D02*
X7819286Y-10625667D01*
X7838333Y-10616143D01*
X7866905Y-10616143D01*
X7885952Y-10625667D01*
X7895476Y-10644714D01*
X7895476Y-10749476D01*
X7895476Y-10644714D02*
X7905000Y-10625667D01*
X7924048Y-10616143D01*
X7952619Y-10616143D01*
X7971667Y-10625667D01*
X7981190Y-10644714D01*
X7981190Y-10749476D01*
X8076428Y-10749476D02*
X8076428Y-10616143D01*
X8076428Y-10635190D02*
X8085952Y-10625667D01*
X8105000Y-10616143D01*
X8133571Y-10616143D01*
X8152619Y-10625667D01*
X8162143Y-10644714D01*
X8162143Y-10749476D01*
X8162143Y-10644714D02*
X8171667Y-10625667D01*
X8190714Y-10616143D01*
X8219286Y-10616143D01*
X8238333Y-10625667D01*
X8247857Y-10644714D01*
X8247857Y-10749476D01*
X8638333Y-10539952D02*
X8466905Y-10797095D01*
X8895476Y-10549476D02*
X8914524Y-10549476D01*
X8933571Y-10559000D01*
X8943095Y-10568524D01*
X8952619Y-10587571D01*
X8962143Y-10625667D01*
X8962143Y-10673286D01*
X8952619Y-10711381D01*
X8943095Y-10730429D01*
X8933571Y-10739952D01*
X8914524Y-10749476D01*
X8895476Y-10749476D01*
X8876429Y-10739952D01*
X8866905Y-10730429D01*
X8857381Y-10711381D01*
X8847857Y-10673286D01*
X8847857Y-10625667D01*
X8857381Y-10587571D01*
X8866905Y-10568524D01*
X8876429Y-10559000D01*
X8895476Y-10549476D01*
X9047857Y-10730429D02*
X9057381Y-10739952D01*
X9047857Y-10749476D01*
X9038333Y-10739952D01*
X9047857Y-10730429D01*
X9047857Y-10749476D01*
X9181190Y-10549476D02*
X9200238Y-10549476D01*
X9219286Y-10559000D01*
X9228810Y-10568524D01*
X9238333Y-10587571D01*
X9247857Y-10625667D01*
X9247857Y-10673286D01*
X9238333Y-10711381D01*
X9228810Y-10730429D01*
X9219286Y-10739952D01*
X9200238Y-10749476D01*
X9181190Y-10749476D01*
X9162143Y-10739952D01*
X9152619Y-10730429D01*
X9143095Y-10711381D01*
X9133571Y-10673286D01*
X9133571Y-10625667D01*
X9143095Y-10587571D01*
X9152619Y-10568524D01*
X9162143Y-10559000D01*
X9181190Y-10549476D01*
X9314524Y-10549476D02*
X9438333Y-10549476D01*
X9371667Y-10625667D01*
X9400238Y-10625667D01*
X9419286Y-10635190D01*
X9428810Y-10644714D01*
X9438333Y-10663762D01*
X9438333Y-10711381D01*
X9428810Y-10730429D01*
X9419286Y-10739952D01*
X9400238Y-10749476D01*
X9343095Y-10749476D01*
X9324048Y-10739952D01*
X9314524Y-10730429D01*
X9533571Y-10749476D02*
X9571667Y-10749476D01*
X9590714Y-10739952D01*
X9600238Y-10730429D01*
X9619286Y-10701857D01*
X9628810Y-10663762D01*
X9628810Y-10587571D01*
X9619286Y-10568524D01*
X9609762Y-10559000D01*
X9590714Y-10549476D01*
X9552619Y-10549476D01*
X9533571Y-10559000D01*
X9524048Y-10568524D01*
X9514524Y-10587571D01*
X9514524Y-10635190D01*
X9524048Y-10654238D01*
X9533571Y-10663762D01*
X9552619Y-10673286D01*
X9590714Y-10673286D01*
X9609762Y-10663762D01*
X9619286Y-10654238D01*
X9628810Y-10635190D01*
X9800238Y-10616143D02*
X9800238Y-10749476D01*
X9752619Y-10539952D02*
X9705000Y-10682810D01*
X9828810Y-10682810D01*
X9895476Y-10549476D02*
X9895476Y-10587571D01*
X9971667Y-10549476D02*
X9971667Y-10587571D01*
X10266905Y-10825667D02*
X10257381Y-10816143D01*
X10238333Y-10787571D01*
X10228810Y-10768524D01*
X10219286Y-10739952D01*
X10209762Y-10692333D01*
X10209762Y-10654238D01*
X10219286Y-10606619D01*
X10228810Y-10578048D01*
X10238333Y-10559000D01*
X10257381Y-10530429D01*
X10266905Y-10520905D01*
X10428810Y-10616143D02*
X10428810Y-10749476D01*
X10381190Y-10539952D02*
X10333571Y-10682810D01*
X10457381Y-10682810D01*
X10685952Y-10749476D02*
X10685952Y-10549476D01*
X10771667Y-10749476D02*
X10771667Y-10644714D01*
X10762143Y-10625667D01*
X10743095Y-10616143D01*
X10714524Y-10616143D01*
X10695476Y-10625667D01*
X10685952Y-10635190D01*
X10895476Y-10749476D02*
X10876429Y-10739952D01*
X10866905Y-10730429D01*
X10857381Y-10711381D01*
X10857381Y-10654238D01*
X10866905Y-10635190D01*
X10876429Y-10625667D01*
X10895476Y-10616143D01*
X10924048Y-10616143D01*
X10943095Y-10625667D01*
X10952619Y-10635190D01*
X10962143Y-10654238D01*
X10962143Y-10711381D01*
X10952619Y-10730429D01*
X10943095Y-10739952D01*
X10924048Y-10749476D01*
X10895476Y-10749476D01*
X11076429Y-10749476D02*
X11057381Y-10739952D01*
X11047857Y-10720905D01*
X11047857Y-10549476D01*
X11228809Y-10739952D02*
X11209762Y-10749476D01*
X11171667Y-10749476D01*
X11152619Y-10739952D01*
X11143095Y-10720905D01*
X11143095Y-10644714D01*
X11152619Y-10625667D01*
X11171667Y-10616143D01*
X11209762Y-10616143D01*
X11228809Y-10625667D01*
X11238333Y-10644714D01*
X11238333Y-10663762D01*
X11143095Y-10682810D01*
X11314524Y-10739952D02*
X11333571Y-10749476D01*
X11371667Y-10749476D01*
X11390714Y-10739952D01*
X11400238Y-10720905D01*
X11400238Y-10711381D01*
X11390714Y-10692333D01*
X11371667Y-10682810D01*
X11343095Y-10682810D01*
X11324048Y-10673286D01*
X11314524Y-10654238D01*
X11314524Y-10644714D01*
X11324048Y-10625667D01*
X11343095Y-10616143D01*
X11371667Y-10616143D01*
X11390714Y-10625667D01*
X11466905Y-10825667D02*
X11476428Y-10816143D01*
X11495476Y-10787571D01*
X11505000Y-10768524D01*
X11514524Y-10739952D01*
X11524048Y-10692333D01*
X11524048Y-10654238D01*
X11514524Y-10606619D01*
X11505000Y-10578048D01*
X11495476Y-10559000D01*
X11476428Y-10530429D01*
X11466905Y-10520905D01*
D13*
X6620000Y-10848000D02*
X6620000Y-10998000D01*
X6545000Y-10923000D02*
X6695000Y-10923000D01*
D11*
X7057381Y-11013476D02*
X6943095Y-11013476D01*
X7000238Y-11013476D02*
X7000238Y-10813476D01*
X6981190Y-10842048D01*
X6962143Y-10861095D01*
X6943095Y-10870619D01*
X7143095Y-10994429D02*
X7152619Y-11003952D01*
X7143095Y-11013476D01*
X7133571Y-11003952D01*
X7143095Y-10994429D01*
X7143095Y-11013476D01*
X7333571Y-10813476D02*
X7238333Y-10813476D01*
X7228809Y-10908714D01*
X7238333Y-10899190D01*
X7257381Y-10889667D01*
X7305000Y-10889667D01*
X7324048Y-10899190D01*
X7333571Y-10908714D01*
X7343095Y-10927762D01*
X7343095Y-10975381D01*
X7333571Y-10994429D01*
X7324048Y-11003952D01*
X7305000Y-11013476D01*
X7257381Y-11013476D01*
X7238333Y-11003952D01*
X7228809Y-10994429D01*
X7466905Y-10813476D02*
X7485952Y-10813476D01*
X7505000Y-10823000D01*
X7514524Y-10832524D01*
X7524048Y-10851571D01*
X7533571Y-10889667D01*
X7533571Y-10937286D01*
X7524048Y-10975381D01*
X7514524Y-10994429D01*
X7505000Y-11003952D01*
X7485952Y-11013476D01*
X7466905Y-11013476D01*
X7447857Y-11003952D01*
X7438333Y-10994429D01*
X7428809Y-10975381D01*
X7419286Y-10937286D01*
X7419286Y-10889667D01*
X7428809Y-10851571D01*
X7438333Y-10832524D01*
X7447857Y-10823000D01*
X7466905Y-10813476D01*
X7657381Y-10813476D02*
X7676428Y-10813476D01*
X7695476Y-10823000D01*
X7705000Y-10832524D01*
X7714524Y-10851571D01*
X7724048Y-10889667D01*
X7724048Y-10937286D01*
X7714524Y-10975381D01*
X7705000Y-10994429D01*
X7695476Y-11003952D01*
X7676428Y-11013476D01*
X7657381Y-11013476D01*
X7638333Y-11003952D01*
X7628809Y-10994429D01*
X7619286Y-10975381D01*
X7609762Y-10937286D01*
X7609762Y-10889667D01*
X7619286Y-10851571D01*
X7628809Y-10832524D01*
X7638333Y-10823000D01*
X7657381Y-10813476D01*
X7809762Y-11013476D02*
X7809762Y-10880143D01*
X7809762Y-10899190D02*
X7819286Y-10889667D01*
X7838333Y-10880143D01*
X7866905Y-10880143D01*
X7885952Y-10889667D01*
X7895476Y-10908714D01*
X7895476Y-11013476D01*
X7895476Y-10908714D02*
X7905000Y-10889667D01*
X7924048Y-10880143D01*
X7952619Y-10880143D01*
X7971667Y-10889667D01*
X7981190Y-10908714D01*
X7981190Y-11013476D01*
X8076428Y-11013476D02*
X8076428Y-10880143D01*
X8076428Y-10899190D02*
X8085952Y-10889667D01*
X8105000Y-10880143D01*
X8133571Y-10880143D01*
X8152619Y-10889667D01*
X8162143Y-10908714D01*
X8162143Y-11013476D01*
X8162143Y-10908714D02*
X8171667Y-10889667D01*
X8190714Y-10880143D01*
X8219286Y-10880143D01*
X8238333Y-10889667D01*
X8247857Y-10908714D01*
X8247857Y-11013476D01*
X8638333Y-10803952D02*
X8466905Y-11061095D01*
X8895476Y-10813476D02*
X8914524Y-10813476D01*
X8933571Y-10823000D01*
X8943095Y-10832524D01*
X8952619Y-10851571D01*
X8962143Y-10889667D01*
X8962143Y-10937286D01*
X8952619Y-10975381D01*
X8943095Y-10994429D01*
X8933571Y-11003952D01*
X8914524Y-11013476D01*
X8895476Y-11013476D01*
X8876429Y-11003952D01*
X8866905Y-10994429D01*
X8857381Y-10975381D01*
X8847857Y-10937286D01*
X8847857Y-10889667D01*
X8857381Y-10851571D01*
X8866905Y-10832524D01*
X8876429Y-10823000D01*
X8895476Y-10813476D01*
X9047857Y-10994429D02*
X9057381Y-11003952D01*
X9047857Y-11013476D01*
X9038333Y-11003952D01*
X9047857Y-10994429D01*
X9047857Y-11013476D01*
X9181190Y-10813476D02*
X9200238Y-10813476D01*
X9219286Y-10823000D01*
X9228810Y-10832524D01*
X9238333Y-10851571D01*
X9247857Y-10889667D01*
X9247857Y-10937286D01*
X9238333Y-10975381D01*
X9228810Y-10994429D01*
X9219286Y-11003952D01*
X9200238Y-11013476D01*
X9181190Y-11013476D01*
X9162143Y-11003952D01*
X9152619Y-10994429D01*
X9143095Y-10975381D01*
X9133571Y-10937286D01*
X9133571Y-10889667D01*
X9143095Y-10851571D01*
X9152619Y-10832524D01*
X9162143Y-10823000D01*
X9181190Y-10813476D01*
X9428810Y-10813476D02*
X9333571Y-10813476D01*
X9324048Y-10908714D01*
X9333571Y-10899190D01*
X9352619Y-10889667D01*
X9400238Y-10889667D01*
X9419286Y-10899190D01*
X9428810Y-10908714D01*
X9438333Y-10927762D01*
X9438333Y-10975381D01*
X9428810Y-10994429D01*
X9419286Y-11003952D01*
X9400238Y-11013476D01*
X9352619Y-11013476D01*
X9333571Y-11003952D01*
X9324048Y-10994429D01*
X9533571Y-11013476D02*
X9571667Y-11013476D01*
X9590714Y-11003952D01*
X9600238Y-10994429D01*
X9619286Y-10965857D01*
X9628810Y-10927762D01*
X9628810Y-10851571D01*
X9619286Y-10832524D01*
X9609762Y-10823000D01*
X9590714Y-10813476D01*
X9552619Y-10813476D01*
X9533571Y-10823000D01*
X9524048Y-10832524D01*
X9514524Y-10851571D01*
X9514524Y-10899190D01*
X9524048Y-10918238D01*
X9533571Y-10927762D01*
X9552619Y-10937286D01*
X9590714Y-10937286D01*
X9609762Y-10927762D01*
X9619286Y-10918238D01*
X9628810Y-10899190D01*
X9819286Y-11013476D02*
X9705000Y-11013476D01*
X9762143Y-11013476D02*
X9762143Y-10813476D01*
X9743095Y-10842048D01*
X9724048Y-10861095D01*
X9705000Y-10870619D01*
X9895476Y-10813476D02*
X9895476Y-10851571D01*
X9971667Y-10813476D02*
X9971667Y-10851571D01*
X10266905Y-11089667D02*
X10257381Y-11080143D01*
X10238333Y-11051571D01*
X10228810Y-11032524D01*
X10219286Y-11003952D01*
X10209762Y-10956333D01*
X10209762Y-10918238D01*
X10219286Y-10870619D01*
X10228810Y-10842048D01*
X10238333Y-10823000D01*
X10257381Y-10794429D01*
X10266905Y-10784905D01*
X10447857Y-11013476D02*
X10333571Y-11013476D01*
X10390714Y-11013476D02*
X10390714Y-10813476D01*
X10371667Y-10842048D01*
X10352619Y-10861095D01*
X10333571Y-10870619D01*
X10685952Y-11013476D02*
X10685952Y-10813476D01*
X10771667Y-11013476D02*
X10771667Y-10908714D01*
X10762143Y-10889667D01*
X10743095Y-10880143D01*
X10714524Y-10880143D01*
X10695476Y-10889667D01*
X10685952Y-10899190D01*
X10895476Y-11013476D02*
X10876429Y-11003952D01*
X10866905Y-10994429D01*
X10857381Y-10975381D01*
X10857381Y-10918238D01*
X10866905Y-10899190D01*
X10876429Y-10889667D01*
X10895476Y-10880143D01*
X10924048Y-10880143D01*
X10943095Y-10889667D01*
X10952619Y-10899190D01*
X10962143Y-10918238D01*
X10962143Y-10975381D01*
X10952619Y-10994429D01*
X10943095Y-11003952D01*
X10924048Y-11013476D01*
X10895476Y-11013476D01*
X11076429Y-11013476D02*
X11057381Y-11003952D01*
X11047857Y-10984905D01*
X11047857Y-10813476D01*
X11228809Y-11003952D02*
X11209762Y-11013476D01*
X11171667Y-11013476D01*
X11152619Y-11003952D01*
X11143095Y-10984905D01*
X11143095Y-10908714D01*
X11152619Y-10889667D01*
X11171667Y-10880143D01*
X11209762Y-10880143D01*
X11228809Y-10889667D01*
X11238333Y-10908714D01*
X11238333Y-10927762D01*
X11143095Y-10946810D01*
X11305000Y-11089667D02*
X11314524Y-11080143D01*
X11333571Y-11051571D01*
X11343095Y-11032524D01*
X11352619Y-11003952D01*
X11362143Y-10956333D01*
X11362143Y-10918238D01*
X11352619Y-10870619D01*
X11343095Y-10842048D01*
X11333571Y-10823000D01*
X11314524Y-10794429D01*
X11305000Y-10784905D01*
D14*
X6670105Y-11253105D02*
X6670105Y-11132895D01*
X6549895Y-11132895D01*
X6549895Y-11253105D01*
X6670105Y-11253105D01*
D11*
X7057381Y-11283476D02*
X6943095Y-11283476D01*
X7000238Y-11283476D02*
X7000238Y-11083476D01*
X6981190Y-11112048D01*
X6962143Y-11131095D01*
X6943095Y-11140619D01*
X7143095Y-11264428D02*
X7152619Y-11273952D01*
X7143095Y-11283476D01*
X7133571Y-11273952D01*
X7143095Y-11264428D01*
X7143095Y-11283476D01*
X7219286Y-11083476D02*
X7352619Y-11083476D01*
X7266905Y-11283476D01*
X7466905Y-11083476D02*
X7485952Y-11083476D01*
X7505000Y-11093000D01*
X7514524Y-11102524D01*
X7524048Y-11121571D01*
X7533571Y-11159667D01*
X7533571Y-11207286D01*
X7524048Y-11245381D01*
X7514524Y-11264428D01*
X7505000Y-11273952D01*
X7485952Y-11283476D01*
X7466905Y-11283476D01*
X7447857Y-11273952D01*
X7438333Y-11264428D01*
X7428809Y-11245381D01*
X7419286Y-11207286D01*
X7419286Y-11159667D01*
X7428809Y-11121571D01*
X7438333Y-11102524D01*
X7447857Y-11093000D01*
X7466905Y-11083476D01*
X7657381Y-11083476D02*
X7676428Y-11083476D01*
X7695476Y-11093000D01*
X7705000Y-11102524D01*
X7714524Y-11121571D01*
X7724048Y-11159667D01*
X7724048Y-11207286D01*
X7714524Y-11245381D01*
X7705000Y-11264428D01*
X7695476Y-11273952D01*
X7676428Y-11283476D01*
X7657381Y-11283476D01*
X7638333Y-11273952D01*
X7628809Y-11264428D01*
X7619286Y-11245381D01*
X7609762Y-11207286D01*
X7609762Y-11159667D01*
X7619286Y-11121571D01*
X7628809Y-11102524D01*
X7638333Y-11093000D01*
X7657381Y-11083476D01*
X7809762Y-11283476D02*
X7809762Y-11150143D01*
X7809762Y-11169190D02*
X7819286Y-11159667D01*
X7838333Y-11150143D01*
X7866905Y-11150143D01*
X7885952Y-11159667D01*
X7895476Y-11178714D01*
X7895476Y-11283476D01*
X7895476Y-11178714D02*
X7905000Y-11159667D01*
X7924048Y-11150143D01*
X7952619Y-11150143D01*
X7971667Y-11159667D01*
X7981190Y-11178714D01*
X7981190Y-11283476D01*
X8076428Y-11283476D02*
X8076428Y-11150143D01*
X8076428Y-11169190D02*
X8085952Y-11159667D01*
X8105000Y-11150143D01*
X8133571Y-11150143D01*
X8152619Y-11159667D01*
X8162143Y-11178714D01*
X8162143Y-11283476D01*
X8162143Y-11178714D02*
X8171667Y-11159667D01*
X8190714Y-11150143D01*
X8219286Y-11150143D01*
X8238333Y-11159667D01*
X8247857Y-11178714D01*
X8247857Y-11283476D01*
X8638333Y-11073952D02*
X8466905Y-11331095D01*
X8895476Y-11083476D02*
X8914524Y-11083476D01*
X8933571Y-11093000D01*
X8943095Y-11102524D01*
X8952619Y-11121571D01*
X8962143Y-11159667D01*
X8962143Y-11207286D01*
X8952619Y-11245381D01*
X8943095Y-11264428D01*
X8933571Y-11273952D01*
X8914524Y-11283476D01*
X8895476Y-11283476D01*
X8876429Y-11273952D01*
X8866905Y-11264428D01*
X8857381Y-11245381D01*
X8847857Y-11207286D01*
X8847857Y-11159667D01*
X8857381Y-11121571D01*
X8866905Y-11102524D01*
X8876429Y-11093000D01*
X8895476Y-11083476D01*
X9047857Y-11264428D02*
X9057381Y-11273952D01*
X9047857Y-11283476D01*
X9038333Y-11273952D01*
X9047857Y-11264428D01*
X9047857Y-11283476D01*
X9181190Y-11083476D02*
X9200238Y-11083476D01*
X9219286Y-11093000D01*
X9228810Y-11102524D01*
X9238333Y-11121571D01*
X9247857Y-11159667D01*
X9247857Y-11207286D01*
X9238333Y-11245381D01*
X9228810Y-11264428D01*
X9219286Y-11273952D01*
X9200238Y-11283476D01*
X9181190Y-11283476D01*
X9162143Y-11273952D01*
X9152619Y-11264428D01*
X9143095Y-11245381D01*
X9133571Y-11207286D01*
X9133571Y-11159667D01*
X9143095Y-11121571D01*
X9152619Y-11102524D01*
X9162143Y-11093000D01*
X9181190Y-11083476D01*
X9419286Y-11083476D02*
X9381190Y-11083476D01*
X9362143Y-11093000D01*
X9352619Y-11102524D01*
X9333571Y-11131095D01*
X9324048Y-11169190D01*
X9324048Y-11245381D01*
X9333571Y-11264428D01*
X9343095Y-11273952D01*
X9362143Y-11283476D01*
X9400238Y-11283476D01*
X9419286Y-11273952D01*
X9428810Y-11264428D01*
X9438333Y-11245381D01*
X9438333Y-11197762D01*
X9428810Y-11178714D01*
X9419286Y-11169190D01*
X9400238Y-11159667D01*
X9362143Y-11159667D01*
X9343095Y-11169190D01*
X9333571Y-11178714D01*
X9324048Y-11197762D01*
X9609762Y-11083476D02*
X9571667Y-11083476D01*
X9552619Y-11093000D01*
X9543095Y-11102524D01*
X9524048Y-11131095D01*
X9514524Y-11169190D01*
X9514524Y-11245381D01*
X9524048Y-11264428D01*
X9533571Y-11273952D01*
X9552619Y-11283476D01*
X9590714Y-11283476D01*
X9609762Y-11273952D01*
X9619286Y-11264428D01*
X9628810Y-11245381D01*
X9628810Y-11197762D01*
X9619286Y-11178714D01*
X9609762Y-11169190D01*
X9590714Y-11159667D01*
X9552619Y-11159667D01*
X9533571Y-11169190D01*
X9524048Y-11178714D01*
X9514524Y-11197762D01*
X9724048Y-11283476D02*
X9762143Y-11283476D01*
X9781190Y-11273952D01*
X9790714Y-11264428D01*
X9809762Y-11235857D01*
X9819286Y-11197762D01*
X9819286Y-11121571D01*
X9809762Y-11102524D01*
X9800238Y-11093000D01*
X9781190Y-11083476D01*
X9743095Y-11083476D01*
X9724048Y-11093000D01*
X9714524Y-11102524D01*
X9705000Y-11121571D01*
X9705000Y-11169190D01*
X9714524Y-11188238D01*
X9724048Y-11197762D01*
X9743095Y-11207286D01*
X9781190Y-11207286D01*
X9800238Y-11197762D01*
X9809762Y-11188238D01*
X9819286Y-11169190D01*
X9895476Y-11083476D02*
X9895476Y-11121571D01*
X9971667Y-11083476D02*
X9971667Y-11121571D01*
X10266905Y-11359667D02*
X10257381Y-11350143D01*
X10238333Y-11321571D01*
X10228810Y-11302524D01*
X10219286Y-11273952D01*
X10209762Y-11226333D01*
X10209762Y-11188238D01*
X10219286Y-11140619D01*
X10228810Y-11112048D01*
X10238333Y-11093000D01*
X10257381Y-11064429D01*
X10266905Y-11054905D01*
X10428810Y-11150143D02*
X10428810Y-11283476D01*
X10381190Y-11073952D02*
X10333571Y-11216809D01*
X10457381Y-11216809D01*
X10685952Y-11283476D02*
X10685952Y-11083476D01*
X10771667Y-11283476D02*
X10771667Y-11178714D01*
X10762143Y-11159667D01*
X10743095Y-11150143D01*
X10714524Y-11150143D01*
X10695476Y-11159667D01*
X10685952Y-11169190D01*
X10895476Y-11283476D02*
X10876429Y-11273952D01*
X10866905Y-11264428D01*
X10857381Y-11245381D01*
X10857381Y-11188238D01*
X10866905Y-11169190D01*
X10876429Y-11159667D01*
X10895476Y-11150143D01*
X10924048Y-11150143D01*
X10943095Y-11159667D01*
X10952619Y-11169190D01*
X10962143Y-11188238D01*
X10962143Y-11245381D01*
X10952619Y-11264428D01*
X10943095Y-11273952D01*
X10924048Y-11283476D01*
X10895476Y-11283476D01*
X11076429Y-11283476D02*
X11057381Y-11273952D01*
X11047857Y-11254905D01*
X11047857Y-11083476D01*
X11228809Y-11273952D02*
X11209762Y-11283476D01*
X11171667Y-11283476D01*
X11152619Y-11273952D01*
X11143095Y-11254905D01*
X11143095Y-11178714D01*
X11152619Y-11159667D01*
X11171667Y-11150143D01*
X11209762Y-11150143D01*
X11228809Y-11159667D01*
X11238333Y-11178714D01*
X11238333Y-11197762D01*
X11143095Y-11216809D01*
X11314524Y-11273952D02*
X11333571Y-11283476D01*
X11371667Y-11283476D01*
X11390714Y-11273952D01*
X11400238Y-11254905D01*
X11400238Y-11245381D01*
X11390714Y-11226333D01*
X11371667Y-11216809D01*
X11343095Y-11216809D01*
X11324048Y-11207286D01*
X11314524Y-11188238D01*
X11314524Y-11178714D01*
X11324048Y-11159667D01*
X11343095Y-11150143D01*
X11371667Y-11150143D01*
X11390714Y-11159667D01*
X11466905Y-11359667D02*
X11476428Y-11350143D01*
X11495476Y-11321571D01*
X11505000Y-11302524D01*
X11514524Y-11273952D01*
X11524048Y-11226333D01*
X11524048Y-11188238D01*
X11514524Y-11140619D01*
X11505000Y-11112048D01*
X11495476Y-11093000D01*
X11476428Y-11064429D01*
X11466905Y-11054905D01*
X6595000Y-11583000D02*
X6695000Y-11483000D01*
X6595000Y-11383000D01*
X6495000Y-11483000D01*
X6595000Y-11583000D01*
X6943095Y-11392524D02*
X6952619Y-11383000D01*
X6971667Y-11373476D01*
X7019286Y-11373476D01*
X7038333Y-11383000D01*
X7047857Y-11392524D01*
X7057381Y-11411571D01*
X7057381Y-11430619D01*
X7047857Y-11459190D01*
X6933571Y-11573476D01*
X7057381Y-11573476D01*
X7143095Y-11554428D02*
X7152619Y-11563952D01*
X7143095Y-11573476D01*
X7133571Y-11563952D01*
X7143095Y-11554428D01*
X7143095Y-11573476D01*
X7333571Y-11373476D02*
X7238333Y-11373476D01*
X7228809Y-11468714D01*
X7238333Y-11459190D01*
X7257381Y-11449667D01*
X7305000Y-11449667D01*
X7324048Y-11459190D01*
X7333571Y-11468714D01*
X7343095Y-11487762D01*
X7343095Y-11535381D01*
X7333571Y-11554428D01*
X7324048Y-11563952D01*
X7305000Y-11573476D01*
X7257381Y-11573476D01*
X7238333Y-11563952D01*
X7228809Y-11554428D01*
X7466905Y-11373476D02*
X7485952Y-11373476D01*
X7505000Y-11383000D01*
X7514524Y-11392524D01*
X7524048Y-11411571D01*
X7533571Y-11449667D01*
X7533571Y-11497286D01*
X7524048Y-11535381D01*
X7514524Y-11554428D01*
X7505000Y-11563952D01*
X7485952Y-11573476D01*
X7466905Y-11573476D01*
X7447857Y-11563952D01*
X7438333Y-11554428D01*
X7428809Y-11535381D01*
X7419286Y-11497286D01*
X7419286Y-11449667D01*
X7428809Y-11411571D01*
X7438333Y-11392524D01*
X7447857Y-11383000D01*
X7466905Y-11373476D01*
X7657381Y-11373476D02*
X7676428Y-11373476D01*
X7695476Y-11383000D01*
X7705000Y-11392524D01*
X7714524Y-11411571D01*
X7724048Y-11449667D01*
X7724048Y-11497286D01*
X7714524Y-11535381D01*
X7705000Y-11554428D01*
X7695476Y-11563952D01*
X7676428Y-11573476D01*
X7657381Y-11573476D01*
X7638333Y-11563952D01*
X7628809Y-11554428D01*
X7619286Y-11535381D01*
X7609762Y-11497286D01*
X7609762Y-11449667D01*
X7619286Y-11411571D01*
X7628809Y-11392524D01*
X7638333Y-11383000D01*
X7657381Y-11373476D01*
X7809762Y-11573476D02*
X7809762Y-11440143D01*
X7809762Y-11459190D02*
X7819286Y-11449667D01*
X7838333Y-11440143D01*
X7866905Y-11440143D01*
X7885952Y-11449667D01*
X7895476Y-11468714D01*
X7895476Y-11573476D01*
X7895476Y-11468714D02*
X7905000Y-11449667D01*
X7924048Y-11440143D01*
X7952619Y-11440143D01*
X7971667Y-11449667D01*
X7981190Y-11468714D01*
X7981190Y-11573476D01*
X8076428Y-11573476D02*
X8076428Y-11440143D01*
X8076428Y-11459190D02*
X8085952Y-11449667D01*
X8105000Y-11440143D01*
X8133571Y-11440143D01*
X8152619Y-11449667D01*
X8162143Y-11468714D01*
X8162143Y-11573476D01*
X8162143Y-11468714D02*
X8171667Y-11449667D01*
X8190714Y-11440143D01*
X8219286Y-11440143D01*
X8238333Y-11449667D01*
X8247857Y-11468714D01*
X8247857Y-11573476D01*
X8638333Y-11363952D02*
X8466905Y-11621095D01*
X8895476Y-11373476D02*
X8914524Y-11373476D01*
X8933571Y-11383000D01*
X8943095Y-11392524D01*
X8952619Y-11411571D01*
X8962143Y-11449667D01*
X8962143Y-11497286D01*
X8952619Y-11535381D01*
X8943095Y-11554428D01*
X8933571Y-11563952D01*
X8914524Y-11573476D01*
X8895476Y-11573476D01*
X8876429Y-11563952D01*
X8866905Y-11554428D01*
X8857381Y-11535381D01*
X8847857Y-11497286D01*
X8847857Y-11449667D01*
X8857381Y-11411571D01*
X8866905Y-11392524D01*
X8876429Y-11383000D01*
X8895476Y-11373476D01*
X9047857Y-11554428D02*
X9057381Y-11563952D01*
X9047857Y-11573476D01*
X9038333Y-11563952D01*
X9047857Y-11554428D01*
X9047857Y-11573476D01*
X9181190Y-11373476D02*
X9200238Y-11373476D01*
X9219286Y-11383000D01*
X9228810Y-11392524D01*
X9238333Y-11411571D01*
X9247857Y-11449667D01*
X9247857Y-11497286D01*
X9238333Y-11535381D01*
X9228810Y-11554428D01*
X9219286Y-11563952D01*
X9200238Y-11573476D01*
X9181190Y-11573476D01*
X9162143Y-11563952D01*
X9152619Y-11554428D01*
X9143095Y-11535381D01*
X9133571Y-11497286D01*
X9133571Y-11449667D01*
X9143095Y-11411571D01*
X9152619Y-11392524D01*
X9162143Y-11383000D01*
X9181190Y-11373476D01*
X9343095Y-11573476D02*
X9381190Y-11573476D01*
X9400238Y-11563952D01*
X9409762Y-11554428D01*
X9428810Y-11525857D01*
X9438333Y-11487762D01*
X9438333Y-11411571D01*
X9428810Y-11392524D01*
X9419286Y-11383000D01*
X9400238Y-11373476D01*
X9362143Y-11373476D01*
X9343095Y-11383000D01*
X9333571Y-11392524D01*
X9324048Y-11411571D01*
X9324048Y-11459190D01*
X9333571Y-11478238D01*
X9343095Y-11487762D01*
X9362143Y-11497286D01*
X9400238Y-11497286D01*
X9419286Y-11487762D01*
X9428810Y-11478238D01*
X9438333Y-11459190D01*
X9552619Y-11459190D02*
X9533571Y-11449667D01*
X9524048Y-11440143D01*
X9514524Y-11421095D01*
X9514524Y-11411571D01*
X9524048Y-11392524D01*
X9533571Y-11383000D01*
X9552619Y-11373476D01*
X9590714Y-11373476D01*
X9609762Y-11383000D01*
X9619286Y-11392524D01*
X9628810Y-11411571D01*
X9628810Y-11421095D01*
X9619286Y-11440143D01*
X9609762Y-11449667D01*
X9590714Y-11459190D01*
X9552619Y-11459190D01*
X9533571Y-11468714D01*
X9524048Y-11478238D01*
X9514524Y-11497286D01*
X9514524Y-11535381D01*
X9524048Y-11554428D01*
X9533571Y-11563952D01*
X9552619Y-11573476D01*
X9590714Y-11573476D01*
X9609762Y-11563952D01*
X9619286Y-11554428D01*
X9628810Y-11535381D01*
X9628810Y-11497286D01*
X9619286Y-11478238D01*
X9609762Y-11468714D01*
X9590714Y-11459190D01*
X9800238Y-11440143D02*
X9800238Y-11573476D01*
X9752619Y-11363952D02*
X9705000Y-11506809D01*
X9828810Y-11506809D01*
X9895476Y-11373476D02*
X9895476Y-11411571D01*
X9971667Y-11373476D02*
X9971667Y-11411571D01*
X10266905Y-11649667D02*
X10257381Y-11640143D01*
X10238333Y-11611571D01*
X10228810Y-11592524D01*
X10219286Y-11563952D01*
X10209762Y-11516333D01*
X10209762Y-11478238D01*
X10219286Y-11430619D01*
X10228810Y-11402048D01*
X10238333Y-11383000D01*
X10257381Y-11354428D01*
X10266905Y-11344905D01*
X10381190Y-11373476D02*
X10400238Y-11373476D01*
X10419286Y-11383000D01*
X10428810Y-11392524D01*
X10438333Y-11411571D01*
X10447857Y-11449667D01*
X10447857Y-11497286D01*
X10438333Y-11535381D01*
X10428810Y-11554428D01*
X10419286Y-11563952D01*
X10400238Y-11573476D01*
X10381190Y-11573476D01*
X10362143Y-11563952D01*
X10352619Y-11554428D01*
X10343095Y-11535381D01*
X10333571Y-11497286D01*
X10333571Y-11449667D01*
X10343095Y-11411571D01*
X10352619Y-11392524D01*
X10362143Y-11383000D01*
X10381190Y-11373476D01*
X10685952Y-11573476D02*
X10685952Y-11373476D01*
X10771667Y-11573476D02*
X10771667Y-11468714D01*
X10762143Y-11449667D01*
X10743095Y-11440143D01*
X10714524Y-11440143D01*
X10695476Y-11449667D01*
X10685952Y-11459190D01*
X10895476Y-11573476D02*
X10876429Y-11563952D01*
X10866905Y-11554428D01*
X10857381Y-11535381D01*
X10857381Y-11478238D01*
X10866905Y-11459190D01*
X10876429Y-11449667D01*
X10895476Y-11440143D01*
X10924048Y-11440143D01*
X10943095Y-11449667D01*
X10952619Y-11459190D01*
X10962143Y-11478238D01*
X10962143Y-11535381D01*
X10952619Y-11554428D01*
X10943095Y-11563952D01*
X10924048Y-11573476D01*
X10895476Y-11573476D01*
X11076429Y-11573476D02*
X11057381Y-11563952D01*
X11047857Y-11544905D01*
X11047857Y-11373476D01*
X11228809Y-11563952D02*
X11209762Y-11573476D01*
X11171667Y-11573476D01*
X11152619Y-11563952D01*
X11143095Y-11544905D01*
X11143095Y-11468714D01*
X11152619Y-11449667D01*
X11171667Y-11440143D01*
X11209762Y-11440143D01*
X11228809Y-11449667D01*
X11238333Y-11468714D01*
X11238333Y-11487762D01*
X11143095Y-11506809D01*
X11314524Y-11563952D02*
X11333571Y-11573476D01*
X11371667Y-11573476D01*
X11390714Y-11563952D01*
X11400238Y-11544905D01*
X11400238Y-11535381D01*
X11390714Y-11516333D01*
X11371667Y-11506809D01*
X11343095Y-11506809D01*
X11324048Y-11497286D01*
X11314524Y-11478238D01*
X11314524Y-11468714D01*
X11324048Y-11449667D01*
X11343095Y-11440143D01*
X11371667Y-11440143D01*
X11390714Y-11449667D01*
X11638333Y-11497286D02*
X11790714Y-11497286D01*
X11714524Y-11573476D02*
X11714524Y-11421095D01*
X12124048Y-11440143D02*
X12124048Y-11573476D01*
X12076428Y-11363952D02*
X12028809Y-11506809D01*
X12152619Y-11506809D01*
X12371667Y-11563952D02*
X12390714Y-11573476D01*
X12428809Y-11573476D01*
X12447857Y-11563952D01*
X12457381Y-11544905D01*
X12457381Y-11535381D01*
X12447857Y-11516333D01*
X12428809Y-11506809D01*
X12400238Y-11506809D01*
X12381190Y-11497286D01*
X12371667Y-11478238D01*
X12371667Y-11468714D01*
X12381190Y-11449667D01*
X12400238Y-11440143D01*
X12428809Y-11440143D01*
X12447857Y-11449667D01*
X12571667Y-11573476D02*
X12552619Y-11563952D01*
X12543095Y-11544905D01*
X12543095Y-11373476D01*
X12676428Y-11573476D02*
X12657381Y-11563952D01*
X12647857Y-11554428D01*
X12638333Y-11535381D01*
X12638333Y-11478238D01*
X12647857Y-11459190D01*
X12657381Y-11449667D01*
X12676428Y-11440143D01*
X12705000Y-11440143D01*
X12724048Y-11449667D01*
X12733571Y-11459190D01*
X12743095Y-11478238D01*
X12743095Y-11535381D01*
X12733571Y-11554428D01*
X12724048Y-11563952D01*
X12705000Y-11573476D01*
X12676428Y-11573476D01*
X12800238Y-11440143D02*
X12876428Y-11440143D01*
X12828809Y-11373476D02*
X12828809Y-11544905D01*
X12838333Y-11563952D01*
X12857381Y-11573476D01*
X12876428Y-11573476D01*
X12933571Y-11563952D02*
X12952619Y-11573476D01*
X12990714Y-11573476D01*
X13009762Y-11563952D01*
X13019286Y-11544905D01*
X13019286Y-11535381D01*
X13009762Y-11516333D01*
X12990714Y-11506809D01*
X12962143Y-11506809D01*
X12943095Y-11497286D01*
X12933571Y-11478238D01*
X12933571Y-11468714D01*
X12943095Y-11449667D01*
X12962143Y-11440143D01*
X12990714Y-11440143D01*
X13009762Y-11449667D01*
X13085952Y-11649667D02*
X13095476Y-11640143D01*
X13114524Y-11611571D01*
X13124048Y-11592524D01*
X13133571Y-11563952D01*
X13143095Y-11516333D01*
X13143095Y-11478238D01*
X13133571Y-11430619D01*
X13124048Y-11402048D01*
X13114524Y-11383000D01*
X13095476Y-11354428D01*
X13085952Y-11344905D01*
M02*
