%TF.GenerationSoftware,KiCad,Pcbnew,6.0.7+dfsg-1build1*%
%TF.CreationDate,2023-02-23T20:09:56+01:00*%
%TF.ProjectId,mqtt_bridge,6d717474-5f62-4726-9964-67652e6b6963,rev?*%
%TF.SameCoordinates,Original*%
%TF.FileFunction,Soldermask,Top*%
%TF.FilePolarity,Negative*%
%FSLAX46Y46*%
G04 Gerber Fmt 4.6, Leading zero omitted, Abs format (unit mm)*
G04 Created by KiCad (PCBNEW 6.0.7+dfsg-1build1) date 2023-02-23 20:09:56*
%MOMM*%
%LPD*%
G01*
G04 APERTURE LIST*
%ADD10O,1.600000X2.000000*%
%ADD11O,4.680000X2.690000*%
%ADD12C,4.300000*%
%ADD13C,2.050000*%
%ADD14C,2.250000*%
%ADD15R,1.200000X2.000000*%
%ADD16O,1.200000X2.000000*%
%ADD17R,1.350000X1.350000*%
%ADD18C,1.350000*%
G04 APERTURE END LIST*
D10*
%TO.C,Display*%
X98200000Y-29550000D03*
X95660000Y-29550000D03*
X93120000Y-29550000D03*
X90580000Y-29550000D03*
D11*
X83400000Y-29450000D03*
X83400000Y-53550000D03*
X105600000Y-53550000D03*
X105500000Y-29450000D03*
%TD*%
D12*
%TO.C,REF\u002A\u002A*%
X154000000Y-32000000D03*
%TD*%
D13*
%TO.C,ANT*%
X146500000Y-47000000D03*
D14*
X143960000Y-44460000D03*
X149040000Y-44460000D03*
X149040000Y-49540000D03*
X143960000Y-49540000D03*
%TD*%
D15*
%TO.C,U2*%
X95500000Y-91000000D03*
D16*
X98040000Y-91000000D03*
X100580000Y-91000000D03*
X103120000Y-91000000D03*
X105660000Y-91000000D03*
X108200000Y-91000000D03*
X110740000Y-91000000D03*
X113280000Y-91000000D03*
X115820000Y-91000000D03*
X118360000Y-91000000D03*
X120900000Y-91000000D03*
X123440000Y-91000000D03*
X125980000Y-91000000D03*
X128520000Y-91000000D03*
X131060000Y-91000000D03*
X133600000Y-91000000D03*
X136140000Y-91000000D03*
X138680000Y-91000000D03*
X141220000Y-91000000D03*
X141217280Y-65603680D03*
X138677280Y-65603680D03*
X136140000Y-65600000D03*
X133600000Y-65600000D03*
X131060000Y-65600000D03*
X128520000Y-65600000D03*
X125980000Y-65600000D03*
X123440000Y-65600000D03*
X120900000Y-65600000D03*
X118360000Y-65600000D03*
X115820000Y-65600000D03*
X113280000Y-65600000D03*
X110740000Y-65600000D03*
X108200000Y-65600000D03*
X105660000Y-65600000D03*
X103120000Y-65600000D03*
X100580000Y-65600000D03*
X98040000Y-65600000D03*
X95500000Y-65600000D03*
%TD*%
D12*
%TO.C,REF\u002A\u002A*%
X73000000Y-92000000D03*
%TD*%
D17*
%TO.C,U1*%
X121592500Y-44707500D03*
D18*
X123592500Y-44707500D03*
X125592500Y-44707500D03*
X127592500Y-44707500D03*
X129592500Y-44707500D03*
X131592500Y-44707500D03*
X133592500Y-44707500D03*
X135592500Y-44707500D03*
X135592500Y-31107500D03*
X133592500Y-31107500D03*
X131592500Y-31107500D03*
X129592500Y-31107500D03*
X127592500Y-31107500D03*
X125592500Y-31107500D03*
X123592500Y-31107500D03*
X121592500Y-31107500D03*
%TD*%
D12*
%TO.C,REF\u002A\u002A*%
X73000000Y-32000000D03*
%TD*%
%TO.C,REF\u002A\u002A*%
X154000000Y-92000000D03*
%TD*%
M02*
