%TF.GenerationSoftware,KiCad,Pcbnew,6.0.7+dfsg-1build1*%
%TF.CreationDate,2023-02-23T20:09:55+01:00*%
%TF.ProjectId,mqtt_bridge,6d717474-5f62-4726-9964-67652e6b6963,rev?*%
%TF.SameCoordinates,Original*%
%TF.FileFunction,Copper,L2,Bot*%
%TF.FilePolarity,Positive*%
%FSLAX46Y46*%
G04 Gerber Fmt 4.6, Leading zero omitted, Abs format (unit mm)*
G04 Created by KiCad (PCBNEW 6.0.7+dfsg-1build1) date 2023-02-23 20:09:55*
%MOMM*%
%LPD*%
G01*
G04 APERTURE LIST*
%TA.AperFunction,ComponentPad*%
%ADD10O,1.600000X2.000000*%
%TD*%
%TA.AperFunction,ComponentPad*%
%ADD11O,4.680000X2.690000*%
%TD*%
%TA.AperFunction,ComponentPad*%
%ADD12C,2.050000*%
%TD*%
%TA.AperFunction,ComponentPad*%
%ADD13C,2.250000*%
%TD*%
%TA.AperFunction,ComponentPad*%
%ADD14R,1.200000X2.000000*%
%TD*%
%TA.AperFunction,ComponentPad*%
%ADD15O,1.200000X2.000000*%
%TD*%
%TA.AperFunction,ComponentPad*%
%ADD16R,1.350000X1.350000*%
%TD*%
%TA.AperFunction,ComponentPad*%
%ADD17C,1.350000*%
%TD*%
%TA.AperFunction,Conductor*%
%ADD18C,0.812800*%
%TD*%
%TA.AperFunction,Conductor*%
%ADD19C,0.508000*%
%TD*%
%TA.AperFunction,Conductor*%
%ADD20C,0.609600*%
%TD*%
G04 APERTURE END LIST*
D10*
%TO.P,Display,4,SDA*%
%TO.N,SDA*%
X98200000Y-29550000D03*
%TO.P,Display,3,SCL*%
%TO.N,SCL*%
X95660000Y-29550000D03*
%TO.P,Display,2,VCC*%
%TO.N,+3.3V*%
X93120000Y-29550000D03*
%TO.P,Display,1,GND*%
%TO.N,GND*%
X90580000Y-29550000D03*
D11*
%TO.P,Display,*%
%TO.N,*%
X83400000Y-29450000D03*
X83400000Y-53550000D03*
X105600000Y-53550000D03*
X105500000Y-29450000D03*
%TD*%
D12*
%TO.P,ANT,1,In*%
%TO.N,Net-(J1-Pad1)*%
X146500000Y-47000000D03*
D13*
%TO.P,ANT,2,Ext*%
%TO.N,GND*%
X143960000Y-44460000D03*
X149040000Y-44460000D03*
X149040000Y-49540000D03*
X143960000Y-49540000D03*
%TD*%
D14*
%TO.P,U2,1,3V3*%
%TO.N,+3.3V*%
X95500000Y-91000000D03*
D15*
%TO.P,U2,2,CHIP_PU*%
%TO.N,unconnected-(U2-Pad2)*%
X98040000Y-91000000D03*
%TO.P,U2,3,SENSOR_VP/GPIO36/ADC1_CH0*%
%TO.N,unconnected-(U2-Pad3)*%
X100580000Y-91000000D03*
%TO.P,U2,4,SENSOR_VN/GPIO39/ADC1_CH3*%
%TO.N,unconnected-(U2-Pad4)*%
X103120000Y-91000000D03*
%TO.P,U2,5,VDET_1/GPIO34/ADC1_CH6*%
%TO.N,unconnected-(U2-Pad5)*%
X105660000Y-91000000D03*
%TO.P,U2,6,VDET_2/GPIO35/ADC1_CH7*%
%TO.N,unconnected-(U2-Pad6)*%
X108200000Y-91000000D03*
%TO.P,U2,7,32K_XP/GPIO32/ADC1_CH4*%
%TO.N,unconnected-(U2-Pad7)*%
X110740000Y-91000000D03*
%TO.P,U2,8,32K_XN/GPIO33/ADC1_CH5*%
%TO.N,unconnected-(U2-Pad8)*%
X113280000Y-91000000D03*
%TO.P,U2,9,DAC_1/ADC2_CH8/GPIO25*%
%TO.N,unconnected-(U2-Pad9)*%
X115820000Y-91000000D03*
%TO.P,U2,10,DAC_2/ADC2_CH9/GPIO26*%
%TO.N,unconnected-(U2-Pad10)*%
X118360000Y-91000000D03*
%TO.P,U2,11,ADC2_CH7/GPIO27*%
%TO.N,unconnected-(U2-Pad11)*%
X120900000Y-91000000D03*
%TO.P,U2,12,MTMS/GPIO14/ADC2_CH6*%
%TO.N,Net-(U1-Pad6)*%
X123440000Y-91000000D03*
%TO.P,U2,13,\u002AMTDI/GPIO12/ADC2_CH5*%
%TO.N,unconnected-(U2-Pad13)*%
X125980000Y-91000000D03*
%TO.P,U2,14,GND*%
%TO.N,GND*%
X128520000Y-91000000D03*
%TO.P,U2,15,MTCK/GPIO13/ADC2_CH4*%
%TO.N,unconnected-(U2-Pad15)*%
X131060000Y-91000000D03*
%TO.P,U2,16,SD_DATA2/GPIO9*%
%TO.N,unconnected-(U2-Pad16)*%
X133600000Y-91000000D03*
%TO.P,U2,17,SD_DATA3/GPIO10*%
%TO.N,unconnected-(U2-Pad17)*%
X136140000Y-91000000D03*
%TO.P,U2,18,CMD*%
%TO.N,unconnected-(U2-Pad18)*%
X138680000Y-91000000D03*
%TO.P,U2,19,5V*%
%TO.N,unconnected-(U2-Pad19)*%
X141220000Y-91000000D03*
%TO.P,U2,20,SD_CLK/GPIO6*%
%TO.N,unconnected-(U2-Pad20)*%
X141217280Y-65603680D03*
%TO.P,U2,21,SD_DATA0/GPIO7*%
%TO.N,unconnected-(U2-Pad21)*%
X138677280Y-65603680D03*
%TO.P,U2,22,SD_DATA1/GPIO8*%
%TO.N,unconnected-(U2-Pad22)*%
X136140000Y-65600000D03*
%TO.P,U2,23,\u002AMTDO/GPIO15/ADC2_CH3*%
%TO.N,unconnected-(U2-Pad23)*%
X133600000Y-65600000D03*
%TO.P,U2,24,ADC2_CH2/\u002AGPIO2*%
%TO.N,DI0*%
X131060000Y-65600000D03*
%TO.P,U2,25,\u002AGPIO0/BOOT/ADC2_CH1*%
%TO.N,unconnected-(U2-Pad25)*%
X128520000Y-65600000D03*
%TO.P,U2,26,ADC2_CH0/GPIO4*%
%TO.N,unconnected-(U2-Pad26)*%
X125980000Y-65600000D03*
%TO.P,U2,27,GPIO16*%
%TO.N,unconnected-(U2-Pad27)*%
X123440000Y-65600000D03*
%TO.P,U2,28,GPIO17*%
%TO.N,unconnected-(U2-Pad28)*%
X120900000Y-65600000D03*
%TO.P,U2,29,\u002AGPIO5*%
%TO.N,NSS*%
X118360000Y-65600000D03*
%TO.P,U2,30,GPIO18*%
%TO.N,CLK*%
X115820000Y-65600000D03*
%TO.P,U2,31,GPIO19*%
%TO.N,MISO*%
X113280000Y-65600000D03*
%TO.P,U2,32,GND*%
%TO.N,GND*%
X110740000Y-65600000D03*
%TO.P,U2,33,GPIO21*%
%TO.N,SDA*%
X108200000Y-65600000D03*
%TO.P,U2,34,U0RXD/GPIO3*%
%TO.N,unconnected-(U2-Pad34)*%
X105660000Y-65600000D03*
%TO.P,U2,35,U0TXD/GPIO1*%
%TO.N,unconnected-(U2-Pad35)*%
X103120000Y-65600000D03*
%TO.P,U2,36,GPIO22*%
%TO.N,SCL*%
X100580000Y-65600000D03*
%TO.P,U2,37,GPIO23*%
%TO.N,MOSI*%
X98040000Y-65600000D03*
%TO.P,U2,38,GND*%
%TO.N,GND*%
X95500000Y-65600000D03*
%TD*%
D16*
%TO.P,U1,1,GND*%
%TO.N,GND*%
X121592500Y-44707500D03*
D17*
%TO.P,U1,2,MISO*%
%TO.N,MISO*%
X123592500Y-44707500D03*
%TO.P,U1,3,MOSI*%
%TO.N,MOSI*%
X125592500Y-44707500D03*
%TO.P,U1,4,SCK*%
%TO.N,CLK*%
X127592500Y-44707500D03*
%TO.P,U1,5,NSS*%
%TO.N,NSS*%
X129592500Y-44707500D03*
%TO.P,U1,6,RESET*%
%TO.N,Net-(U1-Pad6)*%
X131592500Y-44707500D03*
%TO.P,U1,7,DIO5*%
%TO.N,unconnected-(U1-Pad7)*%
X133592500Y-44707500D03*
%TO.P,U1,8,GND*%
%TO.N,GND*%
X135592500Y-44707500D03*
%TO.P,U1,9,ANT*%
%TO.N,Net-(J1-Pad1)*%
X135592500Y-31107500D03*
%TO.P,U1,10,GND*%
%TO.N,GND*%
X133592500Y-31107500D03*
%TO.P,U1,11,DIO3*%
%TO.N,unconnected-(U1-Pad11)*%
X131592500Y-31107500D03*
%TO.P,U1,12,DIO4*%
%TO.N,unconnected-(U1-Pad12)*%
X129592500Y-31107500D03*
%TO.P,U1,13,3.3V*%
%TO.N,+3.3V*%
X127592500Y-31107500D03*
%TO.P,U1,14,DIO0*%
%TO.N,DI0*%
X125592500Y-31107500D03*
%TO.P,U1,15,DIO1*%
%TO.N,unconnected-(U1-Pad15)*%
X123592500Y-31107500D03*
%TO.P,U1,16,DIO2*%
%TO.N,unconnected-(U1-Pad16)*%
X121592500Y-31107500D03*
%TD*%
D18*
%TO.N,+3.3V*%
X93120000Y-29550000D02*
X93120000Y-69870000D01*
X95500000Y-72250000D02*
X93120000Y-69870000D01*
X95500000Y-91000000D02*
X95500000Y-72250000D01*
%TO.N,MISO*%
X113280000Y-60720000D02*
X113280000Y-65600000D01*
X123592500Y-50407500D02*
X113280000Y-60720000D01*
X123592500Y-44707500D02*
X123592500Y-50407500D01*
%TO.N,MOSI*%
X98040000Y-65600000D02*
X98040000Y-69040000D01*
X114500000Y-70250000D02*
X114500000Y-67500000D01*
D19*
X125592500Y-44707500D02*
X125592500Y-50407500D01*
D18*
X98040000Y-69040000D02*
X100750000Y-71750000D01*
X100750000Y-71750000D02*
X113000000Y-71750000D01*
D19*
X114500000Y-61500000D02*
X115500000Y-60500000D01*
D18*
X113000000Y-71750000D02*
X114500000Y-70250000D01*
D19*
X125592500Y-50407500D02*
X115500000Y-60500000D01*
X114500000Y-67500000D02*
X114500000Y-61500000D01*
D18*
%TO.N,CLK*%
X127592500Y-44707500D02*
X127592500Y-50407500D01*
X115820000Y-62180000D02*
X115820000Y-65600000D01*
X127592500Y-50407500D02*
X115820000Y-62180000D01*
%TO.N,NSS*%
X118360000Y-65600000D02*
X118360000Y-61640000D01*
X129592500Y-50407500D02*
X129592500Y-44707500D01*
X118360000Y-61640000D02*
X129592500Y-50407500D01*
%TO.N,DI0*%
X131060000Y-55940000D02*
X131060000Y-65600000D01*
X125592500Y-31107500D02*
X125592500Y-36592500D01*
X137500000Y-41500000D02*
X139000000Y-43000000D01*
X130500000Y-41500000D02*
X137500000Y-41500000D01*
X125592500Y-36592500D02*
X130500000Y-41500000D01*
X139000000Y-48000000D02*
X131060000Y-55940000D01*
X139000000Y-43000000D02*
X139000000Y-48000000D01*
%TO.N,SDA*%
X98200000Y-52700000D02*
X98200000Y-29550000D01*
X108200000Y-62700000D02*
X98200000Y-52700000D01*
X108200000Y-65600000D02*
X108200000Y-62700000D01*
%TO.N,SCL*%
X100580000Y-65600000D02*
X100580000Y-58580000D01*
X100580000Y-58580000D02*
X95660000Y-53660000D01*
X95660000Y-53660000D02*
X95660000Y-29550000D01*
%TO.N,Net-(U1-Pad6)*%
X127250000Y-67750000D02*
X127250000Y-73250000D01*
X123440000Y-77060000D02*
X127250000Y-73250000D01*
X131592500Y-50407500D02*
X131592500Y-44707500D01*
X127250000Y-63000000D02*
X127250000Y-54750000D01*
X123440000Y-91000000D02*
X123440000Y-77060000D01*
X127250000Y-54750000D02*
X131592500Y-50407500D01*
D20*
X127250000Y-63000000D02*
X127250000Y-67750000D01*
D18*
%TO.N,Net-(J1-Pad1)*%
X135592500Y-31107500D02*
X143607500Y-31107500D01*
X143607500Y-31107500D02*
X146500000Y-34000000D01*
X146500000Y-34000000D02*
X146500000Y-47000000D01*
%TD*%
M02*
