%TF.GenerationSoftware,KiCad,Pcbnew,6.0.7+dfsg-1build1*%
%TF.CreationDate,2023-02-23T20:09:56+01:00*%
%TF.ProjectId,mqtt_bridge,6d717474-5f62-4726-9964-67652e6b6963,rev?*%
%TF.SameCoordinates,Original*%
%TF.FileFunction,Legend,Top*%
%TF.FilePolarity,Positive*%
%FSLAX46Y46*%
G04 Gerber Fmt 4.6, Leading zero omitted, Abs format (unit mm)*
G04 Created by KiCad (PCBNEW 6.0.7+dfsg-1build1) date 2023-02-23 20:09:56*
%MOMM*%
%LPD*%
G01*
G04 APERTURE LIST*
%ADD10C,0.300000*%
%ADD11C,0.150000*%
%ADD12C,0.120000*%
G04 APERTURE END LIST*
D10*
X151678571Y-76035714D02*
X150178571Y-76035714D01*
X151250000Y-75535714D01*
X150178571Y-75035714D01*
X151678571Y-75035714D01*
X151821428Y-73321428D02*
X151750000Y-73464285D01*
X151607142Y-73607142D01*
X151392857Y-73821428D01*
X151321428Y-73964285D01*
X151321428Y-74107142D01*
X151678571Y-74035714D02*
X151607142Y-74178571D01*
X151464285Y-74321428D01*
X151178571Y-74392857D01*
X150678571Y-74392857D01*
X150392857Y-74321428D01*
X150250000Y-74178571D01*
X150178571Y-74035714D01*
X150178571Y-73750000D01*
X150250000Y-73607142D01*
X150392857Y-73464285D01*
X150678571Y-73392857D01*
X151178571Y-73392857D01*
X151464285Y-73464285D01*
X151607142Y-73607142D01*
X151678571Y-73750000D01*
X151678571Y-74035714D01*
X150178571Y-72964285D02*
X150178571Y-72107142D01*
X151678571Y-72535714D02*
X150178571Y-72535714D01*
X150178571Y-71821428D02*
X150178571Y-70964285D01*
X151678571Y-71392857D02*
X150178571Y-71392857D01*
X150178571Y-69464285D02*
X151678571Y-69107142D01*
X150607142Y-68821428D01*
X151678571Y-68535714D01*
X150178571Y-68178571D01*
X151678571Y-66892857D02*
X151678571Y-67607142D01*
X150178571Y-67607142D01*
X151250000Y-66464285D02*
X151250000Y-65750000D01*
X151678571Y-66607142D02*
X150178571Y-66107142D01*
X151678571Y-65607142D01*
X151678571Y-65107142D02*
X150178571Y-65107142D01*
X151678571Y-64250000D01*
X150178571Y-64250000D01*
X150892857Y-61892857D02*
X150964285Y-61678571D01*
X151035714Y-61607142D01*
X151178571Y-61535714D01*
X151392857Y-61535714D01*
X151535714Y-61607142D01*
X151607142Y-61678571D01*
X151678571Y-61821428D01*
X151678571Y-62392857D01*
X150178571Y-62392857D01*
X150178571Y-61892857D01*
X150250000Y-61750000D01*
X150321428Y-61678571D01*
X150464285Y-61607142D01*
X150607142Y-61607142D01*
X150750000Y-61678571D01*
X150821428Y-61750000D01*
X150892857Y-61892857D01*
X150892857Y-62392857D01*
X151678571Y-60892857D02*
X150678571Y-60892857D01*
X150964285Y-60892857D02*
X150821428Y-60821428D01*
X150750000Y-60750000D01*
X150678571Y-60607142D01*
X150678571Y-60464285D01*
X151678571Y-59964285D02*
X150678571Y-59964285D01*
X150178571Y-59964285D02*
X150250000Y-60035714D01*
X150321428Y-59964285D01*
X150250000Y-59892857D01*
X150178571Y-59964285D01*
X150321428Y-59964285D01*
X151678571Y-58607142D02*
X150178571Y-58607142D01*
X151607142Y-58607142D02*
X151678571Y-58750000D01*
X151678571Y-59035714D01*
X151607142Y-59178571D01*
X151535714Y-59250000D01*
X151392857Y-59321428D01*
X150964285Y-59321428D01*
X150821428Y-59250000D01*
X150750000Y-59178571D01*
X150678571Y-59035714D01*
X150678571Y-58750000D01*
X150750000Y-58607142D01*
X150678571Y-57250000D02*
X151892857Y-57250000D01*
X152035714Y-57321428D01*
X152107142Y-57392857D01*
X152178571Y-57535714D01*
X152178571Y-57750000D01*
X152107142Y-57892857D01*
X151607142Y-57250000D02*
X151678571Y-57392857D01*
X151678571Y-57678571D01*
X151607142Y-57821428D01*
X151535714Y-57892857D01*
X151392857Y-57964285D01*
X150964285Y-57964285D01*
X150821428Y-57892857D01*
X150750000Y-57821428D01*
X150678571Y-57678571D01*
X150678571Y-57392857D01*
X150750000Y-57250000D01*
X151607142Y-55964285D02*
X151678571Y-56107142D01*
X151678571Y-56392857D01*
X151607142Y-56535714D01*
X151464285Y-56607142D01*
X150892857Y-56607142D01*
X150750000Y-56535714D01*
X150678571Y-56392857D01*
X150678571Y-56107142D01*
X150750000Y-55964285D01*
X150892857Y-55892857D01*
X151035714Y-55892857D01*
X151178571Y-56607142D01*
D11*
%TO.C,Display*%
X84167619Y-38002380D02*
X84167619Y-37002380D01*
X84405714Y-37002380D01*
X84548571Y-37050000D01*
X84643809Y-37145238D01*
X84691428Y-37240476D01*
X84739047Y-37430952D01*
X84739047Y-37573809D01*
X84691428Y-37764285D01*
X84643809Y-37859523D01*
X84548571Y-37954761D01*
X84405714Y-38002380D01*
X84167619Y-38002380D01*
X85167619Y-38002380D02*
X85167619Y-37335714D01*
X85167619Y-37002380D02*
X85120000Y-37050000D01*
X85167619Y-37097619D01*
X85215238Y-37050000D01*
X85167619Y-37002380D01*
X85167619Y-37097619D01*
X85596190Y-37954761D02*
X85691428Y-38002380D01*
X85881904Y-38002380D01*
X85977142Y-37954761D01*
X86024761Y-37859523D01*
X86024761Y-37811904D01*
X85977142Y-37716666D01*
X85881904Y-37669047D01*
X85739047Y-37669047D01*
X85643809Y-37621428D01*
X85596190Y-37526190D01*
X85596190Y-37478571D01*
X85643809Y-37383333D01*
X85739047Y-37335714D01*
X85881904Y-37335714D01*
X85977142Y-37383333D01*
X86453333Y-37335714D02*
X86453333Y-38335714D01*
X86453333Y-37383333D02*
X86548571Y-37335714D01*
X86739047Y-37335714D01*
X86834285Y-37383333D01*
X86881904Y-37430952D01*
X86929523Y-37526190D01*
X86929523Y-37811904D01*
X86881904Y-37907142D01*
X86834285Y-37954761D01*
X86739047Y-38002380D01*
X86548571Y-38002380D01*
X86453333Y-37954761D01*
X87500952Y-38002380D02*
X87405714Y-37954761D01*
X87358095Y-37859523D01*
X87358095Y-37002380D01*
X88310476Y-38002380D02*
X88310476Y-37478571D01*
X88262857Y-37383333D01*
X88167619Y-37335714D01*
X87977142Y-37335714D01*
X87881904Y-37383333D01*
X88310476Y-37954761D02*
X88215238Y-38002380D01*
X87977142Y-38002380D01*
X87881904Y-37954761D01*
X87834285Y-37859523D01*
X87834285Y-37764285D01*
X87881904Y-37669047D01*
X87977142Y-37621428D01*
X88215238Y-37621428D01*
X88310476Y-37573809D01*
X88691428Y-37335714D02*
X88929523Y-38002380D01*
X89167619Y-37335714D02*
X88929523Y-38002380D01*
X88834285Y-38240476D01*
X88786666Y-38288095D01*
X88691428Y-38335714D01*
%TO.C,ANT*%
X145357142Y-52666666D02*
X145833333Y-52666666D01*
X145261904Y-52952380D02*
X145595238Y-51952380D01*
X145928571Y-52952380D01*
X146261904Y-52952380D02*
X146261904Y-51952380D01*
X146833333Y-52952380D01*
X146833333Y-51952380D01*
X147166666Y-51952380D02*
X147738095Y-51952380D01*
X147452380Y-52952380D02*
X147452380Y-51952380D01*
%TO.C,U2*%
X92355820Y-91561904D02*
X93165344Y-91561904D01*
X93260582Y-91514285D01*
X93308201Y-91466666D01*
X93355820Y-91371428D01*
X93355820Y-91180952D01*
X93308201Y-91085714D01*
X93260582Y-91038095D01*
X93165344Y-90990476D01*
X92355820Y-90990476D01*
X92451059Y-90561904D02*
X92403440Y-90514285D01*
X92355820Y-90419047D01*
X92355820Y-90180952D01*
X92403440Y-90085714D01*
X92451059Y-90038095D01*
X92546297Y-89990476D01*
X92641535Y-89990476D01*
X92784392Y-90038095D01*
X93355820Y-90609523D01*
X93355820Y-89990476D01*
X120191641Y-75508571D02*
X120524975Y-75508571D01*
X120667832Y-76032380D02*
X120191641Y-76032380D01*
X120191641Y-75032380D01*
X120667832Y-75032380D01*
X121048784Y-75984761D02*
X121191641Y-76032380D01*
X121429737Y-76032380D01*
X121524975Y-75984761D01*
X121572594Y-75937142D01*
X121620213Y-75841904D01*
X121620213Y-75746666D01*
X121572594Y-75651428D01*
X121524975Y-75603809D01*
X121429737Y-75556190D01*
X121239260Y-75508571D01*
X121144022Y-75460952D01*
X121096403Y-75413333D01*
X121048784Y-75318095D01*
X121048784Y-75222857D01*
X121096403Y-75127619D01*
X121144022Y-75080000D01*
X121239260Y-75032380D01*
X121477356Y-75032380D01*
X121620213Y-75080000D01*
X122048784Y-76032380D02*
X122048784Y-75032380D01*
X122429737Y-75032380D01*
X122524975Y-75080000D01*
X122572594Y-75127619D01*
X122620213Y-75222857D01*
X122620213Y-75365714D01*
X122572594Y-75460952D01*
X122524975Y-75508571D01*
X122429737Y-75556190D01*
X122048784Y-75556190D01*
X122953546Y-75032380D02*
X123572594Y-75032380D01*
X123239260Y-75413333D01*
X123382118Y-75413333D01*
X123477356Y-75460952D01*
X123524975Y-75508571D01*
X123572594Y-75603809D01*
X123572594Y-75841904D01*
X123524975Y-75937142D01*
X123477356Y-75984761D01*
X123382118Y-76032380D01*
X123096403Y-76032380D01*
X123001165Y-75984761D01*
X122953546Y-75937142D01*
X123953546Y-75127619D02*
X124001165Y-75080000D01*
X124096403Y-75032380D01*
X124334499Y-75032380D01*
X124429737Y-75080000D01*
X124477356Y-75127619D01*
X124524975Y-75222857D01*
X124524975Y-75318095D01*
X124477356Y-75460952D01*
X123905927Y-76032380D01*
X124524975Y-76032380D01*
X124953546Y-75651428D02*
X125715451Y-75651428D01*
X126191641Y-76032380D02*
X126191641Y-75032380D01*
X126429737Y-75032380D01*
X126572594Y-75080000D01*
X126667832Y-75175238D01*
X126715451Y-75270476D01*
X126763070Y-75460952D01*
X126763070Y-75603809D01*
X126715451Y-75794285D01*
X126667832Y-75889523D01*
X126572594Y-75984761D01*
X126429737Y-76032380D01*
X126191641Y-76032380D01*
X127572594Y-75984761D02*
X127477356Y-76032380D01*
X127286880Y-76032380D01*
X127191641Y-75984761D01*
X127144022Y-75889523D01*
X127144022Y-75508571D01*
X127191641Y-75413333D01*
X127286880Y-75365714D01*
X127477356Y-75365714D01*
X127572594Y-75413333D01*
X127620213Y-75508571D01*
X127620213Y-75603809D01*
X127144022Y-75699047D01*
X127953546Y-75365714D02*
X128191641Y-76032380D01*
X128429737Y-75365714D01*
X128810689Y-76032380D02*
X128810689Y-75032380D01*
X129382118Y-76032380D02*
X128953546Y-75460952D01*
X129382118Y-75032380D02*
X128810689Y-75603809D01*
X129810689Y-76032380D02*
X129810689Y-75365714D01*
X129810689Y-75032380D02*
X129763070Y-75080000D01*
X129810689Y-75127619D01*
X129858308Y-75080000D01*
X129810689Y-75032380D01*
X129810689Y-75127619D01*
X130144022Y-75365714D02*
X130524975Y-75365714D01*
X130286880Y-75032380D02*
X130286880Y-75889523D01*
X130334499Y-75984761D01*
X130429737Y-76032380D01*
X130524975Y-76032380D01*
X131429737Y-75937142D02*
X131382118Y-75984761D01*
X131239260Y-76032380D01*
X131144022Y-76032380D01*
X131001165Y-75984761D01*
X130905927Y-75889523D01*
X130858308Y-75794285D01*
X130810689Y-75603809D01*
X130810689Y-75460952D01*
X130858308Y-75270476D01*
X130905927Y-75175238D01*
X131001165Y-75080000D01*
X131144022Y-75032380D01*
X131239260Y-75032380D01*
X131382118Y-75080000D01*
X131429737Y-75127619D01*
X125630000Y-69567500D02*
X125596666Y-69634166D01*
X125596666Y-69734166D01*
X125630000Y-69834166D01*
X125696666Y-69900833D01*
X125763333Y-69934166D01*
X125896666Y-69967500D01*
X125996666Y-69967500D01*
X126130000Y-69934166D01*
X126196666Y-69900833D01*
X126263333Y-69834166D01*
X126296666Y-69734166D01*
X126296666Y-69667500D01*
X126263333Y-69567500D01*
X126230000Y-69534166D01*
X125996666Y-69534166D01*
X125996666Y-69667500D01*
X126296666Y-69234166D02*
X125596666Y-69234166D01*
X125596666Y-68967500D01*
X125630000Y-68900833D01*
X125663333Y-68867500D01*
X125730000Y-68834166D01*
X125830000Y-68834166D01*
X125896666Y-68867500D01*
X125930000Y-68900833D01*
X125963333Y-68967500D01*
X125963333Y-69234166D01*
X126296666Y-68534166D02*
X125596666Y-68534166D01*
X125596666Y-68067500D02*
X125596666Y-67934166D01*
X125630000Y-67867500D01*
X125696666Y-67800833D01*
X125830000Y-67767500D01*
X126063333Y-67767500D01*
X126196666Y-67800833D01*
X126263333Y-67867500D01*
X126296666Y-67934166D01*
X126296666Y-68067500D01*
X126263333Y-68134166D01*
X126196666Y-68200833D01*
X126063333Y-68234166D01*
X125830000Y-68234166D01*
X125696666Y-68200833D01*
X125630000Y-68134166D01*
X125596666Y-68067500D01*
X125830000Y-67167500D02*
X126296666Y-67167500D01*
X125563333Y-67334166D02*
X126063333Y-67500833D01*
X126063333Y-67067500D01*
X94952380Y-89489642D02*
X94952380Y-88870595D01*
X95333333Y-89203928D01*
X95333333Y-89061071D01*
X95380952Y-88965833D01*
X95428571Y-88918214D01*
X95523809Y-88870595D01*
X95761904Y-88870595D01*
X95857142Y-88918214D01*
X95904761Y-88965833D01*
X95952380Y-89061071D01*
X95952380Y-89346785D01*
X95904761Y-89442023D01*
X95857142Y-89489642D01*
X94952380Y-88584880D02*
X95952380Y-88251547D01*
X94952380Y-87918214D01*
X94952380Y-87680119D02*
X94952380Y-87061071D01*
X95333333Y-87394404D01*
X95333333Y-87251547D01*
X95380952Y-87156309D01*
X95428571Y-87108690D01*
X95523809Y-87061071D01*
X95761904Y-87061071D01*
X95857142Y-87108690D01*
X95904761Y-87156309D01*
X95952380Y-87251547D01*
X95952380Y-87537261D01*
X95904761Y-87632500D01*
X95857142Y-87680119D01*
X118010000Y-89099166D02*
X117976666Y-89165833D01*
X117976666Y-89265833D01*
X118010000Y-89365833D01*
X118076666Y-89432500D01*
X118143333Y-89465833D01*
X118276666Y-89499166D01*
X118376666Y-89499166D01*
X118510000Y-89465833D01*
X118576666Y-89432500D01*
X118643333Y-89365833D01*
X118676666Y-89265833D01*
X118676666Y-89199166D01*
X118643333Y-89099166D01*
X118610000Y-89065833D01*
X118376666Y-89065833D01*
X118376666Y-89199166D01*
X118676666Y-88765833D02*
X117976666Y-88765833D01*
X117976666Y-88499166D01*
X118010000Y-88432500D01*
X118043333Y-88399166D01*
X118110000Y-88365833D01*
X118210000Y-88365833D01*
X118276666Y-88399166D01*
X118310000Y-88432500D01*
X118343333Y-88499166D01*
X118343333Y-88765833D01*
X118676666Y-88065833D02*
X117976666Y-88065833D01*
X117976666Y-87599166D02*
X117976666Y-87465833D01*
X118010000Y-87399166D01*
X118076666Y-87332500D01*
X118210000Y-87299166D01*
X118443333Y-87299166D01*
X118576666Y-87332500D01*
X118643333Y-87399166D01*
X118676666Y-87465833D01*
X118676666Y-87599166D01*
X118643333Y-87665833D01*
X118576666Y-87732500D01*
X118443333Y-87765833D01*
X118210000Y-87765833D01*
X118076666Y-87732500D01*
X118010000Y-87665833D01*
X117976666Y-87599166D01*
X118043333Y-87032500D02*
X118010000Y-86999166D01*
X117976666Y-86932500D01*
X117976666Y-86765833D01*
X118010000Y-86699166D01*
X118043333Y-86665833D01*
X118110000Y-86632500D01*
X118176666Y-86632500D01*
X118276666Y-86665833D01*
X118676666Y-87065833D01*
X118676666Y-86632500D01*
X117976666Y-86032500D02*
X117976666Y-86165833D01*
X118010000Y-86232500D01*
X118043333Y-86265833D01*
X118143333Y-86332500D01*
X118276666Y-86365833D01*
X118543333Y-86365833D01*
X118610000Y-86332500D01*
X118643333Y-86299166D01*
X118676666Y-86232500D01*
X118676666Y-86099166D01*
X118643333Y-86032500D01*
X118610000Y-85999166D01*
X118543333Y-85965833D01*
X118376666Y-85965833D01*
X118310000Y-85999166D01*
X118276666Y-86032500D01*
X118243333Y-86099166D01*
X118243333Y-86232500D01*
X118276666Y-86299166D01*
X118310000Y-86332500D01*
X118376666Y-86365833D01*
X140923660Y-88921894D02*
X140923660Y-89398084D01*
X141399851Y-89445703D01*
X141352232Y-89398084D01*
X141304613Y-89302846D01*
X141304613Y-89064751D01*
X141352232Y-88969513D01*
X141399851Y-88921894D01*
X141495089Y-88874275D01*
X141733184Y-88874275D01*
X141828422Y-88921894D01*
X141876041Y-88969513D01*
X141923660Y-89064751D01*
X141923660Y-89302846D01*
X141876041Y-89398084D01*
X141828422Y-89445703D01*
X140923660Y-88588560D02*
X141923660Y-88255227D01*
X140923660Y-87921894D01*
X138996666Y-68167500D02*
X138296666Y-68167500D01*
X138296666Y-68000833D01*
X138330000Y-67900833D01*
X138396666Y-67834166D01*
X138463333Y-67800833D01*
X138596666Y-67767500D01*
X138696666Y-67767500D01*
X138830000Y-67800833D01*
X138896666Y-67834166D01*
X138963333Y-67900833D01*
X138996666Y-68000833D01*
X138996666Y-68167500D01*
X138296666Y-67334166D02*
X138296666Y-67267500D01*
X138330000Y-67200833D01*
X138363333Y-67167500D01*
X138430000Y-67134166D01*
X138563333Y-67100833D01*
X138730000Y-67100833D01*
X138863333Y-67134166D01*
X138930000Y-67167500D01*
X138963333Y-67200833D01*
X138996666Y-67267500D01*
X138996666Y-67334166D01*
X138963333Y-67400833D01*
X138930000Y-67434166D01*
X138863333Y-67467500D01*
X138730000Y-67500833D01*
X138563333Y-67500833D01*
X138430000Y-67467500D01*
X138363333Y-67434166D01*
X138330000Y-67400833D01*
X138296666Y-67334166D01*
X130710000Y-69567500D02*
X130676666Y-69634166D01*
X130676666Y-69734166D01*
X130710000Y-69834166D01*
X130776666Y-69900833D01*
X130843333Y-69934166D01*
X130976666Y-69967500D01*
X131076666Y-69967500D01*
X131210000Y-69934166D01*
X131276666Y-69900833D01*
X131343333Y-69834166D01*
X131376666Y-69734166D01*
X131376666Y-69667500D01*
X131343333Y-69567500D01*
X131310000Y-69534166D01*
X131076666Y-69534166D01*
X131076666Y-69667500D01*
X131376666Y-69234166D02*
X130676666Y-69234166D01*
X130676666Y-68967500D01*
X130710000Y-68900833D01*
X130743333Y-68867500D01*
X130810000Y-68834166D01*
X130910000Y-68834166D01*
X130976666Y-68867500D01*
X131010000Y-68900833D01*
X131043333Y-68967500D01*
X131043333Y-69234166D01*
X131376666Y-68534166D02*
X130676666Y-68534166D01*
X130676666Y-68067500D02*
X130676666Y-67934166D01*
X130710000Y-67867500D01*
X130776666Y-67800833D01*
X130910000Y-67767500D01*
X131143333Y-67767500D01*
X131276666Y-67800833D01*
X131343333Y-67867500D01*
X131376666Y-67934166D01*
X131376666Y-68067500D01*
X131343333Y-68134166D01*
X131276666Y-68200833D01*
X131143333Y-68234166D01*
X130910000Y-68234166D01*
X130776666Y-68200833D01*
X130710000Y-68134166D01*
X130676666Y-68067500D01*
X130743333Y-67500833D02*
X130710000Y-67467500D01*
X130676666Y-67400833D01*
X130676666Y-67234166D01*
X130710000Y-67167500D01*
X130743333Y-67134166D01*
X130810000Y-67100833D01*
X130876666Y-67100833D01*
X130976666Y-67134166D01*
X131376666Y-67534166D01*
X131376666Y-67100833D01*
X97965851Y-89496894D02*
X97965851Y-89163560D01*
X98489660Y-89020703D02*
X98489660Y-89496894D01*
X97489660Y-89496894D01*
X97489660Y-89020703D01*
X98489660Y-88592132D02*
X97489660Y-88592132D01*
X98489660Y-88020703D01*
X97489660Y-88020703D01*
X97442041Y-86830227D02*
X98727756Y-87687370D01*
X98489660Y-85925465D02*
X98013470Y-86258799D01*
X98489660Y-86496894D02*
X97489660Y-86496894D01*
X97489660Y-86115941D01*
X97537280Y-86020703D01*
X97584899Y-85973084D01*
X97680137Y-85925465D01*
X97822994Y-85925465D01*
X97918232Y-85973084D01*
X97965851Y-86020703D01*
X98013470Y-86115941D01*
X98013470Y-86496894D01*
X97965851Y-85496894D02*
X97965851Y-85163560D01*
X98489660Y-85020703D02*
X98489660Y-85496894D01*
X97489660Y-85496894D01*
X97489660Y-85020703D01*
X98442041Y-84639751D02*
X98489660Y-84496894D01*
X98489660Y-84258799D01*
X98442041Y-84163560D01*
X98394422Y-84115941D01*
X98299184Y-84068322D01*
X98203946Y-84068322D01*
X98108708Y-84115941D01*
X98061089Y-84163560D01*
X98013470Y-84258799D01*
X97965851Y-84449275D01*
X97918232Y-84544513D01*
X97870613Y-84592132D01*
X97775375Y-84639751D01*
X97680137Y-84639751D01*
X97584899Y-84592132D01*
X97537280Y-84544513D01*
X97489660Y-84449275D01*
X97489660Y-84211180D01*
X97537280Y-84068322D01*
X97965851Y-83639751D02*
X97965851Y-83306418D01*
X98489660Y-83163560D02*
X98489660Y-83639751D01*
X97489660Y-83639751D01*
X97489660Y-83163560D01*
X97489660Y-82877846D02*
X97489660Y-82306418D01*
X98489660Y-82592132D02*
X97489660Y-82592132D01*
X136456666Y-68167500D02*
X135756666Y-68167500D01*
X135756666Y-68000833D01*
X135790000Y-67900833D01*
X135856666Y-67834166D01*
X135923333Y-67800833D01*
X136056666Y-67767500D01*
X136156666Y-67767500D01*
X136290000Y-67800833D01*
X136356666Y-67834166D01*
X136423333Y-67900833D01*
X136456666Y-68000833D01*
X136456666Y-68167500D01*
X136456666Y-67100833D02*
X136456666Y-67500833D01*
X136456666Y-67300833D02*
X135756666Y-67300833D01*
X135856666Y-67367500D01*
X135923333Y-67434166D01*
X135956666Y-67500833D01*
X123090000Y-89099166D02*
X123056666Y-89165833D01*
X123056666Y-89265833D01*
X123090000Y-89365833D01*
X123156666Y-89432500D01*
X123223333Y-89465833D01*
X123356666Y-89499166D01*
X123456666Y-89499166D01*
X123590000Y-89465833D01*
X123656666Y-89432500D01*
X123723333Y-89365833D01*
X123756666Y-89265833D01*
X123756666Y-89199166D01*
X123723333Y-89099166D01*
X123690000Y-89065833D01*
X123456666Y-89065833D01*
X123456666Y-89199166D01*
X123756666Y-88765833D02*
X123056666Y-88765833D01*
X123056666Y-88499166D01*
X123090000Y-88432500D01*
X123123333Y-88399166D01*
X123190000Y-88365833D01*
X123290000Y-88365833D01*
X123356666Y-88399166D01*
X123390000Y-88432500D01*
X123423333Y-88499166D01*
X123423333Y-88765833D01*
X123756666Y-88065833D02*
X123056666Y-88065833D01*
X123056666Y-87599166D02*
X123056666Y-87465833D01*
X123090000Y-87399166D01*
X123156666Y-87332500D01*
X123290000Y-87299166D01*
X123523333Y-87299166D01*
X123656666Y-87332500D01*
X123723333Y-87399166D01*
X123756666Y-87465833D01*
X123756666Y-87599166D01*
X123723333Y-87665833D01*
X123656666Y-87732500D01*
X123523333Y-87765833D01*
X123290000Y-87765833D01*
X123156666Y-87732500D01*
X123090000Y-87665833D01*
X123056666Y-87599166D01*
X123756666Y-86632500D02*
X123756666Y-87032500D01*
X123756666Y-86832500D02*
X123056666Y-86832500D01*
X123156666Y-86899166D01*
X123223333Y-86965833D01*
X123256666Y-87032500D01*
X123290000Y-86032500D02*
X123756666Y-86032500D01*
X123023333Y-86199166D02*
X123523333Y-86365833D01*
X123523333Y-85932500D01*
X123023333Y-85165833D02*
X123923333Y-85765833D01*
X123756666Y-84932500D02*
X123056666Y-84932500D01*
X123556666Y-84699166D01*
X123056666Y-84465833D01*
X123756666Y-84465833D01*
X123056666Y-84232500D02*
X123056666Y-83832500D01*
X123756666Y-84032500D02*
X123056666Y-84032500D01*
X123756666Y-83599166D02*
X123056666Y-83599166D01*
X123556666Y-83365833D01*
X123056666Y-83132500D01*
X123756666Y-83132500D01*
X123723333Y-82832500D02*
X123756666Y-82732500D01*
X123756666Y-82565833D01*
X123723333Y-82499166D01*
X123690000Y-82465833D01*
X123623333Y-82432500D01*
X123556666Y-82432500D01*
X123490000Y-82465833D01*
X123456666Y-82499166D01*
X123423333Y-82565833D01*
X123390000Y-82699166D01*
X123356666Y-82765833D01*
X123323333Y-82799166D01*
X123256666Y-82832500D01*
X123190000Y-82832500D01*
X123123333Y-82799166D01*
X123090000Y-82765833D01*
X123056666Y-82699166D01*
X123056666Y-82532500D01*
X123090000Y-82432500D01*
X128170000Y-69567500D02*
X128136666Y-69634166D01*
X128136666Y-69734166D01*
X128170000Y-69834166D01*
X128236666Y-69900833D01*
X128303333Y-69934166D01*
X128436666Y-69967500D01*
X128536666Y-69967500D01*
X128670000Y-69934166D01*
X128736666Y-69900833D01*
X128803333Y-69834166D01*
X128836666Y-69734166D01*
X128836666Y-69667500D01*
X128803333Y-69567500D01*
X128770000Y-69534166D01*
X128536666Y-69534166D01*
X128536666Y-69667500D01*
X128836666Y-69234166D02*
X128136666Y-69234166D01*
X128136666Y-68967500D01*
X128170000Y-68900833D01*
X128203333Y-68867500D01*
X128270000Y-68834166D01*
X128370000Y-68834166D01*
X128436666Y-68867500D01*
X128470000Y-68900833D01*
X128503333Y-68967500D01*
X128503333Y-69234166D01*
X128836666Y-68534166D02*
X128136666Y-68534166D01*
X128136666Y-68067500D02*
X128136666Y-67934166D01*
X128170000Y-67867500D01*
X128236666Y-67800833D01*
X128370000Y-67767500D01*
X128603333Y-67767500D01*
X128736666Y-67800833D01*
X128803333Y-67867500D01*
X128836666Y-67934166D01*
X128836666Y-68067500D01*
X128803333Y-68134166D01*
X128736666Y-68200833D01*
X128603333Y-68234166D01*
X128370000Y-68234166D01*
X128236666Y-68200833D01*
X128170000Y-68134166D01*
X128136666Y-68067500D01*
X128136666Y-67334166D02*
X128136666Y-67267500D01*
X128170000Y-67200833D01*
X128203333Y-67167500D01*
X128270000Y-67134166D01*
X128403333Y-67100833D01*
X128570000Y-67100833D01*
X128703333Y-67134166D01*
X128770000Y-67167500D01*
X128803333Y-67200833D01*
X128836666Y-67267500D01*
X128836666Y-67334166D01*
X128803333Y-67400833D01*
X128770000Y-67434166D01*
X128703333Y-67467500D01*
X128570000Y-67500833D01*
X128403333Y-67500833D01*
X128270000Y-67467500D01*
X128203333Y-67434166D01*
X128170000Y-67400833D01*
X128136666Y-67334166D01*
X125630000Y-89099166D02*
X125596666Y-89165833D01*
X125596666Y-89265833D01*
X125630000Y-89365833D01*
X125696666Y-89432500D01*
X125763333Y-89465833D01*
X125896666Y-89499166D01*
X125996666Y-89499166D01*
X126130000Y-89465833D01*
X126196666Y-89432500D01*
X126263333Y-89365833D01*
X126296666Y-89265833D01*
X126296666Y-89199166D01*
X126263333Y-89099166D01*
X126230000Y-89065833D01*
X125996666Y-89065833D01*
X125996666Y-89199166D01*
X126296666Y-88765833D02*
X125596666Y-88765833D01*
X125596666Y-88499166D01*
X125630000Y-88432500D01*
X125663333Y-88399166D01*
X125730000Y-88365833D01*
X125830000Y-88365833D01*
X125896666Y-88399166D01*
X125930000Y-88432500D01*
X125963333Y-88499166D01*
X125963333Y-88765833D01*
X126296666Y-88065833D02*
X125596666Y-88065833D01*
X125596666Y-87599166D02*
X125596666Y-87465833D01*
X125630000Y-87399166D01*
X125696666Y-87332500D01*
X125830000Y-87299166D01*
X126063333Y-87299166D01*
X126196666Y-87332500D01*
X126263333Y-87399166D01*
X126296666Y-87465833D01*
X126296666Y-87599166D01*
X126263333Y-87665833D01*
X126196666Y-87732500D01*
X126063333Y-87765833D01*
X125830000Y-87765833D01*
X125696666Y-87732500D01*
X125630000Y-87665833D01*
X125596666Y-87599166D01*
X126296666Y-86632500D02*
X126296666Y-87032500D01*
X126296666Y-86832500D02*
X125596666Y-86832500D01*
X125696666Y-86899166D01*
X125763333Y-86965833D01*
X125796666Y-87032500D01*
X125663333Y-86365833D02*
X125630000Y-86332500D01*
X125596666Y-86265833D01*
X125596666Y-86099166D01*
X125630000Y-86032500D01*
X125663333Y-85999166D01*
X125730000Y-85965833D01*
X125796666Y-85965833D01*
X125896666Y-85999166D01*
X126296666Y-86399166D01*
X126296666Y-85965833D01*
X125563333Y-85165833D02*
X126463333Y-85765833D01*
X126296666Y-84932500D02*
X125596666Y-84932500D01*
X126096666Y-84699166D01*
X125596666Y-84465833D01*
X126296666Y-84465833D01*
X125596666Y-84232500D02*
X125596666Y-83832500D01*
X126296666Y-84032500D02*
X125596666Y-84032500D01*
X126296666Y-83599166D02*
X125596666Y-83599166D01*
X125596666Y-83432500D01*
X125630000Y-83332500D01*
X125696666Y-83265833D01*
X125763333Y-83232500D01*
X125896666Y-83199166D01*
X125996666Y-83199166D01*
X126130000Y-83232500D01*
X126196666Y-83265833D01*
X126263333Y-83332500D01*
X126296666Y-83432500D01*
X126296666Y-83599166D01*
X126296666Y-82899166D02*
X125596666Y-82899166D01*
X115470000Y-70234166D02*
X115436666Y-70300833D01*
X115436666Y-70400833D01*
X115470000Y-70500833D01*
X115536666Y-70567500D01*
X115603333Y-70600833D01*
X115736666Y-70634166D01*
X115836666Y-70634166D01*
X115970000Y-70600833D01*
X116036666Y-70567500D01*
X116103333Y-70500833D01*
X116136666Y-70400833D01*
X116136666Y-70334166D01*
X116103333Y-70234166D01*
X116070000Y-70200833D01*
X115836666Y-70200833D01*
X115836666Y-70334166D01*
X116136666Y-69900833D02*
X115436666Y-69900833D01*
X115436666Y-69634166D01*
X115470000Y-69567500D01*
X115503333Y-69534166D01*
X115570000Y-69500833D01*
X115670000Y-69500833D01*
X115736666Y-69534166D01*
X115770000Y-69567500D01*
X115803333Y-69634166D01*
X115803333Y-69900833D01*
X116136666Y-69200833D02*
X115436666Y-69200833D01*
X115436666Y-68734166D02*
X115436666Y-68600833D01*
X115470000Y-68534166D01*
X115536666Y-68467500D01*
X115670000Y-68434166D01*
X115903333Y-68434166D01*
X116036666Y-68467500D01*
X116103333Y-68534166D01*
X116136666Y-68600833D01*
X116136666Y-68734166D01*
X116103333Y-68800833D01*
X116036666Y-68867500D01*
X115903333Y-68900833D01*
X115670000Y-68900833D01*
X115536666Y-68867500D01*
X115470000Y-68800833D01*
X115436666Y-68734166D01*
X116136666Y-67767500D02*
X116136666Y-68167500D01*
X116136666Y-67967500D02*
X115436666Y-67967500D01*
X115536666Y-68034166D01*
X115603333Y-68100833D01*
X115636666Y-68167500D01*
X115736666Y-67367500D02*
X115703333Y-67434166D01*
X115670000Y-67467500D01*
X115603333Y-67500833D01*
X115570000Y-67500833D01*
X115503333Y-67467500D01*
X115470000Y-67434166D01*
X115436666Y-67367500D01*
X115436666Y-67234166D01*
X115470000Y-67167500D01*
X115503333Y-67134166D01*
X115570000Y-67100833D01*
X115603333Y-67100833D01*
X115670000Y-67134166D01*
X115703333Y-67167500D01*
X115736666Y-67234166D01*
X115736666Y-67367500D01*
X115770000Y-67434166D01*
X115803333Y-67467500D01*
X115870000Y-67500833D01*
X116003333Y-67500833D01*
X116070000Y-67467500D01*
X116103333Y-67434166D01*
X116136666Y-67367500D01*
X116136666Y-67234166D01*
X116103333Y-67167500D01*
X116070000Y-67134166D01*
X116003333Y-67100833D01*
X115870000Y-67100833D01*
X115803333Y-67134166D01*
X115770000Y-67167500D01*
X115736666Y-67234166D01*
X118010000Y-69567500D02*
X117976666Y-69634166D01*
X117976666Y-69734166D01*
X118010000Y-69834166D01*
X118076666Y-69900833D01*
X118143333Y-69934166D01*
X118276666Y-69967500D01*
X118376666Y-69967500D01*
X118510000Y-69934166D01*
X118576666Y-69900833D01*
X118643333Y-69834166D01*
X118676666Y-69734166D01*
X118676666Y-69667500D01*
X118643333Y-69567500D01*
X118610000Y-69534166D01*
X118376666Y-69534166D01*
X118376666Y-69667500D01*
X118676666Y-69234166D02*
X117976666Y-69234166D01*
X117976666Y-68967500D01*
X118010000Y-68900833D01*
X118043333Y-68867500D01*
X118110000Y-68834166D01*
X118210000Y-68834166D01*
X118276666Y-68867500D01*
X118310000Y-68900833D01*
X118343333Y-68967500D01*
X118343333Y-69234166D01*
X118676666Y-68534166D02*
X117976666Y-68534166D01*
X117976666Y-68067500D02*
X117976666Y-67934166D01*
X118010000Y-67867500D01*
X118076666Y-67800833D01*
X118210000Y-67767500D01*
X118443333Y-67767500D01*
X118576666Y-67800833D01*
X118643333Y-67867500D01*
X118676666Y-67934166D01*
X118676666Y-68067500D01*
X118643333Y-68134166D01*
X118576666Y-68200833D01*
X118443333Y-68234166D01*
X118210000Y-68234166D01*
X118076666Y-68200833D01*
X118010000Y-68134166D01*
X117976666Y-68067500D01*
X117976666Y-67134166D02*
X117976666Y-67467500D01*
X118310000Y-67500833D01*
X118276666Y-67467500D01*
X118243333Y-67400833D01*
X118243333Y-67234166D01*
X118276666Y-67167500D01*
X118310000Y-67134166D01*
X118376666Y-67100833D01*
X118543333Y-67100833D01*
X118610000Y-67134166D01*
X118643333Y-67167500D01*
X118676666Y-67234166D01*
X118676666Y-67400833D01*
X118643333Y-67467500D01*
X118610000Y-67500833D01*
X123090000Y-70234166D02*
X123056666Y-70300833D01*
X123056666Y-70400833D01*
X123090000Y-70500833D01*
X123156666Y-70567500D01*
X123223333Y-70600833D01*
X123356666Y-70634166D01*
X123456666Y-70634166D01*
X123590000Y-70600833D01*
X123656666Y-70567500D01*
X123723333Y-70500833D01*
X123756666Y-70400833D01*
X123756666Y-70334166D01*
X123723333Y-70234166D01*
X123690000Y-70200833D01*
X123456666Y-70200833D01*
X123456666Y-70334166D01*
X123756666Y-69900833D02*
X123056666Y-69900833D01*
X123056666Y-69634166D01*
X123090000Y-69567500D01*
X123123333Y-69534166D01*
X123190000Y-69500833D01*
X123290000Y-69500833D01*
X123356666Y-69534166D01*
X123390000Y-69567500D01*
X123423333Y-69634166D01*
X123423333Y-69900833D01*
X123756666Y-69200833D02*
X123056666Y-69200833D01*
X123056666Y-68734166D02*
X123056666Y-68600833D01*
X123090000Y-68534166D01*
X123156666Y-68467500D01*
X123290000Y-68434166D01*
X123523333Y-68434166D01*
X123656666Y-68467500D01*
X123723333Y-68534166D01*
X123756666Y-68600833D01*
X123756666Y-68734166D01*
X123723333Y-68800833D01*
X123656666Y-68867500D01*
X123523333Y-68900833D01*
X123290000Y-68900833D01*
X123156666Y-68867500D01*
X123090000Y-68800833D01*
X123056666Y-68734166D01*
X123756666Y-67767500D02*
X123756666Y-68167500D01*
X123756666Y-67967500D02*
X123056666Y-67967500D01*
X123156666Y-68034166D01*
X123223333Y-68100833D01*
X123256666Y-68167500D01*
X123056666Y-67167500D02*
X123056666Y-67300833D01*
X123090000Y-67367500D01*
X123123333Y-67400833D01*
X123223333Y-67467500D01*
X123356666Y-67500833D01*
X123623333Y-67500833D01*
X123690000Y-67467500D01*
X123723333Y-67434166D01*
X123756666Y-67367500D01*
X123756666Y-67234166D01*
X123723333Y-67167500D01*
X123690000Y-67134166D01*
X123623333Y-67100833D01*
X123456666Y-67100833D01*
X123390000Y-67134166D01*
X123356666Y-67167500D01*
X123323333Y-67234166D01*
X123323333Y-67367500D01*
X123356666Y-67434166D01*
X123390000Y-67467500D01*
X123456666Y-67500833D01*
X141470000Y-68367500D02*
X141503333Y-68400833D01*
X141536666Y-68500833D01*
X141536666Y-68567500D01*
X141503333Y-68667500D01*
X141436666Y-68734166D01*
X141370000Y-68767500D01*
X141236666Y-68800833D01*
X141136666Y-68800833D01*
X141003333Y-68767500D01*
X140936666Y-68734166D01*
X140870000Y-68667500D01*
X140836666Y-68567500D01*
X140836666Y-68500833D01*
X140870000Y-68400833D01*
X140903333Y-68367500D01*
X141536666Y-67734166D02*
X141536666Y-68067500D01*
X140836666Y-68067500D01*
X141536666Y-67500833D02*
X140836666Y-67500833D01*
X141536666Y-67100833D02*
X141136666Y-67400833D01*
X140836666Y-67100833D02*
X141236666Y-67500833D01*
X95000000Y-69253214D02*
X94952380Y-69348452D01*
X94952380Y-69491309D01*
X95000000Y-69634166D01*
X95095238Y-69729404D01*
X95190476Y-69777023D01*
X95380952Y-69824642D01*
X95523809Y-69824642D01*
X95714285Y-69777023D01*
X95809523Y-69729404D01*
X95904761Y-69634166D01*
X95952380Y-69491309D01*
X95952380Y-69396071D01*
X95904761Y-69253214D01*
X95857142Y-69205595D01*
X95523809Y-69205595D01*
X95523809Y-69396071D01*
X95952380Y-68777023D02*
X94952380Y-68777023D01*
X95952380Y-68205595D01*
X94952380Y-68205595D01*
X95952380Y-67729404D02*
X94952380Y-67729404D01*
X94952380Y-67491309D01*
X95000000Y-67348452D01*
X95095238Y-67253214D01*
X95190476Y-67205595D01*
X95380952Y-67157976D01*
X95523809Y-67157976D01*
X95714285Y-67205595D01*
X95809523Y-67253214D01*
X95904761Y-67348452D01*
X95952380Y-67491309D01*
X95952380Y-67729404D01*
X100230000Y-70234166D02*
X100196666Y-70300833D01*
X100196666Y-70400833D01*
X100230000Y-70500833D01*
X100296666Y-70567500D01*
X100363333Y-70600833D01*
X100496666Y-70634166D01*
X100596666Y-70634166D01*
X100730000Y-70600833D01*
X100796666Y-70567500D01*
X100863333Y-70500833D01*
X100896666Y-70400833D01*
X100896666Y-70334166D01*
X100863333Y-70234166D01*
X100830000Y-70200833D01*
X100596666Y-70200833D01*
X100596666Y-70334166D01*
X100896666Y-69900833D02*
X100196666Y-69900833D01*
X100196666Y-69634166D01*
X100230000Y-69567500D01*
X100263333Y-69534166D01*
X100330000Y-69500833D01*
X100430000Y-69500833D01*
X100496666Y-69534166D01*
X100530000Y-69567500D01*
X100563333Y-69634166D01*
X100563333Y-69900833D01*
X100896666Y-69200833D02*
X100196666Y-69200833D01*
X100196666Y-68734166D02*
X100196666Y-68600833D01*
X100230000Y-68534166D01*
X100296666Y-68467500D01*
X100430000Y-68434166D01*
X100663333Y-68434166D01*
X100796666Y-68467500D01*
X100863333Y-68534166D01*
X100896666Y-68600833D01*
X100896666Y-68734166D01*
X100863333Y-68800833D01*
X100796666Y-68867500D01*
X100663333Y-68900833D01*
X100430000Y-68900833D01*
X100296666Y-68867500D01*
X100230000Y-68800833D01*
X100196666Y-68734166D01*
X100263333Y-68167500D02*
X100230000Y-68134166D01*
X100196666Y-68067500D01*
X100196666Y-67900833D01*
X100230000Y-67834166D01*
X100263333Y-67800833D01*
X100330000Y-67767500D01*
X100396666Y-67767500D01*
X100496666Y-67800833D01*
X100896666Y-68200833D01*
X100896666Y-67767500D01*
X100263333Y-67500833D02*
X100230000Y-67467500D01*
X100196666Y-67400833D01*
X100196666Y-67234166D01*
X100230000Y-67167500D01*
X100263333Y-67134166D01*
X100330000Y-67100833D01*
X100396666Y-67100833D01*
X100496666Y-67134166D01*
X100896666Y-67534166D01*
X100896666Y-67100833D01*
X120550000Y-89099166D02*
X120516666Y-89165833D01*
X120516666Y-89265833D01*
X120550000Y-89365833D01*
X120616666Y-89432500D01*
X120683333Y-89465833D01*
X120816666Y-89499166D01*
X120916666Y-89499166D01*
X121050000Y-89465833D01*
X121116666Y-89432500D01*
X121183333Y-89365833D01*
X121216666Y-89265833D01*
X121216666Y-89199166D01*
X121183333Y-89099166D01*
X121150000Y-89065833D01*
X120916666Y-89065833D01*
X120916666Y-89199166D01*
X121216666Y-88765833D02*
X120516666Y-88765833D01*
X120516666Y-88499166D01*
X120550000Y-88432500D01*
X120583333Y-88399166D01*
X120650000Y-88365833D01*
X120750000Y-88365833D01*
X120816666Y-88399166D01*
X120850000Y-88432500D01*
X120883333Y-88499166D01*
X120883333Y-88765833D01*
X121216666Y-88065833D02*
X120516666Y-88065833D01*
X120516666Y-87599166D02*
X120516666Y-87465833D01*
X120550000Y-87399166D01*
X120616666Y-87332500D01*
X120750000Y-87299166D01*
X120983333Y-87299166D01*
X121116666Y-87332500D01*
X121183333Y-87399166D01*
X121216666Y-87465833D01*
X121216666Y-87599166D01*
X121183333Y-87665833D01*
X121116666Y-87732500D01*
X120983333Y-87765833D01*
X120750000Y-87765833D01*
X120616666Y-87732500D01*
X120550000Y-87665833D01*
X120516666Y-87599166D01*
X120583333Y-87032500D02*
X120550000Y-86999166D01*
X120516666Y-86932500D01*
X120516666Y-86765833D01*
X120550000Y-86699166D01*
X120583333Y-86665833D01*
X120650000Y-86632500D01*
X120716666Y-86632500D01*
X120816666Y-86665833D01*
X121216666Y-87065833D01*
X121216666Y-86632500D01*
X120516666Y-86399166D02*
X120516666Y-85932500D01*
X121216666Y-86232500D01*
X97690000Y-70234166D02*
X97656666Y-70300833D01*
X97656666Y-70400833D01*
X97690000Y-70500833D01*
X97756666Y-70567500D01*
X97823333Y-70600833D01*
X97956666Y-70634166D01*
X98056666Y-70634166D01*
X98190000Y-70600833D01*
X98256666Y-70567500D01*
X98323333Y-70500833D01*
X98356666Y-70400833D01*
X98356666Y-70334166D01*
X98323333Y-70234166D01*
X98290000Y-70200833D01*
X98056666Y-70200833D01*
X98056666Y-70334166D01*
X98356666Y-69900833D02*
X97656666Y-69900833D01*
X97656666Y-69634166D01*
X97690000Y-69567500D01*
X97723333Y-69534166D01*
X97790000Y-69500833D01*
X97890000Y-69500833D01*
X97956666Y-69534166D01*
X97990000Y-69567500D01*
X98023333Y-69634166D01*
X98023333Y-69900833D01*
X98356666Y-69200833D02*
X97656666Y-69200833D01*
X97656666Y-68734166D02*
X97656666Y-68600833D01*
X97690000Y-68534166D01*
X97756666Y-68467500D01*
X97890000Y-68434166D01*
X98123333Y-68434166D01*
X98256666Y-68467500D01*
X98323333Y-68534166D01*
X98356666Y-68600833D01*
X98356666Y-68734166D01*
X98323333Y-68800833D01*
X98256666Y-68867500D01*
X98123333Y-68900833D01*
X97890000Y-68900833D01*
X97756666Y-68867500D01*
X97690000Y-68800833D01*
X97656666Y-68734166D01*
X97723333Y-68167500D02*
X97690000Y-68134166D01*
X97656666Y-68067500D01*
X97656666Y-67900833D01*
X97690000Y-67834166D01*
X97723333Y-67800833D01*
X97790000Y-67767500D01*
X97856666Y-67767500D01*
X97956666Y-67800833D01*
X98356666Y-68200833D01*
X98356666Y-67767500D01*
X97656666Y-67534166D02*
X97656666Y-67100833D01*
X97923333Y-67334166D01*
X97923333Y-67234166D01*
X97956666Y-67167500D01*
X97990000Y-67134166D01*
X98056666Y-67100833D01*
X98223333Y-67100833D01*
X98290000Y-67134166D01*
X98323333Y-67167500D01*
X98356666Y-67234166D01*
X98356666Y-67434166D01*
X98323333Y-67500833D01*
X98290000Y-67534166D01*
X138930000Y-89065833D02*
X138963333Y-89099166D01*
X138996666Y-89199166D01*
X138996666Y-89265833D01*
X138963333Y-89365833D01*
X138896666Y-89432500D01*
X138830000Y-89465833D01*
X138696666Y-89499166D01*
X138596666Y-89499166D01*
X138463333Y-89465833D01*
X138396666Y-89432500D01*
X138330000Y-89365833D01*
X138296666Y-89265833D01*
X138296666Y-89199166D01*
X138330000Y-89099166D01*
X138363333Y-89065833D01*
X138996666Y-88765833D02*
X138296666Y-88765833D01*
X138796666Y-88532500D01*
X138296666Y-88299166D01*
X138996666Y-88299166D01*
X138996666Y-87965833D02*
X138296666Y-87965833D01*
X138296666Y-87799166D01*
X138330000Y-87699166D01*
X138396666Y-87632500D01*
X138463333Y-87599166D01*
X138596666Y-87565833D01*
X138696666Y-87565833D01*
X138830000Y-87599166D01*
X138896666Y-87632500D01*
X138963333Y-87699166D01*
X138996666Y-87799166D01*
X138996666Y-87965833D01*
X102770000Y-73600833D02*
X102736666Y-73667500D01*
X102736666Y-73767500D01*
X102770000Y-73867500D01*
X102836666Y-73934166D01*
X102903333Y-73967500D01*
X103036666Y-74000833D01*
X103136666Y-74000833D01*
X103270000Y-73967500D01*
X103336666Y-73934166D01*
X103403333Y-73867500D01*
X103436666Y-73767500D01*
X103436666Y-73700833D01*
X103403333Y-73600833D01*
X103370000Y-73567500D01*
X103136666Y-73567500D01*
X103136666Y-73700833D01*
X103436666Y-73267500D02*
X102736666Y-73267500D01*
X102736666Y-73000833D01*
X102770000Y-72934166D01*
X102803333Y-72900833D01*
X102870000Y-72867500D01*
X102970000Y-72867500D01*
X103036666Y-72900833D01*
X103070000Y-72934166D01*
X103103333Y-73000833D01*
X103103333Y-73267500D01*
X103436666Y-72567500D02*
X102736666Y-72567500D01*
X102736666Y-72100833D02*
X102736666Y-71967500D01*
X102770000Y-71900833D01*
X102836666Y-71834166D01*
X102970000Y-71800833D01*
X103203333Y-71800833D01*
X103336666Y-71834166D01*
X103403333Y-71900833D01*
X103436666Y-71967500D01*
X103436666Y-72100833D01*
X103403333Y-72167500D01*
X103336666Y-72234166D01*
X103203333Y-72267500D01*
X102970000Y-72267500D01*
X102836666Y-72234166D01*
X102770000Y-72167500D01*
X102736666Y-72100833D01*
X103436666Y-71134166D02*
X103436666Y-71534166D01*
X103436666Y-71334166D02*
X102736666Y-71334166D01*
X102836666Y-71400833D01*
X102903333Y-71467500D01*
X102936666Y-71534166D01*
X102703333Y-70334166D02*
X103603333Y-70934166D01*
X102736666Y-70100833D02*
X103303333Y-70100833D01*
X103370000Y-70067500D01*
X103403333Y-70034166D01*
X103436666Y-69967500D01*
X103436666Y-69834166D01*
X103403333Y-69767500D01*
X103370000Y-69734166D01*
X103303333Y-69700833D01*
X102736666Y-69700833D01*
X102736666Y-69234166D02*
X102736666Y-69167500D01*
X102770000Y-69100833D01*
X102803333Y-69067500D01*
X102870000Y-69034166D01*
X103003333Y-69000833D01*
X103170000Y-69000833D01*
X103303333Y-69034166D01*
X103370000Y-69067500D01*
X103403333Y-69100833D01*
X103436666Y-69167500D01*
X103436666Y-69234166D01*
X103403333Y-69300833D01*
X103370000Y-69334166D01*
X103303333Y-69367500D01*
X103170000Y-69400833D01*
X103003333Y-69400833D01*
X102870000Y-69367500D01*
X102803333Y-69334166D01*
X102770000Y-69300833D01*
X102736666Y-69234166D01*
X102736666Y-68800833D02*
X102736666Y-68400833D01*
X103436666Y-68600833D02*
X102736666Y-68600833D01*
X102736666Y-68234166D02*
X103436666Y-67767500D01*
X102736666Y-67767500D02*
X103436666Y-68234166D01*
X103436666Y-67500833D02*
X102736666Y-67500833D01*
X102736666Y-67334166D01*
X102770000Y-67234166D01*
X102836666Y-67167500D01*
X102903333Y-67134166D01*
X103036666Y-67100833D01*
X103136666Y-67100833D01*
X103270000Y-67134166D01*
X103336666Y-67167500D01*
X103403333Y-67234166D01*
X103436666Y-67334166D01*
X103436666Y-67500833D01*
X105310000Y-73767500D02*
X105276666Y-73834166D01*
X105276666Y-73934166D01*
X105310000Y-74034166D01*
X105376666Y-74100833D01*
X105443333Y-74134166D01*
X105576666Y-74167500D01*
X105676666Y-74167500D01*
X105810000Y-74134166D01*
X105876666Y-74100833D01*
X105943333Y-74034166D01*
X105976666Y-73934166D01*
X105976666Y-73867500D01*
X105943333Y-73767500D01*
X105910000Y-73734166D01*
X105676666Y-73734166D01*
X105676666Y-73867500D01*
X105976666Y-73434166D02*
X105276666Y-73434166D01*
X105276666Y-73167500D01*
X105310000Y-73100833D01*
X105343333Y-73067500D01*
X105410000Y-73034166D01*
X105510000Y-73034166D01*
X105576666Y-73067500D01*
X105610000Y-73100833D01*
X105643333Y-73167500D01*
X105643333Y-73434166D01*
X105976666Y-72734166D02*
X105276666Y-72734166D01*
X105276666Y-72267500D02*
X105276666Y-72134166D01*
X105310000Y-72067500D01*
X105376666Y-72000833D01*
X105510000Y-71967500D01*
X105743333Y-71967500D01*
X105876666Y-72000833D01*
X105943333Y-72067500D01*
X105976666Y-72134166D01*
X105976666Y-72267500D01*
X105943333Y-72334166D01*
X105876666Y-72400833D01*
X105743333Y-72434166D01*
X105510000Y-72434166D01*
X105376666Y-72400833D01*
X105310000Y-72334166D01*
X105276666Y-72267500D01*
X105276666Y-71734166D02*
X105276666Y-71300833D01*
X105543333Y-71534166D01*
X105543333Y-71434166D01*
X105576666Y-71367500D01*
X105610000Y-71334166D01*
X105676666Y-71300833D01*
X105843333Y-71300833D01*
X105910000Y-71334166D01*
X105943333Y-71367500D01*
X105976666Y-71434166D01*
X105976666Y-71634166D01*
X105943333Y-71700833D01*
X105910000Y-71734166D01*
X105243333Y-70500833D02*
X106143333Y-71100833D01*
X105276666Y-70267500D02*
X105843333Y-70267500D01*
X105910000Y-70234166D01*
X105943333Y-70200833D01*
X105976666Y-70134166D01*
X105976666Y-70000833D01*
X105943333Y-69934166D01*
X105910000Y-69900833D01*
X105843333Y-69867500D01*
X105276666Y-69867500D01*
X105276666Y-69400833D02*
X105276666Y-69334166D01*
X105310000Y-69267500D01*
X105343333Y-69234166D01*
X105410000Y-69200833D01*
X105543333Y-69167500D01*
X105710000Y-69167500D01*
X105843333Y-69200833D01*
X105910000Y-69234166D01*
X105943333Y-69267500D01*
X105976666Y-69334166D01*
X105976666Y-69400833D01*
X105943333Y-69467500D01*
X105910000Y-69500833D01*
X105843333Y-69534166D01*
X105710000Y-69567500D01*
X105543333Y-69567500D01*
X105410000Y-69534166D01*
X105343333Y-69500833D01*
X105310000Y-69467500D01*
X105276666Y-69400833D01*
X105976666Y-68467500D02*
X105643333Y-68700833D01*
X105976666Y-68867500D02*
X105276666Y-68867500D01*
X105276666Y-68600833D01*
X105310000Y-68534166D01*
X105343333Y-68500833D01*
X105410000Y-68467500D01*
X105510000Y-68467500D01*
X105576666Y-68500833D01*
X105610000Y-68534166D01*
X105643333Y-68600833D01*
X105643333Y-68867500D01*
X105276666Y-68234166D02*
X105976666Y-67767500D01*
X105276666Y-67767500D02*
X105976666Y-68234166D01*
X105976666Y-67500833D02*
X105276666Y-67500833D01*
X105276666Y-67334166D01*
X105310000Y-67234166D01*
X105376666Y-67167500D01*
X105443333Y-67134166D01*
X105576666Y-67100833D01*
X105676666Y-67100833D01*
X105810000Y-67134166D01*
X105876666Y-67167500D01*
X105943333Y-67234166D01*
X105976666Y-67334166D01*
X105976666Y-67500833D01*
X120550000Y-70234166D02*
X120516666Y-70300833D01*
X120516666Y-70400833D01*
X120550000Y-70500833D01*
X120616666Y-70567500D01*
X120683333Y-70600833D01*
X120816666Y-70634166D01*
X120916666Y-70634166D01*
X121050000Y-70600833D01*
X121116666Y-70567500D01*
X121183333Y-70500833D01*
X121216666Y-70400833D01*
X121216666Y-70334166D01*
X121183333Y-70234166D01*
X121150000Y-70200833D01*
X120916666Y-70200833D01*
X120916666Y-70334166D01*
X121216666Y-69900833D02*
X120516666Y-69900833D01*
X120516666Y-69634166D01*
X120550000Y-69567500D01*
X120583333Y-69534166D01*
X120650000Y-69500833D01*
X120750000Y-69500833D01*
X120816666Y-69534166D01*
X120850000Y-69567500D01*
X120883333Y-69634166D01*
X120883333Y-69900833D01*
X121216666Y-69200833D02*
X120516666Y-69200833D01*
X120516666Y-68734166D02*
X120516666Y-68600833D01*
X120550000Y-68534166D01*
X120616666Y-68467500D01*
X120750000Y-68434166D01*
X120983333Y-68434166D01*
X121116666Y-68467500D01*
X121183333Y-68534166D01*
X121216666Y-68600833D01*
X121216666Y-68734166D01*
X121183333Y-68800833D01*
X121116666Y-68867500D01*
X120983333Y-68900833D01*
X120750000Y-68900833D01*
X120616666Y-68867500D01*
X120550000Y-68800833D01*
X120516666Y-68734166D01*
X121216666Y-67767500D02*
X121216666Y-68167500D01*
X121216666Y-67967500D02*
X120516666Y-67967500D01*
X120616666Y-68034166D01*
X120683333Y-68100833D01*
X120716666Y-68167500D01*
X120516666Y-67534166D02*
X120516666Y-67067500D01*
X121216666Y-67367500D01*
X130710000Y-89099166D02*
X130676666Y-89165833D01*
X130676666Y-89265833D01*
X130710000Y-89365833D01*
X130776666Y-89432500D01*
X130843333Y-89465833D01*
X130976666Y-89499166D01*
X131076666Y-89499166D01*
X131210000Y-89465833D01*
X131276666Y-89432500D01*
X131343333Y-89365833D01*
X131376666Y-89265833D01*
X131376666Y-89199166D01*
X131343333Y-89099166D01*
X131310000Y-89065833D01*
X131076666Y-89065833D01*
X131076666Y-89199166D01*
X131376666Y-88765833D02*
X130676666Y-88765833D01*
X130676666Y-88499166D01*
X130710000Y-88432500D01*
X130743333Y-88399166D01*
X130810000Y-88365833D01*
X130910000Y-88365833D01*
X130976666Y-88399166D01*
X131010000Y-88432500D01*
X131043333Y-88499166D01*
X131043333Y-88765833D01*
X131376666Y-88065833D02*
X130676666Y-88065833D01*
X130676666Y-87599166D02*
X130676666Y-87465833D01*
X130710000Y-87399166D01*
X130776666Y-87332500D01*
X130910000Y-87299166D01*
X131143333Y-87299166D01*
X131276666Y-87332500D01*
X131343333Y-87399166D01*
X131376666Y-87465833D01*
X131376666Y-87599166D01*
X131343333Y-87665833D01*
X131276666Y-87732500D01*
X131143333Y-87765833D01*
X130910000Y-87765833D01*
X130776666Y-87732500D01*
X130710000Y-87665833D01*
X130676666Y-87599166D01*
X131376666Y-86632500D02*
X131376666Y-87032500D01*
X131376666Y-86832500D02*
X130676666Y-86832500D01*
X130776666Y-86899166D01*
X130843333Y-86965833D01*
X130876666Y-87032500D01*
X130676666Y-86399166D02*
X130676666Y-85965833D01*
X130943333Y-86199166D01*
X130943333Y-86099166D01*
X130976666Y-86032500D01*
X131010000Y-85999166D01*
X131076666Y-85965833D01*
X131243333Y-85965833D01*
X131310000Y-85999166D01*
X131343333Y-86032500D01*
X131376666Y-86099166D01*
X131376666Y-86299166D01*
X131343333Y-86365833D01*
X131310000Y-86399166D01*
X130643333Y-85165833D02*
X131543333Y-85765833D01*
X131376666Y-84932500D02*
X130676666Y-84932500D01*
X131176666Y-84699166D01*
X130676666Y-84465833D01*
X131376666Y-84465833D01*
X130676666Y-84232500D02*
X130676666Y-83832500D01*
X131376666Y-84032500D02*
X130676666Y-84032500D01*
X131310000Y-83199166D02*
X131343333Y-83232500D01*
X131376666Y-83332500D01*
X131376666Y-83399166D01*
X131343333Y-83499166D01*
X131276666Y-83565833D01*
X131210000Y-83599166D01*
X131076666Y-83632500D01*
X130976666Y-83632500D01*
X130843333Y-83599166D01*
X130776666Y-83565833D01*
X130710000Y-83499166D01*
X130676666Y-83399166D01*
X130676666Y-83332500D01*
X130710000Y-83232500D01*
X130743333Y-83199166D01*
X131376666Y-82899166D02*
X130676666Y-82899166D01*
X131376666Y-82499166D02*
X130976666Y-82799166D01*
X130676666Y-82499166D02*
X131076666Y-82899166D01*
X133916666Y-89465833D02*
X133216666Y-89465833D01*
X133216666Y-89299166D01*
X133250000Y-89199166D01*
X133316666Y-89132500D01*
X133383333Y-89099166D01*
X133516666Y-89065833D01*
X133616666Y-89065833D01*
X133750000Y-89099166D01*
X133816666Y-89132500D01*
X133883333Y-89199166D01*
X133916666Y-89299166D01*
X133916666Y-89465833D01*
X133283333Y-88799166D02*
X133250000Y-88765833D01*
X133216666Y-88699166D01*
X133216666Y-88532500D01*
X133250000Y-88465833D01*
X133283333Y-88432500D01*
X133350000Y-88399166D01*
X133416666Y-88399166D01*
X133516666Y-88432500D01*
X133916666Y-88832500D01*
X133916666Y-88399166D01*
X100196666Y-89565833D02*
X100896666Y-89332500D01*
X100196666Y-89099166D01*
X100896666Y-88865833D02*
X100196666Y-88865833D01*
X100196666Y-88599166D01*
X100230000Y-88532500D01*
X100263333Y-88499166D01*
X100330000Y-88465833D01*
X100430000Y-88465833D01*
X100496666Y-88499166D01*
X100530000Y-88532500D01*
X100563333Y-88599166D01*
X100563333Y-88865833D01*
X100163333Y-87665833D02*
X101063333Y-88265833D01*
X100230000Y-87065833D02*
X100196666Y-87132500D01*
X100196666Y-87232500D01*
X100230000Y-87332500D01*
X100296666Y-87399166D01*
X100363333Y-87432500D01*
X100496666Y-87465833D01*
X100596666Y-87465833D01*
X100730000Y-87432500D01*
X100796666Y-87399166D01*
X100863333Y-87332500D01*
X100896666Y-87232500D01*
X100896666Y-87165833D01*
X100863333Y-87065833D01*
X100830000Y-87032500D01*
X100596666Y-87032500D01*
X100596666Y-87165833D01*
X100896666Y-86732500D02*
X100196666Y-86732500D01*
X100196666Y-86465833D01*
X100230000Y-86399166D01*
X100263333Y-86365833D01*
X100330000Y-86332500D01*
X100430000Y-86332500D01*
X100496666Y-86365833D01*
X100530000Y-86399166D01*
X100563333Y-86465833D01*
X100563333Y-86732500D01*
X100896666Y-86032500D02*
X100196666Y-86032500D01*
X100196666Y-85565833D02*
X100196666Y-85432500D01*
X100230000Y-85365833D01*
X100296666Y-85299166D01*
X100430000Y-85265833D01*
X100663333Y-85265833D01*
X100796666Y-85299166D01*
X100863333Y-85365833D01*
X100896666Y-85432500D01*
X100896666Y-85565833D01*
X100863333Y-85632500D01*
X100796666Y-85699166D01*
X100663333Y-85732500D01*
X100430000Y-85732500D01*
X100296666Y-85699166D01*
X100230000Y-85632500D01*
X100196666Y-85565833D01*
X100196666Y-85032500D02*
X100196666Y-84599166D01*
X100463333Y-84832500D01*
X100463333Y-84732500D01*
X100496666Y-84665833D01*
X100530000Y-84632500D01*
X100596666Y-84599166D01*
X100763333Y-84599166D01*
X100830000Y-84632500D01*
X100863333Y-84665833D01*
X100896666Y-84732500D01*
X100896666Y-84932500D01*
X100863333Y-84999166D01*
X100830000Y-85032500D01*
X100196666Y-83999166D02*
X100196666Y-84132500D01*
X100230000Y-84199166D01*
X100263333Y-84232500D01*
X100363333Y-84299166D01*
X100496666Y-84332500D01*
X100763333Y-84332500D01*
X100830000Y-84299166D01*
X100863333Y-84265833D01*
X100896666Y-84199166D01*
X100896666Y-84065833D01*
X100863333Y-83999166D01*
X100830000Y-83965833D01*
X100763333Y-83932500D01*
X100596666Y-83932500D01*
X100530000Y-83965833D01*
X100496666Y-83999166D01*
X100463333Y-84065833D01*
X100463333Y-84199166D01*
X100496666Y-84265833D01*
X100530000Y-84299166D01*
X100596666Y-84332500D01*
X115470000Y-89099166D02*
X115436666Y-89165833D01*
X115436666Y-89265833D01*
X115470000Y-89365833D01*
X115536666Y-89432500D01*
X115603333Y-89465833D01*
X115736666Y-89499166D01*
X115836666Y-89499166D01*
X115970000Y-89465833D01*
X116036666Y-89432500D01*
X116103333Y-89365833D01*
X116136666Y-89265833D01*
X116136666Y-89199166D01*
X116103333Y-89099166D01*
X116070000Y-89065833D01*
X115836666Y-89065833D01*
X115836666Y-89199166D01*
X116136666Y-88765833D02*
X115436666Y-88765833D01*
X115436666Y-88499166D01*
X115470000Y-88432500D01*
X115503333Y-88399166D01*
X115570000Y-88365833D01*
X115670000Y-88365833D01*
X115736666Y-88399166D01*
X115770000Y-88432500D01*
X115803333Y-88499166D01*
X115803333Y-88765833D01*
X116136666Y-88065833D02*
X115436666Y-88065833D01*
X115436666Y-87599166D02*
X115436666Y-87465833D01*
X115470000Y-87399166D01*
X115536666Y-87332500D01*
X115670000Y-87299166D01*
X115903333Y-87299166D01*
X116036666Y-87332500D01*
X116103333Y-87399166D01*
X116136666Y-87465833D01*
X116136666Y-87599166D01*
X116103333Y-87665833D01*
X116036666Y-87732500D01*
X115903333Y-87765833D01*
X115670000Y-87765833D01*
X115536666Y-87732500D01*
X115470000Y-87665833D01*
X115436666Y-87599166D01*
X115503333Y-87032500D02*
X115470000Y-86999166D01*
X115436666Y-86932500D01*
X115436666Y-86765833D01*
X115470000Y-86699166D01*
X115503333Y-86665833D01*
X115570000Y-86632500D01*
X115636666Y-86632500D01*
X115736666Y-86665833D01*
X116136666Y-87065833D01*
X116136666Y-86632500D01*
X115436666Y-85999166D02*
X115436666Y-86332500D01*
X115770000Y-86365833D01*
X115736666Y-86332500D01*
X115703333Y-86265833D01*
X115703333Y-86099166D01*
X115736666Y-86032500D01*
X115770000Y-85999166D01*
X115836666Y-85965833D01*
X116003333Y-85965833D01*
X116070000Y-85999166D01*
X116103333Y-86032500D01*
X116136666Y-86099166D01*
X116136666Y-86265833D01*
X116103333Y-86332500D01*
X116070000Y-86365833D01*
X110390000Y-89099166D02*
X110356666Y-89165833D01*
X110356666Y-89265833D01*
X110390000Y-89365833D01*
X110456666Y-89432500D01*
X110523333Y-89465833D01*
X110656666Y-89499166D01*
X110756666Y-89499166D01*
X110890000Y-89465833D01*
X110956666Y-89432500D01*
X111023333Y-89365833D01*
X111056666Y-89265833D01*
X111056666Y-89199166D01*
X111023333Y-89099166D01*
X110990000Y-89065833D01*
X110756666Y-89065833D01*
X110756666Y-89199166D01*
X111056666Y-88765833D02*
X110356666Y-88765833D01*
X110356666Y-88499166D01*
X110390000Y-88432500D01*
X110423333Y-88399166D01*
X110490000Y-88365833D01*
X110590000Y-88365833D01*
X110656666Y-88399166D01*
X110690000Y-88432500D01*
X110723333Y-88499166D01*
X110723333Y-88765833D01*
X111056666Y-88065833D02*
X110356666Y-88065833D01*
X110356666Y-87599166D02*
X110356666Y-87465833D01*
X110390000Y-87399166D01*
X110456666Y-87332500D01*
X110590000Y-87299166D01*
X110823333Y-87299166D01*
X110956666Y-87332500D01*
X111023333Y-87399166D01*
X111056666Y-87465833D01*
X111056666Y-87599166D01*
X111023333Y-87665833D01*
X110956666Y-87732500D01*
X110823333Y-87765833D01*
X110590000Y-87765833D01*
X110456666Y-87732500D01*
X110390000Y-87665833D01*
X110356666Y-87599166D01*
X110356666Y-87065833D02*
X110356666Y-86632500D01*
X110623333Y-86865833D01*
X110623333Y-86765833D01*
X110656666Y-86699166D01*
X110690000Y-86665833D01*
X110756666Y-86632500D01*
X110923333Y-86632500D01*
X110990000Y-86665833D01*
X111023333Y-86699166D01*
X111056666Y-86765833D01*
X111056666Y-86965833D01*
X111023333Y-87032500D01*
X110990000Y-87065833D01*
X110423333Y-86365833D02*
X110390000Y-86332500D01*
X110356666Y-86265833D01*
X110356666Y-86099166D01*
X110390000Y-86032500D01*
X110423333Y-85999166D01*
X110490000Y-85965833D01*
X110556666Y-85965833D01*
X110656666Y-85999166D01*
X111056666Y-86399166D01*
X111056666Y-85965833D01*
X133250000Y-73734166D02*
X133216666Y-73800833D01*
X133216666Y-73900833D01*
X133250000Y-74000833D01*
X133316666Y-74067500D01*
X133383333Y-74100833D01*
X133516666Y-74134166D01*
X133616666Y-74134166D01*
X133750000Y-74100833D01*
X133816666Y-74067500D01*
X133883333Y-74000833D01*
X133916666Y-73900833D01*
X133916666Y-73834166D01*
X133883333Y-73734166D01*
X133850000Y-73700833D01*
X133616666Y-73700833D01*
X133616666Y-73834166D01*
X133916666Y-73400833D02*
X133216666Y-73400833D01*
X133216666Y-73134166D01*
X133250000Y-73067500D01*
X133283333Y-73034166D01*
X133350000Y-73000833D01*
X133450000Y-73000833D01*
X133516666Y-73034166D01*
X133550000Y-73067500D01*
X133583333Y-73134166D01*
X133583333Y-73400833D01*
X133916666Y-72700833D02*
X133216666Y-72700833D01*
X133216666Y-72234166D02*
X133216666Y-72100833D01*
X133250000Y-72034166D01*
X133316666Y-71967500D01*
X133450000Y-71934166D01*
X133683333Y-71934166D01*
X133816666Y-71967500D01*
X133883333Y-72034166D01*
X133916666Y-72100833D01*
X133916666Y-72234166D01*
X133883333Y-72300833D01*
X133816666Y-72367500D01*
X133683333Y-72400833D01*
X133450000Y-72400833D01*
X133316666Y-72367500D01*
X133250000Y-72300833D01*
X133216666Y-72234166D01*
X133916666Y-71267500D02*
X133916666Y-71667500D01*
X133916666Y-71467500D02*
X133216666Y-71467500D01*
X133316666Y-71534166D01*
X133383333Y-71600833D01*
X133416666Y-71667500D01*
X133216666Y-70634166D02*
X133216666Y-70967500D01*
X133550000Y-71000833D01*
X133516666Y-70967500D01*
X133483333Y-70900833D01*
X133483333Y-70734166D01*
X133516666Y-70667500D01*
X133550000Y-70634166D01*
X133616666Y-70600833D01*
X133783333Y-70600833D01*
X133850000Y-70634166D01*
X133883333Y-70667500D01*
X133916666Y-70734166D01*
X133916666Y-70900833D01*
X133883333Y-70967500D01*
X133850000Y-71000833D01*
X133183333Y-69800833D02*
X134083333Y-70400833D01*
X133916666Y-69567500D02*
X133216666Y-69567500D01*
X133716666Y-69334166D01*
X133216666Y-69100833D01*
X133916666Y-69100833D01*
X133216666Y-68867500D02*
X133216666Y-68467500D01*
X133916666Y-68667500D02*
X133216666Y-68667500D01*
X133916666Y-68234166D02*
X133216666Y-68234166D01*
X133216666Y-68067500D01*
X133250000Y-67967500D01*
X133316666Y-67900833D01*
X133383333Y-67867500D01*
X133516666Y-67834166D01*
X133616666Y-67834166D01*
X133750000Y-67867500D01*
X133816666Y-67900833D01*
X133883333Y-67967500D01*
X133916666Y-68067500D01*
X133916666Y-68234166D01*
X133216666Y-67400833D02*
X133216666Y-67267500D01*
X133250000Y-67200833D01*
X133316666Y-67134166D01*
X133450000Y-67100833D01*
X133683333Y-67100833D01*
X133816666Y-67134166D01*
X133883333Y-67200833D01*
X133916666Y-67267500D01*
X133916666Y-67400833D01*
X133883333Y-67467500D01*
X133816666Y-67534166D01*
X133683333Y-67567500D01*
X133450000Y-67567500D01*
X133316666Y-67534166D01*
X133250000Y-67467500D01*
X133216666Y-67400833D01*
X112930000Y-70234166D02*
X112896666Y-70300833D01*
X112896666Y-70400833D01*
X112930000Y-70500833D01*
X112996666Y-70567500D01*
X113063333Y-70600833D01*
X113196666Y-70634166D01*
X113296666Y-70634166D01*
X113430000Y-70600833D01*
X113496666Y-70567500D01*
X113563333Y-70500833D01*
X113596666Y-70400833D01*
X113596666Y-70334166D01*
X113563333Y-70234166D01*
X113530000Y-70200833D01*
X113296666Y-70200833D01*
X113296666Y-70334166D01*
X113596666Y-69900833D02*
X112896666Y-69900833D01*
X112896666Y-69634166D01*
X112930000Y-69567500D01*
X112963333Y-69534166D01*
X113030000Y-69500833D01*
X113130000Y-69500833D01*
X113196666Y-69534166D01*
X113230000Y-69567500D01*
X113263333Y-69634166D01*
X113263333Y-69900833D01*
X113596666Y-69200833D02*
X112896666Y-69200833D01*
X112896666Y-68734166D02*
X112896666Y-68600833D01*
X112930000Y-68534166D01*
X112996666Y-68467500D01*
X113130000Y-68434166D01*
X113363333Y-68434166D01*
X113496666Y-68467500D01*
X113563333Y-68534166D01*
X113596666Y-68600833D01*
X113596666Y-68734166D01*
X113563333Y-68800833D01*
X113496666Y-68867500D01*
X113363333Y-68900833D01*
X113130000Y-68900833D01*
X112996666Y-68867500D01*
X112930000Y-68800833D01*
X112896666Y-68734166D01*
X113596666Y-67767500D02*
X113596666Y-68167500D01*
X113596666Y-67967500D02*
X112896666Y-67967500D01*
X112996666Y-68034166D01*
X113063333Y-68100833D01*
X113096666Y-68167500D01*
X113596666Y-67434166D02*
X113596666Y-67300833D01*
X113563333Y-67234166D01*
X113530000Y-67200833D01*
X113430000Y-67134166D01*
X113296666Y-67100833D01*
X113030000Y-67100833D01*
X112963333Y-67134166D01*
X112930000Y-67167500D01*
X112896666Y-67234166D01*
X112896666Y-67367500D01*
X112930000Y-67434166D01*
X112963333Y-67467500D01*
X113030000Y-67500833D01*
X113196666Y-67500833D01*
X113263333Y-67467500D01*
X113296666Y-67434166D01*
X113330000Y-67367500D01*
X113330000Y-67234166D01*
X113296666Y-67167500D01*
X113263333Y-67134166D01*
X113196666Y-67100833D01*
X105310000Y-89099166D02*
X105276666Y-89165833D01*
X105276666Y-89265833D01*
X105310000Y-89365833D01*
X105376666Y-89432500D01*
X105443333Y-89465833D01*
X105576666Y-89499166D01*
X105676666Y-89499166D01*
X105810000Y-89465833D01*
X105876666Y-89432500D01*
X105943333Y-89365833D01*
X105976666Y-89265833D01*
X105976666Y-89199166D01*
X105943333Y-89099166D01*
X105910000Y-89065833D01*
X105676666Y-89065833D01*
X105676666Y-89199166D01*
X105976666Y-88765833D02*
X105276666Y-88765833D01*
X105276666Y-88499166D01*
X105310000Y-88432500D01*
X105343333Y-88399166D01*
X105410000Y-88365833D01*
X105510000Y-88365833D01*
X105576666Y-88399166D01*
X105610000Y-88432500D01*
X105643333Y-88499166D01*
X105643333Y-88765833D01*
X105976666Y-88065833D02*
X105276666Y-88065833D01*
X105276666Y-87599166D02*
X105276666Y-87465833D01*
X105310000Y-87399166D01*
X105376666Y-87332500D01*
X105510000Y-87299166D01*
X105743333Y-87299166D01*
X105876666Y-87332500D01*
X105943333Y-87399166D01*
X105976666Y-87465833D01*
X105976666Y-87599166D01*
X105943333Y-87665833D01*
X105876666Y-87732500D01*
X105743333Y-87765833D01*
X105510000Y-87765833D01*
X105376666Y-87732500D01*
X105310000Y-87665833D01*
X105276666Y-87599166D01*
X105276666Y-87065833D02*
X105276666Y-86632500D01*
X105543333Y-86865833D01*
X105543333Y-86765833D01*
X105576666Y-86699166D01*
X105610000Y-86665833D01*
X105676666Y-86632500D01*
X105843333Y-86632500D01*
X105910000Y-86665833D01*
X105943333Y-86699166D01*
X105976666Y-86765833D01*
X105976666Y-86965833D01*
X105943333Y-87032500D01*
X105910000Y-87065833D01*
X105510000Y-86032500D02*
X105976666Y-86032500D01*
X105243333Y-86199166D02*
X105743333Y-86365833D01*
X105743333Y-85932500D01*
X107850000Y-70234166D02*
X107816666Y-70300833D01*
X107816666Y-70400833D01*
X107850000Y-70500833D01*
X107916666Y-70567500D01*
X107983333Y-70600833D01*
X108116666Y-70634166D01*
X108216666Y-70634166D01*
X108350000Y-70600833D01*
X108416666Y-70567500D01*
X108483333Y-70500833D01*
X108516666Y-70400833D01*
X108516666Y-70334166D01*
X108483333Y-70234166D01*
X108450000Y-70200833D01*
X108216666Y-70200833D01*
X108216666Y-70334166D01*
X108516666Y-69900833D02*
X107816666Y-69900833D01*
X107816666Y-69634166D01*
X107850000Y-69567500D01*
X107883333Y-69534166D01*
X107950000Y-69500833D01*
X108050000Y-69500833D01*
X108116666Y-69534166D01*
X108150000Y-69567500D01*
X108183333Y-69634166D01*
X108183333Y-69900833D01*
X108516666Y-69200833D02*
X107816666Y-69200833D01*
X107816666Y-68734166D02*
X107816666Y-68600833D01*
X107850000Y-68534166D01*
X107916666Y-68467500D01*
X108050000Y-68434166D01*
X108283333Y-68434166D01*
X108416666Y-68467500D01*
X108483333Y-68534166D01*
X108516666Y-68600833D01*
X108516666Y-68734166D01*
X108483333Y-68800833D01*
X108416666Y-68867500D01*
X108283333Y-68900833D01*
X108050000Y-68900833D01*
X107916666Y-68867500D01*
X107850000Y-68800833D01*
X107816666Y-68734166D01*
X107883333Y-68167500D02*
X107850000Y-68134166D01*
X107816666Y-68067500D01*
X107816666Y-67900833D01*
X107850000Y-67834166D01*
X107883333Y-67800833D01*
X107950000Y-67767500D01*
X108016666Y-67767500D01*
X108116666Y-67800833D01*
X108516666Y-68200833D01*
X108516666Y-67767500D01*
X108516666Y-67100833D02*
X108516666Y-67500833D01*
X108516666Y-67300833D02*
X107816666Y-67300833D01*
X107916666Y-67367500D01*
X107983333Y-67434166D01*
X108016666Y-67500833D01*
X110240000Y-69253214D02*
X110192380Y-69348452D01*
X110192380Y-69491309D01*
X110240000Y-69634166D01*
X110335238Y-69729404D01*
X110430476Y-69777023D01*
X110620952Y-69824642D01*
X110763809Y-69824642D01*
X110954285Y-69777023D01*
X111049523Y-69729404D01*
X111144761Y-69634166D01*
X111192380Y-69491309D01*
X111192380Y-69396071D01*
X111144761Y-69253214D01*
X111097142Y-69205595D01*
X110763809Y-69205595D01*
X110763809Y-69396071D01*
X111192380Y-68777023D02*
X110192380Y-68777023D01*
X111192380Y-68205595D01*
X110192380Y-68205595D01*
X111192380Y-67729404D02*
X110192380Y-67729404D01*
X110192380Y-67491309D01*
X110240000Y-67348452D01*
X110335238Y-67253214D01*
X110430476Y-67205595D01*
X110620952Y-67157976D01*
X110763809Y-67157976D01*
X110954285Y-67205595D01*
X111049523Y-67253214D01*
X111144761Y-67348452D01*
X111192380Y-67491309D01*
X111192380Y-67729404D01*
X128020000Y-88870595D02*
X127972380Y-88965833D01*
X127972380Y-89108690D01*
X128020000Y-89251547D01*
X128115238Y-89346785D01*
X128210476Y-89394404D01*
X128400952Y-89442023D01*
X128543809Y-89442023D01*
X128734285Y-89394404D01*
X128829523Y-89346785D01*
X128924761Y-89251547D01*
X128972380Y-89108690D01*
X128972380Y-89013452D01*
X128924761Y-88870595D01*
X128877142Y-88822976D01*
X128543809Y-88822976D01*
X128543809Y-89013452D01*
X128972380Y-88394404D02*
X127972380Y-88394404D01*
X128972380Y-87822976D01*
X127972380Y-87822976D01*
X128972380Y-87346785D02*
X127972380Y-87346785D01*
X127972380Y-87108690D01*
X128020000Y-86965833D01*
X128115238Y-86870595D01*
X128210476Y-86822976D01*
X128400952Y-86775357D01*
X128543809Y-86775357D01*
X128734285Y-86822976D01*
X128829523Y-86870595D01*
X128924761Y-86965833D01*
X128972380Y-87108690D01*
X128972380Y-87346785D01*
X112930000Y-89099166D02*
X112896666Y-89165833D01*
X112896666Y-89265833D01*
X112930000Y-89365833D01*
X112996666Y-89432500D01*
X113063333Y-89465833D01*
X113196666Y-89499166D01*
X113296666Y-89499166D01*
X113430000Y-89465833D01*
X113496666Y-89432500D01*
X113563333Y-89365833D01*
X113596666Y-89265833D01*
X113596666Y-89199166D01*
X113563333Y-89099166D01*
X113530000Y-89065833D01*
X113296666Y-89065833D01*
X113296666Y-89199166D01*
X113596666Y-88765833D02*
X112896666Y-88765833D01*
X112896666Y-88499166D01*
X112930000Y-88432500D01*
X112963333Y-88399166D01*
X113030000Y-88365833D01*
X113130000Y-88365833D01*
X113196666Y-88399166D01*
X113230000Y-88432500D01*
X113263333Y-88499166D01*
X113263333Y-88765833D01*
X113596666Y-88065833D02*
X112896666Y-88065833D01*
X112896666Y-87599166D02*
X112896666Y-87465833D01*
X112930000Y-87399166D01*
X112996666Y-87332500D01*
X113130000Y-87299166D01*
X113363333Y-87299166D01*
X113496666Y-87332500D01*
X113563333Y-87399166D01*
X113596666Y-87465833D01*
X113596666Y-87599166D01*
X113563333Y-87665833D01*
X113496666Y-87732500D01*
X113363333Y-87765833D01*
X113130000Y-87765833D01*
X112996666Y-87732500D01*
X112930000Y-87665833D01*
X112896666Y-87599166D01*
X112896666Y-87065833D02*
X112896666Y-86632500D01*
X113163333Y-86865833D01*
X113163333Y-86765833D01*
X113196666Y-86699166D01*
X113230000Y-86665833D01*
X113296666Y-86632500D01*
X113463333Y-86632500D01*
X113530000Y-86665833D01*
X113563333Y-86699166D01*
X113596666Y-86765833D01*
X113596666Y-86965833D01*
X113563333Y-87032500D01*
X113530000Y-87065833D01*
X112896666Y-86399166D02*
X112896666Y-85965833D01*
X113163333Y-86199166D01*
X113163333Y-86099166D01*
X113196666Y-86032500D01*
X113230000Y-85999166D01*
X113296666Y-85965833D01*
X113463333Y-85965833D01*
X113530000Y-85999166D01*
X113563333Y-86032500D01*
X113596666Y-86099166D01*
X113596666Y-86299166D01*
X113563333Y-86365833D01*
X113530000Y-86399166D01*
X107850000Y-89099166D02*
X107816666Y-89165833D01*
X107816666Y-89265833D01*
X107850000Y-89365833D01*
X107916666Y-89432500D01*
X107983333Y-89465833D01*
X108116666Y-89499166D01*
X108216666Y-89499166D01*
X108350000Y-89465833D01*
X108416666Y-89432500D01*
X108483333Y-89365833D01*
X108516666Y-89265833D01*
X108516666Y-89199166D01*
X108483333Y-89099166D01*
X108450000Y-89065833D01*
X108216666Y-89065833D01*
X108216666Y-89199166D01*
X108516666Y-88765833D02*
X107816666Y-88765833D01*
X107816666Y-88499166D01*
X107850000Y-88432500D01*
X107883333Y-88399166D01*
X107950000Y-88365833D01*
X108050000Y-88365833D01*
X108116666Y-88399166D01*
X108150000Y-88432500D01*
X108183333Y-88499166D01*
X108183333Y-88765833D01*
X108516666Y-88065833D02*
X107816666Y-88065833D01*
X107816666Y-87599166D02*
X107816666Y-87465833D01*
X107850000Y-87399166D01*
X107916666Y-87332500D01*
X108050000Y-87299166D01*
X108283333Y-87299166D01*
X108416666Y-87332500D01*
X108483333Y-87399166D01*
X108516666Y-87465833D01*
X108516666Y-87599166D01*
X108483333Y-87665833D01*
X108416666Y-87732500D01*
X108283333Y-87765833D01*
X108050000Y-87765833D01*
X107916666Y-87732500D01*
X107850000Y-87665833D01*
X107816666Y-87599166D01*
X107816666Y-87065833D02*
X107816666Y-86632500D01*
X108083333Y-86865833D01*
X108083333Y-86765833D01*
X108116666Y-86699166D01*
X108150000Y-86665833D01*
X108216666Y-86632500D01*
X108383333Y-86632500D01*
X108450000Y-86665833D01*
X108483333Y-86699166D01*
X108516666Y-86765833D01*
X108516666Y-86965833D01*
X108483333Y-87032500D01*
X108450000Y-87065833D01*
X107816666Y-85999166D02*
X107816666Y-86332500D01*
X108150000Y-86365833D01*
X108116666Y-86332500D01*
X108083333Y-86265833D01*
X108083333Y-86099166D01*
X108116666Y-86032500D01*
X108150000Y-85999166D01*
X108216666Y-85965833D01*
X108383333Y-85965833D01*
X108450000Y-85999166D01*
X108483333Y-86032500D01*
X108516666Y-86099166D01*
X108516666Y-86265833D01*
X108483333Y-86332500D01*
X108450000Y-86365833D01*
X102736666Y-89565833D02*
X103436666Y-89332500D01*
X102736666Y-89099166D01*
X103436666Y-88865833D02*
X102736666Y-88865833D01*
X103436666Y-88465833D01*
X102736666Y-88465833D01*
X102703333Y-87632500D02*
X103603333Y-88232500D01*
X102770000Y-87032500D02*
X102736666Y-87099166D01*
X102736666Y-87199166D01*
X102770000Y-87299166D01*
X102836666Y-87365833D01*
X102903333Y-87399166D01*
X103036666Y-87432500D01*
X103136666Y-87432500D01*
X103270000Y-87399166D01*
X103336666Y-87365833D01*
X103403333Y-87299166D01*
X103436666Y-87199166D01*
X103436666Y-87132500D01*
X103403333Y-87032500D01*
X103370000Y-86999166D01*
X103136666Y-86999166D01*
X103136666Y-87132500D01*
X103436666Y-86699166D02*
X102736666Y-86699166D01*
X102736666Y-86432500D01*
X102770000Y-86365833D01*
X102803333Y-86332500D01*
X102870000Y-86299166D01*
X102970000Y-86299166D01*
X103036666Y-86332500D01*
X103070000Y-86365833D01*
X103103333Y-86432500D01*
X103103333Y-86699166D01*
X103436666Y-85999166D02*
X102736666Y-85999166D01*
X102736666Y-85532500D02*
X102736666Y-85399166D01*
X102770000Y-85332500D01*
X102836666Y-85265833D01*
X102970000Y-85232500D01*
X103203333Y-85232500D01*
X103336666Y-85265833D01*
X103403333Y-85332500D01*
X103436666Y-85399166D01*
X103436666Y-85532500D01*
X103403333Y-85599166D01*
X103336666Y-85665833D01*
X103203333Y-85699166D01*
X102970000Y-85699166D01*
X102836666Y-85665833D01*
X102770000Y-85599166D01*
X102736666Y-85532500D01*
X102736666Y-84999166D02*
X102736666Y-84565833D01*
X103003333Y-84799166D01*
X103003333Y-84699166D01*
X103036666Y-84632500D01*
X103070000Y-84599166D01*
X103136666Y-84565833D01*
X103303333Y-84565833D01*
X103370000Y-84599166D01*
X103403333Y-84632500D01*
X103436666Y-84699166D01*
X103436666Y-84899166D01*
X103403333Y-84965833D01*
X103370000Y-84999166D01*
X103436666Y-84232500D02*
X103436666Y-84099166D01*
X103403333Y-84032500D01*
X103370000Y-83999166D01*
X103270000Y-83932500D01*
X103136666Y-83899166D01*
X102870000Y-83899166D01*
X102803333Y-83932500D01*
X102770000Y-83965833D01*
X102736666Y-84032500D01*
X102736666Y-84165833D01*
X102770000Y-84232500D01*
X102803333Y-84265833D01*
X102870000Y-84299166D01*
X103036666Y-84299166D01*
X103103333Y-84265833D01*
X103136666Y-84232500D01*
X103170000Y-84165833D01*
X103170000Y-84032500D01*
X103136666Y-83965833D01*
X103103333Y-83932500D01*
X103036666Y-83899166D01*
X136456666Y-89465833D02*
X135756666Y-89465833D01*
X135756666Y-89299166D01*
X135790000Y-89199166D01*
X135856666Y-89132500D01*
X135923333Y-89099166D01*
X136056666Y-89065833D01*
X136156666Y-89065833D01*
X136290000Y-89099166D01*
X136356666Y-89132500D01*
X136423333Y-89199166D01*
X136456666Y-89299166D01*
X136456666Y-89465833D01*
X135756666Y-88832500D02*
X135756666Y-88399166D01*
X136023333Y-88632500D01*
X136023333Y-88532500D01*
X136056666Y-88465833D01*
X136090000Y-88432500D01*
X136156666Y-88399166D01*
X136323333Y-88399166D01*
X136390000Y-88432500D01*
X136423333Y-88465833D01*
X136456666Y-88532500D01*
X136456666Y-88732500D01*
X136423333Y-88799166D01*
X136390000Y-88832500D01*
%TO.C,U1*%
X117952380Y-45261904D02*
X118761904Y-45261904D01*
X118857142Y-45214285D01*
X118904761Y-45166666D01*
X118952380Y-45071428D01*
X118952380Y-44880952D01*
X118904761Y-44785714D01*
X118857142Y-44738095D01*
X118761904Y-44690476D01*
X117952380Y-44690476D01*
X118952380Y-43690476D02*
X118952380Y-44261904D01*
X118952380Y-43976190D02*
X117952380Y-43976190D01*
X118095238Y-44071428D01*
X118190476Y-44166666D01*
X118238095Y-44261904D01*
D12*
%TO.C,Display*%
X108200000Y-55150000D02*
X80800000Y-55150000D01*
X89501000Y-28339000D02*
X89501000Y-30752000D01*
X81222000Y-47745000D02*
X81222000Y-31145000D01*
X104322000Y-47745000D02*
X107662000Y-47770000D01*
X80800000Y-55150000D02*
X80800000Y-27850000D01*
X107662000Y-31133000D02*
X107408000Y-31145000D01*
X81222000Y-31145000D02*
X104322000Y-31145000D01*
X99280000Y-30752000D02*
X89501000Y-30752000D01*
X108200000Y-27850000D02*
X108200000Y-55150000D01*
X99280000Y-28339000D02*
X99280000Y-30752000D01*
X107662000Y-47770000D02*
X107662000Y-31133000D01*
X104322000Y-47745000D02*
X81222000Y-47745000D01*
X104322000Y-31145000D02*
X107408000Y-31145000D01*
X80800000Y-27850000D02*
X108200000Y-27850000D01*
X89501000Y-28339000D02*
X99280000Y-28339000D01*
%TO.C,ANT*%
X143145000Y-45550000D02*
X143145000Y-48450000D01*
X145050000Y-50355000D02*
X147950000Y-50355000D01*
X145050000Y-43645000D02*
X147950000Y-43645000D01*
X149855000Y-45550000D02*
X149855000Y-48450000D01*
%TO.C,U2*%
X94400000Y-64100000D02*
X94400000Y-92499999D01*
X88486880Y-69286680D02*
X94379680Y-69286680D01*
X94400000Y-92499999D02*
X142320000Y-92500000D01*
X88486880Y-87269880D02*
X88486880Y-69286680D01*
X142320000Y-92500000D02*
X142320000Y-64100001D01*
X142320000Y-64100001D02*
X94400000Y-64100000D01*
X94379680Y-87269880D02*
X88486880Y-87269880D01*
%TO.C,U1*%
X122292500Y-46307500D02*
X120192500Y-46307500D01*
X136717500Y-29782500D02*
X136717500Y-46032500D01*
X120192500Y-46307500D02*
X120192500Y-44007500D01*
X120467500Y-46032500D02*
X120467500Y-29782500D01*
X136717500Y-46032500D02*
X120467500Y-46032500D01*
X120467500Y-29782500D02*
X136717500Y-29782500D01*
%TD*%
M02*
