%TF.GenerationSoftware,KiCad,Pcbnew,6.0.7+dfsg-1build1*%
%TF.CreationDate,2023-02-23T20:10:15+01:00*%
%TF.ProjectId,mqtt_bridge,6d717474-5f62-4726-9964-67652e6b6963,rev?*%
%TF.SameCoordinates,Original*%
%TF.FileFunction,Drillmap*%
%TF.FilePolarity,Positive*%
%FSLAX45Y45*%
G04 Gerber Fmt 4.5, Leading zero omitted, Abs format (unit mm)*
G04 Created by KiCad (PCBNEW 6.0.7+dfsg-1build1) date 2023-02-23 20:10:15*
%MOMM*%
%LPD*%
G01*
G04 APERTURE LIST*
%ADD10C,0.100000*%
%ADD11C,0.200000*%
%ADD12C,0.430000*%
G04 APERTURE END LIST*
D10*
X15900000Y-9750000D02*
X6700000Y-9750000D01*
X6700000Y-2700000D01*
X15900000Y-2700000D01*
X15900000Y-9750000D01*
D11*
D12*
X7085000Y-2985000D02*
X7515000Y-3415000D01*
X7515000Y-2985000D02*
X7085000Y-3415000D01*
X7085000Y-8985000D02*
X7515000Y-9415000D01*
X7515000Y-8985000D02*
X7085000Y-9415000D01*
X15185000Y-2985000D02*
X15615000Y-3415000D01*
X15615000Y-2985000D02*
X15185000Y-3415000D01*
X15185000Y-8985000D02*
X15615000Y-9415000D01*
X15615000Y-8985000D02*
X15185000Y-9415000D01*
D11*
X6952619Y-10065476D02*
X6952619Y-9865476D01*
X7000238Y-9865476D01*
X7028809Y-9875000D01*
X7047857Y-9894048D01*
X7057381Y-9913095D01*
X7066905Y-9951190D01*
X7066905Y-9979762D01*
X7057381Y-10017857D01*
X7047857Y-10036905D01*
X7028809Y-10055952D01*
X7000238Y-10065476D01*
X6952619Y-10065476D01*
X7152619Y-10065476D02*
X7152619Y-9932143D01*
X7152619Y-9970238D02*
X7162143Y-9951190D01*
X7171667Y-9941667D01*
X7190714Y-9932143D01*
X7209762Y-9932143D01*
X7276428Y-10065476D02*
X7276428Y-9932143D01*
X7276428Y-9865476D02*
X7266905Y-9875000D01*
X7276428Y-9884524D01*
X7285952Y-9875000D01*
X7276428Y-9865476D01*
X7276428Y-9884524D01*
X7400238Y-10065476D02*
X7381190Y-10055952D01*
X7371667Y-10036905D01*
X7371667Y-9865476D01*
X7505000Y-10065476D02*
X7485952Y-10055952D01*
X7476428Y-10036905D01*
X7476428Y-9865476D01*
X7733571Y-10065476D02*
X7733571Y-9865476D01*
X7800238Y-10008333D01*
X7866905Y-9865476D01*
X7866905Y-10065476D01*
X8047857Y-10065476D02*
X8047857Y-9960714D01*
X8038333Y-9941667D01*
X8019286Y-9932143D01*
X7981190Y-9932143D01*
X7962143Y-9941667D01*
X8047857Y-10055952D02*
X8028809Y-10065476D01*
X7981190Y-10065476D01*
X7962143Y-10055952D01*
X7952619Y-10036905D01*
X7952619Y-10017857D01*
X7962143Y-9998810D01*
X7981190Y-9989286D01*
X8028809Y-9989286D01*
X8047857Y-9979762D01*
X8143095Y-9932143D02*
X8143095Y-10132143D01*
X8143095Y-9941667D02*
X8162143Y-9932143D01*
X8200238Y-9932143D01*
X8219286Y-9941667D01*
X8228809Y-9951190D01*
X8238333Y-9970238D01*
X8238333Y-10027381D01*
X8228809Y-10046429D01*
X8219286Y-10055952D01*
X8200238Y-10065476D01*
X8162143Y-10065476D01*
X8143095Y-10055952D01*
X8324048Y-10046429D02*
X8333571Y-10055952D01*
X8324048Y-10065476D01*
X8314524Y-10055952D01*
X8324048Y-10046429D01*
X8324048Y-10065476D01*
X8324048Y-9941667D02*
X8333571Y-9951190D01*
X8324048Y-9960714D01*
X8314524Y-9951190D01*
X8324048Y-9941667D01*
X8324048Y-9960714D01*
X6495000Y-10295000D02*
X6695000Y-10495000D01*
X6695000Y-10295000D02*
X6495000Y-10495000D01*
X7038333Y-10352143D02*
X7038333Y-10485476D01*
X6990714Y-10275952D02*
X6943095Y-10418810D01*
X7066905Y-10418810D01*
X7143095Y-10466429D02*
X7152619Y-10475952D01*
X7143095Y-10485476D01*
X7133571Y-10475952D01*
X7143095Y-10466429D01*
X7143095Y-10485476D01*
X7219286Y-10285476D02*
X7343095Y-10285476D01*
X7276428Y-10361667D01*
X7305000Y-10361667D01*
X7324048Y-10371190D01*
X7333571Y-10380714D01*
X7343095Y-10399762D01*
X7343095Y-10447381D01*
X7333571Y-10466429D01*
X7324048Y-10475952D01*
X7305000Y-10485476D01*
X7247857Y-10485476D01*
X7228809Y-10475952D01*
X7219286Y-10466429D01*
X7466905Y-10285476D02*
X7485952Y-10285476D01*
X7505000Y-10295000D01*
X7514524Y-10304524D01*
X7524048Y-10323571D01*
X7533571Y-10361667D01*
X7533571Y-10409286D01*
X7524048Y-10447381D01*
X7514524Y-10466429D01*
X7505000Y-10475952D01*
X7485952Y-10485476D01*
X7466905Y-10485476D01*
X7447857Y-10475952D01*
X7438333Y-10466429D01*
X7428809Y-10447381D01*
X7419286Y-10409286D01*
X7419286Y-10361667D01*
X7428809Y-10323571D01*
X7438333Y-10304524D01*
X7447857Y-10295000D01*
X7466905Y-10285476D01*
X7657381Y-10285476D02*
X7676428Y-10285476D01*
X7695476Y-10295000D01*
X7705000Y-10304524D01*
X7714524Y-10323571D01*
X7724048Y-10361667D01*
X7724048Y-10409286D01*
X7714524Y-10447381D01*
X7705000Y-10466429D01*
X7695476Y-10475952D01*
X7676428Y-10485476D01*
X7657381Y-10485476D01*
X7638333Y-10475952D01*
X7628809Y-10466429D01*
X7619286Y-10447381D01*
X7609762Y-10409286D01*
X7609762Y-10361667D01*
X7619286Y-10323571D01*
X7628809Y-10304524D01*
X7638333Y-10295000D01*
X7657381Y-10285476D01*
X7809762Y-10485476D02*
X7809762Y-10352143D01*
X7809762Y-10371190D02*
X7819286Y-10361667D01*
X7838333Y-10352143D01*
X7866905Y-10352143D01*
X7885952Y-10361667D01*
X7895476Y-10380714D01*
X7895476Y-10485476D01*
X7895476Y-10380714D02*
X7905000Y-10361667D01*
X7924048Y-10352143D01*
X7952619Y-10352143D01*
X7971667Y-10361667D01*
X7981190Y-10380714D01*
X7981190Y-10485476D01*
X8076428Y-10485476D02*
X8076428Y-10352143D01*
X8076428Y-10371190D02*
X8085952Y-10361667D01*
X8105000Y-10352143D01*
X8133571Y-10352143D01*
X8152619Y-10361667D01*
X8162143Y-10380714D01*
X8162143Y-10485476D01*
X8162143Y-10380714D02*
X8171667Y-10361667D01*
X8190714Y-10352143D01*
X8219286Y-10352143D01*
X8238333Y-10361667D01*
X8247857Y-10380714D01*
X8247857Y-10485476D01*
X8638333Y-10275952D02*
X8466905Y-10533095D01*
X8895476Y-10285476D02*
X8914524Y-10285476D01*
X8933571Y-10295000D01*
X8943095Y-10304524D01*
X8952619Y-10323571D01*
X8962143Y-10361667D01*
X8962143Y-10409286D01*
X8952619Y-10447381D01*
X8943095Y-10466429D01*
X8933571Y-10475952D01*
X8914524Y-10485476D01*
X8895476Y-10485476D01*
X8876429Y-10475952D01*
X8866905Y-10466429D01*
X8857381Y-10447381D01*
X8847857Y-10409286D01*
X8847857Y-10361667D01*
X8857381Y-10323571D01*
X8866905Y-10304524D01*
X8876429Y-10295000D01*
X8895476Y-10285476D01*
X9047857Y-10466429D02*
X9057381Y-10475952D01*
X9047857Y-10485476D01*
X9038333Y-10475952D01*
X9047857Y-10466429D01*
X9047857Y-10485476D01*
X9247857Y-10485476D02*
X9133571Y-10485476D01*
X9190714Y-10485476D02*
X9190714Y-10285476D01*
X9171667Y-10314048D01*
X9152619Y-10333095D01*
X9133571Y-10342619D01*
X9419286Y-10285476D02*
X9381190Y-10285476D01*
X9362143Y-10295000D01*
X9352619Y-10304524D01*
X9333571Y-10333095D01*
X9324048Y-10371190D01*
X9324048Y-10447381D01*
X9333571Y-10466429D01*
X9343095Y-10475952D01*
X9362143Y-10485476D01*
X9400238Y-10485476D01*
X9419286Y-10475952D01*
X9428810Y-10466429D01*
X9438333Y-10447381D01*
X9438333Y-10399762D01*
X9428810Y-10380714D01*
X9419286Y-10371190D01*
X9400238Y-10361667D01*
X9362143Y-10361667D01*
X9343095Y-10371190D01*
X9333571Y-10380714D01*
X9324048Y-10399762D01*
X9533571Y-10485476D02*
X9571667Y-10485476D01*
X9590714Y-10475952D01*
X9600238Y-10466429D01*
X9619286Y-10437857D01*
X9628810Y-10399762D01*
X9628810Y-10323571D01*
X9619286Y-10304524D01*
X9609762Y-10295000D01*
X9590714Y-10285476D01*
X9552619Y-10285476D01*
X9533571Y-10295000D01*
X9524048Y-10304524D01*
X9514524Y-10323571D01*
X9514524Y-10371190D01*
X9524048Y-10390238D01*
X9533571Y-10399762D01*
X9552619Y-10409286D01*
X9590714Y-10409286D01*
X9609762Y-10399762D01*
X9619286Y-10390238D01*
X9628810Y-10371190D01*
X9695476Y-10285476D02*
X9819286Y-10285476D01*
X9752619Y-10361667D01*
X9781190Y-10361667D01*
X9800238Y-10371190D01*
X9809762Y-10380714D01*
X9819286Y-10399762D01*
X9819286Y-10447381D01*
X9809762Y-10466429D01*
X9800238Y-10475952D01*
X9781190Y-10485476D01*
X9724048Y-10485476D01*
X9705000Y-10475952D01*
X9695476Y-10466429D01*
X9895476Y-10285476D02*
X9895476Y-10323571D01*
X9971667Y-10285476D02*
X9971667Y-10323571D01*
X10266905Y-10561667D02*
X10257381Y-10552143D01*
X10238333Y-10523571D01*
X10228810Y-10504524D01*
X10219286Y-10475952D01*
X10209762Y-10428333D01*
X10209762Y-10390238D01*
X10219286Y-10342619D01*
X10228810Y-10314048D01*
X10238333Y-10295000D01*
X10257381Y-10266429D01*
X10266905Y-10256905D01*
X10428810Y-10352143D02*
X10428810Y-10485476D01*
X10381190Y-10275952D02*
X10333571Y-10418810D01*
X10457381Y-10418810D01*
X10685952Y-10485476D02*
X10685952Y-10285476D01*
X10771667Y-10485476D02*
X10771667Y-10380714D01*
X10762143Y-10361667D01*
X10743095Y-10352143D01*
X10714524Y-10352143D01*
X10695476Y-10361667D01*
X10685952Y-10371190D01*
X10895476Y-10485476D02*
X10876429Y-10475952D01*
X10866905Y-10466429D01*
X10857381Y-10447381D01*
X10857381Y-10390238D01*
X10866905Y-10371190D01*
X10876429Y-10361667D01*
X10895476Y-10352143D01*
X10924048Y-10352143D01*
X10943095Y-10361667D01*
X10952619Y-10371190D01*
X10962143Y-10390238D01*
X10962143Y-10447381D01*
X10952619Y-10466429D01*
X10943095Y-10475952D01*
X10924048Y-10485476D01*
X10895476Y-10485476D01*
X11076429Y-10485476D02*
X11057381Y-10475952D01*
X11047857Y-10456905D01*
X11047857Y-10285476D01*
X11228809Y-10475952D02*
X11209762Y-10485476D01*
X11171667Y-10485476D01*
X11152619Y-10475952D01*
X11143095Y-10456905D01*
X11143095Y-10380714D01*
X11152619Y-10361667D01*
X11171667Y-10352143D01*
X11209762Y-10352143D01*
X11228809Y-10361667D01*
X11238333Y-10380714D01*
X11238333Y-10399762D01*
X11143095Y-10418810D01*
X11314524Y-10475952D02*
X11333571Y-10485476D01*
X11371667Y-10485476D01*
X11390714Y-10475952D01*
X11400238Y-10456905D01*
X11400238Y-10447381D01*
X11390714Y-10428333D01*
X11371667Y-10418810D01*
X11343095Y-10418810D01*
X11324048Y-10409286D01*
X11314524Y-10390238D01*
X11314524Y-10380714D01*
X11324048Y-10361667D01*
X11343095Y-10352143D01*
X11371667Y-10352143D01*
X11390714Y-10361667D01*
X11466905Y-10561667D02*
X11476428Y-10552143D01*
X11495476Y-10523571D01*
X11505000Y-10504524D01*
X11514524Y-10475952D01*
X11524048Y-10428333D01*
X11524048Y-10390238D01*
X11514524Y-10342619D01*
X11505000Y-10314048D01*
X11495476Y-10295000D01*
X11476428Y-10266429D01*
X11466905Y-10256905D01*
X11828809Y-10561667D02*
X11819286Y-10552143D01*
X11800238Y-10523571D01*
X11790714Y-10504524D01*
X11781190Y-10475952D01*
X11771667Y-10428333D01*
X11771667Y-10390238D01*
X11781190Y-10342619D01*
X11790714Y-10314048D01*
X11800238Y-10295000D01*
X11819286Y-10266429D01*
X11828809Y-10256905D01*
X11905000Y-10352143D02*
X11905000Y-10485476D01*
X11905000Y-10371190D02*
X11914524Y-10361667D01*
X11933571Y-10352143D01*
X11962143Y-10352143D01*
X11981190Y-10361667D01*
X11990714Y-10380714D01*
X11990714Y-10485476D01*
X12114524Y-10485476D02*
X12095476Y-10475952D01*
X12085952Y-10466429D01*
X12076428Y-10447381D01*
X12076428Y-10390238D01*
X12085952Y-10371190D01*
X12095476Y-10361667D01*
X12114524Y-10352143D01*
X12143095Y-10352143D01*
X12162143Y-10361667D01*
X12171667Y-10371190D01*
X12181190Y-10390238D01*
X12181190Y-10447381D01*
X12171667Y-10466429D01*
X12162143Y-10475952D01*
X12143095Y-10485476D01*
X12114524Y-10485476D01*
X12238333Y-10352143D02*
X12314524Y-10352143D01*
X12266905Y-10285476D02*
X12266905Y-10456905D01*
X12276428Y-10475952D01*
X12295476Y-10485476D01*
X12314524Y-10485476D01*
X12533571Y-10352143D02*
X12533571Y-10552143D01*
X12533571Y-10361667D02*
X12552619Y-10352143D01*
X12590714Y-10352143D01*
X12609762Y-10361667D01*
X12619286Y-10371190D01*
X12628809Y-10390238D01*
X12628809Y-10447381D01*
X12619286Y-10466429D01*
X12609762Y-10475952D01*
X12590714Y-10485476D01*
X12552619Y-10485476D01*
X12533571Y-10475952D01*
X12743095Y-10485476D02*
X12724048Y-10475952D01*
X12714524Y-10456905D01*
X12714524Y-10285476D01*
X12905000Y-10485476D02*
X12905000Y-10380714D01*
X12895476Y-10361667D01*
X12876428Y-10352143D01*
X12838333Y-10352143D01*
X12819286Y-10361667D01*
X12905000Y-10475952D02*
X12885952Y-10485476D01*
X12838333Y-10485476D01*
X12819286Y-10475952D01*
X12809762Y-10456905D01*
X12809762Y-10437857D01*
X12819286Y-10418810D01*
X12838333Y-10409286D01*
X12885952Y-10409286D01*
X12905000Y-10399762D01*
X12971667Y-10352143D02*
X13047857Y-10352143D01*
X13000238Y-10285476D02*
X13000238Y-10456905D01*
X13009762Y-10475952D01*
X13028809Y-10485476D01*
X13047857Y-10485476D01*
X13190714Y-10475952D02*
X13171667Y-10485476D01*
X13133571Y-10485476D01*
X13114524Y-10475952D01*
X13105000Y-10456905D01*
X13105000Y-10380714D01*
X13114524Y-10361667D01*
X13133571Y-10352143D01*
X13171667Y-10352143D01*
X13190714Y-10361667D01*
X13200238Y-10380714D01*
X13200238Y-10399762D01*
X13105000Y-10418810D01*
X13371667Y-10485476D02*
X13371667Y-10285476D01*
X13371667Y-10475952D02*
X13352619Y-10485476D01*
X13314524Y-10485476D01*
X13295476Y-10475952D01*
X13285952Y-10466429D01*
X13276428Y-10447381D01*
X13276428Y-10390238D01*
X13285952Y-10371190D01*
X13295476Y-10361667D01*
X13314524Y-10352143D01*
X13352619Y-10352143D01*
X13371667Y-10361667D01*
X13447857Y-10561667D02*
X13457381Y-10552143D01*
X13476428Y-10523571D01*
X13485952Y-10504524D01*
X13495476Y-10475952D01*
X13505000Y-10428333D01*
X13505000Y-10390238D01*
X13495476Y-10342619D01*
X13485952Y-10314048D01*
X13476428Y-10295000D01*
X13457381Y-10266429D01*
X13447857Y-10256905D01*
M02*
