M48
; DRILL file {KiCad 6.0.7+dfsg-1build1} date Do 23 Feb 2023 20:10:11 CET
; FORMAT={-:-/ absolute / inch / decimal}
; #@! TF.CreationDate,2023-02-23T20:10:11+01:00
; #@! TF.GenerationSoftware,Kicad,Pcbnew,6.0.7+dfsg-1build1
; #@! TF.FileFunction,Plated,1,2,PTH
FMAT,2
INCH
; #@! TA.AperFunction,Plated,PTH,ComponentDrill
T1C0.0315
; #@! TA.AperFunction,Plated,PTH,ComponentDrill
T2C0.0394
; #@! TA.AperFunction,Plated,PTH,ComponentDrill
T3C0.0591
; #@! TA.AperFunction,Plated,PTH,ComponentDrill
T4C0.0669
; #@! TA.AperFunction,Plated,PTH,ComponentDrill
T5C0.0984
%
G90
G05
T1
X3.7598Y-2.5827
X3.7598Y-3.5827
X3.8598Y-2.5827
X3.8598Y-3.5827
X3.9598Y-2.5827
X3.9598Y-3.5827
X4.0598Y-2.5827
X4.0598Y-3.5827
X4.1598Y-2.5827
X4.1598Y-3.5827
X4.2598Y-2.5827
X4.2598Y-3.5827
X4.3598Y-2.5827
X4.3598Y-3.5827
X4.4598Y-2.5827
X4.4598Y-3.5827
X4.5598Y-2.5827
X4.5598Y-3.5827
X4.6598Y-2.5827
X4.6598Y-3.5827
X4.7598Y-2.5827
X4.7598Y-3.5827
X4.7871Y-1.2247
X4.7871Y-1.7601
X4.8598Y-2.5827
X4.8598Y-3.5827
X4.8658Y-1.2247
X4.8658Y-1.7601
X4.9446Y-1.2247
X4.9446Y-1.7601
X4.9598Y-2.5827
X4.9598Y-3.5827
X5.0233Y-1.2247
X5.0233Y-1.7601
X5.0598Y-2.5827
X5.0598Y-3.5827
X5.1021Y-1.2247
X5.1021Y-1.7601
X5.1598Y-2.5827
X5.1598Y-3.5827
X5.1808Y-1.2247
X5.1808Y-1.7601
X5.2595Y-1.2247
X5.2595Y-1.7601
X5.2598Y-2.5827
X5.2598Y-3.5827
X5.3383Y-1.2247
X5.3383Y-1.7601
X5.3598Y-2.5827
X5.3598Y-3.5827
X5.4597Y-2.5828
X5.4598Y-3.5827
X5.5597Y-2.5828
X5.5598Y-3.5827
T2
X3.5661Y-1.1634
X3.6661Y-1.1634
X3.7661Y-1.1634
X3.8661Y-1.1634
T3
X5.7677Y-1.8504
T4
X5.6677Y-1.7504
X5.6677Y-1.9504
X5.8677Y-1.7504
X5.8677Y-1.9504
T5
G00X3.3228Y-1.1594
M15
G01X3.2441Y-1.1594
M16
G05
G00X3.3228Y-2.1083
M15
G01X3.2441Y-2.1083
M16
G05
G00X4.1929Y-1.1594
M15
G01X4.1142Y-1.1594
M16
G05
G00X4.1969Y-2.1083
M15
G01X4.1181Y-2.1083
M16
G05
T0
M30
