%TF.GenerationSoftware,KiCad,Pcbnew,9.0.1*%
%TF.CreationDate,2025-04-28T11:20:15+02:00*%
%TF.ProjectId,sensor,73656e73-6f72-42e6-9b69-6361645f7063,rev?*%
%TF.SameCoordinates,Original*%
%TF.FileFunction,Copper,L1,Top*%
%TF.FilePolarity,Positive*%
%FSLAX46Y46*%
G04 Gerber Fmt 4.6, Leading zero omitted, Abs format (unit mm)*
G04 Created by KiCad (PCBNEW 9.0.1) date 2025-04-28 11:20:15*
%MOMM*%
%LPD*%
G01*
G04 APERTURE LIST*
G04 Aperture macros list*
%AMRoundRect*
0 Rectangle with rounded corners*
0 $1 Rounding radius*
0 $2 $3 $4 $5 $6 $7 $8 $9 X,Y pos of 4 corners*
0 Add a 4 corners polygon primitive as box body*
4,1,4,$2,$3,$4,$5,$6,$7,$8,$9,$2,$3,0*
0 Add four circle primitives for the rounded corners*
1,1,$1+$1,$2,$3*
1,1,$1+$1,$4,$5*
1,1,$1+$1,$6,$7*
1,1,$1+$1,$8,$9*
0 Add four rect primitives between the rounded corners*
20,1,$1+$1,$2,$3,$4,$5,0*
20,1,$1+$1,$4,$5,$6,$7,0*
20,1,$1+$1,$6,$7,$8,$9,0*
20,1,$1+$1,$8,$9,$2,$3,0*%
%AMFreePoly0*
4,1,23,0.500000,-0.750000,0.000000,-0.750000,0.000000,-0.745722,-0.065263,-0.745722,-0.191342,-0.711940,-0.304381,-0.646677,-0.396677,-0.554381,-0.461940,-0.441342,-0.495722,-0.315263,-0.495722,-0.250000,-0.500000,-0.250000,-0.500000,0.250000,-0.495722,0.250000,-0.495722,0.315263,-0.461940,0.441342,-0.396677,0.554381,-0.304381,0.646677,-0.191342,0.711940,-0.065263,0.745722,0.000000,0.745722,
0.000000,0.750000,0.500000,0.750000,0.500000,-0.750000,0.500000,-0.750000,$1*%
%AMFreePoly1*
4,1,23,0.000000,0.745722,0.065263,0.745722,0.191342,0.711940,0.304381,0.646677,0.396677,0.554381,0.461940,0.441342,0.495722,0.315263,0.495722,0.250000,0.500000,0.250000,0.500000,-0.250000,0.495722,-0.250000,0.495722,-0.315263,0.461940,-0.441342,0.396677,-0.554381,0.304381,-0.646677,0.191342,-0.711940,0.065263,-0.745722,0.000000,-0.745722,0.000000,-0.750000,-0.500000,-0.750000,
-0.500000,0.750000,0.000000,0.750000,0.000000,0.745722,0.000000,0.745722,$1*%
G04 Aperture macros list end*
%TA.AperFunction,ComponentPad*%
%ADD10C,5.600000*%
%TD*%
%TA.AperFunction,ComponentPad*%
%ADD11C,1.400000*%
%TD*%
%TA.AperFunction,ComponentPad*%
%ADD12C,1.600000*%
%TD*%
%TA.AperFunction,ComponentPad*%
%ADD13O,1.600000X1.600000*%
%TD*%
%TA.AperFunction,SMDPad,CuDef*%
%ADD14FreePoly0,90.000000*%
%TD*%
%TA.AperFunction,SMDPad,CuDef*%
%ADD15FreePoly1,90.000000*%
%TD*%
%TA.AperFunction,ComponentPad*%
%ADD16R,1.905000X2.000000*%
%TD*%
%TA.AperFunction,ComponentPad*%
%ADD17O,1.905000X2.000000*%
%TD*%
%TA.AperFunction,SMDPad,CuDef*%
%ADD18R,1.500000X2.000000*%
%TD*%
%TA.AperFunction,SMDPad,CuDef*%
%ADD19R,3.800000X2.000000*%
%TD*%
%TA.AperFunction,SMDPad,CuDef*%
%ADD20RoundRect,0.075000X-0.650000X-0.075000X0.650000X-0.075000X0.650000X0.075000X-0.650000X0.075000X0*%
%TD*%
%TA.AperFunction,SMDPad,CuDef*%
%ADD21RoundRect,0.250000X-1.425000X0.362500X-1.425000X-0.362500X1.425000X-0.362500X1.425000X0.362500X0*%
%TD*%
%TA.AperFunction,SMDPad,CuDef*%
%ADD22RoundRect,0.250000X1.425000X-0.362500X1.425000X0.362500X-1.425000X0.362500X-1.425000X-0.362500X0*%
%TD*%
%TA.AperFunction,SMDPad,CuDef*%
%ADD23R,1.200000X0.900000*%
%TD*%
%TA.AperFunction,ComponentPad*%
%ADD24C,2.250000*%
%TD*%
%TA.AperFunction,ComponentPad*%
%ADD25R,1.600000X1.600000*%
%TD*%
%TA.AperFunction,ComponentPad*%
%ADD26RoundRect,0.250000X-0.600000X-0.750000X0.600000X-0.750000X0.600000X0.750000X-0.600000X0.750000X0*%
%TD*%
%TA.AperFunction,ComponentPad*%
%ADD27O,1.700000X2.000000*%
%TD*%
%TA.AperFunction,SMDPad,CuDef*%
%ADD28R,2.300000X1.000000*%
%TD*%
%TA.AperFunction,SMDPad,CuDef*%
%ADD29R,1.000000X2.300000*%
%TD*%
%TA.AperFunction,SMDPad,CuDef*%
%ADD30RoundRect,0.075000X-0.225000X0.910000X-0.225000X-0.910000X0.225000X-0.910000X0.225000X0.910000X0*%
%TD*%
%TA.AperFunction,ComponentPad*%
%ADD31R,2.500000X2.500000*%
%TD*%
%TA.AperFunction,ComponentPad*%
%ADD32C,2.500000*%
%TD*%
%TA.AperFunction,ComponentPad*%
%ADD33RoundRect,0.250000X-0.600000X-0.725000X0.600000X-0.725000X0.600000X0.725000X-0.600000X0.725000X0*%
%TD*%
%TA.AperFunction,ComponentPad*%
%ADD34O,1.700000X1.950000*%
%TD*%
%TA.AperFunction,ComponentPad*%
%ADD35R,1.600000X2.400000*%
%TD*%
%TA.AperFunction,ComponentPad*%
%ADD36O,1.600000X2.400000*%
%TD*%
%TA.AperFunction,ComponentPad*%
%ADD37R,2.000000X1.905000*%
%TD*%
%TA.AperFunction,ComponentPad*%
%ADD38O,2.000000X1.905000*%
%TD*%
%TA.AperFunction,ComponentPad*%
%ADD39O,1.950000X1.700000*%
%TD*%
%TA.AperFunction,ComponentPad*%
%ADD40RoundRect,0.250000X-0.725000X0.600000X-0.725000X-0.600000X0.725000X-0.600000X0.725000X0.600000X0*%
%TD*%
%TA.AperFunction,SMDPad,CuDef*%
%ADD41R,1.500000X1.500000*%
%TD*%
%TA.AperFunction,ComponentPad*%
%ADD42R,1.700000X1.700000*%
%TD*%
%TA.AperFunction,ComponentPad*%
%ADD43O,1.700000X1.700000*%
%TD*%
%TA.AperFunction,ViaPad*%
%ADD44C,0.900000*%
%TD*%
%TA.AperFunction,ViaPad*%
%ADD45C,0.600000*%
%TD*%
%TA.AperFunction,Conductor*%
%ADD46C,0.600000*%
%TD*%
%TA.AperFunction,Conductor*%
%ADD47C,1.200000*%
%TD*%
%TA.AperFunction,Conductor*%
%ADD48C,0.200000*%
%TD*%
%TA.AperFunction,Conductor*%
%ADD49C,1.000000*%
%TD*%
%TA.AperFunction,Conductor*%
%ADD50C,0.800000*%
%TD*%
%TA.AperFunction,Conductor*%
%ADD51C,0.400000*%
%TD*%
G04 APERTURE END LIST*
D10*
%TO.P,REF\u002A\u002A,1*%
%TO.N,N/C*%
X58200000Y-58050000D03*
%TD*%
%TO.P,REF\u002A\u002A,1*%
%TO.N,N/C*%
X58200000Y-88300000D03*
%TD*%
%TO.P,REF\u002A\u002A,1*%
%TO.N,N/C*%
X194000000Y-88300000D03*
%TD*%
%TO.P,REF\u002A\u002A,1*%
%TO.N,N/C*%
X194000000Y-58050000D03*
%TD*%
D11*
%TO.P,C4,1*%
%TO.N,VIN+*%
X142500000Y-80500000D03*
%TO.P,C4,2*%
%TO.N,BAT+*%
X142500000Y-83000000D03*
%TD*%
D12*
%TO.P,R31,1*%
%TO.N,Net-(U2-HYST1)*%
X121962200Y-89790000D03*
D13*
%TO.P,R31,2*%
%TO.N,BAT+*%
X121962200Y-99950000D03*
%TD*%
D14*
%TO.P,JP1,1,A*%
%TO.N,Net-(J2-Pin_5)*%
X69650000Y-44700000D03*
D15*
%TO.P,JP1,2,B*%
%TO.N,VCC*%
X69650000Y-43400000D03*
%TD*%
D12*
%TO.P,R2,1*%
%TO.N,Net-(Q1-G)*%
X143075000Y-88970000D03*
D13*
%TO.P,R2,2*%
%TO.N,Net-(D1-K)*%
X143075000Y-99130000D03*
%TD*%
D16*
%TO.P,Q2,1,G*%
%TO.N,Net-(Q2-G)*%
X130360000Y-64055000D03*
D17*
%TO.P,Q2,2,D*%
%TO.N,Net-(Q2-D)*%
X132900000Y-64055000D03*
%TO.P,Q2,3,S*%
%TO.N,BAT+*%
X135440000Y-64055000D03*
%TD*%
D12*
%TO.P,R4,1*%
%TO.N,Net-(U6-TS)*%
X135450000Y-101180000D03*
D13*
%TO.P,R4,2*%
%TO.N,BAT-*%
X135450000Y-91020000D03*
%TD*%
D18*
%TO.P,U3,1,GND*%
%TO.N,BAT-*%
X166714200Y-49402600D03*
%TO.P,U3,2,VO*%
%TO.N,VCC*%
X164414200Y-49402600D03*
%TO.P,U3,3,VI*%
%TO.N,Net-(Q2-D)*%
X162114200Y-49402600D03*
D19*
%TO.P,U3,4*%
%TO.N,N/C*%
X164414200Y-55702600D03*
%TD*%
D20*
%TO.P,U5,1,A1*%
%TO.N,BAT-*%
X161985600Y-60036200D03*
%TO.P,U5,2,A0*%
X161985600Y-60536200D03*
%TO.P,U5,3,~{Alert}*%
%TO.N,unconnected-(U5-~{Alert}-Pad3)*%
X161985600Y-61036200D03*
%TO.P,U5,4,SDA*%
%TO.N,SDA*%
X161985600Y-61536200D03*
%TO.P,U5,5,SCL*%
%TO.N,SCL*%
X161985600Y-62036200D03*
%TO.P,U5,6,VS*%
%TO.N,VCC*%
X166385600Y-62036200D03*
%TO.P,U5,7,GND*%
%TO.N,BAT-*%
X166385600Y-61536200D03*
%TO.P,U5,8,Vbus*%
%TO.N,VIN+*%
X166385600Y-61036200D03*
%TO.P,U5,9,Vin-*%
%TO.N,BAT+*%
X166385600Y-60536200D03*
%TO.P,U5,10,Vin+*%
%TO.N,VIN+*%
X166385600Y-60036200D03*
%TD*%
D21*
%TO.P,R_SNS1,1*%
%TO.N,Net-(D1-K)*%
X161772600Y-85302500D03*
%TO.P,R_SNS1,2*%
%TO.N,Net-(Q1-S)*%
X161772600Y-91227500D03*
%TD*%
D12*
%TO.P,R11,1*%
%TO.N,BAT-*%
X116320000Y-72175000D03*
D13*
%TO.P,R11,2*%
%TO.N,Net-(U2-SET1)*%
X126480000Y-72175000D03*
%TD*%
D22*
%TO.P,R_Sense1,1*%
%TO.N,VIN+*%
X154406600Y-59985500D03*
%TO.P,R_Sense1,2*%
%TO.N,BAT+*%
X154406600Y-54060500D03*
%TD*%
D23*
%TO.P,D1,1,K*%
%TO.N,Net-(D1-K)*%
X168376600Y-86587600D03*
%TO.P,D1,2,A*%
%TO.N,VD*%
X168376600Y-83287600D03*
%TD*%
D24*
%TO.P,J1,1,In*%
%TO.N,RFIO*%
X89408000Y-106172000D03*
%TO.P,J1,2,Ext*%
%TO.N,BAT-*%
X91948000Y-103632000D03*
X86868000Y-103632000D03*
X91948000Y-108712000D03*
X86868000Y-108712000D03*
%TD*%
D11*
%TO.P,C1,1*%
%TO.N,Net-(D1-K)*%
X168375000Y-90300000D03*
%TO.P,C1,2*%
%TO.N,BAT-*%
X168375000Y-92800000D03*
%TD*%
D12*
%TO.P,R3,1*%
%TO.N,Net-(U6-TS)*%
X138450000Y-101180000D03*
D13*
%TO.P,R3,2*%
%TO.N,Net-(D1-K)*%
X138450000Y-91020000D03*
%TD*%
D25*
%TO.P,C6,1*%
%TO.N,Net-(Q2-D)*%
X176469888Y-52425000D03*
D12*
%TO.P,C6,2*%
%TO.N,BAT-*%
X178969888Y-52425000D03*
%TD*%
%TO.P,R1,1*%
%TO.N,Net-(Q2-G)*%
X125950000Y-89790000D03*
D13*
%TO.P,R1,2*%
%TO.N,BAT+*%
X125950000Y-99950000D03*
%TD*%
D26*
%TO.P,J7,1,Pin_1*%
%TO.N,BAT-*%
X151988200Y-47719100D03*
D27*
%TO.P,J7,2,Pin_2*%
%TO.N,BAT+*%
X154488200Y-47719100D03*
%TD*%
D11*
%TO.P,C2,1*%
%TO.N,VIN+*%
X176000000Y-59525000D03*
%TO.P,C2,2*%
%TO.N,BAT-*%
X178500000Y-59525000D03*
%TD*%
D12*
%TO.P,R21,1*%
%TO.N,Net-(U2-SET1)*%
X117985400Y-99950800D03*
D13*
%TO.P,R21,2*%
%TO.N,Net-(U2-HYST1)*%
X117985400Y-89790800D03*
%TD*%
D28*
%TO.P,U1,1,VCC*%
%TO.N,VCC*%
X88488000Y-78038000D03*
%TO.P,U1,2,GND*%
%TO.N,BAT-*%
X88488000Y-79288000D03*
%TO.P,U1,3,PA13*%
%TO.N,SWDIO*%
X88488000Y-80538000D03*
%TO.P,U1,4,PA14*%
%TO.N,SWCLK*%
X88488000Y-81788000D03*
%TO.P,U1,5,PB15*%
%TO.N,SCL*%
X88488000Y-83038000D03*
%TO.P,U1,6,PA15*%
%TO.N,SDA*%
X88488000Y-84288000D03*
%TO.P,U1,7,PB4*%
%TO.N,unconnected-(U1-PB4-Pad7)*%
X88488000Y-85538000D03*
D29*
%TO.P,U1,8,PB3*%
%TO.N,unconnected-(U1-PB3-Pad8)*%
X90738000Y-87788000D03*
%TO.P,U1,9,PB7*%
%TO.N,unconnected-(U1-PB7-Pad9)*%
X91988000Y-87788000D03*
%TO.P,U1,10,PB6*%
%TO.N,unconnected-(U1-PB6-Pad10)*%
X93238000Y-87788000D03*
%TO.P,U1,11,PB5*%
%TO.N,unconnected-(U1-PB5-Pad11)*%
X94488000Y-87788000D03*
%TO.P,U1,12,PC1*%
%TO.N,unconnected-(U1-PC1-Pad12)*%
X95738000Y-87788000D03*
%TO.P,U1,13,PC0*%
%TO.N,unconnected-(U1-PC0-Pad13)*%
X96988000Y-87788000D03*
%TO.P,U1,14,GND*%
%TO.N,BAT-*%
X98238000Y-87788000D03*
D28*
%TO.P,U1,15,RFIO*%
%TO.N,RFIO*%
X100488000Y-85538000D03*
%TO.P,U1,16,GND*%
%TO.N,BAT-*%
X100488000Y-84288000D03*
%TO.P,U1,17,RST*%
%TO.N,RST*%
X100488000Y-83038000D03*
%TO.P,U1,18,PA3*%
%TO.N,unconnected-(U1-PA3-Pad18)*%
X100488000Y-81788000D03*
%TO.P,U1,19,PA2*%
%TO.N,unconnected-(U1-PA2-Pad19)*%
X100488000Y-80538000D03*
%TO.P,U1,20,PB10*%
%TO.N,unconnected-(U1-PB10-Pad20)*%
X100488000Y-79288000D03*
%TO.P,U1,21,PA9*%
%TO.N,unconnected-(U1-PA9-Pad21)*%
X100488000Y-78038000D03*
D29*
%TO.P,U1,22,GND*%
%TO.N,BAT-*%
X98238000Y-75788000D03*
%TO.P,U1,23,PA0*%
%TO.N,unconnected-(U1-PA0-Pad23)*%
X96988000Y-75788000D03*
%TO.P,U1,24,PB13~{}*%
%TO.N,unconnected-(U1-PB13~{}-Pad24)*%
X95738000Y-75788000D03*
%TO.P,U1,25,PB9*%
%TO.N,unconnected-(U1-PB9-Pad25)*%
X94488000Y-75788000D03*
%TO.P,U1,26,PB14*%
%TO.N,unconnected-(U1-PB14-Pad26)*%
X93238000Y-75788000D03*
%TO.P,U1,27,PA10*%
%TO.N,unconnected-(U1-PA10-Pad27)*%
X91988000Y-75788000D03*
%TO.P,U1,28,PB0*%
%TO.N,unconnected-(U1-PB0-Pad28)*%
X90738000Y-75788000D03*
%TD*%
D25*
%TO.P,C3,1*%
%TO.N,VCC*%
X94538800Y-69494400D03*
D12*
%TO.P,C3,2*%
%TO.N,BAT-*%
X97038800Y-69494400D03*
%TD*%
D30*
%TO.P,U6,1,SNS*%
%TO.N,Net-(Q1-S)*%
X151905000Y-80530000D03*
%TO.P,U6,2,BAT*%
%TO.N,VIN+*%
X150635000Y-80530000D03*
%TO.P,U6,3,VCC*%
%TO.N,Net-(D1-K)*%
X149365000Y-80530000D03*
%TO.P,U6,4,TS*%
%TO.N,Net-(U6-TS)*%
X148095000Y-80530000D03*
%TO.P,U6,5,STAT*%
%TO.N,unconnected-(U6-STAT-Pad5)*%
X148095000Y-85470000D03*
%TO.P,U6,6,VSS*%
%TO.N,BAT-*%
X149365000Y-85470000D03*
%TO.P,U6,7,CC*%
%TO.N,Net-(Q1-G)*%
X150635000Y-85470000D03*
%TO.P,U6,8,COMP*%
%TO.N,Net-(D1-K)*%
X151905000Y-85470000D03*
%TD*%
D31*
%TO.P,J4,1,Pin_1*%
%TO.N,VD*%
X173000000Y-87000000D03*
D32*
%TO.P,J4,2,Pin_2*%
%TO.N,BAT-*%
X178000000Y-87000000D03*
%TD*%
D33*
%TO.P,I2C_Sensor_out1,1,Pin_1*%
%TO.N,VCC*%
X172475200Y-71179200D03*
D34*
%TO.P,I2C_Sensor_out1,2,Pin_2*%
%TO.N,BAT-*%
X174975200Y-71179200D03*
%TO.P,I2C_Sensor_out1,3,Pin_3*%
%TO.N,SCL*%
X177475200Y-71179200D03*
%TO.P,I2C_Sensor_out1,4,Pin_4*%
%TO.N,SDA*%
X179975200Y-71179200D03*
%TD*%
D35*
%TO.P,U2,1,OUT1*%
%TO.N,Net-(Q2-G)*%
X125750000Y-76675000D03*
D36*
%TO.P,U2,2,HYST1*%
%TO.N,Net-(U2-HYST1)*%
X123210000Y-76675000D03*
%TO.P,U2,3,SET1*%
%TO.N,Net-(U2-SET1)*%
X120670000Y-76675000D03*
%TO.P,U2,4,GND*%
%TO.N,BAT-*%
X118130000Y-76675000D03*
%TO.P,U2,5,HYST2*%
%TO.N,unconnected-(U2-HYST2-Pad5)*%
X118130000Y-84295000D03*
%TO.P,U2,6,SET2*%
%TO.N,unconnected-(U2-SET2-Pad6)*%
X120670000Y-84295000D03*
%TO.P,U2,7,OUT2*%
%TO.N,unconnected-(U2-OUT2-Pad7)*%
X123210000Y-84295000D03*
%TO.P,U2,8,V+*%
%TO.N,BAT+*%
X125750000Y-84295000D03*
%TD*%
D37*
%TO.P,Q1,1,G*%
%TO.N,Net-(Q1-G)*%
X159355000Y-73815000D03*
D38*
%TO.P,Q1,2,D*%
%TO.N,VIN+*%
X159355000Y-71275000D03*
%TO.P,Q1,3,S*%
%TO.N,Net-(Q1-S)*%
X159355000Y-68735000D03*
%TD*%
D39*
%TO.P,J3,4,Pin_4*%
%TO.N,BAT-*%
X74185000Y-85538000D03*
%TO.P,J3,3,Pin_3*%
%TO.N,SWCLK*%
X74185000Y-83038000D03*
%TO.P,J3,2,Pin_2*%
%TO.N,SWDIO*%
X74185000Y-80538000D03*
D40*
%TO.P,J3,1,Pin_1*%
%TO.N,VCC*%
X74185000Y-78038000D03*
%TD*%
D41*
%TO.P,SW1,1,1*%
%TO.N,BAT-*%
X106705400Y-74789200D03*
%TO.P,SW1,2,2*%
%TO.N,RST*%
X106705400Y-82589200D03*
%TD*%
D42*
%TO.P,J2,1,Pin_1*%
%TO.N,VCC*%
X73400000Y-38675000D03*
D43*
%TO.P,J2,2,Pin_2*%
%TO.N,BAT-*%
X73400000Y-41215000D03*
%TO.P,J2,3,Pin_3*%
%TO.N,SCL*%
X73400000Y-43755000D03*
%TO.P,J2,4,Pin_4*%
%TO.N,SDA*%
X73400000Y-46295000D03*
%TO.P,J2,5,Pin_5*%
%TO.N,Net-(J2-Pin_5)*%
X73400000Y-48835000D03*
%TO.P,J2,6,Pin_6*%
%TO.N,unconnected-(J2-Pin_6-Pad6)*%
X73400000Y-51375000D03*
%TO.P,J2,7,Pin_7*%
%TO.N,unconnected-(J2-Pin_7-Pad7)*%
X73400000Y-53915000D03*
%TD*%
D44*
%TO.N,VCC*%
X173500000Y-42800000D03*
D45*
%TO.N,Net-(Q1-G)*%
X158700000Y-85225000D03*
X147955000Y-90297000D03*
D44*
%TO.N,Net-(Q2-D)*%
X165912800Y-52451000D03*
%TD*%
D46*
%TO.N,Net-(D1-K)*%
X161772600Y-87807800D02*
X164592000Y-90627200D01*
D47*
X143075000Y-95645000D02*
X141530000Y-94100000D01*
D46*
X150850600Y-82804000D02*
X150266400Y-82804000D01*
X150266400Y-82804000D02*
X149365000Y-81902600D01*
D47*
X138450000Y-91020000D02*
X141530000Y-94100000D01*
D46*
X168376600Y-90298400D02*
X168375000Y-90300000D01*
X164592000Y-90627200D02*
X164592000Y-93903800D01*
X168376600Y-85801200D02*
X167877900Y-85302500D01*
X149365000Y-81902600D02*
X149365000Y-80530000D01*
X151905000Y-85470000D02*
X151905000Y-83858400D01*
D47*
X143075000Y-99130000D02*
X143075000Y-95645000D01*
D46*
X151905000Y-90436400D02*
X151905000Y-85470000D01*
X168376600Y-86587600D02*
X168376600Y-85801200D01*
X151905000Y-83858400D02*
X150850600Y-82804000D01*
X144912500Y-94037500D02*
X144850000Y-94100000D01*
X155372400Y-93903800D02*
X151905000Y-90436400D01*
X164592000Y-93903800D02*
X155372400Y-93903800D01*
D47*
X141530000Y-94100000D02*
X144850000Y-94100000D01*
D46*
X167877900Y-85302500D02*
X161772600Y-85302500D01*
X168376600Y-86587600D02*
X168376600Y-90298400D01*
X161772600Y-85302500D02*
X161772600Y-87807800D01*
X148303900Y-94037500D02*
X144912500Y-94037500D01*
X151905000Y-90436400D02*
X148303900Y-94037500D01*
D48*
%TO.N,BAT-*%
X176488800Y-61536200D02*
X178500000Y-59525000D01*
X164431600Y-61536200D02*
X166385600Y-61536200D01*
X163431600Y-60536200D02*
X164431600Y-61536200D01*
X161985600Y-60536200D02*
X163431600Y-60536200D01*
X166385600Y-61536200D02*
X176488800Y-61536200D01*
D49*
%TO.N,VCC*%
X172475200Y-71179200D02*
X172475200Y-75117000D01*
X164414200Y-45034200D02*
X164414200Y-49402600D01*
D46*
X87604600Y-69494400D02*
X94538800Y-69494400D01*
X77237000Y-78038000D02*
X74185000Y-78038000D01*
D49*
X166573200Y-42875200D02*
X164414200Y-45034200D01*
D48*
X187350400Y-64668400D02*
X187477400Y-64668400D01*
D49*
X175742600Y-78384400D02*
X186258200Y-78384400D01*
D46*
X85293200Y-41351200D02*
X85293200Y-67183000D01*
D48*
X166385600Y-62036200D02*
X184718200Y-62036200D01*
D46*
X71129200Y-38675000D02*
X73400000Y-38675000D01*
X69650000Y-40154200D02*
X71129200Y-38675000D01*
X82617000Y-38675000D02*
X85293200Y-41351200D01*
X87604600Y-69494400D02*
X85780600Y-69494400D01*
X77237000Y-78038000D02*
X88488000Y-78038000D01*
X69650000Y-43400000D02*
X69650000Y-40154200D01*
D48*
X184718200Y-62036200D02*
X187350400Y-64668400D01*
D49*
X186258200Y-78384400D02*
X187477400Y-77165200D01*
X187477400Y-44932600D02*
X185420000Y-42875200D01*
D46*
X85293200Y-67183000D02*
X87604600Y-69494400D01*
D49*
X187477400Y-64668400D02*
X187477400Y-44932600D01*
X185420000Y-42875200D02*
X166573200Y-42875200D01*
D46*
X73400000Y-38675000D02*
X82617000Y-38675000D01*
X85780600Y-69494400D02*
X77237000Y-78038000D01*
D49*
X187477400Y-77165200D02*
X187477400Y-64668400D01*
X172475200Y-75117000D02*
X175742600Y-78384400D01*
D46*
%TO.N,Net-(Q1-S)*%
X156413200Y-89230200D02*
X158410500Y-91227500D01*
X151905000Y-82207400D02*
X156413200Y-86715600D01*
X156415000Y-68735000D02*
X159355000Y-68735000D01*
X151905000Y-80530000D02*
X151905000Y-82207400D01*
X156413200Y-86715600D02*
X156413200Y-89230200D01*
X151905000Y-80530000D02*
X151905000Y-73245000D01*
X151905000Y-73245000D02*
X156415000Y-68735000D01*
X158410500Y-91227500D02*
X161772600Y-91227500D01*
%TO.N,Net-(Q1-G)*%
X150635000Y-85470000D02*
X150635000Y-87617000D01*
D50*
X159355000Y-73815000D02*
X159355000Y-84570000D01*
D46*
X150635000Y-87617000D02*
X147955000Y-90297000D01*
D50*
X159355000Y-84570000D02*
X158700000Y-85225000D01*
D46*
%TO.N,VIN+*%
X160860400Y-65235400D02*
X162875000Y-67250000D01*
D48*
X168198800Y-61036200D02*
X168487600Y-60747400D01*
X170307000Y-59537600D02*
X168986200Y-59537600D01*
D46*
X150635000Y-72690000D02*
X158089600Y-65235400D01*
X144068800Y-77038200D02*
X149580600Y-77038200D01*
X142500000Y-78619000D02*
X142500000Y-80500000D01*
X162875000Y-67250000D02*
X162875000Y-70450000D01*
X158089600Y-65235400D02*
X158089600Y-60401200D01*
X158089600Y-65235400D02*
X160860400Y-65235400D01*
X150635000Y-78092600D02*
X150635000Y-80530000D01*
X142494000Y-78613000D02*
X142500000Y-78619000D01*
X176000000Y-59525000D02*
X170319600Y-59525000D01*
X158089600Y-60401200D02*
X157673900Y-59985500D01*
D48*
X168487600Y-60747400D02*
X168487600Y-60036200D01*
X166385600Y-61036200D02*
X168198800Y-61036200D01*
D46*
X142494000Y-78613000D02*
X144068800Y-77038200D01*
D48*
X166385600Y-60036200D02*
X168487600Y-60036200D01*
D46*
X150635000Y-78092600D02*
X150635000Y-72690000D01*
X162050000Y-71275000D02*
X159355000Y-71275000D01*
D48*
X168986200Y-59537600D02*
X168487600Y-60036200D01*
D46*
X162875000Y-70450000D02*
X162050000Y-71275000D01*
X157673900Y-59985500D02*
X154406600Y-59985500D01*
X149580600Y-77038200D02*
X150635000Y-78092600D01*
D49*
%TO.N,Net-(Q2-D)*%
X162114200Y-51522600D02*
X163017200Y-52425600D01*
X163017200Y-52425600D02*
X173685200Y-52425600D01*
X173685200Y-52425600D02*
X173685800Y-52425000D01*
X173685800Y-52425000D02*
X176469888Y-52425000D01*
X162114200Y-49402600D02*
X162114200Y-51522600D01*
D47*
%TO.N,BAT+*%
X124175000Y-88270000D02*
X125750000Y-86695000D01*
X125950000Y-97000000D02*
X124175000Y-95225000D01*
D48*
X165057200Y-60536200D02*
X164719000Y-60198000D01*
D49*
X154406600Y-53441600D02*
X154406600Y-47800700D01*
D48*
X164719000Y-60198000D02*
X163042600Y-58521600D01*
D47*
X135400000Y-83000000D02*
X135440000Y-82960000D01*
X135440000Y-82960000D02*
X135440000Y-64055000D01*
X129250000Y-98475000D02*
X129250000Y-89150000D01*
D46*
X154406600Y-54060500D02*
X137264500Y-54060500D01*
D47*
X124175000Y-95225000D02*
X124175000Y-88270000D01*
D49*
X154406600Y-47800700D02*
X154488200Y-47719100D01*
D47*
X121962200Y-99950000D02*
X125950000Y-99950000D01*
X135400000Y-83000000D02*
X142500000Y-83000000D01*
X127775000Y-99950000D02*
X129250000Y-98475000D01*
X125750000Y-86695000D02*
X125750000Y-84295000D01*
D48*
X166385600Y-60536200D02*
X165057200Y-60536200D01*
X163042600Y-58521600D02*
X162407600Y-58521600D01*
D46*
X137264500Y-54060500D02*
X135440000Y-55885000D01*
X161391600Y-58039000D02*
X157413100Y-54060500D01*
D49*
X154406600Y-54060500D02*
X154406600Y-53441600D01*
D46*
X135440000Y-55885000D02*
X135440000Y-64055000D01*
X157413100Y-54060500D02*
X154406600Y-54060500D01*
D47*
X125950000Y-99950000D02*
X125950000Y-97000000D01*
X129250000Y-89150000D02*
X135400000Y-83000000D01*
X125950000Y-99950000D02*
X127775000Y-99950000D01*
D51*
X161874200Y-58521600D02*
X161391600Y-58039000D01*
X162407600Y-58521600D02*
X161874200Y-58521600D01*
D46*
%TO.N,SDA*%
X179975200Y-67656400D02*
X179975200Y-71179200D01*
X71424800Y-91592400D02*
X79400400Y-91592400D01*
X77901800Y-47726600D02*
X77901800Y-56642000D01*
D48*
X161985600Y-61536200D02*
X163288600Y-61536200D01*
D46*
X77901800Y-56642000D02*
X69951600Y-64592200D01*
X176463400Y-64144600D02*
X179975200Y-67656400D01*
D48*
X170449800Y-64144600D02*
X165897000Y-64144600D01*
D46*
X69951600Y-90119200D02*
X71424800Y-91592400D01*
X170449800Y-64144600D02*
X176463400Y-64144600D01*
X79400400Y-91592400D02*
X86704800Y-84288000D01*
X69951600Y-64592200D02*
X69951600Y-90119200D01*
X76470200Y-46295000D02*
X77901800Y-47726600D01*
D48*
X165897000Y-64144600D02*
X163288600Y-61536200D01*
D46*
X86704800Y-84288000D02*
X88488000Y-84288000D01*
X73400000Y-46295000D02*
X76470200Y-46295000D01*
D48*
%TO.N,SCL*%
X163779200Y-62788800D02*
X165862000Y-64871600D01*
X161985600Y-62036200D02*
X163026600Y-62036200D01*
D46*
X72288400Y-90398600D02*
X70967600Y-89077800D01*
D48*
X165862000Y-64871600D02*
X167106600Y-64871600D01*
D46*
X79654400Y-56819800D02*
X79654400Y-47574200D01*
X177475200Y-71179200D02*
X177475200Y-67594800D01*
D48*
X163026600Y-62036200D02*
X163779200Y-62788800D01*
D46*
X177475200Y-67594800D02*
X174752000Y-64871600D01*
D48*
X167106600Y-64871600D02*
X172466000Y-64871600D01*
D46*
X75835200Y-43755000D02*
X73400000Y-43755000D01*
X70967600Y-65506600D02*
X79654400Y-56819800D01*
X174752000Y-64871600D02*
X172466000Y-64871600D01*
X79654400Y-47574200D02*
X75835200Y-43755000D01*
X86075200Y-83038000D02*
X78714600Y-90398600D01*
X70967600Y-89077800D02*
X70967600Y-65506600D01*
X78714600Y-90398600D02*
X72288400Y-90398600D01*
X88488000Y-83038000D02*
X86075200Y-83038000D01*
D47*
%TO.N,Net-(Q2-G)*%
X130360000Y-76725000D02*
X130360000Y-64055000D01*
X130360000Y-85380000D02*
X130360000Y-76725000D01*
X125750000Y-76675000D02*
X130310000Y-76675000D01*
X130310000Y-76675000D02*
X130360000Y-76725000D01*
X125950000Y-89790000D02*
X130360000Y-85380000D01*
D46*
%TO.N,Net-(U6-TS)*%
X132875000Y-93475000D02*
X135450000Y-96050000D01*
X145364200Y-82016600D02*
X145364200Y-84985800D01*
X132875000Y-88650000D02*
X132875000Y-93475000D01*
X135450000Y-96050000D02*
X135450000Y-101180000D01*
X145364200Y-84985800D02*
X144325000Y-86025000D01*
X148095000Y-80530000D02*
X146850800Y-80530000D01*
X135500000Y-86025000D02*
X132875000Y-88650000D01*
D47*
X135450000Y-101180000D02*
X138450000Y-101180000D01*
D46*
X146850800Y-80530000D02*
X145364200Y-82016600D01*
X144325000Y-86025000D02*
X135500000Y-86025000D01*
D47*
%TO.N,Net-(U2-SET1)*%
X122350000Y-72175000D02*
X126480000Y-72175000D01*
X117985400Y-99950800D02*
X114200000Y-96165400D01*
X116550000Y-79375000D02*
X119250000Y-79375000D01*
X120670000Y-76675000D02*
X120670000Y-73855000D01*
X114200000Y-96165400D02*
X114200000Y-81725000D01*
X114200000Y-81725000D02*
X116550000Y-79375000D01*
X120670000Y-77955000D02*
X120670000Y-76675000D01*
X120670000Y-73855000D02*
X122350000Y-72175000D01*
X119250000Y-79375000D02*
X120670000Y-77955000D01*
%TO.N,Net-(U2-HYST1)*%
X117490800Y-89790800D02*
X116075000Y-88375000D01*
X117525000Y-81275000D02*
X120075000Y-81275000D01*
X116075000Y-88375000D02*
X116075000Y-82725000D01*
X116075000Y-82725000D02*
X117525000Y-81275000D01*
X121962200Y-89790000D02*
X117986200Y-89790000D01*
X117985400Y-89790800D02*
X117490800Y-89790800D01*
X120075000Y-81275000D02*
X123210000Y-78140000D01*
X121956400Y-89795800D02*
X121962200Y-89790000D01*
X117986200Y-89790000D02*
X117985400Y-89790800D01*
X123210000Y-78140000D02*
X123210000Y-76675000D01*
%TO.N,RFIO*%
X99593400Y-106172000D02*
X102336600Y-103428800D01*
X106095800Y-99669600D02*
X106095800Y-87452200D01*
D46*
X100488000Y-85538000D02*
X105324600Y-85538000D01*
X106095800Y-86309200D02*
X106095800Y-87452200D01*
D47*
X102336600Y-103428800D02*
X106095800Y-99669600D01*
D46*
X105324600Y-85538000D02*
X106095800Y-86309200D01*
D47*
X89408000Y-106172000D02*
X99593400Y-106172000D01*
D46*
%TO.N,Net-(J2-Pin_5)*%
X71720400Y-48835000D02*
X69650000Y-46764600D01*
X69650000Y-46764600D02*
X69650000Y-44700000D01*
X73400000Y-48835000D02*
X71720400Y-48835000D01*
D49*
%TO.N,VD*%
X171247800Y-83287600D02*
X173000000Y-85039800D01*
X168376600Y-83287600D02*
X171247800Y-83287600D01*
X173000000Y-85039800D02*
X173000000Y-87000000D01*
D50*
%TO.N,SWCLK*%
X88488000Y-81788000D02*
X79273400Y-81788000D01*
X79273400Y-81788000D02*
X78023400Y-83038000D01*
X78023400Y-83038000D02*
X74185000Y-83038000D01*
%TO.N,SWDIO*%
X88488000Y-80538000D02*
X74185000Y-80538000D01*
D46*
%TO.N,RST*%
X106705400Y-82589200D02*
X102729200Y-82589200D01*
X102280400Y-83038000D02*
X100488000Y-83038000D01*
X102729200Y-82589200D02*
X102280400Y-83038000D01*
%TD*%
%TA.AperFunction,Conductor*%
%TO.N,BAT-*%
G36*
X184481828Y-62664385D02*
G01*
X184502470Y-62681019D01*
X186432581Y-64611130D01*
X186466066Y-64672453D01*
X186468900Y-64698811D01*
X186468900Y-76696104D01*
X186449215Y-76763143D01*
X186432581Y-76783785D01*
X185876785Y-77339581D01*
X185815462Y-77373066D01*
X185789104Y-77375900D01*
X176211696Y-77375900D01*
X176144657Y-77356215D01*
X176124015Y-77339581D01*
X173520019Y-74735585D01*
X173486534Y-74674262D01*
X173483700Y-74647904D01*
X173483700Y-72612622D01*
X173503385Y-72545583D01*
X173542607Y-72507081D01*
X173548852Y-72503230D01*
X173674230Y-72377852D01*
X173767315Y-72226938D01*
X173767316Y-72226933D01*
X173769462Y-72223455D01*
X173821410Y-72176730D01*
X173890372Y-72165507D01*
X173954454Y-72193350D01*
X173962682Y-72200870D01*
X174095735Y-72333923D01*
X174095740Y-72333927D01*
X174267642Y-72458820D01*
X174456982Y-72555295D01*
X174659071Y-72620957D01*
X174725200Y-72631431D01*
X174725200Y-71583345D01*
X174791857Y-71621830D01*
X174912665Y-71654200D01*
X175037735Y-71654200D01*
X175158543Y-71621830D01*
X175225200Y-71583345D01*
X175225200Y-72631430D01*
X175291326Y-72620957D01*
X175291329Y-72620957D01*
X175493417Y-72555295D01*
X175682757Y-72458820D01*
X175854659Y-72333927D01*
X175854664Y-72333923D01*
X176004923Y-72183664D01*
X176004927Y-72183659D01*
X176119628Y-72025787D01*
X176174957Y-71983121D01*
X176244571Y-71977142D01*
X176306366Y-72009747D01*
X176320264Y-72025786D01*
X176438994Y-72189204D01*
X176590196Y-72340406D01*
X176763191Y-72466094D01*
X176856638Y-72513707D01*
X176953716Y-72563172D01*
X176953719Y-72563173D01*
X176968305Y-72567912D01*
X177157084Y-72629249D01*
X177368284Y-72662700D01*
X177368285Y-72662700D01*
X177582115Y-72662700D01*
X177582116Y-72662700D01*
X177793316Y-72629249D01*
X177996683Y-72563172D01*
X178187209Y-72466094D01*
X178360204Y-72340406D01*
X178511406Y-72189204D01*
X178606276Y-72058627D01*
X178624882Y-72033018D01*
X178680212Y-71990352D01*
X178749825Y-71984373D01*
X178811620Y-72016979D01*
X178825518Y-72033018D01*
X178928673Y-72174999D01*
X178938994Y-72189204D01*
X179090196Y-72340406D01*
X179263191Y-72466094D01*
X179356638Y-72513707D01*
X179453716Y-72563172D01*
X179453719Y-72563173D01*
X179468305Y-72567912D01*
X179657084Y-72629249D01*
X179868284Y-72662700D01*
X179868285Y-72662700D01*
X180082115Y-72662700D01*
X180082116Y-72662700D01*
X180293316Y-72629249D01*
X180496683Y-72563172D01*
X180687209Y-72466094D01*
X180860204Y-72340406D01*
X181011406Y-72189204D01*
X181137094Y-72016209D01*
X181234172Y-71825683D01*
X181300249Y-71622316D01*
X181333700Y-71411116D01*
X181333700Y-70947284D01*
X181300249Y-70736084D01*
X181236735Y-70540604D01*
X181234173Y-70532719D01*
X181234172Y-70532716D01*
X181168412Y-70403656D01*
X181137094Y-70342191D01*
X181011406Y-70169196D01*
X180860204Y-70017994D01*
X180842319Y-70005000D01*
X180834813Y-69999546D01*
X180792148Y-69944215D01*
X180783700Y-69899229D01*
X180783700Y-67576769D01*
X180783699Y-67576765D01*
X180771446Y-67515166D01*
X180752630Y-67420569D01*
X180722156Y-67347000D01*
X180722156Y-67346999D01*
X180722156Y-67346998D01*
X180691687Y-67273439D01*
X180691686Y-67273438D01*
X180691684Y-67273432D01*
X180650524Y-67211832D01*
X180603203Y-67141010D01*
X176978789Y-63516596D01*
X176846373Y-63428119D01*
X176846370Y-63428117D01*
X176846368Y-63428116D01*
X176771970Y-63397300D01*
X176699231Y-63367170D01*
X176699223Y-63367168D01*
X176543034Y-63336100D01*
X176543030Y-63336100D01*
X170370170Y-63336100D01*
X170370165Y-63336100D01*
X170213976Y-63367168D01*
X170213968Y-63367170D01*
X170066830Y-63428117D01*
X170066829Y-63428117D01*
X169936498Y-63515202D01*
X169869821Y-63536080D01*
X169867608Y-63536100D01*
X166200411Y-63536100D01*
X166133372Y-63516415D01*
X166112730Y-63499781D01*
X165506864Y-62893915D01*
X165473379Y-62832592D01*
X165478363Y-62762900D01*
X165520235Y-62706967D01*
X165585699Y-62682550D01*
X165610725Y-62683294D01*
X165697356Y-62694700D01*
X165697363Y-62694700D01*
X167073837Y-62694700D01*
X167073844Y-62694700D01*
X167187924Y-62679681D01*
X167229731Y-62662363D01*
X167249589Y-62654139D01*
X167297041Y-62644700D01*
X184414789Y-62644700D01*
X184481828Y-62664385D01*
G37*
%TD.AperFunction*%
%TA.AperFunction,Conductor*%
G36*
X72667427Y-77237207D02*
G01*
X72703080Y-77297295D01*
X72706290Y-77340564D01*
X72701500Y-77387445D01*
X72701500Y-78688537D01*
X72701501Y-78688553D01*
X72712113Y-78792427D01*
X72767884Y-78960735D01*
X72767886Y-78960740D01*
X72785249Y-78988889D01*
X72860970Y-79111652D01*
X72986348Y-79237030D01*
X73133310Y-79327677D01*
X73180033Y-79379624D01*
X73191256Y-79448587D01*
X73163412Y-79512669D01*
X73155894Y-79520896D01*
X73023793Y-79652997D01*
X72898106Y-79825990D01*
X72801027Y-80016516D01*
X72801026Y-80016519D01*
X72734951Y-80219882D01*
X72701500Y-80431084D01*
X72701500Y-80644915D01*
X72734951Y-80856117D01*
X72801026Y-81059480D01*
X72801027Y-81059483D01*
X72892681Y-81239362D01*
X72898106Y-81250009D01*
X73023794Y-81423004D01*
X73174996Y-81574206D01*
X73270801Y-81643812D01*
X73331182Y-81687682D01*
X73373847Y-81743012D01*
X73379826Y-81812626D01*
X73347220Y-81874421D01*
X73331182Y-81888318D01*
X73264226Y-81936965D01*
X73174996Y-82001794D01*
X73174994Y-82001796D01*
X73174993Y-82001796D01*
X73023796Y-82152993D01*
X72898106Y-82325990D01*
X72801027Y-82516516D01*
X72801026Y-82516519D01*
X72734951Y-82719882D01*
X72701500Y-82931084D01*
X72701500Y-83144915D01*
X72734951Y-83356117D01*
X72801026Y-83559480D01*
X72801027Y-83559483D01*
X72873879Y-83702461D01*
X72898106Y-83750009D01*
X73023794Y-83923004D01*
X73174996Y-84074206D01*
X73174999Y-84074208D01*
X73338412Y-84192935D01*
X73381078Y-84248265D01*
X73387057Y-84317878D01*
X73354451Y-84379673D01*
X73338413Y-84393571D01*
X73180535Y-84508276D01*
X73030276Y-84658535D01*
X73030272Y-84658540D01*
X72905379Y-84830442D01*
X72808904Y-85019782D01*
X72743242Y-85221870D01*
X72743242Y-85221873D01*
X72732769Y-85288000D01*
X73780854Y-85288000D01*
X73742370Y-85354657D01*
X73710000Y-85475465D01*
X73710000Y-85600535D01*
X73742370Y-85721343D01*
X73780854Y-85788000D01*
X72732769Y-85788000D01*
X72743242Y-85854126D01*
X72743242Y-85854129D01*
X72808904Y-86056217D01*
X72905379Y-86245557D01*
X73030272Y-86417459D01*
X73030276Y-86417464D01*
X73180535Y-86567723D01*
X73180540Y-86567727D01*
X73352442Y-86692620D01*
X73541782Y-86789095D01*
X73743872Y-86854757D01*
X73935000Y-86885029D01*
X73935000Y-85942145D01*
X74001657Y-85980630D01*
X74122465Y-86013000D01*
X74247535Y-86013000D01*
X74368343Y-85980630D01*
X74435000Y-85942145D01*
X74435000Y-86885028D01*
X74626127Y-86854757D01*
X74828217Y-86789095D01*
X75017557Y-86692620D01*
X75189459Y-86567727D01*
X75189464Y-86567723D01*
X75339723Y-86417464D01*
X75339727Y-86417459D01*
X75464620Y-86245557D01*
X75561095Y-86056217D01*
X75626757Y-85854129D01*
X75626757Y-85854126D01*
X75637231Y-85788000D01*
X74589146Y-85788000D01*
X74627630Y-85721343D01*
X74660000Y-85600535D01*
X74660000Y-85475465D01*
X74627630Y-85354657D01*
X74589146Y-85288000D01*
X75637231Y-85288000D01*
X75626757Y-85221873D01*
X75626757Y-85221870D01*
X75561095Y-85019782D01*
X75464620Y-84830442D01*
X75339727Y-84658540D01*
X75339723Y-84658535D01*
X75189464Y-84508276D01*
X75189459Y-84508272D01*
X75031587Y-84393571D01*
X74988921Y-84338241D01*
X74982942Y-84268628D01*
X75015548Y-84206833D01*
X75031587Y-84192935D01*
X75195004Y-84074206D01*
X75286391Y-83982819D01*
X75347714Y-83949334D01*
X75374072Y-83946500D01*
X78112880Y-83946500D01*
X78112881Y-83946499D01*
X78171386Y-83934862D01*
X78288392Y-83911589D01*
X78288395Y-83911587D01*
X78288400Y-83911587D01*
X78453736Y-83843103D01*
X78602535Y-83743678D01*
X79613394Y-82732819D01*
X79674717Y-82699334D01*
X79701075Y-82696500D01*
X84973946Y-82696500D01*
X85040985Y-82716185D01*
X85086740Y-82768989D01*
X85096684Y-82838147D01*
X85067659Y-82901703D01*
X85061627Y-82908181D01*
X78416027Y-89553781D01*
X78354704Y-89587266D01*
X78328346Y-89590100D01*
X72674654Y-89590100D01*
X72607615Y-89570415D01*
X72586973Y-89553781D01*
X71812419Y-88779227D01*
X71778934Y-88717904D01*
X71776100Y-88691546D01*
X71776100Y-77374226D01*
X71795785Y-77307187D01*
X71848589Y-77261432D01*
X71917747Y-77251488D01*
X71936114Y-77255571D01*
X71936909Y-77255812D01*
X71936918Y-77255816D01*
X71936927Y-77255817D01*
X71936931Y-77255819D01*
X72101228Y-77288499D01*
X72101232Y-77288500D01*
X72101233Y-77288500D01*
X72268768Y-77288500D01*
X72268769Y-77288499D01*
X72433082Y-77255816D01*
X72535480Y-77213400D01*
X72604948Y-77205932D01*
X72667427Y-77237207D01*
G37*
%TD.AperFunction*%
%TA.AperFunction,Conductor*%
G36*
X82297785Y-39503185D02*
G01*
X82318427Y-39519819D01*
X84448381Y-41649773D01*
X84481866Y-41711096D01*
X84484700Y-41737454D01*
X84484700Y-67262634D01*
X84515768Y-67418823D01*
X84515770Y-67418831D01*
X84543361Y-67485441D01*
X84576712Y-67565960D01*
X84576719Y-67565973D01*
X84665196Y-67698389D01*
X84665199Y-67698392D01*
X85511838Y-68545030D01*
X85527490Y-68573694D01*
X85544230Y-68601752D01*
X85544148Y-68604202D01*
X85545323Y-68606353D01*
X85542993Y-68638929D01*
X85541907Y-68671583D01*
X85540513Y-68673600D01*
X85540339Y-68676044D01*
X85520768Y-68702186D01*
X85502198Y-68729073D01*
X85499385Y-68730750D01*
X85498467Y-68731978D01*
X85471889Y-68747156D01*
X85471479Y-68747327D01*
X85471200Y-68747443D01*
X85397634Y-68777914D01*
X85397625Y-68777919D01*
X85265211Y-68866396D01*
X85265207Y-68866399D01*
X76938427Y-77193181D01*
X76877104Y-77226666D01*
X76850746Y-77229500D01*
X75729510Y-77229500D01*
X75662471Y-77209815D01*
X75616716Y-77157011D01*
X75611804Y-77144503D01*
X75602116Y-77115266D01*
X75602115Y-77115262D01*
X75509030Y-76964348D01*
X75383652Y-76838970D01*
X75260718Y-76763143D01*
X75232740Y-76745886D01*
X75232735Y-76745884D01*
X75064427Y-76690113D01*
X74960545Y-76679500D01*
X73409462Y-76679500D01*
X73409446Y-76679501D01*
X73305572Y-76690113D01*
X73215626Y-76719917D01*
X73182765Y-76730807D01*
X73112937Y-76733209D01*
X73052896Y-76697477D01*
X73021703Y-76634956D01*
X73022145Y-76588910D01*
X73035499Y-76521771D01*
X73035500Y-76521768D01*
X73035500Y-76354232D01*
X73035499Y-76354228D01*
X73019039Y-76271479D01*
X73002816Y-76189918D01*
X72938703Y-76035137D01*
X72894239Y-75968592D01*
X72845626Y-75895837D01*
X72727162Y-75777373D01*
X72587860Y-75684295D01*
X72433082Y-75620184D01*
X72433074Y-75620182D01*
X72268771Y-75587500D01*
X72268767Y-75587500D01*
X72101233Y-75587500D01*
X72101228Y-75587500D01*
X71936924Y-75620182D01*
X71936098Y-75620433D01*
X71935643Y-75620437D01*
X71930943Y-75621372D01*
X71930765Y-75620480D01*
X71866231Y-75621058D01*
X71807117Y-75583811D01*
X71777525Y-75520517D01*
X71776100Y-75501773D01*
X71776100Y-65892852D01*
X71795785Y-65825813D01*
X71812414Y-65805176D01*
X80169786Y-57447804D01*
X80169789Y-57447803D01*
X80282403Y-57335189D01*
X80365316Y-57211100D01*
X80370883Y-57202769D01*
X80391295Y-57153489D01*
X80431830Y-57055631D01*
X80462900Y-56899430D01*
X80462900Y-47494570D01*
X80431830Y-47338369D01*
X80370883Y-47191232D01*
X80370883Y-47191231D01*
X80335442Y-47138191D01*
X80282403Y-47058811D01*
X80282401Y-47058808D01*
X80165470Y-46941877D01*
X80165447Y-46941856D01*
X76350592Y-43126999D01*
X76350589Y-43126996D01*
X76218173Y-43038519D01*
X76218161Y-43038512D01*
X76141264Y-43006662D01*
X76071031Y-42977570D01*
X76071023Y-42977568D01*
X75914834Y-42946500D01*
X75914830Y-42946500D01*
X74554971Y-42946500D01*
X74487932Y-42926815D01*
X74454653Y-42895385D01*
X74436211Y-42870001D01*
X74285006Y-42718796D01*
X74285004Y-42718794D01*
X74112009Y-42593106D01*
X74112010Y-42593106D01*
X74112008Y-42593105D01*
X74107311Y-42590712D01*
X74056517Y-42542735D01*
X74039724Y-42474914D01*
X74062264Y-42408780D01*
X74103790Y-42372801D01*
X74103402Y-42372168D01*
X74107229Y-42369822D01*
X74107327Y-42369738D01*
X74107560Y-42369619D01*
X74279459Y-42244727D01*
X74279464Y-42244723D01*
X74429723Y-42094464D01*
X74429727Y-42094459D01*
X74554620Y-41922557D01*
X74651095Y-41733217D01*
X74716757Y-41531129D01*
X74716757Y-41531126D01*
X74727231Y-41465000D01*
X73833012Y-41465000D01*
X73865925Y-41407993D01*
X73900000Y-41280826D01*
X73900000Y-41149174D01*
X73865925Y-41022007D01*
X73833012Y-40965000D01*
X74727231Y-40965000D01*
X74716757Y-40898873D01*
X74716757Y-40898870D01*
X74651095Y-40696782D01*
X74554620Y-40507442D01*
X74429727Y-40335540D01*
X74429723Y-40335535D01*
X74322272Y-40228084D01*
X74288787Y-40166761D01*
X74293771Y-40097069D01*
X74335643Y-40041136D01*
X74366612Y-40024224D01*
X74496204Y-39975889D01*
X74613261Y-39888261D01*
X74700889Y-39771204D01*
X74751989Y-39634201D01*
X74756285Y-39594245D01*
X74783023Y-39529694D01*
X74840415Y-39489845D01*
X74879574Y-39483500D01*
X82230746Y-39483500D01*
X82297785Y-39503185D01*
G37*
%TD.AperFunction*%
%TA.AperFunction,Conductor*%
G36*
X71922627Y-39484146D02*
G01*
X71924851Y-39483579D01*
X71955985Y-39493941D01*
X71987465Y-39503185D01*
X71988967Y-39504918D01*
X71991146Y-39505644D01*
X72011744Y-39531204D01*
X72033220Y-39555989D01*
X72033995Y-39558817D01*
X72034987Y-39560047D01*
X72043715Y-39594245D01*
X72048010Y-39634201D01*
X72048011Y-39634204D01*
X72099111Y-39771204D01*
X72186739Y-39888261D01*
X72303796Y-39975889D01*
X72433382Y-40024222D01*
X72489313Y-40066093D01*
X72513730Y-40131557D01*
X72498878Y-40199830D01*
X72477728Y-40228084D01*
X72370271Y-40335541D01*
X72245379Y-40507442D01*
X72148904Y-40696782D01*
X72083242Y-40898870D01*
X72083242Y-40898873D01*
X72072769Y-40965000D01*
X72966988Y-40965000D01*
X72934075Y-41022007D01*
X72900000Y-41149174D01*
X72900000Y-41280826D01*
X72934075Y-41407993D01*
X72966988Y-41465000D01*
X72072769Y-41465000D01*
X72083242Y-41531126D01*
X72083242Y-41531129D01*
X72148904Y-41733217D01*
X72245379Y-41922557D01*
X72370272Y-42094459D01*
X72370276Y-42094464D01*
X72520535Y-42244723D01*
X72520540Y-42244727D01*
X72692441Y-42369620D01*
X72692682Y-42369743D01*
X72692758Y-42369815D01*
X72696598Y-42372168D01*
X72696103Y-42372974D01*
X72743479Y-42417716D01*
X72760275Y-42485537D01*
X72737739Y-42551672D01*
X72692693Y-42590709D01*
X72687994Y-42593103D01*
X72514993Y-42718796D01*
X72363796Y-42869993D01*
X72238106Y-43042990D01*
X72141027Y-43233516D01*
X72141026Y-43233519D01*
X72074951Y-43436882D01*
X72074951Y-43436884D01*
X72041500Y-43648084D01*
X72041500Y-43861916D01*
X72047532Y-43899998D01*
X72074951Y-44073117D01*
X72141026Y-44276480D01*
X72141027Y-44276483D01*
X72231934Y-44454896D01*
X72238106Y-44467009D01*
X72363794Y-44640004D01*
X72514996Y-44791206D01*
X72572894Y-44833271D01*
X72687991Y-44916894D01*
X72691873Y-44919273D01*
X72738748Y-44971086D01*
X72750169Y-45040016D01*
X72722512Y-45104178D01*
X72691873Y-45130727D01*
X72687991Y-45133105D01*
X72514993Y-45258796D01*
X72363796Y-45409993D01*
X72238106Y-45582990D01*
X72141027Y-45773516D01*
X72141026Y-45773519D01*
X72074951Y-45976882D01*
X72041500Y-46188084D01*
X72041500Y-46401916D01*
X72058225Y-46507516D01*
X72074951Y-46613117D01*
X72141026Y-46816480D01*
X72141027Y-46816483D01*
X72210817Y-46953451D01*
X72238106Y-47007009D01*
X72363794Y-47180004D01*
X72514996Y-47331206D01*
X72626328Y-47412093D01*
X72687991Y-47456894D01*
X72691873Y-47459273D01*
X72738748Y-47511086D01*
X72750169Y-47580016D01*
X72722512Y-47644178D01*
X72691873Y-47670727D01*
X72687991Y-47673105D01*
X72514993Y-47798796D01*
X72363788Y-47950001D01*
X72345347Y-47975385D01*
X72341015Y-47978725D01*
X72338742Y-47983703D01*
X72313642Y-47999833D01*
X72290018Y-48018051D01*
X72283344Y-48019304D01*
X72279964Y-48021477D01*
X72245029Y-48026500D01*
X72106654Y-48026500D01*
X72039615Y-48006815D01*
X72018973Y-47990181D01*
X70494819Y-46466027D01*
X70461334Y-46404704D01*
X70458500Y-46378346D01*
X70458500Y-45609986D01*
X70478185Y-45542947D01*
X70507008Y-45511614D01*
X70570106Y-45463198D01*
X70597919Y-45435385D01*
X70663190Y-45370115D01*
X70663193Y-45370110D01*
X70663198Y-45370106D01*
X70744803Y-45263757D01*
X70810629Y-45149743D01*
X70816115Y-45136500D01*
X70839965Y-45078920D01*
X70861927Y-45025899D01*
X70896002Y-44898732D01*
X70913500Y-44765826D01*
X70913500Y-44200000D01*
X70908273Y-44126921D01*
X70897478Y-44090160D01*
X70893718Y-44037586D01*
X70913500Y-43900000D01*
X70913500Y-43334174D01*
X70896002Y-43201268D01*
X70861927Y-43074101D01*
X70833993Y-43006662D01*
X70810633Y-42950265D01*
X70810625Y-42950249D01*
X70744807Y-42836250D01*
X70744803Y-42836243D01*
X70663198Y-42729894D01*
X70663197Y-42729893D01*
X70663190Y-42729885D01*
X70570113Y-42636808D01*
X70570108Y-42636804D01*
X70570106Y-42636802D01*
X70507011Y-42588387D01*
X70465810Y-42531960D01*
X70458500Y-42490013D01*
X70458500Y-40540454D01*
X70478185Y-40473415D01*
X70494819Y-40452773D01*
X71427773Y-39519819D01*
X71489096Y-39486334D01*
X71515454Y-39483500D01*
X71920426Y-39483500D01*
X71922627Y-39484146D01*
G37*
%TD.AperFunction*%
%TA.AperFunction,Conductor*%
G36*
X191842539Y-32720185D02*
G01*
X191888294Y-32772989D01*
X191899500Y-32824500D01*
X191899500Y-51300207D01*
X191899793Y-51300500D01*
X191900207Y-51300500D01*
X201475214Y-51300500D01*
X201542253Y-51320185D01*
X201588008Y-51372989D01*
X201599214Y-51424783D01*
X201499784Y-94975783D01*
X201479946Y-95042777D01*
X201427038Y-95088412D01*
X201375784Y-95099500D01*
X191899792Y-95099500D01*
X191899500Y-95099792D01*
X191899500Y-113575500D01*
X191879815Y-113642539D01*
X191827011Y-113688294D01*
X191775500Y-113699500D01*
X60424500Y-113699500D01*
X60357461Y-113679815D01*
X60311706Y-113627011D01*
X60300500Y-113575500D01*
X60300500Y-108584110D01*
X85243000Y-108584110D01*
X85243000Y-108839889D01*
X85283013Y-109092523D01*
X85362051Y-109335781D01*
X85362052Y-109335784D01*
X85478175Y-109563686D01*
X85555850Y-109670595D01*
X85555850Y-109670596D01*
X86113884Y-109112561D01*
X86114740Y-109114626D01*
X86207762Y-109253844D01*
X86326156Y-109372238D01*
X86465374Y-109465260D01*
X86467437Y-109466114D01*
X85909402Y-110024148D01*
X86016313Y-110101824D01*
X86244215Y-110217947D01*
X86244218Y-110217948D01*
X86487476Y-110296986D01*
X86740111Y-110337000D01*
X86995889Y-110337000D01*
X87248523Y-110296986D01*
X87491781Y-110217948D01*
X87491784Y-110217947D01*
X87719685Y-110101825D01*
X87826595Y-110024148D01*
X87826596Y-110024148D01*
X87268562Y-109466114D01*
X87270626Y-109465260D01*
X87409844Y-109372238D01*
X87528238Y-109253844D01*
X87621260Y-109114626D01*
X87622114Y-109112562D01*
X88180148Y-109670596D01*
X88180148Y-109670595D01*
X88257825Y-109563685D01*
X88373947Y-109335784D01*
X88373948Y-109335781D01*
X88452986Y-109092523D01*
X88493000Y-108839889D01*
X88493000Y-108584110D01*
X88452986Y-108331476D01*
X88373948Y-108088218D01*
X88373947Y-108088215D01*
X88257824Y-107860313D01*
X88180148Y-107753403D01*
X88180148Y-107753402D01*
X87622114Y-108311436D01*
X87621260Y-108309374D01*
X87528238Y-108170156D01*
X87409844Y-108051762D01*
X87270626Y-107958740D01*
X87268560Y-107957884D01*
X87826596Y-107399850D01*
X87719686Y-107322175D01*
X87491784Y-107206052D01*
X87491781Y-107206051D01*
X87248523Y-107127013D01*
X86995889Y-107087000D01*
X86740111Y-107087000D01*
X86487476Y-107127013D01*
X86244218Y-107206051D01*
X86244215Y-107206052D01*
X86016310Y-107322177D01*
X85909403Y-107399849D01*
X85909402Y-107399850D01*
X86467437Y-107957885D01*
X86465374Y-107958740D01*
X86326156Y-108051762D01*
X86207762Y-108170156D01*
X86114740Y-108309374D01*
X86113885Y-108311437D01*
X85555850Y-107753402D01*
X85555849Y-107753403D01*
X85478177Y-107860310D01*
X85362052Y-108088215D01*
X85362051Y-108088218D01*
X85283013Y-108331476D01*
X85243000Y-108584110D01*
X60300500Y-108584110D01*
X60300500Y-106043435D01*
X87774500Y-106043435D01*
X87774500Y-106300564D01*
X87814721Y-106554512D01*
X87894177Y-106799050D01*
X87974453Y-106956598D01*
X88005495Y-107017522D01*
X88010908Y-107028144D01*
X88135250Y-107199286D01*
X88162036Y-107236154D01*
X88343846Y-107417964D01*
X88551859Y-107569094D01*
X88697837Y-107643473D01*
X88780949Y-107685822D01*
X88780951Y-107685822D01*
X88780954Y-107685824D01*
X88912031Y-107728413D01*
X89025487Y-107765278D01*
X89279436Y-107805500D01*
X89279441Y-107805500D01*
X89536564Y-107805500D01*
X89790512Y-107765278D01*
X89827059Y-107753403D01*
X90035046Y-107685824D01*
X90264141Y-107569094D01*
X90472154Y-107417964D01*
X90573299Y-107316819D01*
X90600226Y-107302115D01*
X90626045Y-107285523D01*
X90632245Y-107284631D01*
X90634622Y-107283334D01*
X90660980Y-107280500D01*
X90864653Y-107280500D01*
X90931692Y-107300185D01*
X90977447Y-107352989D01*
X90984941Y-107395389D01*
X91547437Y-107957885D01*
X91545374Y-107958740D01*
X91406156Y-108051762D01*
X91287762Y-108170156D01*
X91194740Y-108309374D01*
X91193885Y-108311437D01*
X90635850Y-107753402D01*
X90635849Y-107753403D01*
X90558177Y-107860310D01*
X90442052Y-108088215D01*
X90442051Y-108088218D01*
X90363013Y-108331476D01*
X90323000Y-108584110D01*
X90323000Y-108839889D01*
X90363013Y-109092523D01*
X90442051Y-109335781D01*
X90442052Y-109335784D01*
X90558175Y-109563686D01*
X90635850Y-109670595D01*
X90635850Y-109670596D01*
X91193884Y-109112561D01*
X91194740Y-109114626D01*
X91287762Y-109253844D01*
X91406156Y-109372238D01*
X91545374Y-109465260D01*
X91547437Y-109466114D01*
X90989402Y-110024148D01*
X91096313Y-110101824D01*
X91324215Y-110217947D01*
X91324218Y-110217948D01*
X91567476Y-110296986D01*
X91820111Y-110337000D01*
X92075889Y-110337000D01*
X92328523Y-110296986D01*
X92571781Y-110217948D01*
X92571784Y-110217947D01*
X92799685Y-110101825D01*
X92906595Y-110024148D01*
X92906596Y-110024148D01*
X92348562Y-109466114D01*
X92350626Y-109465260D01*
X92489844Y-109372238D01*
X92608238Y-109253844D01*
X92701260Y-109114626D01*
X92702114Y-109112562D01*
X93260148Y-109670596D01*
X93260148Y-109670595D01*
X93337825Y-109563685D01*
X93453947Y-109335784D01*
X93453948Y-109335781D01*
X93532986Y-109092523D01*
X93573000Y-108839889D01*
X93573000Y-108584110D01*
X93532986Y-108331476D01*
X93453948Y-108088218D01*
X93453947Y-108088215D01*
X93337824Y-107860313D01*
X93260148Y-107753403D01*
X93260148Y-107753402D01*
X92702114Y-108311436D01*
X92701260Y-108309374D01*
X92608238Y-108170156D01*
X92489844Y-108051762D01*
X92350626Y-107958740D01*
X92348560Y-107957884D01*
X92911852Y-107394594D01*
X92922093Y-107345850D01*
X92971145Y-107296094D01*
X93031346Y-107280500D01*
X99680640Y-107280500D01*
X99680641Y-107280500D01*
X99852974Y-107253205D01*
X100018917Y-107199288D01*
X100018918Y-107199287D01*
X100018922Y-107199286D01*
X100100934Y-107157497D01*
X100174381Y-107120074D01*
X100315539Y-107017517D01*
X103182117Y-104150939D01*
X106941317Y-100391739D01*
X107043874Y-100250581D01*
X107081297Y-100177134D01*
X107123086Y-100095122D01*
X107123090Y-100095111D01*
X107177004Y-99929177D01*
X107177003Y-99929177D01*
X107177005Y-99929174D01*
X107204300Y-99756841D01*
X107204300Y-99582358D01*
X107204300Y-87364959D01*
X107177005Y-87192626D01*
X107138948Y-87075496D01*
X107123089Y-87026686D01*
X107123088Y-87026683D01*
X107053283Y-86889686D01*
X107043874Y-86871219D01*
X107016469Y-86833499D01*
X106941322Y-86730067D01*
X106941318Y-86730062D01*
X106940619Y-86729363D01*
X106940438Y-86729032D01*
X106938160Y-86726365D01*
X106938720Y-86725886D01*
X106907134Y-86668040D01*
X106904300Y-86641682D01*
X106904300Y-86229569D01*
X106904299Y-86229565D01*
X106895854Y-86187111D01*
X106873230Y-86073369D01*
X106826677Y-85960981D01*
X106812283Y-85926231D01*
X106761002Y-85849484D01*
X106723803Y-85793811D01*
X106723801Y-85793808D01*
X106606870Y-85676877D01*
X106606847Y-85676856D01*
X105839992Y-84909999D01*
X105839988Y-84909996D01*
X105707574Y-84821519D01*
X105707570Y-84821517D01*
X105707568Y-84821516D01*
X105633999Y-84791043D01*
X105633997Y-84791042D01*
X105633996Y-84791041D01*
X105560431Y-84760570D01*
X105560423Y-84760568D01*
X105404234Y-84729500D01*
X105404230Y-84729500D01*
X102262000Y-84729500D01*
X102194961Y-84709815D01*
X102149206Y-84657011D01*
X102138000Y-84605500D01*
X102138000Y-84538000D01*
X101770068Y-84538000D01*
X101754976Y-84536240D01*
X101754912Y-84536840D01*
X101686654Y-84529500D01*
X101686638Y-84529500D01*
X99289362Y-84529500D01*
X99289345Y-84529500D01*
X99221088Y-84536840D01*
X99221023Y-84536240D01*
X99205932Y-84538000D01*
X98838000Y-84538000D01*
X98838000Y-84835833D01*
X98842181Y-84874725D01*
X98836384Y-84920914D01*
X98837795Y-84921248D01*
X98836010Y-84928799D01*
X98829500Y-84989345D01*
X98829500Y-86014000D01*
X98809815Y-86081039D01*
X98757011Y-86126794D01*
X98705500Y-86138000D01*
X98488000Y-86138000D01*
X98488000Y-87538000D01*
X99238000Y-87538000D01*
X99238000Y-86670500D01*
X99257685Y-86603461D01*
X99310489Y-86557706D01*
X99362000Y-86546500D01*
X101686638Y-86546500D01*
X101686654Y-86546499D01*
X101713692Y-86543591D01*
X101747201Y-86539989D01*
X101884204Y-86488889D01*
X102001261Y-86401261D01*
X102005057Y-86396189D01*
X102060990Y-86354318D01*
X102104324Y-86346500D01*
X104938346Y-86346500D01*
X105005385Y-86366185D01*
X105026027Y-86382819D01*
X105138320Y-86495112D01*
X105227149Y-86583940D01*
X105260634Y-86645263D01*
X105255650Y-86714954D01*
X105239787Y-86744506D01*
X105147725Y-86871219D01*
X105068511Y-87026683D01*
X105068510Y-87026686D01*
X105014595Y-87192624D01*
X104987300Y-87364959D01*
X104987300Y-99159082D01*
X104967615Y-99226121D01*
X104950981Y-99246763D01*
X99170563Y-105027181D01*
X99109240Y-105060666D01*
X99082882Y-105063500D01*
X93031346Y-105063500D01*
X92964307Y-105043815D01*
X92918552Y-104991011D01*
X92911057Y-104948609D01*
X92348562Y-104386114D01*
X92350626Y-104385260D01*
X92489844Y-104292238D01*
X92608238Y-104173844D01*
X92701260Y-104034626D01*
X92702114Y-104032562D01*
X93260148Y-104590596D01*
X93260148Y-104590595D01*
X93337825Y-104483685D01*
X93453947Y-104255784D01*
X93453948Y-104255781D01*
X93532986Y-104012523D01*
X93573000Y-103759889D01*
X93573000Y-103504110D01*
X93532986Y-103251476D01*
X93453948Y-103008218D01*
X93453947Y-103008215D01*
X93337824Y-102780313D01*
X93260148Y-102673403D01*
X93260148Y-102673402D01*
X92702114Y-103231436D01*
X92701260Y-103229374D01*
X92608238Y-103090156D01*
X92489844Y-102971762D01*
X92350626Y-102878740D01*
X92348560Y-102877884D01*
X92906596Y-102319850D01*
X92799686Y-102242175D01*
X92571784Y-102126052D01*
X92571781Y-102126051D01*
X92328523Y-102047013D01*
X92075889Y-102007000D01*
X91820111Y-102007000D01*
X91567476Y-102047013D01*
X91324218Y-102126051D01*
X91324215Y-102126052D01*
X91096310Y-102242177D01*
X90989403Y-102319849D01*
X90989402Y-102319850D01*
X91547437Y-102877885D01*
X91545374Y-102878740D01*
X91406156Y-102971762D01*
X91287762Y-103090156D01*
X91194740Y-103229374D01*
X91193885Y-103231437D01*
X90635850Y-102673402D01*
X90635849Y-102673403D01*
X90558177Y-102780310D01*
X90442052Y-103008215D01*
X90442051Y-103008218D01*
X90363013Y-103251476D01*
X90323000Y-103504110D01*
X90323000Y-103759889D01*
X90363013Y-104012523D01*
X90442051Y-104255781D01*
X90442052Y-104255784D01*
X90558175Y-104483686D01*
X90635850Y-104590595D01*
X90635850Y-104590596D01*
X91193884Y-104032561D01*
X91194740Y-104034626D01*
X91287762Y-104173844D01*
X91406156Y-104292238D01*
X91545374Y-104385260D01*
X91547437Y-104386114D01*
X90986009Y-104947541D01*
X90987391Y-104957147D01*
X90978370Y-104976899D01*
X90973906Y-104998150D01*
X90964142Y-105008053D01*
X90958366Y-105020703D01*
X90940098Y-105032442D01*
X90924854Y-105047906D01*
X90910083Y-105051732D01*
X90899588Y-105058477D01*
X90864653Y-105063500D01*
X90660980Y-105063500D01*
X90593941Y-105043815D01*
X90573299Y-105027181D01*
X90472156Y-104926038D01*
X90472150Y-104926033D01*
X90264144Y-104774908D01*
X90264143Y-104774907D01*
X90264141Y-104774906D01*
X90192598Y-104738453D01*
X90035050Y-104658177D01*
X89790512Y-104578721D01*
X89536564Y-104538500D01*
X89536559Y-104538500D01*
X89279441Y-104538500D01*
X89279436Y-104538500D01*
X89025487Y-104578721D01*
X88780949Y-104658177D01*
X88551855Y-104774908D01*
X88343849Y-104926033D01*
X88343843Y-104926038D01*
X88162038Y-105107843D01*
X88162033Y-105107849D01*
X88010908Y-105315855D01*
X87894177Y-105544949D01*
X87814721Y-105789487D01*
X87774500Y-106043435D01*
X60300500Y-106043435D01*
X60300500Y-103504110D01*
X85243000Y-103504110D01*
X85243000Y-103759889D01*
X85283013Y-104012523D01*
X85362051Y-104255781D01*
X85362052Y-104255784D01*
X85478175Y-104483686D01*
X85555850Y-104590595D01*
X85555850Y-104590596D01*
X86113884Y-104032561D01*
X86114740Y-104034626D01*
X86207762Y-104173844D01*
X86326156Y-104292238D01*
X86465374Y-104385260D01*
X86467437Y-104386114D01*
X85909402Y-104944148D01*
X86016313Y-105021824D01*
X86244215Y-105137947D01*
X86244218Y-105137948D01*
X86487476Y-105216986D01*
X86740111Y-105257000D01*
X86995889Y-105257000D01*
X87248523Y-105216986D01*
X87491781Y-105137948D01*
X87491784Y-105137947D01*
X87719685Y-105021825D01*
X87826595Y-104944148D01*
X87826596Y-104944148D01*
X87268562Y-104386114D01*
X87270626Y-104385260D01*
X87409844Y-104292238D01*
X87528238Y-104173844D01*
X87621260Y-104034626D01*
X87622114Y-104032562D01*
X88180148Y-104590596D01*
X88180148Y-104590595D01*
X88257825Y-104483685D01*
X88373947Y-104255784D01*
X88373948Y-104255781D01*
X88452986Y-104012523D01*
X88493000Y-103759889D01*
X88493000Y-103504110D01*
X88452986Y-103251476D01*
X88373948Y-103008218D01*
X88373947Y-103008215D01*
X88257824Y-102780313D01*
X88180148Y-102673403D01*
X88180148Y-102673402D01*
X87622114Y-103231436D01*
X87621260Y-103229374D01*
X87528238Y-103090156D01*
X87409844Y-102971762D01*
X87270626Y-102878740D01*
X87268560Y-102877884D01*
X87826596Y-102319850D01*
X87719686Y-102242175D01*
X87491784Y-102126052D01*
X87491781Y-102126051D01*
X87248523Y-102047013D01*
X86995889Y-102007000D01*
X86740111Y-102007000D01*
X86487476Y-102047013D01*
X86244218Y-102126051D01*
X86244215Y-102126052D01*
X86016310Y-102242177D01*
X85909403Y-102319849D01*
X85909402Y-102319850D01*
X86467437Y-102877885D01*
X86465374Y-102878740D01*
X86326156Y-102971762D01*
X86207762Y-103090156D01*
X86114740Y-103229374D01*
X86113885Y-103231437D01*
X85555850Y-102673402D01*
X85555849Y-102673403D01*
X85478177Y-102780310D01*
X85362052Y-103008215D01*
X85362051Y-103008218D01*
X85283013Y-103251476D01*
X85243000Y-103504110D01*
X60300500Y-103504110D01*
X60300500Y-95099793D01*
X60300207Y-95099500D01*
X50724500Y-95099500D01*
X50657461Y-95079815D01*
X50611706Y-95027011D01*
X50600500Y-94975500D01*
X50600500Y-88137464D01*
X54891500Y-88137464D01*
X54891500Y-88462536D01*
X54896231Y-88510573D01*
X54923361Y-88786032D01*
X54923364Y-88786049D01*
X54986775Y-89104848D01*
X54986778Y-89104859D01*
X55081145Y-89415945D01*
X55121228Y-89512713D01*
X55203568Y-89711500D01*
X55205546Y-89716274D01*
X55205548Y-89716279D01*
X55358776Y-90002948D01*
X55358793Y-90002976D01*
X55539370Y-90273230D01*
X55539387Y-90273253D01*
X55745611Y-90524537D01*
X55975462Y-90754388D01*
X55975467Y-90754392D01*
X55975468Y-90754393D01*
X56226752Y-90960617D01*
X56226759Y-90960622D01*
X56226769Y-90960629D01*
X56497023Y-91141206D01*
X56497028Y-91141209D01*
X56497040Y-91141217D01*
X56497049Y-91141221D01*
X56497051Y-91141223D01*
X56783720Y-91294451D01*
X56783722Y-91294451D01*
X56783728Y-91294455D01*
X57084056Y-91418855D01*
X57395131Y-91513219D01*
X57395137Y-91513220D01*
X57395140Y-91513221D01*
X57395151Y-91513224D01*
X57595066Y-91552988D01*
X57713957Y-91576637D01*
X58037464Y-91608500D01*
X58037467Y-91608500D01*
X58362533Y-91608500D01*
X58362536Y-91608500D01*
X58686043Y-91576637D01*
X58868552Y-91540334D01*
X59004848Y-91513224D01*
X59004859Y-91513221D01*
X59004859Y-91513220D01*
X59004869Y-91513219D01*
X59315944Y-91418855D01*
X59616272Y-91294455D01*
X59902960Y-91141217D01*
X60173248Y-90960617D01*
X60424532Y-90754393D01*
X60654393Y-90524532D01*
X60860617Y-90273248D01*
X61041217Y-90002960D01*
X61194455Y-89716272D01*
X61318855Y-89415944D01*
X61413219Y-89104869D01*
X61413221Y-89104859D01*
X61413224Y-89104848D01*
X61454903Y-88895308D01*
X61476637Y-88786043D01*
X61508500Y-88462536D01*
X61508500Y-88137464D01*
X61476637Y-87813957D01*
X61429859Y-87578784D01*
X61413224Y-87495151D01*
X61413221Y-87495140D01*
X61413220Y-87495137D01*
X61413219Y-87495131D01*
X61318855Y-87184056D01*
X61194455Y-86883728D01*
X61193671Y-86882262D01*
X61041223Y-86597051D01*
X61041221Y-86597049D01*
X61041217Y-86597040D01*
X61036087Y-86589362D01*
X60860629Y-86326769D01*
X60860622Y-86326759D01*
X60860617Y-86326752D01*
X60654393Y-86075468D01*
X60654392Y-86075467D01*
X60654388Y-86075462D01*
X60424537Y-85845611D01*
X60173253Y-85639387D01*
X60173230Y-85639370D01*
X59902976Y-85458793D01*
X59902948Y-85458776D01*
X59616279Y-85305548D01*
X59616274Y-85305546D01*
X59573914Y-85288000D01*
X59461654Y-85241500D01*
X59315945Y-85181145D01*
X59004859Y-85086778D01*
X59004848Y-85086775D01*
X58686049Y-85023364D01*
X58686032Y-85023361D01*
X58441395Y-84999267D01*
X58362536Y-84991500D01*
X58037464Y-84991500D01*
X57964530Y-84998683D01*
X57713967Y-85023361D01*
X57713950Y-85023364D01*
X57395151Y-85086775D01*
X57395140Y-85086778D01*
X57084054Y-85181145D01*
X56783725Y-85305546D01*
X56783720Y-85305548D01*
X56497051Y-85458776D01*
X56497023Y-85458793D01*
X56226769Y-85639370D01*
X56226746Y-85639387D01*
X55975462Y-85845611D01*
X55745611Y-86075462D01*
X55539387Y-86326746D01*
X55539370Y-86326769D01*
X55358793Y-86597023D01*
X55358776Y-86597051D01*
X55205548Y-86883720D01*
X55205546Y-86883725D01*
X55081145Y-87184054D01*
X54986778Y-87495140D01*
X54986775Y-87495151D01*
X54923364Y-87813950D01*
X54923361Y-87813967D01*
X54907567Y-87974331D01*
X54891500Y-88137464D01*
X50600500Y-88137464D01*
X50600500Y-57887467D01*
X54891500Y-57887467D01*
X54891500Y-58212532D01*
X54923361Y-58536032D01*
X54923364Y-58536049D01*
X54986775Y-58854848D01*
X54986778Y-58854859D01*
X55081145Y-59165945D01*
X55205546Y-59466274D01*
X55205548Y-59466279D01*
X55358776Y-59752948D01*
X55358793Y-59752976D01*
X55539370Y-60023230D01*
X55539387Y-60023253D01*
X55745611Y-60274537D01*
X55975462Y-60504388D01*
X55975467Y-60504392D01*
X55975468Y-60504393D01*
X56226752Y-60710617D01*
X56226759Y-60710622D01*
X56226769Y-60710629D01*
X56497023Y-60891206D01*
X56497028Y-60891209D01*
X56497040Y-60891217D01*
X56497049Y-60891221D01*
X56497051Y-60891223D01*
X56783720Y-61044451D01*
X56783722Y-61044451D01*
X56783728Y-61044455D01*
X57084056Y-61168855D01*
X57395131Y-61263219D01*
X57395137Y-61263220D01*
X57395140Y-61263221D01*
X57395151Y-61263224D01*
X57578685Y-61299730D01*
X57713957Y-61326637D01*
X58037464Y-61358500D01*
X58037467Y-61358500D01*
X58362533Y-61358500D01*
X58362536Y-61358500D01*
X58686043Y-61326637D01*
X58843850Y-61295247D01*
X59004848Y-61263224D01*
X59004859Y-61263221D01*
X59004859Y-61263220D01*
X59004869Y-61263219D01*
X59315944Y-61168855D01*
X59616272Y-61044455D01*
X59902960Y-60891217D01*
X60173248Y-60710617D01*
X60424532Y-60504393D01*
X60654393Y-60274532D01*
X60860617Y-60023248D01*
X61041217Y-59752960D01*
X61194455Y-59466272D01*
X61318855Y-59165944D01*
X61413219Y-58854869D01*
X61413221Y-58854859D01*
X61413224Y-58854848D01*
X61447966Y-58680181D01*
X61476637Y-58536043D01*
X61508500Y-58212536D01*
X61508500Y-57887464D01*
X61476637Y-57563957D01*
X61431133Y-57335189D01*
X61413224Y-57245151D01*
X61413221Y-57245140D01*
X61413220Y-57245137D01*
X61413219Y-57245131D01*
X61318855Y-56934056D01*
X61194455Y-56633728D01*
X61041217Y-56347040D01*
X61041206Y-56347023D01*
X60860629Y-56076769D01*
X60860622Y-56076759D01*
X60860617Y-56076752D01*
X60654393Y-55825468D01*
X60654392Y-55825467D01*
X60654388Y-55825462D01*
X60424537Y-55595611D01*
X60173253Y-55389387D01*
X60173230Y-55389370D01*
X59902976Y-55208793D01*
X59902948Y-55208776D01*
X59616279Y-55055548D01*
X59616274Y-55055546D01*
X59315945Y-54931145D01*
X59004859Y-54836778D01*
X59004848Y-54836775D01*
X58686049Y-54773364D01*
X58686032Y-54773361D01*
X58441395Y-54749267D01*
X58362536Y-54741500D01*
X58037464Y-54741500D01*
X57964530Y-54748683D01*
X57713967Y-54773361D01*
X57713950Y-54773364D01*
X57395151Y-54836775D01*
X57395140Y-54836778D01*
X57084054Y-54931145D01*
X56783725Y-55055546D01*
X56783720Y-55055548D01*
X56497051Y-55208776D01*
X56497023Y-55208793D01*
X56226769Y-55389370D01*
X56226746Y-55389387D01*
X55975462Y-55595611D01*
X55745611Y-55825462D01*
X55539387Y-56076746D01*
X55539370Y-56076769D01*
X55358793Y-56347023D01*
X55358776Y-56347051D01*
X55205548Y-56633720D01*
X55205546Y-56633725D01*
X55081145Y-56934054D01*
X54986778Y-57245140D01*
X54986775Y-57245151D01*
X54923364Y-57563950D01*
X54923361Y-57563967D01*
X54891500Y-57887467D01*
X50600500Y-57887467D01*
X50600500Y-51424500D01*
X50620185Y-51357461D01*
X50672989Y-51311706D01*
X50724500Y-51300500D01*
X60300207Y-51300500D01*
X60300500Y-51300207D01*
X60300500Y-43334166D01*
X68386500Y-43334166D01*
X68386500Y-43900002D01*
X68391727Y-43973082D01*
X68402519Y-44009837D01*
X68406280Y-44062417D01*
X68386500Y-44199998D01*
X68386500Y-44765833D01*
X68403997Y-44898728D01*
X68403998Y-44898732D01*
X68433810Y-45009991D01*
X68438074Y-45025902D01*
X68489366Y-45149734D01*
X68489374Y-45149750D01*
X68555192Y-45263749D01*
X68555204Y-45263767D01*
X68636802Y-45370106D01*
X68636810Y-45370115D01*
X68729884Y-45463189D01*
X68729888Y-45463192D01*
X68729894Y-45463198D01*
X68792989Y-45511612D01*
X68834189Y-45568038D01*
X68841500Y-45609986D01*
X68841500Y-46844234D01*
X68872568Y-47000423D01*
X68872570Y-47000431D01*
X68896752Y-47058811D01*
X68896752Y-47058812D01*
X68933512Y-47147561D01*
X68933519Y-47147574D01*
X69021996Y-47279988D01*
X69021999Y-47279992D01*
X71205010Y-49463003D01*
X71317599Y-49538232D01*
X71337432Y-49551484D01*
X71366161Y-49563383D01*
X71439885Y-49593921D01*
X71484569Y-49612430D01*
X71640765Y-49643499D01*
X71640769Y-49643500D01*
X71640770Y-49643500D01*
X72245029Y-49643500D01*
X72312068Y-49663185D01*
X72345347Y-49694615D01*
X72363788Y-49719998D01*
X72363794Y-49720004D01*
X72514996Y-49871206D01*
X72687991Y-49996894D01*
X72691873Y-49999273D01*
X72738748Y-50051086D01*
X72750169Y-50120016D01*
X72722512Y-50184178D01*
X72691873Y-50210727D01*
X72687991Y-50213105D01*
X72514993Y-50338796D01*
X72363796Y-50489993D01*
X72238106Y-50662990D01*
X72141027Y-50853516D01*
X72141026Y-50853519D01*
X72074951Y-51056882D01*
X72041500Y-51268084D01*
X72041500Y-51481915D01*
X72074951Y-51693117D01*
X72141026Y-51896480D01*
X72141027Y-51896483D01*
X72220400Y-52052259D01*
X72238106Y-52087009D01*
X72363794Y-52260004D01*
X72514996Y-52411206D01*
X72606464Y-52477661D01*
X72687991Y-52536894D01*
X72691873Y-52539273D01*
X72738748Y-52591086D01*
X72750169Y-52660016D01*
X72722512Y-52724178D01*
X72691873Y-52750727D01*
X72687991Y-52753105D01*
X72514993Y-52878796D01*
X72363796Y-53029993D01*
X72238106Y-53202990D01*
X72141027Y-53393516D01*
X72141026Y-53393519D01*
X72074951Y-53596882D01*
X72041500Y-53808084D01*
X72041500Y-54021915D01*
X72074951Y-54233117D01*
X72141026Y-54436480D01*
X72141027Y-54436483D01*
X72220979Y-54593395D01*
X72238106Y-54627009D01*
X72363794Y-54800004D01*
X72514996Y-54951206D01*
X72687991Y-55076894D01*
X72763000Y-55115113D01*
X72878516Y-55173972D01*
X72878519Y-55173973D01*
X72980200Y-55207010D01*
X73081884Y-55240049D01*
X73293084Y-55273500D01*
X73293085Y-55273500D01*
X73506915Y-55273500D01*
X73506916Y-55273500D01*
X73718116Y-55240049D01*
X73921483Y-55173972D01*
X74112009Y-55076894D01*
X74285004Y-54951206D01*
X74436206Y-54800004D01*
X74561894Y-54627009D01*
X74658972Y-54436483D01*
X74725049Y-54233116D01*
X74758500Y-54021916D01*
X74758500Y-53808084D01*
X74725049Y-53596884D01*
X74671637Y-53432496D01*
X74658973Y-53393519D01*
X74658972Y-53393516D01*
X74602695Y-53283068D01*
X74561894Y-53202991D01*
X74436206Y-53029996D01*
X74285004Y-52878794D01*
X74112009Y-52753106D01*
X74112005Y-52753103D01*
X74108132Y-52750730D01*
X74061254Y-52698920D01*
X74049829Y-52629991D01*
X74077483Y-52565827D01*
X74108132Y-52539270D01*
X74112005Y-52536896D01*
X74112004Y-52536896D01*
X74112009Y-52536894D01*
X74285004Y-52411206D01*
X74436206Y-52260004D01*
X74561894Y-52087009D01*
X74658972Y-51896483D01*
X74725049Y-51693116D01*
X74758500Y-51481916D01*
X74758500Y-51268084D01*
X74725049Y-51056884D01*
X74674920Y-50902600D01*
X74658973Y-50853519D01*
X74658972Y-50853516D01*
X74561893Y-50662990D01*
X74436206Y-50489996D01*
X74285004Y-50338794D01*
X74112009Y-50213106D01*
X74112005Y-50213103D01*
X74108132Y-50210730D01*
X74061254Y-50158920D01*
X74049829Y-50089991D01*
X74077483Y-50025827D01*
X74108132Y-49999270D01*
X74112005Y-49996896D01*
X74112004Y-49996896D01*
X74112009Y-49996894D01*
X74285004Y-49871206D01*
X74436206Y-49720004D01*
X74561894Y-49547009D01*
X74658972Y-49356483D01*
X74725049Y-49153116D01*
X74758500Y-48941916D01*
X74758500Y-48728084D01*
X74725049Y-48516884D01*
X74692010Y-48415200D01*
X74658973Y-48313519D01*
X74658972Y-48313516D01*
X74581009Y-48160506D01*
X74561894Y-48122991D01*
X74436206Y-47949996D01*
X74285004Y-47798794D01*
X74112009Y-47673106D01*
X74112005Y-47673103D01*
X74108132Y-47670730D01*
X74061254Y-47618920D01*
X74049829Y-47549991D01*
X74077483Y-47485827D01*
X74108132Y-47459270D01*
X74112005Y-47456896D01*
X74112004Y-47456896D01*
X74112009Y-47456894D01*
X74285004Y-47331206D01*
X74436206Y-47180004D01*
X74436208Y-47180000D01*
X74436211Y-47179998D01*
X74454653Y-47154615D01*
X74509982Y-47111949D01*
X74554971Y-47103500D01*
X76083946Y-47103500D01*
X76150985Y-47123185D01*
X76171627Y-47139819D01*
X77056981Y-48025173D01*
X77090466Y-48086496D01*
X77093300Y-48112854D01*
X77093300Y-56255745D01*
X77073615Y-56322784D01*
X77056981Y-56343426D01*
X69323599Y-64076807D01*
X69323596Y-64076810D01*
X69235117Y-64209230D01*
X69235115Y-64209234D01*
X69228706Y-64224708D01*
X69228705Y-64224711D01*
X69174170Y-64356368D01*
X69174168Y-64356376D01*
X69143100Y-64512565D01*
X69143100Y-90198834D01*
X69174168Y-90355023D01*
X69174171Y-90355035D01*
X69189220Y-90391366D01*
X69189222Y-90391369D01*
X69235117Y-90502171D01*
X69323596Y-90634588D01*
X69323599Y-90634592D01*
X70792456Y-92103447D01*
X70792477Y-92103470D01*
X70909405Y-92220398D01*
X70909408Y-92220400D01*
X70909411Y-92220403D01*
X70988791Y-92273442D01*
X71041831Y-92308883D01*
X71084927Y-92326733D01*
X71188969Y-92369830D01*
X71345165Y-92400899D01*
X71345169Y-92400900D01*
X71345170Y-92400900D01*
X79480031Y-92400900D01*
X79480032Y-92400899D01*
X79636231Y-92369830D01*
X79713347Y-92337887D01*
X79783368Y-92308884D01*
X79915789Y-92220403D01*
X86617819Y-85518373D01*
X86679142Y-85484888D01*
X86748834Y-85489872D01*
X86804767Y-85531744D01*
X86829184Y-85597208D01*
X86829500Y-85606054D01*
X86829500Y-86086654D01*
X86836011Y-86147202D01*
X86836011Y-86147204D01*
X86879586Y-86264030D01*
X86887111Y-86284204D01*
X86974739Y-86401261D01*
X87091796Y-86488889D01*
X87228799Y-86539989D01*
X87256050Y-86542918D01*
X87289345Y-86546499D01*
X87289362Y-86546500D01*
X89605500Y-86546500D01*
X89672539Y-86566185D01*
X89718294Y-86618989D01*
X89729500Y-86670500D01*
X89729500Y-88986654D01*
X89736011Y-89047202D01*
X89736011Y-89047204D01*
X89757520Y-89104869D01*
X89787111Y-89184204D01*
X89874739Y-89301261D01*
X89991796Y-89388889D01*
X90106297Y-89431596D01*
X90123463Y-89437999D01*
X90128799Y-89439989D01*
X90156050Y-89442918D01*
X90189345Y-89446499D01*
X90189362Y-89446500D01*
X91286638Y-89446500D01*
X91286651Y-89446499D01*
X91309198Y-89444074D01*
X91347201Y-89439989D01*
X91347203Y-89439988D01*
X91349743Y-89439715D01*
X91376257Y-89439715D01*
X91378796Y-89439988D01*
X91378799Y-89439989D01*
X91413228Y-89443690D01*
X91439348Y-89446499D01*
X91439362Y-89446500D01*
X92536638Y-89446500D01*
X92536651Y-89446499D01*
X92559198Y-89444074D01*
X92597201Y-89439989D01*
X92597203Y-89439988D01*
X92599743Y-89439715D01*
X92626257Y-89439715D01*
X92628796Y-89439988D01*
X92628799Y-89439989D01*
X92663228Y-89443690D01*
X92689348Y-89446499D01*
X92689362Y-89446500D01*
X93786638Y-89446500D01*
X93786651Y-89446499D01*
X93809198Y-89444074D01*
X93847201Y-89439989D01*
X93847203Y-89439988D01*
X93849743Y-89439715D01*
X93876257Y-89439715D01*
X93878796Y-89439988D01*
X93878799Y-89439989D01*
X93913228Y-89443690D01*
X93939348Y-89446499D01*
X93939362Y-89446500D01*
X95036638Y-89446500D01*
X95036651Y-89446499D01*
X95059198Y-89444074D01*
X95097201Y-89439989D01*
X95097203Y-89439988D01*
X95099743Y-89439715D01*
X95126257Y-89439715D01*
X95128796Y-89439988D01*
X95128799Y-89439989D01*
X95163228Y-89443690D01*
X95189348Y-89446499D01*
X95189362Y-89446500D01*
X96286638Y-89446500D01*
X96286651Y-89446499D01*
X96309198Y-89444074D01*
X96347201Y-89439989D01*
X96347203Y-89439988D01*
X96349743Y-89439715D01*
X96376257Y-89439715D01*
X96378796Y-89439988D01*
X96378799Y-89439989D01*
X96413228Y-89443690D01*
X96439348Y-89446499D01*
X96439362Y-89446500D01*
X97536638Y-89446500D01*
X97536654Y-89446499D01*
X97574560Y-89442423D01*
X97597201Y-89439989D01*
X97597207Y-89439986D01*
X97604754Y-89438204D01*
X97605089Y-89439624D01*
X97651281Y-89433818D01*
X97690163Y-89437999D01*
X97690172Y-89438000D01*
X97988000Y-89438000D01*
X98488000Y-89438000D01*
X98785828Y-89438000D01*
X98785844Y-89437999D01*
X98845372Y-89431598D01*
X98845379Y-89431596D01*
X98980086Y-89381354D01*
X98980093Y-89381350D01*
X99095187Y-89295190D01*
X99095190Y-89295187D01*
X99181350Y-89180093D01*
X99181354Y-89180086D01*
X99231596Y-89045379D01*
X99231598Y-89045372D01*
X99237999Y-88985844D01*
X99238000Y-88985827D01*
X99238000Y-88038000D01*
X98488000Y-88038000D01*
X98488000Y-89438000D01*
X97988000Y-89438000D01*
X97988000Y-89070069D01*
X97989759Y-89054978D01*
X97989160Y-89054914D01*
X97996499Y-88986654D01*
X97996500Y-88986637D01*
X97996500Y-86589362D01*
X97996499Y-86589345D01*
X97989160Y-86521088D01*
X97989757Y-86521023D01*
X97988000Y-86505931D01*
X97988000Y-86138000D01*
X97690166Y-86138000D01*
X97651274Y-86142181D01*
X97605089Y-86136381D01*
X97604755Y-86137796D01*
X97597197Y-86136010D01*
X97536654Y-86129500D01*
X97536638Y-86129500D01*
X96439362Y-86129500D01*
X96439359Y-86129500D01*
X96376254Y-86136284D01*
X96349746Y-86136284D01*
X96286640Y-86129500D01*
X96286638Y-86129500D01*
X95189362Y-86129500D01*
X95189359Y-86129500D01*
X95126254Y-86136284D01*
X95099746Y-86136284D01*
X95036640Y-86129500D01*
X95036638Y-86129500D01*
X93939362Y-86129500D01*
X93939359Y-86129500D01*
X93876254Y-86136284D01*
X93849746Y-86136284D01*
X93786640Y-86129500D01*
X93786638Y-86129500D01*
X92689362Y-86129500D01*
X92689359Y-86129500D01*
X92626254Y-86136284D01*
X92599746Y-86136284D01*
X92536640Y-86129500D01*
X92536638Y-86129500D01*
X91439362Y-86129500D01*
X91439359Y-86129500D01*
X91376254Y-86136284D01*
X91349746Y-86136284D01*
X91286640Y-86129500D01*
X91286638Y-86129500D01*
X90270500Y-86129500D01*
X90203461Y-86109815D01*
X90157706Y-86057011D01*
X90146500Y-86005500D01*
X90146500Y-84989362D01*
X90146499Y-84989348D01*
X90143038Y-84957162D01*
X90139989Y-84928799D01*
X90139988Y-84928796D01*
X90139715Y-84926257D01*
X90139715Y-84899743D01*
X90139988Y-84897203D01*
X90139989Y-84897201D01*
X90146500Y-84836638D01*
X90146500Y-83739362D01*
X90146499Y-83739348D01*
X90142405Y-83701274D01*
X90139989Y-83678799D01*
X90139988Y-83678796D01*
X90139715Y-83676257D01*
X90139715Y-83649743D01*
X90139988Y-83647203D01*
X90139989Y-83647201D01*
X90146290Y-83588591D01*
X90146499Y-83586651D01*
X90146500Y-83586637D01*
X90146500Y-82489362D01*
X90146499Y-82489348D01*
X90142568Y-82452788D01*
X90139989Y-82428799D01*
X90139988Y-82428796D01*
X90139715Y-82426257D01*
X90139715Y-82399743D01*
X90139988Y-82397203D01*
X90139989Y-82397201D01*
X90146500Y-82336638D01*
X90146500Y-81239362D01*
X90146500Y-81239359D01*
X90146499Y-81239348D01*
X90143690Y-81213228D01*
X90139989Y-81178799D01*
X90139988Y-81178796D01*
X90139715Y-81176257D01*
X90139715Y-81149743D01*
X90139988Y-81147203D01*
X90139989Y-81147201D01*
X90146500Y-81086638D01*
X90146500Y-79989362D01*
X90146500Y-79989359D01*
X90146499Y-79989345D01*
X90139989Y-79928799D01*
X90138205Y-79921249D01*
X90139623Y-79920913D01*
X90133818Y-79874719D01*
X90137999Y-79835836D01*
X90138000Y-79835827D01*
X90138000Y-79538000D01*
X89770068Y-79538000D01*
X89754976Y-79536240D01*
X89754912Y-79536840D01*
X89686654Y-79529500D01*
X89686638Y-79529500D01*
X87289362Y-79529500D01*
X87289345Y-79529500D01*
X87221088Y-79536840D01*
X87221023Y-79536240D01*
X87205932Y-79538000D01*
X86838000Y-79538000D01*
X86824489Y-79551510D01*
X86818315Y-79572539D01*
X86765511Y-79618294D01*
X86714000Y-79629500D01*
X75374072Y-79629500D01*
X75344631Y-79620855D01*
X75314645Y-79614332D01*
X75309629Y-79610577D01*
X75307033Y-79609815D01*
X75286391Y-79593181D01*
X75214106Y-79520896D01*
X75180621Y-79459573D01*
X75185605Y-79389881D01*
X75227477Y-79333948D01*
X75236668Y-79327690D01*
X75383652Y-79237030D01*
X75509030Y-79111652D01*
X75602115Y-78960738D01*
X75611804Y-78931496D01*
X75651576Y-78874052D01*
X75716091Y-78847228D01*
X75729510Y-78846500D01*
X77157370Y-78846500D01*
X77316630Y-78846500D01*
X86714000Y-78846500D01*
X86781039Y-78866185D01*
X86826794Y-78918989D01*
X86838000Y-78970500D01*
X86838000Y-79038000D01*
X87205932Y-79038000D01*
X87221023Y-79039759D01*
X87221088Y-79039160D01*
X87289345Y-79046499D01*
X87289362Y-79046500D01*
X89686638Y-79046500D01*
X89686654Y-79046499D01*
X89754912Y-79039160D01*
X89754976Y-79039759D01*
X89770068Y-79038000D01*
X90138000Y-79038000D01*
X90138000Y-78740172D01*
X90137999Y-78740163D01*
X90133818Y-78701281D01*
X90139624Y-78655089D01*
X90138204Y-78654754D01*
X90139986Y-78647207D01*
X90139989Y-78647201D01*
X90142423Y-78624560D01*
X90146499Y-78586654D01*
X90146500Y-78586637D01*
X90146500Y-77570500D01*
X90166185Y-77503461D01*
X90218989Y-77457706D01*
X90270500Y-77446500D01*
X91286638Y-77446500D01*
X91286651Y-77446499D01*
X91309198Y-77444074D01*
X91347201Y-77439989D01*
X91347203Y-77439988D01*
X91349743Y-77439715D01*
X91376257Y-77439715D01*
X91378796Y-77439988D01*
X91378799Y-77439989D01*
X91413228Y-77443690D01*
X91439348Y-77446499D01*
X91439362Y-77446500D01*
X92536638Y-77446500D01*
X92536651Y-77446499D01*
X92559198Y-77444074D01*
X92597201Y-77439989D01*
X92597203Y-77439988D01*
X92599743Y-77439715D01*
X92626257Y-77439715D01*
X92628796Y-77439988D01*
X92628799Y-77439989D01*
X92663228Y-77443690D01*
X92689348Y-77446499D01*
X92689362Y-77446500D01*
X93786638Y-77446500D01*
X93786651Y-77446499D01*
X93809198Y-77444074D01*
X93847201Y-77439989D01*
X93847203Y-77439988D01*
X93849743Y-77439715D01*
X93876257Y-77439715D01*
X93878796Y-77439988D01*
X93878799Y-77439989D01*
X93913228Y-77443690D01*
X93939348Y-77446499D01*
X93939362Y-77446500D01*
X95036638Y-77446500D01*
X95036651Y-77446499D01*
X95059198Y-77444074D01*
X95097201Y-77439989D01*
X95097203Y-77439988D01*
X95099743Y-77439715D01*
X95126257Y-77439715D01*
X95128796Y-77439988D01*
X95128799Y-77439989D01*
X95163228Y-77443690D01*
X95189348Y-77446499D01*
X95189362Y-77446500D01*
X96286638Y-77446500D01*
X96286651Y-77446499D01*
X96309198Y-77444074D01*
X96347201Y-77439989D01*
X96347203Y-77439988D01*
X96349743Y-77439715D01*
X96376257Y-77439715D01*
X96378796Y-77439988D01*
X96378799Y-77439989D01*
X96413228Y-77443690D01*
X96439348Y-77446499D01*
X96439362Y-77446500D01*
X97536638Y-77446500D01*
X97536654Y-77446499D01*
X97574560Y-77442423D01*
X97597201Y-77439989D01*
X97597207Y-77439986D01*
X97604754Y-77438204D01*
X97605089Y-77439624D01*
X97651281Y-77433818D01*
X97690163Y-77437999D01*
X97690172Y-77438000D01*
X97988000Y-77438000D01*
X98488000Y-77438000D01*
X98705500Y-77438000D01*
X98772539Y-77457685D01*
X98818294Y-77510489D01*
X98829500Y-77562000D01*
X98829500Y-78586640D01*
X98836284Y-78649746D01*
X98836284Y-78676254D01*
X98829500Y-78739359D01*
X98829500Y-79836640D01*
X98836284Y-79899746D01*
X98836284Y-79926254D01*
X98829500Y-79989359D01*
X98829500Y-81086640D01*
X98836284Y-81149746D01*
X98836284Y-81176254D01*
X98829500Y-81239359D01*
X98829500Y-82336640D01*
X98836284Y-82399746D01*
X98836284Y-82426254D01*
X98829500Y-82489359D01*
X98829500Y-83586654D01*
X98836010Y-83647197D01*
X98837796Y-83654755D01*
X98836381Y-83655089D01*
X98842181Y-83701274D01*
X98838000Y-83740166D01*
X98838000Y-84038000D01*
X99205932Y-84038000D01*
X99221023Y-84039759D01*
X99221088Y-84039160D01*
X99289345Y-84046499D01*
X99289362Y-84046500D01*
X101686638Y-84046500D01*
X101686654Y-84046499D01*
X101754912Y-84039160D01*
X101754976Y-84039759D01*
X101770068Y-84038000D01*
X102138000Y-84038000D01*
X102138000Y-83970500D01*
X102157685Y-83903461D01*
X102210489Y-83857706D01*
X102262000Y-83846500D01*
X102360031Y-83846500D01*
X102360032Y-83846499D01*
X102516231Y-83815430D01*
X102604735Y-83778770D01*
X102663368Y-83754484D01*
X102795789Y-83666003D01*
X103027773Y-83434019D01*
X103089096Y-83400534D01*
X103115454Y-83397700D01*
X105348406Y-83397700D01*
X105415445Y-83417385D01*
X105461200Y-83470189D01*
X105464582Y-83478353D01*
X105503029Y-83581430D01*
X105504512Y-83585406D01*
X105538960Y-83631422D01*
X105592139Y-83702461D01*
X105709196Y-83790089D01*
X105846199Y-83841189D01*
X105873450Y-83844118D01*
X105906745Y-83847699D01*
X105906762Y-83847700D01*
X107504038Y-83847700D01*
X107504054Y-83847699D01*
X107531092Y-83844791D01*
X107564601Y-83841189D01*
X107701604Y-83790089D01*
X107818661Y-83702461D01*
X107906289Y-83585404D01*
X107957389Y-83448401D01*
X107962840Y-83397700D01*
X107963899Y-83387854D01*
X107963900Y-83387837D01*
X107963900Y-81790562D01*
X107963899Y-81790545D01*
X107958788Y-81743012D01*
X107957389Y-81729999D01*
X107956273Y-81727008D01*
X107946789Y-81701580D01*
X107922985Y-81637759D01*
X113091500Y-81637759D01*
X113091500Y-96078159D01*
X113091500Y-96252641D01*
X113095495Y-96277862D01*
X113118795Y-96424977D01*
X113172709Y-96590911D01*
X113172713Y-96590922D01*
X113251926Y-96746382D01*
X113354477Y-96887532D01*
X113354481Y-96887537D01*
X116680834Y-100213890D01*
X116711084Y-100263253D01*
X116772766Y-100453090D01*
X116865863Y-100635803D01*
X116866273Y-100636606D01*
X116987326Y-100803223D01*
X116987330Y-100803228D01*
X117132971Y-100948869D01*
X117132976Y-100948873D01*
X117246296Y-101031204D01*
X117299597Y-101069929D01*
X117416528Y-101129509D01*
X117483105Y-101163432D01*
X117483107Y-101163432D01*
X117483110Y-101163434D01*
X117588107Y-101197549D01*
X117678991Y-101227080D01*
X117780705Y-101243190D01*
X117882419Y-101259300D01*
X117882420Y-101259300D01*
X118088380Y-101259300D01*
X118088381Y-101259300D01*
X118291808Y-101227080D01*
X118487690Y-101163434D01*
X118671203Y-101069929D01*
X118837830Y-100948868D01*
X118983468Y-100803230D01*
X119104529Y-100636603D01*
X119198034Y-100453090D01*
X119261680Y-100257208D01*
X119293900Y-100053781D01*
X119293900Y-99847819D01*
X119261680Y-99644392D01*
X119198034Y-99448510D01*
X119198032Y-99448507D01*
X119198032Y-99448505D01*
X119164109Y-99381928D01*
X119104529Y-99264997D01*
X119055226Y-99197137D01*
X118983473Y-99098376D01*
X118983469Y-99098371D01*
X118837828Y-98952730D01*
X118837823Y-98952726D01*
X118671206Y-98831673D01*
X118671205Y-98831672D01*
X118671203Y-98831671D01*
X118487690Y-98738166D01*
X118297853Y-98676484D01*
X118248490Y-98646234D01*
X115344819Y-95742563D01*
X115311334Y-95681240D01*
X115308500Y-95654882D01*
X115308500Y-89475518D01*
X115328185Y-89408479D01*
X115380989Y-89362724D01*
X115450147Y-89352780D01*
X115513703Y-89381805D01*
X115520181Y-89387837D01*
X116768662Y-90636318D01*
X116768667Y-90636322D01*
X116875020Y-90713591D01*
X116909819Y-90738874D01*
X117065283Y-90818088D01*
X117065288Y-90818089D01*
X117065291Y-90818091D01*
X117202987Y-90862830D01*
X117203606Y-90863031D01*
X117231226Y-90872005D01*
X117233264Y-90872327D01*
X117239564Y-90874304D01*
X117246824Y-90879160D01*
X117275336Y-90892302D01*
X117299595Y-90909928D01*
X117483105Y-91003432D01*
X117483107Y-91003432D01*
X117483110Y-91003434D01*
X117588107Y-91037549D01*
X117678991Y-91067080D01*
X117780705Y-91083190D01*
X117882419Y-91099300D01*
X117882420Y-91099300D01*
X118088380Y-91099300D01*
X118088381Y-91099300D01*
X118291808Y-91067080D01*
X118487690Y-91003434D01*
X118571733Y-90960612D01*
X118667109Y-90912015D01*
X118723404Y-90898500D01*
X121225766Y-90898500D01*
X121282061Y-90912015D01*
X121459905Y-91002632D01*
X121459907Y-91002632D01*
X121459910Y-91002634D01*
X121564907Y-91036749D01*
X121655791Y-91066280D01*
X121757505Y-91082390D01*
X121859219Y-91098500D01*
X121859220Y-91098500D01*
X122065180Y-91098500D01*
X122065181Y-91098500D01*
X122268608Y-91066280D01*
X122464490Y-91002634D01*
X122648003Y-90909129D01*
X122814630Y-90788068D01*
X122854819Y-90747879D01*
X122916142Y-90714394D01*
X122985834Y-90719378D01*
X123041767Y-90761250D01*
X123066184Y-90826714D01*
X123066500Y-90835560D01*
X123066500Y-95312240D01*
X123093795Y-95484577D01*
X123147709Y-95650511D01*
X123147713Y-95650522D01*
X123226926Y-95805982D01*
X123329477Y-95947132D01*
X123329481Y-95947137D01*
X124805181Y-97422837D01*
X124838666Y-97484160D01*
X124841500Y-97510518D01*
X124841500Y-98717500D01*
X124821815Y-98784539D01*
X124769011Y-98830294D01*
X124717500Y-98841500D01*
X122698634Y-98841500D01*
X122642339Y-98827985D01*
X122464494Y-98737367D01*
X122268608Y-98673719D01*
X122092994Y-98645905D01*
X122065181Y-98641500D01*
X121859219Y-98641500D01*
X121834750Y-98645375D01*
X121655791Y-98673719D01*
X121459905Y-98737367D01*
X121276393Y-98830873D01*
X121109776Y-98951926D01*
X121109771Y-98951930D01*
X120964130Y-99097571D01*
X120964126Y-99097576D01*
X120843073Y-99264193D01*
X120749567Y-99447705D01*
X120685919Y-99643591D01*
X120653700Y-99847019D01*
X120653700Y-100052980D01*
X120685919Y-100256408D01*
X120749567Y-100452294D01*
X120843073Y-100635806D01*
X120964126Y-100802423D01*
X120964130Y-100802428D01*
X121109771Y-100948069D01*
X121109776Y-100948073D01*
X121224197Y-101031204D01*
X121276397Y-101069129D01*
X121393328Y-101128709D01*
X121459905Y-101162632D01*
X121459907Y-101162632D01*
X121459910Y-101162634D01*
X121564907Y-101196749D01*
X121655791Y-101226280D01*
X121757505Y-101242390D01*
X121859219Y-101258500D01*
X121859220Y-101258500D01*
X122065180Y-101258500D01*
X122065181Y-101258500D01*
X122268608Y-101226280D01*
X122464490Y-101162634D01*
X122642339Y-101072015D01*
X122698634Y-101058500D01*
X125213566Y-101058500D01*
X125269861Y-101072015D01*
X125447705Y-101162632D01*
X125447707Y-101162632D01*
X125447710Y-101162634D01*
X125552707Y-101196749D01*
X125643591Y-101226280D01*
X125745305Y-101242390D01*
X125847019Y-101258500D01*
X125847020Y-101258500D01*
X126052980Y-101258500D01*
X126052981Y-101258500D01*
X126256408Y-101226280D01*
X126452290Y-101162634D01*
X126630139Y-101072015D01*
X126686434Y-101058500D01*
X127862240Y-101058500D01*
X127862241Y-101058500D01*
X128034574Y-101031205D01*
X128200517Y-100977288D01*
X128200518Y-100977287D01*
X128200522Y-100977286D01*
X128282534Y-100935497D01*
X128355981Y-100898074D01*
X128497139Y-100795517D01*
X130095517Y-99197139D01*
X130198074Y-99055981D01*
X130250686Y-98952726D01*
X130277286Y-98900522D01*
X130277290Y-98900511D01*
X130330038Y-98738166D01*
X130331205Y-98734574D01*
X130358500Y-98562241D01*
X130358500Y-98387759D01*
X130358500Y-89660517D01*
X130378185Y-89593478D01*
X130394819Y-89572836D01*
X135822836Y-84144819D01*
X135884159Y-84111334D01*
X135910517Y-84108500D01*
X141983834Y-84108500D01*
X142030886Y-84119800D01*
X142031593Y-84118095D01*
X142036084Y-84119954D01*
X142036097Y-84119961D01*
X142181915Y-84167340D01*
X142217008Y-84178743D01*
X142404884Y-84208500D01*
X142404889Y-84208500D01*
X142595116Y-84208500D01*
X142782991Y-84178743D01*
X142963903Y-84119961D01*
X143133392Y-84033602D01*
X143287285Y-83921792D01*
X143421792Y-83787285D01*
X143533602Y-83633392D01*
X143619961Y-83463903D01*
X143678743Y-83282991D01*
X143690431Y-83209195D01*
X143708500Y-83095116D01*
X143708500Y-82904883D01*
X143678743Y-82717008D01*
X143619959Y-82536092D01*
X143552070Y-82402854D01*
X143533602Y-82366608D01*
X143421792Y-82212715D01*
X143287285Y-82078208D01*
X143133392Y-81966398D01*
X142963907Y-81880040D01*
X142949650Y-81875408D01*
X142926635Y-81867930D01*
X142868962Y-81828493D01*
X142841764Y-81764134D01*
X142853679Y-81695288D01*
X142900923Y-81643812D01*
X142926633Y-81632070D01*
X142963903Y-81619961D01*
X143133392Y-81533602D01*
X143287285Y-81421792D01*
X143421792Y-81287285D01*
X143533602Y-81133392D01*
X143619961Y-80963903D01*
X143678743Y-80782991D01*
X143700612Y-80644915D01*
X143708500Y-80595116D01*
X143708500Y-80404883D01*
X143678743Y-80217008D01*
X143619959Y-80036092D01*
X143557240Y-79913000D01*
X143533602Y-79866608D01*
X143421792Y-79712715D01*
X143344819Y-79635742D01*
X143311334Y-79574419D01*
X143308500Y-79548061D01*
X143308500Y-78993254D01*
X143328185Y-78926215D01*
X143344819Y-78905573D01*
X144367373Y-77883019D01*
X144428696Y-77849534D01*
X144455054Y-77846700D01*
X149194346Y-77846700D01*
X149261385Y-77866385D01*
X149282027Y-77883019D01*
X149790181Y-78391173D01*
X149823666Y-78452496D01*
X149826500Y-78478854D01*
X149826500Y-78921206D01*
X149806815Y-78988245D01*
X149754011Y-79034000D01*
X149686315Y-79044145D01*
X149628254Y-79036501D01*
X149628249Y-79036500D01*
X149628244Y-79036500D01*
X149101756Y-79036500D01*
X149101748Y-79036500D01*
X148987676Y-79051519D01*
X148987675Y-79051519D01*
X148845730Y-79110314D01*
X148805486Y-79141195D01*
X148740316Y-79166389D01*
X148671872Y-79152350D01*
X148654514Y-79141195D01*
X148614269Y-79110314D01*
X148543296Y-79080916D01*
X148472324Y-79051519D01*
X148458064Y-79049641D01*
X148358251Y-79036500D01*
X148358244Y-79036500D01*
X147831756Y-79036500D01*
X147831748Y-79036500D01*
X147717676Y-79051519D01*
X147717675Y-79051519D01*
X147575733Y-79110313D01*
X147453843Y-79203843D01*
X147360313Y-79325733D01*
X147301519Y-79467675D01*
X147301519Y-79467676D01*
X147286500Y-79581748D01*
X147286500Y-79597500D01*
X147266815Y-79664539D01*
X147214011Y-79710294D01*
X147162500Y-79721500D01*
X146771165Y-79721500D01*
X146614976Y-79752567D01*
X146614976Y-79752568D01*
X146614973Y-79752569D01*
X146614969Y-79752570D01*
X146541400Y-79783043D01*
X146541398Y-79783043D01*
X146467834Y-79813514D01*
X146467825Y-79813519D01*
X146335411Y-79901996D01*
X146335407Y-79901999D01*
X144736199Y-81501207D01*
X144736196Y-81501211D01*
X144647717Y-81633628D01*
X144623535Y-81692011D01*
X144586770Y-81780768D01*
X144586768Y-81780776D01*
X144555700Y-81936965D01*
X144555700Y-84599546D01*
X144536015Y-84666585D01*
X144519381Y-84687227D01*
X144026427Y-85180181D01*
X143965104Y-85213666D01*
X143938746Y-85216500D01*
X135585764Y-85216500D01*
X135585744Y-85216499D01*
X135579630Y-85216499D01*
X135420370Y-85216499D01*
X135420368Y-85216499D01*
X135294685Y-85241500D01*
X135294684Y-85241500D01*
X135264172Y-85247568D01*
X135245596Y-85255262D01*
X135221073Y-85265420D01*
X135221072Y-85265420D01*
X135117033Y-85308515D01*
X135117029Y-85308517D01*
X134984615Y-85396993D01*
X134984607Y-85396999D01*
X132246996Y-88134610D01*
X132158519Y-88267026D01*
X132158512Y-88267039D01*
X132130992Y-88333481D01*
X132130992Y-88333482D01*
X132097570Y-88414168D01*
X132097568Y-88414176D01*
X132066500Y-88570365D01*
X132066500Y-93554634D01*
X132097567Y-93710820D01*
X132097569Y-93710827D01*
X132097570Y-93710831D01*
X132100139Y-93717032D01*
X132100141Y-93717036D01*
X132100142Y-93717040D01*
X132158516Y-93857968D01*
X132158517Y-93857971D01*
X132246996Y-93990388D01*
X132246999Y-93990392D01*
X134605181Y-96348573D01*
X134638666Y-96409896D01*
X134641500Y-96436254D01*
X134641500Y-100087247D01*
X134621815Y-100154286D01*
X134600844Y-100178316D01*
X134601015Y-100178487D01*
X134598508Y-100180993D01*
X134598043Y-100181527D01*
X134597576Y-100181925D01*
X134451930Y-100327571D01*
X134451926Y-100327576D01*
X134330873Y-100494193D01*
X134237367Y-100677705D01*
X134173719Y-100873591D01*
X134141500Y-101077019D01*
X134141500Y-101282980D01*
X134173719Y-101486408D01*
X134237367Y-101682294D01*
X134330873Y-101865806D01*
X134451926Y-102032423D01*
X134451930Y-102032428D01*
X134597571Y-102178069D01*
X134597576Y-102178073D01*
X134685806Y-102242175D01*
X134764197Y-102299129D01*
X134881128Y-102358709D01*
X134947705Y-102392632D01*
X134947707Y-102392632D01*
X134947710Y-102392634D01*
X135052707Y-102426749D01*
X135143591Y-102456280D01*
X135245305Y-102472390D01*
X135347019Y-102488500D01*
X135347020Y-102488500D01*
X135552980Y-102488500D01*
X135552981Y-102488500D01*
X135756408Y-102456280D01*
X135952290Y-102392634D01*
X136130139Y-102302015D01*
X136186434Y-102288500D01*
X137713566Y-102288500D01*
X137769861Y-102302015D01*
X137947705Y-102392632D01*
X137947707Y-102392632D01*
X137947710Y-102392634D01*
X138052707Y-102426749D01*
X138143591Y-102456280D01*
X138245305Y-102472390D01*
X138347019Y-102488500D01*
X138347020Y-102488500D01*
X138552980Y-102488500D01*
X138552981Y-102488500D01*
X138756408Y-102456280D01*
X138952290Y-102392634D01*
X139135803Y-102299129D01*
X139302430Y-102178068D01*
X139448068Y-102032430D01*
X139569129Y-101865803D01*
X139662634Y-101682290D01*
X139726280Y-101486408D01*
X139758500Y-101282981D01*
X139758500Y-101077019D01*
X139742704Y-100977286D01*
X139726280Y-100873591D01*
X139662632Y-100677705D01*
X139628709Y-100611128D01*
X139569129Y-100494197D01*
X139505254Y-100406280D01*
X139448073Y-100327576D01*
X139448069Y-100327571D01*
X139302428Y-100181930D01*
X139302423Y-100181926D01*
X139135806Y-100060873D01*
X139135805Y-100060872D01*
X139135803Y-100060871D01*
X139078496Y-100031671D01*
X138952294Y-99967367D01*
X138756408Y-99903719D01*
X138580794Y-99875905D01*
X138552981Y-99871500D01*
X138347019Y-99871500D01*
X138322550Y-99875375D01*
X138143591Y-99903719D01*
X137947705Y-99967367D01*
X137769861Y-100057985D01*
X137713566Y-100071500D01*
X136382500Y-100071500D01*
X136315461Y-100051815D01*
X136269706Y-99999011D01*
X136258500Y-99947500D01*
X136258500Y-95970369D01*
X136258499Y-95970365D01*
X136227431Y-95814176D01*
X136227430Y-95814169D01*
X136193494Y-95732241D01*
X136166484Y-95667032D01*
X136166482Y-95667030D01*
X136166482Y-95667028D01*
X136078003Y-95534611D01*
X136078000Y-95534607D01*
X133719819Y-93176426D01*
X133686334Y-93115103D01*
X133683500Y-93088745D01*
X133683500Y-90770000D01*
X134173391Y-90770000D01*
X135134314Y-90770000D01*
X135129920Y-90774394D01*
X135077259Y-90865606D01*
X135050000Y-90967339D01*
X135050000Y-91072661D01*
X135077259Y-91174394D01*
X135129920Y-91265606D01*
X135134314Y-91270000D01*
X134173391Y-91270000D01*
X134182009Y-91324413D01*
X134245244Y-91519029D01*
X134338140Y-91701349D01*
X134458417Y-91866894D01*
X134458417Y-91866895D01*
X134603104Y-92011582D01*
X134768650Y-92131859D01*
X134950968Y-92224754D01*
X135145578Y-92287988D01*
X135200000Y-92296607D01*
X135200000Y-91335686D01*
X135204394Y-91340080D01*
X135295606Y-91392741D01*
X135397339Y-91420000D01*
X135502661Y-91420000D01*
X135604394Y-91392741D01*
X135695606Y-91340080D01*
X135700000Y-91335686D01*
X135700000Y-92296606D01*
X135754421Y-92287988D01*
X135949031Y-92224754D01*
X136131349Y-92131859D01*
X136296894Y-92011582D01*
X136296895Y-92011582D01*
X136441582Y-91866895D01*
X136441582Y-91866894D01*
X136561859Y-91701349D01*
X136654755Y-91519029D01*
X136717990Y-91324413D01*
X136726609Y-91270000D01*
X135765686Y-91270000D01*
X135770080Y-91265606D01*
X135822741Y-91174394D01*
X135850000Y-91072661D01*
X135850000Y-90967339D01*
X135822741Y-90865606D01*
X135770080Y-90774394D01*
X135765686Y-90770000D01*
X136726609Y-90770000D01*
X136717990Y-90715586D01*
X136654755Y-90520970D01*
X136561859Y-90338650D01*
X136441582Y-90173105D01*
X136441582Y-90173104D01*
X136296895Y-90028417D01*
X136131349Y-89908140D01*
X135949029Y-89815244D01*
X135754413Y-89752009D01*
X135700000Y-89743390D01*
X135700000Y-90704314D01*
X135695606Y-90699920D01*
X135604394Y-90647259D01*
X135502661Y-90620000D01*
X135397339Y-90620000D01*
X135295606Y-90647259D01*
X135204394Y-90699920D01*
X135200000Y-90704314D01*
X135200000Y-89743390D01*
X135145586Y-89752009D01*
X134950970Y-89815244D01*
X134768650Y-89908140D01*
X134603105Y-90028417D01*
X134603104Y-90028417D01*
X134458417Y-90173104D01*
X134458417Y-90173105D01*
X134338140Y-90338650D01*
X134245244Y-90520970D01*
X134182009Y-90715586D01*
X134173391Y-90770000D01*
X133683500Y-90770000D01*
X133683500Y-89036254D01*
X133703185Y-88969215D01*
X133719819Y-88948573D01*
X133801373Y-88867019D01*
X141766500Y-88867019D01*
X141766500Y-89072980D01*
X141798719Y-89276408D01*
X141862367Y-89472294D01*
X141955873Y-89655806D01*
X142076926Y-89822423D01*
X142076930Y-89822428D01*
X142222571Y-89968069D01*
X142222576Y-89968073D01*
X142350712Y-90061168D01*
X142389197Y-90089129D01*
X142484772Y-90137827D01*
X142572705Y-90182632D01*
X142572707Y-90182632D01*
X142572710Y-90182634D01*
X142641204Y-90204889D01*
X142768591Y-90246280D01*
X142870305Y-90262390D01*
X142972019Y-90278500D01*
X142972020Y-90278500D01*
X143177980Y-90278500D01*
X143177981Y-90278500D01*
X143381408Y-90246280D01*
X143577290Y-90182634D01*
X143760803Y-90089129D01*
X143927430Y-89968068D01*
X144073068Y-89822430D01*
X144194129Y-89655803D01*
X144287634Y-89472290D01*
X144351280Y-89276408D01*
X144383500Y-89072981D01*
X144383500Y-88867019D01*
X144371606Y-88791926D01*
X144351280Y-88663591D01*
X144320989Y-88570365D01*
X144287634Y-88467710D01*
X144287632Y-88467707D01*
X144287632Y-88467705D01*
X144232347Y-88359204D01*
X144194129Y-88284197D01*
X144126253Y-88190773D01*
X144073073Y-88117576D01*
X144073069Y-88117571D01*
X143927428Y-87971930D01*
X143927423Y-87971926D01*
X143760806Y-87850873D01*
X143760805Y-87850872D01*
X143760803Y-87850871D01*
X143688342Y-87813950D01*
X143577294Y-87757367D01*
X143381408Y-87693719D01*
X143205794Y-87665905D01*
X143177981Y-87661500D01*
X142972019Y-87661500D01*
X142947550Y-87665375D01*
X142768591Y-87693719D01*
X142572705Y-87757367D01*
X142389193Y-87850873D01*
X142222576Y-87971926D01*
X142222571Y-87971930D01*
X142076930Y-88117571D01*
X142076926Y-88117576D01*
X141955873Y-88284193D01*
X141862367Y-88467705D01*
X141798719Y-88663591D01*
X141766500Y-88867019D01*
X133801373Y-88867019D01*
X135798573Y-86869819D01*
X135859896Y-86836334D01*
X135886254Y-86833500D01*
X144404631Y-86833500D01*
X144404632Y-86833499D01*
X144560831Y-86802430D01*
X144634399Y-86771956D01*
X144707968Y-86741484D01*
X144840389Y-86653003D01*
X145992203Y-85501189D01*
X146080684Y-85368768D01*
X146115045Y-85285811D01*
X146141630Y-85221631D01*
X146172700Y-85065430D01*
X146172700Y-84521748D01*
X147286500Y-84521748D01*
X147286500Y-86418251D01*
X147296620Y-86495112D01*
X147301519Y-86532324D01*
X147360314Y-86674268D01*
X147453843Y-86796157D01*
X147575732Y-86889686D01*
X147717676Y-86948481D01*
X147831756Y-86963500D01*
X147831763Y-86963500D01*
X148358237Y-86963500D01*
X148358244Y-86963500D01*
X148472324Y-86948481D01*
X148614268Y-86889686D01*
X148661496Y-86853446D01*
X148726661Y-86828253D01*
X148795106Y-86842290D01*
X148812466Y-86853447D01*
X148850019Y-86882262D01*
X148850018Y-86882262D01*
X148989891Y-86940198D01*
X148989895Y-86940199D01*
X149102302Y-86954999D01*
X149102317Y-86955000D01*
X149115000Y-86955000D01*
X149115000Y-83985000D01*
X149102302Y-83985000D01*
X148989895Y-83999800D01*
X148989891Y-83999801D01*
X148850019Y-84057737D01*
X148812465Y-84086553D01*
X148747295Y-84111746D01*
X148678851Y-84097707D01*
X148661495Y-84086553D01*
X148614268Y-84050314D01*
X148472324Y-83991519D01*
X148458064Y-83989641D01*
X148358251Y-83976500D01*
X148358244Y-83976500D01*
X147831756Y-83976500D01*
X147831748Y-83976500D01*
X147717676Y-83991519D01*
X147717675Y-83991519D01*
X147575733Y-84050313D01*
X147453843Y-84143843D01*
X147360313Y-84265733D01*
X147301519Y-84407675D01*
X147301519Y-84407676D01*
X147286500Y-84521748D01*
X146172700Y-84521748D01*
X146172700Y-82402854D01*
X146192385Y-82335815D01*
X146209019Y-82315173D01*
X146644514Y-81879678D01*
X147080717Y-81443474D01*
X147142038Y-81409991D01*
X147211729Y-81414975D01*
X147267663Y-81456847D01*
X147291335Y-81514971D01*
X147301519Y-81592322D01*
X147301519Y-81592324D01*
X147349640Y-81708500D01*
X147360314Y-81734268D01*
X147453843Y-81856157D01*
X147575732Y-81949686D01*
X147717676Y-82008481D01*
X147831756Y-82023500D01*
X147831763Y-82023500D01*
X148358237Y-82023500D01*
X148358244Y-82023500D01*
X148444294Y-82012171D01*
X148475324Y-82017009D01*
X148506594Y-82020003D01*
X148509578Y-82022350D01*
X148513330Y-82022936D01*
X148536821Y-82043786D01*
X148561505Y-82063207D01*
X148563244Y-82067238D01*
X148565586Y-82069316D01*
X148577670Y-82094582D01*
X148580442Y-82102599D01*
X148587570Y-82138431D01*
X148618043Y-82211999D01*
X148619461Y-82215423D01*
X148619463Y-82215428D01*
X148648512Y-82285561D01*
X148648519Y-82285574D01*
X148736996Y-82417988D01*
X148736999Y-82417992D01*
X149751010Y-83432003D01*
X149808160Y-83470189D01*
X149883432Y-83520484D01*
X149934885Y-83541796D01*
X150030569Y-83581430D01*
X150186765Y-83612499D01*
X150186769Y-83612500D01*
X150186770Y-83612500D01*
X150346030Y-83612500D01*
X150464346Y-83612500D01*
X150493786Y-83621144D01*
X150523773Y-83627668D01*
X150528788Y-83631422D01*
X150531385Y-83632185D01*
X150552027Y-83648819D01*
X150668027Y-83764819D01*
X150701512Y-83826142D01*
X150696528Y-83895834D01*
X150654656Y-83951767D01*
X150589192Y-83976184D01*
X150580346Y-83976500D01*
X150371748Y-83976500D01*
X150257676Y-83991519D01*
X150257675Y-83991519D01*
X150115731Y-84050314D01*
X150068505Y-84086552D01*
X150003335Y-84111746D01*
X149934891Y-84097707D01*
X149917533Y-84086552D01*
X149879980Y-84057737D01*
X149879981Y-84057737D01*
X149740108Y-83999801D01*
X149740104Y-83999800D01*
X149627697Y-83985000D01*
X149615000Y-83985000D01*
X149615000Y-86955000D01*
X149627683Y-86955000D01*
X149627694Y-86954999D01*
X149686313Y-86947281D01*
X149703214Y-86949916D01*
X149720147Y-86947482D01*
X149737021Y-86955188D01*
X149755348Y-86958046D01*
X149768141Y-86969400D01*
X149783703Y-86976507D01*
X149793731Y-86992112D01*
X149807605Y-87004425D01*
X149812420Y-87021192D01*
X149821477Y-87035285D01*
X149826500Y-87070220D01*
X149826500Y-87230745D01*
X149806815Y-87297784D01*
X149790181Y-87318426D01*
X147326999Y-89781607D01*
X147326996Y-89781610D01*
X147238519Y-89914026D01*
X147238512Y-89914039D01*
X147224992Y-89946682D01*
X147224992Y-89946683D01*
X147177570Y-90061168D01*
X147177568Y-90061176D01*
X147146500Y-90217365D01*
X147146500Y-90376634D01*
X147177568Y-90532823D01*
X147177570Y-90532831D01*
X147203364Y-90595103D01*
X147238516Y-90679968D01*
X147238517Y-90679971D01*
X147326996Y-90812388D01*
X147326999Y-90812392D01*
X147439610Y-90925003D01*
X147502971Y-90967339D01*
X147572032Y-91013484D01*
X147600761Y-91025383D01*
X147645602Y-91043957D01*
X147719169Y-91074430D01*
X147875365Y-91105499D01*
X147875369Y-91105500D01*
X147875370Y-91105500D01*
X148034631Y-91105500D01*
X148034632Y-91105499D01*
X148190831Y-91074430D01*
X148264399Y-91043956D01*
X148337968Y-91013484D01*
X148470389Y-90925003D01*
X150884819Y-88510573D01*
X150946142Y-88477088D01*
X151015834Y-88482072D01*
X151071767Y-88523944D01*
X151096184Y-88589408D01*
X151096500Y-88598254D01*
X151096500Y-90050146D01*
X151076815Y-90117185D01*
X151060181Y-90137827D01*
X148005327Y-93192681D01*
X147944004Y-93226166D01*
X147917646Y-93229000D01*
X145577355Y-93229000D01*
X145510316Y-93209315D01*
X145504470Y-93205318D01*
X145430984Y-93151928D01*
X145430983Y-93151927D01*
X145430981Y-93151926D01*
X145380389Y-93126148D01*
X145275516Y-93072711D01*
X145275513Y-93072710D01*
X145109575Y-93018795D01*
X145023407Y-93005147D01*
X144937241Y-92991500D01*
X144937240Y-92991500D01*
X142040518Y-92991500D01*
X141973479Y-92971815D01*
X141952837Y-92955181D01*
X139754565Y-90756909D01*
X139724316Y-90707547D01*
X139662634Y-90517710D01*
X139569129Y-90334197D01*
X139519560Y-90265971D01*
X139448073Y-90167576D01*
X139448069Y-90167571D01*
X139302428Y-90021930D01*
X139302423Y-90021926D01*
X139135806Y-89900873D01*
X139135805Y-89900872D01*
X139135803Y-89900871D01*
X139078496Y-89871671D01*
X138952294Y-89807367D01*
X138756408Y-89743719D01*
X138580794Y-89715905D01*
X138552981Y-89711500D01*
X138347019Y-89711500D01*
X138322550Y-89715375D01*
X138143591Y-89743719D01*
X137947705Y-89807367D01*
X137764193Y-89900873D01*
X137597576Y-90021926D01*
X137597571Y-90021930D01*
X137451930Y-90167571D01*
X137451926Y-90167576D01*
X137330873Y-90334193D01*
X137237367Y-90517705D01*
X137173719Y-90713591D01*
X137141500Y-90917019D01*
X137141500Y-91122980D01*
X137173719Y-91326408D01*
X137237367Y-91522294D01*
X137330873Y-91705806D01*
X137451926Y-91872423D01*
X137451930Y-91872428D01*
X137597571Y-92018069D01*
X137597576Y-92018073D01*
X137660311Y-92063652D01*
X137764197Y-92139129D01*
X137947710Y-92232634D01*
X138137547Y-92294316D01*
X138186909Y-92324565D01*
X141930181Y-96067837D01*
X141963666Y-96129160D01*
X141966500Y-96155518D01*
X141966500Y-98393566D01*
X141952985Y-98449861D01*
X141862367Y-98627705D01*
X141798719Y-98823591D01*
X141766500Y-99027019D01*
X141766500Y-99232980D01*
X141798719Y-99436408D01*
X141862367Y-99632294D01*
X141955873Y-99815806D01*
X142076926Y-99982423D01*
X142076930Y-99982428D01*
X142222571Y-100128069D01*
X142222576Y-100128073D01*
X142340694Y-100213890D01*
X142389197Y-100249129D01*
X142506128Y-100308709D01*
X142572705Y-100342632D01*
X142572707Y-100342632D01*
X142572710Y-100342634D01*
X142677707Y-100376749D01*
X142768591Y-100406280D01*
X142870305Y-100422390D01*
X142972019Y-100438500D01*
X142972020Y-100438500D01*
X143177980Y-100438500D01*
X143177981Y-100438500D01*
X143381408Y-100406280D01*
X143577290Y-100342634D01*
X143760803Y-100249129D01*
X143927430Y-100128068D01*
X144073068Y-99982430D01*
X144194129Y-99815803D01*
X144287634Y-99632290D01*
X144351280Y-99436408D01*
X144383500Y-99232981D01*
X144383500Y-99027019D01*
X144363463Y-98900511D01*
X144351280Y-98823591D01*
X144316809Y-98717500D01*
X144287634Y-98627710D01*
X144287632Y-98627707D01*
X144287632Y-98627705D01*
X144197015Y-98449861D01*
X144183500Y-98393566D01*
X144183500Y-95557759D01*
X144171909Y-95484577D01*
X144156205Y-95385426D01*
X144151459Y-95370818D01*
X144149464Y-95300976D01*
X144185545Y-95241144D01*
X144248246Y-95210316D01*
X144269390Y-95208500D01*
X144937240Y-95208500D01*
X144937241Y-95208500D01*
X145109574Y-95181205D01*
X145275516Y-95127288D01*
X145430981Y-95048074D01*
X145572139Y-94945517D01*
X145635337Y-94882319D01*
X145696660Y-94848834D01*
X145723018Y-94846000D01*
X148383531Y-94846000D01*
X148383532Y-94845999D01*
X148539731Y-94814930D01*
X148613299Y-94784456D01*
X148686868Y-94753984D01*
X148819289Y-94665503D01*
X151817318Y-91667471D01*
X151878641Y-91633987D01*
X151948333Y-91638971D01*
X151992680Y-91667472D01*
X154857007Y-94531800D01*
X154857010Y-94531803D01*
X154989426Y-94620280D01*
X154989432Y-94620284D01*
X155018161Y-94632183D01*
X155091885Y-94662721D01*
X155136569Y-94681230D01*
X155292765Y-94712299D01*
X155292769Y-94712300D01*
X155292770Y-94712300D01*
X164671631Y-94712300D01*
X164671632Y-94712299D01*
X164827831Y-94681230D01*
X164974968Y-94620283D01*
X165107389Y-94531803D01*
X165220003Y-94419189D01*
X165308483Y-94286768D01*
X165369430Y-94139631D01*
X165400500Y-93983430D01*
X165400500Y-93807882D01*
X167720669Y-93807882D01*
X167720670Y-93807883D01*
X167746059Y-93826329D01*
X167914362Y-93912085D01*
X168093997Y-93970451D01*
X168280553Y-94000000D01*
X168469447Y-94000000D01*
X168656002Y-93970451D01*
X168835637Y-93912085D01*
X169003937Y-93826331D01*
X169029328Y-93807883D01*
X169029328Y-93807882D01*
X168375001Y-93153554D01*
X168375000Y-93153554D01*
X167720669Y-93807882D01*
X165400500Y-93807882D01*
X165400500Y-92705552D01*
X167175000Y-92705552D01*
X167175000Y-92894447D01*
X167204548Y-93081002D01*
X167262914Y-93260637D01*
X167348666Y-93428933D01*
X167367116Y-93454328D01*
X168021446Y-92800000D01*
X168021446Y-92799999D01*
X167975369Y-92753922D01*
X168025000Y-92753922D01*
X168025000Y-92846078D01*
X168048852Y-92935095D01*
X168094930Y-93014905D01*
X168160095Y-93080070D01*
X168239905Y-93126148D01*
X168328922Y-93150000D01*
X168421078Y-93150000D01*
X168510095Y-93126148D01*
X168589905Y-93080070D01*
X168655070Y-93014905D01*
X168701148Y-92935095D01*
X168725000Y-92846078D01*
X168725000Y-92799999D01*
X168728554Y-92799999D01*
X168728554Y-92800000D01*
X169382882Y-93454328D01*
X169382883Y-93454328D01*
X169401331Y-93428937D01*
X169487085Y-93260637D01*
X169545451Y-93081002D01*
X169575000Y-92894447D01*
X169575000Y-92705552D01*
X169545451Y-92518997D01*
X169487085Y-92339362D01*
X169401329Y-92171059D01*
X169382883Y-92145670D01*
X169382882Y-92145669D01*
X168728554Y-92799999D01*
X168725000Y-92799999D01*
X168725000Y-92753922D01*
X168701148Y-92664905D01*
X168655070Y-92585095D01*
X168589905Y-92519930D01*
X168510095Y-92473852D01*
X168421078Y-92450000D01*
X168328922Y-92450000D01*
X168239905Y-92473852D01*
X168160095Y-92519930D01*
X168094930Y-92585095D01*
X168048852Y-92664905D01*
X168025000Y-92753922D01*
X167975369Y-92753922D01*
X167367116Y-92145669D01*
X167367116Y-92145670D01*
X167348669Y-92171060D01*
X167262914Y-92339362D01*
X167204548Y-92518997D01*
X167175000Y-92705552D01*
X165400500Y-92705552D01*
X165400500Y-90547570D01*
X165369430Y-90391369D01*
X165328390Y-90292290D01*
X165308484Y-90244232D01*
X165308483Y-90244230D01*
X165308482Y-90244228D01*
X165220003Y-90111811D01*
X165220000Y-90111807D01*
X162617419Y-87509226D01*
X162583934Y-87447903D01*
X162581100Y-87421545D01*
X162581100Y-86547499D01*
X162600785Y-86480460D01*
X162653589Y-86434705D01*
X162705100Y-86423499D01*
X163248137Y-86423499D01*
X163248144Y-86423499D01*
X163352026Y-86412887D01*
X163520338Y-86357115D01*
X163671252Y-86264030D01*
X163787963Y-86147319D01*
X163849286Y-86113834D01*
X163875644Y-86111000D01*
X167144100Y-86111000D01*
X167211139Y-86130685D01*
X167256894Y-86183489D01*
X167268100Y-86235000D01*
X167268100Y-87086254D01*
X167274611Y-87146802D01*
X167274611Y-87146804D01*
X167322793Y-87275981D01*
X167325711Y-87283804D01*
X167413339Y-87400861D01*
X167518411Y-87479517D01*
X167560282Y-87535451D01*
X167568100Y-87578784D01*
X167568100Y-89346461D01*
X167548415Y-89413500D01*
X167531781Y-89434142D01*
X167453210Y-89512712D01*
X167453210Y-89512713D01*
X167453208Y-89512715D01*
X167405189Y-89578806D01*
X167341398Y-89666607D01*
X167255040Y-89836092D01*
X167196256Y-90017008D01*
X167166500Y-90204883D01*
X167166500Y-90395116D01*
X167196256Y-90582991D01*
X167255040Y-90763907D01*
X167337124Y-90925003D01*
X167341398Y-90933392D01*
X167453208Y-91087285D01*
X167587715Y-91221792D01*
X167741608Y-91333602D01*
X167821683Y-91374402D01*
X167911092Y-91419959D01*
X167911094Y-91419959D01*
X167911097Y-91419961D01*
X167962115Y-91436537D01*
X168019789Y-91475975D01*
X168046987Y-91540334D01*
X168035072Y-91609180D01*
X167987828Y-91660656D01*
X167962114Y-91672399D01*
X167914361Y-91687915D01*
X167746060Y-91773669D01*
X167720670Y-91792116D01*
X167720669Y-91792116D01*
X168375000Y-92446446D01*
X168375001Y-92446446D01*
X169029328Y-91792116D01*
X169003933Y-91773666D01*
X168835636Y-91687914D01*
X168787886Y-91672399D01*
X168730210Y-91632961D01*
X168703012Y-91568603D01*
X168714927Y-91499756D01*
X168762171Y-91448281D01*
X168787882Y-91436538D01*
X168838903Y-91419961D01*
X169008392Y-91333602D01*
X169162285Y-91221792D01*
X169296792Y-91087285D01*
X169408602Y-90933392D01*
X169494961Y-90763903D01*
X169553743Y-90582991D01*
X169559354Y-90547565D01*
X169583500Y-90395116D01*
X169583500Y-90204883D01*
X169553743Y-90017008D01*
X169494959Y-89836092D01*
X169447724Y-89743390D01*
X169408602Y-89666608D01*
X169296792Y-89512715D01*
X169221419Y-89437342D01*
X169187934Y-89376019D01*
X169185100Y-89349661D01*
X169185100Y-87578784D01*
X169204785Y-87511745D01*
X169234789Y-87479517D01*
X169339861Y-87400861D01*
X169427489Y-87283804D01*
X169478589Y-87146801D01*
X169483421Y-87101854D01*
X169485099Y-87086254D01*
X169485100Y-87086237D01*
X169485100Y-86088962D01*
X169485099Y-86088945D01*
X169481580Y-86056217D01*
X169478589Y-86028399D01*
X169477572Y-86025673D01*
X169442141Y-85930679D01*
X169427489Y-85891396D01*
X169339861Y-85774339D01*
X169222804Y-85686711D01*
X169222803Y-85686710D01*
X169215704Y-85681396D01*
X169216624Y-85680166D01*
X169203542Y-85667085D01*
X169181400Y-85649356D01*
X169178116Y-85641658D01*
X169174201Y-85637743D01*
X169165503Y-85617845D01*
X169162969Y-85610313D01*
X169154030Y-85565369D01*
X169122811Y-85490000D01*
X169093084Y-85418231D01*
X169060031Y-85368764D01*
X169004603Y-85285810D01*
X168393292Y-84674499D01*
X168393288Y-84674496D01*
X168260874Y-84586019D01*
X168260870Y-84586017D01*
X168260868Y-84586016D01*
X168187299Y-84555543D01*
X168113731Y-84525070D01*
X168079001Y-84518161D01*
X168078993Y-84518159D01*
X167957534Y-84494000D01*
X167952484Y-84493503D01*
X167887697Y-84467343D01*
X167847337Y-84410309D01*
X167844219Y-84340509D01*
X167879333Y-84280104D01*
X167941531Y-84248272D01*
X167964637Y-84246100D01*
X168030621Y-84246100D01*
X168034257Y-84246823D01*
X168036647Y-84246246D01*
X168071296Y-84252961D01*
X168074717Y-84254149D01*
X168082431Y-84257344D01*
X168277266Y-84296099D01*
X168277270Y-84296100D01*
X168277271Y-84296100D01*
X170778704Y-84296100D01*
X170845743Y-84315785D01*
X170866385Y-84332419D01*
X171607190Y-85073224D01*
X171640675Y-85134547D01*
X171635691Y-85204239D01*
X171593819Y-85260172D01*
X171562845Y-85277086D01*
X171503794Y-85299111D01*
X171386739Y-85386739D01*
X171299111Y-85503795D01*
X171248011Y-85640795D01*
X171248011Y-85640797D01*
X171241500Y-85701345D01*
X171241500Y-88298654D01*
X171248011Y-88359202D01*
X171248011Y-88359204D01*
X171284933Y-88458192D01*
X171299111Y-88496204D01*
X171386739Y-88613261D01*
X171503796Y-88700889D01*
X171640799Y-88751989D01*
X171668050Y-88754918D01*
X171701345Y-88758499D01*
X171701362Y-88758500D01*
X174298638Y-88758500D01*
X174298654Y-88758499D01*
X174325692Y-88755591D01*
X174359201Y-88751989D01*
X174496204Y-88700889D01*
X174613261Y-88613261D01*
X174700889Y-88496204D01*
X174751989Y-88359201D01*
X174758500Y-88298638D01*
X174758500Y-86885305D01*
X176250000Y-86885305D01*
X176250000Y-87114694D01*
X176250001Y-87114710D01*
X176279942Y-87342137D01*
X176339318Y-87563730D01*
X176427102Y-87775659D01*
X176427106Y-87775669D01*
X176541799Y-87974324D01*
X176541805Y-87974331D01*
X176598381Y-88048064D01*
X177398958Y-87247487D01*
X177423978Y-87307890D01*
X177495112Y-87414351D01*
X177585649Y-87504888D01*
X177692110Y-87576022D01*
X177752511Y-87601041D01*
X176951934Y-88401617D01*
X176951934Y-88401618D01*
X177025666Y-88458194D01*
X177224330Y-88572893D01*
X177224340Y-88572897D01*
X177436269Y-88660681D01*
X177657862Y-88720057D01*
X177885289Y-88749998D01*
X177885306Y-88750000D01*
X178114694Y-88750000D01*
X178114710Y-88749998D01*
X178342137Y-88720057D01*
X178563730Y-88660681D01*
X178775659Y-88572897D01*
X178775668Y-88572893D01*
X178974327Y-88458197D01*
X178974334Y-88458192D01*
X179048064Y-88401617D01*
X178783911Y-88137464D01*
X190691500Y-88137464D01*
X190691500Y-88462536D01*
X190696231Y-88510573D01*
X190723361Y-88786032D01*
X190723364Y-88786049D01*
X190786775Y-89104848D01*
X190786778Y-89104859D01*
X190881145Y-89415945D01*
X190921228Y-89512713D01*
X191003568Y-89711500D01*
X191005546Y-89716274D01*
X191005548Y-89716279D01*
X191158776Y-90002948D01*
X191158793Y-90002976D01*
X191339370Y-90273230D01*
X191339387Y-90273253D01*
X191545611Y-90524537D01*
X191775462Y-90754388D01*
X191775467Y-90754392D01*
X191775468Y-90754393D01*
X192026752Y-90960617D01*
X192026759Y-90960622D01*
X192026769Y-90960629D01*
X192297023Y-91141206D01*
X192297028Y-91141209D01*
X192297040Y-91141217D01*
X192297049Y-91141221D01*
X192297051Y-91141223D01*
X192583720Y-91294451D01*
X192583722Y-91294451D01*
X192583728Y-91294455D01*
X192884056Y-91418855D01*
X193195131Y-91513219D01*
X193195137Y-91513220D01*
X193195140Y-91513221D01*
X193195151Y-91513224D01*
X193395066Y-91552988D01*
X193513957Y-91576637D01*
X193837464Y-91608500D01*
X193837467Y-91608500D01*
X194162533Y-91608500D01*
X194162536Y-91608500D01*
X194486043Y-91576637D01*
X194668552Y-91540334D01*
X194804848Y-91513224D01*
X194804859Y-91513221D01*
X194804859Y-91513220D01*
X194804869Y-91513219D01*
X195115944Y-91418855D01*
X195416272Y-91294455D01*
X195702960Y-91141217D01*
X195973248Y-90960617D01*
X196224532Y-90754393D01*
X196454393Y-90524532D01*
X196660617Y-90273248D01*
X196841217Y-90002960D01*
X196994455Y-89716272D01*
X197118855Y-89415944D01*
X197213219Y-89104869D01*
X197213221Y-89104859D01*
X197213224Y-89104848D01*
X197254903Y-88895308D01*
X197276637Y-88786043D01*
X197308500Y-88462536D01*
X197308500Y-88137464D01*
X197276637Y-87813957D01*
X197229859Y-87578784D01*
X197213224Y-87495151D01*
X197213221Y-87495140D01*
X197213220Y-87495137D01*
X197213219Y-87495131D01*
X197118855Y-87184056D01*
X196994455Y-86883728D01*
X196993671Y-86882262D01*
X196841223Y-86597051D01*
X196841221Y-86597049D01*
X196841217Y-86597040D01*
X196836087Y-86589362D01*
X196660629Y-86326769D01*
X196660622Y-86326759D01*
X196660617Y-86326752D01*
X196454393Y-86075468D01*
X196454392Y-86075467D01*
X196454388Y-86075462D01*
X196224537Y-85845611D01*
X195973253Y-85639387D01*
X195973230Y-85639370D01*
X195702976Y-85458793D01*
X195702948Y-85458776D01*
X195416279Y-85305548D01*
X195416274Y-85305546D01*
X195373914Y-85288000D01*
X195261654Y-85241500D01*
X195115945Y-85181145D01*
X194804859Y-85086778D01*
X194804848Y-85086775D01*
X194486049Y-85023364D01*
X194486032Y-85023361D01*
X194241395Y-84999267D01*
X194162536Y-84991500D01*
X193837464Y-84991500D01*
X193764530Y-84998683D01*
X193513967Y-85023361D01*
X193513950Y-85023364D01*
X193195151Y-85086775D01*
X193195140Y-85086778D01*
X192884054Y-85181145D01*
X192583725Y-85305546D01*
X192583720Y-85305548D01*
X192297051Y-85458776D01*
X192297023Y-85458793D01*
X192026769Y-85639370D01*
X192026746Y-85639387D01*
X191775462Y-85845611D01*
X191545611Y-86075462D01*
X191339387Y-86326746D01*
X191339370Y-86326769D01*
X191158793Y-86597023D01*
X191158776Y-86597051D01*
X191005548Y-86883720D01*
X191005546Y-86883725D01*
X190881145Y-87184054D01*
X190786778Y-87495140D01*
X190786775Y-87495151D01*
X190723364Y-87813950D01*
X190723361Y-87813967D01*
X190707567Y-87974331D01*
X190691500Y-88137464D01*
X178783911Y-88137464D01*
X178247488Y-87601041D01*
X178307890Y-87576022D01*
X178414351Y-87504888D01*
X178504888Y-87414351D01*
X178576022Y-87307890D01*
X178601041Y-87247488D01*
X179401617Y-88048064D01*
X179458192Y-87974334D01*
X179458197Y-87974327D01*
X179572893Y-87775668D01*
X179572897Y-87775659D01*
X179660681Y-87563730D01*
X179720057Y-87342137D01*
X179749998Y-87114710D01*
X179750000Y-87114694D01*
X179750000Y-86885305D01*
X179749998Y-86885289D01*
X179720057Y-86657862D01*
X179660681Y-86436269D01*
X179572897Y-86224340D01*
X179572893Y-86224330D01*
X179458194Y-86025666D01*
X179401618Y-85951934D01*
X179401617Y-85951934D01*
X178601041Y-86752510D01*
X178576022Y-86692110D01*
X178504888Y-86585649D01*
X178414351Y-86495112D01*
X178307890Y-86423978D01*
X178247487Y-86398957D01*
X179048064Y-85598381D01*
X179048064Y-85598380D01*
X178974331Y-85541805D01*
X178974324Y-85541799D01*
X178775669Y-85427106D01*
X178775659Y-85427102D01*
X178563730Y-85339318D01*
X178342137Y-85279942D01*
X178114710Y-85250001D01*
X178114694Y-85250000D01*
X177885306Y-85250000D01*
X177885289Y-85250001D01*
X177657862Y-85279942D01*
X177436269Y-85339318D01*
X177224340Y-85427102D01*
X177224330Y-85427106D01*
X177025673Y-85541801D01*
X177025659Y-85541810D01*
X176951934Y-85598380D01*
X177752511Y-86398958D01*
X177692110Y-86423978D01*
X177585649Y-86495112D01*
X177495112Y-86585649D01*
X177423978Y-86692110D01*
X177398958Y-86752511D01*
X176598380Y-85951934D01*
X176541810Y-86025659D01*
X176541801Y-86025673D01*
X176427106Y-86224330D01*
X176427102Y-86224340D01*
X176339318Y-86436269D01*
X176279942Y-86657862D01*
X176250001Y-86885289D01*
X176250000Y-86885305D01*
X174758500Y-86885305D01*
X174758500Y-85701362D01*
X174753552Y-85655342D01*
X174752081Y-85641658D01*
X174751989Y-85640799D01*
X174751462Y-85639387D01*
X174717161Y-85547423D01*
X174700889Y-85503796D01*
X174613261Y-85386739D01*
X174496204Y-85299111D01*
X174460546Y-85285811D01*
X174359203Y-85248011D01*
X174298654Y-85241500D01*
X174298638Y-85241500D01*
X174132500Y-85241500D01*
X174065461Y-85221815D01*
X174019706Y-85169011D01*
X174008500Y-85117500D01*
X174008500Y-84940470D01*
X174008499Y-84940466D01*
X173984839Y-84821519D01*
X173969744Y-84745631D01*
X173903630Y-84586019D01*
X173893722Y-84562098D01*
X173893717Y-84562089D01*
X173783354Y-84396920D01*
X173718853Y-84332419D01*
X173642881Y-84256447D01*
X172774271Y-83387837D01*
X171890684Y-82504249D01*
X171890680Y-82504246D01*
X171725510Y-82393882D01*
X171725497Y-82393875D01*
X171689630Y-82379019D01*
X171689629Y-82379019D01*
X171541969Y-82317856D01*
X171541961Y-82317854D01*
X171347133Y-82279100D01*
X171347129Y-82279100D01*
X168277271Y-82279100D01*
X168277266Y-82279100D01*
X168082438Y-82317854D01*
X168082434Y-82317855D01*
X168082432Y-82317855D01*
X168082431Y-82317856D01*
X168078071Y-82319661D01*
X168030621Y-82329100D01*
X167727945Y-82329100D01*
X167667397Y-82335611D01*
X167667395Y-82335611D01*
X167530395Y-82386711D01*
X167413339Y-82474339D01*
X167325711Y-82591395D01*
X167274611Y-82728395D01*
X167274611Y-82728397D01*
X167268100Y-82788945D01*
X167268100Y-83786254D01*
X167274611Y-83846802D01*
X167274611Y-83846804D01*
X167320749Y-83970500D01*
X167325711Y-83983804D01*
X167413339Y-84100861D01*
X167530396Y-84188489D01*
X167667399Y-84239589D01*
X167694650Y-84242518D01*
X167727945Y-84246099D01*
X167727960Y-84246099D01*
X167727962Y-84246100D01*
X167727964Y-84246100D01*
X167729401Y-84246177D01*
X167729721Y-84246290D01*
X167731265Y-84246456D01*
X167731225Y-84246820D01*
X167795292Y-84269417D01*
X167838159Y-84324591D01*
X167844392Y-84394182D01*
X167812012Y-84456096D01*
X167751299Y-84490674D01*
X167722773Y-84494000D01*
X163875644Y-84494000D01*
X163808605Y-84474315D01*
X163787963Y-84457681D01*
X163671253Y-84340971D01*
X163671252Y-84340970D01*
X163549274Y-84265733D01*
X163520340Y-84247886D01*
X163520335Y-84247884D01*
X163352027Y-84192113D01*
X163248152Y-84181500D01*
X160387500Y-84181500D01*
X160320461Y-84161815D01*
X160274706Y-84109011D01*
X160263500Y-84057500D01*
X160263500Y-75400000D01*
X160283185Y-75332961D01*
X160335989Y-75287206D01*
X160387500Y-75276000D01*
X160403638Y-75276000D01*
X160403654Y-75275999D01*
X160430692Y-75273091D01*
X160464201Y-75269489D01*
X160601204Y-75218389D01*
X160718261Y-75130761D01*
X160805889Y-75013704D01*
X160856989Y-74876701D01*
X160860591Y-74843192D01*
X160863499Y-74816154D01*
X160863500Y-74816137D01*
X160863500Y-72813862D01*
X160863499Y-72813845D01*
X160859466Y-72776337D01*
X160856989Y-72753299D01*
X160805889Y-72616296D01*
X160718261Y-72499239D01*
X160601204Y-72411611D01*
X160601202Y-72411610D01*
X160601203Y-72411610D01*
X160582117Y-72404491D01*
X160561649Y-72389167D01*
X160539033Y-72377234D01*
X160534143Y-72368576D01*
X160526185Y-72362618D01*
X160517250Y-72338662D01*
X160504676Y-72316395D01*
X160505243Y-72306467D01*
X160501770Y-72297153D01*
X160507205Y-72272169D01*
X160508666Y-72246640D01*
X160515632Y-72233436D01*
X160516624Y-72228881D01*
X160525133Y-72215430D01*
X160554791Y-72174611D01*
X160583851Y-72134614D01*
X160639181Y-72091948D01*
X160684168Y-72083500D01*
X162129631Y-72083500D01*
X162129632Y-72083499D01*
X162285831Y-72052430D01*
X162373275Y-72016209D01*
X162432968Y-71991484D01*
X162565389Y-71903003D01*
X163503003Y-70965389D01*
X163591484Y-70832968D01*
X163631614Y-70736084D01*
X163652430Y-70685831D01*
X163683500Y-70529630D01*
X163683500Y-67170370D01*
X163677660Y-67141010D01*
X163652432Y-67014176D01*
X163652430Y-67014173D01*
X163652430Y-67014169D01*
X163632808Y-66966797D01*
X163591484Y-66867032D01*
X163591483Y-66867031D01*
X163591480Y-66867025D01*
X163503003Y-66734611D01*
X163503000Y-66734607D01*
X161375792Y-64607399D01*
X161375788Y-64607396D01*
X161243374Y-64518919D01*
X161243370Y-64518917D01*
X161243368Y-64518916D01*
X161169799Y-64488443D01*
X161169797Y-64488442D01*
X161169796Y-64488441D01*
X161096231Y-64457970D01*
X161096223Y-64457968D01*
X160940034Y-64426900D01*
X160940030Y-64426900D01*
X159022100Y-64426900D01*
X158955061Y-64407215D01*
X158909306Y-64354411D01*
X158898100Y-64302900D01*
X158898100Y-60486964D01*
X158898101Y-60486943D01*
X158898101Y-60321567D01*
X158867030Y-60165369D01*
X158867029Y-60165368D01*
X158865870Y-60162569D01*
X158865865Y-60162557D01*
X158841872Y-60104632D01*
X158806087Y-60018238D01*
X158806080Y-60018225D01*
X158717603Y-59885811D01*
X158717600Y-59885807D01*
X158189292Y-59357499D01*
X158189288Y-59357496D01*
X158056871Y-59269017D01*
X158056868Y-59269016D01*
X157962916Y-59230100D01*
X157909731Y-59208070D01*
X157909723Y-59208068D01*
X157753534Y-59177000D01*
X157753530Y-59177000D01*
X156509644Y-59177000D01*
X156442605Y-59157315D01*
X156421963Y-59140681D01*
X156305253Y-59023971D01*
X156305252Y-59023970D01*
X156185059Y-58949834D01*
X156154340Y-58930886D01*
X156154335Y-58930884D01*
X155986027Y-58875113D01*
X155882145Y-58864500D01*
X152931062Y-58864500D01*
X152931046Y-58864501D01*
X152827172Y-58875113D01*
X152658864Y-58930884D01*
X152658859Y-58930886D01*
X152507946Y-59023971D01*
X152382571Y-59149346D01*
X152289486Y-59300259D01*
X152289484Y-59300264D01*
X152233713Y-59468572D01*
X152223100Y-59572447D01*
X152223100Y-60398537D01*
X152223101Y-60398553D01*
X152233713Y-60502427D01*
X152289484Y-60670735D01*
X152289486Y-60670740D01*
X152297051Y-60683004D01*
X152382570Y-60821652D01*
X152507948Y-60947030D01*
X152658862Y-61040115D01*
X152827174Y-61095887D01*
X152931055Y-61106500D01*
X155882144Y-61106499D01*
X155986026Y-61095887D01*
X156154338Y-61040115D01*
X156305252Y-60947030D01*
X156421963Y-60830319D01*
X156483286Y-60796834D01*
X156509644Y-60794000D01*
X157157100Y-60794000D01*
X157224139Y-60813685D01*
X157269894Y-60866489D01*
X157281100Y-60918000D01*
X157281100Y-64849145D01*
X157261415Y-64916184D01*
X157244781Y-64936826D01*
X150006999Y-72174607D01*
X150006996Y-72174610D01*
X149918519Y-72307026D01*
X149918513Y-72307038D01*
X149899062Y-72353999D01*
X149899062Y-72354000D01*
X149857570Y-72454168D01*
X149857568Y-72454176D01*
X149826500Y-72610365D01*
X149826500Y-76111678D01*
X149806815Y-76178717D01*
X149754011Y-76224472D01*
X149684853Y-76234416D01*
X149678312Y-76233296D01*
X149660231Y-76229700D01*
X149660230Y-76229700D01*
X144154564Y-76229700D01*
X144154544Y-76229699D01*
X144148430Y-76229699D01*
X143989170Y-76229699D01*
X143989168Y-76229699D01*
X143864976Y-76254403D01*
X143864972Y-76254404D01*
X143858885Y-76255615D01*
X143832969Y-76260770D01*
X143807116Y-76271479D01*
X143801610Y-76273759D01*
X143801602Y-76273762D01*
X143685834Y-76321714D01*
X143685825Y-76321719D01*
X143553411Y-76410196D01*
X143553407Y-76410199D01*
X142371288Y-77592320D01*
X141978611Y-77984997D01*
X141922303Y-78041305D01*
X141865995Y-78097612D01*
X141777519Y-78230026D01*
X141777512Y-78230038D01*
X141716571Y-78377167D01*
X141716569Y-78377175D01*
X141685500Y-78533367D01*
X141685500Y-78692629D01*
X141689117Y-78710812D01*
X141691500Y-78735006D01*
X141691500Y-79548061D01*
X141671815Y-79615100D01*
X141655181Y-79635742D01*
X141578210Y-79712712D01*
X141578210Y-79712713D01*
X141578208Y-79712715D01*
X141549254Y-79752567D01*
X141466398Y-79866607D01*
X141380040Y-80036092D01*
X141321256Y-80217008D01*
X141291500Y-80404883D01*
X141291500Y-80595116D01*
X141321256Y-80782991D01*
X141380040Y-80963907D01*
X141442582Y-81086651D01*
X141466398Y-81133392D01*
X141578208Y-81287285D01*
X141712715Y-81421792D01*
X141866608Y-81533602D01*
X142036097Y-81619961D01*
X142073362Y-81632069D01*
X142098646Y-81649358D01*
X142125119Y-81664781D01*
X142127221Y-81668899D01*
X142131037Y-81671508D01*
X142142960Y-81699721D01*
X142156893Y-81727008D01*
X142156435Y-81731608D01*
X142158235Y-81735866D01*
X142153010Y-81766051D01*
X142149980Y-81796535D01*
X142147108Y-81800157D01*
X142146320Y-81804713D01*
X142125605Y-81827282D01*
X142106575Y-81851288D01*
X142101015Y-81854073D01*
X142099075Y-81856188D01*
X142075142Y-81867338D01*
X142074280Y-81867632D01*
X142036097Y-81880039D01*
X142032270Y-81881988D01*
X142023933Y-81884838D01*
X142008821Y-81885498D01*
X141983834Y-81891500D01*
X136672500Y-81891500D01*
X136605461Y-81871815D01*
X136559706Y-81819011D01*
X136548500Y-81767500D01*
X136548500Y-71126962D01*
X140436500Y-71126962D01*
X140436500Y-71423037D01*
X140462052Y-71617118D01*
X140475144Y-71716557D01*
X140532173Y-71929394D01*
X140548809Y-71991484D01*
X140551769Y-72002529D01*
X140644657Y-72226778D01*
X140665070Y-72276059D01*
X140665071Y-72276060D01*
X140813096Y-72532447D01*
X140993324Y-72767326D01*
X140993330Y-72767333D01*
X141202666Y-72976669D01*
X141202673Y-72976675D01*
X141437552Y-73156903D01*
X141693939Y-73304928D01*
X141693940Y-73304929D01*
X141693943Y-73304930D01*
X141693948Y-73304933D01*
X141967471Y-73418231D01*
X142253443Y-73494856D01*
X142546970Y-73533500D01*
X142546977Y-73533500D01*
X142843023Y-73533500D01*
X142843030Y-73533500D01*
X143136557Y-73494856D01*
X143422529Y-73418231D01*
X143696052Y-73304933D01*
X143952448Y-73156903D01*
X144187328Y-72976674D01*
X144396674Y-72767328D01*
X144576903Y-72532448D01*
X144724933Y-72276052D01*
X144838231Y-72002529D01*
X144914856Y-71716557D01*
X144953500Y-71423030D01*
X144953500Y-71126970D01*
X144914856Y-70833443D01*
X144838231Y-70547471D01*
X144724933Y-70273948D01*
X144724930Y-70273943D01*
X144724929Y-70273940D01*
X144724928Y-70273939D01*
X144576903Y-70017552D01*
X144396675Y-69782673D01*
X144396669Y-69782666D01*
X144187333Y-69573330D01*
X144187326Y-69573324D01*
X143952447Y-69393096D01*
X143696060Y-69245071D01*
X143696059Y-69245070D01*
X143563066Y-69189982D01*
X143422529Y-69131769D01*
X143384797Y-69121659D01*
X143283064Y-69094400D01*
X143136557Y-69055144D01*
X143087503Y-69048685D01*
X142843037Y-69016500D01*
X142843030Y-69016500D01*
X142546970Y-69016500D01*
X142546962Y-69016500D01*
X142267571Y-69053283D01*
X142253443Y-69055144D01*
X142171434Y-69077118D01*
X141967477Y-69131767D01*
X141967473Y-69131768D01*
X141967471Y-69131769D01*
X141901114Y-69159255D01*
X141693940Y-69245070D01*
X141693939Y-69245071D01*
X141437552Y-69393096D01*
X141202673Y-69573324D01*
X141202666Y-69573330D01*
X140993330Y-69782666D01*
X140993324Y-69782673D01*
X140813096Y-70017552D01*
X140665071Y-70273939D01*
X140665070Y-70273940D01*
X140593462Y-70446815D01*
X140551769Y-70547471D01*
X140485073Y-70796389D01*
X140475145Y-70833440D01*
X140475143Y-70833451D01*
X140436500Y-71126962D01*
X136548500Y-71126962D01*
X136548500Y-65102673D01*
X136568185Y-65035634D01*
X136572170Y-65029804D01*
X136689560Y-64868231D01*
X136793962Y-64663329D01*
X136865026Y-64444618D01*
X136887472Y-64302900D01*
X136901000Y-64217488D01*
X136901000Y-63892511D01*
X136865026Y-63665381D01*
X136816229Y-63515202D01*
X136793962Y-63446671D01*
X136793960Y-63446668D01*
X136793960Y-63446666D01*
X136689559Y-63241768D01*
X136554389Y-63055722D01*
X136391778Y-62893111D01*
X136380426Y-62884863D01*
X136299614Y-62826148D01*
X136256948Y-62770818D01*
X136248500Y-62725831D01*
X136248500Y-56271254D01*
X136268185Y-56204215D01*
X136284819Y-56183573D01*
X137563073Y-54905319D01*
X137624396Y-54871834D01*
X137650754Y-54869000D01*
X152303556Y-54869000D01*
X152370595Y-54888685D01*
X152391237Y-54905319D01*
X152507948Y-55022030D01*
X152658862Y-55115115D01*
X152827174Y-55170887D01*
X152931055Y-55181500D01*
X155882144Y-55181499D01*
X155986026Y-55170887D01*
X156154338Y-55115115D01*
X156305252Y-55022030D01*
X156421963Y-54905319D01*
X156483286Y-54871834D01*
X156509644Y-54869000D01*
X157026846Y-54869000D01*
X157093885Y-54888685D01*
X157114527Y-54905319D01*
X160876207Y-58667000D01*
X160876210Y-58667003D01*
X160946047Y-58713666D01*
X161008632Y-58755484D01*
X161152253Y-58814972D01*
X161192480Y-58841851D01*
X161422550Y-59071921D01*
X161422553Y-59071923D01*
X161422557Y-59071927D01*
X161472125Y-59105048D01*
X161538594Y-59149463D01*
X161543970Y-59152336D01*
X161542779Y-59154563D01*
X161588588Y-59191473D01*
X161610658Y-59257766D01*
X161593383Y-59325466D01*
X161542249Y-59373080D01*
X161486737Y-59386200D01*
X161297902Y-59386200D01*
X161185495Y-59401000D01*
X161185491Y-59401001D01*
X161045621Y-59458936D01*
X160925505Y-59551105D01*
X160833336Y-59671221D01*
X160775401Y-59811091D01*
X160775400Y-59811096D01*
X160765511Y-59886199D01*
X160765512Y-59886200D01*
X163205687Y-59886200D01*
X163201673Y-59855710D01*
X163212438Y-59786675D01*
X163258817Y-59734418D01*
X163326086Y-59715532D01*
X163392886Y-59736012D01*
X163412293Y-59751842D01*
X164232078Y-60571627D01*
X164570277Y-60909826D01*
X164570279Y-60909828D01*
X164683572Y-61023121D01*
X164721542Y-61045043D01*
X164822327Y-61103232D01*
X164888214Y-61120886D01*
X164897825Y-61123461D01*
X164897827Y-61123462D01*
X164911187Y-61127041D01*
X164977089Y-61144700D01*
X164977090Y-61144700D01*
X165042731Y-61144700D01*
X165072409Y-61153414D01*
X165102614Y-61160118D01*
X165105643Y-61163173D01*
X165109770Y-61164385D01*
X165130023Y-61187758D01*
X165151812Y-61209731D01*
X165153453Y-61214798D01*
X165155525Y-61217189D01*
X165164007Y-61242851D01*
X165165027Y-61247640D01*
X165167119Y-61263524D01*
X165169785Y-61269961D01*
X165172154Y-61281074D01*
X165170740Y-61299730D01*
X165173817Y-61323108D01*
X165165511Y-61386199D01*
X165169549Y-61390804D01*
X165186893Y-61397039D01*
X165217018Y-61405885D01*
X165220558Y-61409141D01*
X165223104Y-61410057D01*
X165248356Y-61434715D01*
X165268306Y-61460715D01*
X165293499Y-61525884D01*
X165279460Y-61594329D01*
X165268306Y-61611685D01*
X165248356Y-61637685D01*
X165191928Y-61678889D01*
X165168314Y-61683004D01*
X165165511Y-61686200D01*
X165173818Y-61749289D01*
X165167087Y-61800449D01*
X165169223Y-61801022D01*
X165167119Y-61808872D01*
X165152100Y-61922948D01*
X165152100Y-62149437D01*
X165152101Y-62149454D01*
X165163504Y-62236069D01*
X165152738Y-62305104D01*
X165106358Y-62357360D01*
X165039089Y-62376245D01*
X164972289Y-62355764D01*
X164952884Y-62339935D01*
X163662229Y-61049280D01*
X163662227Y-61049278D01*
X163523473Y-60969168D01*
X163440852Y-60947030D01*
X163440851Y-60947029D01*
X163388040Y-60932879D01*
X163368711Y-60927700D01*
X163368710Y-60927700D01*
X163328469Y-60927700D01*
X163298790Y-60918985D01*
X163268591Y-60912284D01*
X163265559Y-60909227D01*
X163261430Y-60908015D01*
X163241175Y-60884639D01*
X163219391Y-60862674D01*
X163217748Y-60857604D01*
X163215675Y-60855211D01*
X163207194Y-60829555D01*
X163206172Y-60824765D01*
X163204081Y-60808876D01*
X163201411Y-60802431D01*
X163199045Y-60791331D01*
X163200458Y-60772655D01*
X163197381Y-60749289D01*
X163205687Y-60686199D01*
X163201650Y-60681595D01*
X163184298Y-60675358D01*
X163154182Y-60666515D01*
X163150643Y-60663260D01*
X163148098Y-60662345D01*
X163122846Y-60637688D01*
X163082942Y-60585685D01*
X163057749Y-60520519D01*
X163071787Y-60452074D01*
X163120600Y-60402083D01*
X163181319Y-60386200D01*
X163205688Y-60386200D01*
X163205688Y-60386199D01*
X163194739Y-60303037D01*
X163197754Y-60302640D01*
X163197754Y-60269759D01*
X163194739Y-60269363D01*
X163205688Y-60186200D01*
X160765512Y-60186200D01*
X160776461Y-60269361D01*
X160773515Y-60269748D01*
X160773515Y-60302651D01*
X160776461Y-60303039D01*
X160765511Y-60386199D01*
X160765512Y-60386200D01*
X160789881Y-60386200D01*
X160803504Y-60390200D01*
X160817681Y-60389356D01*
X160836365Y-60399849D01*
X160856920Y-60405885D01*
X160866217Y-60416614D01*
X160878600Y-60423569D01*
X160888645Y-60442497D01*
X160902675Y-60458689D01*
X160904695Y-60472742D01*
X160911353Y-60485287D01*
X160909569Y-60506639D01*
X160912619Y-60527847D01*
X160906606Y-60542121D01*
X160905538Y-60554914D01*
X160888258Y-60585682D01*
X160848354Y-60637688D01*
X160791926Y-60678890D01*
X160768314Y-60683004D01*
X160765511Y-60686200D01*
X160773818Y-60749289D01*
X160767087Y-60800449D01*
X160769223Y-60801022D01*
X160767119Y-60808872D01*
X160752100Y-60922948D01*
X160752100Y-61149445D01*
X160767973Y-61270015D01*
X160767973Y-61302385D01*
X160752101Y-61422945D01*
X160752100Y-61422962D01*
X160752100Y-61649437D01*
X160752101Y-61649454D01*
X160767973Y-61770015D01*
X160767973Y-61802385D01*
X160752101Y-61922945D01*
X160752100Y-61922962D01*
X160752100Y-62149451D01*
X160763504Y-62236069D01*
X160767119Y-62263524D01*
X160825914Y-62405468D01*
X160919443Y-62527357D01*
X161041332Y-62620886D01*
X161183276Y-62679681D01*
X161297356Y-62694700D01*
X161297363Y-62694700D01*
X162673837Y-62694700D01*
X162673844Y-62694700D01*
X162746393Y-62685148D01*
X162815424Y-62695913D01*
X162850257Y-62720406D01*
X163292278Y-63162427D01*
X165488373Y-65358522D01*
X165627127Y-65438632D01*
X165704508Y-65459366D01*
X165781889Y-65480100D01*
X165781890Y-65480100D01*
X165942110Y-65480100D01*
X167026489Y-65480100D01*
X171883808Y-65480100D01*
X171950847Y-65499785D01*
X171952698Y-65500998D01*
X172083030Y-65588082D01*
X172083031Y-65588082D01*
X172083032Y-65588083D01*
X172230169Y-65649030D01*
X172386365Y-65680099D01*
X172386369Y-65680100D01*
X172386370Y-65680100D01*
X174365746Y-65680100D01*
X174432785Y-65699785D01*
X174453427Y-65716419D01*
X176630381Y-67893372D01*
X176663866Y-67954695D01*
X176666700Y-67981053D01*
X176666700Y-69899229D01*
X176647015Y-69966268D01*
X176615587Y-69999546D01*
X176590196Y-70017993D01*
X176438996Y-70169193D01*
X176438996Y-70169194D01*
X176438994Y-70169196D01*
X176401850Y-70220321D01*
X176320264Y-70332613D01*
X176264934Y-70375278D01*
X176195320Y-70381257D01*
X176133525Y-70348651D01*
X176119628Y-70332612D01*
X176004927Y-70174740D01*
X176004923Y-70174735D01*
X175854664Y-70024476D01*
X175854659Y-70024472D01*
X175682757Y-69899579D01*
X175493415Y-69803103D01*
X175291324Y-69737441D01*
X175225200Y-69726968D01*
X175225200Y-70775054D01*
X175158543Y-70736570D01*
X175037735Y-70704200D01*
X174912665Y-70704200D01*
X174791857Y-70736570D01*
X174725200Y-70775054D01*
X174725200Y-69726968D01*
X174725199Y-69726968D01*
X174659075Y-69737441D01*
X174456984Y-69803103D01*
X174267642Y-69899579D01*
X174095741Y-70024471D01*
X173962682Y-70157530D01*
X173901359Y-70191014D01*
X173831667Y-70186030D01*
X173775734Y-70144158D01*
X173769462Y-70134945D01*
X173767316Y-70131466D01*
X173767315Y-70131462D01*
X173674230Y-69980548D01*
X173548852Y-69855170D01*
X173397938Y-69762085D01*
X173323566Y-69737441D01*
X173229627Y-69706313D01*
X173125745Y-69695700D01*
X171824662Y-69695700D01*
X171824646Y-69695701D01*
X171720772Y-69706313D01*
X171552464Y-69762084D01*
X171552459Y-69762086D01*
X171401546Y-69855171D01*
X171276171Y-69980546D01*
X171183086Y-70131459D01*
X171183084Y-70131464D01*
X171127313Y-70299772D01*
X171116700Y-70403647D01*
X171116700Y-71954737D01*
X171116701Y-71954753D01*
X171127313Y-72058627D01*
X171135555Y-72083499D01*
X171168007Y-72181434D01*
X171170409Y-72251261D01*
X171134677Y-72311303D01*
X171072157Y-72342496D01*
X171026112Y-72342055D01*
X170958967Y-72328700D01*
X170791433Y-72328700D01*
X170791428Y-72328700D01*
X170627125Y-72361382D01*
X170627117Y-72361384D01*
X170472339Y-72425495D01*
X170333037Y-72518573D01*
X170214573Y-72637037D01*
X170121495Y-72776339D01*
X170057384Y-72931117D01*
X170057382Y-72931125D01*
X170024700Y-73095428D01*
X170024700Y-73262971D01*
X170057382Y-73427274D01*
X170057384Y-73427282D01*
X170120597Y-73579892D01*
X170121497Y-73582063D01*
X170130706Y-73595845D01*
X170214573Y-73721362D01*
X170333037Y-73839826D01*
X170425694Y-73901737D01*
X170472337Y-73932903D01*
X170627118Y-73997016D01*
X170791428Y-74029699D01*
X170791432Y-74029700D01*
X170791433Y-74029700D01*
X170958968Y-74029700D01*
X170958969Y-74029699D01*
X171123282Y-73997016D01*
X171278063Y-73932903D01*
X171278070Y-73932897D01*
X171283430Y-73930034D01*
X171284666Y-73932347D01*
X171340475Y-73914867D01*
X171407857Y-73933346D01*
X171454552Y-73985320D01*
X171466700Y-74038847D01*
X171466700Y-75216333D01*
X171505454Y-75411161D01*
X171505456Y-75411169D01*
X171578495Y-75587500D01*
X171578496Y-75587502D01*
X171581478Y-75594703D01*
X171581482Y-75594710D01*
X171691846Y-75759880D01*
X171691849Y-75759884D01*
X174959247Y-79027281D01*
X175042279Y-79110313D01*
X175099720Y-79167754D01*
X175264889Y-79278117D01*
X175264895Y-79278120D01*
X175264896Y-79278121D01*
X175448431Y-79354144D01*
X175643266Y-79392899D01*
X175643270Y-79392900D01*
X175643271Y-79392900D01*
X186357530Y-79392900D01*
X186357531Y-79392899D01*
X186552369Y-79354144D01*
X186735904Y-79278121D01*
X186901081Y-79167753D01*
X187041553Y-79027281D01*
X188260753Y-77808081D01*
X188371121Y-77642904D01*
X188447144Y-77459369D01*
X188485900Y-77264529D01*
X188485900Y-77065871D01*
X188485900Y-64569071D01*
X188485900Y-57887467D01*
X190691500Y-57887467D01*
X190691500Y-58212532D01*
X190723361Y-58536032D01*
X190723364Y-58536049D01*
X190786775Y-58854848D01*
X190786778Y-58854859D01*
X190881145Y-59165945D01*
X191005546Y-59466274D01*
X191005548Y-59466279D01*
X191158776Y-59752948D01*
X191158793Y-59752976D01*
X191339370Y-60023230D01*
X191339387Y-60023253D01*
X191545611Y-60274537D01*
X191775462Y-60504388D01*
X191775467Y-60504392D01*
X191775468Y-60504393D01*
X192026752Y-60710617D01*
X192026759Y-60710622D01*
X192026769Y-60710629D01*
X192297023Y-60891206D01*
X192297028Y-60891209D01*
X192297040Y-60891217D01*
X192297049Y-60891221D01*
X192297051Y-60891223D01*
X192583720Y-61044451D01*
X192583722Y-61044451D01*
X192583728Y-61044455D01*
X192884056Y-61168855D01*
X193195131Y-61263219D01*
X193195137Y-61263220D01*
X193195140Y-61263221D01*
X193195151Y-61263224D01*
X193378685Y-61299730D01*
X193513957Y-61326637D01*
X193837464Y-61358500D01*
X193837467Y-61358500D01*
X194162533Y-61358500D01*
X194162536Y-61358500D01*
X194486043Y-61326637D01*
X194643850Y-61295247D01*
X194804848Y-61263224D01*
X194804859Y-61263221D01*
X194804859Y-61263220D01*
X194804869Y-61263219D01*
X195115944Y-61168855D01*
X195416272Y-61044455D01*
X195702960Y-60891217D01*
X195973248Y-60710617D01*
X196224532Y-60504393D01*
X196454393Y-60274532D01*
X196660617Y-60023248D01*
X196841217Y-59752960D01*
X196994455Y-59466272D01*
X197118855Y-59165944D01*
X197213219Y-58854869D01*
X197213221Y-58854859D01*
X197213224Y-58854848D01*
X197247966Y-58680181D01*
X197276637Y-58536043D01*
X197308500Y-58212536D01*
X197308500Y-57887464D01*
X197276637Y-57563957D01*
X197231133Y-57335189D01*
X197213224Y-57245151D01*
X197213221Y-57245140D01*
X197213220Y-57245137D01*
X197213219Y-57245131D01*
X197118855Y-56934056D01*
X196994455Y-56633728D01*
X196841217Y-56347040D01*
X196841206Y-56347023D01*
X196660629Y-56076769D01*
X196660622Y-56076759D01*
X196660617Y-56076752D01*
X196454393Y-55825468D01*
X196454392Y-55825467D01*
X196454388Y-55825462D01*
X196224537Y-55595611D01*
X195973253Y-55389387D01*
X195973230Y-55389370D01*
X195702976Y-55208793D01*
X195702948Y-55208776D01*
X195416279Y-55055548D01*
X195416274Y-55055546D01*
X195115945Y-54931145D01*
X194804859Y-54836778D01*
X194804848Y-54836775D01*
X194486049Y-54773364D01*
X194486032Y-54773361D01*
X194241395Y-54749267D01*
X194162536Y-54741500D01*
X193837464Y-54741500D01*
X193764530Y-54748683D01*
X193513967Y-54773361D01*
X193513950Y-54773364D01*
X193195151Y-54836775D01*
X193195140Y-54836778D01*
X192884054Y-54931145D01*
X192583725Y-55055546D01*
X192583720Y-55055548D01*
X192297051Y-55208776D01*
X192297023Y-55208793D01*
X192026769Y-55389370D01*
X192026746Y-55389387D01*
X191775462Y-55595611D01*
X191545611Y-55825462D01*
X191339387Y-56076746D01*
X191339370Y-56076769D01*
X191158793Y-56347023D01*
X191158776Y-56347051D01*
X191005548Y-56633720D01*
X191005546Y-56633725D01*
X190881145Y-56934054D01*
X190786778Y-57245140D01*
X190786775Y-57245151D01*
X190723364Y-57563950D01*
X190723361Y-57563967D01*
X190691500Y-57887467D01*
X188485900Y-57887467D01*
X188485900Y-44833271D01*
X188447144Y-44638431D01*
X188388343Y-44496474D01*
X188371122Y-44454898D01*
X188371117Y-44454889D01*
X188260754Y-44289720D01*
X188221881Y-44250847D01*
X188120281Y-44149247D01*
X187098030Y-43126996D01*
X186062884Y-42091849D01*
X186062880Y-42091846D01*
X185897704Y-41981479D01*
X185897699Y-41981476D01*
X185892210Y-41979203D01*
X185892207Y-41979202D01*
X185714169Y-41905456D01*
X185714161Y-41905454D01*
X185519333Y-41866700D01*
X185519329Y-41866700D01*
X173733306Y-41866700D01*
X173709115Y-41864317D01*
X173594407Y-41841500D01*
X173594404Y-41841500D01*
X173405596Y-41841500D01*
X173405592Y-41841500D01*
X173290885Y-41864317D01*
X173266694Y-41866700D01*
X166473866Y-41866700D01*
X166279038Y-41905454D01*
X166279030Y-41905456D01*
X166100993Y-41979202D01*
X166100990Y-41979203D01*
X166095500Y-41981476D01*
X166095495Y-41981479D01*
X165930319Y-42091846D01*
X165930315Y-42091849D01*
X164160251Y-43861915D01*
X163771319Y-44250847D01*
X163732447Y-44289719D01*
X163630845Y-44391320D01*
X163520482Y-44556489D01*
X163520477Y-44556498D01*
X163444456Y-44740030D01*
X163444454Y-44740038D01*
X163405700Y-44934866D01*
X163405700Y-47898845D01*
X163404413Y-47903227D01*
X163405384Y-47907691D01*
X163394659Y-47936445D01*
X163386015Y-47965884D01*
X163382118Y-47970069D01*
X163380967Y-47973156D01*
X163356010Y-47998112D01*
X163338509Y-48011213D01*
X163273045Y-48035630D01*
X163204772Y-48020778D01*
X163189896Y-48011218D01*
X163110404Y-47951711D01*
X163069475Y-47936445D01*
X162973403Y-47900611D01*
X162912854Y-47894100D01*
X162912838Y-47894100D01*
X161315562Y-47894100D01*
X161315545Y-47894100D01*
X161254997Y-47900611D01*
X161254995Y-47900611D01*
X161117995Y-47951711D01*
X161000939Y-48039339D01*
X160913311Y-48156395D01*
X160862211Y-48293395D01*
X160862211Y-48293397D01*
X160855700Y-48353945D01*
X160855700Y-50451254D01*
X160862211Y-50511802D01*
X160862211Y-50511804D01*
X160911775Y-50644686D01*
X160913311Y-50648804D01*
X161000939Y-50765861D01*
X161056011Y-50807087D01*
X161097881Y-50863019D01*
X161105700Y-50906353D01*
X161105700Y-51621933D01*
X161144454Y-51816761D01*
X161144457Y-51816773D01*
X161156508Y-51845865D01*
X161220477Y-52000301D01*
X161220482Y-52000310D01*
X161330846Y-52165480D01*
X161330849Y-52165484D01*
X162374315Y-53208951D01*
X162374319Y-53208954D01*
X162539489Y-53319318D01*
X162539491Y-53319319D01*
X162539496Y-53319322D01*
X162668282Y-53372666D01*
X162723031Y-53395344D01*
X162909807Y-53432496D01*
X162917866Y-53434099D01*
X162917870Y-53434100D01*
X162917871Y-53434100D01*
X173784533Y-53434100D01*
X173784563Y-53434097D01*
X173796715Y-53433500D01*
X175128704Y-53433500D01*
X175195743Y-53453185D01*
X175227970Y-53483188D01*
X175306627Y-53588261D01*
X175423684Y-53675889D01*
X175560687Y-53726989D01*
X175587938Y-53729918D01*
X175621233Y-53733499D01*
X175621250Y-53733500D01*
X177318526Y-53733500D01*
X177318542Y-53733499D01*
X177345580Y-53730591D01*
X177379089Y-53726989D01*
X177516092Y-53675889D01*
X177633149Y-53588261D01*
X177720777Y-53471204D01*
X177771877Y-53334201D01*
X177778388Y-53273638D01*
X177778388Y-53261374D01*
X177781906Y-53246922D01*
X177792251Y-53229034D01*
X177798073Y-53209209D01*
X177809388Y-53199404D01*
X177816887Y-53186439D01*
X177835263Y-53176983D01*
X177850877Y-53163454D01*
X177867143Y-53160578D01*
X177879014Y-53154471D01*
X177886174Y-53155160D01*
X178569888Y-52471446D01*
X178569888Y-52477661D01*
X178597147Y-52579394D01*
X178649808Y-52670606D01*
X178724282Y-52745080D01*
X178815494Y-52797741D01*
X178917227Y-52825000D01*
X178923441Y-52825000D01*
X178243964Y-53504474D01*
X178288538Y-53536859D01*
X178470856Y-53629755D01*
X178665470Y-53692990D01*
X178867571Y-53725000D01*
X179072205Y-53725000D01*
X179274305Y-53692990D01*
X179468919Y-53629755D01*
X179651237Y-53536859D01*
X179695809Y-53504474D01*
X179016335Y-52825000D01*
X179022549Y-52825000D01*
X179124282Y-52797741D01*
X179215494Y-52745080D01*
X179289968Y-52670606D01*
X179342629Y-52579394D01*
X179369888Y-52477661D01*
X179369888Y-52471447D01*
X180049362Y-53150921D01*
X180081747Y-53106349D01*
X180174643Y-52924031D01*
X180237878Y-52729417D01*
X180269888Y-52527317D01*
X180269888Y-52322682D01*
X180237878Y-52120582D01*
X180174643Y-51925968D01*
X180081747Y-51743650D01*
X180049362Y-51699077D01*
X180049362Y-51699076D01*
X179369888Y-52378551D01*
X179369888Y-52372339D01*
X179342629Y-52270606D01*
X179289968Y-52179394D01*
X179215494Y-52104920D01*
X179124282Y-52052259D01*
X179022549Y-52025000D01*
X179016334Y-52025000D01*
X179695810Y-51345524D01*
X179695809Y-51345523D01*
X179651247Y-51313147D01*
X179651238Y-51313141D01*
X179468919Y-51220244D01*
X179274305Y-51157009D01*
X179072205Y-51125000D01*
X178867571Y-51125000D01*
X178665470Y-51157009D01*
X178470856Y-51220244D01*
X178288532Y-51313143D01*
X178243965Y-51345523D01*
X178243965Y-51345524D01*
X178923442Y-52025000D01*
X178917227Y-52025000D01*
X178815494Y-52052259D01*
X178724282Y-52104920D01*
X178649808Y-52179394D01*
X178597147Y-52270606D01*
X178569888Y-52372339D01*
X178569888Y-52378553D01*
X177882477Y-51691142D01*
X177843740Y-51683005D01*
X177793983Y-51633954D01*
X177781906Y-51603078D01*
X177778388Y-51588625D01*
X177778388Y-51576362D01*
X177771877Y-51515799D01*
X177720777Y-51378796D01*
X177633149Y-51261739D01*
X177516092Y-51174111D01*
X177379091Y-51123011D01*
X177318542Y-51116500D01*
X177318526Y-51116500D01*
X175621250Y-51116500D01*
X175621233Y-51116500D01*
X175560685Y-51123011D01*
X175560683Y-51123011D01*
X175423683Y-51174111D01*
X175306627Y-51261739D01*
X175227971Y-51366811D01*
X175172037Y-51408682D01*
X175128704Y-51416500D01*
X173586467Y-51416500D01*
X173586437Y-51416503D01*
X173574285Y-51417100D01*
X163486297Y-51417100D01*
X163419258Y-51397415D01*
X163398616Y-51380781D01*
X163159019Y-51141184D01*
X163144315Y-51114256D01*
X163127723Y-51088438D01*
X163126831Y-51082237D01*
X163125534Y-51079861D01*
X163122700Y-51053503D01*
X163122700Y-50906353D01*
X163142385Y-50839314D01*
X163172384Y-50807090D01*
X163189891Y-50793985D01*
X163255351Y-50769569D01*
X163323624Y-50784420D01*
X163338506Y-50793983D01*
X163417996Y-50853489D01*
X163532497Y-50896196D01*
X163549663Y-50902599D01*
X163554999Y-50904589D01*
X163582250Y-50907518D01*
X163615545Y-50911099D01*
X163615562Y-50911100D01*
X165212838Y-50911100D01*
X165212854Y-50911099D01*
X165239892Y-50908191D01*
X165273401Y-50904589D01*
X165278737Y-50902599D01*
X165295903Y-50896196D01*
X165410404Y-50853489D01*
X165496982Y-50788677D01*
X165562444Y-50764261D01*
X165630717Y-50779112D01*
X165645602Y-50788679D01*
X165722106Y-50845950D01*
X165722113Y-50845954D01*
X165856820Y-50896196D01*
X165856827Y-50896198D01*
X165916355Y-50902599D01*
X165916372Y-50902600D01*
X166464200Y-50902600D01*
X166964200Y-50902600D01*
X167512028Y-50902600D01*
X167512044Y-50902599D01*
X167571572Y-50896198D01*
X167571579Y-50896196D01*
X167706286Y-50845954D01*
X167706293Y-50845950D01*
X167821387Y-50759790D01*
X167821390Y-50759787D01*
X167907550Y-50644693D01*
X167907554Y-50644686D01*
X167957796Y-50509979D01*
X167957798Y-50509972D01*
X167964199Y-50450444D01*
X167964200Y-50450427D01*
X167964200Y-49652600D01*
X166964200Y-49652600D01*
X166964200Y-50902600D01*
X166464200Y-50902600D01*
X166464200Y-49152600D01*
X166964200Y-49152600D01*
X167964200Y-49152600D01*
X167964200Y-48354772D01*
X167964199Y-48354755D01*
X167957798Y-48295227D01*
X167957796Y-48295220D01*
X167907554Y-48160513D01*
X167907550Y-48160506D01*
X167821390Y-48045412D01*
X167821387Y-48045409D01*
X167706293Y-47959249D01*
X167706286Y-47959245D01*
X167571579Y-47909003D01*
X167571572Y-47909001D01*
X167512044Y-47902600D01*
X166964200Y-47902600D01*
X166964200Y-49152600D01*
X166464200Y-49152600D01*
X166464200Y-47902600D01*
X165916355Y-47902600D01*
X165856827Y-47909001D01*
X165856820Y-47909003D01*
X165722113Y-47959245D01*
X165722107Y-47959249D01*
X165645601Y-48016521D01*
X165620840Y-48025756D01*
X165597648Y-48038420D01*
X165588619Y-48037774D01*
X165580137Y-48040938D01*
X165554313Y-48035320D01*
X165527956Y-48033435D01*
X165516242Y-48027038D01*
X165511864Y-48026086D01*
X165496980Y-48016520D01*
X165472389Y-47998111D01*
X165430518Y-47942177D01*
X165422700Y-47898845D01*
X165422700Y-45503296D01*
X165442385Y-45436257D01*
X165459019Y-45415615D01*
X166954615Y-43920019D01*
X167015938Y-43886534D01*
X167042296Y-43883700D01*
X184950904Y-43883700D01*
X185017943Y-43903385D01*
X185038585Y-43920019D01*
X186432581Y-45314015D01*
X186466066Y-45375338D01*
X186468900Y-45401696D01*
X186468900Y-62626989D01*
X186449215Y-62694028D01*
X186396411Y-62739783D01*
X186327253Y-62749727D01*
X186263697Y-62720702D01*
X186257219Y-62714670D01*
X185091829Y-61549280D01*
X185091827Y-61549278D01*
X184953073Y-61469168D01*
X184875691Y-61448434D01*
X184875690Y-61448433D01*
X184819044Y-61433255D01*
X184798311Y-61427700D01*
X184798310Y-61427700D01*
X176837581Y-61427700D01*
X176770542Y-61408015D01*
X176724787Y-61355211D01*
X176713638Y-61299944D01*
X176725000Y-60925000D01*
X176715963Y-60924895D01*
X176395211Y-60921187D01*
X176328404Y-60900728D01*
X176283263Y-60847399D01*
X176274119Y-60778130D01*
X176303877Y-60714914D01*
X176358324Y-60679265D01*
X176463903Y-60644961D01*
X176633392Y-60558602D01*
X176668792Y-60532882D01*
X177845669Y-60532882D01*
X177845670Y-60532883D01*
X177871059Y-60551329D01*
X178039362Y-60637085D01*
X178218997Y-60695451D01*
X178405553Y-60725000D01*
X178594447Y-60725000D01*
X178781002Y-60695451D01*
X178960637Y-60637085D01*
X179128937Y-60551331D01*
X179154328Y-60532883D01*
X179154328Y-60532882D01*
X178500001Y-59878554D01*
X178500000Y-59878554D01*
X177845669Y-60532882D01*
X176668792Y-60532882D01*
X176787285Y-60446792D01*
X176921792Y-60312285D01*
X177033602Y-60158392D01*
X177119961Y-59988903D01*
X177136537Y-59937884D01*
X177175974Y-59880211D01*
X177240333Y-59853012D01*
X177309179Y-59864927D01*
X177360655Y-59912171D01*
X177372399Y-59937886D01*
X177387914Y-59985636D01*
X177473666Y-60153933D01*
X177492116Y-60179328D01*
X178146446Y-59525000D01*
X178146446Y-59524999D01*
X178100369Y-59478922D01*
X178150000Y-59478922D01*
X178150000Y-59571078D01*
X178173852Y-59660095D01*
X178219930Y-59739905D01*
X178285095Y-59805070D01*
X178364905Y-59851148D01*
X178453922Y-59875000D01*
X178546078Y-59875000D01*
X178635095Y-59851148D01*
X178714905Y-59805070D01*
X178780070Y-59739905D01*
X178826148Y-59660095D01*
X178850000Y-59571078D01*
X178850000Y-59524999D01*
X178853554Y-59524999D01*
X178853554Y-59525000D01*
X179507882Y-60179328D01*
X179507883Y-60179328D01*
X179526331Y-60153937D01*
X179612085Y-59985637D01*
X179670451Y-59806002D01*
X179700000Y-59619447D01*
X179700000Y-59430552D01*
X179670451Y-59243997D01*
X179612085Y-59064362D01*
X179526329Y-58896059D01*
X179507883Y-58870670D01*
X179507882Y-58870669D01*
X178853554Y-59524999D01*
X178850000Y-59524999D01*
X178850000Y-59478922D01*
X178826148Y-59389905D01*
X178780070Y-59310095D01*
X178714905Y-59244930D01*
X178635095Y-59198852D01*
X178546078Y-59175000D01*
X178453922Y-59175000D01*
X178364905Y-59198852D01*
X178285095Y-59244930D01*
X178219930Y-59310095D01*
X178173852Y-59389905D01*
X178150000Y-59478922D01*
X178100369Y-59478922D01*
X177492116Y-58870669D01*
X177492116Y-58870670D01*
X177473669Y-58896060D01*
X177387915Y-59064361D01*
X177372399Y-59112114D01*
X177332961Y-59169789D01*
X177268602Y-59196987D01*
X177199756Y-59185072D01*
X177148280Y-59137827D01*
X177136537Y-59112114D01*
X177123479Y-59071927D01*
X177119961Y-59061097D01*
X177119959Y-59061094D01*
X177119959Y-59061092D01*
X177053615Y-58930886D01*
X177033602Y-58891608D01*
X176921792Y-58737715D01*
X176787285Y-58603208D01*
X176668790Y-58517116D01*
X177845669Y-58517116D01*
X178500000Y-59171446D01*
X178500001Y-59171446D01*
X179154328Y-58517116D01*
X179128933Y-58498666D01*
X178960637Y-58412914D01*
X178781002Y-58354548D01*
X178594447Y-58325000D01*
X178405553Y-58325000D01*
X178218997Y-58354548D01*
X178039362Y-58412914D01*
X177871060Y-58498669D01*
X177845670Y-58517116D01*
X177845669Y-58517116D01*
X176668790Y-58517116D01*
X176633392Y-58491398D01*
X176463907Y-58405040D01*
X176282991Y-58346256D01*
X176095116Y-58316500D01*
X176095111Y-58316500D01*
X175904889Y-58316500D01*
X175904884Y-58316500D01*
X175717008Y-58346256D01*
X175536092Y-58405040D01*
X175366607Y-58491398D01*
X175305151Y-58536049D01*
X175212715Y-58603208D01*
X175212713Y-58603210D01*
X175212712Y-58603210D01*
X175135742Y-58680181D01*
X175074419Y-58713666D01*
X175048061Y-58716500D01*
X170239965Y-58716500D01*
X170083776Y-58747568D01*
X170083768Y-58747570D01*
X169936630Y-58808517D01*
X169804212Y-58896995D01*
X169799496Y-58900866D01*
X169797677Y-58898650D01*
X169747103Y-58926266D01*
X169720745Y-58929100D01*
X168906089Y-58929100D01*
X168828708Y-58949833D01*
X168828708Y-58949834D01*
X168751327Y-58970568D01*
X168751325Y-58970568D01*
X168751325Y-58970569D01*
X168612573Y-59050678D01*
X168612570Y-59050680D01*
X168271870Y-59391381D01*
X168210547Y-59424866D01*
X168184189Y-59427700D01*
X167297041Y-59427700D01*
X167249589Y-59418261D01*
X167187927Y-59392720D01*
X167187925Y-59392719D01*
X167187924Y-59392719D01*
X167166550Y-59389905D01*
X167073851Y-59377700D01*
X167073844Y-59377700D01*
X165697356Y-59377700D01*
X165697348Y-59377700D01*
X165583276Y-59392719D01*
X165583275Y-59392719D01*
X165441333Y-59451513D01*
X165419099Y-59468574D01*
X165319443Y-59545043D01*
X165234951Y-59655154D01*
X165178525Y-59696355D01*
X165108778Y-59700510D01*
X165048896Y-59667347D01*
X163416229Y-58034680D01*
X163416227Y-58034678D01*
X163277473Y-57954568D01*
X163200091Y-57933834D01*
X163200090Y-57933833D01*
X163143444Y-57918655D01*
X163122711Y-57913100D01*
X163122710Y-57913100D01*
X162809796Y-57913100D01*
X162749253Y-57895322D01*
X162748568Y-57896605D01*
X162743199Y-57893735D01*
X162614262Y-57840327D01*
X162614254Y-57840325D01*
X162477385Y-57813100D01*
X162477381Y-57813100D01*
X162255997Y-57813100D01*
X162188958Y-57793415D01*
X162143203Y-57740611D01*
X162141436Y-57736552D01*
X162108087Y-57656039D01*
X162108086Y-57656038D01*
X162108084Y-57656032D01*
X162108080Y-57656026D01*
X162019603Y-57523610D01*
X159149938Y-54653945D01*
X162005700Y-54653945D01*
X162005700Y-56751254D01*
X162012211Y-56811802D01*
X162012211Y-56811804D01*
X162057809Y-56934054D01*
X162063311Y-56948804D01*
X162150939Y-57065861D01*
X162267996Y-57153489D01*
X162404999Y-57204589D01*
X162432250Y-57207518D01*
X162465545Y-57211099D01*
X162465562Y-57211100D01*
X166362838Y-57211100D01*
X166362854Y-57211099D01*
X166389892Y-57208191D01*
X166423401Y-57204589D01*
X166560404Y-57153489D01*
X166677461Y-57065861D01*
X166765089Y-56948804D01*
X166816189Y-56811801D01*
X166819791Y-56778292D01*
X166822699Y-56751254D01*
X166822700Y-56751237D01*
X166822700Y-54653962D01*
X166822699Y-54653945D01*
X166819357Y-54622870D01*
X166816189Y-54593399D01*
X166765089Y-54456396D01*
X166677461Y-54339339D01*
X166560404Y-54251711D01*
X166423403Y-54200611D01*
X166362854Y-54194100D01*
X166362838Y-54194100D01*
X162465562Y-54194100D01*
X162465545Y-54194100D01*
X162404997Y-54200611D01*
X162404995Y-54200611D01*
X162267995Y-54251711D01*
X162150939Y-54339339D01*
X162063311Y-54456395D01*
X162012211Y-54593395D01*
X162012211Y-54593397D01*
X162005700Y-54653945D01*
X159149938Y-54653945D01*
X157928492Y-53432499D01*
X157928488Y-53432496D01*
X157796074Y-53344019D01*
X157796070Y-53344017D01*
X157796058Y-53344012D01*
X157722499Y-53313543D01*
X157722497Y-53313542D01*
X157722496Y-53313541D01*
X157648931Y-53283070D01*
X157648923Y-53283068D01*
X157492734Y-53252000D01*
X157492730Y-53252000D01*
X156509644Y-53252000D01*
X156442605Y-53232315D01*
X156421963Y-53215681D01*
X156305253Y-53098971D01*
X156305252Y-53098970D01*
X156154338Y-53005885D01*
X156154335Y-53005884D01*
X155986027Y-52950113D01*
X155882152Y-52939500D01*
X155882145Y-52939500D01*
X155539100Y-52939500D01*
X155472061Y-52919815D01*
X155426306Y-52867011D01*
X155415100Y-52815500D01*
X155415100Y-48914772D01*
X155434785Y-48847733D01*
X155451419Y-48827091D01*
X155524406Y-48754104D01*
X155650094Y-48581109D01*
X155747172Y-48390583D01*
X155813249Y-48187216D01*
X155846700Y-47976016D01*
X155846700Y-47462184D01*
X155813249Y-47250984D01*
X155771725Y-47123185D01*
X155747173Y-47047619D01*
X155747172Y-47047616D01*
X155650093Y-46857090D01*
X155640750Y-46844230D01*
X155524406Y-46684096D01*
X155373204Y-46532894D01*
X155200209Y-46407206D01*
X155174171Y-46393939D01*
X155009683Y-46310127D01*
X155009680Y-46310126D01*
X154806317Y-46244051D01*
X154700716Y-46227325D01*
X154595116Y-46210600D01*
X154381284Y-46210600D01*
X154327611Y-46219101D01*
X154170082Y-46244051D01*
X153966719Y-46310126D01*
X153966716Y-46310127D01*
X153776190Y-46407206D01*
X153603197Y-46532893D01*
X153464919Y-46671171D01*
X153403596Y-46704655D01*
X153333904Y-46699671D01*
X153277971Y-46657799D01*
X153271699Y-46648586D01*
X153180515Y-46500754D01*
X153056545Y-46376784D01*
X152907324Y-46284743D01*
X152907319Y-46284741D01*
X152740897Y-46229594D01*
X152740890Y-46229593D01*
X152638186Y-46219100D01*
X152238200Y-46219100D01*
X152238200Y-47286088D01*
X152181193Y-47253175D01*
X152054026Y-47219100D01*
X151922374Y-47219100D01*
X151795207Y-47253175D01*
X151738200Y-47286088D01*
X151738200Y-46219100D01*
X151338228Y-46219100D01*
X151338212Y-46219101D01*
X151235502Y-46229594D01*
X151069080Y-46284741D01*
X151069075Y-46284743D01*
X150919854Y-46376784D01*
X150795884Y-46500754D01*
X150703843Y-46649975D01*
X150703841Y-46649980D01*
X150648694Y-46816402D01*
X150648693Y-46816409D01*
X150638200Y-46919113D01*
X150638200Y-47469100D01*
X151555188Y-47469100D01*
X151522275Y-47526107D01*
X151488200Y-47653274D01*
X151488200Y-47784926D01*
X151522275Y-47912093D01*
X151555188Y-47969100D01*
X150638201Y-47969100D01*
X150638201Y-48519086D01*
X150648694Y-48621797D01*
X150703841Y-48788219D01*
X150703843Y-48788224D01*
X150795884Y-48937445D01*
X150919854Y-49061415D01*
X151069075Y-49153456D01*
X151069080Y-49153458D01*
X151235502Y-49208605D01*
X151235509Y-49208606D01*
X151338219Y-49219099D01*
X151738199Y-49219099D01*
X151738200Y-49219098D01*
X151738200Y-48152112D01*
X151795207Y-48185025D01*
X151922374Y-48219100D01*
X152054026Y-48219100D01*
X152181193Y-48185025D01*
X152238200Y-48152112D01*
X152238200Y-49219099D01*
X152638172Y-49219099D01*
X152638186Y-49219098D01*
X152740897Y-49208605D01*
X152907319Y-49153458D01*
X152907324Y-49153456D01*
X153056545Y-49061415D01*
X153185624Y-48932337D01*
X153187700Y-48934413D01*
X153233822Y-48901736D01*
X153303620Y-48898577D01*
X153364046Y-48933656D01*
X153395915Y-48995834D01*
X153398100Y-49019012D01*
X153398100Y-52815500D01*
X153378415Y-52882539D01*
X153325611Y-52928294D01*
X153274100Y-52939500D01*
X152931062Y-52939500D01*
X152931046Y-52939501D01*
X152827172Y-52950113D01*
X152658864Y-53005884D01*
X152658859Y-53005886D01*
X152507946Y-53098971D01*
X152391237Y-53215681D01*
X152329914Y-53249166D01*
X152303556Y-53252000D01*
X137184865Y-53252000D01*
X137028676Y-53283068D01*
X137028668Y-53283070D01*
X136991208Y-53298587D01*
X136991207Y-53298587D01*
X136881538Y-53344012D01*
X136881525Y-53344019D01*
X136749111Y-53432496D01*
X136749107Y-53432499D01*
X134811999Y-55369607D01*
X134811996Y-55369611D01*
X134723519Y-55502025D01*
X134723514Y-55502034D01*
X134693043Y-55575598D01*
X134693043Y-55575600D01*
X134662570Y-55649169D01*
X134662569Y-55649173D01*
X134662568Y-55649176D01*
X134662567Y-55649176D01*
X134631500Y-55805365D01*
X134631500Y-62725831D01*
X134611815Y-62792870D01*
X134580386Y-62826148D01*
X134488228Y-62893106D01*
X134488219Y-62893113D01*
X134325612Y-63055720D01*
X134270318Y-63131826D01*
X134214987Y-63174491D01*
X134145374Y-63180470D01*
X134083579Y-63147864D01*
X134069682Y-63131826D01*
X134053259Y-63109222D01*
X134014389Y-63055722D01*
X133851778Y-62893111D01*
X133665731Y-62757940D01*
X133630096Y-62739783D01*
X133460833Y-62653539D01*
X133242118Y-62582473D01*
X133014988Y-62546500D01*
X133014983Y-62546500D01*
X132785017Y-62546500D01*
X132785012Y-62546500D01*
X132557881Y-62582473D01*
X132339166Y-62653539D01*
X132134265Y-62757942D01*
X131959573Y-62884863D01*
X131893767Y-62908343D01*
X131825713Y-62892517D01*
X131777018Y-62842412D01*
X131770507Y-62827880D01*
X131769861Y-62826148D01*
X131763389Y-62808796D01*
X131675761Y-62691739D01*
X131558704Y-62604111D01*
X131500694Y-62582474D01*
X131421703Y-62553011D01*
X131361154Y-62546500D01*
X131361138Y-62546500D01*
X129358862Y-62546500D01*
X129358845Y-62546500D01*
X129298297Y-62553011D01*
X129298295Y-62553011D01*
X129161295Y-62604111D01*
X129044239Y-62691739D01*
X128956611Y-62808795D01*
X128905511Y-62945795D01*
X128905511Y-62945797D01*
X128899000Y-63006345D01*
X128899000Y-65103654D01*
X128905511Y-65164202D01*
X128905511Y-65164204D01*
X128949493Y-65282121D01*
X128956611Y-65301204D01*
X129044239Y-65418261D01*
X129161296Y-65505889D01*
X129161297Y-65505889D01*
X129161298Y-65505890D01*
X129170830Y-65509445D01*
X129226765Y-65551315D01*
X129251184Y-65616778D01*
X129251500Y-65625628D01*
X129251500Y-75442500D01*
X129231815Y-75509539D01*
X129179011Y-75555294D01*
X129127500Y-75566500D01*
X127182500Y-75566500D01*
X127115461Y-75546815D01*
X127069706Y-75494011D01*
X127058500Y-75442500D01*
X127058500Y-75426362D01*
X127058499Y-75426345D01*
X127053827Y-75382898D01*
X127051989Y-75365799D01*
X127000889Y-75228796D01*
X126913261Y-75111739D01*
X126796204Y-75024111D01*
X126768302Y-75013704D01*
X126659203Y-74973011D01*
X126598654Y-74966500D01*
X126598638Y-74966500D01*
X124901362Y-74966500D01*
X124901345Y-74966500D01*
X124840797Y-74973011D01*
X124840795Y-74973011D01*
X124703795Y-75024111D01*
X124586739Y-75111739D01*
X124499111Y-75228795D01*
X124448011Y-75365795D01*
X124448011Y-75365796D01*
X124446172Y-75382898D01*
X124419431Y-75447448D01*
X124362037Y-75487294D01*
X124292212Y-75489785D01*
X124232124Y-75454130D01*
X124222563Y-75442521D01*
X124208069Y-75422571D01*
X124062428Y-75276930D01*
X124062423Y-75276926D01*
X123895806Y-75155873D01*
X123895805Y-75155872D01*
X123895803Y-75155871D01*
X123838496Y-75126671D01*
X123712294Y-75062367D01*
X123516408Y-74998719D01*
X123340794Y-74970905D01*
X123312981Y-74966500D01*
X123107019Y-74966500D01*
X123082550Y-74970375D01*
X122903591Y-74998719D01*
X122707705Y-75062367D01*
X122524193Y-75155873D01*
X122357576Y-75276926D01*
X122357571Y-75276930D01*
X122211930Y-75422571D01*
X122211926Y-75422576D01*
X122090871Y-75589195D01*
X122050484Y-75668459D01*
X122041839Y-75677611D01*
X122037105Y-75689277D01*
X122018304Y-75702530D01*
X122002510Y-75719254D01*
X121990290Y-75722280D01*
X121979999Y-75729535D01*
X121957015Y-75730520D01*
X121934689Y-75736049D01*
X121922772Y-75731987D01*
X121910193Y-75732527D01*
X121890326Y-75720930D01*
X121868554Y-75713511D01*
X121859280Y-75702809D01*
X121849851Y-75697305D01*
X121829515Y-75668458D01*
X121792015Y-75594861D01*
X121778500Y-75538566D01*
X121778500Y-74365518D01*
X121798185Y-74298479D01*
X121814819Y-74277837D01*
X122772837Y-73319819D01*
X122834160Y-73286334D01*
X122860518Y-73283500D01*
X125743566Y-73283500D01*
X125799861Y-73297015D01*
X125977705Y-73387632D01*
X125977707Y-73387632D01*
X125977710Y-73387634D01*
X126071878Y-73418231D01*
X126173591Y-73451280D01*
X126275305Y-73467390D01*
X126377019Y-73483500D01*
X126377020Y-73483500D01*
X126582980Y-73483500D01*
X126582981Y-73483500D01*
X126786408Y-73451280D01*
X126982290Y-73387634D01*
X127165803Y-73294129D01*
X127332430Y-73173068D01*
X127478068Y-73027430D01*
X127599129Y-72860803D01*
X127692634Y-72677290D01*
X127756280Y-72481408D01*
X127788500Y-72277981D01*
X127788500Y-72072019D01*
X127782323Y-72033018D01*
X127756280Y-71868591D01*
X127706878Y-71716548D01*
X127692634Y-71672710D01*
X127692632Y-71672707D01*
X127692632Y-71672705D01*
X127634846Y-71559295D01*
X127599129Y-71489197D01*
X127542400Y-71411116D01*
X127478073Y-71322576D01*
X127478069Y-71322571D01*
X127332428Y-71176930D01*
X127332423Y-71176926D01*
X127165805Y-71055872D01*
X126982294Y-70962367D01*
X126786408Y-70898719D01*
X126610794Y-70870905D01*
X126582981Y-70866500D01*
X126377019Y-70866500D01*
X126352550Y-70870375D01*
X126173591Y-70898719D01*
X125977705Y-70962367D01*
X125799861Y-71052985D01*
X125743566Y-71066500D01*
X122437242Y-71066500D01*
X122262759Y-71066500D01*
X122228292Y-71071959D01*
X122090422Y-71093795D01*
X121924488Y-71147709D01*
X121924477Y-71147713D01*
X121769017Y-71226926D01*
X121627867Y-71329477D01*
X121627862Y-71329481D01*
X119824481Y-73132862D01*
X119824477Y-73132867D01*
X119721926Y-73274017D01*
X119642713Y-73429477D01*
X119642709Y-73429488D01*
X119593137Y-73582058D01*
X119593138Y-73582059D01*
X119588794Y-73595427D01*
X119588794Y-73595428D01*
X119561500Y-73767759D01*
X119561500Y-75538566D01*
X119558377Y-75551570D01*
X119559369Y-75561454D01*
X119547984Y-75594862D01*
X119505714Y-75677820D01*
X119457740Y-75728615D01*
X119389919Y-75745410D01*
X119323784Y-75722872D01*
X119284745Y-75677818D01*
X119241861Y-75593652D01*
X119121582Y-75428105D01*
X119121582Y-75428104D01*
X118976895Y-75283417D01*
X118811349Y-75163140D01*
X118629029Y-75070244D01*
X118434413Y-75007009D01*
X118380000Y-74998390D01*
X118380000Y-76359314D01*
X118375606Y-76354920D01*
X118284394Y-76302259D01*
X118182661Y-76275000D01*
X118077339Y-76275000D01*
X117975606Y-76302259D01*
X117884394Y-76354920D01*
X117880000Y-76359314D01*
X117880000Y-74998390D01*
X117825586Y-75007009D01*
X117630970Y-75070244D01*
X117448650Y-75163140D01*
X117283105Y-75283417D01*
X117283104Y-75283417D01*
X117138417Y-75428104D01*
X117138417Y-75428105D01*
X117018140Y-75593650D01*
X116925244Y-75775968D01*
X116862009Y-75970582D01*
X116830000Y-76172682D01*
X116830000Y-76425000D01*
X117814314Y-76425000D01*
X117809920Y-76429394D01*
X117757259Y-76520606D01*
X117730000Y-76622339D01*
X117730000Y-76727661D01*
X117757259Y-76829394D01*
X117809920Y-76920606D01*
X117814314Y-76925000D01*
X116830000Y-76925000D01*
X116830000Y-77177317D01*
X116862009Y-77379417D01*
X116925244Y-77574031D01*
X117018140Y-77756349D01*
X117138417Y-77921894D01*
X117138417Y-77921895D01*
X117271341Y-78054819D01*
X117304826Y-78116142D01*
X117299842Y-78185834D01*
X117257970Y-78241767D01*
X117192506Y-78266184D01*
X117183660Y-78266500D01*
X116637242Y-78266500D01*
X116462759Y-78266500D01*
X116428292Y-78271959D01*
X116290422Y-78293795D01*
X116124488Y-78347709D01*
X116124477Y-78347713D01*
X115969017Y-78426926D01*
X115827867Y-78529477D01*
X115827862Y-78529481D01*
X113354481Y-81002862D01*
X113354477Y-81002867D01*
X113251926Y-81144017D01*
X113172713Y-81299477D01*
X113172709Y-81299488D01*
X113132814Y-81422278D01*
X113132813Y-81422281D01*
X113130315Y-81429971D01*
X113118795Y-81465426D01*
X113091500Y-81637759D01*
X107922985Y-81637759D01*
X107906289Y-81592996D01*
X107905784Y-81592322D01*
X107861826Y-81533601D01*
X107818661Y-81475939D01*
X107701604Y-81388311D01*
X107564603Y-81337211D01*
X107504054Y-81330700D01*
X107504038Y-81330700D01*
X105906762Y-81330700D01*
X105906745Y-81330700D01*
X105846197Y-81337211D01*
X105846195Y-81337211D01*
X105709195Y-81388311D01*
X105592139Y-81475939D01*
X105504512Y-81592993D01*
X105504511Y-81592996D01*
X105464586Y-81700035D01*
X105422716Y-81755968D01*
X105357251Y-81780384D01*
X105348406Y-81780700D01*
X102649565Y-81780700D01*
X102493376Y-81811767D01*
X102493376Y-81811768D01*
X102493373Y-81811769D01*
X102493369Y-81811770D01*
X102419800Y-81842243D01*
X102419798Y-81842243D01*
X102346234Y-81872714D01*
X102346229Y-81872717D01*
X102339389Y-81877288D01*
X102272711Y-81898164D01*
X102205331Y-81879678D01*
X102158642Y-81827698D01*
X102146500Y-81774184D01*
X102146500Y-81239362D01*
X102146499Y-81239348D01*
X102143690Y-81213228D01*
X102139989Y-81178799D01*
X102139988Y-81178796D01*
X102139715Y-81176257D01*
X102139715Y-81149743D01*
X102139988Y-81147203D01*
X102139989Y-81147201D01*
X102146500Y-81086638D01*
X102146500Y-79989362D01*
X102146500Y-79989359D01*
X102146499Y-79989348D01*
X102143690Y-79963228D01*
X102139989Y-79928799D01*
X102139988Y-79928796D01*
X102139715Y-79926257D01*
X102139715Y-79899743D01*
X102139988Y-79897203D01*
X102139989Y-79897201D01*
X102146500Y-79836638D01*
X102146500Y-78739362D01*
X102146500Y-78739359D01*
X102146499Y-78739348D01*
X102141476Y-78692630D01*
X102139989Y-78678799D01*
X102139988Y-78678796D01*
X102139715Y-78676257D01*
X102139715Y-78649743D01*
X102139988Y-78647203D01*
X102139989Y-78647201D01*
X102144074Y-78609198D01*
X102146499Y-78586651D01*
X102146500Y-78586637D01*
X102146500Y-77489362D01*
X102146499Y-77489345D01*
X102141892Y-77446499D01*
X102139989Y-77428799D01*
X102120258Y-77375900D01*
X102112916Y-77356215D01*
X102088889Y-77291796D01*
X102001261Y-77174739D01*
X101884204Y-77087111D01*
X101747203Y-77036011D01*
X101686654Y-77029500D01*
X101686638Y-77029500D01*
X99362000Y-77029500D01*
X99294961Y-77009815D01*
X99249206Y-76957011D01*
X99238000Y-76905500D01*
X99238000Y-76038000D01*
X98488000Y-76038000D01*
X98488000Y-77438000D01*
X97988000Y-77438000D01*
X97988000Y-77070069D01*
X97989759Y-77054978D01*
X97989160Y-77054914D01*
X97996499Y-76986654D01*
X97996500Y-76986637D01*
X97996500Y-75587044D01*
X105455400Y-75587044D01*
X105461801Y-75646572D01*
X105461803Y-75646579D01*
X105512045Y-75781286D01*
X105512049Y-75781293D01*
X105598209Y-75896387D01*
X105598212Y-75896390D01*
X105713306Y-75982550D01*
X105713313Y-75982554D01*
X105848020Y-76032796D01*
X105848027Y-76032798D01*
X105907555Y-76039199D01*
X105907572Y-76039200D01*
X106455400Y-76039200D01*
X106955400Y-76039200D01*
X107503228Y-76039200D01*
X107503244Y-76039199D01*
X107562772Y-76032798D01*
X107562779Y-76032796D01*
X107697486Y-75982554D01*
X107697493Y-75982550D01*
X107812587Y-75896390D01*
X107812590Y-75896387D01*
X107898750Y-75781293D01*
X107898754Y-75781286D01*
X107948996Y-75646579D01*
X107948998Y-75646572D01*
X107955399Y-75587044D01*
X107955400Y-75587027D01*
X107955400Y-75039200D01*
X106955400Y-75039200D01*
X106955400Y-76039200D01*
X106455400Y-76039200D01*
X106455400Y-75039200D01*
X105455400Y-75039200D01*
X105455400Y-75587044D01*
X97996500Y-75587044D01*
X97996500Y-75538000D01*
X98488000Y-75538000D01*
X99238000Y-75538000D01*
X99238000Y-74590172D01*
X99237999Y-74590155D01*
X99231598Y-74530627D01*
X99231596Y-74530620D01*
X99181354Y-74395913D01*
X99181350Y-74395906D01*
X99095190Y-74280812D01*
X99095187Y-74280809D01*
X98980093Y-74194649D01*
X98980086Y-74194645D01*
X98845379Y-74144403D01*
X98845372Y-74144401D01*
X98785844Y-74138000D01*
X98488000Y-74138000D01*
X98488000Y-75538000D01*
X97996500Y-75538000D01*
X97996500Y-74589362D01*
X97996499Y-74589345D01*
X97989160Y-74521088D01*
X97989757Y-74521023D01*
X97988000Y-74505931D01*
X97988000Y-74138000D01*
X97690166Y-74138000D01*
X97651274Y-74142181D01*
X97605089Y-74136381D01*
X97604755Y-74137796D01*
X97597197Y-74136010D01*
X97536654Y-74129500D01*
X97536638Y-74129500D01*
X96439362Y-74129500D01*
X96439359Y-74129500D01*
X96376254Y-74136284D01*
X96349746Y-74136284D01*
X96286640Y-74129500D01*
X96286638Y-74129500D01*
X95189362Y-74129500D01*
X95189359Y-74129500D01*
X95126254Y-74136284D01*
X95099746Y-74136284D01*
X95036640Y-74129500D01*
X95036638Y-74129500D01*
X93939362Y-74129500D01*
X93939359Y-74129500D01*
X93876254Y-74136284D01*
X93849746Y-74136284D01*
X93786640Y-74129500D01*
X93786638Y-74129500D01*
X92689362Y-74129500D01*
X92689359Y-74129500D01*
X92626254Y-74136284D01*
X92599746Y-74136284D01*
X92536640Y-74129500D01*
X92536638Y-74129500D01*
X91439362Y-74129500D01*
X91439359Y-74129500D01*
X91376254Y-74136284D01*
X91349746Y-74136284D01*
X91286640Y-74129500D01*
X91286638Y-74129500D01*
X90189362Y-74129500D01*
X90189345Y-74129500D01*
X90128797Y-74136011D01*
X90128795Y-74136011D01*
X89991795Y-74187111D01*
X89874739Y-74274739D01*
X89787111Y-74391795D01*
X89736011Y-74528795D01*
X89736011Y-74528797D01*
X89729500Y-74589345D01*
X89729500Y-76905500D01*
X89709815Y-76972539D01*
X89657011Y-77018294D01*
X89605500Y-77029500D01*
X87289345Y-77029500D01*
X87228797Y-77036011D01*
X87228795Y-77036011D01*
X87091795Y-77087111D01*
X86974737Y-77174740D01*
X86970943Y-77179810D01*
X86915010Y-77221682D01*
X86871676Y-77229500D01*
X79488254Y-77229500D01*
X79421215Y-77209815D01*
X79375460Y-77157011D01*
X79365516Y-77087853D01*
X79394541Y-77024297D01*
X79400573Y-77017819D01*
X82427037Y-73991355D01*
X105455400Y-73991355D01*
X105455400Y-74539200D01*
X106455400Y-74539200D01*
X106955400Y-74539200D01*
X107955400Y-74539200D01*
X107955400Y-73991372D01*
X107955399Y-73991355D01*
X107948998Y-73931827D01*
X107948996Y-73931820D01*
X107898754Y-73797113D01*
X107898750Y-73797106D01*
X107812590Y-73682012D01*
X107812587Y-73682009D01*
X107697493Y-73595849D01*
X107697486Y-73595845D01*
X107562779Y-73545603D01*
X107562772Y-73545601D01*
X107503244Y-73539200D01*
X106955400Y-73539200D01*
X106955400Y-74539200D01*
X106455400Y-74539200D01*
X106455400Y-73539200D01*
X105907555Y-73539200D01*
X105848027Y-73545601D01*
X105848020Y-73545603D01*
X105713313Y-73595845D01*
X105713306Y-73595849D01*
X105598212Y-73682009D01*
X105598209Y-73682012D01*
X105512049Y-73797106D01*
X105512045Y-73797113D01*
X105461803Y-73931820D01*
X105461801Y-73931827D01*
X105455400Y-73991355D01*
X82427037Y-73991355D01*
X84345710Y-72072682D01*
X115020000Y-72072682D01*
X115020000Y-72277317D01*
X115052009Y-72479417D01*
X115115244Y-72674031D01*
X115208141Y-72856350D01*
X115208147Y-72856359D01*
X115240523Y-72900921D01*
X115240524Y-72900922D01*
X115920000Y-72221446D01*
X115920000Y-72227661D01*
X115947259Y-72329394D01*
X115999920Y-72420606D01*
X116074394Y-72495080D01*
X116165606Y-72547741D01*
X116267339Y-72575000D01*
X116273553Y-72575000D01*
X115594076Y-73254474D01*
X115638650Y-73286859D01*
X115820968Y-73379755D01*
X116015582Y-73442990D01*
X116217683Y-73475000D01*
X116422317Y-73475000D01*
X116624417Y-73442990D01*
X116819031Y-73379755D01*
X117001349Y-73286859D01*
X117045921Y-73254474D01*
X116366447Y-72575000D01*
X116372661Y-72575000D01*
X116474394Y-72547741D01*
X116565606Y-72495080D01*
X116640080Y-72420606D01*
X116692741Y-72329394D01*
X116720000Y-72227661D01*
X116720000Y-72221447D01*
X117399474Y-72900921D01*
X117431859Y-72856349D01*
X117524755Y-72674031D01*
X117587990Y-72479417D01*
X117620000Y-72277317D01*
X117620000Y-72072682D01*
X117587990Y-71870582D01*
X117524755Y-71675968D01*
X117431859Y-71493650D01*
X117399474Y-71449077D01*
X117399474Y-71449076D01*
X116720000Y-72128551D01*
X116720000Y-72122339D01*
X116692741Y-72020606D01*
X116640080Y-71929394D01*
X116565606Y-71854920D01*
X116474394Y-71802259D01*
X116372661Y-71775000D01*
X116366446Y-71775000D01*
X117045922Y-71095524D01*
X117045921Y-71095523D01*
X117001359Y-71063147D01*
X117001350Y-71063141D01*
X116819031Y-70970244D01*
X116624417Y-70907009D01*
X116422317Y-70875000D01*
X116217683Y-70875000D01*
X116015582Y-70907009D01*
X115820968Y-70970244D01*
X115638644Y-71063143D01*
X115594077Y-71095523D01*
X115594077Y-71095524D01*
X116273554Y-71775000D01*
X116267339Y-71775000D01*
X116165606Y-71802259D01*
X116074394Y-71854920D01*
X115999920Y-71929394D01*
X115947259Y-72020606D01*
X115920000Y-72122339D01*
X115920000Y-72128553D01*
X115240524Y-71449077D01*
X115240523Y-71449077D01*
X115208143Y-71493644D01*
X115115244Y-71675968D01*
X115052009Y-71870582D01*
X115020000Y-72072682D01*
X84345710Y-72072682D01*
X86079173Y-70339219D01*
X86140496Y-70305734D01*
X86166854Y-70302900D01*
X87524970Y-70302900D01*
X87684230Y-70302900D01*
X93114902Y-70302900D01*
X93181941Y-70322585D01*
X93227696Y-70375389D01*
X93235580Y-70398392D01*
X93236811Y-70403602D01*
X93278401Y-70515108D01*
X93287911Y-70540604D01*
X93375539Y-70657661D01*
X93492596Y-70745289D01*
X93629599Y-70796389D01*
X93656850Y-70799318D01*
X93690145Y-70802899D01*
X93690162Y-70802900D01*
X95387438Y-70802900D01*
X95387454Y-70802899D01*
X95414492Y-70799991D01*
X95448001Y-70796389D01*
X95585004Y-70745289D01*
X95702061Y-70657661D01*
X95789689Y-70540604D01*
X95840789Y-70403601D01*
X95847300Y-70343038D01*
X95847300Y-70330774D01*
X95850818Y-70316322D01*
X95861163Y-70298434D01*
X95866985Y-70278609D01*
X95878300Y-70268804D01*
X95885799Y-70255839D01*
X95904175Y-70246383D01*
X95919789Y-70232854D01*
X95936055Y-70229978D01*
X95947926Y-70223871D01*
X95955086Y-70224560D01*
X96638800Y-69540846D01*
X96638800Y-69547061D01*
X96666059Y-69648794D01*
X96718720Y-69740006D01*
X96793194Y-69814480D01*
X96884406Y-69867141D01*
X96986139Y-69894400D01*
X96992353Y-69894400D01*
X96312876Y-70573874D01*
X96357450Y-70606259D01*
X96539768Y-70699155D01*
X96734382Y-70762390D01*
X96936483Y-70794400D01*
X97141117Y-70794400D01*
X97343217Y-70762390D01*
X97537831Y-70699155D01*
X97720149Y-70606259D01*
X97764721Y-70573874D01*
X97085247Y-69894400D01*
X97091461Y-69894400D01*
X97193194Y-69867141D01*
X97284406Y-69814480D01*
X97358880Y-69740006D01*
X97411541Y-69648794D01*
X97438800Y-69547061D01*
X97438800Y-69540847D01*
X98118274Y-70220321D01*
X98150659Y-70175749D01*
X98243555Y-69993431D01*
X98306790Y-69798817D01*
X98338800Y-69596717D01*
X98338800Y-69392082D01*
X98306790Y-69189982D01*
X98243555Y-68995368D01*
X98150659Y-68813050D01*
X98118274Y-68768477D01*
X98118274Y-68768476D01*
X97438800Y-69447951D01*
X97438800Y-69441739D01*
X97411541Y-69340006D01*
X97358880Y-69248794D01*
X97284406Y-69174320D01*
X97193194Y-69121659D01*
X97091461Y-69094400D01*
X97085246Y-69094400D01*
X97764722Y-68414924D01*
X97764721Y-68414923D01*
X97720159Y-68382547D01*
X97720150Y-68382541D01*
X97537831Y-68289644D01*
X97343217Y-68226409D01*
X97141117Y-68194400D01*
X96936483Y-68194400D01*
X96734382Y-68226409D01*
X96539768Y-68289644D01*
X96357444Y-68382543D01*
X96312877Y-68414923D01*
X96312877Y-68414924D01*
X96992354Y-69094400D01*
X96986139Y-69094400D01*
X96884406Y-69121659D01*
X96793194Y-69174320D01*
X96718720Y-69248794D01*
X96666059Y-69340006D01*
X96638800Y-69441739D01*
X96638800Y-69447953D01*
X95951389Y-68760542D01*
X95912652Y-68752405D01*
X95862895Y-68703354D01*
X95850818Y-68672478D01*
X95847300Y-68658025D01*
X95847300Y-68645762D01*
X95840789Y-68585199D01*
X95789689Y-68448196D01*
X95702061Y-68331139D01*
X95585004Y-68243511D01*
X95448003Y-68192411D01*
X95387454Y-68185900D01*
X95387438Y-68185900D01*
X93690162Y-68185900D01*
X93690145Y-68185900D01*
X93629597Y-68192411D01*
X93629595Y-68192411D01*
X93492595Y-68243511D01*
X93375539Y-68331139D01*
X93287911Y-68448195D01*
X93236811Y-68585197D01*
X93235580Y-68590408D01*
X93201010Y-68651126D01*
X93139102Y-68683516D01*
X93114902Y-68685900D01*
X87990854Y-68685900D01*
X87923815Y-68666215D01*
X87903173Y-68649581D01*
X86138019Y-66884427D01*
X86104534Y-66823104D01*
X86101700Y-66796746D01*
X86101700Y-47246962D01*
X130641500Y-47246962D01*
X130641500Y-47543037D01*
X130658625Y-47673106D01*
X130680144Y-47836557D01*
X130756769Y-48122529D01*
X130867802Y-48390583D01*
X130870070Y-48396059D01*
X130870071Y-48396060D01*
X131018096Y-48652447D01*
X131198324Y-48887326D01*
X131198330Y-48887333D01*
X131407666Y-49096669D01*
X131407673Y-49096675D01*
X131642552Y-49276903D01*
X131898939Y-49424928D01*
X131898940Y-49424929D01*
X131898943Y-49424930D01*
X131898948Y-49424933D01*
X132172471Y-49538231D01*
X132458443Y-49614856D01*
X132751970Y-49653500D01*
X132751977Y-49653500D01*
X133048023Y-49653500D01*
X133048030Y-49653500D01*
X133341557Y-49614856D01*
X133627529Y-49538231D01*
X133901052Y-49424933D01*
X134157448Y-49276903D01*
X134392328Y-49096674D01*
X134601674Y-48887328D01*
X134781903Y-48652448D01*
X134929933Y-48396052D01*
X135043231Y-48122529D01*
X135119856Y-47836557D01*
X135158500Y-47543030D01*
X135158500Y-47246970D01*
X135119856Y-46953443D01*
X135043231Y-46667471D01*
X134929933Y-46393948D01*
X134929930Y-46393943D01*
X134929929Y-46393940D01*
X134929928Y-46393939D01*
X134781903Y-46137552D01*
X134601675Y-45902673D01*
X134601669Y-45902666D01*
X134392333Y-45693330D01*
X134392326Y-45693324D01*
X134157447Y-45513096D01*
X133901060Y-45365071D01*
X133901059Y-45365070D01*
X133901052Y-45365067D01*
X133627529Y-45251769D01*
X133341557Y-45175144D01*
X133292503Y-45168685D01*
X133048037Y-45136500D01*
X133048030Y-45136500D01*
X132751970Y-45136500D01*
X132751962Y-45136500D01*
X132472571Y-45173283D01*
X132458443Y-45175144D01*
X132363119Y-45200685D01*
X132172477Y-45251767D01*
X132172473Y-45251768D01*
X132172471Y-45251769D01*
X132143549Y-45263749D01*
X131898940Y-45365070D01*
X131898939Y-45365071D01*
X131642552Y-45513096D01*
X131407673Y-45693324D01*
X131407666Y-45693330D01*
X131198330Y-45902666D01*
X131198324Y-45902673D01*
X131018096Y-46137552D01*
X130870071Y-46393939D01*
X130870070Y-46393940D01*
X130812513Y-46532894D01*
X130764592Y-46648586D01*
X130756772Y-46667464D01*
X130756767Y-46667477D01*
X130716862Y-46816409D01*
X130680146Y-46953438D01*
X130680145Y-46953440D01*
X130680143Y-46953451D01*
X130641500Y-47246962D01*
X86101700Y-47246962D01*
X86101700Y-41271569D01*
X86101699Y-41271565D01*
X86070631Y-41115376D01*
X86070630Y-41115369D01*
X86012007Y-40973843D01*
X86010363Y-40969248D01*
X85921206Y-40835815D01*
X85921200Y-40835807D01*
X83132392Y-38046999D01*
X83132388Y-38046996D01*
X82999974Y-37958519D01*
X82999970Y-37958517D01*
X82999963Y-37958514D01*
X82926399Y-37928043D01*
X82926397Y-37928042D01*
X82926396Y-37928041D01*
X82852831Y-37897570D01*
X82852823Y-37897568D01*
X82696634Y-37866500D01*
X82696630Y-37866500D01*
X74879574Y-37866500D01*
X74812535Y-37846815D01*
X74766780Y-37794011D01*
X74756285Y-37755755D01*
X74751989Y-37715798D01*
X74751988Y-37715795D01*
X74729522Y-37655564D01*
X74700889Y-37578796D01*
X74613261Y-37461739D01*
X74496204Y-37374111D01*
X74359203Y-37323011D01*
X74298654Y-37316500D01*
X74298638Y-37316500D01*
X72501362Y-37316500D01*
X72501345Y-37316500D01*
X72440797Y-37323011D01*
X72440795Y-37323011D01*
X72303795Y-37374111D01*
X72186739Y-37461739D01*
X72099111Y-37578795D01*
X72048011Y-37715795D01*
X72048010Y-37715798D01*
X72043715Y-37755755D01*
X72016977Y-37820306D01*
X71959585Y-37860155D01*
X71920426Y-37866500D01*
X71049565Y-37866500D01*
X70893376Y-37897567D01*
X70893376Y-37897568D01*
X70893373Y-37897569D01*
X70893369Y-37897570D01*
X70819800Y-37928043D01*
X70819798Y-37928043D01*
X70746234Y-37958514D01*
X70746225Y-37958519D01*
X70613811Y-38046996D01*
X70613807Y-38046999D01*
X69021999Y-39638807D01*
X69021996Y-39638811D01*
X68933519Y-39771225D01*
X68933514Y-39771234D01*
X68903043Y-39844798D01*
X68903043Y-39844800D01*
X68872570Y-39918369D01*
X68872569Y-39918373D01*
X68872568Y-39918376D01*
X68872567Y-39918376D01*
X68841500Y-40074565D01*
X68841500Y-42490013D01*
X68821815Y-42557052D01*
X68792988Y-42588388D01*
X68729886Y-42636808D01*
X68729885Y-42636810D01*
X68636802Y-42729893D01*
X68555204Y-42836232D01*
X68555192Y-42836250D01*
X68489374Y-42950249D01*
X68489366Y-42950265D01*
X68438074Y-43074097D01*
X68403997Y-43201271D01*
X68386500Y-43334166D01*
X60300500Y-43334166D01*
X60300500Y-32824500D01*
X60320185Y-32757461D01*
X60372989Y-32711706D01*
X60424500Y-32700500D01*
X126099793Y-32700500D01*
X191775500Y-32700500D01*
X191842539Y-32720185D01*
G37*
%TD.AperFunction*%
%TD*%
M02*
