%TF.GenerationSoftware,KiCad,Pcbnew,9.0.1*%
%TF.CreationDate,2025-04-28T11:20:15+02:00*%
%TF.ProjectId,sensor,73656e73-6f72-42e6-9b69-6361645f7063,rev?*%
%TF.SameCoordinates,Original*%
%TF.FileFunction,Legend,Top*%
%TF.FilePolarity,Positive*%
%FSLAX46Y46*%
G04 Gerber Fmt 4.6, Leading zero omitted, Abs format (unit mm)*
G04 Created by KiCad (PCBNEW 9.0.1) date 2025-04-28 11:20:15*
%MOMM*%
%LPD*%
G01*
G04 APERTURE LIST*
G04 Aperture macros list*
%AMRoundRect*
0 Rectangle with rounded corners*
0 $1 Rounding radius*
0 $2 $3 $4 $5 $6 $7 $8 $9 X,Y pos of 4 corners*
0 Add a 4 corners polygon primitive as box body*
4,1,4,$2,$3,$4,$5,$6,$7,$8,$9,$2,$3,0*
0 Add four circle primitives for the rounded corners*
1,1,$1+$1,$2,$3*
1,1,$1+$1,$4,$5*
1,1,$1+$1,$6,$7*
1,1,$1+$1,$8,$9*
0 Add four rect primitives between the rounded corners*
20,1,$1+$1,$2,$3,$4,$5,0*
20,1,$1+$1,$4,$5,$6,$7,0*
20,1,$1+$1,$6,$7,$8,$9,0*
20,1,$1+$1,$8,$9,$2,$3,0*%
%AMFreePoly0*
4,1,23,0.500000,-0.750000,0.000000,-0.750000,0.000000,-0.745722,-0.065263,-0.745722,-0.191342,-0.711940,-0.304381,-0.646677,-0.396677,-0.554381,-0.461940,-0.441342,-0.495722,-0.315263,-0.495722,-0.250000,-0.500000,-0.250000,-0.500000,0.250000,-0.495722,0.250000,-0.495722,0.315263,-0.461940,0.441342,-0.396677,0.554381,-0.304381,0.646677,-0.191342,0.711940,-0.065263,0.745722,0.000000,0.745722,
0.000000,0.750000,0.500000,0.750000,0.500000,-0.750000,0.500000,-0.750000,$1*%
%AMFreePoly1*
4,1,23,0.000000,0.745722,0.065263,0.745722,0.191342,0.711940,0.304381,0.646677,0.396677,0.554381,0.461940,0.441342,0.495722,0.315263,0.495722,0.250000,0.500000,0.250000,0.500000,-0.250000,0.495722,-0.250000,0.495722,-0.315263,0.461940,-0.441342,0.396677,-0.554381,0.304381,-0.646677,0.191342,-0.711940,0.065263,-0.745722,0.000000,-0.745722,0.000000,-0.750000,-0.500000,-0.750000,
-0.500000,0.750000,0.000000,0.750000,0.000000,0.745722,0.000000,0.745722,$1*%
G04 Aperture macros list end*
%ADD10C,0.304800*%
%ADD11C,0.150000*%
%ADD12C,0.250000*%
%ADD13C,0.120000*%
%ADD14C,0.127000*%
%ADD15C,0.200000*%
%ADD16C,5.600000*%
%ADD17C,1.400000*%
%ADD18C,1.600000*%
%ADD19O,1.600000X1.600000*%
%ADD20FreePoly0,90.000000*%
%ADD21FreePoly1,90.000000*%
%ADD22O,3.500000X3.500000*%
%ADD23R,1.905000X2.000000*%
%ADD24O,1.905000X2.000000*%
%ADD25R,1.500000X2.000000*%
%ADD26R,3.800000X2.000000*%
%ADD27RoundRect,0.075000X-0.650000X-0.075000X0.650000X-0.075000X0.650000X0.075000X-0.650000X0.075000X0*%
%ADD28RoundRect,0.250000X-1.425000X0.362500X-1.425000X-0.362500X1.425000X-0.362500X1.425000X0.362500X0*%
%ADD29RoundRect,0.250000X1.425000X-0.362500X1.425000X0.362500X-1.425000X0.362500X-1.425000X-0.362500X0*%
%ADD30R,1.200000X0.900000*%
%ADD31C,2.250000*%
%ADD32R,1.600000X1.600000*%
%ADD33RoundRect,0.250000X-0.600000X-0.750000X0.600000X-0.750000X0.600000X0.750000X-0.600000X0.750000X0*%
%ADD34O,1.700000X2.000000*%
%ADD35R,2.300000X1.000000*%
%ADD36R,1.000000X2.300000*%
%ADD37RoundRect,0.100500X-0.301500X0.986500X-0.301500X-0.986500X0.301500X-0.986500X0.301500X0.986500X0*%
%ADD38R,2.500000X2.500000*%
%ADD39C,2.500000*%
%ADD40C,1.200000*%
%ADD41RoundRect,0.250000X-0.600000X-0.725000X0.600000X-0.725000X0.600000X0.725000X-0.600000X0.725000X0*%
%ADD42O,1.700000X1.950000*%
%ADD43R,1.600000X2.400000*%
%ADD44O,1.600000X2.400000*%
%ADD45R,2.000000X1.905000*%
%ADD46O,2.000000X1.905000*%
%ADD47O,1.950000X1.700000*%
%ADD48RoundRect,0.250000X-0.725000X0.600000X-0.725000X-0.600000X0.725000X-0.600000X0.725000X0.600000X0*%
%ADD49R,1.500000X1.500000*%
%ADD50R,1.700000X1.700000*%
%ADD51O,1.700000X1.700000*%
G04 APERTURE END LIST*
D10*
X78536668Y-84171212D02*
X78391526Y-84098641D01*
X78391526Y-84098641D02*
X78173811Y-84098641D01*
X78173811Y-84098641D02*
X77956097Y-84171212D01*
X77956097Y-84171212D02*
X77810954Y-84316355D01*
X77810954Y-84316355D02*
X77738383Y-84461498D01*
X77738383Y-84461498D02*
X77665811Y-84751784D01*
X77665811Y-84751784D02*
X77665811Y-84969498D01*
X77665811Y-84969498D02*
X77738383Y-85259784D01*
X77738383Y-85259784D02*
X77810954Y-85404927D01*
X77810954Y-85404927D02*
X77956097Y-85550070D01*
X77956097Y-85550070D02*
X78173811Y-85622641D01*
X78173811Y-85622641D02*
X78318954Y-85622641D01*
X78318954Y-85622641D02*
X78536668Y-85550070D01*
X78536668Y-85550070D02*
X78609240Y-85477498D01*
X78609240Y-85477498D02*
X78609240Y-84969498D01*
X78609240Y-84969498D02*
X78318954Y-84969498D01*
X79262383Y-85622641D02*
X79262383Y-84098641D01*
X79262383Y-84098641D02*
X80133240Y-85622641D01*
X80133240Y-85622641D02*
X80133240Y-84098641D01*
X80858954Y-85622641D02*
X80858954Y-84098641D01*
X80858954Y-84098641D02*
X81221811Y-84098641D01*
X81221811Y-84098641D02*
X81439525Y-84171212D01*
X81439525Y-84171212D02*
X81584668Y-84316355D01*
X81584668Y-84316355D02*
X81657239Y-84461498D01*
X81657239Y-84461498D02*
X81729811Y-84751784D01*
X81729811Y-84751784D02*
X81729811Y-84969498D01*
X81729811Y-84969498D02*
X81657239Y-85259784D01*
X81657239Y-85259784D02*
X81584668Y-85404927D01*
X81584668Y-85404927D02*
X81439525Y-85550070D01*
X81439525Y-85550070D02*
X81221811Y-85622641D01*
X81221811Y-85622641D02*
X80858954Y-85622641D01*
X78609240Y-82902498D02*
X78536668Y-82975070D01*
X78536668Y-82975070D02*
X78318954Y-83047641D01*
X78318954Y-83047641D02*
X78173811Y-83047641D01*
X78173811Y-83047641D02*
X77956097Y-82975070D01*
X77956097Y-82975070D02*
X77810954Y-82829927D01*
X77810954Y-82829927D02*
X77738383Y-82684784D01*
X77738383Y-82684784D02*
X77665811Y-82394498D01*
X77665811Y-82394498D02*
X77665811Y-82176784D01*
X77665811Y-82176784D02*
X77738383Y-81886498D01*
X77738383Y-81886498D02*
X77810954Y-81741355D01*
X77810954Y-81741355D02*
X77956097Y-81596212D01*
X77956097Y-81596212D02*
X78173811Y-81523641D01*
X78173811Y-81523641D02*
X78318954Y-81523641D01*
X78318954Y-81523641D02*
X78536668Y-81596212D01*
X78536668Y-81596212D02*
X78609240Y-81668784D01*
X79988097Y-83047641D02*
X79262383Y-83047641D01*
X79262383Y-83047641D02*
X79262383Y-81523641D01*
X80496097Y-83047641D02*
X80496097Y-81523641D01*
X81366954Y-83047641D02*
X80713811Y-82176784D01*
X81366954Y-81523641D02*
X80496097Y-82394498D01*
X77738383Y-80822641D02*
X77738383Y-79298641D01*
X77738383Y-79298641D02*
X78101240Y-79298641D01*
X78101240Y-79298641D02*
X78318954Y-79371212D01*
X78318954Y-79371212D02*
X78464097Y-79516355D01*
X78464097Y-79516355D02*
X78536668Y-79661498D01*
X78536668Y-79661498D02*
X78609240Y-79951784D01*
X78609240Y-79951784D02*
X78609240Y-80169498D01*
X78609240Y-80169498D02*
X78536668Y-80459784D01*
X78536668Y-80459784D02*
X78464097Y-80604927D01*
X78464097Y-80604927D02*
X78318954Y-80750070D01*
X78318954Y-80750070D02*
X78101240Y-80822641D01*
X78101240Y-80822641D02*
X77738383Y-80822641D01*
X79262383Y-80822641D02*
X79262383Y-79298641D01*
X80278382Y-79298641D02*
X80568668Y-79298641D01*
X80568668Y-79298641D02*
X80713811Y-79371212D01*
X80713811Y-79371212D02*
X80858954Y-79516355D01*
X80858954Y-79516355D02*
X80931525Y-79806641D01*
X80931525Y-79806641D02*
X80931525Y-80314641D01*
X80931525Y-80314641D02*
X80858954Y-80604927D01*
X80858954Y-80604927D02*
X80713811Y-80750070D01*
X80713811Y-80750070D02*
X80568668Y-80822641D01*
X80568668Y-80822641D02*
X80278382Y-80822641D01*
X80278382Y-80822641D02*
X80133240Y-80750070D01*
X80133240Y-80750070D02*
X79988097Y-80604927D01*
X79988097Y-80604927D02*
X79915525Y-80314641D01*
X79915525Y-80314641D02*
X79915525Y-79806641D01*
X79915525Y-79806641D02*
X79988097Y-79516355D01*
X79988097Y-79516355D02*
X80133240Y-79371212D01*
X80133240Y-79371212D02*
X80278382Y-79298641D01*
X77520668Y-77198641D02*
X78028668Y-78722641D01*
X78028668Y-78722641D02*
X78536668Y-77198641D01*
X79915526Y-78577498D02*
X79842954Y-78650070D01*
X79842954Y-78650070D02*
X79625240Y-78722641D01*
X79625240Y-78722641D02*
X79480097Y-78722641D01*
X79480097Y-78722641D02*
X79262383Y-78650070D01*
X79262383Y-78650070D02*
X79117240Y-78504927D01*
X79117240Y-78504927D02*
X79044669Y-78359784D01*
X79044669Y-78359784D02*
X78972097Y-78069498D01*
X78972097Y-78069498D02*
X78972097Y-77851784D01*
X78972097Y-77851784D02*
X79044669Y-77561498D01*
X79044669Y-77561498D02*
X79117240Y-77416355D01*
X79117240Y-77416355D02*
X79262383Y-77271212D01*
X79262383Y-77271212D02*
X79480097Y-77198641D01*
X79480097Y-77198641D02*
X79625240Y-77198641D01*
X79625240Y-77198641D02*
X79842954Y-77271212D01*
X79842954Y-77271212D02*
X79915526Y-77343784D01*
X81439526Y-78577498D02*
X81366954Y-78650070D01*
X81366954Y-78650070D02*
X81149240Y-78722641D01*
X81149240Y-78722641D02*
X81004097Y-78722641D01*
X81004097Y-78722641D02*
X80786383Y-78650070D01*
X80786383Y-78650070D02*
X80641240Y-78504927D01*
X80641240Y-78504927D02*
X80568669Y-78359784D01*
X80568669Y-78359784D02*
X80496097Y-78069498D01*
X80496097Y-78069498D02*
X80496097Y-77851784D01*
X80496097Y-77851784D02*
X80568669Y-77561498D01*
X80568669Y-77561498D02*
X80641240Y-77416355D01*
X80641240Y-77416355D02*
X80786383Y-77271212D01*
X80786383Y-77271212D02*
X81004097Y-77198641D01*
X81004097Y-77198641D02*
X81149240Y-77198641D01*
X81149240Y-77198641D02*
X81366954Y-77271212D01*
X81366954Y-77271212D02*
X81439526Y-77343784D01*
D11*
X68889286Y-95288519D02*
X69460715Y-95288519D01*
X68775000Y-95631376D02*
X69175000Y-94431376D01*
X69175000Y-94431376D02*
X69575000Y-95631376D01*
X69975000Y-95631376D02*
X69975000Y-94831376D01*
X69975000Y-94945662D02*
X70032143Y-94888519D01*
X70032143Y-94888519D02*
X70146428Y-94831376D01*
X70146428Y-94831376D02*
X70317857Y-94831376D01*
X70317857Y-94831376D02*
X70432143Y-94888519D01*
X70432143Y-94888519D02*
X70489286Y-95002805D01*
X70489286Y-95002805D02*
X70489286Y-95631376D01*
X70489286Y-95002805D02*
X70546428Y-94888519D01*
X70546428Y-94888519D02*
X70660714Y-94831376D01*
X70660714Y-94831376D02*
X70832143Y-94831376D01*
X70832143Y-94831376D02*
X70946428Y-94888519D01*
X70946428Y-94888519D02*
X71003571Y-95002805D01*
X71003571Y-95002805D02*
X71003571Y-95631376D01*
X71575000Y-95631376D02*
X71575000Y-94431376D01*
X71575000Y-94888519D02*
X71689286Y-94831376D01*
X71689286Y-94831376D02*
X71917857Y-94831376D01*
X71917857Y-94831376D02*
X72032143Y-94888519D01*
X72032143Y-94888519D02*
X72089286Y-94945662D01*
X72089286Y-94945662D02*
X72146428Y-95059948D01*
X72146428Y-95059948D02*
X72146428Y-95402805D01*
X72146428Y-95402805D02*
X72089286Y-95517091D01*
X72089286Y-95517091D02*
X72032143Y-95574234D01*
X72032143Y-95574234D02*
X71917857Y-95631376D01*
X71917857Y-95631376D02*
X71689286Y-95631376D01*
X71689286Y-95631376D02*
X71575000Y-95574234D01*
X72660714Y-95631376D02*
X72660714Y-94831376D01*
X72660714Y-94431376D02*
X72603571Y-94488519D01*
X72603571Y-94488519D02*
X72660714Y-94545662D01*
X72660714Y-94545662D02*
X72717857Y-94488519D01*
X72717857Y-94488519D02*
X72660714Y-94431376D01*
X72660714Y-94431376D02*
X72660714Y-94545662D01*
X73689286Y-95574234D02*
X73575000Y-95631376D01*
X73575000Y-95631376D02*
X73346429Y-95631376D01*
X73346429Y-95631376D02*
X73232143Y-95574234D01*
X73232143Y-95574234D02*
X73175000Y-95459948D01*
X73175000Y-95459948D02*
X73175000Y-95002805D01*
X73175000Y-95002805D02*
X73232143Y-94888519D01*
X73232143Y-94888519D02*
X73346429Y-94831376D01*
X73346429Y-94831376D02*
X73575000Y-94831376D01*
X73575000Y-94831376D02*
X73689286Y-94888519D01*
X73689286Y-94888519D02*
X73746429Y-95002805D01*
X73746429Y-95002805D02*
X73746429Y-95117091D01*
X73746429Y-95117091D02*
X73175000Y-95231376D01*
X74260714Y-94831376D02*
X74260714Y-95631376D01*
X74260714Y-94945662D02*
X74317857Y-94888519D01*
X74317857Y-94888519D02*
X74432142Y-94831376D01*
X74432142Y-94831376D02*
X74603571Y-94831376D01*
X74603571Y-94831376D02*
X74717857Y-94888519D01*
X74717857Y-94888519D02*
X74775000Y-95002805D01*
X74775000Y-95002805D02*
X74775000Y-95631376D01*
X75174999Y-94831376D02*
X75632142Y-94831376D01*
X75346428Y-94431376D02*
X75346428Y-95459948D01*
X75346428Y-95459948D02*
X75403571Y-95574234D01*
X75403571Y-95574234D02*
X75517856Y-95631376D01*
X75517856Y-95631376D02*
X75632142Y-95631376D01*
X76889285Y-95574234D02*
X77060714Y-95631376D01*
X77060714Y-95631376D02*
X77346428Y-95631376D01*
X77346428Y-95631376D02*
X77460714Y-95574234D01*
X77460714Y-95574234D02*
X77517856Y-95517091D01*
X77517856Y-95517091D02*
X77574999Y-95402805D01*
X77574999Y-95402805D02*
X77574999Y-95288519D01*
X77574999Y-95288519D02*
X77517856Y-95174234D01*
X77517856Y-95174234D02*
X77460714Y-95117091D01*
X77460714Y-95117091D02*
X77346428Y-95059948D01*
X77346428Y-95059948D02*
X77117856Y-95002805D01*
X77117856Y-95002805D02*
X77003571Y-94945662D01*
X77003571Y-94945662D02*
X76946428Y-94888519D01*
X76946428Y-94888519D02*
X76889285Y-94774234D01*
X76889285Y-94774234D02*
X76889285Y-94659948D01*
X76889285Y-94659948D02*
X76946428Y-94545662D01*
X76946428Y-94545662D02*
X77003571Y-94488519D01*
X77003571Y-94488519D02*
X77117856Y-94431376D01*
X77117856Y-94431376D02*
X77403571Y-94431376D01*
X77403571Y-94431376D02*
X77574999Y-94488519D01*
X78546428Y-95574234D02*
X78432142Y-95631376D01*
X78432142Y-95631376D02*
X78203571Y-95631376D01*
X78203571Y-95631376D02*
X78089285Y-95574234D01*
X78089285Y-95574234D02*
X78032142Y-95459948D01*
X78032142Y-95459948D02*
X78032142Y-95002805D01*
X78032142Y-95002805D02*
X78089285Y-94888519D01*
X78089285Y-94888519D02*
X78203571Y-94831376D01*
X78203571Y-94831376D02*
X78432142Y-94831376D01*
X78432142Y-94831376D02*
X78546428Y-94888519D01*
X78546428Y-94888519D02*
X78603571Y-95002805D01*
X78603571Y-95002805D02*
X78603571Y-95117091D01*
X78603571Y-95117091D02*
X78032142Y-95231376D01*
X79117856Y-94831376D02*
X79117856Y-95631376D01*
X79117856Y-94945662D02*
X79174999Y-94888519D01*
X79174999Y-94888519D02*
X79289284Y-94831376D01*
X79289284Y-94831376D02*
X79460713Y-94831376D01*
X79460713Y-94831376D02*
X79574999Y-94888519D01*
X79574999Y-94888519D02*
X79632142Y-95002805D01*
X79632142Y-95002805D02*
X79632142Y-95631376D01*
X80146427Y-95574234D02*
X80260713Y-95631376D01*
X80260713Y-95631376D02*
X80489284Y-95631376D01*
X80489284Y-95631376D02*
X80603570Y-95574234D01*
X80603570Y-95574234D02*
X80660713Y-95459948D01*
X80660713Y-95459948D02*
X80660713Y-95402805D01*
X80660713Y-95402805D02*
X80603570Y-95288519D01*
X80603570Y-95288519D02*
X80489284Y-95231376D01*
X80489284Y-95231376D02*
X80317856Y-95231376D01*
X80317856Y-95231376D02*
X80203570Y-95174234D01*
X80203570Y-95174234D02*
X80146427Y-95059948D01*
X80146427Y-95059948D02*
X80146427Y-95002805D01*
X80146427Y-95002805D02*
X80203570Y-94888519D01*
X80203570Y-94888519D02*
X80317856Y-94831376D01*
X80317856Y-94831376D02*
X80489284Y-94831376D01*
X80489284Y-94831376D02*
X80603570Y-94888519D01*
X81346427Y-95631376D02*
X81232142Y-95574234D01*
X81232142Y-95574234D02*
X81174999Y-95517091D01*
X81174999Y-95517091D02*
X81117856Y-95402805D01*
X81117856Y-95402805D02*
X81117856Y-95059948D01*
X81117856Y-95059948D02*
X81174999Y-94945662D01*
X81174999Y-94945662D02*
X81232142Y-94888519D01*
X81232142Y-94888519D02*
X81346427Y-94831376D01*
X81346427Y-94831376D02*
X81517856Y-94831376D01*
X81517856Y-94831376D02*
X81632142Y-94888519D01*
X81632142Y-94888519D02*
X81689285Y-94945662D01*
X81689285Y-94945662D02*
X81746427Y-95059948D01*
X81746427Y-95059948D02*
X81746427Y-95402805D01*
X81746427Y-95402805D02*
X81689285Y-95517091D01*
X81689285Y-95517091D02*
X81632142Y-95574234D01*
X81632142Y-95574234D02*
X81517856Y-95631376D01*
X81517856Y-95631376D02*
X81346427Y-95631376D01*
X82260713Y-95631376D02*
X82260713Y-94831376D01*
X82260713Y-95059948D02*
X82317856Y-94945662D01*
X82317856Y-94945662D02*
X82374999Y-94888519D01*
X82374999Y-94888519D02*
X82489284Y-94831376D01*
X82489284Y-94831376D02*
X82603570Y-94831376D01*
X83860713Y-94545662D02*
X83917856Y-94488519D01*
X83917856Y-94488519D02*
X84032142Y-94431376D01*
X84032142Y-94431376D02*
X84317856Y-94431376D01*
X84317856Y-94431376D02*
X84432142Y-94488519D01*
X84432142Y-94488519D02*
X84489284Y-94545662D01*
X84489284Y-94545662D02*
X84546427Y-94659948D01*
X84546427Y-94659948D02*
X84546427Y-94774234D01*
X84546427Y-94774234D02*
X84489284Y-94945662D01*
X84489284Y-94945662D02*
X83803570Y-95631376D01*
X83803570Y-95631376D02*
X84546427Y-95631376D01*
X85060713Y-95517091D02*
X85117856Y-95574234D01*
X85117856Y-95574234D02*
X85060713Y-95631376D01*
X85060713Y-95631376D02*
X85003570Y-95574234D01*
X85003570Y-95574234D02*
X85060713Y-95517091D01*
X85060713Y-95517091D02*
X85060713Y-95631376D01*
X85860713Y-94431376D02*
X85974999Y-94431376D01*
X85974999Y-94431376D02*
X86089285Y-94488519D01*
X86089285Y-94488519D02*
X86146428Y-94545662D01*
X86146428Y-94545662D02*
X86203570Y-94659948D01*
X86203570Y-94659948D02*
X86260713Y-94888519D01*
X86260713Y-94888519D02*
X86260713Y-95174234D01*
X86260713Y-95174234D02*
X86203570Y-95402805D01*
X86203570Y-95402805D02*
X86146428Y-95517091D01*
X86146428Y-95517091D02*
X86089285Y-95574234D01*
X86089285Y-95574234D02*
X85974999Y-95631376D01*
X85974999Y-95631376D02*
X85860713Y-95631376D01*
X85860713Y-95631376D02*
X85746428Y-95574234D01*
X85746428Y-95574234D02*
X85689285Y-95517091D01*
X85689285Y-95517091D02*
X85632142Y-95402805D01*
X85632142Y-95402805D02*
X85574999Y-95174234D01*
X85574999Y-95174234D02*
X85574999Y-94888519D01*
X85574999Y-94888519D02*
X85632142Y-94659948D01*
X85632142Y-94659948D02*
X85689285Y-94545662D01*
X85689285Y-94545662D02*
X85746428Y-94488519D01*
X85746428Y-94488519D02*
X85860713Y-94431376D01*
X71489286Y-97563309D02*
X71489286Y-96363309D01*
X71489286Y-96820452D02*
X71603572Y-96763309D01*
X71603572Y-96763309D02*
X71832143Y-96763309D01*
X71832143Y-96763309D02*
X71946429Y-96820452D01*
X71946429Y-96820452D02*
X72003572Y-96877595D01*
X72003572Y-96877595D02*
X72060714Y-96991881D01*
X72060714Y-96991881D02*
X72060714Y-97334738D01*
X72060714Y-97334738D02*
X72003572Y-97449024D01*
X72003572Y-97449024D02*
X71946429Y-97506167D01*
X71946429Y-97506167D02*
X71832143Y-97563309D01*
X71832143Y-97563309D02*
X71603572Y-97563309D01*
X71603572Y-97563309D02*
X71489286Y-97506167D01*
X72460714Y-96763309D02*
X72746428Y-97563309D01*
X73032143Y-96763309D02*
X72746428Y-97563309D01*
X72746428Y-97563309D02*
X72632143Y-97849024D01*
X72632143Y-97849024D02*
X72575000Y-97906167D01*
X72575000Y-97906167D02*
X72460714Y-97963309D01*
X74803572Y-96934738D02*
X74403572Y-96934738D01*
X74403572Y-97563309D02*
X74403572Y-96363309D01*
X74403572Y-96363309D02*
X74975000Y-96363309D01*
X75946429Y-96763309D02*
X75946429Y-97563309D01*
X75432143Y-96763309D02*
X75432143Y-97391881D01*
X75432143Y-97391881D02*
X75489286Y-97506167D01*
X75489286Y-97506167D02*
X75603571Y-97563309D01*
X75603571Y-97563309D02*
X75775000Y-97563309D01*
X75775000Y-97563309D02*
X75889286Y-97506167D01*
X75889286Y-97506167D02*
X75946429Y-97449024D01*
X76517857Y-96763309D02*
X76517857Y-97563309D01*
X76517857Y-96877595D02*
X76575000Y-96820452D01*
X76575000Y-96820452D02*
X76689285Y-96763309D01*
X76689285Y-96763309D02*
X76860714Y-96763309D01*
X76860714Y-96763309D02*
X76975000Y-96820452D01*
X76975000Y-96820452D02*
X77032143Y-96934738D01*
X77032143Y-96934738D02*
X77032143Y-97563309D01*
X77603571Y-96763309D02*
X77603571Y-97563309D01*
X77603571Y-96877595D02*
X77660714Y-96820452D01*
X77660714Y-96820452D02*
X77774999Y-96763309D01*
X77774999Y-96763309D02*
X77946428Y-96763309D01*
X77946428Y-96763309D02*
X78060714Y-96820452D01*
X78060714Y-96820452D02*
X78117857Y-96934738D01*
X78117857Y-96934738D02*
X78117857Y-97563309D01*
X78574999Y-96763309D02*
X78860713Y-97563309D01*
X79146428Y-96763309D02*
X78860713Y-97563309D01*
X78860713Y-97563309D02*
X78746428Y-97849024D01*
X78746428Y-97849024D02*
X78689285Y-97906167D01*
X78689285Y-97906167D02*
X78574999Y-97963309D01*
X79603571Y-96763309D02*
X79603571Y-97963309D01*
X79603571Y-96820452D02*
X79717857Y-96763309D01*
X79717857Y-96763309D02*
X79946428Y-96763309D01*
X79946428Y-96763309D02*
X80060714Y-96820452D01*
X80060714Y-96820452D02*
X80117857Y-96877595D01*
X80117857Y-96877595D02*
X80174999Y-96991881D01*
X80174999Y-96991881D02*
X80174999Y-97334738D01*
X80174999Y-97334738D02*
X80117857Y-97449024D01*
X80117857Y-97449024D02*
X80060714Y-97506167D01*
X80060714Y-97506167D02*
X79946428Y-97563309D01*
X79946428Y-97563309D02*
X79717857Y-97563309D01*
X79717857Y-97563309D02*
X79603571Y-97506167D01*
X80689285Y-97563309D02*
X80689285Y-96763309D01*
X80689285Y-96363309D02*
X80632142Y-96420452D01*
X80632142Y-96420452D02*
X80689285Y-96477595D01*
X80689285Y-96477595D02*
X80746428Y-96420452D01*
X80746428Y-96420452D02*
X80689285Y-96363309D01*
X80689285Y-96363309D02*
X80689285Y-96477595D01*
X81260714Y-96763309D02*
X81260714Y-97563309D01*
X81260714Y-96877595D02*
X81317857Y-96820452D01*
X81317857Y-96820452D02*
X81432142Y-96763309D01*
X81432142Y-96763309D02*
X81603571Y-96763309D01*
X81603571Y-96763309D02*
X81717857Y-96820452D01*
X81717857Y-96820452D02*
X81775000Y-96934738D01*
X81775000Y-96934738D02*
X81775000Y-97563309D01*
X82346428Y-97563309D02*
X82346428Y-96363309D01*
X82460714Y-97106167D02*
X82803571Y-97563309D01*
X82803571Y-96763309D02*
X82346428Y-97220452D01*
X83203571Y-96763309D02*
X83489285Y-97563309D01*
X83775000Y-96763309D02*
X83489285Y-97563309D01*
X83489285Y-97563309D02*
X83375000Y-97849024D01*
X83375000Y-97849024D02*
X83317857Y-97906167D01*
X83317857Y-97906167D02*
X83203571Y-97963309D01*
D12*
X158119048Y-46768666D02*
X158880953Y-46768666D01*
X158500000Y-47149619D02*
X158500000Y-46387714D01*
X151767248Y-40068666D02*
X152529153Y-40068666D01*
X152148200Y-40449619D02*
X152148200Y-39687714D01*
D11*
X145109580Y-81916666D02*
X145157200Y-81964285D01*
X145157200Y-81964285D02*
X145204819Y-82107142D01*
X145204819Y-82107142D02*
X145204819Y-82202380D01*
X145204819Y-82202380D02*
X145157200Y-82345237D01*
X145157200Y-82345237D02*
X145061961Y-82440475D01*
X145061961Y-82440475D02*
X144966723Y-82488094D01*
X144966723Y-82488094D02*
X144776247Y-82535713D01*
X144776247Y-82535713D02*
X144633390Y-82535713D01*
X144633390Y-82535713D02*
X144442914Y-82488094D01*
X144442914Y-82488094D02*
X144347676Y-82440475D01*
X144347676Y-82440475D02*
X144252438Y-82345237D01*
X144252438Y-82345237D02*
X144204819Y-82202380D01*
X144204819Y-82202380D02*
X144204819Y-82107142D01*
X144204819Y-82107142D02*
X144252438Y-81964285D01*
X144252438Y-81964285D02*
X144300057Y-81916666D01*
X144538152Y-81059523D02*
X145204819Y-81059523D01*
X144157200Y-81297618D02*
X144871485Y-81535713D01*
X144871485Y-81535713D02*
X144871485Y-80916666D01*
X122417019Y-103217857D02*
X121940828Y-103551190D01*
X122417019Y-103789285D02*
X121417019Y-103789285D01*
X121417019Y-103789285D02*
X121417019Y-103408333D01*
X121417019Y-103408333D02*
X121464638Y-103313095D01*
X121464638Y-103313095D02*
X121512257Y-103265476D01*
X121512257Y-103265476D02*
X121607495Y-103217857D01*
X121607495Y-103217857D02*
X121750352Y-103217857D01*
X121750352Y-103217857D02*
X121845590Y-103265476D01*
X121845590Y-103265476D02*
X121893209Y-103313095D01*
X121893209Y-103313095D02*
X121940828Y-103408333D01*
X121940828Y-103408333D02*
X121940828Y-103789285D01*
X121417019Y-102884523D02*
X121417019Y-102265476D01*
X121417019Y-102265476D02*
X121797971Y-102598809D01*
X121797971Y-102598809D02*
X121797971Y-102455952D01*
X121797971Y-102455952D02*
X121845590Y-102360714D01*
X121845590Y-102360714D02*
X121893209Y-102313095D01*
X121893209Y-102313095D02*
X121988447Y-102265476D01*
X121988447Y-102265476D02*
X122226542Y-102265476D01*
X122226542Y-102265476D02*
X122321780Y-102313095D01*
X122321780Y-102313095D02*
X122369400Y-102360714D01*
X122369400Y-102360714D02*
X122417019Y-102455952D01*
X122417019Y-102455952D02*
X122417019Y-102741666D01*
X122417019Y-102741666D02*
X122369400Y-102836904D01*
X122369400Y-102836904D02*
X122321780Y-102884523D01*
X122417019Y-101313095D02*
X122417019Y-101884523D01*
X122417019Y-101598809D02*
X121417019Y-101598809D01*
X121417019Y-101598809D02*
X121559876Y-101694047D01*
X121559876Y-101694047D02*
X121655114Y-101789285D01*
X121655114Y-101789285D02*
X121702733Y-101884523D01*
X67304819Y-44883333D02*
X68019104Y-44883333D01*
X68019104Y-44883333D02*
X68161961Y-44930952D01*
X68161961Y-44930952D02*
X68257200Y-45026190D01*
X68257200Y-45026190D02*
X68304819Y-45169047D01*
X68304819Y-45169047D02*
X68304819Y-45264285D01*
X68304819Y-44407142D02*
X67304819Y-44407142D01*
X67304819Y-44407142D02*
X67304819Y-44026190D01*
X67304819Y-44026190D02*
X67352438Y-43930952D01*
X67352438Y-43930952D02*
X67400057Y-43883333D01*
X67400057Y-43883333D02*
X67495295Y-43835714D01*
X67495295Y-43835714D02*
X67638152Y-43835714D01*
X67638152Y-43835714D02*
X67733390Y-43883333D01*
X67733390Y-43883333D02*
X67781009Y-43930952D01*
X67781009Y-43930952D02*
X67828628Y-44026190D01*
X67828628Y-44026190D02*
X67828628Y-44407142D01*
X68304819Y-42883333D02*
X68304819Y-43454761D01*
X68304819Y-43169047D02*
X67304819Y-43169047D01*
X67304819Y-43169047D02*
X67447676Y-43264285D01*
X67447676Y-43264285D02*
X67542914Y-43359523D01*
X67542914Y-43359523D02*
X67590533Y-43454761D01*
X145899819Y-94216666D02*
X145423628Y-94549999D01*
X145899819Y-94788094D02*
X144899819Y-94788094D01*
X144899819Y-94788094D02*
X144899819Y-94407142D01*
X144899819Y-94407142D02*
X144947438Y-94311904D01*
X144947438Y-94311904D02*
X144995057Y-94264285D01*
X144995057Y-94264285D02*
X145090295Y-94216666D01*
X145090295Y-94216666D02*
X145233152Y-94216666D01*
X145233152Y-94216666D02*
X145328390Y-94264285D01*
X145328390Y-94264285D02*
X145376009Y-94311904D01*
X145376009Y-94311904D02*
X145423628Y-94407142D01*
X145423628Y-94407142D02*
X145423628Y-94788094D01*
X144995057Y-93835713D02*
X144947438Y-93788094D01*
X144947438Y-93788094D02*
X144899819Y-93692856D01*
X144899819Y-93692856D02*
X144899819Y-93454761D01*
X144899819Y-93454761D02*
X144947438Y-93359523D01*
X144947438Y-93359523D02*
X144995057Y-93311904D01*
X144995057Y-93311904D02*
X145090295Y-93264285D01*
X145090295Y-93264285D02*
X145185533Y-93264285D01*
X145185533Y-93264285D02*
X145328390Y-93311904D01*
X145328390Y-93311904D02*
X145899819Y-93883332D01*
X145899819Y-93883332D02*
X145899819Y-93264285D01*
X132804761Y-44025057D02*
X132709523Y-43977438D01*
X132709523Y-43977438D02*
X132614285Y-43882200D01*
X132614285Y-43882200D02*
X132471428Y-43739342D01*
X132471428Y-43739342D02*
X132376190Y-43691723D01*
X132376190Y-43691723D02*
X132280952Y-43691723D01*
X132328571Y-43929819D02*
X132233333Y-43882200D01*
X132233333Y-43882200D02*
X132138095Y-43786961D01*
X132138095Y-43786961D02*
X132090476Y-43596485D01*
X132090476Y-43596485D02*
X132090476Y-43263152D01*
X132090476Y-43263152D02*
X132138095Y-43072676D01*
X132138095Y-43072676D02*
X132233333Y-42977438D01*
X132233333Y-42977438D02*
X132328571Y-42929819D01*
X132328571Y-42929819D02*
X132519047Y-42929819D01*
X132519047Y-42929819D02*
X132614285Y-42977438D01*
X132614285Y-42977438D02*
X132709523Y-43072676D01*
X132709523Y-43072676D02*
X132757142Y-43263152D01*
X132757142Y-43263152D02*
X132757142Y-43596485D01*
X132757142Y-43596485D02*
X132709523Y-43786961D01*
X132709523Y-43786961D02*
X132614285Y-43882200D01*
X132614285Y-43882200D02*
X132519047Y-43929819D01*
X132519047Y-43929819D02*
X132328571Y-43929819D01*
X133138095Y-43025057D02*
X133185714Y-42977438D01*
X133185714Y-42977438D02*
X133280952Y-42929819D01*
X133280952Y-42929819D02*
X133519047Y-42929819D01*
X133519047Y-42929819D02*
X133614285Y-42977438D01*
X133614285Y-42977438D02*
X133661904Y-43025057D01*
X133661904Y-43025057D02*
X133709523Y-43120295D01*
X133709523Y-43120295D02*
X133709523Y-43215533D01*
X133709523Y-43215533D02*
X133661904Y-43358390D01*
X133661904Y-43358390D02*
X133090476Y-43929819D01*
X133090476Y-43929819D02*
X133709523Y-43929819D01*
X133534819Y-96266666D02*
X133058628Y-96599999D01*
X133534819Y-96838094D02*
X132534819Y-96838094D01*
X132534819Y-96838094D02*
X132534819Y-96457142D01*
X132534819Y-96457142D02*
X132582438Y-96361904D01*
X132582438Y-96361904D02*
X132630057Y-96314285D01*
X132630057Y-96314285D02*
X132725295Y-96266666D01*
X132725295Y-96266666D02*
X132868152Y-96266666D01*
X132868152Y-96266666D02*
X132963390Y-96314285D01*
X132963390Y-96314285D02*
X133011009Y-96361904D01*
X133011009Y-96361904D02*
X133058628Y-96457142D01*
X133058628Y-96457142D02*
X133058628Y-96838094D01*
X132868152Y-95409523D02*
X133534819Y-95409523D01*
X132487200Y-95647618D02*
X133201485Y-95885713D01*
X133201485Y-95885713D02*
X133201485Y-95266666D01*
X159604819Y-53344504D02*
X160414342Y-53344504D01*
X160414342Y-53344504D02*
X160509580Y-53296885D01*
X160509580Y-53296885D02*
X160557200Y-53249266D01*
X160557200Y-53249266D02*
X160604819Y-53154028D01*
X160604819Y-53154028D02*
X160604819Y-52963552D01*
X160604819Y-52963552D02*
X160557200Y-52868314D01*
X160557200Y-52868314D02*
X160509580Y-52820695D01*
X160509580Y-52820695D02*
X160414342Y-52773076D01*
X160414342Y-52773076D02*
X159604819Y-52773076D01*
X159604819Y-52392123D02*
X159604819Y-51773076D01*
X159604819Y-51773076D02*
X159985771Y-52106409D01*
X159985771Y-52106409D02*
X159985771Y-51963552D01*
X159985771Y-51963552D02*
X160033390Y-51868314D01*
X160033390Y-51868314D02*
X160081009Y-51820695D01*
X160081009Y-51820695D02*
X160176247Y-51773076D01*
X160176247Y-51773076D02*
X160414342Y-51773076D01*
X160414342Y-51773076D02*
X160509580Y-51820695D01*
X160509580Y-51820695D02*
X160557200Y-51868314D01*
X160557200Y-51868314D02*
X160604819Y-51963552D01*
X160604819Y-51963552D02*
X160604819Y-52249266D01*
X160604819Y-52249266D02*
X160557200Y-52344504D01*
X160557200Y-52344504D02*
X160509580Y-52392123D01*
X163438095Y-58041019D02*
X163438095Y-58850542D01*
X163438095Y-58850542D02*
X163485714Y-58945780D01*
X163485714Y-58945780D02*
X163533333Y-58993400D01*
X163533333Y-58993400D02*
X163628571Y-59041019D01*
X163628571Y-59041019D02*
X163819047Y-59041019D01*
X163819047Y-59041019D02*
X163914285Y-58993400D01*
X163914285Y-58993400D02*
X163961904Y-58945780D01*
X163961904Y-58945780D02*
X164009523Y-58850542D01*
X164009523Y-58850542D02*
X164009523Y-58041019D01*
X164961904Y-58041019D02*
X164485714Y-58041019D01*
X164485714Y-58041019D02*
X164438095Y-58517209D01*
X164438095Y-58517209D02*
X164485714Y-58469590D01*
X164485714Y-58469590D02*
X164580952Y-58421971D01*
X164580952Y-58421971D02*
X164819047Y-58421971D01*
X164819047Y-58421971D02*
X164914285Y-58469590D01*
X164914285Y-58469590D02*
X164961904Y-58517209D01*
X164961904Y-58517209D02*
X165009523Y-58612447D01*
X165009523Y-58612447D02*
X165009523Y-58850542D01*
X165009523Y-58850542D02*
X164961904Y-58945780D01*
X164961904Y-58945780D02*
X164914285Y-58993400D01*
X164914285Y-58993400D02*
X164819047Y-59041019D01*
X164819047Y-59041019D02*
X164580952Y-59041019D01*
X164580952Y-59041019D02*
X164485714Y-58993400D01*
X164485714Y-58993400D02*
X164438095Y-58945780D01*
X164847419Y-90288809D02*
X164371228Y-90622142D01*
X164847419Y-90860237D02*
X163847419Y-90860237D01*
X163847419Y-90860237D02*
X163847419Y-90479285D01*
X163847419Y-90479285D02*
X163895038Y-90384047D01*
X163895038Y-90384047D02*
X163942657Y-90336428D01*
X163942657Y-90336428D02*
X164037895Y-90288809D01*
X164037895Y-90288809D02*
X164180752Y-90288809D01*
X164180752Y-90288809D02*
X164275990Y-90336428D01*
X164275990Y-90336428D02*
X164323609Y-90384047D01*
X164323609Y-90384047D02*
X164371228Y-90479285D01*
X164371228Y-90479285D02*
X164371228Y-90860237D01*
X164942657Y-90098333D02*
X164942657Y-89336428D01*
X164799800Y-89145951D02*
X164847419Y-89003094D01*
X164847419Y-89003094D02*
X164847419Y-88764999D01*
X164847419Y-88764999D02*
X164799800Y-88669761D01*
X164799800Y-88669761D02*
X164752180Y-88622142D01*
X164752180Y-88622142D02*
X164656942Y-88574523D01*
X164656942Y-88574523D02*
X164561704Y-88574523D01*
X164561704Y-88574523D02*
X164466466Y-88622142D01*
X164466466Y-88622142D02*
X164418847Y-88669761D01*
X164418847Y-88669761D02*
X164371228Y-88764999D01*
X164371228Y-88764999D02*
X164323609Y-88955475D01*
X164323609Y-88955475D02*
X164275990Y-89050713D01*
X164275990Y-89050713D02*
X164228371Y-89098332D01*
X164228371Y-89098332D02*
X164133133Y-89145951D01*
X164133133Y-89145951D02*
X164037895Y-89145951D01*
X164037895Y-89145951D02*
X163942657Y-89098332D01*
X163942657Y-89098332D02*
X163895038Y-89050713D01*
X163895038Y-89050713D02*
X163847419Y-88955475D01*
X163847419Y-88955475D02*
X163847419Y-88717380D01*
X163847419Y-88717380D02*
X163895038Y-88574523D01*
X164847419Y-88145951D02*
X163847419Y-88145951D01*
X163847419Y-88145951D02*
X164847419Y-87574523D01*
X164847419Y-87574523D02*
X163847419Y-87574523D01*
X164799800Y-87145951D02*
X164847419Y-87003094D01*
X164847419Y-87003094D02*
X164847419Y-86764999D01*
X164847419Y-86764999D02*
X164799800Y-86669761D01*
X164799800Y-86669761D02*
X164752180Y-86622142D01*
X164752180Y-86622142D02*
X164656942Y-86574523D01*
X164656942Y-86574523D02*
X164561704Y-86574523D01*
X164561704Y-86574523D02*
X164466466Y-86622142D01*
X164466466Y-86622142D02*
X164418847Y-86669761D01*
X164418847Y-86669761D02*
X164371228Y-86764999D01*
X164371228Y-86764999D02*
X164323609Y-86955475D01*
X164323609Y-86955475D02*
X164275990Y-87050713D01*
X164275990Y-87050713D02*
X164228371Y-87098332D01*
X164228371Y-87098332D02*
X164133133Y-87145951D01*
X164133133Y-87145951D02*
X164037895Y-87145951D01*
X164037895Y-87145951D02*
X163942657Y-87098332D01*
X163942657Y-87098332D02*
X163895038Y-87050713D01*
X163895038Y-87050713D02*
X163847419Y-86955475D01*
X163847419Y-86955475D02*
X163847419Y-86717380D01*
X163847419Y-86717380D02*
X163895038Y-86574523D01*
X164847419Y-85622142D02*
X164847419Y-86193570D01*
X164847419Y-85907856D02*
X163847419Y-85907856D01*
X163847419Y-85907856D02*
X163990276Y-86003094D01*
X163990276Y-86003094D02*
X164085514Y-86098332D01*
X164085514Y-86098332D02*
X164133133Y-86193570D01*
X120757142Y-70259819D02*
X120423809Y-69783628D01*
X120185714Y-70259819D02*
X120185714Y-69259819D01*
X120185714Y-69259819D02*
X120566666Y-69259819D01*
X120566666Y-69259819D02*
X120661904Y-69307438D01*
X120661904Y-69307438D02*
X120709523Y-69355057D01*
X120709523Y-69355057D02*
X120757142Y-69450295D01*
X120757142Y-69450295D02*
X120757142Y-69593152D01*
X120757142Y-69593152D02*
X120709523Y-69688390D01*
X120709523Y-69688390D02*
X120661904Y-69736009D01*
X120661904Y-69736009D02*
X120566666Y-69783628D01*
X120566666Y-69783628D02*
X120185714Y-69783628D01*
X121709523Y-70259819D02*
X121138095Y-70259819D01*
X121423809Y-70259819D02*
X121423809Y-69259819D01*
X121423809Y-69259819D02*
X121328571Y-69402676D01*
X121328571Y-69402676D02*
X121233333Y-69497914D01*
X121233333Y-69497914D02*
X121138095Y-69545533D01*
X122661904Y-70259819D02*
X122090476Y-70259819D01*
X122376190Y-70259819D02*
X122376190Y-69259819D01*
X122376190Y-69259819D02*
X122280952Y-69402676D01*
X122280952Y-69402676D02*
X122185714Y-69497914D01*
X122185714Y-69497914D02*
X122090476Y-69545533D01*
X152241419Y-59761095D02*
X151765228Y-60094428D01*
X152241419Y-60332523D02*
X151241419Y-60332523D01*
X151241419Y-60332523D02*
X151241419Y-59951571D01*
X151241419Y-59951571D02*
X151289038Y-59856333D01*
X151289038Y-59856333D02*
X151336657Y-59808714D01*
X151336657Y-59808714D02*
X151431895Y-59761095D01*
X151431895Y-59761095D02*
X151574752Y-59761095D01*
X151574752Y-59761095D02*
X151669990Y-59808714D01*
X151669990Y-59808714D02*
X151717609Y-59856333D01*
X151717609Y-59856333D02*
X151765228Y-59951571D01*
X151765228Y-59951571D02*
X151765228Y-60332523D01*
X152336657Y-59570619D02*
X152336657Y-58808714D01*
X152193800Y-58618237D02*
X152241419Y-58475380D01*
X152241419Y-58475380D02*
X152241419Y-58237285D01*
X152241419Y-58237285D02*
X152193800Y-58142047D01*
X152193800Y-58142047D02*
X152146180Y-58094428D01*
X152146180Y-58094428D02*
X152050942Y-58046809D01*
X152050942Y-58046809D02*
X151955704Y-58046809D01*
X151955704Y-58046809D02*
X151860466Y-58094428D01*
X151860466Y-58094428D02*
X151812847Y-58142047D01*
X151812847Y-58142047D02*
X151765228Y-58237285D01*
X151765228Y-58237285D02*
X151717609Y-58427761D01*
X151717609Y-58427761D02*
X151669990Y-58522999D01*
X151669990Y-58522999D02*
X151622371Y-58570618D01*
X151622371Y-58570618D02*
X151527133Y-58618237D01*
X151527133Y-58618237D02*
X151431895Y-58618237D01*
X151431895Y-58618237D02*
X151336657Y-58570618D01*
X151336657Y-58570618D02*
X151289038Y-58522999D01*
X151289038Y-58522999D02*
X151241419Y-58427761D01*
X151241419Y-58427761D02*
X151241419Y-58189666D01*
X151241419Y-58189666D02*
X151289038Y-58046809D01*
X152193800Y-57237285D02*
X152241419Y-57332523D01*
X152241419Y-57332523D02*
X152241419Y-57522999D01*
X152241419Y-57522999D02*
X152193800Y-57618237D01*
X152193800Y-57618237D02*
X152098561Y-57665856D01*
X152098561Y-57665856D02*
X151717609Y-57665856D01*
X151717609Y-57665856D02*
X151622371Y-57618237D01*
X151622371Y-57618237D02*
X151574752Y-57522999D01*
X151574752Y-57522999D02*
X151574752Y-57332523D01*
X151574752Y-57332523D02*
X151622371Y-57237285D01*
X151622371Y-57237285D02*
X151717609Y-57189666D01*
X151717609Y-57189666D02*
X151812847Y-57189666D01*
X151812847Y-57189666D02*
X151908085Y-57665856D01*
X151574752Y-56761094D02*
X152241419Y-56761094D01*
X151669990Y-56761094D02*
X151622371Y-56713475D01*
X151622371Y-56713475D02*
X151574752Y-56618237D01*
X151574752Y-56618237D02*
X151574752Y-56475380D01*
X151574752Y-56475380D02*
X151622371Y-56380142D01*
X151622371Y-56380142D02*
X151717609Y-56332523D01*
X151717609Y-56332523D02*
X152241419Y-56332523D01*
X152193800Y-55903951D02*
X152241419Y-55808713D01*
X152241419Y-55808713D02*
X152241419Y-55618237D01*
X152241419Y-55618237D02*
X152193800Y-55522999D01*
X152193800Y-55522999D02*
X152098561Y-55475380D01*
X152098561Y-55475380D02*
X152050942Y-55475380D01*
X152050942Y-55475380D02*
X151955704Y-55522999D01*
X151955704Y-55522999D02*
X151908085Y-55618237D01*
X151908085Y-55618237D02*
X151908085Y-55761094D01*
X151908085Y-55761094D02*
X151860466Y-55856332D01*
X151860466Y-55856332D02*
X151765228Y-55903951D01*
X151765228Y-55903951D02*
X151717609Y-55903951D01*
X151717609Y-55903951D02*
X151622371Y-55856332D01*
X151622371Y-55856332D02*
X151574752Y-55761094D01*
X151574752Y-55761094D02*
X151574752Y-55618237D01*
X151574752Y-55618237D02*
X151622371Y-55522999D01*
X152193800Y-54665856D02*
X152241419Y-54761094D01*
X152241419Y-54761094D02*
X152241419Y-54951570D01*
X152241419Y-54951570D02*
X152193800Y-55046808D01*
X152193800Y-55046808D02*
X152098561Y-55094427D01*
X152098561Y-55094427D02*
X151717609Y-55094427D01*
X151717609Y-55094427D02*
X151622371Y-55046808D01*
X151622371Y-55046808D02*
X151574752Y-54951570D01*
X151574752Y-54951570D02*
X151574752Y-54761094D01*
X151574752Y-54761094D02*
X151622371Y-54665856D01*
X151622371Y-54665856D02*
X151717609Y-54618237D01*
X151717609Y-54618237D02*
X151812847Y-54618237D01*
X151812847Y-54618237D02*
X151908085Y-55094427D01*
X152241419Y-53665856D02*
X152241419Y-54237284D01*
X152241419Y-53951570D02*
X151241419Y-53951570D01*
X151241419Y-53951570D02*
X151384276Y-54046808D01*
X151384276Y-54046808D02*
X151479514Y-54142046D01*
X151479514Y-54142046D02*
X151527133Y-54237284D01*
X166831419Y-85675694D02*
X165831419Y-85675694D01*
X165831419Y-85675694D02*
X165831419Y-85437599D01*
X165831419Y-85437599D02*
X165879038Y-85294742D01*
X165879038Y-85294742D02*
X165974276Y-85199504D01*
X165974276Y-85199504D02*
X166069514Y-85151885D01*
X166069514Y-85151885D02*
X166259990Y-85104266D01*
X166259990Y-85104266D02*
X166402847Y-85104266D01*
X166402847Y-85104266D02*
X166593323Y-85151885D01*
X166593323Y-85151885D02*
X166688561Y-85199504D01*
X166688561Y-85199504D02*
X166783800Y-85294742D01*
X166783800Y-85294742D02*
X166831419Y-85437599D01*
X166831419Y-85437599D02*
X166831419Y-85675694D01*
X166831419Y-84151885D02*
X166831419Y-84723313D01*
X166831419Y-84437599D02*
X165831419Y-84437599D01*
X165831419Y-84437599D02*
X165974276Y-84532837D01*
X165974276Y-84532837D02*
X166069514Y-84628075D01*
X166069514Y-84628075D02*
X166117133Y-84723313D01*
X89074666Y-100426819D02*
X89074666Y-101141104D01*
X89074666Y-101141104D02*
X89027047Y-101283961D01*
X89027047Y-101283961D02*
X88931809Y-101379200D01*
X88931809Y-101379200D02*
X88788952Y-101426819D01*
X88788952Y-101426819D02*
X88693714Y-101426819D01*
X90074666Y-101426819D02*
X89503238Y-101426819D01*
X89788952Y-101426819D02*
X89788952Y-100426819D01*
X89788952Y-100426819D02*
X89693714Y-100569676D01*
X89693714Y-100569676D02*
X89598476Y-100664914D01*
X89598476Y-100664914D02*
X89503238Y-100712533D01*
X165758333Y-94329580D02*
X165710714Y-94377200D01*
X165710714Y-94377200D02*
X165567857Y-94424819D01*
X165567857Y-94424819D02*
X165472619Y-94424819D01*
X165472619Y-94424819D02*
X165329762Y-94377200D01*
X165329762Y-94377200D02*
X165234524Y-94281961D01*
X165234524Y-94281961D02*
X165186905Y-94186723D01*
X165186905Y-94186723D02*
X165139286Y-93996247D01*
X165139286Y-93996247D02*
X165139286Y-93853390D01*
X165139286Y-93853390D02*
X165186905Y-93662914D01*
X165186905Y-93662914D02*
X165234524Y-93567676D01*
X165234524Y-93567676D02*
X165329762Y-93472438D01*
X165329762Y-93472438D02*
X165472619Y-93424819D01*
X165472619Y-93424819D02*
X165567857Y-93424819D01*
X165567857Y-93424819D02*
X165710714Y-93472438D01*
X165710714Y-93472438D02*
X165758333Y-93520057D01*
X166710714Y-94424819D02*
X166139286Y-94424819D01*
X166425000Y-94424819D02*
X166425000Y-93424819D01*
X166425000Y-93424819D02*
X166329762Y-93567676D01*
X166329762Y-93567676D02*
X166234524Y-93662914D01*
X166234524Y-93662914D02*
X166139286Y-93710533D01*
X141279819Y-96266666D02*
X140803628Y-96599999D01*
X141279819Y-96838094D02*
X140279819Y-96838094D01*
X140279819Y-96838094D02*
X140279819Y-96457142D01*
X140279819Y-96457142D02*
X140327438Y-96361904D01*
X140327438Y-96361904D02*
X140375057Y-96314285D01*
X140375057Y-96314285D02*
X140470295Y-96266666D01*
X140470295Y-96266666D02*
X140613152Y-96266666D01*
X140613152Y-96266666D02*
X140708390Y-96314285D01*
X140708390Y-96314285D02*
X140756009Y-96361904D01*
X140756009Y-96361904D02*
X140803628Y-96457142D01*
X140803628Y-96457142D02*
X140803628Y-96838094D01*
X140279819Y-95933332D02*
X140279819Y-95314285D01*
X140279819Y-95314285D02*
X140660771Y-95647618D01*
X140660771Y-95647618D02*
X140660771Y-95504761D01*
X140660771Y-95504761D02*
X140708390Y-95409523D01*
X140708390Y-95409523D02*
X140756009Y-95361904D01*
X140756009Y-95361904D02*
X140851247Y-95314285D01*
X140851247Y-95314285D02*
X141089342Y-95314285D01*
X141089342Y-95314285D02*
X141184580Y-95361904D01*
X141184580Y-95361904D02*
X141232200Y-95409523D01*
X141232200Y-95409523D02*
X141279819Y-95504761D01*
X141279819Y-95504761D02*
X141279819Y-95790475D01*
X141279819Y-95790475D02*
X141232200Y-95885713D01*
X141232200Y-95885713D02*
X141184580Y-95933332D01*
X177553221Y-49034580D02*
X177505602Y-49082200D01*
X177505602Y-49082200D02*
X177362745Y-49129819D01*
X177362745Y-49129819D02*
X177267507Y-49129819D01*
X177267507Y-49129819D02*
X177124650Y-49082200D01*
X177124650Y-49082200D02*
X177029412Y-48986961D01*
X177029412Y-48986961D02*
X176981793Y-48891723D01*
X176981793Y-48891723D02*
X176934174Y-48701247D01*
X176934174Y-48701247D02*
X176934174Y-48558390D01*
X176934174Y-48558390D02*
X176981793Y-48367914D01*
X176981793Y-48367914D02*
X177029412Y-48272676D01*
X177029412Y-48272676D02*
X177124650Y-48177438D01*
X177124650Y-48177438D02*
X177267507Y-48129819D01*
X177267507Y-48129819D02*
X177362745Y-48129819D01*
X177362745Y-48129819D02*
X177505602Y-48177438D01*
X177505602Y-48177438D02*
X177553221Y-48225057D01*
X178410364Y-48129819D02*
X178219888Y-48129819D01*
X178219888Y-48129819D02*
X178124650Y-48177438D01*
X178124650Y-48177438D02*
X178077031Y-48225057D01*
X178077031Y-48225057D02*
X177981793Y-48367914D01*
X177981793Y-48367914D02*
X177934174Y-48558390D01*
X177934174Y-48558390D02*
X177934174Y-48939342D01*
X177934174Y-48939342D02*
X177981793Y-49034580D01*
X177981793Y-49034580D02*
X178029412Y-49082200D01*
X178029412Y-49082200D02*
X178124650Y-49129819D01*
X178124650Y-49129819D02*
X178315126Y-49129819D01*
X178315126Y-49129819D02*
X178410364Y-49082200D01*
X178410364Y-49082200D02*
X178457983Y-49034580D01*
X178457983Y-49034580D02*
X178505602Y-48939342D01*
X178505602Y-48939342D02*
X178505602Y-48701247D01*
X178505602Y-48701247D02*
X178457983Y-48606009D01*
X178457983Y-48606009D02*
X178410364Y-48558390D01*
X178410364Y-48558390D02*
X178315126Y-48510771D01*
X178315126Y-48510771D02*
X178124650Y-48510771D01*
X178124650Y-48510771D02*
X178029412Y-48558390D01*
X178029412Y-48558390D02*
X177981793Y-48606009D01*
X177981793Y-48606009D02*
X177934174Y-48701247D01*
X128774819Y-95036666D02*
X128298628Y-95369999D01*
X128774819Y-95608094D02*
X127774819Y-95608094D01*
X127774819Y-95608094D02*
X127774819Y-95227142D01*
X127774819Y-95227142D02*
X127822438Y-95131904D01*
X127822438Y-95131904D02*
X127870057Y-95084285D01*
X127870057Y-95084285D02*
X127965295Y-95036666D01*
X127965295Y-95036666D02*
X128108152Y-95036666D01*
X128108152Y-95036666D02*
X128203390Y-95084285D01*
X128203390Y-95084285D02*
X128251009Y-95131904D01*
X128251009Y-95131904D02*
X128298628Y-95227142D01*
X128298628Y-95227142D02*
X128298628Y-95608094D01*
X128774819Y-94084285D02*
X128774819Y-94655713D01*
X128774819Y-94369999D02*
X127774819Y-94369999D01*
X127774819Y-94369999D02*
X127917676Y-94465237D01*
X127917676Y-94465237D02*
X128012914Y-94560475D01*
X128012914Y-94560475D02*
X128060533Y-94655713D01*
X153541666Y-39279819D02*
X153541666Y-39994104D01*
X153541666Y-39994104D02*
X153494047Y-40136961D01*
X153494047Y-40136961D02*
X153398809Y-40232200D01*
X153398809Y-40232200D02*
X153255952Y-40279819D01*
X153255952Y-40279819D02*
X153160714Y-40279819D01*
X153922619Y-39279819D02*
X154589285Y-39279819D01*
X154589285Y-39279819D02*
X154160714Y-40279819D01*
X177083333Y-57634580D02*
X177035714Y-57682200D01*
X177035714Y-57682200D02*
X176892857Y-57729819D01*
X176892857Y-57729819D02*
X176797619Y-57729819D01*
X176797619Y-57729819D02*
X176654762Y-57682200D01*
X176654762Y-57682200D02*
X176559524Y-57586961D01*
X176559524Y-57586961D02*
X176511905Y-57491723D01*
X176511905Y-57491723D02*
X176464286Y-57301247D01*
X176464286Y-57301247D02*
X176464286Y-57158390D01*
X176464286Y-57158390D02*
X176511905Y-56967914D01*
X176511905Y-56967914D02*
X176559524Y-56872676D01*
X176559524Y-56872676D02*
X176654762Y-56777438D01*
X176654762Y-56777438D02*
X176797619Y-56729819D01*
X176797619Y-56729819D02*
X176892857Y-56729819D01*
X176892857Y-56729819D02*
X177035714Y-56777438D01*
X177035714Y-56777438D02*
X177083333Y-56825057D01*
X177464286Y-56825057D02*
X177511905Y-56777438D01*
X177511905Y-56777438D02*
X177607143Y-56729819D01*
X177607143Y-56729819D02*
X177845238Y-56729819D01*
X177845238Y-56729819D02*
X177940476Y-56777438D01*
X177940476Y-56777438D02*
X177988095Y-56825057D01*
X177988095Y-56825057D02*
X178035714Y-56920295D01*
X178035714Y-56920295D02*
X178035714Y-57015533D01*
X178035714Y-57015533D02*
X177988095Y-57158390D01*
X177988095Y-57158390D02*
X177416667Y-57729819D01*
X177416667Y-57729819D02*
X178035714Y-57729819D01*
X116070219Y-95513657D02*
X115594028Y-95846990D01*
X116070219Y-96085085D02*
X115070219Y-96085085D01*
X115070219Y-96085085D02*
X115070219Y-95704133D01*
X115070219Y-95704133D02*
X115117838Y-95608895D01*
X115117838Y-95608895D02*
X115165457Y-95561276D01*
X115165457Y-95561276D02*
X115260695Y-95513657D01*
X115260695Y-95513657D02*
X115403552Y-95513657D01*
X115403552Y-95513657D02*
X115498790Y-95561276D01*
X115498790Y-95561276D02*
X115546409Y-95608895D01*
X115546409Y-95608895D02*
X115594028Y-95704133D01*
X115594028Y-95704133D02*
X115594028Y-96085085D01*
X115165457Y-95132704D02*
X115117838Y-95085085D01*
X115117838Y-95085085D02*
X115070219Y-94989847D01*
X115070219Y-94989847D02*
X115070219Y-94751752D01*
X115070219Y-94751752D02*
X115117838Y-94656514D01*
X115117838Y-94656514D02*
X115165457Y-94608895D01*
X115165457Y-94608895D02*
X115260695Y-94561276D01*
X115260695Y-94561276D02*
X115355933Y-94561276D01*
X115355933Y-94561276D02*
X115498790Y-94608895D01*
X115498790Y-94608895D02*
X116070219Y-95180323D01*
X116070219Y-95180323D02*
X116070219Y-94561276D01*
X116070219Y-93608895D02*
X116070219Y-94180323D01*
X116070219Y-93894609D02*
X115070219Y-93894609D01*
X115070219Y-93894609D02*
X115213076Y-93989847D01*
X115213076Y-93989847D02*
X115308314Y-94085085D01*
X115308314Y-94085085D02*
X115355933Y-94180323D01*
X93726095Y-81742819D02*
X93726095Y-82552342D01*
X93726095Y-82552342D02*
X93773714Y-82647580D01*
X93773714Y-82647580D02*
X93821333Y-82695200D01*
X93821333Y-82695200D02*
X93916571Y-82742819D01*
X93916571Y-82742819D02*
X94107047Y-82742819D01*
X94107047Y-82742819D02*
X94202285Y-82695200D01*
X94202285Y-82695200D02*
X94249904Y-82647580D01*
X94249904Y-82647580D02*
X94297523Y-82552342D01*
X94297523Y-82552342D02*
X94297523Y-81742819D01*
X95297523Y-82742819D02*
X94726095Y-82742819D01*
X95011809Y-82742819D02*
X95011809Y-81742819D01*
X95011809Y-81742819D02*
X94916571Y-81885676D01*
X94916571Y-81885676D02*
X94821333Y-81980914D01*
X94821333Y-81980914D02*
X94726095Y-82028533D01*
X95622133Y-66103980D02*
X95574514Y-66151600D01*
X95574514Y-66151600D02*
X95431657Y-66199219D01*
X95431657Y-66199219D02*
X95336419Y-66199219D01*
X95336419Y-66199219D02*
X95193562Y-66151600D01*
X95193562Y-66151600D02*
X95098324Y-66056361D01*
X95098324Y-66056361D02*
X95050705Y-65961123D01*
X95050705Y-65961123D02*
X95003086Y-65770647D01*
X95003086Y-65770647D02*
X95003086Y-65627790D01*
X95003086Y-65627790D02*
X95050705Y-65437314D01*
X95050705Y-65437314D02*
X95098324Y-65342076D01*
X95098324Y-65342076D02*
X95193562Y-65246838D01*
X95193562Y-65246838D02*
X95336419Y-65199219D01*
X95336419Y-65199219D02*
X95431657Y-65199219D01*
X95431657Y-65199219D02*
X95574514Y-65246838D01*
X95574514Y-65246838D02*
X95622133Y-65294457D01*
X95955467Y-65199219D02*
X96574514Y-65199219D01*
X96574514Y-65199219D02*
X96241181Y-65580171D01*
X96241181Y-65580171D02*
X96384038Y-65580171D01*
X96384038Y-65580171D02*
X96479276Y-65627790D01*
X96479276Y-65627790D02*
X96526895Y-65675409D01*
X96526895Y-65675409D02*
X96574514Y-65770647D01*
X96574514Y-65770647D02*
X96574514Y-66008742D01*
X96574514Y-66008742D02*
X96526895Y-66103980D01*
X96526895Y-66103980D02*
X96479276Y-66151600D01*
X96479276Y-66151600D02*
X96384038Y-66199219D01*
X96384038Y-66199219D02*
X96098324Y-66199219D01*
X96098324Y-66199219D02*
X96003086Y-66151600D01*
X96003086Y-66151600D02*
X95955467Y-66103980D01*
X152991819Y-83376904D02*
X153801342Y-83376904D01*
X153801342Y-83376904D02*
X153896580Y-83329285D01*
X153896580Y-83329285D02*
X153944200Y-83281666D01*
X153944200Y-83281666D02*
X153991819Y-83186428D01*
X153991819Y-83186428D02*
X153991819Y-82995952D01*
X153991819Y-82995952D02*
X153944200Y-82900714D01*
X153944200Y-82900714D02*
X153896580Y-82853095D01*
X153896580Y-82853095D02*
X153801342Y-82805476D01*
X153801342Y-82805476D02*
X152991819Y-82805476D01*
X152991819Y-81900714D02*
X152991819Y-82091190D01*
X152991819Y-82091190D02*
X153039438Y-82186428D01*
X153039438Y-82186428D02*
X153087057Y-82234047D01*
X153087057Y-82234047D02*
X153229914Y-82329285D01*
X153229914Y-82329285D02*
X153420390Y-82376904D01*
X153420390Y-82376904D02*
X153801342Y-82376904D01*
X153801342Y-82376904D02*
X153896580Y-82329285D01*
X153896580Y-82329285D02*
X153944200Y-82281666D01*
X153944200Y-82281666D02*
X153991819Y-82186428D01*
X153991819Y-82186428D02*
X153991819Y-81995952D01*
X153991819Y-81995952D02*
X153944200Y-81900714D01*
X153944200Y-81900714D02*
X153896580Y-81853095D01*
X153896580Y-81853095D02*
X153801342Y-81805476D01*
X153801342Y-81805476D02*
X153563247Y-81805476D01*
X153563247Y-81805476D02*
X153468009Y-81853095D01*
X153468009Y-81853095D02*
X153420390Y-81900714D01*
X153420390Y-81900714D02*
X153372771Y-81995952D01*
X153372771Y-81995952D02*
X153372771Y-82186428D01*
X153372771Y-82186428D02*
X153420390Y-82281666D01*
X153420390Y-82281666D02*
X153468009Y-82329285D01*
X153468009Y-82329285D02*
X153563247Y-82376904D01*
X175166666Y-81294819D02*
X175166666Y-82009104D01*
X175166666Y-82009104D02*
X175119047Y-82151961D01*
X175119047Y-82151961D02*
X175023809Y-82247200D01*
X175023809Y-82247200D02*
X174880952Y-82294819D01*
X174880952Y-82294819D02*
X174785714Y-82294819D01*
X176071428Y-81628152D02*
X176071428Y-82294819D01*
X175833333Y-81247200D02*
X175595238Y-81961485D01*
X175595238Y-81961485D02*
X176214285Y-81961485D01*
X170296628Y-68084019D02*
X170296628Y-67084019D01*
X170725199Y-67179257D02*
X170772818Y-67131638D01*
X170772818Y-67131638D02*
X170868056Y-67084019D01*
X170868056Y-67084019D02*
X171106151Y-67084019D01*
X171106151Y-67084019D02*
X171201389Y-67131638D01*
X171201389Y-67131638D02*
X171249008Y-67179257D01*
X171249008Y-67179257D02*
X171296627Y-67274495D01*
X171296627Y-67274495D02*
X171296627Y-67369733D01*
X171296627Y-67369733D02*
X171249008Y-67512590D01*
X171249008Y-67512590D02*
X170677580Y-68084019D01*
X170677580Y-68084019D02*
X171296627Y-68084019D01*
X172296627Y-67988780D02*
X172249008Y-68036400D01*
X172249008Y-68036400D02*
X172106151Y-68084019D01*
X172106151Y-68084019D02*
X172010913Y-68084019D01*
X172010913Y-68084019D02*
X171868056Y-68036400D01*
X171868056Y-68036400D02*
X171772818Y-67941161D01*
X171772818Y-67941161D02*
X171725199Y-67845923D01*
X171725199Y-67845923D02*
X171677580Y-67655447D01*
X171677580Y-67655447D02*
X171677580Y-67512590D01*
X171677580Y-67512590D02*
X171725199Y-67322114D01*
X171725199Y-67322114D02*
X171772818Y-67226876D01*
X171772818Y-67226876D02*
X171868056Y-67131638D01*
X171868056Y-67131638D02*
X172010913Y-67084019D01*
X172010913Y-67084019D02*
X172106151Y-67084019D01*
X172106151Y-67084019D02*
X172249008Y-67131638D01*
X172249008Y-67131638D02*
X172296627Y-67179257D01*
X172487104Y-68179257D02*
X173249008Y-68179257D01*
X173439485Y-68036400D02*
X173582342Y-68084019D01*
X173582342Y-68084019D02*
X173820437Y-68084019D01*
X173820437Y-68084019D02*
X173915675Y-68036400D01*
X173915675Y-68036400D02*
X173963294Y-67988780D01*
X173963294Y-67988780D02*
X174010913Y-67893542D01*
X174010913Y-67893542D02*
X174010913Y-67798304D01*
X174010913Y-67798304D02*
X173963294Y-67703066D01*
X173963294Y-67703066D02*
X173915675Y-67655447D01*
X173915675Y-67655447D02*
X173820437Y-67607828D01*
X173820437Y-67607828D02*
X173629961Y-67560209D01*
X173629961Y-67560209D02*
X173534723Y-67512590D01*
X173534723Y-67512590D02*
X173487104Y-67464971D01*
X173487104Y-67464971D02*
X173439485Y-67369733D01*
X173439485Y-67369733D02*
X173439485Y-67274495D01*
X173439485Y-67274495D02*
X173487104Y-67179257D01*
X173487104Y-67179257D02*
X173534723Y-67131638D01*
X173534723Y-67131638D02*
X173629961Y-67084019D01*
X173629961Y-67084019D02*
X173868056Y-67084019D01*
X173868056Y-67084019D02*
X174010913Y-67131638D01*
X174820437Y-68036400D02*
X174725199Y-68084019D01*
X174725199Y-68084019D02*
X174534723Y-68084019D01*
X174534723Y-68084019D02*
X174439485Y-68036400D01*
X174439485Y-68036400D02*
X174391866Y-67941161D01*
X174391866Y-67941161D02*
X174391866Y-67560209D01*
X174391866Y-67560209D02*
X174439485Y-67464971D01*
X174439485Y-67464971D02*
X174534723Y-67417352D01*
X174534723Y-67417352D02*
X174725199Y-67417352D01*
X174725199Y-67417352D02*
X174820437Y-67464971D01*
X174820437Y-67464971D02*
X174868056Y-67560209D01*
X174868056Y-67560209D02*
X174868056Y-67655447D01*
X174868056Y-67655447D02*
X174391866Y-67750685D01*
X175296628Y-67417352D02*
X175296628Y-68084019D01*
X175296628Y-67512590D02*
X175344247Y-67464971D01*
X175344247Y-67464971D02*
X175439485Y-67417352D01*
X175439485Y-67417352D02*
X175582342Y-67417352D01*
X175582342Y-67417352D02*
X175677580Y-67464971D01*
X175677580Y-67464971D02*
X175725199Y-67560209D01*
X175725199Y-67560209D02*
X175725199Y-68084019D01*
X176153771Y-68036400D02*
X176249009Y-68084019D01*
X176249009Y-68084019D02*
X176439485Y-68084019D01*
X176439485Y-68084019D02*
X176534723Y-68036400D01*
X176534723Y-68036400D02*
X176582342Y-67941161D01*
X176582342Y-67941161D02*
X176582342Y-67893542D01*
X176582342Y-67893542D02*
X176534723Y-67798304D01*
X176534723Y-67798304D02*
X176439485Y-67750685D01*
X176439485Y-67750685D02*
X176296628Y-67750685D01*
X176296628Y-67750685D02*
X176201390Y-67703066D01*
X176201390Y-67703066D02*
X176153771Y-67607828D01*
X176153771Y-67607828D02*
X176153771Y-67560209D01*
X176153771Y-67560209D02*
X176201390Y-67464971D01*
X176201390Y-67464971D02*
X176296628Y-67417352D01*
X176296628Y-67417352D02*
X176439485Y-67417352D01*
X176439485Y-67417352D02*
X176534723Y-67464971D01*
X177153771Y-68084019D02*
X177058533Y-68036400D01*
X177058533Y-68036400D02*
X177010914Y-67988780D01*
X177010914Y-67988780D02*
X176963295Y-67893542D01*
X176963295Y-67893542D02*
X176963295Y-67607828D01*
X176963295Y-67607828D02*
X177010914Y-67512590D01*
X177010914Y-67512590D02*
X177058533Y-67464971D01*
X177058533Y-67464971D02*
X177153771Y-67417352D01*
X177153771Y-67417352D02*
X177296628Y-67417352D01*
X177296628Y-67417352D02*
X177391866Y-67464971D01*
X177391866Y-67464971D02*
X177439485Y-67512590D01*
X177439485Y-67512590D02*
X177487104Y-67607828D01*
X177487104Y-67607828D02*
X177487104Y-67893542D01*
X177487104Y-67893542D02*
X177439485Y-67988780D01*
X177439485Y-67988780D02*
X177391866Y-68036400D01*
X177391866Y-68036400D02*
X177296628Y-68084019D01*
X177296628Y-68084019D02*
X177153771Y-68084019D01*
X177915676Y-68084019D02*
X177915676Y-67417352D01*
X177915676Y-67607828D02*
X177963295Y-67512590D01*
X177963295Y-67512590D02*
X178010914Y-67464971D01*
X178010914Y-67464971D02*
X178106152Y-67417352D01*
X178106152Y-67417352D02*
X178201390Y-67417352D01*
X178296629Y-68179257D02*
X179058533Y-68179257D01*
X179439486Y-68084019D02*
X179344248Y-68036400D01*
X179344248Y-68036400D02*
X179296629Y-67988780D01*
X179296629Y-67988780D02*
X179249010Y-67893542D01*
X179249010Y-67893542D02*
X179249010Y-67607828D01*
X179249010Y-67607828D02*
X179296629Y-67512590D01*
X179296629Y-67512590D02*
X179344248Y-67464971D01*
X179344248Y-67464971D02*
X179439486Y-67417352D01*
X179439486Y-67417352D02*
X179582343Y-67417352D01*
X179582343Y-67417352D02*
X179677581Y-67464971D01*
X179677581Y-67464971D02*
X179725200Y-67512590D01*
X179725200Y-67512590D02*
X179772819Y-67607828D01*
X179772819Y-67607828D02*
X179772819Y-67893542D01*
X179772819Y-67893542D02*
X179725200Y-67988780D01*
X179725200Y-67988780D02*
X179677581Y-68036400D01*
X179677581Y-68036400D02*
X179582343Y-68084019D01*
X179582343Y-68084019D02*
X179439486Y-68084019D01*
X180629962Y-67417352D02*
X180629962Y-68084019D01*
X180201391Y-67417352D02*
X180201391Y-67941161D01*
X180201391Y-67941161D02*
X180249010Y-68036400D01*
X180249010Y-68036400D02*
X180344248Y-68084019D01*
X180344248Y-68084019D02*
X180487105Y-68084019D01*
X180487105Y-68084019D02*
X180582343Y-68036400D01*
X180582343Y-68036400D02*
X180629962Y-67988780D01*
X180963296Y-67417352D02*
X181344248Y-67417352D01*
X181106153Y-67084019D02*
X181106153Y-67941161D01*
X181106153Y-67941161D02*
X181153772Y-68036400D01*
X181153772Y-68036400D02*
X181249010Y-68084019D01*
X181249010Y-68084019D02*
X181344248Y-68084019D01*
X182201391Y-68084019D02*
X181629963Y-68084019D01*
X181915677Y-68084019D02*
X181915677Y-67084019D01*
X181915677Y-67084019D02*
X181820439Y-67226876D01*
X181820439Y-67226876D02*
X181725201Y-67322114D01*
X181725201Y-67322114D02*
X181629963Y-67369733D01*
X127534819Y-81246904D02*
X128344342Y-81246904D01*
X128344342Y-81246904D02*
X128439580Y-81199285D01*
X128439580Y-81199285D02*
X128487200Y-81151666D01*
X128487200Y-81151666D02*
X128534819Y-81056428D01*
X128534819Y-81056428D02*
X128534819Y-80865952D01*
X128534819Y-80865952D02*
X128487200Y-80770714D01*
X128487200Y-80770714D02*
X128439580Y-80723095D01*
X128439580Y-80723095D02*
X128344342Y-80675476D01*
X128344342Y-80675476D02*
X127534819Y-80675476D01*
X127630057Y-80246904D02*
X127582438Y-80199285D01*
X127582438Y-80199285D02*
X127534819Y-80104047D01*
X127534819Y-80104047D02*
X127534819Y-79865952D01*
X127534819Y-79865952D02*
X127582438Y-79770714D01*
X127582438Y-79770714D02*
X127630057Y-79723095D01*
X127630057Y-79723095D02*
X127725295Y-79675476D01*
X127725295Y-79675476D02*
X127820533Y-79675476D01*
X127820533Y-79675476D02*
X127963390Y-79723095D01*
X127963390Y-79723095D02*
X128534819Y-80294523D01*
X128534819Y-80294523D02*
X128534819Y-79675476D01*
X139325057Y-71370238D02*
X139277438Y-71465476D01*
X139277438Y-71465476D02*
X139182200Y-71560714D01*
X139182200Y-71560714D02*
X139039342Y-71703571D01*
X139039342Y-71703571D02*
X138991723Y-71798809D01*
X138991723Y-71798809D02*
X138991723Y-71894047D01*
X139229819Y-71846428D02*
X139182200Y-71941666D01*
X139182200Y-71941666D02*
X139086961Y-72036904D01*
X139086961Y-72036904D02*
X138896485Y-72084523D01*
X138896485Y-72084523D02*
X138563152Y-72084523D01*
X138563152Y-72084523D02*
X138372676Y-72036904D01*
X138372676Y-72036904D02*
X138277438Y-71941666D01*
X138277438Y-71941666D02*
X138229819Y-71846428D01*
X138229819Y-71846428D02*
X138229819Y-71655952D01*
X138229819Y-71655952D02*
X138277438Y-71560714D01*
X138277438Y-71560714D02*
X138372676Y-71465476D01*
X138372676Y-71465476D02*
X138563152Y-71417857D01*
X138563152Y-71417857D02*
X138896485Y-71417857D01*
X138896485Y-71417857D02*
X139086961Y-71465476D01*
X139086961Y-71465476D02*
X139182200Y-71560714D01*
X139182200Y-71560714D02*
X139229819Y-71655952D01*
X139229819Y-71655952D02*
X139229819Y-71846428D01*
X139229819Y-70465476D02*
X139229819Y-71036904D01*
X139229819Y-70751190D02*
X138229819Y-70751190D01*
X138229819Y-70751190D02*
X138372676Y-70846428D01*
X138372676Y-70846428D02*
X138467914Y-70941666D01*
X138467914Y-70941666D02*
X138515533Y-71036904D01*
X73654819Y-74683333D02*
X74369104Y-74683333D01*
X74369104Y-74683333D02*
X74511961Y-74730952D01*
X74511961Y-74730952D02*
X74607200Y-74826190D01*
X74607200Y-74826190D02*
X74654819Y-74969047D01*
X74654819Y-74969047D02*
X74654819Y-75064285D01*
X73654819Y-74302380D02*
X73654819Y-73683333D01*
X73654819Y-73683333D02*
X74035771Y-74016666D01*
X74035771Y-74016666D02*
X74035771Y-73873809D01*
X74035771Y-73873809D02*
X74083390Y-73778571D01*
X74083390Y-73778571D02*
X74131009Y-73730952D01*
X74131009Y-73730952D02*
X74226247Y-73683333D01*
X74226247Y-73683333D02*
X74464342Y-73683333D01*
X74464342Y-73683333D02*
X74559580Y-73730952D01*
X74559580Y-73730952D02*
X74607200Y-73778571D01*
X74607200Y-73778571D02*
X74654819Y-73873809D01*
X74654819Y-73873809D02*
X74654819Y-74159523D01*
X74654819Y-74159523D02*
X74607200Y-74254761D01*
X74607200Y-74254761D02*
X74559580Y-74302380D01*
X109712600Y-80022532D02*
X109760219Y-79879675D01*
X109760219Y-79879675D02*
X109760219Y-79641580D01*
X109760219Y-79641580D02*
X109712600Y-79546342D01*
X109712600Y-79546342D02*
X109664980Y-79498723D01*
X109664980Y-79498723D02*
X109569742Y-79451104D01*
X109569742Y-79451104D02*
X109474504Y-79451104D01*
X109474504Y-79451104D02*
X109379266Y-79498723D01*
X109379266Y-79498723D02*
X109331647Y-79546342D01*
X109331647Y-79546342D02*
X109284028Y-79641580D01*
X109284028Y-79641580D02*
X109236409Y-79832056D01*
X109236409Y-79832056D02*
X109188790Y-79927294D01*
X109188790Y-79927294D02*
X109141171Y-79974913D01*
X109141171Y-79974913D02*
X109045933Y-80022532D01*
X109045933Y-80022532D02*
X108950695Y-80022532D01*
X108950695Y-80022532D02*
X108855457Y-79974913D01*
X108855457Y-79974913D02*
X108807838Y-79927294D01*
X108807838Y-79927294D02*
X108760219Y-79832056D01*
X108760219Y-79832056D02*
X108760219Y-79593961D01*
X108760219Y-79593961D02*
X108807838Y-79451104D01*
X108760219Y-79117770D02*
X109760219Y-78879675D01*
X109760219Y-78879675D02*
X109045933Y-78689199D01*
X109045933Y-78689199D02*
X109760219Y-78498723D01*
X109760219Y-78498723D02*
X108760219Y-78260628D01*
X109760219Y-77355866D02*
X109760219Y-77927294D01*
X109760219Y-77641580D02*
X108760219Y-77641580D01*
X108760219Y-77641580D02*
X108903076Y-77736818D01*
X108903076Y-77736818D02*
X108998314Y-77832056D01*
X108998314Y-77832056D02*
X109045933Y-77927294D01*
X73066666Y-35799819D02*
X73066666Y-36514104D01*
X73066666Y-36514104D02*
X73019047Y-36656961D01*
X73019047Y-36656961D02*
X72923809Y-36752200D01*
X72923809Y-36752200D02*
X72780952Y-36799819D01*
X72780952Y-36799819D02*
X72685714Y-36799819D01*
X73495238Y-35895057D02*
X73542857Y-35847438D01*
X73542857Y-35847438D02*
X73638095Y-35799819D01*
X73638095Y-35799819D02*
X73876190Y-35799819D01*
X73876190Y-35799819D02*
X73971428Y-35847438D01*
X73971428Y-35847438D02*
X74019047Y-35895057D01*
X74019047Y-35895057D02*
X74066666Y-35990295D01*
X74066666Y-35990295D02*
X74066666Y-36085533D01*
X74066666Y-36085533D02*
X74019047Y-36228390D01*
X74019047Y-36228390D02*
X73447619Y-36799819D01*
X73447619Y-36799819D02*
X74066666Y-36799819D01*
D13*
%TO.C,C4*%
X141380000Y-79330000D02*
X141380000Y-84170000D01*
X143620000Y-79330000D02*
X141380000Y-79330000D01*
X143620000Y-79330000D02*
X143620000Y-84170000D01*
X143620000Y-84170000D02*
X141380000Y-84170000D01*
%TO.C,R31*%
X120592200Y-91600000D02*
X120592200Y-98140000D01*
X120592200Y-98140000D02*
X123332200Y-98140000D01*
X121962200Y-90830000D02*
X121962200Y-91600000D01*
X121962200Y-98910000D02*
X121962200Y-98140000D01*
X123332200Y-91600000D02*
X120592200Y-91600000D01*
X123332200Y-98140000D02*
X123332200Y-91600000D01*
%TO.C,JP1*%
X68650000Y-44750000D02*
X68650000Y-43350000D01*
X69350000Y-42650000D02*
X69950000Y-42650000D01*
X69950000Y-45450000D02*
X69350000Y-45450000D01*
X70650000Y-43350000D02*
X70650000Y-44750000D01*
X68650000Y-43350000D02*
G75*
G02*
X69350000Y-42650000I700000J0D01*
G01*
X69350000Y-45450000D02*
G75*
G02*
X68650000Y-44750000I-1J699999D01*
G01*
X69950000Y-42650000D02*
G75*
G02*
X70650000Y-43350000I0J-700000D01*
G01*
X70650000Y-44750000D02*
G75*
G02*
X69950000Y-45450000I-699999J-1D01*
G01*
%TO.C,R2*%
X141705000Y-90780000D02*
X141705000Y-97320000D01*
X141705000Y-97320000D02*
X144445000Y-97320000D01*
X143075000Y-90010000D02*
X143075000Y-90780000D01*
X143075000Y-98090000D02*
X143075000Y-97320000D01*
X144445000Y-90780000D02*
X141705000Y-90780000D01*
X144445000Y-97320000D02*
X144445000Y-90780000D01*
%TO.C,Q2*%
X127780000Y-44475000D02*
X127780000Y-60365000D01*
X127780000Y-44475000D02*
X138020000Y-44475000D01*
X127780000Y-60365000D02*
X138020000Y-60365000D01*
X130360000Y-60365000D02*
X130360000Y-62905000D01*
X132900000Y-60365000D02*
X132900000Y-62905000D01*
X135440000Y-60365000D02*
X135440000Y-62905000D01*
X138020000Y-44475000D02*
X138020000Y-60365000D01*
%TO.C,R4*%
X134080000Y-92830000D02*
X134080000Y-99370000D01*
X134080000Y-99370000D02*
X136820000Y-99370000D01*
X135450000Y-92060000D02*
X135450000Y-92830000D01*
X135450000Y-100140000D02*
X135450000Y-99370000D01*
X136820000Y-92830000D02*
X134080000Y-92830000D01*
X136820000Y-99370000D02*
X136820000Y-92830000D01*
%TO.C,U3*%
X161004200Y-50702600D02*
X161004200Y-54462600D01*
X161004200Y-54462600D02*
X162264200Y-54462600D01*
X167824200Y-48452600D02*
X167824200Y-54462600D01*
X167824200Y-54462600D02*
X166564200Y-54462600D01*
%TO.C,U5*%
X165684200Y-59410600D02*
X162687000Y-59410600D01*
X165684200Y-62661800D02*
X162687000Y-62661800D01*
%TO.C,R_SNS1*%
X160062600Y-86087936D02*
X160062600Y-90442064D01*
X163482600Y-86087936D02*
X163482600Y-90442064D01*
%TO.C,R11*%
X117360000Y-72175000D02*
X118130000Y-72175000D01*
X118130000Y-70805000D02*
X118130000Y-73545000D01*
X118130000Y-73545000D02*
X124670000Y-73545000D01*
X124670000Y-70805000D02*
X118130000Y-70805000D01*
X124670000Y-73545000D02*
X124670000Y-70805000D01*
X125440000Y-72175000D02*
X124670000Y-72175000D01*
%TO.C,R_Sense1*%
X152696600Y-59200064D02*
X152696600Y-54845936D01*
X156116600Y-59200064D02*
X156116600Y-54845936D01*
%TO.C,D1*%
X167376600Y-87187600D02*
X167376600Y-83287600D01*
X167376600Y-87187600D02*
X169376600Y-87187600D01*
X169376600Y-87187600D02*
X169376600Y-83287600D01*
%TO.C,J1*%
X85258000Y-102022000D02*
X85258000Y-110322000D01*
X93558000Y-102022000D02*
X85258000Y-102022000D01*
X93558000Y-102022000D02*
X93558000Y-110322000D01*
X93558000Y-110322000D02*
X85258000Y-110322000D01*
%TO.C,C1*%
X167255000Y-89130000D02*
X167255000Y-93970000D01*
X169495000Y-89130000D02*
X167255000Y-89130000D01*
X169495000Y-89130000D02*
X169495000Y-93970000D01*
X169495000Y-93970000D02*
X167255000Y-93970000D01*
%TO.C,R3*%
X137080000Y-92830000D02*
X137080000Y-99370000D01*
X137080000Y-99370000D02*
X139820000Y-99370000D01*
X138450000Y-92060000D02*
X138450000Y-92830000D01*
X138450000Y-100140000D02*
X138450000Y-99370000D01*
X139820000Y-92830000D02*
X137080000Y-92830000D01*
X139820000Y-99370000D02*
X139820000Y-92830000D01*
%TO.C,C6*%
X174915113Y-50950000D02*
X175415113Y-50950000D01*
X175165113Y-50700000D02*
X175165113Y-51200000D01*
X177719888Y-49845000D02*
X177719888Y-55005000D01*
X177759888Y-49845000D02*
X177759888Y-55005000D01*
X177799888Y-49846000D02*
X177799888Y-55004000D01*
X177839888Y-49847000D02*
X177839888Y-55003000D01*
X177879888Y-49849000D02*
X177879888Y-55001000D01*
X177919888Y-49852000D02*
X177919888Y-54998000D01*
X177959888Y-49856000D02*
X177959888Y-51385000D01*
X177959888Y-53465000D02*
X177959888Y-54994000D01*
X177999888Y-49860000D02*
X177999888Y-51385000D01*
X177999888Y-53465000D02*
X177999888Y-54990000D01*
X178039888Y-49864000D02*
X178039888Y-51385000D01*
X178039888Y-53465000D02*
X178039888Y-54986000D01*
X178079888Y-49869000D02*
X178079888Y-51385000D01*
X178079888Y-53465000D02*
X178079888Y-54981000D01*
X178119888Y-49875000D02*
X178119888Y-51385000D01*
X178119888Y-53465000D02*
X178119888Y-54975000D01*
X178159888Y-49882000D02*
X178159888Y-51385000D01*
X178159888Y-53465000D02*
X178159888Y-54968000D01*
X178199888Y-49889000D02*
X178199888Y-51385000D01*
X178199888Y-53465000D02*
X178199888Y-54961000D01*
X178239888Y-49897000D02*
X178239888Y-51385000D01*
X178239888Y-53465000D02*
X178239888Y-54953000D01*
X178279888Y-49905000D02*
X178279888Y-51385000D01*
X178279888Y-53465000D02*
X178279888Y-54945000D01*
X178319888Y-49914000D02*
X178319888Y-51385000D01*
X178319888Y-53465000D02*
X178319888Y-54936000D01*
X178359888Y-49924000D02*
X178359888Y-51385000D01*
X178359888Y-53465000D02*
X178359888Y-54926000D01*
X178399888Y-49934000D02*
X178399888Y-51385000D01*
X178399888Y-53465000D02*
X178399888Y-54916000D01*
X178440888Y-49945000D02*
X178440888Y-51385000D01*
X178440888Y-53465000D02*
X178440888Y-54905000D01*
X178480888Y-49957000D02*
X178480888Y-51385000D01*
X178480888Y-53465000D02*
X178480888Y-54893000D01*
X178520888Y-49970000D02*
X178520888Y-51385000D01*
X178520888Y-53465000D02*
X178520888Y-54880000D01*
X178560888Y-49983000D02*
X178560888Y-51385000D01*
X178560888Y-53465000D02*
X178560888Y-54867000D01*
X178600888Y-49997000D02*
X178600888Y-51385000D01*
X178600888Y-53465000D02*
X178600888Y-54853000D01*
X178640888Y-50011000D02*
X178640888Y-51385000D01*
X178640888Y-53465000D02*
X178640888Y-54839000D01*
X178680888Y-50027000D02*
X178680888Y-51385000D01*
X178680888Y-53465000D02*
X178680888Y-54823000D01*
X178720888Y-50043000D02*
X178720888Y-51385000D01*
X178720888Y-53465000D02*
X178720888Y-54807000D01*
X178760888Y-50060000D02*
X178760888Y-51385000D01*
X178760888Y-53465000D02*
X178760888Y-54790000D01*
X178800888Y-50077000D02*
X178800888Y-51385000D01*
X178800888Y-53465000D02*
X178800888Y-54773000D01*
X178840888Y-50096000D02*
X178840888Y-51385000D01*
X178840888Y-53465000D02*
X178840888Y-54754000D01*
X178880888Y-50115000D02*
X178880888Y-51385000D01*
X178880888Y-53465000D02*
X178880888Y-54735000D01*
X178920888Y-50135000D02*
X178920888Y-51385000D01*
X178920888Y-53465000D02*
X178920888Y-54715000D01*
X178960888Y-50157000D02*
X178960888Y-51385000D01*
X178960888Y-53465000D02*
X178960888Y-54693000D01*
X179000888Y-50178000D02*
X179000888Y-51385000D01*
X179000888Y-53465000D02*
X179000888Y-54672000D01*
X179040888Y-50201000D02*
X179040888Y-51385000D01*
X179040888Y-53465000D02*
X179040888Y-54649000D01*
X179080888Y-50225000D02*
X179080888Y-51385000D01*
X179080888Y-53465000D02*
X179080888Y-54625000D01*
X179120888Y-50250000D02*
X179120888Y-51385000D01*
X179120888Y-53465000D02*
X179120888Y-54600000D01*
X179160888Y-50276000D02*
X179160888Y-51385000D01*
X179160888Y-53465000D02*
X179160888Y-54574000D01*
X179200888Y-50303000D02*
X179200888Y-51385000D01*
X179200888Y-53465000D02*
X179200888Y-54547000D01*
X179240888Y-50330000D02*
X179240888Y-51385000D01*
X179240888Y-53465000D02*
X179240888Y-54520000D01*
X179280888Y-50360000D02*
X179280888Y-51385000D01*
X179280888Y-53465000D02*
X179280888Y-54490000D01*
X179320888Y-50390000D02*
X179320888Y-51385000D01*
X179320888Y-53465000D02*
X179320888Y-54460000D01*
X179360888Y-50421000D02*
X179360888Y-51385000D01*
X179360888Y-53465000D02*
X179360888Y-54429000D01*
X179400888Y-50454000D02*
X179400888Y-51385000D01*
X179400888Y-53465000D02*
X179400888Y-54396000D01*
X179440888Y-50488000D02*
X179440888Y-51385000D01*
X179440888Y-53465000D02*
X179440888Y-54362000D01*
X179480888Y-50524000D02*
X179480888Y-51385000D01*
X179480888Y-53465000D02*
X179480888Y-54326000D01*
X179520888Y-50561000D02*
X179520888Y-51385000D01*
X179520888Y-53465000D02*
X179520888Y-54289000D01*
X179560888Y-50599000D02*
X179560888Y-51385000D01*
X179560888Y-53465000D02*
X179560888Y-54251000D01*
X179600888Y-50640000D02*
X179600888Y-51385000D01*
X179600888Y-53465000D02*
X179600888Y-54210000D01*
X179640888Y-50682000D02*
X179640888Y-51385000D01*
X179640888Y-53465000D02*
X179640888Y-54168000D01*
X179680888Y-50726000D02*
X179680888Y-51385000D01*
X179680888Y-53465000D02*
X179680888Y-54124000D01*
X179720888Y-50772000D02*
X179720888Y-51385000D01*
X179720888Y-53465000D02*
X179720888Y-54078000D01*
X179760888Y-50820000D02*
X179760888Y-51385000D01*
X179760888Y-53465000D02*
X179760888Y-54030000D01*
X179800888Y-50871000D02*
X179800888Y-51385000D01*
X179800888Y-53465000D02*
X179800888Y-53979000D01*
X179840888Y-50925000D02*
X179840888Y-51385000D01*
X179840888Y-53465000D02*
X179840888Y-53925000D01*
X179880888Y-50982000D02*
X179880888Y-51385000D01*
X179880888Y-53465000D02*
X179880888Y-53868000D01*
X179920888Y-51042000D02*
X179920888Y-51385000D01*
X179920888Y-53465000D02*
X179920888Y-53808000D01*
X179960888Y-51106000D02*
X179960888Y-51385000D01*
X179960888Y-53465000D02*
X179960888Y-53744000D01*
X180000888Y-51174000D02*
X180000888Y-51385000D01*
X180000888Y-53465000D02*
X180000888Y-53676000D01*
X180040888Y-51247000D02*
X180040888Y-53603000D01*
X180080888Y-51327000D02*
X180080888Y-53523000D01*
X180120888Y-51414000D02*
X180120888Y-53436000D01*
X180160888Y-51510000D02*
X180160888Y-53340000D01*
X180200888Y-51620000D02*
X180200888Y-53230000D01*
X180240888Y-51748000D02*
X180240888Y-53102000D01*
X180280888Y-51907000D02*
X180280888Y-52943000D01*
X180320888Y-52141000D02*
X180320888Y-52709000D01*
X180339888Y-52425000D02*
G75*
G02*
X175099888Y-52425000I-2620000J0D01*
G01*
X175099888Y-52425000D02*
G75*
G02*
X180339888Y-52425000I2620000J0D01*
G01*
%TO.C,R1*%
X124580000Y-91600000D02*
X124580000Y-98140000D01*
X124580000Y-98140000D02*
X127320000Y-98140000D01*
X125950000Y-90830000D02*
X125950000Y-91600000D01*
X125950000Y-98910000D02*
X125950000Y-98140000D01*
X127320000Y-91600000D02*
X124580000Y-91600000D01*
X127320000Y-98140000D02*
X127320000Y-91600000D01*
%TO.C,J7*%
X149378200Y-40909100D02*
X157098200Y-40909100D01*
X149378200Y-42129100D02*
X150598200Y-42129100D01*
X149378200Y-49329100D02*
X149378200Y-40909100D01*
X150598200Y-42129100D02*
X150598200Y-47129100D01*
X150598200Y-46129100D02*
X155878200Y-46129100D01*
X150598200Y-47129100D02*
X149378200Y-47129100D01*
X150598200Y-47129100D02*
X150598200Y-49329100D01*
X150598200Y-49329100D02*
X149378200Y-49329100D01*
X151668200Y-42709100D02*
X151988200Y-42629100D01*
X151668200Y-46129100D02*
X151668200Y-42709100D01*
X151688200Y-49819100D02*
X152288200Y-49819100D01*
X151988200Y-42629100D02*
X152308200Y-42709100D01*
X151988200Y-46129100D02*
X151668200Y-46129100D01*
X151988200Y-49219100D02*
X151688200Y-49819100D01*
X152288200Y-49819100D02*
X151988200Y-49219100D01*
X152308200Y-42709100D02*
X152308200Y-46129100D01*
X152308200Y-46129100D02*
X151988200Y-46129100D01*
X153158200Y-47129100D02*
X153318200Y-47129100D01*
X154168200Y-42709100D02*
X154488200Y-42629100D01*
X154168200Y-46129100D02*
X154168200Y-42709100D01*
X154488200Y-42629100D02*
X154808200Y-42709100D01*
X154488200Y-46129100D02*
X154168200Y-46129100D01*
X154808200Y-42709100D02*
X154808200Y-46129100D01*
X154808200Y-46129100D02*
X154488200Y-46129100D01*
X155878200Y-42129100D02*
X155878200Y-47129100D01*
X155878200Y-47129100D02*
X157098200Y-47129100D01*
X155878200Y-49329100D02*
X155878200Y-47129100D01*
X157098200Y-40909100D02*
X157098200Y-49329100D01*
X157098200Y-42129100D02*
X155878200Y-42129100D01*
X157098200Y-49329100D02*
X155878200Y-49329100D01*
%TO.C,C2*%
X174830000Y-58405000D02*
X174830000Y-60645000D01*
X174830000Y-58405000D02*
X179670000Y-58405000D01*
X174830000Y-60645000D02*
X179670000Y-60645000D01*
X179670000Y-58405000D02*
X179670000Y-60645000D01*
%TO.C,R21*%
X116615400Y-91600800D02*
X116615400Y-98140800D01*
X116615400Y-98140800D02*
X119355400Y-98140800D01*
X117985400Y-90830800D02*
X117985400Y-91600800D01*
X117985400Y-98910800D02*
X117985400Y-98140800D01*
X119355400Y-91600800D02*
X116615400Y-91600800D01*
X119355400Y-98140800D02*
X119355400Y-91600800D01*
D11*
%TO.C,U1*%
X87870353Y-76628000D02*
G75*
G02*
X87145647Y-76628000I-362353J0D01*
G01*
X87145647Y-76628000D02*
G75*
G02*
X87870353Y-76628000I362353J0D01*
G01*
D13*
%TO.C,C3*%
X92984025Y-68019400D02*
X93484025Y-68019400D01*
X93234025Y-67769400D02*
X93234025Y-68269400D01*
X95788800Y-66914400D02*
X95788800Y-72074400D01*
X95828800Y-66914400D02*
X95828800Y-72074400D01*
X95868800Y-66915400D02*
X95868800Y-72073400D01*
X95908800Y-66916400D02*
X95908800Y-72072400D01*
X95948800Y-66918400D02*
X95948800Y-72070400D01*
X95988800Y-66921400D02*
X95988800Y-72067400D01*
X96028800Y-66925400D02*
X96028800Y-68454400D01*
X96028800Y-70534400D02*
X96028800Y-72063400D01*
X96068800Y-66929400D02*
X96068800Y-68454400D01*
X96068800Y-70534400D02*
X96068800Y-72059400D01*
X96108800Y-66933400D02*
X96108800Y-68454400D01*
X96108800Y-70534400D02*
X96108800Y-72055400D01*
X96148800Y-66938400D02*
X96148800Y-68454400D01*
X96148800Y-70534400D02*
X96148800Y-72050400D01*
X96188800Y-66944400D02*
X96188800Y-68454400D01*
X96188800Y-70534400D02*
X96188800Y-72044400D01*
X96228800Y-66951400D02*
X96228800Y-68454400D01*
X96228800Y-70534400D02*
X96228800Y-72037400D01*
X96268800Y-66958400D02*
X96268800Y-68454400D01*
X96268800Y-70534400D02*
X96268800Y-72030400D01*
X96308800Y-66966400D02*
X96308800Y-68454400D01*
X96308800Y-70534400D02*
X96308800Y-72022400D01*
X96348800Y-66974400D02*
X96348800Y-68454400D01*
X96348800Y-70534400D02*
X96348800Y-72014400D01*
X96388800Y-66983400D02*
X96388800Y-68454400D01*
X96388800Y-70534400D02*
X96388800Y-72005400D01*
X96428800Y-66993400D02*
X96428800Y-68454400D01*
X96428800Y-70534400D02*
X96428800Y-71995400D01*
X96468800Y-67003400D02*
X96468800Y-68454400D01*
X96468800Y-70534400D02*
X96468800Y-71985400D01*
X96509800Y-67014400D02*
X96509800Y-68454400D01*
X96509800Y-70534400D02*
X96509800Y-71974400D01*
X96549800Y-67026400D02*
X96549800Y-68454400D01*
X96549800Y-70534400D02*
X96549800Y-71962400D01*
X96589800Y-67039400D02*
X96589800Y-68454400D01*
X96589800Y-70534400D02*
X96589800Y-71949400D01*
X96629800Y-67052400D02*
X96629800Y-68454400D01*
X96629800Y-70534400D02*
X96629800Y-71936400D01*
X96669800Y-67066400D02*
X96669800Y-68454400D01*
X96669800Y-70534400D02*
X96669800Y-71922400D01*
X96709800Y-67080400D02*
X96709800Y-68454400D01*
X96709800Y-70534400D02*
X96709800Y-71908400D01*
X96749800Y-67096400D02*
X96749800Y-68454400D01*
X96749800Y-70534400D02*
X96749800Y-71892400D01*
X96789800Y-67112400D02*
X96789800Y-68454400D01*
X96789800Y-70534400D02*
X96789800Y-71876400D01*
X96829800Y-67129400D02*
X96829800Y-68454400D01*
X96829800Y-70534400D02*
X96829800Y-71859400D01*
X96869800Y-67146400D02*
X96869800Y-68454400D01*
X96869800Y-70534400D02*
X96869800Y-71842400D01*
X96909800Y-67165400D02*
X96909800Y-68454400D01*
X96909800Y-70534400D02*
X96909800Y-71823400D01*
X96949800Y-67184400D02*
X96949800Y-68454400D01*
X96949800Y-70534400D02*
X96949800Y-71804400D01*
X96989800Y-67204400D02*
X96989800Y-68454400D01*
X96989800Y-70534400D02*
X96989800Y-71784400D01*
X97029800Y-67226400D02*
X97029800Y-68454400D01*
X97029800Y-70534400D02*
X97029800Y-71762400D01*
X97069800Y-67247400D02*
X97069800Y-68454400D01*
X97069800Y-70534400D02*
X97069800Y-71741400D01*
X97109800Y-67270400D02*
X97109800Y-68454400D01*
X97109800Y-70534400D02*
X97109800Y-71718400D01*
X97149800Y-67294400D02*
X97149800Y-68454400D01*
X97149800Y-70534400D02*
X97149800Y-71694400D01*
X97189800Y-67319400D02*
X97189800Y-68454400D01*
X97189800Y-70534400D02*
X97189800Y-71669400D01*
X97229800Y-67345400D02*
X97229800Y-68454400D01*
X97229800Y-70534400D02*
X97229800Y-71643400D01*
X97269800Y-67372400D02*
X97269800Y-68454400D01*
X97269800Y-70534400D02*
X97269800Y-71616400D01*
X97309800Y-67399400D02*
X97309800Y-68454400D01*
X97309800Y-70534400D02*
X97309800Y-71589400D01*
X97349800Y-67429400D02*
X97349800Y-68454400D01*
X97349800Y-70534400D02*
X97349800Y-71559400D01*
X97389800Y-67459400D02*
X97389800Y-68454400D01*
X97389800Y-70534400D02*
X97389800Y-71529400D01*
X97429800Y-67490400D02*
X97429800Y-68454400D01*
X97429800Y-70534400D02*
X97429800Y-71498400D01*
X97469800Y-67523400D02*
X97469800Y-68454400D01*
X97469800Y-70534400D02*
X97469800Y-71465400D01*
X97509800Y-67557400D02*
X97509800Y-68454400D01*
X97509800Y-70534400D02*
X97509800Y-71431400D01*
X97549800Y-67593400D02*
X97549800Y-68454400D01*
X97549800Y-70534400D02*
X97549800Y-71395400D01*
X97589800Y-67630400D02*
X97589800Y-68454400D01*
X97589800Y-70534400D02*
X97589800Y-71358400D01*
X97629800Y-67668400D02*
X97629800Y-68454400D01*
X97629800Y-70534400D02*
X97629800Y-71320400D01*
X97669800Y-67709400D02*
X97669800Y-68454400D01*
X97669800Y-70534400D02*
X97669800Y-71279400D01*
X97709800Y-67751400D02*
X97709800Y-68454400D01*
X97709800Y-70534400D02*
X97709800Y-71237400D01*
X97749800Y-67795400D02*
X97749800Y-68454400D01*
X97749800Y-70534400D02*
X97749800Y-71193400D01*
X97789800Y-67841400D02*
X97789800Y-68454400D01*
X97789800Y-70534400D02*
X97789800Y-71147400D01*
X97829800Y-67889400D02*
X97829800Y-68454400D01*
X97829800Y-70534400D02*
X97829800Y-71099400D01*
X97869800Y-67940400D02*
X97869800Y-68454400D01*
X97869800Y-70534400D02*
X97869800Y-71048400D01*
X97909800Y-67994400D02*
X97909800Y-68454400D01*
X97909800Y-70534400D02*
X97909800Y-70994400D01*
X97949800Y-68051400D02*
X97949800Y-68454400D01*
X97949800Y-70534400D02*
X97949800Y-70937400D01*
X97989800Y-68111400D02*
X97989800Y-68454400D01*
X97989800Y-70534400D02*
X97989800Y-70877400D01*
X98029800Y-68175400D02*
X98029800Y-68454400D01*
X98029800Y-70534400D02*
X98029800Y-70813400D01*
X98069800Y-68243400D02*
X98069800Y-68454400D01*
X98069800Y-70534400D02*
X98069800Y-70745400D01*
X98109800Y-68316400D02*
X98109800Y-70672400D01*
X98149800Y-68396400D02*
X98149800Y-70592400D01*
X98189800Y-68483400D02*
X98189800Y-70505400D01*
X98229800Y-68579400D02*
X98229800Y-70409400D01*
X98269800Y-68689400D02*
X98269800Y-70299400D01*
X98309800Y-68817400D02*
X98309800Y-70171400D01*
X98349800Y-68976400D02*
X98349800Y-70012400D01*
X98389800Y-69210400D02*
X98389800Y-69778400D01*
X98408800Y-69494400D02*
G75*
G02*
X93168800Y-69494400I-2620000J0D01*
G01*
X93168800Y-69494400D02*
G75*
G02*
X98408800Y-69494400I2620000J0D01*
G01*
D14*
%TO.C,U6*%
X147475000Y-81050000D02*
X147475000Y-84950000D01*
X152525000Y-81050000D02*
X152525000Y-84950000D01*
D15*
X152405000Y-78960000D02*
G75*
G02*
X152205000Y-78960000I-100000J0D01*
G01*
X152205000Y-78960000D02*
G75*
G02*
X152405000Y-78960000I100000J0D01*
G01*
D13*
%TO.C,J4*%
X170200000Y-89960000D02*
X170200000Y-90800000D01*
X170200000Y-90800000D02*
X170800000Y-90800000D01*
X170440000Y-82840000D02*
X170440000Y-90561000D01*
X170440000Y-82840000D02*
X180560000Y-82840000D01*
X170440000Y-84600000D02*
X180560000Y-84600000D01*
X170440000Y-89300000D02*
X180560000Y-89300000D01*
X170440000Y-89900000D02*
X180560000Y-89900000D01*
X170440000Y-90561000D02*
X180560000Y-90561000D01*
X176820000Y-87976000D02*
X176726000Y-88069000D01*
X176990000Y-88216000D02*
X176931000Y-88274000D01*
X179070000Y-85725000D02*
X179011000Y-85784000D01*
X179275000Y-85931000D02*
X179181000Y-86024000D01*
X180560000Y-82840000D02*
X180560000Y-90561000D01*
X171516047Y-87789089D02*
G75*
G02*
X171516000Y-86211000I1483948J789089D01*
G01*
X172210911Y-85516047D02*
G75*
G02*
X173789000Y-85516000I789089J-1483948D01*
G01*
X173029383Y-88680450D02*
G75*
G02*
X172211000Y-88484000I-29385J1680445D01*
G01*
X173788712Y-88483352D02*
G75*
G02*
X173000000Y-88680000I-788712J1483352D01*
G01*
X174483953Y-86210911D02*
G75*
G02*
X174484000Y-87789000I-1483953J-789089D01*
G01*
X173550000Y-84000000D02*
G75*
G02*
X172450000Y-84000000I-550000J0D01*
G01*
X172450000Y-84000000D02*
G75*
G02*
X173550000Y-84000000I550000J0D01*
G01*
X178550000Y-84000000D02*
G75*
G02*
X177450000Y-84000000I-550000J0D01*
G01*
X177450000Y-84000000D02*
G75*
G02*
X178550000Y-84000000I550000J0D01*
G01*
X179680000Y-87000000D02*
G75*
G02*
X176320000Y-87000000I-1680000J0D01*
G01*
X176320000Y-87000000D02*
G75*
G02*
X179680000Y-87000000I1680000J0D01*
G01*
%TO.C,I2C_Sensor_out1*%
X169625200Y-68429200D02*
X169625200Y-69679200D01*
X169915200Y-68719200D02*
X169915200Y-74689200D01*
X169915200Y-74689200D02*
X182535200Y-74689200D01*
X169925200Y-68729200D02*
X169925200Y-69479200D01*
X169925200Y-69479200D02*
X171725200Y-69479200D01*
X169925200Y-70979200D02*
X170675200Y-70979200D01*
X170675200Y-70979200D02*
X170675200Y-72319200D01*
X170875200Y-68429200D02*
X169625200Y-68429200D01*
X171725200Y-68729200D02*
X169925200Y-68729200D01*
X171725200Y-69479200D02*
X171725200Y-68729200D01*
X173225200Y-68729200D02*
X173225200Y-69479200D01*
X173225200Y-69479200D02*
X179225200Y-69479200D01*
X176225200Y-73929200D02*
X171735200Y-73929200D01*
X179225200Y-68729200D02*
X173225200Y-68729200D01*
X179225200Y-69479200D02*
X179225200Y-68729200D01*
X180725200Y-68729200D02*
X180725200Y-69479200D01*
X180725200Y-69479200D02*
X182525200Y-69479200D01*
X181775200Y-70979200D02*
X181775200Y-73929200D01*
X181775200Y-73929200D02*
X176225200Y-73929200D01*
X182525200Y-68729200D02*
X180725200Y-68729200D01*
X182525200Y-69479200D02*
X182525200Y-68729200D01*
X182525200Y-70979200D02*
X181775200Y-70979200D01*
X182535200Y-68719200D02*
X169915200Y-68719200D01*
X182535200Y-74689200D02*
X182535200Y-68719200D01*
%TO.C,U2*%
X116800000Y-78235000D02*
X116800000Y-82735000D01*
X116800000Y-82735000D02*
X127080000Y-82735000D01*
X127080000Y-78235000D02*
X116800000Y-78235000D01*
X127080000Y-79485000D02*
X127080000Y-78235000D01*
X127080000Y-82735000D02*
X127080000Y-81485000D01*
X127080000Y-81485000D02*
G75*
G02*
X127080000Y-79485000I0J1000000D01*
G01*
%TO.C,Q1*%
X139775000Y-66155000D02*
X155665000Y-66155000D01*
X139775000Y-76395000D02*
X139775000Y-66155000D01*
X139775000Y-76395000D02*
X155665000Y-76395000D01*
X155665000Y-68735000D02*
X158205000Y-68735000D01*
X155665000Y-71275000D02*
X158205000Y-71275000D01*
X155665000Y-73815000D02*
X158205000Y-73815000D01*
X155665000Y-76395000D02*
X155665000Y-66155000D01*
%TO.C,J3*%
X76935000Y-76438000D02*
X76935000Y-75188000D01*
X76935000Y-75188000D02*
X75685000Y-75188000D01*
X76645000Y-88098000D02*
X76645000Y-75478000D01*
X76645000Y-75478000D02*
X70675000Y-75478000D01*
X76635000Y-88088000D02*
X76635000Y-86288000D01*
X76635000Y-86288000D02*
X75885000Y-86288000D01*
X76635000Y-84788000D02*
X76635000Y-78788000D01*
X76635000Y-78788000D02*
X75885000Y-78788000D01*
X76635000Y-77288000D02*
X76635000Y-75488000D01*
X76635000Y-75488000D02*
X75885000Y-75488000D01*
X75885000Y-88088000D02*
X76635000Y-88088000D01*
X75885000Y-86288000D02*
X75885000Y-88088000D01*
X75885000Y-84788000D02*
X76635000Y-84788000D01*
X75885000Y-78788000D02*
X75885000Y-84788000D01*
X75885000Y-77288000D02*
X76635000Y-77288000D01*
X75885000Y-75488000D02*
X75885000Y-77288000D01*
X74385000Y-88088000D02*
X74385000Y-87338000D01*
X74385000Y-87338000D02*
X71435000Y-87338000D01*
X74385000Y-76238000D02*
X73045000Y-76238000D01*
X74385000Y-75488000D02*
X74385000Y-76238000D01*
X71435000Y-87338000D02*
X71435000Y-81788000D01*
X71435000Y-81788000D02*
X71435000Y-77298000D01*
X70675000Y-88098000D02*
X76645000Y-88098000D01*
X70675000Y-75478000D02*
X70675000Y-88098000D01*
%TO.C,SW1*%
X104855400Y-75629200D02*
X108555400Y-75629200D01*
X104855400Y-81749200D02*
X104855400Y-75629200D01*
X108555400Y-75629200D02*
X108555400Y-81749200D01*
X108555400Y-81749200D02*
X104855400Y-81749200D01*
%TO.C,J2*%
X72070000Y-37345000D02*
X73400000Y-37345000D01*
X72070000Y-38675000D02*
X72070000Y-37345000D01*
X72070000Y-39945000D02*
X72070000Y-55245000D01*
X72070000Y-39945000D02*
X74730000Y-39945000D01*
X72070000Y-55245000D02*
X74730000Y-55245000D01*
X74730000Y-39945000D02*
X74730000Y-55245000D01*
%TD*%
%LPC*%
D16*
%TO.C,REF\u002A\u002A*%
X58200000Y-58050000D03*
%TD*%
%TO.C,REF\u002A\u002A*%
X58200000Y-88300000D03*
%TD*%
%TO.C,REF\u002A\u002A*%
X194000000Y-88300000D03*
%TD*%
%TO.C,REF\u002A\u002A*%
X194000000Y-58050000D03*
%TD*%
D17*
%TO.C,C4*%
X142500000Y-80500000D03*
X142500000Y-83000000D03*
%TD*%
D18*
%TO.C,R31*%
X121962200Y-89790000D03*
D19*
X121962200Y-99950000D03*
%TD*%
D20*
%TO.C,JP1*%
X69650000Y-44700000D03*
D21*
X69650000Y-43400000D03*
%TD*%
D18*
%TO.C,R2*%
X143075000Y-88970000D03*
D19*
X143075000Y-99130000D03*
%TD*%
D22*
%TO.C,Q2*%
X132900000Y-47395000D03*
D23*
X130360000Y-64055000D03*
D24*
X132900000Y-64055000D03*
X135440000Y-64055000D03*
%TD*%
D18*
%TO.C,R4*%
X135450000Y-101180000D03*
D19*
X135450000Y-91020000D03*
%TD*%
D25*
%TO.C,U3*%
X166714200Y-49402600D03*
X164414200Y-49402600D03*
X162114200Y-49402600D03*
D26*
X164414200Y-55702600D03*
%TD*%
D27*
%TO.C,U5*%
X161985600Y-60036200D03*
X161985600Y-60536200D03*
X161985600Y-61036200D03*
X161985600Y-61536200D03*
X161985600Y-62036200D03*
X166385600Y-62036200D03*
X166385600Y-61536200D03*
X166385600Y-61036200D03*
X166385600Y-60536200D03*
X166385600Y-60036200D03*
%TD*%
D28*
%TO.C,R_SNS1*%
X161772600Y-85302500D03*
X161772600Y-91227500D03*
%TD*%
D18*
%TO.C,R11*%
X116320000Y-72175000D03*
D19*
X126480000Y-72175000D03*
%TD*%
D29*
%TO.C,R_Sense1*%
X154406600Y-59985500D03*
X154406600Y-54060500D03*
%TD*%
D30*
%TO.C,D1*%
X168376600Y-86587600D03*
X168376600Y-83287600D03*
%TD*%
D31*
%TO.C,J1*%
X89408000Y-106172000D03*
X91948000Y-103632000D03*
X86868000Y-103632000D03*
X91948000Y-108712000D03*
X86868000Y-108712000D03*
%TD*%
D17*
%TO.C,C1*%
X168375000Y-90300000D03*
X168375000Y-92800000D03*
%TD*%
D18*
%TO.C,R3*%
X138450000Y-101180000D03*
D19*
X138450000Y-91020000D03*
%TD*%
D32*
%TO.C,C6*%
X176469888Y-52425000D03*
D18*
X178969888Y-52425000D03*
%TD*%
%TO.C,R1*%
X125950000Y-89790000D03*
D19*
X125950000Y-99950000D03*
%TD*%
D33*
%TO.C,J7*%
X151988200Y-47719100D03*
D34*
X154488200Y-47719100D03*
%TD*%
D17*
%TO.C,C2*%
X176000000Y-59525000D03*
X178500000Y-59525000D03*
%TD*%
D18*
%TO.C,R21*%
X117985400Y-99950800D03*
D19*
X117985400Y-89790800D03*
%TD*%
D35*
%TO.C,U1*%
X88488000Y-78038000D03*
X88488000Y-79288000D03*
X88488000Y-80538000D03*
X88488000Y-81788000D03*
X88488000Y-83038000D03*
X88488000Y-84288000D03*
X88488000Y-85538000D03*
D36*
X90738000Y-87788000D03*
X91988000Y-87788000D03*
X93238000Y-87788000D03*
X94488000Y-87788000D03*
X95738000Y-87788000D03*
X96988000Y-87788000D03*
X98238000Y-87788000D03*
D35*
X100488000Y-85538000D03*
X100488000Y-84288000D03*
X100488000Y-83038000D03*
X100488000Y-81788000D03*
X100488000Y-80538000D03*
X100488000Y-79288000D03*
X100488000Y-78038000D03*
D36*
X98238000Y-75788000D03*
X96988000Y-75788000D03*
X95738000Y-75788000D03*
X94488000Y-75788000D03*
X93238000Y-75788000D03*
X91988000Y-75788000D03*
X90738000Y-75788000D03*
%TD*%
D32*
%TO.C,C3*%
X94538800Y-69494400D03*
D18*
X97038800Y-69494400D03*
%TD*%
D37*
%TO.C,U6*%
X151905000Y-80530000D03*
X150635000Y-80530000D03*
X149365000Y-80530000D03*
X148095000Y-80530000D03*
X148095000Y-85470000D03*
X149365000Y-85470000D03*
X150635000Y-85470000D03*
X151905000Y-85470000D03*
%TD*%
D38*
%TO.C,J4*%
X173000000Y-87000000D03*
D39*
X178000000Y-87000000D03*
%TD*%
D40*
%TO.C,I2C_Sensor_out1*%
X170875200Y-73179200D03*
D41*
X172475200Y-71179200D03*
D42*
X174975200Y-71179200D03*
X177475200Y-71179200D03*
X179975200Y-71179200D03*
%TD*%
D43*
%TO.C,U2*%
X125750000Y-76675000D03*
D44*
X123210000Y-76675000D03*
X120670000Y-76675000D03*
X118130000Y-76675000D03*
X118130000Y-84295000D03*
X120670000Y-84295000D03*
X123210000Y-84295000D03*
X125750000Y-84295000D03*
%TD*%
D22*
%TO.C,Q1*%
X142695000Y-71275000D03*
D45*
X159355000Y-73815000D03*
D46*
X159355000Y-71275000D03*
X159355000Y-68735000D03*
%TD*%
D47*
%TO.C,J3*%
X74185000Y-85538000D03*
X74185000Y-83038000D03*
X74185000Y-80538000D03*
D48*
X74185000Y-78038000D03*
D40*
X72185000Y-76438000D03*
%TD*%
D49*
%TO.C,SW1*%
X106705400Y-74789200D03*
X106705400Y-82589200D03*
%TD*%
D50*
%TO.C,J2*%
X73400000Y-38675000D03*
D51*
X73400000Y-41215000D03*
X73400000Y-43755000D03*
X73400000Y-46295000D03*
X73400000Y-48835000D03*
X73400000Y-51375000D03*
X73400000Y-53915000D03*
%TD*%
%LPD*%
M02*
