%TF.GenerationSoftware,KiCad,Pcbnew,9.0.1*%
%TF.CreationDate,2025-04-28T11:20:15+02:00*%
%TF.ProjectId,sensor,73656e73-6f72-42e6-9b69-6361645f7063,rev?*%
%TF.SameCoordinates,Original*%
%TF.FileFunction,Copper,L2,Bot*%
%TF.FilePolarity,Positive*%
%FSLAX46Y46*%
G04 Gerber Fmt 4.6, Leading zero omitted, Abs format (unit mm)*
G04 Created by KiCad (PCBNEW 9.0.1) date 2025-04-28 11:20:15*
%MOMM*%
%LPD*%
G01*
G04 APERTURE LIST*
G04 Aperture macros list*
%AMRoundRect*
0 Rectangle with rounded corners*
0 $1 Rounding radius*
0 $2 $3 $4 $5 $6 $7 $8 $9 X,Y pos of 4 corners*
0 Add a 4 corners polygon primitive as box body*
4,1,4,$2,$3,$4,$5,$6,$7,$8,$9,$2,$3,0*
0 Add four circle primitives for the rounded corners*
1,1,$1+$1,$2,$3*
1,1,$1+$1,$4,$5*
1,1,$1+$1,$6,$7*
1,1,$1+$1,$8,$9*
0 Add four rect primitives between the rounded corners*
20,1,$1+$1,$2,$3,$4,$5,0*
20,1,$1+$1,$4,$5,$6,$7,0*
20,1,$1+$1,$6,$7,$8,$9,0*
20,1,$1+$1,$8,$9,$2,$3,0*%
G04 Aperture macros list end*
%TA.AperFunction,ComponentPad*%
%ADD10C,5.600000*%
%TD*%
%TA.AperFunction,ComponentPad*%
%ADD11C,1.400000*%
%TD*%
%TA.AperFunction,ComponentPad*%
%ADD12C,1.600000*%
%TD*%
%TA.AperFunction,ComponentPad*%
%ADD13O,1.600000X1.600000*%
%TD*%
%TA.AperFunction,ComponentPad*%
%ADD14R,1.905000X2.000000*%
%TD*%
%TA.AperFunction,ComponentPad*%
%ADD15O,1.905000X2.000000*%
%TD*%
%TA.AperFunction,ComponentPad*%
%ADD16C,2.250000*%
%TD*%
%TA.AperFunction,ComponentPad*%
%ADD17R,1.600000X1.600000*%
%TD*%
%TA.AperFunction,ComponentPad*%
%ADD18RoundRect,0.250000X-0.600000X-0.750000X0.600000X-0.750000X0.600000X0.750000X-0.600000X0.750000X0*%
%TD*%
%TA.AperFunction,ComponentPad*%
%ADD19O,1.700000X2.000000*%
%TD*%
%TA.AperFunction,ComponentPad*%
%ADD20R,2.500000X2.500000*%
%TD*%
%TA.AperFunction,ComponentPad*%
%ADD21C,2.500000*%
%TD*%
%TA.AperFunction,ComponentPad*%
%ADD22RoundRect,0.250000X-0.600000X-0.725000X0.600000X-0.725000X0.600000X0.725000X-0.600000X0.725000X0*%
%TD*%
%TA.AperFunction,ComponentPad*%
%ADD23O,1.700000X1.950000*%
%TD*%
%TA.AperFunction,ComponentPad*%
%ADD24R,1.600000X2.400000*%
%TD*%
%TA.AperFunction,ComponentPad*%
%ADD25O,1.600000X2.400000*%
%TD*%
%TA.AperFunction,ComponentPad*%
%ADD26R,2.000000X1.905000*%
%TD*%
%TA.AperFunction,ComponentPad*%
%ADD27O,2.000000X1.905000*%
%TD*%
%TA.AperFunction,ComponentPad*%
%ADD28O,1.950000X1.700000*%
%TD*%
%TA.AperFunction,ComponentPad*%
%ADD29RoundRect,0.250000X-0.725000X0.600000X-0.725000X-0.600000X0.725000X-0.600000X0.725000X0.600000X0*%
%TD*%
%TA.AperFunction,ComponentPad*%
%ADD30R,1.700000X1.700000*%
%TD*%
%TA.AperFunction,ComponentPad*%
%ADD31O,1.700000X1.700000*%
%TD*%
%TA.AperFunction,ViaPad*%
%ADD32C,0.900000*%
%TD*%
%TA.AperFunction,ViaPad*%
%ADD33C,0.600000*%
%TD*%
%TA.AperFunction,Conductor*%
%ADD34C,1.000000*%
%TD*%
%TA.AperFunction,Conductor*%
%ADD35C,1.200000*%
%TD*%
%TA.AperFunction,Conductor*%
%ADD36C,0.800000*%
%TD*%
G04 APERTURE END LIST*
D10*
%TO.P,REF\u002A\u002A,1*%
%TO.N,N/C*%
X58200000Y-58050000D03*
%TD*%
%TO.P,REF\u002A\u002A,1*%
%TO.N,N/C*%
X58200000Y-88300000D03*
%TD*%
%TO.P,REF\u002A\u002A,1*%
%TO.N,N/C*%
X194000000Y-88300000D03*
%TD*%
%TO.P,REF\u002A\u002A,1*%
%TO.N,N/C*%
X194000000Y-58050000D03*
%TD*%
D11*
%TO.P,C4,1*%
%TO.N,VIN+*%
X142500000Y-80500000D03*
%TO.P,C4,2*%
%TO.N,BAT+*%
X142500000Y-83000000D03*
%TD*%
D12*
%TO.P,R31,1*%
%TO.N,Net-(U2-HYST1)*%
X121962200Y-89790000D03*
D13*
%TO.P,R31,2*%
%TO.N,BAT+*%
X121962200Y-99950000D03*
%TD*%
D12*
%TO.P,R2,1*%
%TO.N,Net-(Q1-G)*%
X143075000Y-88970000D03*
D13*
%TO.P,R2,2*%
%TO.N,Net-(D1-K)*%
X143075000Y-99130000D03*
%TD*%
D14*
%TO.P,Q2,1,G*%
%TO.N,Net-(Q2-G)*%
X130360000Y-64055000D03*
D15*
%TO.P,Q2,2,D*%
%TO.N,Net-(Q2-D)*%
X132900000Y-64055000D03*
%TO.P,Q2,3,S*%
%TO.N,BAT+*%
X135440000Y-64055000D03*
%TD*%
D12*
%TO.P,R4,1*%
%TO.N,Net-(U6-TS)*%
X135450000Y-101180000D03*
D13*
%TO.P,R4,2*%
%TO.N,BAT-*%
X135450000Y-91020000D03*
%TD*%
D12*
%TO.P,R11,1*%
%TO.N,BAT-*%
X116320000Y-72175000D03*
D13*
%TO.P,R11,2*%
%TO.N,Net-(U2-SET1)*%
X126480000Y-72175000D03*
%TD*%
D16*
%TO.P,J1,1,In*%
%TO.N,RFIO*%
X89408000Y-106172000D03*
%TO.P,J1,2,Ext*%
%TO.N,BAT-*%
X91948000Y-103632000D03*
X86868000Y-103632000D03*
X91948000Y-108712000D03*
X86868000Y-108712000D03*
%TD*%
D11*
%TO.P,C1,1*%
%TO.N,Net-(D1-K)*%
X168375000Y-90300000D03*
%TO.P,C1,2*%
%TO.N,BAT-*%
X168375000Y-92800000D03*
%TD*%
D12*
%TO.P,R3,1*%
%TO.N,Net-(U6-TS)*%
X138450000Y-101180000D03*
D13*
%TO.P,R3,2*%
%TO.N,Net-(D1-K)*%
X138450000Y-91020000D03*
%TD*%
D17*
%TO.P,C6,1*%
%TO.N,Net-(Q2-D)*%
X176469888Y-52425000D03*
D12*
%TO.P,C6,2*%
%TO.N,BAT-*%
X178969888Y-52425000D03*
%TD*%
%TO.P,R1,1*%
%TO.N,Net-(Q2-G)*%
X125950000Y-89790000D03*
D13*
%TO.P,R1,2*%
%TO.N,BAT+*%
X125950000Y-99950000D03*
%TD*%
D18*
%TO.P,J7,1,Pin_1*%
%TO.N,BAT-*%
X151988200Y-47719100D03*
D19*
%TO.P,J7,2,Pin_2*%
%TO.N,BAT+*%
X154488200Y-47719100D03*
%TD*%
D11*
%TO.P,C2,1*%
%TO.N,VIN+*%
X176000000Y-59525000D03*
%TO.P,C2,2*%
%TO.N,BAT-*%
X178500000Y-59525000D03*
%TD*%
D12*
%TO.P,R21,1*%
%TO.N,Net-(U2-SET1)*%
X117985400Y-99950800D03*
D13*
%TO.P,R21,2*%
%TO.N,Net-(U2-HYST1)*%
X117985400Y-89790800D03*
%TD*%
D17*
%TO.P,C3,1*%
%TO.N,VCC*%
X94538800Y-69494400D03*
D12*
%TO.P,C3,2*%
%TO.N,BAT-*%
X97038800Y-69494400D03*
%TD*%
D20*
%TO.P,J4,1,Pin_1*%
%TO.N,VD*%
X173000000Y-87000000D03*
D21*
%TO.P,J4,2,Pin_2*%
%TO.N,BAT-*%
X178000000Y-87000000D03*
%TD*%
D22*
%TO.P,I2C_Sensor_out1,1,Pin_1*%
%TO.N,VCC*%
X172475200Y-71179200D03*
D23*
%TO.P,I2C_Sensor_out1,2,Pin_2*%
%TO.N,BAT-*%
X174975200Y-71179200D03*
%TO.P,I2C_Sensor_out1,3,Pin_3*%
%TO.N,SCL*%
X177475200Y-71179200D03*
%TO.P,I2C_Sensor_out1,4,Pin_4*%
%TO.N,SDA*%
X179975200Y-71179200D03*
%TD*%
D24*
%TO.P,U2,1,OUT1*%
%TO.N,Net-(Q2-G)*%
X125750000Y-76675000D03*
D25*
%TO.P,U2,2,HYST1*%
%TO.N,Net-(U2-HYST1)*%
X123210000Y-76675000D03*
%TO.P,U2,3,SET1*%
%TO.N,Net-(U2-SET1)*%
X120670000Y-76675000D03*
%TO.P,U2,4,GND*%
%TO.N,BAT-*%
X118130000Y-76675000D03*
%TO.P,U2,5,HYST2*%
%TO.N,unconnected-(U2-HYST2-Pad5)*%
X118130000Y-84295000D03*
%TO.P,U2,6,SET2*%
%TO.N,unconnected-(U2-SET2-Pad6)*%
X120670000Y-84295000D03*
%TO.P,U2,7,OUT2*%
%TO.N,unconnected-(U2-OUT2-Pad7)*%
X123210000Y-84295000D03*
%TO.P,U2,8,V+*%
%TO.N,BAT+*%
X125750000Y-84295000D03*
%TD*%
D26*
%TO.P,Q1,1,G*%
%TO.N,Net-(Q1-G)*%
X159355000Y-73815000D03*
D27*
%TO.P,Q1,2,D*%
%TO.N,VIN+*%
X159355000Y-71275000D03*
%TO.P,Q1,3,S*%
%TO.N,Net-(Q1-S)*%
X159355000Y-68735000D03*
%TD*%
D28*
%TO.P,J3,4,Pin_4*%
%TO.N,BAT-*%
X74185000Y-85538000D03*
%TO.P,J3,3,Pin_3*%
%TO.N,SWCLK*%
X74185000Y-83038000D03*
%TO.P,J3,2,Pin_2*%
%TO.N,SWDIO*%
X74185000Y-80538000D03*
D29*
%TO.P,J3,1,Pin_1*%
%TO.N,VCC*%
X74185000Y-78038000D03*
%TD*%
D30*
%TO.P,J2,1,Pin_1*%
%TO.N,VCC*%
X73400000Y-38675000D03*
D31*
%TO.P,J2,2,Pin_2*%
%TO.N,BAT-*%
X73400000Y-41215000D03*
%TO.P,J2,3,Pin_3*%
%TO.N,SCL*%
X73400000Y-43755000D03*
%TO.P,J2,4,Pin_4*%
%TO.N,SDA*%
X73400000Y-46295000D03*
%TO.P,J2,5,Pin_5*%
%TO.N,Net-(J2-Pin_5)*%
X73400000Y-48835000D03*
%TO.P,J2,6,Pin_6*%
%TO.N,unconnected-(J2-Pin_6-Pad6)*%
X73400000Y-51375000D03*
%TO.P,J2,7,Pin_7*%
%TO.N,unconnected-(J2-Pin_7-Pad7)*%
X73400000Y-53915000D03*
%TD*%
D32*
%TO.N,VCC*%
X173500000Y-42800000D03*
D33*
%TO.N,Net-(Q1-G)*%
X158700000Y-85225000D03*
X147955000Y-90297000D03*
D32*
%TO.N,Net-(Q2-D)*%
X165912800Y-52451000D03*
%TD*%
D34*
%TO.N,VCC*%
X170800000Y-38675000D02*
X173500000Y-41375000D01*
X173500000Y-41375000D02*
X173500000Y-42800000D01*
X73400000Y-38675000D02*
X170800000Y-38675000D01*
D35*
%TO.N,Net-(Q1-G)*%
X153644600Y-90297000D02*
X147955000Y-90297000D01*
X144402000Y-90297000D02*
X143075000Y-88970000D01*
X147955000Y-90297000D02*
X144402000Y-90297000D01*
X158700000Y-85225000D02*
X153644600Y-90280400D01*
D36*
X153644600Y-90280400D02*
X153644600Y-90297000D01*
D35*
%TO.N,VIN+*%
X164250000Y-71275000D02*
X159355000Y-71275000D01*
X176000000Y-59525000D02*
X164250000Y-71275000D01*
%TO.N,Net-(Q2-D)*%
X132900000Y-60325000D02*
X132900000Y-64055000D01*
X165912800Y-52451000D02*
X140774000Y-52451000D01*
X140774000Y-52451000D02*
X132900000Y-60325000D01*
%TO.N,SDA*%
X156939000Y-81661000D02*
X153050000Y-85550000D01*
X153050000Y-85550000D02*
X140250000Y-85550000D01*
X179975200Y-75117000D02*
X173431200Y-81661000D01*
X136361000Y-81661000D02*
X113893600Y-81661000D01*
X113893600Y-81661000D02*
X78527600Y-46295000D01*
X179975200Y-71179200D02*
X179975200Y-75117000D01*
X173431200Y-81661000D02*
X156939000Y-81661000D01*
X78527600Y-46295000D02*
X73400000Y-46295000D01*
X140250000Y-85550000D02*
X136361000Y-81661000D01*
%TO.N,SCL*%
X137575400Y-79349600D02*
X139250000Y-77675000D01*
X139250000Y-77675000D02*
X146150000Y-77675000D01*
X115519200Y-79349600D02*
X137575400Y-79349600D01*
X171754800Y-79349600D02*
X177475200Y-73629200D01*
X73400000Y-43755000D02*
X79924600Y-43755000D01*
X147824600Y-79349600D02*
X171754800Y-79349600D01*
X79924600Y-43755000D02*
X115519200Y-79349600D01*
X146150000Y-77675000D02*
X147824600Y-79349600D01*
X177475200Y-73629200D02*
X177475200Y-71179200D01*
%TD*%
%TA.AperFunction,Conductor*%
%TO.N,BAT-*%
G36*
X191841621Y-32720502D02*
G01*
X191888114Y-32774158D01*
X191899500Y-32826500D01*
X191899500Y-51300208D01*
X191899791Y-51300499D01*
X191899793Y-51300500D01*
X191900207Y-51300500D01*
X201473210Y-51300500D01*
X201541331Y-51320502D01*
X201587824Y-51374158D01*
X201599209Y-51426786D01*
X201507071Y-91784009D01*
X201499789Y-94973788D01*
X201479631Y-95041863D01*
X201425869Y-95088233D01*
X201373789Y-95099500D01*
X191899791Y-95099500D01*
X191899500Y-95099791D01*
X191899500Y-113573500D01*
X191879498Y-113641621D01*
X191825842Y-113688114D01*
X191773500Y-113699500D01*
X60426500Y-113699500D01*
X60358379Y-113679498D01*
X60311886Y-113625842D01*
X60300500Y-113573500D01*
X60300500Y-108583482D01*
X85235000Y-108583482D01*
X85235000Y-108840517D01*
X85275210Y-109094399D01*
X85354637Y-109338850D01*
X85354640Y-109338856D01*
X85471333Y-109567878D01*
X85547742Y-109673045D01*
X85547743Y-109673045D01*
X86112227Y-109108560D01*
X86114740Y-109114626D01*
X86207762Y-109253844D01*
X86326156Y-109372238D01*
X86465374Y-109465260D01*
X86471437Y-109467771D01*
X85906953Y-110032255D01*
X85906953Y-110032256D01*
X86012121Y-110108666D01*
X86241143Y-110225359D01*
X86241149Y-110225362D01*
X86485600Y-110304789D01*
X86739482Y-110345000D01*
X86996518Y-110345000D01*
X87250399Y-110304789D01*
X87494850Y-110225362D01*
X87494856Y-110225359D01*
X87723877Y-110108667D01*
X87829046Y-110032256D01*
X87264562Y-109467771D01*
X87270626Y-109465260D01*
X87409844Y-109372238D01*
X87528238Y-109253844D01*
X87621260Y-109114626D01*
X87623771Y-109108561D01*
X88188256Y-109673046D01*
X88264667Y-109567877D01*
X88381359Y-109338856D01*
X88381362Y-109338850D01*
X88460789Y-109094399D01*
X88501000Y-108840517D01*
X88501000Y-108583482D01*
X90315000Y-108583482D01*
X90315000Y-108840517D01*
X90355210Y-109094399D01*
X90434637Y-109338850D01*
X90434640Y-109338856D01*
X90551333Y-109567878D01*
X90627742Y-109673045D01*
X90627743Y-109673045D01*
X91192227Y-109108560D01*
X91194740Y-109114626D01*
X91287762Y-109253844D01*
X91406156Y-109372238D01*
X91545374Y-109465260D01*
X91551437Y-109467771D01*
X90986953Y-110032255D01*
X90986953Y-110032256D01*
X91092121Y-110108666D01*
X91321143Y-110225359D01*
X91321149Y-110225362D01*
X91565600Y-110304789D01*
X91819482Y-110345000D01*
X92076518Y-110345000D01*
X92330399Y-110304789D01*
X92574850Y-110225362D01*
X92574856Y-110225359D01*
X92803877Y-110108667D01*
X92909046Y-110032256D01*
X92344562Y-109467771D01*
X92350626Y-109465260D01*
X92489844Y-109372238D01*
X92608238Y-109253844D01*
X92701260Y-109114626D01*
X92703771Y-109108561D01*
X93268256Y-109673046D01*
X93344667Y-109567877D01*
X93461359Y-109338856D01*
X93461362Y-109338850D01*
X93540789Y-109094399D01*
X93581000Y-108840517D01*
X93581000Y-108583482D01*
X93540789Y-108329600D01*
X93461362Y-108085149D01*
X93461359Y-108085143D01*
X93344666Y-107856121D01*
X93268256Y-107750953D01*
X93268255Y-107750953D01*
X92703771Y-108315437D01*
X92701260Y-108309374D01*
X92608238Y-108170156D01*
X92489844Y-108051762D01*
X92350626Y-107958740D01*
X92344561Y-107956227D01*
X92909045Y-107391743D01*
X92909045Y-107391742D01*
X92803878Y-107315333D01*
X92574856Y-107198640D01*
X92574850Y-107198637D01*
X92330399Y-107119210D01*
X92076518Y-107079000D01*
X91819482Y-107079000D01*
X91565600Y-107119210D01*
X91321149Y-107198637D01*
X91321143Y-107198640D01*
X91092117Y-107315335D01*
X90986953Y-107391741D01*
X90986953Y-107391743D01*
X91551438Y-107956228D01*
X91545374Y-107958740D01*
X91406156Y-108051762D01*
X91287762Y-108170156D01*
X91194740Y-108309374D01*
X91192228Y-108315438D01*
X90627743Y-107750953D01*
X90627741Y-107750953D01*
X90551335Y-107856117D01*
X90434640Y-108085143D01*
X90434637Y-108085149D01*
X90355210Y-108329600D01*
X90315000Y-108583482D01*
X88501000Y-108583482D01*
X88460789Y-108329600D01*
X88381362Y-108085149D01*
X88381359Y-108085143D01*
X88264666Y-107856121D01*
X88188256Y-107750953D01*
X88188255Y-107750953D01*
X87623771Y-108315437D01*
X87621260Y-108309374D01*
X87528238Y-108170156D01*
X87409844Y-108051762D01*
X87270626Y-107958740D01*
X87264561Y-107956227D01*
X87829045Y-107391743D01*
X87829045Y-107391742D01*
X87723878Y-107315333D01*
X87494856Y-107198640D01*
X87494850Y-107198637D01*
X87250399Y-107119210D01*
X86996518Y-107079000D01*
X86739482Y-107079000D01*
X86485600Y-107119210D01*
X86241149Y-107198637D01*
X86241143Y-107198640D01*
X86012117Y-107315335D01*
X85906953Y-107391741D01*
X85906953Y-107391743D01*
X86471438Y-107956228D01*
X86465374Y-107958740D01*
X86326156Y-108051762D01*
X86207762Y-108170156D01*
X86114740Y-108309374D01*
X86112228Y-108315438D01*
X85547743Y-107750953D01*
X85547741Y-107750953D01*
X85471335Y-107856117D01*
X85354640Y-108085143D01*
X85354637Y-108085149D01*
X85275210Y-108329600D01*
X85235000Y-108583482D01*
X60300500Y-108583482D01*
X60300500Y-106043441D01*
X87774500Y-106043441D01*
X87774500Y-106300559D01*
X87814722Y-106554512D01*
X87814723Y-106554517D01*
X87894174Y-106799041D01*
X87894176Y-106799046D01*
X88010906Y-107028141D01*
X88162036Y-107236154D01*
X88162038Y-107236156D01*
X88162040Y-107236159D01*
X88343840Y-107417959D01*
X88343843Y-107417961D01*
X88343846Y-107417964D01*
X88551859Y-107569094D01*
X88780954Y-107685824D01*
X89025488Y-107765278D01*
X89279441Y-107805500D01*
X89279444Y-107805500D01*
X89536556Y-107805500D01*
X89536559Y-107805500D01*
X89790512Y-107765278D01*
X90035046Y-107685824D01*
X90264141Y-107569094D01*
X90472154Y-107417964D01*
X90498377Y-107391741D01*
X90539450Y-107350669D01*
X90653959Y-107236159D01*
X90653964Y-107236154D01*
X90805094Y-107028141D01*
X90921824Y-106799046D01*
X91001278Y-106554512D01*
X91041500Y-106300559D01*
X91041500Y-106043441D01*
X91001278Y-105789488D01*
X90921824Y-105544954D01*
X90805094Y-105315859D01*
X90653964Y-105107846D01*
X90653961Y-105107843D01*
X90653959Y-105107840D01*
X90472159Y-104926040D01*
X90472156Y-104926038D01*
X90472154Y-104926036D01*
X90264141Y-104774906D01*
X90035046Y-104658176D01*
X90035043Y-104658175D01*
X90035041Y-104658174D01*
X89790517Y-104578723D01*
X89790513Y-104578722D01*
X89790512Y-104578722D01*
X89536559Y-104538500D01*
X89279441Y-104538500D01*
X89025488Y-104578722D01*
X89025482Y-104578723D01*
X88780958Y-104658174D01*
X88780952Y-104658177D01*
X88551855Y-104774908D01*
X88343843Y-104926038D01*
X88343840Y-104926040D01*
X88162040Y-105107840D01*
X88162038Y-105107843D01*
X88010908Y-105315855D01*
X87894177Y-105544952D01*
X87894174Y-105544958D01*
X87814723Y-105789482D01*
X87814722Y-105789487D01*
X87814722Y-105789488D01*
X87774500Y-106043441D01*
X60300500Y-106043441D01*
X60300500Y-103503482D01*
X85235000Y-103503482D01*
X85235000Y-103760517D01*
X85275210Y-104014399D01*
X85354637Y-104258850D01*
X85354640Y-104258856D01*
X85471333Y-104487878D01*
X85547742Y-104593045D01*
X85547743Y-104593045D01*
X86112227Y-104028560D01*
X86114740Y-104034626D01*
X86207762Y-104173844D01*
X86326156Y-104292238D01*
X86465374Y-104385260D01*
X86471437Y-104387771D01*
X85906953Y-104952255D01*
X85906953Y-104952256D01*
X86012121Y-105028666D01*
X86241143Y-105145359D01*
X86241149Y-105145362D01*
X86485600Y-105224789D01*
X86739482Y-105265000D01*
X86996518Y-105265000D01*
X87250399Y-105224789D01*
X87494850Y-105145362D01*
X87494856Y-105145359D01*
X87723877Y-105028667D01*
X87829046Y-104952256D01*
X87264562Y-104387771D01*
X87270626Y-104385260D01*
X87409844Y-104292238D01*
X87528238Y-104173844D01*
X87621260Y-104034626D01*
X87623771Y-104028561D01*
X88188256Y-104593046D01*
X88264667Y-104487877D01*
X88381359Y-104258856D01*
X88381362Y-104258850D01*
X88460789Y-104014399D01*
X88501000Y-103760517D01*
X88501000Y-103503482D01*
X90315000Y-103503482D01*
X90315000Y-103760517D01*
X90355210Y-104014399D01*
X90434637Y-104258850D01*
X90434640Y-104258856D01*
X90551333Y-104487878D01*
X90627742Y-104593045D01*
X90627743Y-104593045D01*
X91192227Y-104028560D01*
X91194740Y-104034626D01*
X91287762Y-104173844D01*
X91406156Y-104292238D01*
X91545374Y-104385260D01*
X91551437Y-104387771D01*
X90986953Y-104952255D01*
X90986953Y-104952256D01*
X91092121Y-105028666D01*
X91321143Y-105145359D01*
X91321149Y-105145362D01*
X91565600Y-105224789D01*
X91819482Y-105265000D01*
X92076518Y-105265000D01*
X92330399Y-105224789D01*
X92574850Y-105145362D01*
X92574856Y-105145359D01*
X92803877Y-105028667D01*
X92909046Y-104952256D01*
X92344562Y-104387771D01*
X92350626Y-104385260D01*
X92489844Y-104292238D01*
X92608238Y-104173844D01*
X92701260Y-104034626D01*
X92703771Y-104028561D01*
X93268256Y-104593046D01*
X93344667Y-104487877D01*
X93461359Y-104258856D01*
X93461362Y-104258850D01*
X93540789Y-104014399D01*
X93581000Y-103760517D01*
X93581000Y-103503482D01*
X93540789Y-103249600D01*
X93461362Y-103005149D01*
X93461359Y-103005143D01*
X93344666Y-102776121D01*
X93268256Y-102670953D01*
X93268255Y-102670953D01*
X92703771Y-103235437D01*
X92701260Y-103229374D01*
X92608238Y-103090156D01*
X92489844Y-102971762D01*
X92350626Y-102878740D01*
X92344561Y-102876227D01*
X92909045Y-102311743D01*
X92909045Y-102311742D01*
X92803878Y-102235333D01*
X92574856Y-102118640D01*
X92574850Y-102118637D01*
X92330399Y-102039210D01*
X92076518Y-101999000D01*
X91819482Y-101999000D01*
X91565600Y-102039210D01*
X91321149Y-102118637D01*
X91321143Y-102118640D01*
X91092117Y-102235335D01*
X90986953Y-102311741D01*
X90986953Y-102311743D01*
X91551438Y-102876228D01*
X91545374Y-102878740D01*
X91406156Y-102971762D01*
X91287762Y-103090156D01*
X91194740Y-103229374D01*
X91192228Y-103235438D01*
X90627743Y-102670953D01*
X90627741Y-102670953D01*
X90551335Y-102776117D01*
X90434640Y-103005143D01*
X90434637Y-103005149D01*
X90355210Y-103249600D01*
X90315000Y-103503482D01*
X88501000Y-103503482D01*
X88460789Y-103249600D01*
X88381362Y-103005149D01*
X88381359Y-103005143D01*
X88264666Y-102776121D01*
X88188256Y-102670953D01*
X88188255Y-102670953D01*
X87623771Y-103235437D01*
X87621260Y-103229374D01*
X87528238Y-103090156D01*
X87409844Y-102971762D01*
X87270626Y-102878740D01*
X87264561Y-102876227D01*
X87829045Y-102311743D01*
X87829045Y-102311742D01*
X87723878Y-102235333D01*
X87494856Y-102118640D01*
X87494850Y-102118637D01*
X87250399Y-102039210D01*
X86996518Y-101999000D01*
X86739482Y-101999000D01*
X86485600Y-102039210D01*
X86241149Y-102118637D01*
X86241143Y-102118640D01*
X86012117Y-102235335D01*
X85906953Y-102311741D01*
X85906953Y-102311743D01*
X86471438Y-102876228D01*
X86465374Y-102878740D01*
X86326156Y-102971762D01*
X86207762Y-103090156D01*
X86114740Y-103229374D01*
X86112228Y-103235438D01*
X85547743Y-102670953D01*
X85547741Y-102670953D01*
X85471335Y-102776117D01*
X85354640Y-103005143D01*
X85354637Y-103005149D01*
X85275210Y-103249600D01*
X85235000Y-103503482D01*
X60300500Y-103503482D01*
X60300500Y-99847819D01*
X116676900Y-99847819D01*
X116676900Y-100053781D01*
X116708994Y-100256412D01*
X116709121Y-100257212D01*
X116757555Y-100406278D01*
X116772766Y-100453090D01*
X116866271Y-100636603D01*
X116987332Y-100803230D01*
X116987334Y-100803232D01*
X116987336Y-100803235D01*
X117132964Y-100948863D01*
X117132967Y-100948865D01*
X117132970Y-100948868D01*
X117299597Y-101069929D01*
X117483110Y-101163434D01*
X117678992Y-101227080D01*
X117882419Y-101259300D01*
X117882422Y-101259300D01*
X118088378Y-101259300D01*
X118088381Y-101259300D01*
X118291808Y-101227080D01*
X118487690Y-101163434D01*
X118671203Y-101069929D01*
X118837830Y-100948868D01*
X118983468Y-100803230D01*
X119104529Y-100636603D01*
X119198034Y-100453090D01*
X119261680Y-100257208D01*
X119293900Y-100053781D01*
X119293900Y-99847819D01*
X119293773Y-99847019D01*
X120653700Y-99847019D01*
X120653700Y-100052981D01*
X120674125Y-100181936D01*
X120685921Y-100256412D01*
X120734615Y-100406278D01*
X120749566Y-100452290D01*
X120843071Y-100635803D01*
X120964132Y-100802430D01*
X120964134Y-100802432D01*
X120964136Y-100802435D01*
X121109764Y-100948063D01*
X121109767Y-100948065D01*
X121109770Y-100948068D01*
X121276397Y-101069129D01*
X121459910Y-101162634D01*
X121655792Y-101226280D01*
X121859219Y-101258500D01*
X121859222Y-101258500D01*
X122065178Y-101258500D01*
X122065181Y-101258500D01*
X122268608Y-101226280D01*
X122464490Y-101162634D01*
X122648003Y-101069129D01*
X122814630Y-100948068D01*
X122960268Y-100802430D01*
X123081329Y-100635803D01*
X123174834Y-100452290D01*
X123238480Y-100256408D01*
X123270700Y-100052981D01*
X123270700Y-99847019D01*
X124641500Y-99847019D01*
X124641500Y-100052981D01*
X124661925Y-100181936D01*
X124673721Y-100256412D01*
X124722415Y-100406278D01*
X124737366Y-100452290D01*
X124830871Y-100635803D01*
X124951932Y-100802430D01*
X124951934Y-100802432D01*
X124951936Y-100802435D01*
X125097564Y-100948063D01*
X125097567Y-100948065D01*
X125097570Y-100948068D01*
X125264197Y-101069129D01*
X125447710Y-101162634D01*
X125643592Y-101226280D01*
X125847019Y-101258500D01*
X125847022Y-101258500D01*
X126052978Y-101258500D01*
X126052981Y-101258500D01*
X126256408Y-101226280D01*
X126452290Y-101162634D01*
X126620318Y-101077019D01*
X134141500Y-101077019D01*
X134141500Y-101282981D01*
X134173720Y-101486408D01*
X134237366Y-101682290D01*
X134330871Y-101865803D01*
X134451932Y-102032430D01*
X134451934Y-102032432D01*
X134451936Y-102032435D01*
X134597564Y-102178063D01*
X134597567Y-102178065D01*
X134597570Y-102178068D01*
X134764197Y-102299129D01*
X134947710Y-102392634D01*
X135143592Y-102456280D01*
X135347019Y-102488500D01*
X135347022Y-102488500D01*
X135552978Y-102488500D01*
X135552981Y-102488500D01*
X135756408Y-102456280D01*
X135952290Y-102392634D01*
X136135803Y-102299129D01*
X136302430Y-102178068D01*
X136448068Y-102032430D01*
X136569129Y-101865803D01*
X136662634Y-101682290D01*
X136726280Y-101486408D01*
X136758500Y-101282981D01*
X136758500Y-101077019D01*
X137141500Y-101077019D01*
X137141500Y-101282981D01*
X137173720Y-101486408D01*
X137237366Y-101682290D01*
X137330871Y-101865803D01*
X137451932Y-102032430D01*
X137451934Y-102032432D01*
X137451936Y-102032435D01*
X137597564Y-102178063D01*
X137597567Y-102178065D01*
X137597570Y-102178068D01*
X137764197Y-102299129D01*
X137947710Y-102392634D01*
X138143592Y-102456280D01*
X138347019Y-102488500D01*
X138347022Y-102488500D01*
X138552978Y-102488500D01*
X138552981Y-102488500D01*
X138756408Y-102456280D01*
X138952290Y-102392634D01*
X139135803Y-102299129D01*
X139302430Y-102178068D01*
X139448068Y-102032430D01*
X139569129Y-101865803D01*
X139662634Y-101682290D01*
X139726280Y-101486408D01*
X139758500Y-101282981D01*
X139758500Y-101077019D01*
X139726280Y-100873592D01*
X139662634Y-100677710D01*
X139569129Y-100494197D01*
X139448068Y-100327570D01*
X139448065Y-100327567D01*
X139448063Y-100327564D01*
X139302435Y-100181936D01*
X139302432Y-100181934D01*
X139302430Y-100181932D01*
X139135803Y-100060871D01*
X138952290Y-99967366D01*
X138952287Y-99967365D01*
X138952285Y-99967364D01*
X138756412Y-99903721D01*
X138756410Y-99903720D01*
X138756408Y-99903720D01*
X138552981Y-99871500D01*
X138347019Y-99871500D01*
X138143592Y-99903720D01*
X138143590Y-99903720D01*
X138143587Y-99903721D01*
X137947714Y-99967364D01*
X137947708Y-99967367D01*
X137764193Y-100060873D01*
X137597567Y-100181934D01*
X137597564Y-100181936D01*
X137451936Y-100327564D01*
X137451934Y-100327567D01*
X137330873Y-100494193D01*
X137237367Y-100677708D01*
X137237364Y-100677714D01*
X137173721Y-100873587D01*
X137173720Y-100873590D01*
X137173720Y-100873592D01*
X137141500Y-101077019D01*
X136758500Y-101077019D01*
X136726280Y-100873592D01*
X136662634Y-100677710D01*
X136569129Y-100494197D01*
X136448068Y-100327570D01*
X136448065Y-100327567D01*
X136448063Y-100327564D01*
X136302435Y-100181936D01*
X136302432Y-100181934D01*
X136302430Y-100181932D01*
X136135803Y-100060871D01*
X135952290Y-99967366D01*
X135952287Y-99967365D01*
X135952285Y-99967364D01*
X135756412Y-99903721D01*
X135756410Y-99903720D01*
X135756408Y-99903720D01*
X135552981Y-99871500D01*
X135347019Y-99871500D01*
X135143592Y-99903720D01*
X135143590Y-99903720D01*
X135143587Y-99903721D01*
X134947714Y-99967364D01*
X134947708Y-99967367D01*
X134764193Y-100060873D01*
X134597567Y-100181934D01*
X134597564Y-100181936D01*
X134451936Y-100327564D01*
X134451934Y-100327567D01*
X134330873Y-100494193D01*
X134237367Y-100677708D01*
X134237364Y-100677714D01*
X134173721Y-100873587D01*
X134173720Y-100873590D01*
X134173720Y-100873592D01*
X134141500Y-101077019D01*
X126620318Y-101077019D01*
X126635803Y-101069129D01*
X126802430Y-100948068D01*
X126948068Y-100802430D01*
X127069129Y-100635803D01*
X127162634Y-100452290D01*
X127226280Y-100256408D01*
X127258500Y-100052981D01*
X127258500Y-99847019D01*
X127226280Y-99643592D01*
X127162634Y-99447710D01*
X127069129Y-99264197D01*
X126948068Y-99097570D01*
X126948065Y-99097567D01*
X126948063Y-99097564D01*
X126877518Y-99027019D01*
X141766500Y-99027019D01*
X141766500Y-99232981D01*
X141771571Y-99264997D01*
X141798721Y-99436412D01*
X141802651Y-99448508D01*
X141862366Y-99632290D01*
X141955871Y-99815803D01*
X142076932Y-99982430D01*
X142076934Y-99982432D01*
X142076936Y-99982435D01*
X142222564Y-100128063D01*
X142222567Y-100128065D01*
X142222570Y-100128068D01*
X142389197Y-100249129D01*
X142572710Y-100342634D01*
X142768592Y-100406280D01*
X142972019Y-100438500D01*
X142972022Y-100438500D01*
X143177978Y-100438500D01*
X143177981Y-100438500D01*
X143381408Y-100406280D01*
X143577290Y-100342634D01*
X143760803Y-100249129D01*
X143927430Y-100128068D01*
X144073068Y-99982430D01*
X144194129Y-99815803D01*
X144287634Y-99632290D01*
X144351280Y-99436408D01*
X144383500Y-99232981D01*
X144383500Y-99027019D01*
X144351280Y-98823592D01*
X144287634Y-98627710D01*
X144194129Y-98444197D01*
X144073068Y-98277570D01*
X144073065Y-98277567D01*
X144073063Y-98277564D01*
X143927435Y-98131936D01*
X143927432Y-98131934D01*
X143927430Y-98131932D01*
X143760803Y-98010871D01*
X143577290Y-97917366D01*
X143577287Y-97917365D01*
X143577285Y-97917364D01*
X143381412Y-97853721D01*
X143381410Y-97853720D01*
X143381408Y-97853720D01*
X143177981Y-97821500D01*
X142972019Y-97821500D01*
X142768592Y-97853720D01*
X142768590Y-97853720D01*
X142768587Y-97853721D01*
X142572714Y-97917364D01*
X142572708Y-97917367D01*
X142389193Y-98010873D01*
X142222567Y-98131934D01*
X142222564Y-98131936D01*
X142076936Y-98277564D01*
X142076934Y-98277567D01*
X141955873Y-98444193D01*
X141862367Y-98627708D01*
X141862364Y-98627714D01*
X141798721Y-98823587D01*
X141798720Y-98823590D01*
X141798720Y-98823592D01*
X141766500Y-99027019D01*
X126877518Y-99027019D01*
X126802435Y-98951936D01*
X126802432Y-98951934D01*
X126802430Y-98951932D01*
X126635803Y-98830871D01*
X126452290Y-98737366D01*
X126452287Y-98737365D01*
X126452285Y-98737364D01*
X126256412Y-98673721D01*
X126256410Y-98673720D01*
X126256408Y-98673720D01*
X126052981Y-98641500D01*
X125847019Y-98641500D01*
X125643592Y-98673720D01*
X125643590Y-98673720D01*
X125643587Y-98673721D01*
X125447714Y-98737364D01*
X125447708Y-98737367D01*
X125264193Y-98830873D01*
X125097567Y-98951934D01*
X125097564Y-98951936D01*
X124951936Y-99097564D01*
X124951934Y-99097567D01*
X124830873Y-99264193D01*
X124737367Y-99447708D01*
X124737364Y-99447714D01*
X124673721Y-99643587D01*
X124673720Y-99643590D01*
X124673720Y-99643592D01*
X124641500Y-99847019D01*
X123270700Y-99847019D01*
X123238480Y-99643592D01*
X123174834Y-99447710D01*
X123081329Y-99264197D01*
X122960268Y-99097570D01*
X122960265Y-99097567D01*
X122960263Y-99097564D01*
X122814635Y-98951936D01*
X122814632Y-98951934D01*
X122814630Y-98951932D01*
X122648003Y-98830871D01*
X122464490Y-98737366D01*
X122464487Y-98737365D01*
X122464485Y-98737364D01*
X122268612Y-98673721D01*
X122268610Y-98673720D01*
X122268608Y-98673720D01*
X122065181Y-98641500D01*
X121859219Y-98641500D01*
X121655792Y-98673720D01*
X121655790Y-98673720D01*
X121655787Y-98673721D01*
X121459914Y-98737364D01*
X121459908Y-98737367D01*
X121276393Y-98830873D01*
X121109767Y-98951934D01*
X121109764Y-98951936D01*
X120964136Y-99097564D01*
X120964134Y-99097567D01*
X120843073Y-99264193D01*
X120749567Y-99447708D01*
X120749564Y-99447714D01*
X120685921Y-99643587D01*
X120685920Y-99643590D01*
X120685920Y-99643592D01*
X120653700Y-99847019D01*
X119293773Y-99847019D01*
X119261680Y-99644392D01*
X119198034Y-99448510D01*
X119104529Y-99264997D01*
X118983468Y-99098370D01*
X118983465Y-99098367D01*
X118983463Y-99098364D01*
X118837835Y-98952736D01*
X118837832Y-98952734D01*
X118837830Y-98952732D01*
X118671203Y-98831671D01*
X118487690Y-98738166D01*
X118487687Y-98738165D01*
X118487685Y-98738164D01*
X118291812Y-98674521D01*
X118291810Y-98674520D01*
X118291808Y-98674520D01*
X118088381Y-98642300D01*
X117882419Y-98642300D01*
X117678992Y-98674520D01*
X117678990Y-98674520D01*
X117678987Y-98674521D01*
X117483114Y-98738164D01*
X117483108Y-98738167D01*
X117299593Y-98831673D01*
X117132967Y-98952734D01*
X117132964Y-98952736D01*
X116987336Y-99098364D01*
X116987334Y-99098367D01*
X116866273Y-99264993D01*
X116772767Y-99448508D01*
X116772764Y-99448514D01*
X116709121Y-99644387D01*
X116709120Y-99644390D01*
X116709120Y-99644392D01*
X116676900Y-99847819D01*
X60300500Y-99847819D01*
X60300500Y-95099793D01*
X60300499Y-95099791D01*
X60300208Y-95099500D01*
X60300207Y-95099500D01*
X50726500Y-95099500D01*
X50658379Y-95079498D01*
X50611886Y-95025842D01*
X50600500Y-94973500D01*
X50600500Y-93815990D01*
X167718219Y-93815990D01*
X167741866Y-93833171D01*
X167741868Y-93833172D01*
X167911290Y-93919497D01*
X168092122Y-93978253D01*
X168279931Y-94008000D01*
X168470069Y-94008000D01*
X168657877Y-93978253D01*
X168838712Y-93919496D01*
X169008121Y-93833178D01*
X169008134Y-93833170D01*
X169031779Y-93815990D01*
X169031779Y-93815988D01*
X168375001Y-93159210D01*
X168375000Y-93159210D01*
X167718219Y-93815990D01*
X50600500Y-93815990D01*
X50600500Y-92704931D01*
X167167000Y-92704931D01*
X167167000Y-92895068D01*
X167196746Y-93082877D01*
X167255502Y-93263709D01*
X167341828Y-93433134D01*
X167359008Y-93456779D01*
X167359009Y-93456779D01*
X168015790Y-92799999D01*
X167969713Y-92753922D01*
X168025000Y-92753922D01*
X168025000Y-92846078D01*
X168048852Y-92935095D01*
X168094930Y-93014905D01*
X168160095Y-93080070D01*
X168239905Y-93126148D01*
X168328922Y-93150000D01*
X168421078Y-93150000D01*
X168510095Y-93126148D01*
X168589905Y-93080070D01*
X168655070Y-93014905D01*
X168701148Y-92935095D01*
X168725000Y-92846078D01*
X168725000Y-92799999D01*
X168734210Y-92799999D01*
X168734210Y-92800001D01*
X169390988Y-93456779D01*
X169390990Y-93456779D01*
X169408170Y-93433134D01*
X169408178Y-93433121D01*
X169494496Y-93263712D01*
X169553253Y-93082877D01*
X169583000Y-92895068D01*
X169583000Y-92704931D01*
X169553253Y-92517122D01*
X169494497Y-92336290D01*
X169408172Y-92166868D01*
X169408171Y-92166866D01*
X169390990Y-92143219D01*
X168734210Y-92799999D01*
X168725000Y-92799999D01*
X168725000Y-92753922D01*
X168701148Y-92664905D01*
X168655070Y-92585095D01*
X168589905Y-92519930D01*
X168510095Y-92473852D01*
X168421078Y-92450000D01*
X168328922Y-92450000D01*
X168239905Y-92473852D01*
X168160095Y-92519930D01*
X168094930Y-92585095D01*
X168048852Y-92664905D01*
X168025000Y-92753922D01*
X167969713Y-92753922D01*
X167359010Y-92143219D01*
X167359008Y-92143219D01*
X167341824Y-92166871D01*
X167255503Y-92336287D01*
X167196746Y-92517122D01*
X167167000Y-92704931D01*
X50600500Y-92704931D01*
X50600500Y-88137457D01*
X54891500Y-88137457D01*
X54891500Y-88462542D01*
X54923361Y-88786027D01*
X54923364Y-88786049D01*
X54986777Y-89104855D01*
X54986780Y-89104866D01*
X54986781Y-89104869D01*
X55081145Y-89415944D01*
X55193428Y-89687019D01*
X55205545Y-89716272D01*
X55358784Y-90002962D01*
X55539378Y-90273241D01*
X55539389Y-90273256D01*
X55745601Y-90524525D01*
X55745619Y-90524545D01*
X55975454Y-90754380D01*
X55975474Y-90754398D01*
X56173627Y-90917019D01*
X56226752Y-90960617D01*
X56497040Y-91141217D01*
X56783728Y-91294455D01*
X57084056Y-91418855D01*
X57395131Y-91513219D01*
X57395140Y-91513220D01*
X57395144Y-91513222D01*
X57509162Y-91535901D01*
X57713957Y-91576637D01*
X58037464Y-91608500D01*
X58037473Y-91608500D01*
X58362527Y-91608500D01*
X58362536Y-91608500D01*
X58686043Y-91576637D01*
X58960256Y-91522093D01*
X59004855Y-91513222D01*
X59004857Y-91513221D01*
X59004869Y-91513219D01*
X59315944Y-91418855D01*
X59616272Y-91294455D01*
X59902960Y-91141217D01*
X59902966Y-91141213D01*
X59917391Y-91131575D01*
X59917393Y-91131574D01*
X60085669Y-91019135D01*
X60173248Y-90960617D01*
X60424532Y-90754393D01*
X60654393Y-90524532D01*
X60860617Y-90273248D01*
X61041217Y-90002960D01*
X61194455Y-89716272D01*
X61206241Y-89687819D01*
X116676900Y-89687819D01*
X116676900Y-89893781D01*
X116708994Y-90096412D01*
X116709121Y-90097212D01*
X116766321Y-90273256D01*
X116772766Y-90293090D01*
X116866271Y-90476603D01*
X116987332Y-90643230D01*
X116987334Y-90643232D01*
X116987336Y-90643235D01*
X117132964Y-90788863D01*
X117132967Y-90788865D01*
X117132970Y-90788868D01*
X117299597Y-90909929D01*
X117483110Y-91003434D01*
X117678992Y-91067080D01*
X117882419Y-91099300D01*
X117882422Y-91099300D01*
X118088378Y-91099300D01*
X118088381Y-91099300D01*
X118291808Y-91067080D01*
X118487690Y-91003434D01*
X118671203Y-90909929D01*
X118837830Y-90788868D01*
X118983468Y-90643230D01*
X119104529Y-90476603D01*
X119198034Y-90293090D01*
X119261680Y-90097208D01*
X119293900Y-89893781D01*
X119293900Y-89687819D01*
X119293773Y-89687019D01*
X120653700Y-89687019D01*
X120653700Y-89892981D01*
X120674125Y-90021936D01*
X120685921Y-90096412D01*
X120743376Y-90273241D01*
X120749566Y-90292290D01*
X120843071Y-90475803D01*
X120964132Y-90642430D01*
X120964134Y-90642432D01*
X120964136Y-90642435D01*
X121109764Y-90788063D01*
X121109767Y-90788065D01*
X121109770Y-90788068D01*
X121276397Y-90909129D01*
X121459910Y-91002634D01*
X121655792Y-91066280D01*
X121859219Y-91098500D01*
X121859222Y-91098500D01*
X122065178Y-91098500D01*
X122065181Y-91098500D01*
X122268608Y-91066280D01*
X122464490Y-91002634D01*
X122648003Y-90909129D01*
X122814630Y-90788068D01*
X122960268Y-90642430D01*
X123081329Y-90475803D01*
X123174834Y-90292290D01*
X123238480Y-90096408D01*
X123270700Y-89892981D01*
X123270700Y-89687019D01*
X124641500Y-89687019D01*
X124641500Y-89892981D01*
X124661925Y-90021936D01*
X124673721Y-90096412D01*
X124731176Y-90273241D01*
X124737366Y-90292290D01*
X124830871Y-90475803D01*
X124951932Y-90642430D01*
X124951934Y-90642432D01*
X124951936Y-90642435D01*
X125097564Y-90788063D01*
X125097567Y-90788065D01*
X125097570Y-90788068D01*
X125264197Y-90909129D01*
X125447710Y-91002634D01*
X125643592Y-91066280D01*
X125847019Y-91098500D01*
X125847022Y-91098500D01*
X126052978Y-91098500D01*
X126052981Y-91098500D01*
X126256408Y-91066280D01*
X126452290Y-91002634D01*
X126635803Y-90909129D01*
X126802430Y-90788068D01*
X126824498Y-90766000D01*
X134165926Y-90766000D01*
X135138314Y-90766000D01*
X135129920Y-90774394D01*
X135077259Y-90865606D01*
X135050000Y-90967339D01*
X135050000Y-91072661D01*
X135077259Y-91174394D01*
X135129920Y-91265606D01*
X135138314Y-91274000D01*
X134165926Y-91274000D01*
X134174208Y-91326295D01*
X134237826Y-91522093D01*
X134237829Y-91522099D01*
X134331300Y-91705545D01*
X134452315Y-91872107D01*
X134452317Y-91872110D01*
X134597889Y-92017682D01*
X134597892Y-92017684D01*
X134764454Y-92138699D01*
X134947900Y-92232170D01*
X134947906Y-92232173D01*
X135143705Y-92295791D01*
X135143717Y-92295794D01*
X135195999Y-92304074D01*
X135196000Y-92304074D01*
X135196000Y-91331686D01*
X135204394Y-91340080D01*
X135295606Y-91392741D01*
X135397339Y-91420000D01*
X135502661Y-91420000D01*
X135604394Y-91392741D01*
X135695606Y-91340080D01*
X135704000Y-91331686D01*
X135704000Y-92304074D01*
X135756282Y-92295794D01*
X135756294Y-92295791D01*
X135952093Y-92232173D01*
X135952099Y-92232170D01*
X136135545Y-92138699D01*
X136302107Y-92017684D01*
X136302110Y-92017682D01*
X136447682Y-91872110D01*
X136447684Y-91872107D01*
X136568699Y-91705545D01*
X136662170Y-91522099D01*
X136662173Y-91522093D01*
X136725791Y-91326295D01*
X136734074Y-91274000D01*
X135761686Y-91274000D01*
X135770080Y-91265606D01*
X135822741Y-91174394D01*
X135850000Y-91072661D01*
X135850000Y-90967339D01*
X135836517Y-90917019D01*
X137141500Y-90917019D01*
X137141500Y-91122981D01*
X137173702Y-91326295D01*
X137173721Y-91326412D01*
X137234419Y-91513222D01*
X137237366Y-91522290D01*
X137330871Y-91705803D01*
X137451932Y-91872430D01*
X137451934Y-91872432D01*
X137451936Y-91872435D01*
X137597564Y-92018063D01*
X137597567Y-92018065D01*
X137597570Y-92018068D01*
X137764197Y-92139129D01*
X137947710Y-92232634D01*
X138143592Y-92296280D01*
X138347019Y-92328500D01*
X138347022Y-92328500D01*
X138552978Y-92328500D01*
X138552981Y-92328500D01*
X138756408Y-92296280D01*
X138952290Y-92232634D01*
X139135803Y-92139129D01*
X139302430Y-92018068D01*
X139448068Y-91872430D01*
X139569129Y-91705803D01*
X139662634Y-91522290D01*
X139726280Y-91326408D01*
X139758500Y-91122981D01*
X139758500Y-90917019D01*
X139726280Y-90713592D01*
X139662634Y-90517710D01*
X139569129Y-90334197D01*
X139448068Y-90167570D01*
X139448065Y-90167567D01*
X139448063Y-90167564D01*
X139302435Y-90021936D01*
X139302432Y-90021934D01*
X139302430Y-90021932D01*
X139176999Y-89930802D01*
X139135806Y-89900873D01*
X139135805Y-89900872D01*
X139135803Y-89900871D01*
X138952290Y-89807366D01*
X138952287Y-89807365D01*
X138952285Y-89807364D01*
X138756412Y-89743721D01*
X138756410Y-89743720D01*
X138756408Y-89743720D01*
X138552981Y-89711500D01*
X138347019Y-89711500D01*
X138143592Y-89743720D01*
X138143590Y-89743720D01*
X138143587Y-89743721D01*
X137947714Y-89807364D01*
X137947708Y-89807367D01*
X137764193Y-89900873D01*
X137597567Y-90021934D01*
X137597564Y-90021936D01*
X137451936Y-90167564D01*
X137451934Y-90167567D01*
X137330873Y-90334193D01*
X137237367Y-90517708D01*
X137237364Y-90517714D01*
X137173721Y-90713587D01*
X137173720Y-90713590D01*
X137173720Y-90713592D01*
X137141500Y-90917019D01*
X135836517Y-90917019D01*
X135822741Y-90865606D01*
X135770080Y-90774394D01*
X135761686Y-90766000D01*
X136734074Y-90766000D01*
X136725791Y-90713704D01*
X136662173Y-90517906D01*
X136662170Y-90517900D01*
X136568699Y-90334454D01*
X136447684Y-90167892D01*
X136447682Y-90167889D01*
X136302110Y-90022317D01*
X136302107Y-90022315D01*
X136135545Y-89901300D01*
X135952099Y-89807829D01*
X135952093Y-89807826D01*
X135756294Y-89744208D01*
X135756296Y-89744208D01*
X135704000Y-89735925D01*
X135704000Y-90708314D01*
X135695606Y-90699920D01*
X135604394Y-90647259D01*
X135502661Y-90620000D01*
X135397339Y-90620000D01*
X135295606Y-90647259D01*
X135204394Y-90699920D01*
X135196000Y-90708314D01*
X135196000Y-89735925D01*
X135143704Y-89744208D01*
X134947906Y-89807826D01*
X134947900Y-89807829D01*
X134764454Y-89901300D01*
X134597892Y-90022315D01*
X134597889Y-90022317D01*
X134452317Y-90167889D01*
X134452315Y-90167892D01*
X134331300Y-90334454D01*
X134237829Y-90517900D01*
X134237826Y-90517906D01*
X134174208Y-90713704D01*
X134165926Y-90766000D01*
X126824498Y-90766000D01*
X126948068Y-90642430D01*
X127069129Y-90475803D01*
X127162634Y-90292290D01*
X127226280Y-90096408D01*
X127258500Y-89892981D01*
X127258500Y-89687019D01*
X127226280Y-89483592D01*
X127162634Y-89287710D01*
X127069129Y-89104197D01*
X126948068Y-88937570D01*
X126948065Y-88937567D01*
X126948063Y-88937564D01*
X126877518Y-88867019D01*
X141766500Y-88867019D01*
X141766500Y-89072981D01*
X141783457Y-89180040D01*
X141798721Y-89276412D01*
X141844055Y-89415937D01*
X141862366Y-89472290D01*
X141955871Y-89655803D01*
X142076932Y-89822430D01*
X142076934Y-89822432D01*
X142076936Y-89822435D01*
X142222564Y-89968063D01*
X142222567Y-89968065D01*
X142222570Y-89968068D01*
X142389197Y-90089129D01*
X142572710Y-90182634D01*
X142762093Y-90244168D01*
X142812250Y-90274905D01*
X143553307Y-91015962D01*
X143553336Y-91015993D01*
X143679855Y-91142512D01*
X143679858Y-91142514D01*
X143679861Y-91142517D01*
X143821019Y-91245074D01*
X143976484Y-91324288D01*
X144091336Y-91361605D01*
X144142426Y-91378205D01*
X144314758Y-91405500D01*
X144314759Y-91405500D01*
X144314761Y-91405500D01*
X153731838Y-91405500D01*
X153731841Y-91405500D01*
X153904174Y-91378205D01*
X154070116Y-91324288D01*
X154225581Y-91245074D01*
X154366739Y-91142517D01*
X154421971Y-91087285D01*
X154490109Y-91019148D01*
X154490111Y-91019144D01*
X154490117Y-91019139D01*
X154528400Y-90966445D01*
X154541229Y-90951425D01*
X155287765Y-90204889D01*
X167166500Y-90204889D01*
X167166500Y-90395111D01*
X167196257Y-90582991D01*
X167255039Y-90763903D01*
X167341398Y-90933392D01*
X167341400Y-90933395D01*
X167453209Y-91087287D01*
X167587712Y-91221790D01*
X167587715Y-91221792D01*
X167741608Y-91333602D01*
X167911097Y-91419961D01*
X167943318Y-91430430D01*
X168001924Y-91470504D01*
X168029560Y-91535901D01*
X168017453Y-91605858D01*
X167969446Y-91658164D01*
X167943318Y-91670096D01*
X167911287Y-91680503D01*
X167741871Y-91766824D01*
X167718219Y-91784008D01*
X167718219Y-91784010D01*
X168374999Y-92440790D01*
X168375000Y-92440790D01*
X169031779Y-91784009D01*
X169031779Y-91784008D01*
X169008134Y-91766828D01*
X168838707Y-91680501D01*
X168806682Y-91670096D01*
X168748076Y-91630022D01*
X168720439Y-91564626D01*
X168732546Y-91494669D01*
X168780552Y-91442363D01*
X168806680Y-91430430D01*
X168838903Y-91419961D01*
X169008392Y-91333602D01*
X169162285Y-91221792D01*
X169296792Y-91087285D01*
X169408602Y-90933392D01*
X169494961Y-90763903D01*
X169553743Y-90582991D01*
X169583500Y-90395111D01*
X169583500Y-90204889D01*
X169553743Y-90017009D01*
X169494961Y-89836097D01*
X169408602Y-89666608D01*
X169296792Y-89512715D01*
X169296790Y-89512712D01*
X169162287Y-89378209D01*
X169008395Y-89266400D01*
X169008394Y-89266399D01*
X169008392Y-89266398D01*
X168838903Y-89180039D01*
X168657991Y-89121257D01*
X168470111Y-89091500D01*
X168279889Y-89091500D01*
X168092009Y-89121257D01*
X168092006Y-89121257D01*
X168092005Y-89121258D01*
X167911097Y-89180039D01*
X167911095Y-89180040D01*
X167741604Y-89266400D01*
X167587712Y-89378209D01*
X167453209Y-89512712D01*
X167341400Y-89666604D01*
X167255040Y-89836095D01*
X167255039Y-89836097D01*
X167212161Y-89968063D01*
X167196257Y-90017009D01*
X167166500Y-90204889D01*
X155287765Y-90204889D01*
X159545516Y-85947139D01*
X159648074Y-85805981D01*
X159701386Y-85701350D01*
X171241500Y-85701350D01*
X171241500Y-88298649D01*
X171248009Y-88359196D01*
X171248011Y-88359204D01*
X171299110Y-88496202D01*
X171299112Y-88496207D01*
X171386738Y-88613261D01*
X171503792Y-88700887D01*
X171503794Y-88700888D01*
X171503796Y-88700889D01*
X171562875Y-88722924D01*
X171640795Y-88751988D01*
X171640803Y-88751990D01*
X171701350Y-88758499D01*
X171701355Y-88758499D01*
X171701362Y-88758500D01*
X171701368Y-88758500D01*
X174298632Y-88758500D01*
X174298638Y-88758500D01*
X174298645Y-88758499D01*
X174298649Y-88758499D01*
X174359196Y-88751990D01*
X174359199Y-88751989D01*
X174359201Y-88751989D01*
X174496204Y-88700889D01*
X174522168Y-88681453D01*
X174613261Y-88613261D01*
X174700887Y-88496207D01*
X174700887Y-88496206D01*
X174700889Y-88496204D01*
X174751989Y-88359201D01*
X174758500Y-88298638D01*
X174758500Y-86884772D01*
X176242000Y-86884772D01*
X176242000Y-87115227D01*
X176272078Y-87343698D01*
X176331724Y-87566298D01*
X176331725Y-87566302D01*
X176419916Y-87779213D01*
X176419921Y-87779224D01*
X176535137Y-87978784D01*
X176535142Y-87978791D01*
X176590220Y-88050569D01*
X177397301Y-87243488D01*
X177423978Y-87307890D01*
X177495112Y-87414351D01*
X177585649Y-87504888D01*
X177692110Y-87576022D01*
X177756510Y-87602698D01*
X176949429Y-88409778D01*
X176949429Y-88409779D01*
X177021209Y-88464857D01*
X177021215Y-88464862D01*
X177220775Y-88580078D01*
X177220786Y-88580083D01*
X177433697Y-88668274D01*
X177433701Y-88668275D01*
X177656301Y-88727921D01*
X177884772Y-88757999D01*
X177884782Y-88758000D01*
X178115218Y-88758000D01*
X178115227Y-88757999D01*
X178343698Y-88727921D01*
X178566298Y-88668275D01*
X178566302Y-88668274D01*
X178779213Y-88580083D01*
X178779224Y-88580078D01*
X178978784Y-88464862D01*
X178978792Y-88464856D01*
X179050569Y-88409778D01*
X178778248Y-88137457D01*
X190691500Y-88137457D01*
X190691500Y-88462542D01*
X190723361Y-88786027D01*
X190723364Y-88786049D01*
X190786777Y-89104855D01*
X190786780Y-89104866D01*
X190786781Y-89104869D01*
X190881145Y-89415944D01*
X190993428Y-89687019D01*
X191005545Y-89716272D01*
X191158784Y-90002962D01*
X191339378Y-90273241D01*
X191339389Y-90273256D01*
X191545601Y-90524525D01*
X191545619Y-90524545D01*
X191775454Y-90754380D01*
X191775474Y-90754398D01*
X191973627Y-90917019D01*
X192026752Y-90960617D01*
X192297040Y-91141217D01*
X192583728Y-91294455D01*
X192884056Y-91418855D01*
X193195131Y-91513219D01*
X193195140Y-91513220D01*
X193195144Y-91513222D01*
X193309162Y-91535901D01*
X193513957Y-91576637D01*
X193837464Y-91608500D01*
X193837473Y-91608500D01*
X194162527Y-91608500D01*
X194162536Y-91608500D01*
X194486043Y-91576637D01*
X194760256Y-91522093D01*
X194804855Y-91513222D01*
X194804857Y-91513221D01*
X194804869Y-91513219D01*
X195115944Y-91418855D01*
X195416272Y-91294455D01*
X195702960Y-91141217D01*
X195973248Y-90960617D01*
X196224532Y-90754393D01*
X196454393Y-90524532D01*
X196660617Y-90273248D01*
X196841217Y-90002960D01*
X196994455Y-89716272D01*
X197118855Y-89415944D01*
X197213219Y-89104869D01*
X197213354Y-89104193D01*
X197246338Y-88938367D01*
X197276637Y-88786043D01*
X197308500Y-88462536D01*
X197308500Y-88137464D01*
X197276637Y-87813957D01*
X197213219Y-87495131D01*
X197118855Y-87184056D01*
X196994455Y-86883728D01*
X196841217Y-86597040D01*
X196660617Y-86326752D01*
X196454393Y-86075468D01*
X196454389Y-86075464D01*
X196454380Y-86075454D01*
X196224545Y-85845619D01*
X196224525Y-85845601D01*
X195973256Y-85639389D01*
X195973241Y-85639378D01*
X195702962Y-85458784D01*
X195416272Y-85305545D01*
X195400739Y-85299111D01*
X195115944Y-85181145D01*
X194804869Y-85086781D01*
X194804866Y-85086780D01*
X194804855Y-85086777D01*
X194486049Y-85023364D01*
X194486045Y-85023363D01*
X194486043Y-85023363D01*
X194486038Y-85023362D01*
X194486027Y-85023361D01*
X194162542Y-84991500D01*
X194162536Y-84991500D01*
X193837464Y-84991500D01*
X193837457Y-84991500D01*
X193513972Y-85023361D01*
X193513950Y-85023364D01*
X193195144Y-85086777D01*
X192884062Y-85181143D01*
X192884060Y-85181143D01*
X192884056Y-85181145D01*
X192790264Y-85219995D01*
X192583727Y-85305545D01*
X192297037Y-85458784D01*
X192026758Y-85639378D01*
X192026743Y-85639389D01*
X191775474Y-85845601D01*
X191775454Y-85845619D01*
X191545619Y-86075454D01*
X191545601Y-86075474D01*
X191339389Y-86326743D01*
X191339378Y-86326758D01*
X191158784Y-86597037D01*
X191005545Y-86883727D01*
X190881143Y-87184062D01*
X190786777Y-87495144D01*
X190723364Y-87813950D01*
X190723361Y-87813972D01*
X190691500Y-88137457D01*
X178778248Y-88137457D01*
X178243489Y-87602698D01*
X178307890Y-87576022D01*
X178414351Y-87504888D01*
X178504888Y-87414351D01*
X178576022Y-87307890D01*
X178602698Y-87243489D01*
X179409778Y-88050569D01*
X179464856Y-87978792D01*
X179464862Y-87978784D01*
X179580078Y-87779224D01*
X179580083Y-87779213D01*
X179668274Y-87566302D01*
X179668275Y-87566298D01*
X179727921Y-87343698D01*
X179757999Y-87115227D01*
X179758000Y-87115218D01*
X179758000Y-86884782D01*
X179757999Y-86884772D01*
X179727921Y-86656301D01*
X179668275Y-86433701D01*
X179668274Y-86433697D01*
X179580083Y-86220786D01*
X179580078Y-86220775D01*
X179464862Y-86021215D01*
X179464857Y-86021209D01*
X179409778Y-85949429D01*
X178602697Y-86756509D01*
X178576022Y-86692110D01*
X178504888Y-86585649D01*
X178414351Y-86495112D01*
X178307890Y-86423978D01*
X178243488Y-86397301D01*
X179050569Y-85590220D01*
X179050569Y-85590219D01*
X178978791Y-85535142D01*
X178978784Y-85535137D01*
X178779224Y-85419921D01*
X178779213Y-85419916D01*
X178566302Y-85331725D01*
X178566298Y-85331724D01*
X178343698Y-85272078D01*
X178115227Y-85242000D01*
X177884772Y-85242000D01*
X177656301Y-85272078D01*
X177433701Y-85331724D01*
X177433697Y-85331725D01*
X177220786Y-85419916D01*
X177220775Y-85419921D01*
X177021215Y-85535137D01*
X176949429Y-85590220D01*
X177756510Y-86397301D01*
X177692110Y-86423978D01*
X177585649Y-86495112D01*
X177495112Y-86585649D01*
X177423978Y-86692110D01*
X177397301Y-86756510D01*
X176590220Y-85949429D01*
X176535137Y-86021215D01*
X176419921Y-86220775D01*
X176419916Y-86220786D01*
X176331725Y-86433697D01*
X176331724Y-86433701D01*
X176272078Y-86656301D01*
X176242000Y-86884772D01*
X174758500Y-86884772D01*
X174758500Y-85701362D01*
X174753238Y-85652416D01*
X174753238Y-85652412D01*
X174751990Y-85640804D01*
X174751988Y-85640795D01*
X174717166Y-85547435D01*
X174700889Y-85503796D01*
X174700888Y-85503794D01*
X174700887Y-85503792D01*
X174613261Y-85386738D01*
X174496207Y-85299112D01*
X174496202Y-85299110D01*
X174359204Y-85248011D01*
X174359196Y-85248009D01*
X174298649Y-85241500D01*
X174298638Y-85241500D01*
X171701362Y-85241500D01*
X171701350Y-85241500D01*
X171640803Y-85248009D01*
X171640795Y-85248011D01*
X171503797Y-85299110D01*
X171503792Y-85299112D01*
X171386738Y-85386738D01*
X171299112Y-85503792D01*
X171299110Y-85503797D01*
X171248011Y-85640795D01*
X171248009Y-85640803D01*
X171241500Y-85701350D01*
X159701386Y-85701350D01*
X159727287Y-85650517D01*
X159781205Y-85484574D01*
X159808500Y-85312242D01*
X159808500Y-85137759D01*
X159781205Y-84965426D01*
X159727287Y-84799483D01*
X159648074Y-84644019D01*
X159545516Y-84502861D01*
X159545514Y-84502858D01*
X159422141Y-84379485D01*
X159309392Y-84297568D01*
X159280981Y-84276926D01*
X159125517Y-84197713D01*
X159125514Y-84197712D01*
X159125512Y-84197711D01*
X158959579Y-84143796D01*
X158959575Y-84143795D01*
X158959574Y-84143795D01*
X158787241Y-84116500D01*
X158612758Y-84116500D01*
X158440426Y-84143795D01*
X158440420Y-84143796D01*
X158274487Y-84197711D01*
X158274483Y-84197713D01*
X158119019Y-84276926D01*
X158119016Y-84276927D01*
X158119016Y-84276928D01*
X157977858Y-84379485D01*
X157977855Y-84379488D01*
X153205749Y-89151595D01*
X153143437Y-89185621D01*
X153116654Y-89188500D01*
X144913345Y-89188500D01*
X144845224Y-89168498D01*
X144824250Y-89151595D01*
X144379905Y-88707250D01*
X144349168Y-88657093D01*
X144287634Y-88467710D01*
X144194129Y-88284197D01*
X144073068Y-88117570D01*
X144073065Y-88117567D01*
X144073063Y-88117564D01*
X143927435Y-87971936D01*
X143927432Y-87971934D01*
X143927430Y-87971932D01*
X143760803Y-87850871D01*
X143577290Y-87757366D01*
X143577287Y-87757365D01*
X143577285Y-87757364D01*
X143381412Y-87693721D01*
X143381410Y-87693720D01*
X143381408Y-87693720D01*
X143177981Y-87661500D01*
X142972019Y-87661500D01*
X142768592Y-87693720D01*
X142768590Y-87693720D01*
X142768587Y-87693721D01*
X142572714Y-87757364D01*
X142572708Y-87757367D01*
X142389193Y-87850873D01*
X142222567Y-87971934D01*
X142222564Y-87971936D01*
X142076936Y-88117564D01*
X142076934Y-88117567D01*
X141955873Y-88284193D01*
X141862367Y-88467708D01*
X141862364Y-88467714D01*
X141798721Y-88663587D01*
X141798720Y-88663590D01*
X141798720Y-88663592D01*
X141766500Y-88867019D01*
X126877518Y-88867019D01*
X126802435Y-88791936D01*
X126802432Y-88791934D01*
X126802430Y-88791932D01*
X126635803Y-88670871D01*
X126452290Y-88577366D01*
X126452287Y-88577365D01*
X126452285Y-88577364D01*
X126256412Y-88513721D01*
X126256410Y-88513720D01*
X126256408Y-88513720D01*
X126052981Y-88481500D01*
X125847019Y-88481500D01*
X125643592Y-88513720D01*
X125643590Y-88513720D01*
X125643587Y-88513721D01*
X125447714Y-88577364D01*
X125447708Y-88577367D01*
X125264193Y-88670873D01*
X125097567Y-88791934D01*
X125097564Y-88791936D01*
X124951936Y-88937564D01*
X124951934Y-88937567D01*
X124830873Y-89104193D01*
X124737367Y-89287708D01*
X124737364Y-89287714D01*
X124673721Y-89483587D01*
X124673720Y-89483590D01*
X124673720Y-89483592D01*
X124641500Y-89687019D01*
X123270700Y-89687019D01*
X123238480Y-89483592D01*
X123174834Y-89287710D01*
X123081329Y-89104197D01*
X122960268Y-88937570D01*
X122960265Y-88937567D01*
X122960263Y-88937564D01*
X122814635Y-88791936D01*
X122814632Y-88791934D01*
X122814630Y-88791932D01*
X122648003Y-88670871D01*
X122464490Y-88577366D01*
X122464487Y-88577365D01*
X122464485Y-88577364D01*
X122268612Y-88513721D01*
X122268610Y-88513720D01*
X122268608Y-88513720D01*
X122065181Y-88481500D01*
X121859219Y-88481500D01*
X121655792Y-88513720D01*
X121655790Y-88513720D01*
X121655787Y-88513721D01*
X121459914Y-88577364D01*
X121459908Y-88577367D01*
X121276393Y-88670873D01*
X121109767Y-88791934D01*
X121109764Y-88791936D01*
X120964136Y-88937564D01*
X120964134Y-88937567D01*
X120843073Y-89104193D01*
X120749567Y-89287708D01*
X120749564Y-89287714D01*
X120685921Y-89483587D01*
X120685920Y-89483590D01*
X120685920Y-89483592D01*
X120653700Y-89687019D01*
X119293773Y-89687019D01*
X119261680Y-89484392D01*
X119198034Y-89288510D01*
X119104529Y-89104997D01*
X118983468Y-88938370D01*
X118983465Y-88938367D01*
X118983463Y-88938364D01*
X118837835Y-88792736D01*
X118837832Y-88792734D01*
X118837830Y-88792732D01*
X118671203Y-88671671D01*
X118487690Y-88578166D01*
X118487687Y-88578165D01*
X118487685Y-88578164D01*
X118291812Y-88514521D01*
X118291810Y-88514520D01*
X118291808Y-88514520D01*
X118088381Y-88482300D01*
X117882419Y-88482300D01*
X117678992Y-88514520D01*
X117678990Y-88514520D01*
X117678987Y-88514521D01*
X117483114Y-88578164D01*
X117483108Y-88578167D01*
X117299593Y-88671673D01*
X117132967Y-88792734D01*
X117132964Y-88792736D01*
X116987336Y-88938364D01*
X116987334Y-88938367D01*
X116866273Y-89104993D01*
X116772767Y-89288508D01*
X116772764Y-89288514D01*
X116709121Y-89484387D01*
X116709120Y-89484390D01*
X116709120Y-89484392D01*
X116676900Y-89687819D01*
X61206241Y-89687819D01*
X61318855Y-89415944D01*
X61413219Y-89104869D01*
X61413354Y-89104193D01*
X61446338Y-88938367D01*
X61476637Y-88786043D01*
X61508500Y-88462536D01*
X61508500Y-88137464D01*
X61476637Y-87813957D01*
X61413219Y-87495131D01*
X61318855Y-87184056D01*
X61194455Y-86883728D01*
X61041217Y-86597040D01*
X60860617Y-86326752D01*
X60654393Y-86075468D01*
X60654389Y-86075464D01*
X60654380Y-86075454D01*
X60424545Y-85845619D01*
X60424525Y-85845601D01*
X60173256Y-85639389D01*
X60173241Y-85639378D01*
X59902962Y-85458784D01*
X59616272Y-85305545D01*
X59600739Y-85299111D01*
X59315944Y-85181145D01*
X59004869Y-85086781D01*
X59004866Y-85086780D01*
X59004855Y-85086777D01*
X58686049Y-85023364D01*
X58686045Y-85023363D01*
X58686043Y-85023363D01*
X58686038Y-85023362D01*
X58686027Y-85023361D01*
X58362542Y-84991500D01*
X58362536Y-84991500D01*
X58037464Y-84991500D01*
X58037457Y-84991500D01*
X57713972Y-85023361D01*
X57713950Y-85023364D01*
X57395144Y-85086777D01*
X57084062Y-85181143D01*
X57084060Y-85181143D01*
X57084056Y-85181145D01*
X56990264Y-85219995D01*
X56783727Y-85305545D01*
X56497037Y-85458784D01*
X56226758Y-85639378D01*
X56226743Y-85639389D01*
X55975474Y-85845601D01*
X55975454Y-85845619D01*
X55745619Y-86075454D01*
X55745601Y-86075474D01*
X55539389Y-86326743D01*
X55539378Y-86326758D01*
X55358784Y-86597037D01*
X55205545Y-86883727D01*
X55081143Y-87184062D01*
X54986777Y-87495144D01*
X54923364Y-87813950D01*
X54923361Y-87813972D01*
X54891500Y-88137457D01*
X50600500Y-88137457D01*
X50600500Y-76354230D01*
X71334500Y-76354230D01*
X71334500Y-76354233D01*
X71334500Y-76521767D01*
X71359551Y-76647710D01*
X71367185Y-76686085D01*
X71371233Y-76695857D01*
X71431297Y-76840863D01*
X71431298Y-76840864D01*
X71524373Y-76980161D01*
X71524378Y-76980167D01*
X71642832Y-77098621D01*
X71642838Y-77098626D01*
X71782137Y-77191703D01*
X71936918Y-77255816D01*
X72101233Y-77288500D01*
X72101234Y-77288500D01*
X72268766Y-77288500D01*
X72268767Y-77288500D01*
X72433082Y-77255816D01*
X72473988Y-77238872D01*
X72532383Y-77214684D01*
X72602972Y-77207094D01*
X72666460Y-77238872D01*
X72702688Y-77299930D01*
X72705950Y-77343898D01*
X72701500Y-77387455D01*
X72701500Y-78688544D01*
X72712112Y-78792425D01*
X72767885Y-78960738D01*
X72860970Y-79111652D01*
X72860975Y-79111658D01*
X72986341Y-79237024D01*
X72986347Y-79237029D01*
X72986348Y-79237030D01*
X73131157Y-79326349D01*
X73178634Y-79379134D01*
X73190037Y-79449209D01*
X73161745Y-79514324D01*
X73154105Y-79522684D01*
X73023794Y-79652995D01*
X72898108Y-79825987D01*
X72801029Y-80016515D01*
X72801026Y-80016521D01*
X72734952Y-80219878D01*
X72734951Y-80219883D01*
X72734951Y-80219884D01*
X72701500Y-80431084D01*
X72701500Y-80644916D01*
X72728516Y-80815485D01*
X72734952Y-80856121D01*
X72801026Y-81059478D01*
X72801028Y-81059483D01*
X72898106Y-81250009D01*
X73023794Y-81423004D01*
X73023796Y-81423006D01*
X73023798Y-81423009D01*
X73174990Y-81574201D01*
X73174993Y-81574203D01*
X73174996Y-81574206D01*
X73237974Y-81619962D01*
X73328955Y-81686064D01*
X73372309Y-81742286D01*
X73378384Y-81813023D01*
X73345252Y-81875814D01*
X73328955Y-81889936D01*
X73174993Y-82001796D01*
X73174990Y-82001798D01*
X73023798Y-82152990D01*
X73023796Y-82152993D01*
X72898108Y-82325987D01*
X72801029Y-82516515D01*
X72801026Y-82516521D01*
X72734952Y-82719878D01*
X72734951Y-82719883D01*
X72734951Y-82719884D01*
X72701500Y-82931084D01*
X72701500Y-83144916D01*
X72734951Y-83356116D01*
X72734952Y-83356121D01*
X72801026Y-83559478D01*
X72801028Y-83559483D01*
X72898106Y-83750009D01*
X73023794Y-83923004D01*
X73023796Y-83923006D01*
X73023798Y-83923009D01*
X73174990Y-84074201D01*
X73174993Y-84074203D01*
X73174996Y-84074206D01*
X73318879Y-84178743D01*
X73329381Y-84186373D01*
X73372735Y-84242595D01*
X73378810Y-84313331D01*
X73345679Y-84376123D01*
X73329382Y-84390245D01*
X73175316Y-84502181D01*
X73024177Y-84653320D01*
X72898536Y-84826249D01*
X72801493Y-85016707D01*
X72801490Y-85016713D01*
X72735440Y-85219995D01*
X72725302Y-85284000D01*
X73783164Y-85284000D01*
X73742370Y-85354657D01*
X73710000Y-85475465D01*
X73710000Y-85600535D01*
X73742370Y-85721343D01*
X73783164Y-85792000D01*
X72725302Y-85792000D01*
X72735440Y-85856004D01*
X72801490Y-86059286D01*
X72801493Y-86059292D01*
X72898536Y-86249750D01*
X73024177Y-86422679D01*
X73175320Y-86573822D01*
X73348249Y-86699463D01*
X73538707Y-86796506D01*
X73538713Y-86796509D01*
X73741996Y-86862559D01*
X73931000Y-86892495D01*
X73931000Y-85939836D01*
X74001657Y-85980630D01*
X74122465Y-86013000D01*
X74247535Y-86013000D01*
X74368343Y-85980630D01*
X74439000Y-85939836D01*
X74439000Y-86892495D01*
X74628003Y-86862559D01*
X74831286Y-86796509D01*
X74831292Y-86796506D01*
X75021750Y-86699463D01*
X75194679Y-86573822D01*
X75345822Y-86422679D01*
X75471463Y-86249750D01*
X75568506Y-86059292D01*
X75568509Y-86059286D01*
X75634559Y-85856004D01*
X75644698Y-85792000D01*
X74586836Y-85792000D01*
X74627630Y-85721343D01*
X74660000Y-85600535D01*
X74660000Y-85475465D01*
X74627630Y-85354657D01*
X74586836Y-85284000D01*
X75644697Y-85284000D01*
X75634559Y-85219995D01*
X75568509Y-85016713D01*
X75568506Y-85016707D01*
X75471463Y-84826249D01*
X75345822Y-84653320D01*
X75194679Y-84502177D01*
X75040618Y-84390245D01*
X74997264Y-84334022D01*
X74991189Y-84263286D01*
X75024321Y-84200495D01*
X75040612Y-84186377D01*
X75195004Y-84074206D01*
X75346206Y-83923004D01*
X75471894Y-83750009D01*
X75568972Y-83559483D01*
X75635049Y-83356116D01*
X75668500Y-83144916D01*
X75668500Y-82931084D01*
X75635049Y-82719884D01*
X75568972Y-82516517D01*
X75471894Y-82325991D01*
X75346206Y-82152996D01*
X75346203Y-82152993D01*
X75346201Y-82152990D01*
X75195009Y-82001798D01*
X75195006Y-82001796D01*
X75195004Y-82001794D01*
X75041043Y-81889935D01*
X74997690Y-81833714D01*
X74991615Y-81762978D01*
X75024746Y-81700186D01*
X75041044Y-81686064D01*
X75195004Y-81574206D01*
X75346206Y-81423004D01*
X75471894Y-81250009D01*
X75568972Y-81059483D01*
X75635049Y-80856116D01*
X75668500Y-80644916D01*
X75668500Y-80431084D01*
X75635049Y-80219884D01*
X75568972Y-80016517D01*
X75471894Y-79825991D01*
X75346206Y-79652996D01*
X75346203Y-79652993D01*
X75346201Y-79652990D01*
X75215895Y-79522684D01*
X75181869Y-79460372D01*
X75186934Y-79389557D01*
X75229481Y-79332721D01*
X75238831Y-79326356D01*
X75383652Y-79237030D01*
X75509030Y-79111652D01*
X75602115Y-78960738D01*
X75657887Y-78792426D01*
X75668500Y-78688545D01*
X75668499Y-77387456D01*
X75657887Y-77283574D01*
X75602115Y-77115262D01*
X75509030Y-76964348D01*
X75509029Y-76964347D01*
X75509024Y-76964341D01*
X75383658Y-76838975D01*
X75383652Y-76838970D01*
X75368127Y-76829394D01*
X75232738Y-76745885D01*
X75081761Y-76695857D01*
X75064427Y-76690113D01*
X75064420Y-76690112D01*
X74960553Y-76679500D01*
X73409455Y-76679500D01*
X73305573Y-76690113D01*
X73186025Y-76729726D01*
X73115070Y-76732166D01*
X73054060Y-76695857D01*
X73022365Y-76632328D01*
X73022813Y-76585544D01*
X73035500Y-76521767D01*
X73035500Y-76354233D01*
X73002816Y-76189918D01*
X72938703Y-76035137D01*
X72845626Y-75895838D01*
X72845621Y-75895832D01*
X72727167Y-75777378D01*
X72727161Y-75777373D01*
X72628262Y-75711291D01*
X72587863Y-75684297D01*
X72478420Y-75638964D01*
X72433085Y-75620185D01*
X72433083Y-75620184D01*
X72433082Y-75620184D01*
X72350368Y-75603731D01*
X72268769Y-75587500D01*
X72268767Y-75587500D01*
X72101233Y-75587500D01*
X72101230Y-75587500D01*
X71978830Y-75611847D01*
X71936918Y-75620184D01*
X71936917Y-75620184D01*
X71936914Y-75620185D01*
X71782135Y-75684298D01*
X71642838Y-75777373D01*
X71642832Y-75777378D01*
X71524378Y-75895832D01*
X71524373Y-75895838D01*
X71431298Y-76035135D01*
X71367185Y-76189914D01*
X71334500Y-76354230D01*
X50600500Y-76354230D01*
X50600500Y-68645750D01*
X93230300Y-68645750D01*
X93230300Y-70343049D01*
X93236809Y-70403596D01*
X93236811Y-70403604D01*
X93287910Y-70540602D01*
X93287912Y-70540607D01*
X93375538Y-70657661D01*
X93492592Y-70745287D01*
X93492594Y-70745288D01*
X93492596Y-70745289D01*
X93551675Y-70767324D01*
X93629595Y-70796388D01*
X93629603Y-70796390D01*
X93690150Y-70802899D01*
X93690155Y-70802899D01*
X93690162Y-70802900D01*
X93690168Y-70802900D01*
X95387432Y-70802900D01*
X95387438Y-70802900D01*
X95387445Y-70802899D01*
X95387449Y-70802899D01*
X95447996Y-70796390D01*
X95447999Y-70796389D01*
X95448001Y-70796389D01*
X95585004Y-70745289D01*
X95597301Y-70736084D01*
X95702061Y-70657661D01*
X95789687Y-70540607D01*
X95789687Y-70540606D01*
X95789689Y-70540604D01*
X95840789Y-70403601D01*
X95847300Y-70343038D01*
X95847300Y-70334211D01*
X95850924Y-70319917D01*
X95862969Y-70299540D01*
X95870838Y-70277215D01*
X95880698Y-70269550D01*
X95887053Y-70258801D01*
X95908204Y-70248170D01*
X95926893Y-70233644D01*
X95941427Y-70231472D01*
X95943616Y-70230372D01*
X96638800Y-69535188D01*
X96638800Y-69547061D01*
X96666059Y-69648794D01*
X96718720Y-69740006D01*
X96793194Y-69814480D01*
X96884406Y-69867141D01*
X96986139Y-69894400D01*
X96998010Y-69894400D01*
X96310426Y-70581982D01*
X96310426Y-70581983D01*
X96353254Y-70613099D01*
X96536700Y-70706570D01*
X96536706Y-70706573D01*
X96732505Y-70770191D01*
X96732501Y-70770191D01*
X96935861Y-70802400D01*
X97141739Y-70802400D01*
X97345096Y-70770191D01*
X97540893Y-70706573D01*
X97540899Y-70706570D01*
X97724341Y-70613101D01*
X97767172Y-70581982D01*
X97767172Y-70581981D01*
X97079591Y-69894400D01*
X97091461Y-69894400D01*
X97193194Y-69867141D01*
X97284406Y-69814480D01*
X97358880Y-69740006D01*
X97411541Y-69648794D01*
X97438800Y-69547061D01*
X97438800Y-69535191D01*
X98126381Y-70222772D01*
X98126382Y-70222772D01*
X98157501Y-70179941D01*
X98250970Y-69996499D01*
X98250973Y-69996493D01*
X98314591Y-69800696D01*
X98346800Y-69597338D01*
X98346800Y-69391461D01*
X98314591Y-69188103D01*
X98250973Y-68992306D01*
X98250970Y-68992300D01*
X98157499Y-68808854D01*
X98126383Y-68766026D01*
X98126382Y-68766026D01*
X97438800Y-69453608D01*
X97438800Y-69441739D01*
X97411541Y-69340006D01*
X97358880Y-69248794D01*
X97284406Y-69174320D01*
X97193194Y-69121659D01*
X97091461Y-69094400D01*
X97079590Y-69094400D01*
X97767172Y-68406816D01*
X97724341Y-68375698D01*
X97724340Y-68375697D01*
X97540899Y-68282229D01*
X97540893Y-68282226D01*
X97345094Y-68218608D01*
X97345098Y-68218608D01*
X97141739Y-68186400D01*
X96935861Y-68186400D01*
X96732503Y-68218608D01*
X96536706Y-68282226D01*
X96536700Y-68282229D01*
X96353252Y-68375701D01*
X96310425Y-68406816D01*
X96998009Y-69094400D01*
X96986139Y-69094400D01*
X96884406Y-69121659D01*
X96793194Y-69174320D01*
X96718720Y-69248794D01*
X96666059Y-69340006D01*
X96638800Y-69441739D01*
X96638800Y-69453609D01*
X95939616Y-68754425D01*
X95913465Y-68748931D01*
X95862906Y-68699089D01*
X95850924Y-68668880D01*
X95847300Y-68654585D01*
X95847300Y-68645762D01*
X95840789Y-68585199D01*
X95806194Y-68492447D01*
X95806193Y-68492443D01*
X95789689Y-68448197D01*
X95789687Y-68448192D01*
X95702061Y-68331138D01*
X95585007Y-68243512D01*
X95585002Y-68243510D01*
X95448004Y-68192411D01*
X95447996Y-68192409D01*
X95387449Y-68185900D01*
X95387438Y-68185900D01*
X93690162Y-68185900D01*
X93690150Y-68185900D01*
X93629603Y-68192409D01*
X93629595Y-68192411D01*
X93492597Y-68243510D01*
X93492592Y-68243512D01*
X93375538Y-68331138D01*
X93287912Y-68448192D01*
X93287910Y-68448197D01*
X93236811Y-68585195D01*
X93236809Y-68585203D01*
X93230300Y-68645750D01*
X50600500Y-68645750D01*
X50600500Y-57887457D01*
X54891500Y-57887457D01*
X54891500Y-58212542D01*
X54923361Y-58536027D01*
X54923364Y-58536049D01*
X54986777Y-58854855D01*
X54986780Y-58854866D01*
X54986781Y-58854869D01*
X55081145Y-59165944D01*
X55173913Y-59389905D01*
X55205545Y-59466272D01*
X55358784Y-59752962D01*
X55539378Y-60023241D01*
X55539389Y-60023256D01*
X55745601Y-60274525D01*
X55745619Y-60274545D01*
X55975454Y-60504380D01*
X55975474Y-60504398D01*
X56182310Y-60674145D01*
X56226752Y-60710617D01*
X56497040Y-60891217D01*
X56783728Y-61044455D01*
X57084056Y-61168855D01*
X57395131Y-61263219D01*
X57395140Y-61263220D01*
X57395144Y-61263222D01*
X57524365Y-61288925D01*
X57713957Y-61326637D01*
X58037464Y-61358500D01*
X58037473Y-61358500D01*
X58362527Y-61358500D01*
X58362536Y-61358500D01*
X58686043Y-61326637D01*
X58937696Y-61276580D01*
X59004855Y-61263222D01*
X59004857Y-61263221D01*
X59004869Y-61263219D01*
X59315944Y-61168855D01*
X59616272Y-61044455D01*
X59902960Y-60891217D01*
X60173248Y-60710617D01*
X60424532Y-60504393D01*
X60654393Y-60274532D01*
X60860617Y-60023248D01*
X61041217Y-59752960D01*
X61194455Y-59466272D01*
X61318855Y-59165944D01*
X61413219Y-58854869D01*
X61476637Y-58536043D01*
X61508500Y-58212536D01*
X61508500Y-57887464D01*
X61476637Y-57563957D01*
X61413219Y-57245131D01*
X61318855Y-56934056D01*
X61194455Y-56633728D01*
X61041217Y-56347040D01*
X60860617Y-56076752D01*
X60654393Y-55825468D01*
X60654389Y-55825464D01*
X60654380Y-55825454D01*
X60424545Y-55595619D01*
X60424525Y-55595601D01*
X60173256Y-55389389D01*
X60173241Y-55389378D01*
X59902962Y-55208784D01*
X59616272Y-55055545D01*
X59315944Y-54931145D01*
X59004869Y-54836781D01*
X59004866Y-54836780D01*
X59004855Y-54836777D01*
X58686049Y-54773364D01*
X58686045Y-54773363D01*
X58686043Y-54773363D01*
X58686038Y-54773362D01*
X58686027Y-54773361D01*
X58362542Y-54741500D01*
X58362536Y-54741500D01*
X58037464Y-54741500D01*
X58037457Y-54741500D01*
X57713972Y-54773361D01*
X57713950Y-54773364D01*
X57395144Y-54836777D01*
X57084062Y-54931143D01*
X57084060Y-54931143D01*
X57084056Y-54931145D01*
X56922029Y-54998258D01*
X56783727Y-55055545D01*
X56497037Y-55208784D01*
X56226758Y-55389378D01*
X56226743Y-55389389D01*
X55975474Y-55595601D01*
X55975454Y-55595619D01*
X55745619Y-55825454D01*
X55745601Y-55825474D01*
X55539389Y-56076743D01*
X55539378Y-56076758D01*
X55358784Y-56347037D01*
X55205545Y-56633727D01*
X55081143Y-56934062D01*
X54986777Y-57245144D01*
X54923364Y-57563950D01*
X54923361Y-57563972D01*
X54891500Y-57887457D01*
X50600500Y-57887457D01*
X50600500Y-51426500D01*
X50620502Y-51358379D01*
X50674158Y-51311886D01*
X50726500Y-51300500D01*
X60300207Y-51300500D01*
X60300500Y-51300207D01*
X60300500Y-37776350D01*
X72041500Y-37776350D01*
X72041500Y-39573649D01*
X72048009Y-39634196D01*
X72048011Y-39634204D01*
X72099110Y-39771202D01*
X72099112Y-39771207D01*
X72186738Y-39888261D01*
X72303792Y-39975887D01*
X72303796Y-39975889D01*
X72422224Y-40020061D01*
X72479059Y-40062607D01*
X72503870Y-40129128D01*
X72488778Y-40198502D01*
X72467287Y-40227211D01*
X72364176Y-40330322D01*
X72238536Y-40503249D01*
X72141493Y-40693707D01*
X72141490Y-40693713D01*
X72075440Y-40896995D01*
X72065302Y-40961000D01*
X72969297Y-40961000D01*
X72934075Y-41022007D01*
X72900000Y-41149174D01*
X72900000Y-41280826D01*
X72934075Y-41407993D01*
X72969297Y-41469000D01*
X72065302Y-41469000D01*
X72075440Y-41533004D01*
X72141490Y-41736286D01*
X72141493Y-41736292D01*
X72238536Y-41926750D01*
X72364177Y-42099679D01*
X72515320Y-42250822D01*
X72688244Y-42376460D01*
X72689560Y-42377266D01*
X72689955Y-42377703D01*
X72692258Y-42379376D01*
X72691906Y-42379859D01*
X72737196Y-42429910D01*
X72748809Y-42499950D01*
X72720712Y-42565150D01*
X72691925Y-42590098D01*
X72691996Y-42590196D01*
X72690862Y-42591019D01*
X72689580Y-42592131D01*
X72687998Y-42593100D01*
X72514993Y-42718796D01*
X72514990Y-42718798D01*
X72363798Y-42869990D01*
X72363796Y-42869993D01*
X72238108Y-43042987D01*
X72141029Y-43233515D01*
X72141026Y-43233521D01*
X72074952Y-43436878D01*
X72074951Y-43436883D01*
X72074951Y-43436884D01*
X72041500Y-43648084D01*
X72041500Y-43861916D01*
X72074951Y-44073116D01*
X72074952Y-44073121D01*
X72141026Y-44276478D01*
X72141028Y-44276483D01*
X72238106Y-44467009D01*
X72363794Y-44640004D01*
X72363796Y-44640006D01*
X72363798Y-44640009D01*
X72514990Y-44791201D01*
X72514993Y-44791203D01*
X72514996Y-44791206D01*
X72687991Y-44916894D01*
X72687996Y-44916896D01*
X72689088Y-44917566D01*
X72689418Y-44917931D01*
X72691996Y-44919804D01*
X72691602Y-44920345D01*
X72736721Y-44970213D01*
X72748328Y-45040255D01*
X72720226Y-45105453D01*
X72691870Y-45130023D01*
X72691996Y-45130196D01*
X72689982Y-45131658D01*
X72689088Y-45132434D01*
X72687987Y-45133108D01*
X72514993Y-45258796D01*
X72514990Y-45258798D01*
X72363798Y-45409990D01*
X72363796Y-45409993D01*
X72238108Y-45582987D01*
X72141029Y-45773515D01*
X72141026Y-45773521D01*
X72074952Y-45976878D01*
X72074951Y-45976883D01*
X72074951Y-45976884D01*
X72041500Y-46188084D01*
X72041500Y-46401916D01*
X72062246Y-46532898D01*
X72074952Y-46613121D01*
X72098012Y-46684093D01*
X72141028Y-46816483D01*
X72238106Y-47007009D01*
X72363794Y-47180004D01*
X72363796Y-47180006D01*
X72363798Y-47180009D01*
X72514990Y-47331201D01*
X72514993Y-47331203D01*
X72514996Y-47331206D01*
X72687991Y-47456894D01*
X72687996Y-47456896D01*
X72689088Y-47457566D01*
X72689418Y-47457931D01*
X72691996Y-47459804D01*
X72691602Y-47460345D01*
X72736721Y-47510213D01*
X72748328Y-47580255D01*
X72720226Y-47645453D01*
X72691870Y-47670023D01*
X72691996Y-47670196D01*
X72689982Y-47671658D01*
X72689088Y-47672434D01*
X72687987Y-47673108D01*
X72514993Y-47798796D01*
X72514990Y-47798798D01*
X72363798Y-47949990D01*
X72363796Y-47949993D01*
X72238108Y-48122987D01*
X72141029Y-48313515D01*
X72141026Y-48313521D01*
X72074952Y-48516878D01*
X72074951Y-48516883D01*
X72074951Y-48516884D01*
X72041500Y-48728084D01*
X72041500Y-48941916D01*
X72070985Y-49128073D01*
X72074952Y-49153121D01*
X72141026Y-49356478D01*
X72141028Y-49356483D01*
X72238106Y-49547009D01*
X72363794Y-49720004D01*
X72363796Y-49720006D01*
X72363798Y-49720009D01*
X72514990Y-49871201D01*
X72514993Y-49871203D01*
X72514996Y-49871206D01*
X72687991Y-49996894D01*
X72687996Y-49996896D01*
X72689088Y-49997566D01*
X72689418Y-49997931D01*
X72691996Y-49999804D01*
X72691602Y-50000345D01*
X72736721Y-50050213D01*
X72748328Y-50120255D01*
X72720226Y-50185453D01*
X72691870Y-50210023D01*
X72691996Y-50210196D01*
X72689982Y-50211658D01*
X72689088Y-50212434D01*
X72687987Y-50213108D01*
X72514993Y-50338796D01*
X72514990Y-50338798D01*
X72363798Y-50489990D01*
X72363796Y-50489993D01*
X72238108Y-50662987D01*
X72141029Y-50853515D01*
X72141026Y-50853521D01*
X72074952Y-51056878D01*
X72074951Y-51056883D01*
X72074951Y-51056884D01*
X72041500Y-51268084D01*
X72041500Y-51481916D01*
X72073670Y-51685025D01*
X72074952Y-51693121D01*
X72132428Y-51870015D01*
X72141028Y-51896483D01*
X72238106Y-52087009D01*
X72363794Y-52260004D01*
X72363796Y-52260006D01*
X72363798Y-52260009D01*
X72514990Y-52411201D01*
X72514993Y-52411203D01*
X72514996Y-52411206D01*
X72687991Y-52536894D01*
X72687996Y-52536896D01*
X72689088Y-52537566D01*
X72689418Y-52537931D01*
X72691996Y-52539804D01*
X72691602Y-52540345D01*
X72736721Y-52590213D01*
X72748328Y-52660255D01*
X72720226Y-52725453D01*
X72691870Y-52750023D01*
X72691996Y-52750196D01*
X72689982Y-52751658D01*
X72689088Y-52752434D01*
X72687987Y-52753108D01*
X72514993Y-52878796D01*
X72514990Y-52878798D01*
X72363798Y-53029990D01*
X72363796Y-53029993D01*
X72238108Y-53202987D01*
X72141029Y-53393515D01*
X72141026Y-53393521D01*
X72074952Y-53596878D01*
X72074951Y-53596883D01*
X72074951Y-53596884D01*
X72041500Y-53808084D01*
X72041500Y-54021916D01*
X72074951Y-54233116D01*
X72074952Y-54233121D01*
X72141026Y-54436478D01*
X72141028Y-54436483D01*
X72238106Y-54627009D01*
X72363794Y-54800004D01*
X72363796Y-54800006D01*
X72363798Y-54800009D01*
X72514990Y-54951201D01*
X72514993Y-54951203D01*
X72514996Y-54951206D01*
X72687991Y-55076894D01*
X72878517Y-55173972D01*
X73081878Y-55240047D01*
X73081879Y-55240047D01*
X73081884Y-55240049D01*
X73293084Y-55273500D01*
X73293087Y-55273500D01*
X73506913Y-55273500D01*
X73506916Y-55273500D01*
X73718116Y-55240049D01*
X73921483Y-55173972D01*
X74112009Y-55076894D01*
X74285004Y-54951206D01*
X74436206Y-54800004D01*
X74561894Y-54627009D01*
X74658972Y-54436483D01*
X74725049Y-54233116D01*
X74758500Y-54021916D01*
X74758500Y-53808084D01*
X74725049Y-53596884D01*
X74658972Y-53393517D01*
X74561894Y-53202991D01*
X74436206Y-53029996D01*
X74436203Y-53029993D01*
X74436201Y-53029990D01*
X74285009Y-52878798D01*
X74285006Y-52878796D01*
X74285004Y-52878794D01*
X74112009Y-52753106D01*
X74112007Y-52753105D01*
X74110920Y-52752439D01*
X74110591Y-52752075D01*
X74108004Y-52750196D01*
X74108398Y-52749652D01*
X74063283Y-52699796D01*
X74051670Y-52629756D01*
X74079766Y-52564555D01*
X74108130Y-52539978D01*
X74108004Y-52539804D01*
X74110030Y-52538331D01*
X74110920Y-52537561D01*
X74111997Y-52536899D01*
X74112009Y-52536894D01*
X74285004Y-52411206D01*
X74436206Y-52260004D01*
X74561894Y-52087009D01*
X74658972Y-51896483D01*
X74725049Y-51693116D01*
X74758500Y-51481916D01*
X74758500Y-51268084D01*
X74725049Y-51056884D01*
X74658972Y-50853517D01*
X74561894Y-50662991D01*
X74436206Y-50489996D01*
X74436203Y-50489993D01*
X74436201Y-50489990D01*
X74285009Y-50338798D01*
X74285006Y-50338796D01*
X74285004Y-50338794D01*
X74112009Y-50213106D01*
X74112007Y-50213105D01*
X74110920Y-50212439D01*
X74110591Y-50212075D01*
X74108004Y-50210196D01*
X74108398Y-50209652D01*
X74063283Y-50159796D01*
X74051670Y-50089756D01*
X74079766Y-50024555D01*
X74108130Y-49999978D01*
X74108004Y-49999804D01*
X74110030Y-49998331D01*
X74110920Y-49997561D01*
X74111997Y-49996899D01*
X74112009Y-49996894D01*
X74285004Y-49871206D01*
X74436206Y-49720004D01*
X74561894Y-49547009D01*
X74658972Y-49356483D01*
X74725049Y-49153116D01*
X74758500Y-48941916D01*
X74758500Y-48728084D01*
X74725049Y-48516884D01*
X74658972Y-48313517D01*
X74561894Y-48122991D01*
X74436206Y-47949996D01*
X74436203Y-47949993D01*
X74436201Y-47949990D01*
X74285009Y-47798798D01*
X74285006Y-47798796D01*
X74285004Y-47798794D01*
X74112009Y-47673106D01*
X74112007Y-47673105D01*
X74110920Y-47672439D01*
X74110591Y-47672075D01*
X74108004Y-47670196D01*
X74108398Y-47669652D01*
X74088217Y-47647351D01*
X74064837Y-47622903D01*
X74064493Y-47621133D01*
X74063283Y-47619796D01*
X74057749Y-47586420D01*
X74051297Y-47553210D01*
X74051964Y-47551534D01*
X74051670Y-47549756D01*
X74065057Y-47518687D01*
X74077585Y-47487260D01*
X74079233Y-47485791D01*
X74079766Y-47484555D01*
X74103504Y-47462472D01*
X74109580Y-47458131D01*
X74112009Y-47456894D01*
X74152804Y-47427254D01*
X74153200Y-47426972D01*
X74186288Y-47415465D01*
X74219247Y-47403705D01*
X74220181Y-47403678D01*
X74220257Y-47403652D01*
X74220346Y-47403673D01*
X74226440Y-47403500D01*
X78016254Y-47403500D01*
X78084375Y-47423502D01*
X78105349Y-47440405D01*
X113171455Y-82506512D01*
X113171458Y-82506514D01*
X113171461Y-82506517D01*
X113312619Y-82609074D01*
X113468083Y-82688288D01*
X113634026Y-82742205D01*
X113806359Y-82769500D01*
X113980842Y-82769500D01*
X117100811Y-82769500D01*
X117168932Y-82789502D01*
X117215425Y-82843158D01*
X117225529Y-82913432D01*
X117196035Y-82978012D01*
X117189906Y-82984595D01*
X117131936Y-83042564D01*
X117131934Y-83042567D01*
X117010873Y-83209193D01*
X116917367Y-83392708D01*
X116917364Y-83392714D01*
X116853721Y-83588587D01*
X116853720Y-83588590D01*
X116853720Y-83588592D01*
X116821500Y-83792019D01*
X116821500Y-84797981D01*
X116848020Y-84965420D01*
X116853721Y-85001412D01*
X116912119Y-85181143D01*
X116917366Y-85197290D01*
X117010871Y-85380803D01*
X117131932Y-85547430D01*
X117131934Y-85547432D01*
X117131936Y-85547435D01*
X117277564Y-85693063D01*
X117277567Y-85693065D01*
X117277570Y-85693068D01*
X117444197Y-85814129D01*
X117627710Y-85907634D01*
X117823592Y-85971280D01*
X118027019Y-86003500D01*
X118027022Y-86003500D01*
X118232978Y-86003500D01*
X118232981Y-86003500D01*
X118436408Y-85971280D01*
X118632290Y-85907634D01*
X118815803Y-85814129D01*
X118982430Y-85693068D01*
X119128068Y-85547430D01*
X119249129Y-85380803D01*
X119287734Y-85305034D01*
X119336481Y-85253422D01*
X119405396Y-85236356D01*
X119472598Y-85259257D01*
X119512264Y-85305034D01*
X119550871Y-85380803D01*
X119671932Y-85547430D01*
X119671934Y-85547432D01*
X119671936Y-85547435D01*
X119817564Y-85693063D01*
X119817567Y-85693065D01*
X119817570Y-85693068D01*
X119984197Y-85814129D01*
X120167710Y-85907634D01*
X120363592Y-85971280D01*
X120567019Y-86003500D01*
X120567022Y-86003500D01*
X120772978Y-86003500D01*
X120772981Y-86003500D01*
X120976408Y-85971280D01*
X121172290Y-85907634D01*
X121355803Y-85814129D01*
X121522430Y-85693068D01*
X121668068Y-85547430D01*
X121789129Y-85380803D01*
X121827734Y-85305034D01*
X121876481Y-85253422D01*
X121945396Y-85236356D01*
X122012598Y-85259257D01*
X122052264Y-85305034D01*
X122090871Y-85380803D01*
X122211932Y-85547430D01*
X122211934Y-85547432D01*
X122211936Y-85547435D01*
X122357564Y-85693063D01*
X122357567Y-85693065D01*
X122357570Y-85693068D01*
X122524197Y-85814129D01*
X122707710Y-85907634D01*
X122903592Y-85971280D01*
X123107019Y-86003500D01*
X123107022Y-86003500D01*
X123312978Y-86003500D01*
X123312981Y-86003500D01*
X123516408Y-85971280D01*
X123712290Y-85907634D01*
X123895803Y-85814129D01*
X124062430Y-85693068D01*
X124208068Y-85547430D01*
X124329129Y-85380803D01*
X124367734Y-85305034D01*
X124416481Y-85253422D01*
X124485396Y-85236356D01*
X124552598Y-85259257D01*
X124592264Y-85305034D01*
X124630871Y-85380803D01*
X124751932Y-85547430D01*
X124751934Y-85547432D01*
X124751936Y-85547435D01*
X124897564Y-85693063D01*
X124897567Y-85693065D01*
X124897570Y-85693068D01*
X125064197Y-85814129D01*
X125247710Y-85907634D01*
X125443592Y-85971280D01*
X125647019Y-86003500D01*
X125647022Y-86003500D01*
X125852978Y-86003500D01*
X125852981Y-86003500D01*
X126056408Y-85971280D01*
X126252290Y-85907634D01*
X126435803Y-85814129D01*
X126602430Y-85693068D01*
X126748068Y-85547430D01*
X126869129Y-85380803D01*
X126962634Y-85197290D01*
X127026280Y-85001408D01*
X127058500Y-84797981D01*
X127058500Y-83792019D01*
X127026280Y-83588592D01*
X126962634Y-83392710D01*
X126869129Y-83209197D01*
X126748068Y-83042570D01*
X126748065Y-83042567D01*
X126748063Y-83042564D01*
X126690094Y-82984595D01*
X126656068Y-82922283D01*
X126661133Y-82851468D01*
X126703680Y-82794632D01*
X126770200Y-82769821D01*
X126779189Y-82769500D01*
X135849654Y-82769500D01*
X135917775Y-82789502D01*
X135938749Y-82806405D01*
X139527855Y-86395512D01*
X139527858Y-86395514D01*
X139527861Y-86395517D01*
X139669019Y-86498074D01*
X139824483Y-86577288D01*
X139990426Y-86631205D01*
X140162759Y-86658501D01*
X140162762Y-86658501D01*
X140342435Y-86658501D01*
X140342459Y-86658500D01*
X153137238Y-86658500D01*
X153137241Y-86658500D01*
X153309574Y-86631205D01*
X153475517Y-86577288D01*
X153630981Y-86498074D01*
X153772139Y-86395517D01*
X157361251Y-82806405D01*
X157423563Y-82772379D01*
X157450346Y-82769500D01*
X173518438Y-82769500D01*
X173518441Y-82769500D01*
X173690774Y-82742205D01*
X173856717Y-82688288D01*
X174012181Y-82609074D01*
X174153339Y-82506517D01*
X180820717Y-75839139D01*
X180923274Y-75697981D01*
X181002488Y-75542517D01*
X181056405Y-75376574D01*
X181083701Y-75204241D01*
X181083701Y-75029758D01*
X181083701Y-75025301D01*
X181083700Y-75025271D01*
X181083700Y-72130639D01*
X181103702Y-72062518D01*
X181107752Y-72056593D01*
X181137094Y-72016209D01*
X181234172Y-71825683D01*
X181300249Y-71622316D01*
X181333700Y-71411116D01*
X181333700Y-70947284D01*
X181300249Y-70736084D01*
X181234172Y-70532717D01*
X181137094Y-70342191D01*
X181011406Y-70169196D01*
X181011403Y-70169193D01*
X181011401Y-70169190D01*
X180860209Y-70017998D01*
X180860206Y-70017996D01*
X180860204Y-70017994D01*
X180687209Y-69892306D01*
X180496683Y-69795228D01*
X180496680Y-69795227D01*
X180496678Y-69795226D01*
X180293320Y-69729152D01*
X180293323Y-69729152D01*
X180232395Y-69719502D01*
X180082116Y-69695700D01*
X179868284Y-69695700D01*
X179657084Y-69729151D01*
X179657078Y-69729152D01*
X179453721Y-69795226D01*
X179453715Y-69795229D01*
X179263187Y-69892308D01*
X179090193Y-70017996D01*
X179090190Y-70017998D01*
X178938998Y-70169190D01*
X178938996Y-70169193D01*
X178827136Y-70323155D01*
X178770914Y-70366509D01*
X178700177Y-70372584D01*
X178637386Y-70339452D01*
X178623264Y-70323155D01*
X178521267Y-70182769D01*
X178511406Y-70169196D01*
X178511403Y-70169193D01*
X178511401Y-70169190D01*
X178360209Y-70017998D01*
X178360206Y-70017996D01*
X178360204Y-70017994D01*
X178187209Y-69892306D01*
X177996683Y-69795228D01*
X177996680Y-69795227D01*
X177996678Y-69795226D01*
X177793320Y-69729152D01*
X177793323Y-69729152D01*
X177732395Y-69719502D01*
X177582116Y-69695700D01*
X177368284Y-69695700D01*
X177157084Y-69729151D01*
X177157078Y-69729152D01*
X176953721Y-69795226D01*
X176953715Y-69795229D01*
X176763187Y-69892308D01*
X176590193Y-70017996D01*
X176590190Y-70017998D01*
X176438995Y-70169193D01*
X176326826Y-70323581D01*
X176270603Y-70366935D01*
X176199867Y-70373010D01*
X176137076Y-70339878D01*
X176122954Y-70323581D01*
X176011021Y-70169520D01*
X176011019Y-70169517D01*
X175859879Y-70018377D01*
X175686950Y-69892736D01*
X175496492Y-69795693D01*
X175496486Y-69795690D01*
X175293204Y-69729640D01*
X175229200Y-69719502D01*
X175229200Y-70777363D01*
X175158543Y-70736570D01*
X175037735Y-70704200D01*
X174912665Y-70704200D01*
X174791857Y-70736570D01*
X174721200Y-70777363D01*
X174721200Y-69719502D01*
X174657195Y-69729640D01*
X174453913Y-69795690D01*
X174453907Y-69795693D01*
X174263449Y-69892736D01*
X174090522Y-70018376D01*
X173960154Y-70148744D01*
X173897842Y-70182769D01*
X173827026Y-70177704D01*
X173770191Y-70135157D01*
X173763827Y-70125808D01*
X173674230Y-69980548D01*
X173674227Y-69980545D01*
X173674224Y-69980541D01*
X173548858Y-69855175D01*
X173548852Y-69855170D01*
X173546323Y-69853610D01*
X173397938Y-69762085D01*
X173269429Y-69719502D01*
X173229627Y-69706313D01*
X173229620Y-69706312D01*
X173125753Y-69695700D01*
X171824655Y-69695700D01*
X171720774Y-69706312D01*
X171552461Y-69762085D01*
X171401547Y-69855170D01*
X171401541Y-69855175D01*
X171276175Y-69980541D01*
X171276170Y-69980547D01*
X171183085Y-70131462D01*
X171127313Y-70299772D01*
X171127312Y-70299779D01*
X171116700Y-70403646D01*
X171116700Y-71954744D01*
X171127313Y-72058626D01*
X171166926Y-72178174D01*
X171169366Y-72249129D01*
X171133057Y-72310139D01*
X171069528Y-72341834D01*
X171022739Y-72341385D01*
X170958969Y-72328700D01*
X170958967Y-72328700D01*
X170791433Y-72328700D01*
X170791430Y-72328700D01*
X170687793Y-72349315D01*
X170627118Y-72361384D01*
X170627117Y-72361384D01*
X170627114Y-72361385D01*
X170472335Y-72425498D01*
X170333038Y-72518573D01*
X170333032Y-72518578D01*
X170214578Y-72637032D01*
X170214573Y-72637038D01*
X170121498Y-72776335D01*
X170057385Y-72931114D01*
X170024700Y-73095430D01*
X170024700Y-73095433D01*
X170024700Y-73262967D01*
X170055583Y-73418230D01*
X170057385Y-73427285D01*
X170067324Y-73451280D01*
X170121497Y-73582063D01*
X170121498Y-73582064D01*
X170214573Y-73721361D01*
X170214578Y-73721367D01*
X170333032Y-73839821D01*
X170333038Y-73839826D01*
X170472337Y-73932903D01*
X170627118Y-73997016D01*
X170791433Y-74029700D01*
X170791434Y-74029700D01*
X170958966Y-74029700D01*
X170958967Y-74029700D01*
X171123282Y-73997016D01*
X171278063Y-73932903D01*
X171417362Y-73839826D01*
X171535826Y-73721362D01*
X171628903Y-73582063D01*
X171693016Y-73427282D01*
X171725700Y-73262967D01*
X171725700Y-73095433D01*
X171693016Y-72931118D01*
X171693013Y-72931110D01*
X171651884Y-72831816D01*
X171644294Y-72761226D01*
X171676073Y-72697739D01*
X171737131Y-72661511D01*
X171781099Y-72658250D01*
X171824655Y-72662700D01*
X173125744Y-72662699D01*
X173229626Y-72652087D01*
X173397938Y-72596315D01*
X173548852Y-72503230D01*
X173674230Y-72377852D01*
X173763821Y-72232601D01*
X173816603Y-72185126D01*
X173886678Y-72173723D01*
X173951794Y-72202015D01*
X173960154Y-72209656D01*
X174090520Y-72340022D01*
X174263449Y-72465663D01*
X174453907Y-72562706D01*
X174453913Y-72562709D01*
X174657198Y-72628760D01*
X174721200Y-72638896D01*
X174721200Y-71581036D01*
X174791857Y-71621830D01*
X174912665Y-71654200D01*
X175037735Y-71654200D01*
X175158543Y-71621830D01*
X175229200Y-71581036D01*
X175229200Y-72638896D01*
X175293201Y-72628760D01*
X175496486Y-72562709D01*
X175496492Y-72562706D01*
X175686950Y-72465663D01*
X175859879Y-72340022D01*
X176011019Y-72188882D01*
X176011021Y-72188879D01*
X176122954Y-72034818D01*
X176145587Y-72017364D01*
X176166088Y-71997441D01*
X176173327Y-71995974D01*
X176179176Y-71991464D01*
X176207654Y-71989018D01*
X176235671Y-71983341D01*
X176242554Y-71986020D01*
X176249912Y-71985389D01*
X176275190Y-71998726D01*
X176301830Y-72009098D01*
X176309179Y-72016660D01*
X176312704Y-72018520D01*
X176326825Y-72034817D01*
X176342635Y-72056577D01*
X176366494Y-72123444D01*
X176366700Y-72130639D01*
X176366700Y-73117854D01*
X176346698Y-73185975D01*
X176329795Y-73206949D01*
X171332549Y-78204195D01*
X171270237Y-78238221D01*
X171243454Y-78241100D01*
X148335946Y-78241100D01*
X148267825Y-78221098D01*
X148246851Y-78204195D01*
X146872144Y-76829487D01*
X146872141Y-76829485D01*
X146872139Y-76829483D01*
X146757076Y-76745885D01*
X146730983Y-76726927D01*
X146725165Y-76723963D01*
X146575517Y-76647712D01*
X146575514Y-76647711D01*
X146575512Y-76647710D01*
X146409577Y-76593796D01*
X146409574Y-76593795D01*
X146237241Y-76566500D01*
X139337241Y-76566500D01*
X139162759Y-76566500D01*
X138990426Y-76593795D01*
X138990423Y-76593795D01*
X138990422Y-76593796D01*
X138824487Y-76647710D01*
X138824481Y-76647713D01*
X138669016Y-76726927D01*
X138527858Y-76829485D01*
X138527855Y-76829487D01*
X137153149Y-78204195D01*
X137090837Y-78238220D01*
X137064054Y-78241100D01*
X127137645Y-78241100D01*
X127069524Y-78221098D01*
X127023031Y-78167442D01*
X127012927Y-78097168D01*
X127019589Y-78071067D01*
X127033941Y-78032588D01*
X127051989Y-77984201D01*
X127058093Y-77927430D01*
X127058499Y-77923649D01*
X127058500Y-77923632D01*
X127058500Y-75426367D01*
X127058499Y-75426350D01*
X127051990Y-75365803D01*
X127051988Y-75365795D01*
X127000889Y-75228797D01*
X127000887Y-75228792D01*
X126913261Y-75111738D01*
X126796207Y-75024112D01*
X126796202Y-75024110D01*
X126659204Y-74973011D01*
X126659196Y-74973009D01*
X126598649Y-74966500D01*
X126598638Y-74966500D01*
X124901362Y-74966500D01*
X124901350Y-74966500D01*
X124840803Y-74973009D01*
X124840795Y-74973011D01*
X124703797Y-75024110D01*
X124703792Y-75024112D01*
X124586738Y-75111738D01*
X124499112Y-75228792D01*
X124499110Y-75228797D01*
X124448011Y-75365795D01*
X124448010Y-75365801D01*
X124446727Y-75377735D01*
X124419555Y-75443326D01*
X124361236Y-75483815D01*
X124290285Y-75486347D01*
X124229228Y-75450118D01*
X124219513Y-75438323D01*
X124208068Y-75422570D01*
X124208065Y-75422567D01*
X124208063Y-75422564D01*
X124062435Y-75276936D01*
X124062432Y-75276934D01*
X124062430Y-75276932D01*
X123936999Y-75185802D01*
X123895806Y-75155873D01*
X123895805Y-75155872D01*
X123895803Y-75155871D01*
X123712290Y-75062366D01*
X123712287Y-75062365D01*
X123712285Y-75062364D01*
X123516412Y-74998721D01*
X123516410Y-74998720D01*
X123516408Y-74998720D01*
X123312981Y-74966500D01*
X123107019Y-74966500D01*
X122903592Y-74998720D01*
X122903590Y-74998720D01*
X122903587Y-74998721D01*
X122707714Y-75062364D01*
X122707708Y-75062367D01*
X122524193Y-75155873D01*
X122357567Y-75276934D01*
X122357564Y-75276936D01*
X122211936Y-75422564D01*
X122211934Y-75422567D01*
X122090873Y-75589193D01*
X122052267Y-75664962D01*
X122003518Y-75716577D01*
X121934603Y-75733643D01*
X121867402Y-75710742D01*
X121827733Y-75664962D01*
X121804918Y-75620185D01*
X121789129Y-75589197D01*
X121668068Y-75422570D01*
X121668065Y-75422567D01*
X121668063Y-75422564D01*
X121522435Y-75276936D01*
X121522432Y-75276934D01*
X121522430Y-75276932D01*
X121396999Y-75185802D01*
X121355806Y-75155873D01*
X121355805Y-75155872D01*
X121355803Y-75155871D01*
X121172290Y-75062366D01*
X121172287Y-75062365D01*
X121172285Y-75062364D01*
X120976412Y-74998721D01*
X120976410Y-74998720D01*
X120976408Y-74998720D01*
X120772981Y-74966500D01*
X120567019Y-74966500D01*
X120363592Y-74998720D01*
X120363590Y-74998720D01*
X120363587Y-74998721D01*
X120167714Y-75062364D01*
X120167708Y-75062367D01*
X119984193Y-75155873D01*
X119817567Y-75276934D01*
X119817564Y-75276936D01*
X119671936Y-75422564D01*
X119671934Y-75422567D01*
X119550872Y-75589193D01*
X119511987Y-75665511D01*
X119463238Y-75717126D01*
X119394323Y-75734192D01*
X119327122Y-75711291D01*
X119287453Y-75665511D01*
X119248700Y-75589455D01*
X119127684Y-75422892D01*
X119127682Y-75422889D01*
X118982110Y-75277317D01*
X118982107Y-75277315D01*
X118815545Y-75156300D01*
X118632099Y-75062829D01*
X118632093Y-75062826D01*
X118436294Y-74999208D01*
X118436296Y-74999208D01*
X118384000Y-74990925D01*
X118384000Y-76363314D01*
X118375606Y-76354920D01*
X118284394Y-76302259D01*
X118182661Y-76275000D01*
X118077339Y-76275000D01*
X117975606Y-76302259D01*
X117884394Y-76354920D01*
X117876000Y-76363314D01*
X117876000Y-74990925D01*
X117823704Y-74999208D01*
X117627906Y-75062826D01*
X117627900Y-75062829D01*
X117444454Y-75156300D01*
X117277892Y-75277315D01*
X117277889Y-75277317D01*
X117132317Y-75422889D01*
X117132315Y-75422892D01*
X117011300Y-75589454D01*
X116917829Y-75772900D01*
X116917826Y-75772906D01*
X116854208Y-75968703D01*
X116822000Y-76172061D01*
X116822000Y-76421000D01*
X117818314Y-76421000D01*
X117809920Y-76429394D01*
X117757259Y-76520606D01*
X117730000Y-76622339D01*
X117730000Y-76727661D01*
X117757259Y-76829394D01*
X117809920Y-76920606D01*
X117818314Y-76929000D01*
X116822000Y-76929000D01*
X116822000Y-77177938D01*
X116854208Y-77381296D01*
X116917826Y-77577093D01*
X116917829Y-77577099D01*
X117011300Y-77760545D01*
X117132315Y-77927107D01*
X117132317Y-77927110D01*
X117231212Y-78026005D01*
X117265238Y-78088317D01*
X117260173Y-78159132D01*
X117217626Y-78215968D01*
X117151106Y-78240779D01*
X117142117Y-78241100D01*
X116030546Y-78241100D01*
X115962425Y-78221098D01*
X115941451Y-78204195D01*
X109809317Y-72072061D01*
X115012000Y-72072061D01*
X115012000Y-72277938D01*
X115044208Y-72481296D01*
X115107826Y-72677093D01*
X115107829Y-72677099D01*
X115201297Y-72860540D01*
X115201298Y-72860541D01*
X115232416Y-72903372D01*
X115920000Y-72215788D01*
X115920000Y-72227661D01*
X115947259Y-72329394D01*
X115999920Y-72420606D01*
X116074394Y-72495080D01*
X116165606Y-72547741D01*
X116267339Y-72575000D01*
X116279210Y-72575000D01*
X115591626Y-73262582D01*
X115591626Y-73262583D01*
X115634454Y-73293699D01*
X115817900Y-73387170D01*
X115817906Y-73387173D01*
X116013705Y-73450791D01*
X116013701Y-73450791D01*
X116217061Y-73483000D01*
X116422939Y-73483000D01*
X116626296Y-73450791D01*
X116822093Y-73387173D01*
X116822099Y-73387170D01*
X117005541Y-73293701D01*
X117048372Y-73262582D01*
X117048372Y-73262581D01*
X116360791Y-72575000D01*
X116372661Y-72575000D01*
X116474394Y-72547741D01*
X116565606Y-72495080D01*
X116640080Y-72420606D01*
X116692741Y-72329394D01*
X116720000Y-72227661D01*
X116720000Y-72215791D01*
X117407581Y-72903372D01*
X117407582Y-72903372D01*
X117438701Y-72860541D01*
X117532170Y-72677099D01*
X117532173Y-72677093D01*
X117595791Y-72481296D01*
X117628000Y-72277938D01*
X117628000Y-72072061D01*
X117627993Y-72072019D01*
X125171500Y-72072019D01*
X125171500Y-72277981D01*
X125203720Y-72481408D01*
X125203721Y-72481412D01*
X125261179Y-72658250D01*
X125267366Y-72677290D01*
X125360871Y-72860803D01*
X125481932Y-73027430D01*
X125481934Y-73027432D01*
X125481936Y-73027435D01*
X125627564Y-73173063D01*
X125627567Y-73173065D01*
X125627570Y-73173068D01*
X125794197Y-73294129D01*
X125977710Y-73387634D01*
X126173592Y-73451280D01*
X126377019Y-73483500D01*
X126377022Y-73483500D01*
X126582978Y-73483500D01*
X126582981Y-73483500D01*
X126786408Y-73451280D01*
X126982290Y-73387634D01*
X127165803Y-73294129D01*
X127332430Y-73173068D01*
X127478068Y-73027430D01*
X127599129Y-72860803D01*
X127692634Y-72677290D01*
X127756280Y-72481408D01*
X127788500Y-72277981D01*
X127788500Y-72072019D01*
X127756280Y-71868592D01*
X127692634Y-71672710D01*
X127599129Y-71489197D01*
X127478068Y-71322570D01*
X127478065Y-71322567D01*
X127478063Y-71322564D01*
X127332435Y-71176936D01*
X127332432Y-71176934D01*
X127332430Y-71176932D01*
X127263659Y-71126967D01*
X140436500Y-71126967D01*
X140436500Y-71423032D01*
X140475142Y-71716550D01*
X140475144Y-71716557D01*
X140551769Y-72002529D01*
X140600642Y-72120517D01*
X140665067Y-72276053D01*
X140665073Y-72276064D01*
X140813094Y-72532444D01*
X140813096Y-72532447D01*
X140813097Y-72532448D01*
X140893347Y-72637032D01*
X140993326Y-72767328D01*
X140993335Y-72767338D01*
X141202661Y-72976664D01*
X141202671Y-72976673D01*
X141202672Y-72976674D01*
X141386662Y-73117854D01*
X141437555Y-73156905D01*
X141693935Y-73304926D01*
X141693946Y-73304932D01*
X141693948Y-73304933D01*
X141967471Y-73418231D01*
X142253443Y-73494856D01*
X142253447Y-73494856D01*
X142253449Y-73494857D01*
X142329096Y-73504816D01*
X142546970Y-73533500D01*
X142546977Y-73533500D01*
X142843023Y-73533500D01*
X142843030Y-73533500D01*
X143108310Y-73498574D01*
X143136550Y-73494857D01*
X143136550Y-73494856D01*
X143136557Y-73494856D01*
X143422529Y-73418231D01*
X143696052Y-73304933D01*
X143952448Y-73156903D01*
X144187328Y-72976674D01*
X144396674Y-72767328D01*
X144576903Y-72532448D01*
X144724933Y-72276052D01*
X144838231Y-72002529D01*
X144914856Y-71716557D01*
X144953500Y-71423030D01*
X144953500Y-71126970D01*
X144923450Y-70898720D01*
X144914857Y-70833449D01*
X144914856Y-70833447D01*
X144914856Y-70833443D01*
X144838231Y-70547471D01*
X144724933Y-70273948D01*
X144724932Y-70273946D01*
X144724926Y-70273935D01*
X144576905Y-70017555D01*
X144567271Y-70005000D01*
X144396674Y-69782672D01*
X144396673Y-69782671D01*
X144396664Y-69782661D01*
X144187338Y-69573335D01*
X144187328Y-69573326D01*
X144092720Y-69500731D01*
X143952448Y-69393097D01*
X143952447Y-69393096D01*
X143952444Y-69393094D01*
X143696064Y-69245073D01*
X143696053Y-69245067D01*
X143525255Y-69174320D01*
X143422529Y-69131769D01*
X143136557Y-69055144D01*
X143136550Y-69055142D01*
X142843032Y-69016500D01*
X142843030Y-69016500D01*
X142546970Y-69016500D01*
X142546967Y-69016500D01*
X142253449Y-69055142D01*
X141967471Y-69131769D01*
X141693946Y-69245067D01*
X141693935Y-69245073D01*
X141437555Y-69393094D01*
X141202671Y-69573326D01*
X141202661Y-69573335D01*
X140993335Y-69782661D01*
X140993326Y-69782671D01*
X140813094Y-70017555D01*
X140665073Y-70273935D01*
X140665067Y-70273946D01*
X140551769Y-70547471D01*
X140475142Y-70833449D01*
X140436500Y-71126967D01*
X127263659Y-71126967D01*
X127166391Y-71056298D01*
X127165806Y-71055873D01*
X127165805Y-71055872D01*
X127165803Y-71055871D01*
X126982290Y-70962366D01*
X126982287Y-70962365D01*
X126982285Y-70962364D01*
X126786412Y-70898721D01*
X126786410Y-70898720D01*
X126786408Y-70898720D01*
X126582981Y-70866500D01*
X126377019Y-70866500D01*
X126173592Y-70898720D01*
X126173590Y-70898720D01*
X126173587Y-70898721D01*
X125977714Y-70962364D01*
X125977708Y-70962367D01*
X125794193Y-71055873D01*
X125627567Y-71176934D01*
X125627564Y-71176936D01*
X125481936Y-71322564D01*
X125481934Y-71322567D01*
X125360873Y-71489193D01*
X125267367Y-71672708D01*
X125267364Y-71672714D01*
X125203721Y-71868587D01*
X125203720Y-71868590D01*
X125203720Y-71868592D01*
X125171500Y-72072019D01*
X117627993Y-72072019D01*
X117595791Y-71868703D01*
X117532173Y-71672906D01*
X117532170Y-71672900D01*
X117438699Y-71489454D01*
X117407583Y-71446626D01*
X117407582Y-71446626D01*
X116720000Y-72134208D01*
X116720000Y-72122339D01*
X116692741Y-72020606D01*
X116640080Y-71929394D01*
X116565606Y-71854920D01*
X116474394Y-71802259D01*
X116372661Y-71775000D01*
X116360790Y-71775000D01*
X117048372Y-71087416D01*
X117005541Y-71056298D01*
X117005540Y-71056297D01*
X116822099Y-70962829D01*
X116822093Y-70962826D01*
X116626294Y-70899208D01*
X116626298Y-70899208D01*
X116422939Y-70867000D01*
X116217061Y-70867000D01*
X116013703Y-70899208D01*
X115817906Y-70962826D01*
X115817900Y-70962829D01*
X115634452Y-71056301D01*
X115591625Y-71087416D01*
X116279209Y-71775000D01*
X116267339Y-71775000D01*
X116165606Y-71802259D01*
X116074394Y-71854920D01*
X115999920Y-71929394D01*
X115947259Y-72020606D01*
X115920000Y-72122339D01*
X115920000Y-72134209D01*
X115232416Y-71446625D01*
X115201301Y-71489452D01*
X115107829Y-71672900D01*
X115107826Y-71672906D01*
X115044208Y-71868703D01*
X115012000Y-72072061D01*
X109809317Y-72072061D01*
X106357275Y-68620019D01*
X157846500Y-68620019D01*
X157846500Y-68849980D01*
X157882474Y-69077120D01*
X157888089Y-69094400D01*
X157953538Y-69295829D01*
X157953539Y-69295832D01*
X157953541Y-69295836D01*
X158003098Y-69393097D01*
X158057940Y-69500731D01*
X158193111Y-69686778D01*
X158193113Y-69686780D01*
X158193115Y-69686783D01*
X158355719Y-69849387D01*
X158429599Y-69903064D01*
X158472953Y-69959287D01*
X158479028Y-70030023D01*
X158445896Y-70092814D01*
X158429599Y-70106936D01*
X158355719Y-70160612D01*
X158193115Y-70323216D01*
X158193113Y-70323219D01*
X158057940Y-70509268D01*
X157953541Y-70714163D01*
X157953538Y-70714172D01*
X157882474Y-70932879D01*
X157877804Y-70962366D01*
X157846500Y-71160017D01*
X157846500Y-71389983D01*
X157868084Y-71526264D01*
X157882474Y-71617120D01*
X157914782Y-71716550D01*
X157953538Y-71835829D01*
X157953539Y-71835832D01*
X157953541Y-71835836D01*
X158045675Y-72016660D01*
X158057940Y-72040731D01*
X158155491Y-72174999D01*
X158183316Y-72213296D01*
X158207174Y-72280164D01*
X158191094Y-72349315D01*
X158140180Y-72398795D01*
X158125417Y-72405411D01*
X158108795Y-72411611D01*
X158108792Y-72411612D01*
X157991738Y-72499238D01*
X157904112Y-72616292D01*
X157904110Y-72616297D01*
X157853011Y-72753295D01*
X157853009Y-72753303D01*
X157846500Y-72813850D01*
X157846500Y-74816149D01*
X157853009Y-74876696D01*
X157853011Y-74876704D01*
X157904110Y-75013702D01*
X157904112Y-75013707D01*
X157991738Y-75130761D01*
X158108792Y-75218387D01*
X158108794Y-75218388D01*
X158108796Y-75218389D01*
X158136698Y-75228796D01*
X158245795Y-75269488D01*
X158245803Y-75269490D01*
X158306350Y-75275999D01*
X158306355Y-75275999D01*
X158306362Y-75276000D01*
X158306368Y-75276000D01*
X160403632Y-75276000D01*
X160403638Y-75276000D01*
X160403645Y-75275999D01*
X160403649Y-75275999D01*
X160464196Y-75269490D01*
X160464199Y-75269489D01*
X160464201Y-75269489D01*
X160601204Y-75218389D01*
X160620104Y-75204241D01*
X160718261Y-75130761D01*
X160805887Y-75013707D01*
X160805887Y-75013706D01*
X160805889Y-75013704D01*
X160856989Y-74876701D01*
X160863500Y-74816138D01*
X160863500Y-72813862D01*
X160859466Y-72776335D01*
X160856990Y-72753303D01*
X160856988Y-72753295D01*
X160805889Y-72616297D01*
X160805889Y-72616296D01*
X160790931Y-72596315D01*
X160782467Y-72585008D01*
X160757657Y-72518490D01*
X160772748Y-72449116D01*
X160822950Y-72398913D01*
X160883336Y-72383500D01*
X164337238Y-72383500D01*
X164337241Y-72383500D01*
X164509574Y-72356205D01*
X164675517Y-72302288D01*
X164830981Y-72223074D01*
X164972139Y-72120517D01*
X176418511Y-60674142D01*
X176459403Y-60646824D01*
X176463896Y-60644963D01*
X176463903Y-60644961D01*
X176633392Y-60558602D01*
X176657633Y-60540990D01*
X177843219Y-60540990D01*
X177866866Y-60558171D01*
X177866868Y-60558172D01*
X178036290Y-60644497D01*
X178217122Y-60703253D01*
X178404931Y-60733000D01*
X178595069Y-60733000D01*
X178782877Y-60703253D01*
X178963712Y-60644496D01*
X179133121Y-60558178D01*
X179133134Y-60558170D01*
X179156779Y-60540990D01*
X179156779Y-60540988D01*
X178500001Y-59884210D01*
X178500000Y-59884210D01*
X177843219Y-60540990D01*
X176657633Y-60540990D01*
X176787285Y-60446792D01*
X176787290Y-60446787D01*
X176830205Y-60403873D01*
X176921787Y-60312290D01*
X176921790Y-60312287D01*
X176921792Y-60312285D01*
X177033602Y-60158392D01*
X177119961Y-59988903D01*
X177130430Y-59956681D01*
X177170504Y-59898076D01*
X177235900Y-59870439D01*
X177305857Y-59882546D01*
X177358163Y-59930552D01*
X177370096Y-59956682D01*
X177380501Y-59988707D01*
X177466828Y-60158134D01*
X177484008Y-60181779D01*
X177484009Y-60181779D01*
X178140790Y-59524999D01*
X178094713Y-59478922D01*
X178150000Y-59478922D01*
X178150000Y-59571078D01*
X178173852Y-59660095D01*
X178219930Y-59739905D01*
X178285095Y-59805070D01*
X178364905Y-59851148D01*
X178453922Y-59875000D01*
X178546078Y-59875000D01*
X178635095Y-59851148D01*
X178714905Y-59805070D01*
X178780070Y-59739905D01*
X178826148Y-59660095D01*
X178850000Y-59571078D01*
X178850000Y-59524999D01*
X178859210Y-59524999D01*
X178859210Y-59525001D01*
X179515988Y-60181779D01*
X179515990Y-60181779D01*
X179533170Y-60158134D01*
X179533178Y-60158121D01*
X179619496Y-59988712D01*
X179678253Y-59807877D01*
X179708000Y-59620068D01*
X179708000Y-59429931D01*
X179678253Y-59242122D01*
X179619497Y-59061290D01*
X179533172Y-58891868D01*
X179533171Y-58891866D01*
X179515990Y-58868219D01*
X178859210Y-59524999D01*
X178850000Y-59524999D01*
X178850000Y-59478922D01*
X178826148Y-59389905D01*
X178780070Y-59310095D01*
X178714905Y-59244930D01*
X178635095Y-59198852D01*
X178546078Y-59175000D01*
X178453922Y-59175000D01*
X178364905Y-59198852D01*
X178285095Y-59244930D01*
X178219930Y-59310095D01*
X178173852Y-59389905D01*
X178150000Y-59478922D01*
X178094713Y-59478922D01*
X177484010Y-58868219D01*
X177484008Y-58868219D01*
X177466824Y-58891871D01*
X177380503Y-59061287D01*
X177370096Y-59093318D01*
X177330022Y-59151924D01*
X177264625Y-59179560D01*
X177194668Y-59167453D01*
X177142362Y-59119446D01*
X177130430Y-59093318D01*
X177127762Y-59085107D01*
X177119961Y-59061097D01*
X177033602Y-58891608D01*
X176921792Y-58737715D01*
X176921790Y-58737712D01*
X176787287Y-58603209D01*
X176657630Y-58509008D01*
X177843219Y-58509008D01*
X177843219Y-58509010D01*
X178499999Y-59165790D01*
X178500000Y-59165790D01*
X179156779Y-58509009D01*
X179156779Y-58509008D01*
X179133134Y-58491828D01*
X178963709Y-58405502D01*
X178782877Y-58346746D01*
X178595069Y-58317000D01*
X178404931Y-58317000D01*
X178217122Y-58346746D01*
X178036287Y-58405503D01*
X177866871Y-58491824D01*
X177843219Y-58509008D01*
X176657630Y-58509008D01*
X176633395Y-58491400D01*
X176633394Y-58491399D01*
X176633392Y-58491398D01*
X176463903Y-58405039D01*
X176282991Y-58346257D01*
X176095111Y-58316500D01*
X175904889Y-58316500D01*
X175717009Y-58346257D01*
X175717006Y-58346257D01*
X175717005Y-58346258D01*
X175536097Y-58405039D01*
X175536095Y-58405040D01*
X175366604Y-58491400D01*
X175212712Y-58603209D01*
X175078209Y-58737712D01*
X174966400Y-58891604D01*
X174880037Y-59061100D01*
X174878168Y-59065613D01*
X174850855Y-59106488D01*
X163827749Y-70129595D01*
X163765437Y-70163621D01*
X163738654Y-70166500D01*
X160403323Y-70166500D01*
X160382573Y-70160407D01*
X160360981Y-70159173D01*
X160339165Y-70147661D01*
X160335202Y-70146498D01*
X160329262Y-70142436D01*
X160280399Y-70106934D01*
X160237046Y-70050714D01*
X160230970Y-69979978D01*
X160264102Y-69917186D01*
X160280396Y-69903067D01*
X160354278Y-69849389D01*
X160516889Y-69686778D01*
X160652060Y-69500731D01*
X160756462Y-69295829D01*
X160827526Y-69077118D01*
X160863500Y-68849983D01*
X160863500Y-68620017D01*
X160827526Y-68392882D01*
X160756462Y-68174171D01*
X160652060Y-67969269D01*
X160516889Y-67783222D01*
X160516886Y-67783219D01*
X160516884Y-67783216D01*
X160354283Y-67620615D01*
X160354280Y-67620613D01*
X160354278Y-67620611D01*
X160168231Y-67485440D01*
X159963336Y-67381041D01*
X159963332Y-67381039D01*
X159963329Y-67381038D01*
X159853973Y-67345506D01*
X159744620Y-67309974D01*
X159631050Y-67291987D01*
X159517483Y-67274000D01*
X159192517Y-67274000D01*
X159101663Y-67288389D01*
X158965379Y-67309974D01*
X158801348Y-67363272D01*
X158746671Y-67381038D01*
X158746669Y-67381038D01*
X158746663Y-67381041D01*
X158541768Y-67485440D01*
X158355719Y-67620613D01*
X158355716Y-67620615D01*
X158193115Y-67783216D01*
X158193113Y-67783219D01*
X158057940Y-67969268D01*
X157953541Y-68174163D01*
X157953538Y-68174169D01*
X157953538Y-68174171D01*
X157935772Y-68228848D01*
X157882474Y-68392879D01*
X157846500Y-68620019D01*
X106357275Y-68620019D01*
X100829339Y-63092083D01*
X100743606Y-63006350D01*
X128899000Y-63006350D01*
X128899000Y-65103649D01*
X128905509Y-65164196D01*
X128905511Y-65164204D01*
X128956610Y-65301202D01*
X128956612Y-65301207D01*
X129044238Y-65418261D01*
X129161292Y-65505887D01*
X129161294Y-65505888D01*
X129161296Y-65505889D01*
X129219304Y-65527525D01*
X129298295Y-65556988D01*
X129298303Y-65556990D01*
X129358850Y-65563499D01*
X129358855Y-65563499D01*
X129358862Y-65563500D01*
X129358868Y-65563500D01*
X131361132Y-65563500D01*
X131361138Y-65563500D01*
X131361145Y-65563499D01*
X131361149Y-65563499D01*
X131421696Y-65556990D01*
X131421699Y-65556989D01*
X131421701Y-65556989D01*
X131558704Y-65505889D01*
X131675761Y-65418261D01*
X131763389Y-65301204D01*
X131769587Y-65284586D01*
X131812132Y-65227752D01*
X131878652Y-65202940D01*
X131948026Y-65218031D01*
X131961697Y-65226679D01*
X132134269Y-65352060D01*
X132339171Y-65456462D01*
X132557882Y-65527526D01*
X132785017Y-65563500D01*
X132785019Y-65563500D01*
X133014981Y-65563500D01*
X133014983Y-65563500D01*
X133242118Y-65527526D01*
X133460829Y-65456462D01*
X133665731Y-65352060D01*
X133851778Y-65216889D01*
X134014389Y-65054278D01*
X134068065Y-64980399D01*
X134124286Y-64937046D01*
X134195022Y-64930971D01*
X134257814Y-64964102D01*
X134271932Y-64980396D01*
X134325611Y-65054278D01*
X134325613Y-65054280D01*
X134325615Y-65054283D01*
X134488216Y-65216884D01*
X134488219Y-65216886D01*
X134488222Y-65216889D01*
X134674269Y-65352060D01*
X134879171Y-65456462D01*
X135097882Y-65527526D01*
X135325017Y-65563500D01*
X135325019Y-65563500D01*
X135554981Y-65563500D01*
X135554983Y-65563500D01*
X135782118Y-65527526D01*
X136000829Y-65456462D01*
X136205731Y-65352060D01*
X136391778Y-65216889D01*
X136554389Y-65054278D01*
X136689560Y-64868231D01*
X136793962Y-64663329D01*
X136865026Y-64444618D01*
X136901000Y-64217483D01*
X136901000Y-63892517D01*
X136865026Y-63665382D01*
X136793962Y-63446671D01*
X136689560Y-63241769D01*
X136554389Y-63055722D01*
X136554386Y-63055719D01*
X136554384Y-63055716D01*
X136391783Y-62893115D01*
X136391780Y-62893113D01*
X136391778Y-62893111D01*
X136205731Y-62757940D01*
X136000836Y-62653541D01*
X136000832Y-62653539D01*
X136000829Y-62653538D01*
X135891473Y-62618006D01*
X135782120Y-62582474D01*
X135668550Y-62564487D01*
X135554983Y-62546500D01*
X135325017Y-62546500D01*
X135234163Y-62560889D01*
X135097879Y-62582474D01*
X134933848Y-62635772D01*
X134879171Y-62653538D01*
X134879169Y-62653538D01*
X134879163Y-62653541D01*
X134674268Y-62757940D01*
X134488219Y-62893113D01*
X134488216Y-62893115D01*
X134325612Y-63055719D01*
X134271936Y-63129599D01*
X134249302Y-63147051D01*
X134228800Y-63166977D01*
X134221560Y-63168443D01*
X134215713Y-63172953D01*
X134187236Y-63175398D01*
X134159217Y-63181076D01*
X134152334Y-63178396D01*
X134144977Y-63179028D01*
X134119697Y-63165688D01*
X134093058Y-63155317D01*
X134085708Y-63147754D01*
X134082186Y-63145896D01*
X134068064Y-63129599D01*
X134032564Y-63080737D01*
X134008705Y-63013869D01*
X134008500Y-63006676D01*
X134008500Y-60836346D01*
X134028502Y-60768225D01*
X134045405Y-60747251D01*
X136905199Y-57887457D01*
X190691500Y-57887457D01*
X190691500Y-58212542D01*
X190723361Y-58536027D01*
X190723364Y-58536049D01*
X190786777Y-58854855D01*
X190786780Y-58854866D01*
X190786781Y-58854869D01*
X190881145Y-59165944D01*
X190973913Y-59389905D01*
X191005545Y-59466272D01*
X191158784Y-59752962D01*
X191339378Y-60023241D01*
X191339389Y-60023256D01*
X191545601Y-60274525D01*
X191545619Y-60274545D01*
X191775454Y-60504380D01*
X191775474Y-60504398D01*
X191982310Y-60674145D01*
X192026752Y-60710617D01*
X192297040Y-60891217D01*
X192583728Y-61044455D01*
X192884056Y-61168855D01*
X193195131Y-61263219D01*
X193195140Y-61263220D01*
X193195144Y-61263222D01*
X193324365Y-61288925D01*
X193513957Y-61326637D01*
X193837464Y-61358500D01*
X193837473Y-61358500D01*
X194162527Y-61358500D01*
X194162536Y-61358500D01*
X194486043Y-61326637D01*
X194737696Y-61276580D01*
X194804855Y-61263222D01*
X194804857Y-61263221D01*
X194804869Y-61263219D01*
X195115944Y-61168855D01*
X195416272Y-61044455D01*
X195702960Y-60891217D01*
X195973248Y-60710617D01*
X196224532Y-60504393D01*
X196454393Y-60274532D01*
X196660617Y-60023248D01*
X196841217Y-59752960D01*
X196994455Y-59466272D01*
X197118855Y-59165944D01*
X197213219Y-58854869D01*
X197276637Y-58536043D01*
X197308500Y-58212536D01*
X197308500Y-57887464D01*
X197276637Y-57563957D01*
X197213219Y-57245131D01*
X197118855Y-56934056D01*
X196994455Y-56633728D01*
X196841217Y-56347040D01*
X196660617Y-56076752D01*
X196454393Y-55825468D01*
X196454389Y-55825464D01*
X196454380Y-55825454D01*
X196224545Y-55595619D01*
X196224525Y-55595601D01*
X195973256Y-55389389D01*
X195973241Y-55389378D01*
X195702962Y-55208784D01*
X195416272Y-55055545D01*
X195115944Y-54931145D01*
X194804869Y-54836781D01*
X194804866Y-54836780D01*
X194804855Y-54836777D01*
X194486049Y-54773364D01*
X194486045Y-54773363D01*
X194486043Y-54773363D01*
X194486038Y-54773362D01*
X194486027Y-54773361D01*
X194162542Y-54741500D01*
X194162536Y-54741500D01*
X193837464Y-54741500D01*
X193837457Y-54741500D01*
X193513972Y-54773361D01*
X193513950Y-54773364D01*
X193195144Y-54836777D01*
X192884062Y-54931143D01*
X192884060Y-54931143D01*
X192884056Y-54931145D01*
X192722029Y-54998258D01*
X192583727Y-55055545D01*
X192297037Y-55208784D01*
X192026758Y-55389378D01*
X192026743Y-55389389D01*
X191775474Y-55595601D01*
X191775454Y-55595619D01*
X191545619Y-55825454D01*
X191545601Y-55825474D01*
X191339389Y-56076743D01*
X191339378Y-56076758D01*
X191158784Y-56347037D01*
X191005545Y-56633727D01*
X190881143Y-56934062D01*
X190786777Y-57245144D01*
X190723364Y-57563950D01*
X190723361Y-57563972D01*
X190691500Y-57887457D01*
X136905199Y-57887457D01*
X141196251Y-53596405D01*
X141258563Y-53562379D01*
X141285346Y-53559500D01*
X166000038Y-53559500D01*
X166000041Y-53559500D01*
X166172374Y-53532205D01*
X166338316Y-53478288D01*
X166493781Y-53399074D01*
X166634939Y-53296517D01*
X166758317Y-53173139D01*
X166860874Y-53031981D01*
X166940088Y-52876516D01*
X166994005Y-52710574D01*
X167021300Y-52538241D01*
X167021300Y-52363759D01*
X166994005Y-52191426D01*
X166940088Y-52025484D01*
X166860874Y-51870019D01*
X166758317Y-51728861D01*
X166758314Y-51728858D01*
X166758312Y-51728855D01*
X166634944Y-51605487D01*
X166634941Y-51605485D01*
X166634939Y-51605483D01*
X166594841Y-51576350D01*
X175161388Y-51576350D01*
X175161388Y-53273649D01*
X175167897Y-53334196D01*
X175167899Y-53334204D01*
X175218998Y-53471202D01*
X175219000Y-53471207D01*
X175306626Y-53588261D01*
X175423680Y-53675887D01*
X175423682Y-53675888D01*
X175423684Y-53675889D01*
X175482763Y-53697924D01*
X175560683Y-53726988D01*
X175560691Y-53726990D01*
X175621238Y-53733499D01*
X175621243Y-53733499D01*
X175621250Y-53733500D01*
X175621256Y-53733500D01*
X177318520Y-53733500D01*
X177318526Y-53733500D01*
X177318533Y-53733499D01*
X177318537Y-53733499D01*
X177379084Y-53726990D01*
X177379087Y-53726989D01*
X177379089Y-53726989D01*
X177516092Y-53675889D01*
X177567811Y-53637173D01*
X177633149Y-53588261D01*
X177720775Y-53471207D01*
X177720775Y-53471206D01*
X177720777Y-53471204D01*
X177771877Y-53334201D01*
X177778388Y-53273638D01*
X177778388Y-53264811D01*
X177782012Y-53250517D01*
X177794057Y-53230140D01*
X177801926Y-53207815D01*
X177811786Y-53200150D01*
X177818141Y-53189401D01*
X177839292Y-53178770D01*
X177857981Y-53164244D01*
X177872515Y-53162072D01*
X177874704Y-53160972D01*
X178569888Y-52465788D01*
X178569888Y-52477661D01*
X178597147Y-52579394D01*
X178649808Y-52670606D01*
X178724282Y-52745080D01*
X178815494Y-52797741D01*
X178917227Y-52825000D01*
X178929098Y-52825000D01*
X178241514Y-53512582D01*
X178241514Y-53512583D01*
X178284342Y-53543699D01*
X178467788Y-53637170D01*
X178467794Y-53637173D01*
X178663593Y-53700791D01*
X178663589Y-53700791D01*
X178866949Y-53733000D01*
X179072827Y-53733000D01*
X179276184Y-53700791D01*
X179471981Y-53637173D01*
X179471987Y-53637170D01*
X179655429Y-53543701D01*
X179698260Y-53512582D01*
X179698260Y-53512581D01*
X179010679Y-52825000D01*
X179022549Y-52825000D01*
X179124282Y-52797741D01*
X179215494Y-52745080D01*
X179289968Y-52670606D01*
X179342629Y-52579394D01*
X179369888Y-52477661D01*
X179369888Y-52465791D01*
X180057469Y-53153372D01*
X180057470Y-53153372D01*
X180088589Y-53110541D01*
X180182058Y-52927099D01*
X180182061Y-52927093D01*
X180245679Y-52731296D01*
X180277888Y-52527938D01*
X180277888Y-52322061D01*
X180245679Y-52118703D01*
X180182061Y-51922906D01*
X180182058Y-51922900D01*
X180088587Y-51739454D01*
X180057471Y-51696626D01*
X180057470Y-51696626D01*
X179369888Y-52384208D01*
X179369888Y-52372339D01*
X179342629Y-52270606D01*
X179289968Y-52179394D01*
X179215494Y-52104920D01*
X179124282Y-52052259D01*
X179022549Y-52025000D01*
X179010678Y-52025000D01*
X179698260Y-51337416D01*
X179655429Y-51306298D01*
X179655428Y-51306297D01*
X179471987Y-51212829D01*
X179471981Y-51212826D01*
X179276182Y-51149208D01*
X179276186Y-51149208D01*
X179072827Y-51117000D01*
X178866949Y-51117000D01*
X178663591Y-51149208D01*
X178467794Y-51212826D01*
X178467788Y-51212829D01*
X178284340Y-51306301D01*
X178241513Y-51337416D01*
X178929097Y-52025000D01*
X178917227Y-52025000D01*
X178815494Y-52052259D01*
X178724282Y-52104920D01*
X178649808Y-52179394D01*
X178597147Y-52270606D01*
X178569888Y-52372339D01*
X178569888Y-52384209D01*
X177870704Y-51685025D01*
X177844553Y-51679531D01*
X177793994Y-51629689D01*
X177782012Y-51599480D01*
X177778388Y-51585185D01*
X177778388Y-51576362D01*
X177771877Y-51515799D01*
X177737282Y-51423047D01*
X177737281Y-51423043D01*
X177720777Y-51378797D01*
X177720775Y-51378792D01*
X177633149Y-51261738D01*
X177516095Y-51174112D01*
X177516090Y-51174110D01*
X177379092Y-51123011D01*
X177379084Y-51123009D01*
X177318537Y-51116500D01*
X177318526Y-51116500D01*
X175621250Y-51116500D01*
X175621238Y-51116500D01*
X175560691Y-51123009D01*
X175560683Y-51123011D01*
X175423685Y-51174110D01*
X175423680Y-51174112D01*
X175306626Y-51261738D01*
X175219000Y-51378792D01*
X175218998Y-51378797D01*
X175167899Y-51515795D01*
X175167897Y-51515803D01*
X175161388Y-51576350D01*
X166594841Y-51576350D01*
X166493781Y-51502926D01*
X166338316Y-51423712D01*
X166338313Y-51423711D01*
X166338311Y-51423710D01*
X166172377Y-51369796D01*
X166172374Y-51369795D01*
X166000041Y-51342500D01*
X140861242Y-51342500D01*
X140686759Y-51342500D01*
X140514426Y-51369795D01*
X140514423Y-51369795D01*
X140514422Y-51369796D01*
X140348487Y-51423710D01*
X140348481Y-51423713D01*
X140193016Y-51502927D01*
X140051858Y-51605485D01*
X140051855Y-51605487D01*
X132054487Y-59602855D01*
X132054485Y-59602858D01*
X131951927Y-59744016D01*
X131872713Y-59899481D01*
X131872710Y-59899487D01*
X131843658Y-59988904D01*
X131818796Y-60065420D01*
X131818795Y-60065425D01*
X131818795Y-60065426D01*
X131800367Y-60181779D01*
X131791500Y-60237762D01*
X131791500Y-62526663D01*
X131771498Y-62594784D01*
X131717842Y-62641277D01*
X131647568Y-62651381D01*
X131589992Y-62627532D01*
X131558706Y-62604112D01*
X131558702Y-62604110D01*
X131421704Y-62553011D01*
X131421696Y-62553009D01*
X131361149Y-62546500D01*
X131361138Y-62546500D01*
X129358862Y-62546500D01*
X129358850Y-62546500D01*
X129298303Y-62553009D01*
X129298295Y-62553011D01*
X129161297Y-62604110D01*
X129161292Y-62604112D01*
X129044238Y-62691738D01*
X128956612Y-62808792D01*
X128956610Y-62808797D01*
X128905511Y-62945795D01*
X128905509Y-62945803D01*
X128899000Y-63006350D01*
X100743606Y-63006350D01*
X85069197Y-47331940D01*
X84984224Y-47246967D01*
X130641500Y-47246967D01*
X130641500Y-47543032D01*
X130680142Y-47836550D01*
X130694008Y-47888298D01*
X130756769Y-48122529D01*
X130813418Y-48259290D01*
X130870067Y-48396053D01*
X130870073Y-48396064D01*
X131018094Y-48652444D01*
X131018096Y-48652447D01*
X131018097Y-48652448D01*
X131096100Y-48754104D01*
X131198326Y-48887328D01*
X131198335Y-48887338D01*
X131407661Y-49096664D01*
X131407671Y-49096673D01*
X131407672Y-49096674D01*
X131577647Y-49227100D01*
X131642555Y-49276905D01*
X131898935Y-49424926D01*
X131898946Y-49424932D01*
X131898948Y-49424933D01*
X132172471Y-49538231D01*
X132458443Y-49614856D01*
X132458447Y-49614856D01*
X132458449Y-49614857D01*
X132534096Y-49624816D01*
X132751970Y-49653500D01*
X132751977Y-49653500D01*
X133048023Y-49653500D01*
X133048030Y-49653500D01*
X133313310Y-49618574D01*
X133341550Y-49614857D01*
X133341550Y-49614856D01*
X133341557Y-49614856D01*
X133627529Y-49538231D01*
X133901052Y-49424933D01*
X134157448Y-49276903D01*
X134392328Y-49096674D01*
X134601674Y-48887328D01*
X134781903Y-48652448D01*
X134929933Y-48396052D01*
X135043231Y-48122529D01*
X135119856Y-47836557D01*
X135124828Y-47798796D01*
X135132101Y-47743541D01*
X135158500Y-47543030D01*
X135158500Y-47246970D01*
X135119856Y-46953443D01*
X135110515Y-46918583D01*
X150630200Y-46918583D01*
X150630200Y-47465100D01*
X151557497Y-47465100D01*
X151522275Y-47526107D01*
X151488200Y-47653274D01*
X151488200Y-47784926D01*
X151522275Y-47912093D01*
X151557497Y-47973100D01*
X150630200Y-47973100D01*
X150630200Y-48519616D01*
X150640805Y-48623418D01*
X150640806Y-48623421D01*
X150696542Y-48791625D01*
X150789565Y-48942439D01*
X150789570Y-48942445D01*
X150914854Y-49067729D01*
X150914860Y-49067734D01*
X151065674Y-49160757D01*
X151233878Y-49216493D01*
X151233881Y-49216494D01*
X151337683Y-49227099D01*
X151337683Y-49227100D01*
X151734200Y-49227100D01*
X151734200Y-48149802D01*
X151795207Y-48185025D01*
X151922374Y-48219100D01*
X152054026Y-48219100D01*
X152181193Y-48185025D01*
X152242200Y-48149802D01*
X152242200Y-49227100D01*
X152638717Y-49227100D01*
X152638716Y-49227099D01*
X152742518Y-49216494D01*
X152742521Y-49216493D01*
X152910725Y-49160757D01*
X153061539Y-49067734D01*
X153061545Y-49067729D01*
X153186829Y-48942445D01*
X153186836Y-48942436D01*
X153276184Y-48797580D01*
X153328969Y-48750101D01*
X153399044Y-48738698D01*
X153464160Y-48766990D01*
X153472520Y-48774631D01*
X153603190Y-48905301D01*
X153603193Y-48905303D01*
X153603196Y-48905306D01*
X153776191Y-49030994D01*
X153966717Y-49128072D01*
X154170078Y-49194147D01*
X154170079Y-49194147D01*
X154170084Y-49194149D01*
X154381284Y-49227600D01*
X154381287Y-49227600D01*
X154595113Y-49227600D01*
X154595116Y-49227600D01*
X154806316Y-49194149D01*
X155009683Y-49128072D01*
X155200209Y-49030994D01*
X155373204Y-48905306D01*
X155524406Y-48754104D01*
X155650094Y-48581109D01*
X155747172Y-48390583D01*
X155813249Y-48187216D01*
X155846700Y-47976016D01*
X155846700Y-47462184D01*
X155813249Y-47250984D01*
X155747172Y-47047617D01*
X155650094Y-46857091D01*
X155524406Y-46684096D01*
X155524403Y-46684093D01*
X155524401Y-46684090D01*
X155373209Y-46532898D01*
X155373206Y-46532896D01*
X155373204Y-46532894D01*
X155200209Y-46407206D01*
X155009683Y-46310128D01*
X155009680Y-46310127D01*
X155009678Y-46310126D01*
X154806320Y-46244052D01*
X154806323Y-46244052D01*
X154767001Y-46237824D01*
X154595116Y-46210600D01*
X154381284Y-46210600D01*
X154170084Y-46244051D01*
X154170078Y-46244052D01*
X153966721Y-46310126D01*
X153966715Y-46310129D01*
X153776187Y-46407208D01*
X153603195Y-46532894D01*
X153472520Y-46663569D01*
X153410208Y-46697594D01*
X153339392Y-46692529D01*
X153282557Y-46649982D01*
X153276184Y-46640620D01*
X153186834Y-46495760D01*
X153186829Y-46495754D01*
X153061545Y-46370470D01*
X153061539Y-46370465D01*
X152910725Y-46277442D01*
X152742521Y-46221706D01*
X152742518Y-46221705D01*
X152638716Y-46211100D01*
X152242200Y-46211100D01*
X152242200Y-47288397D01*
X152181193Y-47253175D01*
X152054026Y-47219100D01*
X151922374Y-47219100D01*
X151795207Y-47253175D01*
X151734200Y-47288397D01*
X151734200Y-46211100D01*
X151337683Y-46211100D01*
X151233881Y-46221705D01*
X151233878Y-46221706D01*
X151065674Y-46277442D01*
X150914860Y-46370465D01*
X150914854Y-46370470D01*
X150789570Y-46495754D01*
X150789565Y-46495760D01*
X150696542Y-46646574D01*
X150640806Y-46814778D01*
X150640805Y-46814781D01*
X150630200Y-46918583D01*
X135110515Y-46918583D01*
X135043231Y-46667471D01*
X134929933Y-46393948D01*
X134929932Y-46393946D01*
X134929926Y-46393935D01*
X134781905Y-46137555D01*
X134658618Y-45976884D01*
X134601674Y-45902672D01*
X134601673Y-45902671D01*
X134601664Y-45902661D01*
X134392338Y-45693335D01*
X134392328Y-45693326D01*
X134157444Y-45513094D01*
X133901064Y-45365073D01*
X133901053Y-45365067D01*
X133764290Y-45308418D01*
X133627529Y-45251769D01*
X133341557Y-45175144D01*
X133341550Y-45175142D01*
X133048032Y-45136500D01*
X133048030Y-45136500D01*
X132751970Y-45136500D01*
X132751967Y-45136500D01*
X132458449Y-45175142D01*
X132172471Y-45251769D01*
X131898946Y-45365067D01*
X131898935Y-45365073D01*
X131642555Y-45513094D01*
X131407671Y-45693326D01*
X131407661Y-45693335D01*
X131198335Y-45902661D01*
X131198326Y-45902671D01*
X131018094Y-46137555D01*
X130870073Y-46393935D01*
X130870067Y-46393946D01*
X130756769Y-46667471D01*
X130680142Y-46953449D01*
X130641500Y-47246967D01*
X84984224Y-47246967D01*
X80646744Y-42909487D01*
X80646741Y-42909485D01*
X80646739Y-42909483D01*
X80569539Y-42853394D01*
X80505583Y-42806927D01*
X80499765Y-42803963D01*
X80350117Y-42727712D01*
X80350114Y-42727711D01*
X80350112Y-42727710D01*
X80184177Y-42673796D01*
X80184174Y-42673795D01*
X80011841Y-42646500D01*
X80011838Y-42646500D01*
X74226440Y-42646500D01*
X74206199Y-42640556D01*
X74185127Y-42639535D01*
X74162523Y-42627732D01*
X74158319Y-42626498D01*
X74153265Y-42623074D01*
X74152804Y-42622745D01*
X74112009Y-42593106D01*
X74109377Y-42591765D01*
X74103089Y-42587279D01*
X74083778Y-42562679D01*
X74062797Y-42539488D01*
X74062054Y-42535006D01*
X74059250Y-42531434D01*
X74056303Y-42500300D01*
X74051191Y-42469446D01*
X74052988Y-42465275D01*
X74052561Y-42460753D01*
X74066917Y-42432964D01*
X74079296Y-42404249D01*
X74083743Y-42400396D01*
X74085148Y-42397677D01*
X74090326Y-42394693D01*
X74107844Y-42379516D01*
X74107742Y-42379376D01*
X74109382Y-42378184D01*
X74110448Y-42377261D01*
X74111754Y-42376460D01*
X74284679Y-42250822D01*
X74435822Y-42099679D01*
X74561463Y-41926750D01*
X74658506Y-41736292D01*
X74658509Y-41736286D01*
X74724559Y-41533004D01*
X74734698Y-41469000D01*
X73830703Y-41469000D01*
X73865925Y-41407993D01*
X73900000Y-41280826D01*
X73900000Y-41149174D01*
X73865925Y-41022007D01*
X73830703Y-40961000D01*
X74734697Y-40961000D01*
X74724559Y-40896995D01*
X74658509Y-40693713D01*
X74658506Y-40693707D01*
X74561463Y-40503249D01*
X74435822Y-40330320D01*
X74332713Y-40227211D01*
X74298687Y-40164899D01*
X74303752Y-40094084D01*
X74346299Y-40037248D01*
X74377768Y-40020063D01*
X74496204Y-39975889D01*
X74613261Y-39888261D01*
X74700889Y-39771204D01*
X74703029Y-39765467D01*
X74745576Y-39708631D01*
X74812096Y-39683821D01*
X74821084Y-39683500D01*
X170330076Y-39683500D01*
X170398197Y-39703502D01*
X170419171Y-39720405D01*
X172454595Y-41755829D01*
X172488621Y-41818141D01*
X172491500Y-41844924D01*
X172491500Y-42899331D01*
X172520075Y-43042987D01*
X172530256Y-43094169D01*
X172606279Y-43277704D01*
X172716647Y-43442881D01*
X172857119Y-43583353D01*
X173022296Y-43693721D01*
X173205831Y-43769744D01*
X173400671Y-43808500D01*
X173400672Y-43808500D01*
X173599328Y-43808500D01*
X173599329Y-43808500D01*
X173794169Y-43769744D01*
X173977704Y-43693721D01*
X174142881Y-43583353D01*
X174283353Y-43442881D01*
X174393721Y-43277704D01*
X174469744Y-43094169D01*
X174508500Y-42899329D01*
X174508500Y-41275671D01*
X174469744Y-41080831D01*
X174438254Y-41004809D01*
X174393722Y-40897297D01*
X174283354Y-40732119D01*
X171442881Y-37891647D01*
X171277704Y-37781279D01*
X171265833Y-37776362D01*
X171094169Y-37705256D01*
X170899331Y-37666500D01*
X170899329Y-37666500D01*
X74821084Y-37666500D01*
X74752963Y-37646498D01*
X74706470Y-37592842D01*
X74703029Y-37584533D01*
X74700889Y-37578797D01*
X74700887Y-37578792D01*
X74613261Y-37461738D01*
X74496207Y-37374112D01*
X74496202Y-37374110D01*
X74359204Y-37323011D01*
X74359196Y-37323009D01*
X74298649Y-37316500D01*
X74298638Y-37316500D01*
X72501362Y-37316500D01*
X72501350Y-37316500D01*
X72440803Y-37323009D01*
X72440795Y-37323011D01*
X72303797Y-37374110D01*
X72303792Y-37374112D01*
X72186738Y-37461738D01*
X72099112Y-37578792D01*
X72099110Y-37578797D01*
X72048011Y-37715795D01*
X72048009Y-37715803D01*
X72041500Y-37776350D01*
X60300500Y-37776350D01*
X60300500Y-32826500D01*
X60320502Y-32758379D01*
X60374158Y-32711886D01*
X60426500Y-32700500D01*
X126099793Y-32700500D01*
X191773500Y-32700500D01*
X191841621Y-32720502D01*
G37*
%TD.AperFunction*%
%TD*%
M02*
