%TF.GenerationSoftware,KiCad,Pcbnew,6.0.2+dfsg-1*%
%TF.CreationDate,2023-03-16T17:45:45+01:00*%
%TF.ProjectId,sensor,73656e73-6f72-42e6-9b69-6361645f7063,rev?*%
%TF.SameCoordinates,Original*%
%TF.FileFunction,Copper,L2,Bot*%
%TF.FilePolarity,Positive*%
%FSLAX46Y46*%
G04 Gerber Fmt 4.6, Leading zero omitted, Abs format (unit mm)*
G04 Created by KiCad (PCBNEW 6.0.2+dfsg-1) date 2023-03-16 17:45:45*
%MOMM*%
%LPD*%
G01*
G04 APERTURE LIST*
G04 Aperture macros list*
%AMRoundRect*
0 Rectangle with rounded corners*
0 $1 Rounding radius*
0 $2 $3 $4 $5 $6 $7 $8 $9 X,Y pos of 4 corners*
0 Add a 4 corners polygon primitive as box body*
4,1,4,$2,$3,$4,$5,$6,$7,$8,$9,$2,$3,0*
0 Add four circle primitives for the rounded corners*
1,1,$1+$1,$2,$3*
1,1,$1+$1,$4,$5*
1,1,$1+$1,$6,$7*
1,1,$1+$1,$8,$9*
0 Add four rect primitives between the rounded corners*
20,1,$1+$1,$2,$3,$4,$5,0*
20,1,$1+$1,$4,$5,$6,$7,0*
20,1,$1+$1,$6,$7,$8,$9,0*
20,1,$1+$1,$8,$9,$2,$3,0*%
G04 Aperture macros list end*
%TA.AperFunction,ComponentPad*%
%ADD10O,1.980000X3.960000*%
%TD*%
%TA.AperFunction,ComponentPad*%
%ADD11R,1.980000X3.960000*%
%TD*%
%TA.AperFunction,ComponentPad*%
%ADD12RoundRect,0.250000X0.725000X-0.600000X0.725000X0.600000X-0.725000X0.600000X-0.725000X-0.600000X0*%
%TD*%
%TA.AperFunction,ComponentPad*%
%ADD13O,1.950000X1.700000*%
%TD*%
%TA.AperFunction,ComponentPad*%
%ADD14RoundRect,0.250000X0.600000X0.750000X-0.600000X0.750000X-0.600000X-0.750000X0.600000X-0.750000X0*%
%TD*%
%TA.AperFunction,ComponentPad*%
%ADD15O,1.700000X2.000000*%
%TD*%
%TA.AperFunction,ComponentPad*%
%ADD16O,1.000000X2.100000*%
%TD*%
%TA.AperFunction,ComponentPad*%
%ADD17O,1.000000X1.600000*%
%TD*%
%TA.AperFunction,ComponentPad*%
%ADD18RoundRect,0.250000X-0.600000X-0.725000X0.600000X-0.725000X0.600000X0.725000X-0.600000X0.725000X0*%
%TD*%
%TA.AperFunction,ComponentPad*%
%ADD19O,1.700000X1.950000*%
%TD*%
%TA.AperFunction,ComponentPad*%
%ADD20R,1.350000X1.350000*%
%TD*%
%TA.AperFunction,ComponentPad*%
%ADD21C,1.350000*%
%TD*%
%TA.AperFunction,ComponentPad*%
%ADD22C,2.050000*%
%TD*%
%TA.AperFunction,ComponentPad*%
%ADD23C,2.250000*%
%TD*%
%TA.AperFunction,ViaPad*%
%ADD24C,0.600000*%
%TD*%
%TA.AperFunction,ViaPad*%
%ADD25C,0.800000*%
%TD*%
%TA.AperFunction,Conductor*%
%ADD26C,0.200000*%
%TD*%
%TA.AperFunction,Conductor*%
%ADD27C,0.500000*%
%TD*%
%TA.AperFunction,Conductor*%
%ADD28C,0.600000*%
%TD*%
%TA.AperFunction,Conductor*%
%ADD29C,0.150000*%
%TD*%
G04 APERTURE END LIST*
D10*
%TO.P,J2,2,Pin_2*%
%TO.N,GND*%
X147135000Y-77900000D03*
D11*
%TO.P,J2,1,Pin_1*%
%TO.N,VSS*%
X142135000Y-77900000D03*
%TD*%
D12*
%TO.P,J5,1,Pin_1*%
%TO.N,Net-(J5-Pad1)*%
X171700000Y-49100000D03*
D13*
%TO.P,J5,2,Pin_2*%
%TO.N,Net-(C16-Pad1)*%
X171700000Y-46600000D03*
%TO.P,J5,3,Pin_3*%
%TO.N,Net-(C16-Pad2)*%
X171700000Y-44100000D03*
%TO.P,J5,4,Pin_4*%
%TO.N,Net-(J5-Pad4)*%
X171700000Y-41600000D03*
%TD*%
D14*
%TO.P,J3,1,Pin_1*%
%TO.N,V_BAT*%
X125150000Y-82025000D03*
D15*
%TO.P,J3,2,Pin_2*%
%TO.N,GND*%
X122650000Y-82025000D03*
%TD*%
D16*
%TO.P,P1,S1,SHIELD*%
%TO.N,GND*%
X117320000Y-80230000D03*
X108680000Y-80230000D03*
D17*
X108680000Y-84410000D03*
X117320000Y-84410000D03*
%TD*%
D18*
%TO.P,J1,1,Pin_1*%
%TO.N,+3.3V*%
X101550000Y-20375000D03*
D19*
%TO.P,J1,2,Pin_2*%
%TO.N,GND*%
X104050000Y-20375000D03*
%TO.P,J1,3,Pin_3*%
%TO.N,SCL*%
X106550000Y-20375000D03*
%TO.P,J1,4,Pin_4*%
%TO.N,SDA*%
X109050000Y-20375000D03*
%TD*%
D20*
%TO.P,U4,1,GND*%
%TO.N,GND*%
X145207500Y-40707500D03*
D21*
%TO.P,U4,2,MISO*%
%TO.N,MISO*%
X145207500Y-38707500D03*
%TO.P,U4,3,MOSI*%
%TO.N,MOSI*%
X145207500Y-36707500D03*
%TO.P,U4,4,SCK*%
%TO.N,SCK*%
X145207500Y-34707500D03*
%TO.P,U4,5,NSS*%
%TO.N,RFM_SS*%
X145207500Y-32707500D03*
%TO.P,U4,6,RESET*%
%TO.N,RFM_RESET*%
X145207500Y-30707500D03*
%TO.P,U4,7,DIO5*%
%TO.N,unconnected-(U4-Pad7)*%
X145207500Y-28707500D03*
%TO.P,U4,8,GND*%
%TO.N,GND*%
X145207500Y-26707500D03*
%TO.P,U4,9,ANT*%
%TO.N,RF_ANT*%
X131607500Y-26707500D03*
%TO.P,U4,10,GND*%
%TO.N,GND*%
X131607500Y-28707500D03*
%TO.P,U4,11,DIO3*%
%TO.N,unconnected-(U4-Pad11)*%
X131607500Y-30707500D03*
%TO.P,U4,12,DIO4*%
%TO.N,unconnected-(U4-Pad12)*%
X131607500Y-32707500D03*
%TO.P,U4,13,3.3V*%
%TO.N,+3.3V*%
X131607500Y-34707500D03*
%TO.P,U4,14,DIO0*%
%TO.N,RFM_DI0*%
X131607500Y-36707500D03*
%TO.P,U4,15,DIO1*%
%TO.N,unconnected-(U4-Pad15)*%
X131607500Y-38707500D03*
%TO.P,U4,16,DIO2*%
%TO.N,unconnected-(U4-Pad16)*%
X131607500Y-40707500D03*
%TD*%
D22*
%TO.P,J4,1,In*%
%TO.N,RF_ANT*%
X138200000Y-20900000D03*
D23*
%TO.P,J4,2,Ext*%
%TO.N,GND*%
X135660000Y-18360000D03*
X135660000Y-23440000D03*
X140740000Y-18360000D03*
X140740000Y-23440000D03*
%TD*%
D24*
%TO.N,MOSI*%
X109700000Y-31050000D03*
%TO.N,RFM_SS*%
X128950000Y-28750000D03*
%TO.N,SCK*%
X128950000Y-27750000D03*
%TO.N,MISO*%
X126800000Y-27000000D03*
%TO.N,RFM_SS*%
X123300000Y-28750000D03*
%TO.N,SCK*%
X123300000Y-27750000D03*
%TO.N,MISO*%
X123300000Y-27000000D03*
X123300000Y-27000000D03*
X123300000Y-27000000D03*
X153850000Y-40500000D03*
%TO.N,+3.3V*%
X167250000Y-36200000D03*
%TO.N,RFM_RESET*%
X123685000Y-53285000D03*
%TO.N,+3.3V*%
X151650000Y-46300000D03*
%TO.N,SCK*%
X159600000Y-37650000D03*
%TO.N,MOSI*%
X161960000Y-37660000D03*
%TO.N,SDA*%
X115250000Y-39150000D03*
X115250000Y-55300000D03*
%TO.N,SCL*%
X117850000Y-55300000D03*
D25*
%TO.N,+3.3V*%
X131100000Y-60400000D03*
%TO.N,V_BAT*%
X126000000Y-61900000D03*
X125100000Y-75100000D03*
%TO.N,GND*%
X153200000Y-57700000D03*
D24*
X162500000Y-67700000D03*
D25*
%TO.N,+3.3V*%
X109715000Y-57285000D03*
%TO.N,ESP32_IO0*%
X123300000Y-30600000D03*
X120200000Y-59800000D03*
%TO.N,SCL*%
X117900000Y-25700000D03*
X111500000Y-37300000D03*
%TO.N,GND*%
X137700000Y-74000000D03*
%TD*%
D26*
%TO.N,MOSI*%
X161960000Y-37660000D02*
X161960000Y-25460000D01*
X161960000Y-25460000D02*
X152600000Y-16100000D01*
X152600000Y-16100000D02*
X99550000Y-16100000D01*
X104350000Y-25100000D02*
X109700000Y-30450000D01*
X99550000Y-16100000D02*
X96750000Y-18900000D01*
X96750000Y-18900000D02*
X96750000Y-24500000D01*
X96750000Y-24500000D02*
X97350000Y-25100000D01*
X97350000Y-25100000D02*
X104350000Y-25100000D01*
X109700000Y-30450000D02*
X109700000Y-31050000D01*
%TO.N,MISO*%
X123300000Y-27000000D02*
X126800000Y-27000000D01*
%TO.N,RFM_SS*%
X123300000Y-28750000D02*
X128950000Y-28750000D01*
%TO.N,SCK*%
X123300000Y-27750000D02*
X128950000Y-27750000D01*
%TO.N,MISO*%
X153850000Y-40500000D02*
X151550000Y-40500000D01*
X149757500Y-38707500D02*
X145207500Y-38707500D01*
X151550000Y-40500000D02*
X149757500Y-38707500D01*
D27*
%TO.N,+3.3V*%
X137150000Y-46300000D02*
X150600000Y-46300000D01*
X150600000Y-46300000D02*
X151650000Y-46300000D01*
X164200000Y-41450000D02*
X167250000Y-38400000D01*
X150600000Y-46300000D02*
X160800000Y-46300000D01*
X160800000Y-46300000D02*
X164200000Y-42900000D01*
X164200000Y-42900000D02*
X164200000Y-41450000D01*
X167250000Y-38400000D02*
X167250000Y-36200000D01*
D28*
%TO.N,RFM_RESET*%
X125250000Y-33450000D02*
X125850000Y-33450000D01*
D29*
X127350000Y-31950000D02*
X127600000Y-31700000D01*
D28*
X125850000Y-33450000D02*
X127350000Y-31950000D01*
X123685000Y-53285000D02*
X123685000Y-35015000D01*
X123685000Y-35015000D02*
X125250000Y-33450000D01*
D29*
X127600000Y-31700000D02*
X137850000Y-31700000D01*
X138842500Y-30707500D02*
X145207500Y-30707500D01*
X137850000Y-31700000D02*
X138842500Y-30707500D01*
D27*
%TO.N,+3.3V*%
X133600000Y-42700000D02*
X133600000Y-42750000D01*
X133600000Y-42750000D02*
X137150000Y-46300000D01*
D26*
%TO.N,MOSI*%
X161960000Y-37660000D02*
X161960000Y-38090000D01*
X161960000Y-38090000D02*
X161350000Y-38700000D01*
X161350000Y-38700000D02*
X152250000Y-38700000D01*
X152250000Y-38700000D02*
X150257500Y-36707500D01*
X150257500Y-36707500D02*
X145207500Y-36707500D01*
%TO.N,SCK*%
X159600000Y-37650000D02*
X152450000Y-37650000D01*
X152450000Y-37650000D02*
X149507500Y-34707500D01*
X149507500Y-34707500D02*
X145207500Y-34707500D01*
%TO.N,SCL*%
X106550000Y-24900000D02*
X107350000Y-25700000D01*
X106550000Y-20375000D02*
X106550000Y-24900000D01*
X107350000Y-25700000D02*
X117900000Y-25700000D01*
%TO.N,SDA*%
X115250000Y-55300000D02*
X115250000Y-39150000D01*
%TO.N,SCL*%
X117850000Y-55300000D02*
X117850000Y-38450000D01*
X117850000Y-38450000D02*
X116700000Y-37300000D01*
D27*
X111500000Y-37300000D02*
X115800000Y-37300000D01*
%TO.N,+3.3V*%
X131000000Y-45300000D02*
X131100000Y-45400000D01*
X131100000Y-45400000D02*
X131100000Y-60400000D01*
X123700000Y-60400000D02*
X131100000Y-60400000D01*
X123700000Y-60400000D02*
X122700000Y-61400000D01*
X122700000Y-61400000D02*
X113830000Y-61400000D01*
X113830000Y-61400000D02*
X109715000Y-57285000D01*
%TO.N,V_BAT*%
X125100000Y-75100000D02*
X125100000Y-62800000D01*
X125100000Y-62800000D02*
X126000000Y-61900000D01*
%TO.N,+3.3V*%
X131000000Y-45300000D02*
X133600000Y-42700000D01*
X133600000Y-42700000D02*
X133600000Y-35600000D01*
X133600000Y-35600000D02*
X132707500Y-34707500D01*
X132707500Y-34707500D02*
X131607500Y-34707500D01*
X109715000Y-57285000D02*
X109715000Y-57415000D01*
%TO.N,ESP32_IO0*%
X121900000Y-30600000D02*
X123300000Y-30600000D01*
X120200000Y-59800000D02*
X120200000Y-32300000D01*
X120200000Y-32300000D02*
X121900000Y-30600000D01*
%TO.N,SCL*%
X111500000Y-37300000D02*
X116700000Y-37300000D01*
X117900000Y-36100000D02*
X117900000Y-25700000D01*
X116700000Y-37300000D02*
X117900000Y-36100000D01*
%TD*%
%TA.AperFunction,Conductor*%
%TO.N,GND*%
G36*
X98102726Y-15616575D02*
G01*
X98867083Y-15618494D01*
X98935154Y-15638667D01*
X98981512Y-15692440D01*
X98991439Y-15762739D01*
X98961784Y-15827245D01*
X98955862Y-15833589D01*
X96353766Y-18435685D01*
X96341375Y-18446552D01*
X96316013Y-18466013D01*
X96291526Y-18497925D01*
X96291523Y-18497928D01*
X96218476Y-18593124D01*
X96157162Y-18741149D01*
X96157162Y-18741150D01*
X96141500Y-18860115D01*
X96141500Y-18860120D01*
X96136250Y-18900000D01*
X96137328Y-18908188D01*
X96140422Y-18931690D01*
X96141500Y-18948136D01*
X96141500Y-24451864D01*
X96140422Y-24468307D01*
X96136250Y-24500000D01*
X96141500Y-24539880D01*
X96141500Y-24539885D01*
X96148509Y-24593124D01*
X96157162Y-24658851D01*
X96218476Y-24806876D01*
X96223503Y-24813427D01*
X96223504Y-24813429D01*
X96291520Y-24902069D01*
X96291526Y-24902075D01*
X96316013Y-24933987D01*
X96322568Y-24939017D01*
X96341379Y-24953452D01*
X96353770Y-24964319D01*
X96885685Y-25496234D01*
X96896552Y-25508625D01*
X96916013Y-25533987D01*
X96947925Y-25558474D01*
X96947928Y-25558477D01*
X97043124Y-25631524D01*
X97191149Y-25692838D01*
X97199336Y-25693916D01*
X97199337Y-25693916D01*
X97210542Y-25695391D01*
X97241738Y-25699498D01*
X97310115Y-25708500D01*
X97310118Y-25708500D01*
X97310126Y-25708501D01*
X97341811Y-25712672D01*
X97350000Y-25713750D01*
X97381693Y-25709578D01*
X97398136Y-25708500D01*
X104045761Y-25708500D01*
X104113882Y-25728502D01*
X104134856Y-25745405D01*
X108943113Y-30553662D01*
X108977139Y-30615974D01*
X108972074Y-30686789D01*
X108971880Y-30687238D01*
X108971235Y-30688238D01*
X108970125Y-30691288D01*
X108970124Y-30691290D01*
X108911606Y-30852066D01*
X108909197Y-30858685D01*
X108886463Y-31038640D01*
X108904163Y-31219160D01*
X108961418Y-31391273D01*
X108965065Y-31397295D01*
X108965066Y-31397297D01*
X109032413Y-31508500D01*
X109055380Y-31546424D01*
X109181382Y-31676902D01*
X109206305Y-31693211D01*
X109288615Y-31747073D01*
X109333159Y-31776222D01*
X109339763Y-31778678D01*
X109339765Y-31778679D01*
X109496558Y-31836990D01*
X109496560Y-31836990D01*
X109503168Y-31839448D01*
X109586995Y-31850633D01*
X109675980Y-31862507D01*
X109675984Y-31862507D01*
X109682961Y-31863438D01*
X109689972Y-31862800D01*
X109689976Y-31862800D01*
X109832459Y-31849832D01*
X109863600Y-31846998D01*
X109870302Y-31844820D01*
X109870304Y-31844820D01*
X110029409Y-31793124D01*
X110029412Y-31793123D01*
X110036108Y-31790947D01*
X110191912Y-31698069D01*
X110323266Y-31572982D01*
X110423643Y-31421902D01*
X110477978Y-31278866D01*
X110485555Y-31258920D01*
X110485556Y-31258918D01*
X110488055Y-31252338D01*
X110489035Y-31245366D01*
X110512748Y-31076639D01*
X110512748Y-31076636D01*
X110513299Y-31072717D01*
X110513616Y-31050000D01*
X110493397Y-30869745D01*
X110491080Y-30863091D01*
X110436064Y-30705106D01*
X110436062Y-30705103D01*
X110433745Y-30698448D01*
X110376331Y-30606565D01*
X110341361Y-30550601D01*
X110341360Y-30550600D01*
X110337626Y-30544624D01*
X110337937Y-30544430D01*
X110312829Y-30482404D01*
X110313084Y-30466446D01*
X110312673Y-30466446D01*
X110312673Y-30458188D01*
X110313751Y-30450000D01*
X110292838Y-30291149D01*
X110231524Y-30143124D01*
X110158478Y-30047929D01*
X110158474Y-30047925D01*
X110158471Y-30047921D01*
X110139016Y-30022566D01*
X110139013Y-30022563D01*
X110133987Y-30016013D01*
X110124041Y-30008381D01*
X110108621Y-29996548D01*
X110096230Y-29985681D01*
X104814315Y-24703766D01*
X104803448Y-24691375D01*
X104789013Y-24672563D01*
X104783987Y-24666013D01*
X104752075Y-24641526D01*
X104752072Y-24641523D01*
X104727338Y-24622544D01*
X104663429Y-24573504D01*
X104663427Y-24573503D01*
X104656876Y-24568476D01*
X104508851Y-24507162D01*
X104500664Y-24506084D01*
X104500663Y-24506084D01*
X104489458Y-24504609D01*
X104454448Y-24500000D01*
X104389885Y-24491500D01*
X104389882Y-24491500D01*
X104389874Y-24491499D01*
X104358189Y-24487328D01*
X104350000Y-24486250D01*
X104318307Y-24490422D01*
X104301864Y-24491500D01*
X97654239Y-24491500D01*
X97586118Y-24471498D01*
X97565144Y-24454595D01*
X97395405Y-24284856D01*
X97361379Y-24222544D01*
X97358500Y-24195761D01*
X97358500Y-22320604D01*
X98837787Y-22320604D01*
X98847567Y-22531899D01*
X98897125Y-22737534D01*
X98899607Y-22742992D01*
X98899608Y-22742996D01*
X98943053Y-22838546D01*
X98984674Y-22930087D01*
X99107054Y-23102611D01*
X99259850Y-23248881D01*
X99437548Y-23363620D01*
X99443114Y-23365863D01*
X99628168Y-23440442D01*
X99628171Y-23440443D01*
X99633737Y-23442686D01*
X99841337Y-23483228D01*
X99846899Y-23483500D01*
X100002846Y-23483500D01*
X100160566Y-23468452D01*
X100363534Y-23408908D01*
X100447111Y-23365863D01*
X100546249Y-23314804D01*
X100546252Y-23314802D01*
X100551580Y-23312058D01*
X100717920Y-23181396D01*
X100721852Y-23176865D01*
X100721855Y-23176862D01*
X100852621Y-23026167D01*
X100856552Y-23021637D01*
X100859552Y-23016451D01*
X100859555Y-23016447D01*
X100959467Y-22843742D01*
X100962473Y-22838546D01*
X101031861Y-22638729D01*
X101053676Y-22488276D01*
X101061352Y-22435336D01*
X101061352Y-22435333D01*
X101062213Y-22429396D01*
X101052433Y-22218101D01*
X101003250Y-22014021D01*
X101006735Y-21943110D01*
X101048005Y-21885340D01*
X101113955Y-21859053D01*
X101125743Y-21858500D01*
X102200400Y-21858500D01*
X102203646Y-21858163D01*
X102203650Y-21858163D01*
X102299308Y-21848238D01*
X102299312Y-21848237D01*
X102306166Y-21847526D01*
X102312702Y-21845345D01*
X102312704Y-21845345D01*
X102466998Y-21793868D01*
X102473946Y-21791550D01*
X102624348Y-21698478D01*
X102749305Y-21573303D01*
X102839353Y-21427220D01*
X102892124Y-21379727D01*
X102962196Y-21368303D01*
X103027320Y-21396577D01*
X103037782Y-21406364D01*
X103143234Y-21516906D01*
X103151186Y-21523941D01*
X103327525Y-21655141D01*
X103336562Y-21660745D01*
X103532484Y-21760357D01*
X103542335Y-21764357D01*
X103752240Y-21829534D01*
X103762624Y-21831817D01*
X103778043Y-21833861D01*
X103792207Y-21831665D01*
X103796000Y-21818478D01*
X103796000Y-21816192D01*
X104304000Y-21816192D01*
X104307973Y-21829723D01*
X104318580Y-21831248D01*
X104436421Y-21806523D01*
X104446617Y-21803463D01*
X104651029Y-21722737D01*
X104660561Y-21718006D01*
X104848462Y-21603984D01*
X104857052Y-21597720D01*
X105023052Y-21453673D01*
X105030472Y-21446042D01*
X105169826Y-21276089D01*
X105175848Y-21267326D01*
X105191238Y-21240289D01*
X105242320Y-21190982D01*
X105311951Y-21177120D01*
X105378022Y-21203103D01*
X105405261Y-21232253D01*
X105434773Y-21276089D01*
X105487441Y-21354319D01*
X105491120Y-21358176D01*
X105491122Y-21358178D01*
X105507497Y-21375343D01*
X105646576Y-21521135D01*
X105831542Y-21658754D01*
X105872606Y-21679632D01*
X105924263Y-21728334D01*
X105941500Y-21791948D01*
X105941500Y-24851864D01*
X105940422Y-24868307D01*
X105936250Y-24900000D01*
X105941500Y-24939880D01*
X105941500Y-24939885D01*
X105954240Y-25036657D01*
X105957162Y-25058851D01*
X106018476Y-25206876D01*
X106023503Y-25213427D01*
X106023504Y-25213429D01*
X106091520Y-25302069D01*
X106091526Y-25302075D01*
X106116013Y-25333987D01*
X106122568Y-25339017D01*
X106141379Y-25353452D01*
X106153770Y-25364319D01*
X106885685Y-26096234D01*
X106896552Y-26108625D01*
X106916013Y-26133987D01*
X106922563Y-26139013D01*
X106947921Y-26158471D01*
X106947937Y-26158485D01*
X106997305Y-26196366D01*
X107043124Y-26231524D01*
X107191149Y-26292838D01*
X107199336Y-26293916D01*
X107199337Y-26293916D01*
X107210542Y-26295391D01*
X107241738Y-26299498D01*
X107310115Y-26308500D01*
X107310118Y-26308500D01*
X107310126Y-26308501D01*
X107341811Y-26312672D01*
X107350000Y-26313750D01*
X107381693Y-26309578D01*
X107398136Y-26308500D01*
X117015500Y-26308500D01*
X117083621Y-26328502D01*
X117130114Y-26382158D01*
X117141500Y-26434500D01*
X117141500Y-35733629D01*
X117121498Y-35801750D01*
X117104595Y-35822724D01*
X116422724Y-36504595D01*
X116360412Y-36538621D01*
X116333629Y-36541500D01*
X112042587Y-36541500D01*
X111968528Y-36517437D01*
X111962098Y-36512765D01*
X111962091Y-36512761D01*
X111956752Y-36508882D01*
X111950724Y-36506198D01*
X111950722Y-36506197D01*
X111788319Y-36433891D01*
X111788318Y-36433891D01*
X111782288Y-36431206D01*
X111677441Y-36408920D01*
X111601944Y-36392872D01*
X111601939Y-36392872D01*
X111595487Y-36391500D01*
X111404513Y-36391500D01*
X111398061Y-36392872D01*
X111398056Y-36392872D01*
X111322559Y-36408920D01*
X111217712Y-36431206D01*
X111211682Y-36433891D01*
X111211681Y-36433891D01*
X111049278Y-36506197D01*
X111049276Y-36506198D01*
X111043248Y-36508882D01*
X111037907Y-36512762D01*
X111037906Y-36512763D01*
X111031473Y-36517437D01*
X110888747Y-36621134D01*
X110760960Y-36763056D01*
X110718131Y-36837238D01*
X110671785Y-36917512D01*
X110665473Y-36928444D01*
X110606458Y-37110072D01*
X110605768Y-37116633D01*
X110605768Y-37116635D01*
X110601891Y-37153526D01*
X110586496Y-37300000D01*
X110587186Y-37306565D01*
X110603530Y-37462066D01*
X110606458Y-37489928D01*
X110665473Y-37671556D01*
X110668776Y-37677278D01*
X110668777Y-37677279D01*
X110670984Y-37681102D01*
X110760960Y-37836944D01*
X110765378Y-37841851D01*
X110765379Y-37841852D01*
X110860566Y-37947568D01*
X110888747Y-37978866D01*
X110969825Y-38037773D01*
X111037904Y-38087235D01*
X111043248Y-38091118D01*
X111049276Y-38093802D01*
X111049278Y-38093803D01*
X111160056Y-38143124D01*
X111217712Y-38168794D01*
X111289975Y-38184154D01*
X111398056Y-38207128D01*
X111398061Y-38207128D01*
X111404513Y-38208500D01*
X111595487Y-38208500D01*
X111601939Y-38207128D01*
X111601944Y-38207128D01*
X111710025Y-38184154D01*
X111782288Y-38168794D01*
X111839944Y-38143124D01*
X111950722Y-38093803D01*
X111950724Y-38093802D01*
X111956752Y-38091118D01*
X111962091Y-38087239D01*
X111962098Y-38087235D01*
X111968528Y-38082563D01*
X112042587Y-38058500D01*
X116545761Y-38058500D01*
X116613882Y-38078502D01*
X116634856Y-38095405D01*
X117204595Y-38665144D01*
X117238621Y-38727456D01*
X117241500Y-38754239D01*
X117241500Y-54715164D01*
X117221498Y-54783285D01*
X117220188Y-54785090D01*
X117219493Y-54785771D01*
X117217894Y-54788253D01*
X117217892Y-54788255D01*
X117209934Y-54800603D01*
X117121235Y-54938238D01*
X117118826Y-54944858D01*
X117118824Y-54944861D01*
X117061606Y-55102066D01*
X117059197Y-55108685D01*
X117036463Y-55288640D01*
X117054163Y-55469160D01*
X117111418Y-55641273D01*
X117115065Y-55647295D01*
X117115066Y-55647297D01*
X117125978Y-55665314D01*
X117205380Y-55796424D01*
X117331382Y-55926902D01*
X117483159Y-56026222D01*
X117489763Y-56028678D01*
X117489765Y-56028679D01*
X117646558Y-56086990D01*
X117646560Y-56086990D01*
X117653168Y-56089448D01*
X117736995Y-56100633D01*
X117825980Y-56112507D01*
X117825984Y-56112507D01*
X117832961Y-56113438D01*
X117839972Y-56112800D01*
X117839976Y-56112800D01*
X117982459Y-56099832D01*
X118013600Y-56096998D01*
X118020302Y-56094820D01*
X118020304Y-56094820D01*
X118179409Y-56043124D01*
X118179412Y-56043123D01*
X118186108Y-56040947D01*
X118341912Y-55948069D01*
X118473266Y-55822982D01*
X118573643Y-55671902D01*
X118638055Y-55502338D01*
X118639035Y-55495366D01*
X118662748Y-55326639D01*
X118662748Y-55326636D01*
X118663299Y-55322717D01*
X118663616Y-55300000D01*
X118643397Y-55119745D01*
X118641080Y-55113091D01*
X118586064Y-54955106D01*
X118586062Y-54955103D01*
X118583745Y-54948448D01*
X118487626Y-54794624D01*
X118485215Y-54792196D01*
X118459117Y-54727716D01*
X118458500Y-54715263D01*
X118458500Y-38498144D01*
X118459578Y-38481698D01*
X118462673Y-38458188D01*
X118463751Y-38450000D01*
X118442838Y-38291149D01*
X118381524Y-38143124D01*
X118308478Y-38047929D01*
X118308474Y-38047925D01*
X118300684Y-38037773D01*
X118289016Y-38022566D01*
X118289013Y-38022563D01*
X118283987Y-38016013D01*
X118266429Y-38002540D01*
X118258621Y-37996548D01*
X118246230Y-37985681D01*
X117755710Y-37495161D01*
X117721684Y-37432849D01*
X117726749Y-37362034D01*
X117755710Y-37316971D01*
X118388911Y-36683770D01*
X118403323Y-36671384D01*
X118414918Y-36662851D01*
X118414923Y-36662846D01*
X118420818Y-36658508D01*
X118425557Y-36652930D01*
X118425560Y-36652927D01*
X118455035Y-36618232D01*
X118461965Y-36610716D01*
X118467660Y-36605021D01*
X118485281Y-36582749D01*
X118488072Y-36579345D01*
X118530591Y-36529297D01*
X118530592Y-36529295D01*
X118535333Y-36523715D01*
X118538661Y-36517199D01*
X118542028Y-36512150D01*
X118545195Y-36507021D01*
X118549734Y-36501284D01*
X118580655Y-36435125D01*
X118582561Y-36431225D01*
X118583271Y-36429834D01*
X118615769Y-36366192D01*
X118617508Y-36359084D01*
X118619607Y-36353441D01*
X118621524Y-36347678D01*
X118624622Y-36341050D01*
X118639487Y-36269583D01*
X118640457Y-36265299D01*
X118649917Y-36226639D01*
X118657808Y-36194390D01*
X118658500Y-36183236D01*
X118658536Y-36183238D01*
X118658775Y-36179245D01*
X118659149Y-36175053D01*
X118660640Y-36167885D01*
X118658546Y-36090479D01*
X118658500Y-36087072D01*
X118658500Y-26236999D01*
X118675381Y-26173999D01*
X118684345Y-26158474D01*
X118728321Y-26082305D01*
X118731223Y-26077279D01*
X118731224Y-26077278D01*
X118734527Y-26071556D01*
X118793542Y-25889928D01*
X118808277Y-25749737D01*
X118812814Y-25706565D01*
X118813504Y-25700000D01*
X118808460Y-25652005D01*
X118794232Y-25516635D01*
X118794232Y-25516633D01*
X118793542Y-25510072D01*
X118734527Y-25328444D01*
X118729966Y-25320543D01*
X118668123Y-25213429D01*
X118639040Y-25163056D01*
X118557745Y-25072768D01*
X118515675Y-25026045D01*
X118515674Y-25026044D01*
X118511253Y-25021134D01*
X118356752Y-24908882D01*
X118350724Y-24906198D01*
X118350722Y-24906197D01*
X118188319Y-24833891D01*
X118188318Y-24833891D01*
X118182288Y-24831206D01*
X118088888Y-24811353D01*
X118001944Y-24792872D01*
X118001939Y-24792872D01*
X117995487Y-24791500D01*
X117804513Y-24791500D01*
X117798061Y-24792872D01*
X117798056Y-24792872D01*
X117711112Y-24811353D01*
X117617712Y-24831206D01*
X117611682Y-24833891D01*
X117611681Y-24833891D01*
X117449278Y-24906197D01*
X117449276Y-24906198D01*
X117443248Y-24908882D01*
X117288747Y-25021134D01*
X117284334Y-25026036D01*
X117284332Y-25026037D01*
X117262926Y-25049811D01*
X117202480Y-25087050D01*
X117169290Y-25091500D01*
X107654239Y-25091500D01*
X107586118Y-25071498D01*
X107565144Y-25054595D01*
X107275020Y-24764471D01*
X134700884Y-24764471D01*
X134704570Y-24769740D01*
X134912121Y-24896927D01*
X134920915Y-24901408D01*
X135149242Y-24995984D01*
X135158627Y-24999033D01*
X135398940Y-25056728D01*
X135408687Y-25058271D01*
X135655070Y-25077662D01*
X135664930Y-25077662D01*
X135911313Y-25058271D01*
X135921060Y-25056728D01*
X136161373Y-24999033D01*
X136170758Y-24995984D01*
X136399085Y-24901408D01*
X136407879Y-24896927D01*
X136613928Y-24770660D01*
X136617968Y-24764471D01*
X139780884Y-24764471D01*
X139784570Y-24769740D01*
X139992121Y-24896927D01*
X140000915Y-24901408D01*
X140229242Y-24995984D01*
X140238627Y-24999033D01*
X140478940Y-25056728D01*
X140488687Y-25058271D01*
X140735070Y-25077662D01*
X140744930Y-25077662D01*
X140991313Y-25058271D01*
X141001060Y-25056728D01*
X141241373Y-24999033D01*
X141250758Y-24995984D01*
X141479085Y-24901408D01*
X141487879Y-24896927D01*
X141693928Y-24770660D01*
X141699190Y-24762599D01*
X141693183Y-24752393D01*
X140752812Y-23812022D01*
X140738868Y-23804408D01*
X140737035Y-23804539D01*
X140730420Y-23808790D01*
X139788276Y-24750934D01*
X139780884Y-24764471D01*
X136617968Y-24764471D01*
X136619190Y-24762599D01*
X136613183Y-24752393D01*
X135672812Y-23812022D01*
X135658868Y-23804408D01*
X135657035Y-23804539D01*
X135650420Y-23808790D01*
X134708276Y-24750934D01*
X134700884Y-24764471D01*
X107275020Y-24764471D01*
X107195405Y-24684856D01*
X107161379Y-24622544D01*
X107158500Y-24595761D01*
X107158500Y-23444930D01*
X134022338Y-23444930D01*
X134041729Y-23691313D01*
X134043272Y-23701060D01*
X134100967Y-23941373D01*
X134104016Y-23950758D01*
X134198592Y-24179085D01*
X134203073Y-24187879D01*
X134329340Y-24393928D01*
X134337401Y-24399190D01*
X134347607Y-24393183D01*
X135287978Y-23452812D01*
X135294356Y-23441132D01*
X136024408Y-23441132D01*
X136024539Y-23442965D01*
X136028790Y-23449580D01*
X136970934Y-24391724D01*
X136984471Y-24399116D01*
X136989740Y-24395430D01*
X137116927Y-24187879D01*
X137121408Y-24179085D01*
X137215984Y-23950758D01*
X137219033Y-23941373D01*
X137276728Y-23701060D01*
X137278271Y-23691313D01*
X137297662Y-23444930D01*
X139102338Y-23444930D01*
X139121729Y-23691313D01*
X139123272Y-23701060D01*
X139180967Y-23941373D01*
X139184016Y-23950758D01*
X139278592Y-24179085D01*
X139283073Y-24187879D01*
X139409340Y-24393928D01*
X139417401Y-24399190D01*
X139427607Y-24393183D01*
X140367978Y-23452812D01*
X140374356Y-23441132D01*
X141104408Y-23441132D01*
X141104539Y-23442965D01*
X141108790Y-23449580D01*
X142050934Y-24391724D01*
X142064471Y-24399116D01*
X142069740Y-24395430D01*
X142196927Y-24187879D01*
X142201408Y-24179085D01*
X142295984Y-23950758D01*
X142299033Y-23941373D01*
X142356728Y-23701060D01*
X142358271Y-23691313D01*
X142377662Y-23444930D01*
X142377662Y-23435070D01*
X142358271Y-23188687D01*
X142356728Y-23178940D01*
X142299033Y-22938627D01*
X142295984Y-22929242D01*
X142201408Y-22700915D01*
X142196927Y-22692121D01*
X142070660Y-22486072D01*
X142062599Y-22480810D01*
X142052393Y-22486817D01*
X141112022Y-23427188D01*
X141104408Y-23441132D01*
X140374356Y-23441132D01*
X140375592Y-23438868D01*
X140375461Y-23437035D01*
X140371210Y-23430420D01*
X139429066Y-22488276D01*
X139415529Y-22480884D01*
X139410260Y-22484570D01*
X139283073Y-22692121D01*
X139278592Y-22700915D01*
X139184016Y-22929242D01*
X139180967Y-22938627D01*
X139123272Y-23178940D01*
X139121729Y-23188687D01*
X139102338Y-23435070D01*
X139102338Y-23444930D01*
X137297662Y-23444930D01*
X137297662Y-23435070D01*
X137278271Y-23188687D01*
X137276728Y-23178940D01*
X137219033Y-22938627D01*
X137215984Y-22929242D01*
X137121408Y-22700915D01*
X137116927Y-22692121D01*
X136990660Y-22486072D01*
X136982599Y-22480810D01*
X136972393Y-22486817D01*
X136032022Y-23427188D01*
X136024408Y-23441132D01*
X135294356Y-23441132D01*
X135295592Y-23438868D01*
X135295461Y-23437035D01*
X135291210Y-23430420D01*
X134349066Y-22488276D01*
X134335529Y-22480884D01*
X134330260Y-22484570D01*
X134203073Y-22692121D01*
X134198592Y-22700915D01*
X134104016Y-22929242D01*
X134100967Y-22938627D01*
X134043272Y-23178940D01*
X134041729Y-23188687D01*
X134022338Y-23435070D01*
X134022338Y-23444930D01*
X107158500Y-23444930D01*
X107158500Y-22117401D01*
X134700810Y-22117401D01*
X134706817Y-22127607D01*
X135647188Y-23067978D01*
X135661132Y-23075592D01*
X135662965Y-23075461D01*
X135669580Y-23071210D01*
X136611724Y-22129066D01*
X136619116Y-22115529D01*
X136615430Y-22110260D01*
X136407879Y-21983073D01*
X136399085Y-21978592D01*
X136170758Y-21884016D01*
X136161373Y-21880967D01*
X135921060Y-21823272D01*
X135911313Y-21821729D01*
X135664930Y-21802338D01*
X135655070Y-21802338D01*
X135408687Y-21821729D01*
X135398940Y-21823272D01*
X135158627Y-21880967D01*
X135149242Y-21884016D01*
X134920915Y-21978592D01*
X134912121Y-21983073D01*
X134706072Y-22109340D01*
X134700810Y-22117401D01*
X107158500Y-22117401D01*
X107158500Y-21790766D01*
X107178502Y-21722645D01*
X107219133Y-21683048D01*
X107353317Y-21601623D01*
X107395639Y-21564898D01*
X107523412Y-21454023D01*
X107523414Y-21454021D01*
X107527445Y-21450523D01*
X107589089Y-21375343D01*
X107670240Y-21276373D01*
X107670244Y-21276367D01*
X107673624Y-21272245D01*
X107691552Y-21240750D01*
X107742632Y-21191445D01*
X107812262Y-21177583D01*
X107878333Y-21203566D01*
X107905573Y-21232716D01*
X107910983Y-21240752D01*
X107987441Y-21354319D01*
X107991120Y-21358176D01*
X107991122Y-21358178D01*
X108007497Y-21375343D01*
X108146576Y-21521135D01*
X108331542Y-21658754D01*
X108336293Y-21661170D01*
X108336297Y-21661172D01*
X108399481Y-21693296D01*
X108537051Y-21763240D01*
X108542145Y-21764822D01*
X108542148Y-21764823D01*
X108680927Y-21807915D01*
X108757227Y-21831607D01*
X108762516Y-21832308D01*
X108980489Y-21861198D01*
X108980494Y-21861198D01*
X108985774Y-21861898D01*
X108991103Y-21861698D01*
X108991105Y-21861698D01*
X109100966Y-21857574D01*
X109216158Y-21853249D01*
X109441791Y-21805907D01*
X109446750Y-21803949D01*
X109446752Y-21803948D01*
X109651256Y-21723185D01*
X109651258Y-21723184D01*
X109656221Y-21721224D01*
X109661525Y-21718006D01*
X109848757Y-21604390D01*
X109848760Y-21604388D01*
X109853317Y-21601623D01*
X109895639Y-21564898D01*
X110023412Y-21454023D01*
X110023414Y-21454021D01*
X110027445Y-21450523D01*
X110089089Y-21375343D01*
X110170240Y-21276373D01*
X110170244Y-21276367D01*
X110173624Y-21272245D01*
X110176740Y-21266772D01*
X110285032Y-21076529D01*
X110287675Y-21071886D01*
X110350066Y-20900000D01*
X136661758Y-20900000D01*
X136680696Y-21140634D01*
X136681850Y-21145441D01*
X136681851Y-21145447D01*
X136710914Y-21266500D01*
X136737045Y-21375343D01*
X136738938Y-21379914D01*
X136738939Y-21379916D01*
X136816462Y-21567072D01*
X136829416Y-21598347D01*
X136955536Y-21804156D01*
X137112299Y-21987701D01*
X137295844Y-22144464D01*
X137501653Y-22270584D01*
X137506223Y-22272477D01*
X137506227Y-22272479D01*
X137622412Y-22320604D01*
X137724657Y-22362955D01*
X137807039Y-22382733D01*
X137954553Y-22418149D01*
X137954559Y-22418150D01*
X137959366Y-22419304D01*
X138200000Y-22438242D01*
X138440634Y-22419304D01*
X138445441Y-22418150D01*
X138445447Y-22418149D01*
X138592961Y-22382733D01*
X138675343Y-22362955D01*
X138777588Y-22320604D01*
X138893773Y-22272479D01*
X138893777Y-22272477D01*
X138898347Y-22270584D01*
X139104156Y-22144464D01*
X139135843Y-22117401D01*
X139780810Y-22117401D01*
X139786817Y-22127607D01*
X140727188Y-23067978D01*
X140741132Y-23075592D01*
X140742965Y-23075461D01*
X140749580Y-23071210D01*
X141691724Y-22129066D01*
X141699116Y-22115529D01*
X141695430Y-22110260D01*
X141487879Y-21983073D01*
X141479085Y-21978592D01*
X141250758Y-21884016D01*
X141241373Y-21880967D01*
X141001060Y-21823272D01*
X140991313Y-21821729D01*
X140744930Y-21802338D01*
X140735070Y-21802338D01*
X140488687Y-21821729D01*
X140478940Y-21823272D01*
X140238627Y-21880967D01*
X140229242Y-21884016D01*
X140000915Y-21978592D01*
X139992121Y-21983073D01*
X139786072Y-22109340D01*
X139780810Y-22117401D01*
X139135843Y-22117401D01*
X139287701Y-21987701D01*
X139444464Y-21804156D01*
X139570584Y-21598347D01*
X139583539Y-21567072D01*
X139661061Y-21379916D01*
X139661062Y-21379914D01*
X139662955Y-21375343D01*
X139689086Y-21266500D01*
X139718149Y-21145447D01*
X139718150Y-21145441D01*
X139719304Y-21140634D01*
X139738242Y-20900000D01*
X139719304Y-20659366D01*
X139718150Y-20654559D01*
X139718149Y-20654553D01*
X139664110Y-20429469D01*
X139662955Y-20424657D01*
X139570584Y-20201653D01*
X139444464Y-19995844D01*
X139287701Y-19812299D01*
X139138034Y-19684471D01*
X139780884Y-19684471D01*
X139784570Y-19689740D01*
X139992121Y-19816927D01*
X140000915Y-19821408D01*
X140229242Y-19915984D01*
X140238627Y-19919033D01*
X140478940Y-19976728D01*
X140488687Y-19978271D01*
X140735070Y-19997662D01*
X140744930Y-19997662D01*
X140991313Y-19978271D01*
X141001060Y-19976728D01*
X141241373Y-19919033D01*
X141250758Y-19915984D01*
X141479085Y-19821408D01*
X141487879Y-19816927D01*
X141693928Y-19690660D01*
X141699190Y-19682599D01*
X141693183Y-19672393D01*
X140752812Y-18732022D01*
X140738868Y-18724408D01*
X140737035Y-18724539D01*
X140730420Y-18728790D01*
X139788276Y-19670934D01*
X139780884Y-19684471D01*
X139138034Y-19684471D01*
X139104156Y-19655536D01*
X138898347Y-19529416D01*
X138893777Y-19527523D01*
X138893773Y-19527521D01*
X138679916Y-19438939D01*
X138679914Y-19438938D01*
X138675343Y-19437045D01*
X138592961Y-19417267D01*
X138445447Y-19381851D01*
X138445441Y-19381850D01*
X138440634Y-19380696D01*
X138200000Y-19361758D01*
X137959366Y-19380696D01*
X137954559Y-19381850D01*
X137954553Y-19381851D01*
X137807039Y-19417267D01*
X137724657Y-19437045D01*
X137720086Y-19438938D01*
X137720084Y-19438939D01*
X137506227Y-19527521D01*
X137506223Y-19527523D01*
X137501653Y-19529416D01*
X137295844Y-19655536D01*
X137112299Y-19812299D01*
X136955536Y-19995844D01*
X136829416Y-20201653D01*
X136737045Y-20424657D01*
X136735890Y-20429469D01*
X136681851Y-20654553D01*
X136681850Y-20654559D01*
X136680696Y-20659366D01*
X136661758Y-20900000D01*
X110350066Y-20900000D01*
X110366337Y-20855175D01*
X110401745Y-20659366D01*
X110406623Y-20632392D01*
X110406624Y-20632385D01*
X110407361Y-20628308D01*
X110408500Y-20604156D01*
X110408500Y-20192110D01*
X110400189Y-20094165D01*
X110394371Y-20025591D01*
X110394370Y-20025587D01*
X110393920Y-20020280D01*
X110392582Y-20015125D01*
X110392581Y-20015119D01*
X110337343Y-19802297D01*
X110337342Y-19802293D01*
X110336001Y-19797128D01*
X110285253Y-19684471D01*
X134700884Y-19684471D01*
X134704570Y-19689740D01*
X134912121Y-19816927D01*
X134920915Y-19821408D01*
X135149242Y-19915984D01*
X135158627Y-19919033D01*
X135398940Y-19976728D01*
X135408687Y-19978271D01*
X135655070Y-19997662D01*
X135664930Y-19997662D01*
X135911313Y-19978271D01*
X135921060Y-19976728D01*
X136161373Y-19919033D01*
X136170758Y-19915984D01*
X136399085Y-19821408D01*
X136407879Y-19816927D01*
X136613928Y-19690660D01*
X136619190Y-19682599D01*
X136613183Y-19672393D01*
X135672812Y-18732022D01*
X135658868Y-18724408D01*
X135657035Y-18724539D01*
X135650420Y-18728790D01*
X134708276Y-19670934D01*
X134700884Y-19684471D01*
X110285253Y-19684471D01*
X110241312Y-19586925D01*
X110112559Y-19395681D01*
X110095212Y-19377496D01*
X109957103Y-19232722D01*
X109953424Y-19228865D01*
X109947246Y-19224268D01*
X109772740Y-19094432D01*
X109772741Y-19094432D01*
X109768458Y-19091246D01*
X109763707Y-19088830D01*
X109763703Y-19088828D01*
X109645588Y-19028776D01*
X109562949Y-18986760D01*
X109557855Y-18985178D01*
X109557852Y-18985177D01*
X109347871Y-18919976D01*
X109342773Y-18918393D01*
X109337484Y-18917692D01*
X109119511Y-18888802D01*
X109119506Y-18888802D01*
X109114226Y-18888102D01*
X109108897Y-18888302D01*
X109108895Y-18888302D01*
X108999034Y-18892427D01*
X108883842Y-18896751D01*
X108878623Y-18897846D01*
X108856566Y-18902474D01*
X108658209Y-18944093D01*
X108653250Y-18946051D01*
X108653248Y-18946052D01*
X108448744Y-19026815D01*
X108448742Y-19026816D01*
X108443779Y-19028776D01*
X108439220Y-19031543D01*
X108439217Y-19031544D01*
X108301449Y-19115144D01*
X108246683Y-19148377D01*
X108242653Y-19151874D01*
X108149484Y-19232722D01*
X108072555Y-19299477D01*
X108062513Y-19311724D01*
X107929760Y-19473627D01*
X107929756Y-19473633D01*
X107926376Y-19477755D01*
X107908448Y-19509250D01*
X107857368Y-19558555D01*
X107787738Y-19572417D01*
X107721667Y-19546434D01*
X107694427Y-19517284D01*
X107633769Y-19427186D01*
X107612559Y-19395681D01*
X107595212Y-19377496D01*
X107457103Y-19232722D01*
X107453424Y-19228865D01*
X107447246Y-19224268D01*
X107272740Y-19094432D01*
X107272741Y-19094432D01*
X107268458Y-19091246D01*
X107263707Y-19088830D01*
X107263703Y-19088828D01*
X107145588Y-19028776D01*
X107062949Y-18986760D01*
X107057855Y-18985178D01*
X107057852Y-18985177D01*
X106847871Y-18919976D01*
X106842773Y-18918393D01*
X106837484Y-18917692D01*
X106619511Y-18888802D01*
X106619506Y-18888802D01*
X106614226Y-18888102D01*
X106608897Y-18888302D01*
X106608895Y-18888302D01*
X106499034Y-18892427D01*
X106383842Y-18896751D01*
X106378623Y-18897846D01*
X106356566Y-18902474D01*
X106158209Y-18944093D01*
X106153250Y-18946051D01*
X106153248Y-18946052D01*
X105948744Y-19026815D01*
X105948742Y-19026816D01*
X105943779Y-19028776D01*
X105939220Y-19031543D01*
X105939217Y-19031544D01*
X105801449Y-19115144D01*
X105746683Y-19148377D01*
X105742653Y-19151874D01*
X105649484Y-19232722D01*
X105572555Y-19299477D01*
X105562513Y-19311724D01*
X105429760Y-19473627D01*
X105429756Y-19473633D01*
X105426376Y-19477755D01*
X105423738Y-19482390D01*
X105423733Y-19482398D01*
X105408171Y-19509735D01*
X105357088Y-19559041D01*
X105287458Y-19572902D01*
X105221387Y-19546918D01*
X105194149Y-19517768D01*
X105115148Y-19400422D01*
X105108481Y-19392130D01*
X104956772Y-19233100D01*
X104948814Y-19226059D01*
X104772475Y-19094859D01*
X104763438Y-19089255D01*
X104567516Y-18989643D01*
X104557665Y-18985643D01*
X104347760Y-18920466D01*
X104337376Y-18918183D01*
X104321957Y-18916139D01*
X104307793Y-18918335D01*
X104304000Y-18931522D01*
X104304000Y-21816192D01*
X103796000Y-21816192D01*
X103796000Y-18933808D01*
X103792027Y-18920277D01*
X103781420Y-18918752D01*
X103663579Y-18943477D01*
X103653383Y-18946537D01*
X103448971Y-19027263D01*
X103439439Y-19031994D01*
X103251538Y-19146016D01*
X103242948Y-19152280D01*
X103076948Y-19296327D01*
X103069530Y-19303956D01*
X103043609Y-19335569D01*
X102984949Y-19375564D01*
X102913979Y-19377496D01*
X102853230Y-19340752D01*
X102839030Y-19321982D01*
X102837257Y-19319116D01*
X102748478Y-19175652D01*
X102623303Y-19050695D01*
X102592965Y-19031994D01*
X102478968Y-18961725D01*
X102478966Y-18961724D01*
X102472738Y-18957885D01*
X102359353Y-18920277D01*
X102311389Y-18904368D01*
X102311387Y-18904368D01*
X102304861Y-18902203D01*
X102298025Y-18901503D01*
X102298022Y-18901502D01*
X102254969Y-18897091D01*
X102200400Y-18891500D01*
X100899600Y-18891500D01*
X100896354Y-18891837D01*
X100896350Y-18891837D01*
X100800692Y-18901762D01*
X100800688Y-18901763D01*
X100793834Y-18902474D01*
X100787298Y-18904655D01*
X100787296Y-18904655D01*
X100656969Y-18948136D01*
X100626054Y-18958450D01*
X100475652Y-19051522D01*
X100350695Y-19176697D01*
X100346855Y-19182927D01*
X100346854Y-19182928D01*
X100262861Y-19319190D01*
X100257885Y-19327262D01*
X100255581Y-19334209D01*
X100206432Y-19482390D01*
X100202203Y-19495139D01*
X100201503Y-19501975D01*
X100201502Y-19501978D01*
X100199934Y-19517284D01*
X100191500Y-19599600D01*
X100191500Y-21141005D01*
X100171498Y-21209126D01*
X100117842Y-21255619D01*
X100058761Y-21264774D01*
X100058663Y-21266772D01*
X100054643Y-21266575D01*
X100054626Y-21266575D01*
X100053101Y-21266500D01*
X99897154Y-21266500D01*
X99739434Y-21281548D01*
X99536466Y-21341092D01*
X99531139Y-21343836D01*
X99531138Y-21343836D01*
X99353751Y-21435196D01*
X99353748Y-21435198D01*
X99348420Y-21437942D01*
X99182080Y-21568604D01*
X99178148Y-21573135D01*
X99178145Y-21573138D01*
X99082771Y-21683047D01*
X99043448Y-21728363D01*
X99040448Y-21733549D01*
X99040445Y-21733553D01*
X98971084Y-21853449D01*
X98937527Y-21911454D01*
X98868139Y-22111271D01*
X98867278Y-22117206D01*
X98867278Y-22117208D01*
X98845040Y-22270584D01*
X98837787Y-22320604D01*
X97358500Y-22320604D01*
X97358500Y-19204239D01*
X97378502Y-19136118D01*
X97395405Y-19115144D01*
X98145619Y-18364930D01*
X134022338Y-18364930D01*
X134041729Y-18611313D01*
X134043272Y-18621060D01*
X134100967Y-18861373D01*
X134104016Y-18870758D01*
X134198592Y-19099085D01*
X134203073Y-19107879D01*
X134329340Y-19313928D01*
X134337401Y-19319190D01*
X134347607Y-19313183D01*
X135287978Y-18372812D01*
X135294356Y-18361132D01*
X136024408Y-18361132D01*
X136024539Y-18362965D01*
X136028790Y-18369580D01*
X136970934Y-19311724D01*
X136984471Y-19319116D01*
X136989740Y-19315430D01*
X137116927Y-19107879D01*
X137121408Y-19099085D01*
X137215984Y-18870758D01*
X137219033Y-18861373D01*
X137276728Y-18621060D01*
X137278271Y-18611313D01*
X137297662Y-18364930D01*
X139102338Y-18364930D01*
X139121729Y-18611313D01*
X139123272Y-18621060D01*
X139180967Y-18861373D01*
X139184016Y-18870758D01*
X139278592Y-19099085D01*
X139283073Y-19107879D01*
X139409340Y-19313928D01*
X139417401Y-19319190D01*
X139427607Y-19313183D01*
X140367978Y-18372812D01*
X140374356Y-18361132D01*
X141104408Y-18361132D01*
X141104539Y-18362965D01*
X141108790Y-18369580D01*
X142050934Y-19311724D01*
X142064471Y-19319116D01*
X142069740Y-19315430D01*
X142196927Y-19107879D01*
X142201408Y-19099085D01*
X142295984Y-18870758D01*
X142299033Y-18861373D01*
X142356728Y-18621060D01*
X142358271Y-18611313D01*
X142377662Y-18364930D01*
X142377662Y-18355070D01*
X142358271Y-18108687D01*
X142356728Y-18098940D01*
X142299033Y-17858627D01*
X142295984Y-17849242D01*
X142201408Y-17620915D01*
X142196927Y-17612121D01*
X142070660Y-17406072D01*
X142062599Y-17400810D01*
X142052393Y-17406817D01*
X141112022Y-18347188D01*
X141104408Y-18361132D01*
X140374356Y-18361132D01*
X140375592Y-18358868D01*
X140375461Y-18357035D01*
X140371210Y-18350420D01*
X139429066Y-17408276D01*
X139415529Y-17400884D01*
X139410260Y-17404570D01*
X139283073Y-17612121D01*
X139278592Y-17620915D01*
X139184016Y-17849242D01*
X139180967Y-17858627D01*
X139123272Y-18098940D01*
X139121729Y-18108687D01*
X139102338Y-18355070D01*
X139102338Y-18364930D01*
X137297662Y-18364930D01*
X137297662Y-18355070D01*
X137278271Y-18108687D01*
X137276728Y-18098940D01*
X137219033Y-17858627D01*
X137215984Y-17849242D01*
X137121408Y-17620915D01*
X137116927Y-17612121D01*
X136990660Y-17406072D01*
X136982599Y-17400810D01*
X136972393Y-17406817D01*
X136032022Y-18347188D01*
X136024408Y-18361132D01*
X135294356Y-18361132D01*
X135295592Y-18358868D01*
X135295461Y-18357035D01*
X135291210Y-18350420D01*
X134349066Y-17408276D01*
X134335529Y-17400884D01*
X134330260Y-17404570D01*
X134203073Y-17612121D01*
X134198592Y-17620915D01*
X134104016Y-17849242D01*
X134100967Y-17858627D01*
X134043272Y-18098940D01*
X134041729Y-18108687D01*
X134022338Y-18355070D01*
X134022338Y-18364930D01*
X98145619Y-18364930D01*
X99765144Y-16745405D01*
X99827456Y-16711379D01*
X99854239Y-16708500D01*
X134782872Y-16708500D01*
X134850993Y-16728502D01*
X134897486Y-16782158D01*
X134907590Y-16852432D01*
X134878096Y-16917012D01*
X134848707Y-16941933D01*
X134706072Y-17029340D01*
X134700810Y-17037401D01*
X134706817Y-17047607D01*
X135647188Y-17987978D01*
X135661132Y-17995592D01*
X135662965Y-17995461D01*
X135669580Y-17991210D01*
X136611724Y-17049066D01*
X136619116Y-17035529D01*
X136615430Y-17030260D01*
X136471293Y-16941933D01*
X136423662Y-16889285D01*
X136412055Y-16819244D01*
X136440158Y-16754046D01*
X136499048Y-16714392D01*
X136537128Y-16708500D01*
X139862872Y-16708500D01*
X139930993Y-16728502D01*
X139977486Y-16782158D01*
X139987590Y-16852432D01*
X139958096Y-16917012D01*
X139928707Y-16941933D01*
X139786072Y-17029340D01*
X139780810Y-17037401D01*
X139786817Y-17047607D01*
X140727188Y-17987978D01*
X140741132Y-17995592D01*
X140742965Y-17995461D01*
X140749580Y-17991210D01*
X141691724Y-17049066D01*
X141699116Y-17035529D01*
X141695430Y-17030260D01*
X141551293Y-16941933D01*
X141503662Y-16889285D01*
X141492055Y-16819244D01*
X141520158Y-16754046D01*
X141579048Y-16714392D01*
X141617128Y-16708500D01*
X152295761Y-16708500D01*
X152363882Y-16728502D01*
X152384856Y-16745405D01*
X161314595Y-25675143D01*
X161348621Y-25737455D01*
X161351500Y-25764238D01*
X161351500Y-37075164D01*
X161331498Y-37143285D01*
X161330188Y-37145090D01*
X161329493Y-37145771D01*
X161327894Y-37148253D01*
X161327892Y-37148255D01*
X161319934Y-37160603D01*
X161231235Y-37298238D01*
X161228826Y-37304858D01*
X161228824Y-37304861D01*
X161182240Y-37432849D01*
X161169197Y-37468685D01*
X161146463Y-37648640D01*
X161164163Y-37829160D01*
X161185691Y-37893873D01*
X161188557Y-37902489D01*
X161191080Y-37973441D01*
X161158094Y-38031357D01*
X161134856Y-38054595D01*
X161072544Y-38088621D01*
X161045761Y-38091500D01*
X160479853Y-38091500D01*
X160411732Y-38071498D01*
X160365239Y-38017842D01*
X160355135Y-37947568D01*
X160362065Y-37920756D01*
X160385555Y-37858920D01*
X160385556Y-37858918D01*
X160388055Y-37852338D01*
X160389529Y-37841852D01*
X160412748Y-37676639D01*
X160412748Y-37676636D01*
X160413299Y-37672717D01*
X160413452Y-37661738D01*
X160413561Y-37653962D01*
X160413561Y-37653957D01*
X160413616Y-37650000D01*
X160393397Y-37469745D01*
X160390723Y-37462066D01*
X160336064Y-37305106D01*
X160336062Y-37305103D01*
X160333745Y-37298448D01*
X160237626Y-37144624D01*
X160232664Y-37139627D01*
X160114778Y-37020915D01*
X160114774Y-37020912D01*
X160109815Y-37015918D01*
X160098697Y-37008862D01*
X159981881Y-36934729D01*
X159956666Y-36918727D01*
X159927463Y-36908328D01*
X159792425Y-36860243D01*
X159792420Y-36860242D01*
X159785790Y-36857881D01*
X159778802Y-36857048D01*
X159778799Y-36857047D01*
X159655698Y-36842368D01*
X159605680Y-36836404D01*
X159598677Y-36837140D01*
X159598676Y-36837140D01*
X159432288Y-36854628D01*
X159432286Y-36854629D01*
X159425288Y-36855364D01*
X159253579Y-36913818D01*
X159099088Y-37008862D01*
X159094054Y-37013791D01*
X159092776Y-37014790D01*
X159026782Y-37040967D01*
X159015204Y-37041500D01*
X152754239Y-37041500D01*
X152686118Y-37021498D01*
X152665144Y-37004595D01*
X149971815Y-34311266D01*
X149960948Y-34298875D01*
X149946513Y-34280063D01*
X149941487Y-34273513D01*
X149909575Y-34249026D01*
X149909572Y-34249023D01*
X149869910Y-34218589D01*
X149820929Y-34181004D01*
X149820927Y-34181003D01*
X149814376Y-34175976D01*
X149666351Y-34114662D01*
X149658164Y-34113584D01*
X149658163Y-34113584D01*
X149646958Y-34112109D01*
X149615762Y-34108002D01*
X149547385Y-34099000D01*
X149547382Y-34099000D01*
X149547374Y-34098999D01*
X149515689Y-34094828D01*
X149507500Y-34093750D01*
X149475807Y-34097922D01*
X149459364Y-34099000D01*
X146293442Y-34099000D01*
X146225321Y-34078998D01*
X146192484Y-34048389D01*
X146094233Y-33916815D01*
X146094232Y-33916814D01*
X146090780Y-33912191D01*
X145968578Y-33799229D01*
X145932133Y-33738300D01*
X145934414Y-33667340D01*
X145973538Y-33609830D01*
X146043508Y-33551637D01*
X146047946Y-33547946D01*
X146187032Y-33380713D01*
X146293313Y-33190935D01*
X146295169Y-33185468D01*
X146295171Y-33185463D01*
X146361374Y-32990435D01*
X146361375Y-32990430D01*
X146363230Y-32984966D01*
X146394441Y-32769705D01*
X146396070Y-32707500D01*
X146376167Y-32490900D01*
X146317126Y-32281555D01*
X146220923Y-32086474D01*
X146090780Y-31912191D01*
X146045899Y-31870703D01*
X145968578Y-31799229D01*
X145932133Y-31738300D01*
X145934414Y-31667340D01*
X145973538Y-31609830D01*
X146024903Y-31567111D01*
X146047946Y-31547946D01*
X146187032Y-31380713D01*
X146277506Y-31219160D01*
X146290489Y-31195978D01*
X146290490Y-31195976D01*
X146293313Y-31190935D01*
X146295169Y-31185468D01*
X146295171Y-31185463D01*
X146361374Y-30990435D01*
X146361375Y-30990430D01*
X146363230Y-30984966D01*
X146394441Y-30769705D01*
X146396070Y-30707500D01*
X146376167Y-30490900D01*
X146317126Y-30281555D01*
X146220923Y-30086474D01*
X146170879Y-30019456D01*
X146094233Y-29916815D01*
X146094232Y-29916814D01*
X146090780Y-29912191D01*
X146081263Y-29903393D01*
X145968578Y-29799229D01*
X145932133Y-29738300D01*
X145934414Y-29667340D01*
X145973538Y-29609830D01*
X146043508Y-29551637D01*
X146047946Y-29547946D01*
X146187032Y-29380713D01*
X146293313Y-29190935D01*
X146295169Y-29185468D01*
X146295171Y-29185463D01*
X146361374Y-28990435D01*
X146361375Y-28990430D01*
X146363230Y-28984966D01*
X146394441Y-28769705D01*
X146396070Y-28707500D01*
X146376167Y-28490900D01*
X146317126Y-28281555D01*
X146220923Y-28086474D01*
X146090780Y-27912191D01*
X146010409Y-27837897D01*
X145935297Y-27768464D01*
X145935295Y-27768462D01*
X145931056Y-27764544D01*
X145926172Y-27761463D01*
X145926165Y-27761457D01*
X145871883Y-27727207D01*
X145846541Y-27705552D01*
X145846441Y-27705652D01*
X145845160Y-27704371D01*
X145844342Y-27703672D01*
X145843501Y-27702712D01*
X145220311Y-27079521D01*
X145206368Y-27071908D01*
X145204534Y-27072039D01*
X145197920Y-27076290D01*
X144569876Y-27704335D01*
X144566984Y-27701443D01*
X144544566Y-27724693D01*
X144521124Y-27738640D01*
X144508876Y-27745927D01*
X144345342Y-27889342D01*
X144210681Y-28060158D01*
X144207993Y-28065267D01*
X144191141Y-28097297D01*
X144109405Y-28252654D01*
X144100431Y-28281555D01*
X144067305Y-28388238D01*
X144044903Y-28460382D01*
X144019337Y-28676387D01*
X144033563Y-28893433D01*
X144034984Y-28899029D01*
X144034985Y-28899034D01*
X144078890Y-29071908D01*
X144087105Y-29104253D01*
X144178168Y-29301785D01*
X144181501Y-29306501D01*
X144298722Y-29472364D01*
X144303704Y-29479414D01*
X144307846Y-29483449D01*
X144447241Y-29619241D01*
X144482079Y-29681102D01*
X144477942Y-29751978D01*
X144442399Y-29804226D01*
X144345342Y-29889342D01*
X144341770Y-29893873D01*
X144220322Y-30047929D01*
X144210681Y-30060158D01*
X144207994Y-30065266D01*
X144207111Y-30066625D01*
X144153234Y-30112862D01*
X144101439Y-30124000D01*
X138889003Y-30124000D01*
X138872556Y-30122922D01*
X138850688Y-30120043D01*
X138842500Y-30118965D01*
X138804256Y-30124000D01*
X138690176Y-30139019D01*
X138548233Y-30197814D01*
X138426343Y-30291343D01*
X138421320Y-30297889D01*
X138407882Y-30315402D01*
X138397014Y-30327793D01*
X137645212Y-31079595D01*
X137582900Y-31113621D01*
X137556117Y-31116500D01*
X132889745Y-31116500D01*
X132821624Y-31096498D01*
X132775131Y-31042842D01*
X132765049Y-30972420D01*
X132775689Y-30899034D01*
X132794441Y-30769705D01*
X132796070Y-30707500D01*
X132776167Y-30490900D01*
X132717126Y-30281555D01*
X132620923Y-30086474D01*
X132570879Y-30019456D01*
X132494233Y-29916815D01*
X132494232Y-29916814D01*
X132490780Y-29912191D01*
X132483703Y-29905649D01*
X132335297Y-29768464D01*
X132335295Y-29768462D01*
X132331056Y-29764544D01*
X132326172Y-29761463D01*
X132326165Y-29761457D01*
X132271883Y-29727207D01*
X132246541Y-29705552D01*
X132246441Y-29705652D01*
X132245160Y-29704371D01*
X132244342Y-29703672D01*
X132243501Y-29702712D01*
X131620311Y-29079521D01*
X131606368Y-29071908D01*
X131604534Y-29072039D01*
X131597920Y-29076290D01*
X130969876Y-29704335D01*
X130966984Y-29701443D01*
X130944566Y-29724693D01*
X130913841Y-29742973D01*
X130908876Y-29745927D01*
X130745342Y-29889342D01*
X130741770Y-29893873D01*
X130620322Y-30047929D01*
X130610681Y-30060158D01*
X130509405Y-30252654D01*
X130507692Y-30258171D01*
X130448127Y-30450000D01*
X130444903Y-30460382D01*
X130419337Y-30676387D01*
X130433563Y-30893433D01*
X130434984Y-30899029D01*
X130434985Y-30899034D01*
X130450338Y-30959484D01*
X130447720Y-31030433D01*
X130407160Y-31088703D01*
X130341535Y-31115794D01*
X130328215Y-31116500D01*
X127646501Y-31116500D01*
X127630056Y-31115422D01*
X127600000Y-31111465D01*
X127561757Y-31116500D01*
X127561756Y-31116500D01*
X127447676Y-31131519D01*
X127440042Y-31134681D01*
X127432070Y-31136817D01*
X127431596Y-31135049D01*
X127396231Y-31141895D01*
X127267779Y-31140550D01*
X127090489Y-31178881D01*
X127004111Y-31219160D01*
X126932477Y-31252563D01*
X126932474Y-31252565D01*
X126926098Y-31255538D01*
X126814530Y-31342079D01*
X126811724Y-31344885D01*
X125552013Y-32604595D01*
X125489701Y-32638621D01*
X125462918Y-32641500D01*
X125259165Y-32641500D01*
X125257846Y-32641493D01*
X125167779Y-32640550D01*
X125160901Y-32642037D01*
X125160891Y-32642038D01*
X125125413Y-32649709D01*
X125112838Y-32651769D01*
X125069745Y-32656603D01*
X125038074Y-32667632D01*
X125023265Y-32671795D01*
X124997371Y-32677393D01*
X124997368Y-32677394D01*
X124990490Y-32678881D01*
X124951187Y-32697208D01*
X124939411Y-32701990D01*
X124898448Y-32716255D01*
X124892473Y-32719989D01*
X124892470Y-32719990D01*
X124870005Y-32734027D01*
X124856488Y-32741366D01*
X124832481Y-32752561D01*
X124832477Y-32752563D01*
X124826098Y-32755538D01*
X124807834Y-32769705D01*
X124791844Y-32782108D01*
X124781395Y-32789397D01*
X124744624Y-32812374D01*
X124739625Y-32817339D01*
X124739623Y-32817340D01*
X124715815Y-32840983D01*
X124715192Y-32841566D01*
X124714530Y-32842079D01*
X124688681Y-32867928D01*
X124615918Y-32940185D01*
X124615259Y-32941223D01*
X124614153Y-32942456D01*
X123119843Y-34436765D01*
X123118906Y-34437693D01*
X123054493Y-34500771D01*
X123031002Y-34537221D01*
X123023583Y-34547546D01*
X122996524Y-34581443D01*
X122993459Y-34587784D01*
X122993458Y-34587785D01*
X122981928Y-34611637D01*
X122974399Y-34625054D01*
X122956235Y-34653238D01*
X122953827Y-34659855D01*
X122953824Y-34659860D01*
X122941408Y-34693973D01*
X122936447Y-34705716D01*
X122920646Y-34738403D01*
X122920644Y-34738408D01*
X122917579Y-34744749D01*
X122915996Y-34751607D01*
X122915995Y-34751609D01*
X122910035Y-34777426D01*
X122905668Y-34792169D01*
X122894197Y-34823685D01*
X122893314Y-34830675D01*
X122893312Y-34830683D01*
X122888762Y-34866701D01*
X122886526Y-34879253D01*
X122883253Y-34893433D01*
X122876776Y-34921485D01*
X122876751Y-34928531D01*
X122876751Y-34928534D01*
X122876634Y-34962056D01*
X122876605Y-34962938D01*
X122876500Y-34963769D01*
X122876500Y-35000419D01*
X122876499Y-35000859D01*
X122876158Y-35098658D01*
X122876143Y-35102870D01*
X122876411Y-35104070D01*
X122876500Y-35105707D01*
X122876500Y-53225845D01*
X122875506Y-53241637D01*
X122871463Y-53273640D01*
X122875189Y-53311642D01*
X122875973Y-53319634D01*
X122876378Y-53324901D01*
X122876500Y-53327083D01*
X122876500Y-53330610D01*
X122876893Y-53334111D01*
X122880763Y-53368617D01*
X122880947Y-53370367D01*
X122889163Y-53454160D01*
X122890967Y-53459582D01*
X122891603Y-53465255D01*
X122893920Y-53471909D01*
X122893921Y-53471913D01*
X122919286Y-53544752D01*
X122919853Y-53546417D01*
X122944193Y-53619587D01*
X122944196Y-53619593D01*
X122946418Y-53626273D01*
X122949377Y-53631159D01*
X122951255Y-53636552D01*
X122954989Y-53642527D01*
X122954990Y-53642530D01*
X122995873Y-53707959D01*
X122996793Y-53709455D01*
X123036729Y-53775396D01*
X123040380Y-53781424D01*
X123044347Y-53785532D01*
X123047374Y-53790376D01*
X123052336Y-53795373D01*
X123052341Y-53795379D01*
X123106692Y-53850110D01*
X123107924Y-53851367D01*
X123161490Y-53906837D01*
X123161494Y-53906840D01*
X123166382Y-53911902D01*
X123171159Y-53915028D01*
X123175185Y-53919082D01*
X123181125Y-53922852D01*
X123181128Y-53922854D01*
X123246272Y-53964196D01*
X123247749Y-53965148D01*
X123279581Y-53985978D01*
X123318159Y-54011222D01*
X123323512Y-54013213D01*
X123328334Y-54016273D01*
X123407743Y-54044549D01*
X123409210Y-54045083D01*
X123488168Y-54074448D01*
X123493831Y-54075204D01*
X123499210Y-54077119D01*
X123506200Y-54077952D01*
X123506202Y-54077953D01*
X123545485Y-54082637D01*
X123582814Y-54087088D01*
X123584477Y-54087299D01*
X123667961Y-54098438D01*
X123673652Y-54097920D01*
X123679320Y-54098596D01*
X123686323Y-54097860D01*
X123686324Y-54097860D01*
X123715338Y-54094811D01*
X123763064Y-54089795D01*
X123764763Y-54089629D01*
X123796648Y-54086727D01*
X123841582Y-54082637D01*
X123841584Y-54082637D01*
X123848600Y-54081998D01*
X123854032Y-54080233D01*
X123859712Y-54079636D01*
X123939425Y-54052500D01*
X123941075Y-54051951D01*
X124014406Y-54028125D01*
X124014409Y-54028124D01*
X124021108Y-54025947D01*
X124026013Y-54023023D01*
X124031421Y-54021182D01*
X124103123Y-53977070D01*
X124104629Y-53976158D01*
X124170858Y-53936678D01*
X124170859Y-53936677D01*
X124176912Y-53933069D01*
X124181048Y-53929130D01*
X124185912Y-53926138D01*
X124246032Y-53867265D01*
X124247296Y-53866044D01*
X124303165Y-53812840D01*
X124303166Y-53812838D01*
X124308266Y-53807982D01*
X124311427Y-53803225D01*
X124315507Y-53799229D01*
X124319321Y-53793311D01*
X124319325Y-53793306D01*
X124361124Y-53728447D01*
X124362087Y-53726975D01*
X124404743Y-53662773D01*
X124404745Y-53662768D01*
X124408643Y-53656902D01*
X124410671Y-53651562D01*
X124413765Y-53646762D01*
X124442526Y-53567740D01*
X124443136Y-53566100D01*
X124470552Y-53493929D01*
X124470554Y-53493923D01*
X124473055Y-53487338D01*
X124473850Y-53481680D01*
X124475803Y-53476315D01*
X124486349Y-53392839D01*
X124486580Y-53391104D01*
X124489740Y-53368617D01*
X124498299Y-53307717D01*
X124498616Y-53285000D01*
X124494285Y-53246388D01*
X124493500Y-53232343D01*
X124493500Y-35402082D01*
X124513502Y-35333961D01*
X124530405Y-35312987D01*
X125547987Y-34295405D01*
X125610299Y-34261379D01*
X125637082Y-34258500D01*
X125840786Y-34258500D01*
X125842106Y-34258507D01*
X125932221Y-34259451D01*
X125974597Y-34250289D01*
X125987163Y-34248231D01*
X126030255Y-34243397D01*
X126036906Y-34241081D01*
X126036910Y-34241080D01*
X126061930Y-34232367D01*
X126076742Y-34228204D01*
X126102619Y-34222609D01*
X126109510Y-34221119D01*
X126148813Y-34202792D01*
X126160589Y-34198010D01*
X126201552Y-34183745D01*
X126207527Y-34180011D01*
X126207530Y-34180010D01*
X126229995Y-34165973D01*
X126243512Y-34158634D01*
X126267514Y-34147441D01*
X126267515Y-34147440D01*
X126273902Y-34144462D01*
X126308153Y-34117894D01*
X126318612Y-34110598D01*
X126349404Y-34091358D01*
X126349407Y-34091356D01*
X126355376Y-34087626D01*
X126384179Y-34059024D01*
X126384804Y-34058439D01*
X126385470Y-34057922D01*
X126411460Y-34031932D01*
X126484082Y-33959815D01*
X126484740Y-33958778D01*
X126485843Y-33957549D01*
X127953947Y-32489445D01*
X127956136Y-32486702D01*
X127956143Y-32486695D01*
X128034081Y-32389062D01*
X128038476Y-32383557D01*
X128041542Y-32377215D01*
X128041545Y-32377210D01*
X128052447Y-32354659D01*
X128100104Y-32302035D01*
X128165886Y-32283500D01*
X130328768Y-32283500D01*
X130396889Y-32303502D01*
X130443382Y-32357158D01*
X130453486Y-32427432D01*
X130449101Y-32446861D01*
X130444903Y-32460382D01*
X130419337Y-32676387D01*
X130433563Y-32893433D01*
X130434984Y-32899029D01*
X130434985Y-32899034D01*
X130485684Y-33098658D01*
X130487105Y-33104253D01*
X130578168Y-33301785D01*
X130703704Y-33479414D01*
X130707846Y-33483449D01*
X130847241Y-33619241D01*
X130882079Y-33681102D01*
X130877942Y-33751978D01*
X130842399Y-33804226D01*
X130745342Y-33889342D01*
X130741770Y-33893873D01*
X130615007Y-34054671D01*
X130610681Y-34060158D01*
X130607993Y-34065267D01*
X130582363Y-34113982D01*
X130509405Y-34252654D01*
X130444903Y-34460382D01*
X130419337Y-34676387D01*
X130433563Y-34893433D01*
X130434984Y-34899029D01*
X130434985Y-34899034D01*
X130460734Y-35000419D01*
X130487105Y-35104253D01*
X130489522Y-35109496D01*
X130529883Y-35197047D01*
X130578168Y-35301785D01*
X130581501Y-35306501D01*
X130664767Y-35424319D01*
X130703704Y-35479414D01*
X130837514Y-35609765D01*
X130847241Y-35619241D01*
X130882079Y-35681102D01*
X130877942Y-35751978D01*
X130842399Y-35804226D01*
X130745342Y-35889342D01*
X130741770Y-35893873D01*
X130637023Y-36026744D01*
X130610681Y-36060158D01*
X130607993Y-36065267D01*
X130590896Y-36097764D01*
X130509405Y-36252654D01*
X130507692Y-36258171D01*
X130453129Y-36433891D01*
X130444903Y-36460382D01*
X130419337Y-36676387D01*
X130433563Y-36893433D01*
X130434984Y-36899029D01*
X130434985Y-36899034D01*
X130479717Y-37075164D01*
X130487105Y-37104253D01*
X130578168Y-37301785D01*
X130581501Y-37306501D01*
X130696871Y-37469745D01*
X130703704Y-37479414D01*
X130707846Y-37483449D01*
X130847241Y-37619241D01*
X130882079Y-37681102D01*
X130877942Y-37751978D01*
X130842399Y-37804226D01*
X130745342Y-37889342D01*
X130741770Y-37893873D01*
X130615067Y-38054595D01*
X130610681Y-38060158D01*
X130607993Y-38065267D01*
X130582005Y-38114662D01*
X130509405Y-38252654D01*
X130507692Y-38258171D01*
X130448127Y-38450000D01*
X130444903Y-38460382D01*
X130419337Y-38676387D01*
X130433563Y-38893433D01*
X130434984Y-38899029D01*
X130434985Y-38899034D01*
X130485067Y-39096230D01*
X130487105Y-39104253D01*
X130489522Y-39109496D01*
X130510021Y-39153962D01*
X130578168Y-39301785D01*
X130703704Y-39479414D01*
X130707846Y-39483449D01*
X130847241Y-39619241D01*
X130882079Y-39681102D01*
X130877942Y-39751978D01*
X130842399Y-39804226D01*
X130745342Y-39889342D01*
X130741770Y-39893873D01*
X130656104Y-40002540D01*
X130610681Y-40060158D01*
X130509405Y-40252654D01*
X130507692Y-40258171D01*
X130447559Y-40451829D01*
X130444903Y-40460382D01*
X130419337Y-40676387D01*
X130433563Y-40893433D01*
X130434984Y-40899029D01*
X130434985Y-40899034D01*
X130470332Y-41038211D01*
X130487105Y-41104253D01*
X130578168Y-41301785D01*
X130581501Y-41306501D01*
X130671599Y-41433986D01*
X130703704Y-41479414D01*
X130859509Y-41631192D01*
X131040363Y-41752036D01*
X131045671Y-41754317D01*
X131045672Y-41754317D01*
X131234909Y-41835619D01*
X131234912Y-41835620D01*
X131240212Y-41837897D01*
X131245842Y-41839171D01*
X131430604Y-41880979D01*
X131452360Y-41885902D01*
X131458131Y-41886129D01*
X131458133Y-41886129D01*
X131526836Y-41888828D01*
X131669705Y-41894441D01*
X131884966Y-41863230D01*
X131890430Y-41861375D01*
X131890435Y-41861374D01*
X132085463Y-41795171D01*
X132085468Y-41795169D01*
X132090935Y-41793313D01*
X132130105Y-41771377D01*
X132170372Y-41748826D01*
X132280713Y-41687032D01*
X132447946Y-41547946D01*
X132587032Y-41380713D01*
X132605567Y-41347616D01*
X132656302Y-41297956D01*
X132725834Y-41283608D01*
X132792085Y-41309130D01*
X132834020Y-41366418D01*
X132841500Y-41409184D01*
X132841500Y-42333629D01*
X132821498Y-42401750D01*
X132804595Y-42422724D01*
X130483350Y-44743969D01*
X130477663Y-44749315D01*
X130431596Y-44790000D01*
X130411484Y-44818458D01*
X130394368Y-44842677D01*
X130390287Y-44848132D01*
X130350266Y-44898716D01*
X130347167Y-44905347D01*
X130346246Y-44907318D01*
X130334999Y-44926682D01*
X130329516Y-44934440D01*
X130305387Y-44994311D01*
X130302696Y-45000499D01*
X130275378Y-45058950D01*
X130273886Y-45066122D01*
X130273886Y-45066123D01*
X130273445Y-45068244D01*
X130266954Y-45089676D01*
X130263402Y-45098489D01*
X130262302Y-45105719D01*
X130262301Y-45105723D01*
X130253699Y-45162270D01*
X130252492Y-45168978D01*
X130239360Y-45232115D01*
X130239616Y-45241550D01*
X130239617Y-45241594D01*
X130238229Y-45263962D01*
X130236801Y-45273349D01*
X130237394Y-45280640D01*
X130237394Y-45280643D01*
X130242030Y-45337632D01*
X130242399Y-45344441D01*
X130244143Y-45408921D01*
X130246578Y-45418104D01*
X130250370Y-45440172D01*
X130251140Y-45449637D01*
X130271026Y-45511023D01*
X130272932Y-45517498D01*
X130289474Y-45579884D01*
X130292928Y-45586339D01*
X130293949Y-45588247D01*
X130302722Y-45608865D01*
X130303392Y-45610933D01*
X130305649Y-45617899D01*
X130309443Y-45624152D01*
X130309448Y-45624162D01*
X130323218Y-45646853D01*
X130341500Y-45712219D01*
X130341500Y-59515500D01*
X130321498Y-59583621D01*
X130267842Y-59630114D01*
X130215500Y-59641500D01*
X123767070Y-59641500D01*
X123748120Y-59640067D01*
X123733885Y-59637901D01*
X123733881Y-59637901D01*
X123726651Y-59636801D01*
X123719359Y-59637394D01*
X123719356Y-59637394D01*
X123673982Y-59641085D01*
X123663767Y-59641500D01*
X123655707Y-59641500D01*
X123652073Y-59641924D01*
X123652067Y-59641924D01*
X123639042Y-59643443D01*
X123627480Y-59644791D01*
X123623132Y-59645221D01*
X123601059Y-59647016D01*
X123557662Y-59650546D01*
X123557659Y-59650547D01*
X123550364Y-59651140D01*
X123543400Y-59653396D01*
X123537461Y-59654583D01*
X123531590Y-59655970D01*
X123524319Y-59656818D01*
X123517443Y-59659314D01*
X123517434Y-59659316D01*
X123455702Y-59681725D01*
X123451598Y-59683135D01*
X123382101Y-59705648D01*
X123375846Y-59709444D01*
X123370387Y-59711943D01*
X123364939Y-59714671D01*
X123358063Y-59717167D01*
X123297010Y-59757195D01*
X123293337Y-59759513D01*
X123230893Y-59797405D01*
X123222517Y-59804802D01*
X123222493Y-59804775D01*
X123219499Y-59807430D01*
X123216268Y-59810132D01*
X123210148Y-59814144D01*
X123205116Y-59819456D01*
X123156872Y-59870383D01*
X123154494Y-59872825D01*
X122422724Y-60604595D01*
X122360412Y-60638621D01*
X122333629Y-60641500D01*
X120947817Y-60641500D01*
X120879696Y-60621498D01*
X120833203Y-60567842D01*
X120823099Y-60497568D01*
X120854181Y-60431190D01*
X120934621Y-60341852D01*
X120934622Y-60341851D01*
X120939040Y-60336944D01*
X121034527Y-60171556D01*
X121093542Y-59989928D01*
X121113504Y-59800000D01*
X121109003Y-59757172D01*
X121094232Y-59616635D01*
X121094232Y-59616633D01*
X121093542Y-59610072D01*
X121034527Y-59428444D01*
X120975381Y-59326000D01*
X120958500Y-59263001D01*
X120958500Y-32666371D01*
X120978502Y-32598250D01*
X120995405Y-32577276D01*
X122177276Y-31395405D01*
X122239588Y-31361379D01*
X122266371Y-31358500D01*
X122757413Y-31358500D01*
X122831472Y-31382563D01*
X122837902Y-31387235D01*
X122837909Y-31387239D01*
X122843248Y-31391118D01*
X122849276Y-31393802D01*
X122849278Y-31393803D01*
X123011681Y-31466109D01*
X123017712Y-31468794D01*
X123111113Y-31488647D01*
X123198056Y-31507128D01*
X123198061Y-31507128D01*
X123204513Y-31508500D01*
X123395487Y-31508500D01*
X123401939Y-31507128D01*
X123401944Y-31507128D01*
X123488888Y-31488647D01*
X123582288Y-31468794D01*
X123588319Y-31466109D01*
X123750722Y-31393803D01*
X123750724Y-31393802D01*
X123756752Y-31391118D01*
X123762097Y-31387235D01*
X123843757Y-31327905D01*
X123911253Y-31278866D01*
X123928373Y-31259852D01*
X124034621Y-31141852D01*
X124034622Y-31141851D01*
X124039040Y-31136944D01*
X124134527Y-30971556D01*
X124193542Y-30789928D01*
X124195282Y-30773379D01*
X124212814Y-30606565D01*
X124213504Y-30600000D01*
X124201931Y-30489886D01*
X124194232Y-30416635D01*
X124194232Y-30416633D01*
X124193542Y-30410072D01*
X124134527Y-30228444D01*
X124039040Y-30063056D01*
X124025413Y-30047921D01*
X123915675Y-29926045D01*
X123915674Y-29926044D01*
X123911253Y-29921134D01*
X123801647Y-29841500D01*
X123762094Y-29812763D01*
X123762093Y-29812762D01*
X123756752Y-29808882D01*
X123750726Y-29806199D01*
X123750719Y-29806195D01*
X123592894Y-29735928D01*
X123538798Y-29689948D01*
X123518148Y-29622021D01*
X123537500Y-29553713D01*
X123590711Y-29506711D01*
X123605205Y-29500988D01*
X123629411Y-29493123D01*
X123636108Y-29490947D01*
X123791912Y-29398069D01*
X123797013Y-29393212D01*
X123802626Y-29388951D01*
X123803385Y-29389952D01*
X123860090Y-29360762D01*
X123883860Y-29358500D01*
X128365699Y-29358500D01*
X128434692Y-29379068D01*
X128451325Y-29389952D01*
X128583159Y-29476222D01*
X128589763Y-29478678D01*
X128589765Y-29478679D01*
X128746558Y-29536990D01*
X128746560Y-29536990D01*
X128753168Y-29539448D01*
X128836995Y-29550633D01*
X128925980Y-29562507D01*
X128925984Y-29562507D01*
X128932961Y-29563438D01*
X128939972Y-29562800D01*
X128939976Y-29562800D01*
X129082459Y-29549832D01*
X129113600Y-29546998D01*
X129120302Y-29544820D01*
X129120304Y-29544820D01*
X129279409Y-29493124D01*
X129279412Y-29493123D01*
X129286108Y-29490947D01*
X129441912Y-29398069D01*
X129573266Y-29272982D01*
X129673643Y-29121902D01*
X129738055Y-28952338D01*
X129739035Y-28945366D01*
X129762748Y-28776639D01*
X129762748Y-28776636D01*
X129763299Y-28772717D01*
X129763616Y-28750000D01*
X129756007Y-28682166D01*
X130420217Y-28682166D01*
X130433681Y-28887588D01*
X130435481Y-28898956D01*
X130486157Y-29098490D01*
X130489995Y-29109328D01*
X130576184Y-29296286D01*
X130581940Y-29306255D01*
X130599472Y-29331063D01*
X130610063Y-29339454D01*
X130623362Y-29332427D01*
X131235479Y-28720311D01*
X131241856Y-28708632D01*
X131971908Y-28708632D01*
X131972039Y-28710466D01*
X131976290Y-28717080D01*
X132592844Y-29333633D01*
X132605219Y-29340390D01*
X132611799Y-29335464D01*
X132690031Y-29195772D01*
X132694710Y-29185263D01*
X132760884Y-28990323D01*
X132763572Y-28979127D01*
X132793407Y-28773353D01*
X132794037Y-28765970D01*
X132795471Y-28711204D01*
X132795228Y-28703805D01*
X132776203Y-28496746D01*
X132774106Y-28485432D01*
X132718225Y-28287294D01*
X132714103Y-28276555D01*
X132623048Y-28091914D01*
X132617159Y-28082305D01*
X132605958Y-28073899D01*
X132593542Y-28080669D01*
X131979521Y-28694689D01*
X131971908Y-28708632D01*
X131241856Y-28708632D01*
X131243092Y-28706368D01*
X131242961Y-28704534D01*
X131238710Y-28697920D01*
X130620504Y-28079715D01*
X130608129Y-28072958D01*
X130602163Y-28077424D01*
X130512560Y-28247730D01*
X130508155Y-28258364D01*
X130447107Y-28454970D01*
X130444715Y-28466224D01*
X130420518Y-28670665D01*
X130420217Y-28682166D01*
X129756007Y-28682166D01*
X129743397Y-28569745D01*
X129741080Y-28563091D01*
X129686064Y-28405106D01*
X129686062Y-28405103D01*
X129683745Y-28398448D01*
X129632826Y-28316960D01*
X129613691Y-28248594D01*
X129634732Y-28180468D01*
X129673643Y-28121902D01*
X129738055Y-27952338D01*
X129739035Y-27945366D01*
X129762748Y-27776639D01*
X129762748Y-27776636D01*
X129763299Y-27772717D01*
X129763616Y-27750000D01*
X129743397Y-27569745D01*
X129739805Y-27559430D01*
X129686064Y-27405106D01*
X129686062Y-27405103D01*
X129683745Y-27398448D01*
X129644389Y-27335464D01*
X129591359Y-27250598D01*
X129587626Y-27244624D01*
X129582664Y-27239627D01*
X129464778Y-27120915D01*
X129464774Y-27120912D01*
X129459815Y-27115918D01*
X129448697Y-27108862D01*
X129397371Y-27076290D01*
X129306666Y-27018727D01*
X129265198Y-27003961D01*
X129142425Y-26960243D01*
X129142420Y-26960242D01*
X129135790Y-26957881D01*
X129128802Y-26957048D01*
X129128799Y-26957047D01*
X129005698Y-26942368D01*
X128955680Y-26936404D01*
X128948677Y-26937140D01*
X128948676Y-26937140D01*
X128782288Y-26954628D01*
X128782286Y-26954629D01*
X128775288Y-26955364D01*
X128603579Y-27013818D01*
X128449088Y-27108862D01*
X128444054Y-27113791D01*
X128442776Y-27114790D01*
X128376782Y-27140967D01*
X128365204Y-27141500D01*
X127739412Y-27141500D01*
X127671291Y-27121498D01*
X127624798Y-27067842D01*
X127613424Y-27013740D01*
X127613561Y-27003961D01*
X127613561Y-27003957D01*
X127613616Y-27000000D01*
X127593397Y-26819745D01*
X127591080Y-26813091D01*
X127543475Y-26676387D01*
X130419337Y-26676387D01*
X130433563Y-26893433D01*
X130434984Y-26899029D01*
X130434985Y-26899034D01*
X130466397Y-27022717D01*
X130487105Y-27104253D01*
X130578168Y-27301785D01*
X130703704Y-27479414D01*
X130859509Y-27631192D01*
X130864312Y-27634401D01*
X130864319Y-27634407D01*
X130944372Y-27687898D01*
X130968060Y-27708413D01*
X130971950Y-27712739D01*
X131594689Y-28335479D01*
X131608632Y-28343092D01*
X131610466Y-28342961D01*
X131617080Y-28338710D01*
X132241215Y-27714574D01*
X132268744Y-27693735D01*
X132275675Y-27689854D01*
X132275680Y-27689851D01*
X132280713Y-27687032D01*
X132285150Y-27683342D01*
X132285154Y-27683339D01*
X132443508Y-27551637D01*
X132447946Y-27547946D01*
X132587032Y-27380713D01*
X132693313Y-27190935D01*
X132695169Y-27185468D01*
X132695171Y-27185463D01*
X132761374Y-26990435D01*
X132761375Y-26990430D01*
X132763230Y-26984966D01*
X132794441Y-26769705D01*
X132796070Y-26707500D01*
X132793742Y-26682166D01*
X144020217Y-26682166D01*
X144033681Y-26887588D01*
X144035481Y-26898956D01*
X144086157Y-27098490D01*
X144089995Y-27109328D01*
X144176184Y-27296286D01*
X144181940Y-27306255D01*
X144199472Y-27331063D01*
X144210063Y-27339454D01*
X144223362Y-27332427D01*
X144835479Y-26720311D01*
X144841856Y-26708632D01*
X145571908Y-26708632D01*
X145572039Y-26710466D01*
X145576290Y-26717080D01*
X146192844Y-27333633D01*
X146205219Y-27340390D01*
X146211799Y-27335464D01*
X146290031Y-27195772D01*
X146294710Y-27185263D01*
X146360884Y-26990323D01*
X146363572Y-26979127D01*
X146393407Y-26773353D01*
X146394037Y-26765970D01*
X146395471Y-26711204D01*
X146395228Y-26703805D01*
X146376203Y-26496746D01*
X146374106Y-26485432D01*
X146318225Y-26287294D01*
X146314103Y-26276555D01*
X146223048Y-26091914D01*
X146217159Y-26082305D01*
X146205958Y-26073899D01*
X146193542Y-26080669D01*
X145579521Y-26694689D01*
X145571908Y-26708632D01*
X144841856Y-26708632D01*
X144843092Y-26706368D01*
X144842961Y-26704534D01*
X144838710Y-26697920D01*
X144220504Y-26079715D01*
X144208129Y-26072958D01*
X144202163Y-26077424D01*
X144112560Y-26247730D01*
X144108155Y-26258364D01*
X144047107Y-26454970D01*
X144044715Y-26466224D01*
X144020518Y-26670665D01*
X144020217Y-26682166D01*
X132793742Y-26682166D01*
X132776167Y-26490900D01*
X132717126Y-26281555D01*
X132620923Y-26086474D01*
X132490780Y-25912191D01*
X132486544Y-25908275D01*
X132335296Y-25768463D01*
X132335293Y-25768461D01*
X132331056Y-25764544D01*
X132246913Y-25711454D01*
X144575567Y-25711454D01*
X144579053Y-25719842D01*
X145194689Y-26335479D01*
X145208632Y-26343092D01*
X145210466Y-26342961D01*
X145217080Y-26338710D01*
X145832162Y-25723627D01*
X145838919Y-25711252D01*
X145832889Y-25703196D01*
X145751756Y-25652005D01*
X145741508Y-25646784D01*
X145550299Y-25570499D01*
X145539262Y-25567230D01*
X145337353Y-25527067D01*
X145325908Y-25525864D01*
X145120067Y-25523170D01*
X145108587Y-25524073D01*
X144905702Y-25558935D01*
X144894582Y-25561915D01*
X144701440Y-25633169D01*
X144691062Y-25638119D01*
X144585165Y-25701121D01*
X144575567Y-25711454D01*
X132246913Y-25711454D01*
X132147099Y-25648476D01*
X131945072Y-25567876D01*
X131757315Y-25530528D01*
X131737405Y-25526568D01*
X131737404Y-25526568D01*
X131731739Y-25525441D01*
X131725964Y-25525365D01*
X131725960Y-25525365D01*
X131616919Y-25523938D01*
X131514246Y-25522594D01*
X131508549Y-25523573D01*
X131508548Y-25523573D01*
X131305565Y-25558452D01*
X131305562Y-25558453D01*
X131299875Y-25559430D01*
X131095807Y-25634714D01*
X130998110Y-25692838D01*
X130938165Y-25728502D01*
X130908876Y-25745927D01*
X130745342Y-25889342D01*
X130610681Y-26060158D01*
X130607993Y-26065267D01*
X130591701Y-26096234D01*
X130509405Y-26252654D01*
X130500431Y-26281555D01*
X130452940Y-26434500D01*
X130444903Y-26460382D01*
X130419337Y-26676387D01*
X127543475Y-26676387D01*
X127536064Y-26655106D01*
X127536062Y-26655103D01*
X127533745Y-26648448D01*
X127437626Y-26494624D01*
X127423941Y-26480843D01*
X127314778Y-26370915D01*
X127314774Y-26370912D01*
X127309815Y-26365918D01*
X127298697Y-26358862D01*
X127219335Y-26308498D01*
X127156666Y-26268727D01*
X127111528Y-26252654D01*
X126992425Y-26210243D01*
X126992420Y-26210242D01*
X126985790Y-26207881D01*
X126978802Y-26207048D01*
X126978799Y-26207047D01*
X126855698Y-26192368D01*
X126805680Y-26186404D01*
X126798677Y-26187140D01*
X126798676Y-26187140D01*
X126632288Y-26204628D01*
X126632286Y-26204629D01*
X126625288Y-26205364D01*
X126453579Y-26263818D01*
X126299088Y-26358862D01*
X126294054Y-26363791D01*
X126292776Y-26364790D01*
X126226782Y-26390967D01*
X126215204Y-26391500D01*
X123884751Y-26391500D01*
X123816630Y-26371498D01*
X123812157Y-26368276D01*
X123809815Y-26365918D01*
X123798697Y-26358862D01*
X123719335Y-26308498D01*
X123656666Y-26268727D01*
X123611528Y-26252654D01*
X123492425Y-26210243D01*
X123492420Y-26210242D01*
X123485790Y-26207881D01*
X123478802Y-26207048D01*
X123478799Y-26207047D01*
X123355698Y-26192368D01*
X123305680Y-26186404D01*
X123298677Y-26187140D01*
X123298676Y-26187140D01*
X123132288Y-26204628D01*
X123132286Y-26204629D01*
X123125288Y-26205364D01*
X122953579Y-26263818D01*
X122906408Y-26292838D01*
X122805095Y-26355166D01*
X122805092Y-26355168D01*
X122799088Y-26358862D01*
X122794053Y-26363793D01*
X122794050Y-26363795D01*
X122674525Y-26480843D01*
X122669493Y-26485771D01*
X122571235Y-26638238D01*
X122568826Y-26644858D01*
X122568824Y-26644861D01*
X122522057Y-26773353D01*
X122509197Y-26808685D01*
X122486463Y-26988640D01*
X122504163Y-27169160D01*
X122506387Y-27175845D01*
X122560418Y-27338268D01*
X122562941Y-27409220D01*
X122559261Y-27421134D01*
X122511762Y-27551637D01*
X122509197Y-27558685D01*
X122486463Y-27738640D01*
X122504163Y-27919160D01*
X122561418Y-28091273D01*
X122615435Y-28180465D01*
X122618106Y-28184876D01*
X122636285Y-28253505D01*
X122616243Y-28318399D01*
X122571235Y-28388238D01*
X122568826Y-28394858D01*
X122568824Y-28394861D01*
X122542888Y-28466119D01*
X122509197Y-28558685D01*
X122486463Y-28738640D01*
X122504163Y-28919160D01*
X122561418Y-29091273D01*
X122565065Y-29097295D01*
X122565066Y-29097297D01*
X122575978Y-29115314D01*
X122655380Y-29246424D01*
X122660269Y-29251487D01*
X122660270Y-29251488D01*
X122713396Y-29306501D01*
X122781382Y-29376902D01*
X122933159Y-29476222D01*
X122939763Y-29478678D01*
X122939765Y-29478679D01*
X123001890Y-29501783D01*
X123058766Y-29544275D01*
X123083640Y-29610772D01*
X123068615Y-29680160D01*
X123018460Y-29730410D01*
X123009219Y-29734987D01*
X122849278Y-29806197D01*
X122849276Y-29806198D01*
X122843248Y-29808882D01*
X122837909Y-29812761D01*
X122837902Y-29812765D01*
X122831472Y-29817437D01*
X122757413Y-29841500D01*
X121967070Y-29841500D01*
X121948120Y-29840067D01*
X121933885Y-29837901D01*
X121933881Y-29837901D01*
X121926651Y-29836801D01*
X121919359Y-29837394D01*
X121919356Y-29837394D01*
X121873982Y-29841085D01*
X121863767Y-29841500D01*
X121855707Y-29841500D01*
X121842417Y-29843049D01*
X121827493Y-29844789D01*
X121823118Y-29845222D01*
X121757661Y-29850546D01*
X121757658Y-29850547D01*
X121750363Y-29851140D01*
X121743399Y-29853396D01*
X121737440Y-29854587D01*
X121731585Y-29855971D01*
X121724319Y-29856818D01*
X121655673Y-29881735D01*
X121651545Y-29883152D01*
X121589064Y-29903393D01*
X121589062Y-29903394D01*
X121582101Y-29905649D01*
X121575846Y-29909445D01*
X121570372Y-29911951D01*
X121564942Y-29914670D01*
X121558063Y-29917167D01*
X121551943Y-29921180D01*
X121551942Y-29921180D01*
X121497024Y-29957186D01*
X121493320Y-29959523D01*
X121430893Y-29997405D01*
X121422516Y-30004803D01*
X121422492Y-30004776D01*
X121419500Y-30007429D01*
X121416267Y-30010132D01*
X121410148Y-30014144D01*
X121405116Y-30019456D01*
X121356872Y-30070383D01*
X121354494Y-30072825D01*
X119711089Y-31716230D01*
X119696677Y-31728616D01*
X119685082Y-31737149D01*
X119685077Y-31737154D01*
X119679182Y-31741492D01*
X119674443Y-31747070D01*
X119674440Y-31747073D01*
X119644965Y-31781768D01*
X119638035Y-31789284D01*
X119632340Y-31794979D01*
X119630060Y-31797861D01*
X119614719Y-31817251D01*
X119611928Y-31820655D01*
X119576372Y-31862507D01*
X119564667Y-31876285D01*
X119561339Y-31882801D01*
X119557972Y-31887850D01*
X119554805Y-31892979D01*
X119550266Y-31898716D01*
X119519345Y-31964875D01*
X119517442Y-31968769D01*
X119484231Y-32033808D01*
X119482492Y-32040916D01*
X119480393Y-32046559D01*
X119478476Y-32052322D01*
X119475378Y-32058950D01*
X119473888Y-32066112D01*
X119473888Y-32066113D01*
X119460514Y-32130412D01*
X119459544Y-32134696D01*
X119442192Y-32205610D01*
X119441500Y-32216764D01*
X119441464Y-32216762D01*
X119441225Y-32220755D01*
X119440851Y-32224947D01*
X119439360Y-32232115D01*
X119439558Y-32239432D01*
X119441454Y-32309521D01*
X119441500Y-32312928D01*
X119441500Y-59263001D01*
X119424619Y-59326000D01*
X119365473Y-59428444D01*
X119306458Y-59610072D01*
X119305768Y-59616633D01*
X119305768Y-59616635D01*
X119290997Y-59757172D01*
X119286496Y-59800000D01*
X119306458Y-59989928D01*
X119365473Y-60171556D01*
X119460960Y-60336944D01*
X119465378Y-60341851D01*
X119465379Y-60341852D01*
X119545819Y-60431190D01*
X119576537Y-60495197D01*
X119567772Y-60565651D01*
X119522309Y-60620182D01*
X119452183Y-60641500D01*
X114196371Y-60641500D01*
X114128250Y-60621498D01*
X114107276Y-60604595D01*
X110635125Y-57132444D01*
X110604387Y-57082285D01*
X110551569Y-56919729D01*
X110549527Y-56913444D01*
X110454040Y-56748056D01*
X110326253Y-56606134D01*
X110171752Y-56493882D01*
X110165724Y-56491198D01*
X110165722Y-56491197D01*
X110003319Y-56418891D01*
X110003318Y-56418891D01*
X109997288Y-56416206D01*
X109903887Y-56396353D01*
X109816944Y-56377872D01*
X109816939Y-56377872D01*
X109810487Y-56376500D01*
X109619513Y-56376500D01*
X109613061Y-56377872D01*
X109613056Y-56377872D01*
X109526112Y-56396353D01*
X109432712Y-56416206D01*
X109426682Y-56418891D01*
X109426681Y-56418891D01*
X109264278Y-56491197D01*
X109264276Y-56491198D01*
X109258248Y-56493882D01*
X109103747Y-56606134D01*
X108975960Y-56748056D01*
X108880473Y-56913444D01*
X108821458Y-57095072D01*
X108801496Y-57285000D01*
X108821458Y-57474928D01*
X108880473Y-57656556D01*
X108975960Y-57821944D01*
X109103747Y-57963866D01*
X109258248Y-58076118D01*
X109264276Y-58078802D01*
X109264278Y-58078803D01*
X109426681Y-58151109D01*
X109432712Y-58153794D01*
X109439167Y-58155166D01*
X109439176Y-58155169D01*
X109495772Y-58167199D01*
X109558669Y-58201350D01*
X113246230Y-61888911D01*
X113258616Y-61903323D01*
X113267149Y-61914918D01*
X113267154Y-61914923D01*
X113271492Y-61920818D01*
X113277070Y-61925557D01*
X113277073Y-61925560D01*
X113311768Y-61955035D01*
X113319284Y-61961965D01*
X113324980Y-61967661D01*
X113327841Y-61969924D01*
X113327846Y-61969929D01*
X113347266Y-61985293D01*
X113350667Y-61988082D01*
X113406285Y-62035333D01*
X113412798Y-62038659D01*
X113417837Y-62042020D01*
X113422979Y-62045196D01*
X113428716Y-62049734D01*
X113494875Y-62080655D01*
X113498769Y-62082558D01*
X113563808Y-62115769D01*
X113570917Y-62117508D01*
X113576551Y-62119604D01*
X113582321Y-62121523D01*
X113588950Y-62124622D01*
X113596113Y-62126112D01*
X113596116Y-62126113D01*
X113646830Y-62136661D01*
X113660435Y-62139491D01*
X113664701Y-62140457D01*
X113735610Y-62157808D01*
X113741212Y-62158156D01*
X113741215Y-62158156D01*
X113746764Y-62158500D01*
X113746762Y-62158535D01*
X113750734Y-62158775D01*
X113754955Y-62159152D01*
X113762115Y-62160641D01*
X113839542Y-62158546D01*
X113842950Y-62158500D01*
X122632930Y-62158500D01*
X122651880Y-62159933D01*
X122666115Y-62162099D01*
X122666119Y-62162099D01*
X122673349Y-62163199D01*
X122680641Y-62162606D01*
X122680644Y-62162606D01*
X122726018Y-62158915D01*
X122736233Y-62158500D01*
X122744293Y-62158500D01*
X122761680Y-62156473D01*
X122772507Y-62155211D01*
X122776882Y-62154778D01*
X122842339Y-62149454D01*
X122842342Y-62149453D01*
X122849637Y-62148860D01*
X122856601Y-62146604D01*
X122862560Y-62145413D01*
X122868415Y-62144029D01*
X122875681Y-62143182D01*
X122944327Y-62118265D01*
X122948455Y-62116848D01*
X123010936Y-62096607D01*
X123010938Y-62096606D01*
X123017899Y-62094351D01*
X123024154Y-62090555D01*
X123029628Y-62088049D01*
X123035058Y-62085330D01*
X123041937Y-62082833D01*
X123048058Y-62078820D01*
X123102976Y-62042814D01*
X123106680Y-62040477D01*
X123169107Y-62002595D01*
X123177484Y-61995197D01*
X123177508Y-61995224D01*
X123180500Y-61992571D01*
X123183733Y-61989868D01*
X123189852Y-61985856D01*
X123243128Y-61929617D01*
X123245506Y-61927175D01*
X123977276Y-61195405D01*
X124039588Y-61161379D01*
X124066371Y-61158500D01*
X125163143Y-61158500D01*
X125231264Y-61178502D01*
X125277757Y-61232158D01*
X125287861Y-61302432D01*
X125265138Y-61358416D01*
X125260960Y-61363056D01*
X125165473Y-61528444D01*
X125163431Y-61534729D01*
X125110613Y-61697285D01*
X125079875Y-61747444D01*
X124611089Y-62216230D01*
X124596677Y-62228616D01*
X124585082Y-62237149D01*
X124585077Y-62237154D01*
X124579182Y-62241492D01*
X124574443Y-62247070D01*
X124574440Y-62247073D01*
X124544965Y-62281768D01*
X124538035Y-62289284D01*
X124532340Y-62294979D01*
X124530060Y-62297861D01*
X124514719Y-62317251D01*
X124511928Y-62320655D01*
X124469409Y-62370703D01*
X124464667Y-62376285D01*
X124461339Y-62382801D01*
X124457972Y-62387850D01*
X124454805Y-62392979D01*
X124450266Y-62398716D01*
X124419345Y-62464875D01*
X124417442Y-62468769D01*
X124384231Y-62533808D01*
X124382492Y-62540916D01*
X124380393Y-62546559D01*
X124378476Y-62552322D01*
X124375378Y-62558950D01*
X124373888Y-62566112D01*
X124373888Y-62566113D01*
X124360514Y-62630412D01*
X124359544Y-62634696D01*
X124342192Y-62705610D01*
X124341500Y-62716764D01*
X124341464Y-62716762D01*
X124341225Y-62720755D01*
X124340851Y-62724947D01*
X124339360Y-62732115D01*
X124339558Y-62739432D01*
X124341454Y-62809521D01*
X124341500Y-62812928D01*
X124341500Y-74563001D01*
X124324619Y-74626000D01*
X124265473Y-74728444D01*
X124206458Y-74910072D01*
X124186496Y-75100000D01*
X124206458Y-75289928D01*
X124265473Y-75471556D01*
X124360960Y-75636944D01*
X124365378Y-75641851D01*
X124365379Y-75641852D01*
X124401261Y-75681703D01*
X124488747Y-75778866D01*
X124643248Y-75891118D01*
X124649276Y-75893802D01*
X124649278Y-75893803D01*
X124811681Y-75966109D01*
X124817712Y-75968794D01*
X124911112Y-75988647D01*
X124998056Y-76007128D01*
X124998061Y-76007128D01*
X125004513Y-76008500D01*
X125195487Y-76008500D01*
X125201939Y-76007128D01*
X125201944Y-76007128D01*
X125288888Y-75988647D01*
X125382288Y-75968794D01*
X125388319Y-75966109D01*
X125550722Y-75893803D01*
X125550724Y-75893802D01*
X125556752Y-75891118D01*
X125711253Y-75778866D01*
X125798739Y-75681703D01*
X125834621Y-75641852D01*
X125834622Y-75641851D01*
X125839040Y-75636944D01*
X125934527Y-75471556D01*
X125993542Y-75289928D01*
X126013504Y-75100000D01*
X125993542Y-74910072D01*
X125934527Y-74728444D01*
X125875381Y-74626000D01*
X125858500Y-74563001D01*
X125858500Y-63166371D01*
X125878502Y-63098250D01*
X125895405Y-63077276D01*
X126156331Y-62816350D01*
X126219228Y-62782199D01*
X126275824Y-62770169D01*
X126275833Y-62770166D01*
X126282288Y-62768794D01*
X126288319Y-62766109D01*
X126450722Y-62693803D01*
X126450724Y-62693802D01*
X126456752Y-62691118D01*
X126611253Y-62578866D01*
X126622736Y-62566113D01*
X126734621Y-62441852D01*
X126734622Y-62441851D01*
X126739040Y-62436944D01*
X126834527Y-62271556D01*
X126893542Y-62089928D01*
X126894317Y-62082561D01*
X126912814Y-61906565D01*
X126913504Y-61900000D01*
X126893542Y-61710072D01*
X126834527Y-61528444D01*
X126739040Y-61363056D01*
X126734874Y-61358429D01*
X126711062Y-61291693D01*
X126727143Y-61222541D01*
X126778057Y-61173061D01*
X126836857Y-61158500D01*
X130557413Y-61158500D01*
X130631472Y-61182563D01*
X130637902Y-61187235D01*
X130637909Y-61187239D01*
X130643248Y-61191118D01*
X130649276Y-61193802D01*
X130649278Y-61193803D01*
X130811681Y-61266109D01*
X130817712Y-61268794D01*
X130911113Y-61288647D01*
X130998056Y-61307128D01*
X130998061Y-61307128D01*
X131004513Y-61308500D01*
X131195487Y-61308500D01*
X131201939Y-61307128D01*
X131201944Y-61307128D01*
X131288887Y-61288647D01*
X131382288Y-61268794D01*
X131388319Y-61266109D01*
X131550722Y-61193803D01*
X131550724Y-61193802D01*
X131556752Y-61191118D01*
X131562097Y-61187235D01*
X131612157Y-61150864D01*
X131711253Y-61078866D01*
X131839040Y-60936944D01*
X131934527Y-60771556D01*
X131993542Y-60589928D01*
X132013504Y-60400000D01*
X132012814Y-60393435D01*
X131994232Y-60216635D01*
X131994232Y-60216633D01*
X131993542Y-60210072D01*
X131934527Y-60028444D01*
X131875381Y-59926000D01*
X131858500Y-59863001D01*
X131858500Y-45566371D01*
X131878502Y-45498250D01*
X131895405Y-45477276D01*
X133485905Y-43886776D01*
X133548217Y-43852750D01*
X133619032Y-43857815D01*
X133664095Y-43886776D01*
X136566230Y-46788911D01*
X136578616Y-46803323D01*
X136587149Y-46814918D01*
X136587154Y-46814923D01*
X136591492Y-46820818D01*
X136597070Y-46825557D01*
X136597073Y-46825560D01*
X136631768Y-46855035D01*
X136639284Y-46861965D01*
X136644979Y-46867660D01*
X136647861Y-46869940D01*
X136667251Y-46885281D01*
X136670655Y-46888072D01*
X136720703Y-46930591D01*
X136726285Y-46935333D01*
X136732801Y-46938661D01*
X136737850Y-46942028D01*
X136742979Y-46945195D01*
X136748716Y-46949734D01*
X136814875Y-46980655D01*
X136818769Y-46982558D01*
X136883808Y-47015769D01*
X136890916Y-47017508D01*
X136896559Y-47019607D01*
X136902322Y-47021524D01*
X136908950Y-47024622D01*
X136916112Y-47026112D01*
X136916113Y-47026112D01*
X136980412Y-47039486D01*
X136984696Y-47040456D01*
X137055610Y-47057808D01*
X137061212Y-47058156D01*
X137061215Y-47058156D01*
X137066764Y-47058500D01*
X137066762Y-47058536D01*
X137070755Y-47058775D01*
X137074947Y-47059149D01*
X137082115Y-47060640D01*
X137159520Y-47058546D01*
X137162928Y-47058500D01*
X151347282Y-47058500D01*
X151391202Y-47066403D01*
X151446558Y-47086990D01*
X151446560Y-47086991D01*
X151453168Y-47089448D01*
X151536995Y-47100633D01*
X151625980Y-47112507D01*
X151625984Y-47112507D01*
X151632961Y-47113438D01*
X151639972Y-47112800D01*
X151639976Y-47112800D01*
X151782459Y-47099832D01*
X151813600Y-47096998D01*
X151820302Y-47094820D01*
X151820304Y-47094820D01*
X151913105Y-47064667D01*
X151952041Y-47058500D01*
X160732930Y-47058500D01*
X160751880Y-47059933D01*
X160766115Y-47062099D01*
X160766119Y-47062099D01*
X160773349Y-47063199D01*
X160780641Y-47062606D01*
X160780644Y-47062606D01*
X160826018Y-47058915D01*
X160836233Y-47058500D01*
X160844293Y-47058500D01*
X160861680Y-47056473D01*
X160872507Y-47055211D01*
X160876882Y-47054778D01*
X160942339Y-47049454D01*
X160942342Y-47049453D01*
X160949637Y-47048860D01*
X160956601Y-47046604D01*
X160962560Y-47045413D01*
X160968415Y-47044029D01*
X160975681Y-47043182D01*
X161044327Y-47018265D01*
X161048455Y-47016848D01*
X161110936Y-46996607D01*
X161110938Y-46996606D01*
X161117899Y-46994351D01*
X161124154Y-46990555D01*
X161129628Y-46988049D01*
X161135058Y-46985330D01*
X161141937Y-46982833D01*
X161148058Y-46978820D01*
X161202976Y-46942814D01*
X161206680Y-46940477D01*
X161269107Y-46902595D01*
X161277484Y-46895197D01*
X161277508Y-46895224D01*
X161280500Y-46892571D01*
X161283733Y-46889868D01*
X161289852Y-46885856D01*
X161343128Y-46829617D01*
X161345506Y-46827175D01*
X161636907Y-46535774D01*
X170213102Y-46535774D01*
X170221751Y-46766158D01*
X170222846Y-46771377D01*
X170234811Y-46828402D01*
X170269093Y-46991791D01*
X170271051Y-46996750D01*
X170271052Y-46996752D01*
X170297294Y-47063199D01*
X170353776Y-47206221D01*
X170473377Y-47403317D01*
X170476874Y-47407347D01*
X170563438Y-47507103D01*
X170624477Y-47577445D01*
X170660120Y-47606670D01*
X170700114Y-47665329D01*
X170702046Y-47736299D01*
X170665302Y-47797048D01*
X170646532Y-47811248D01*
X170515579Y-47892285D01*
X170500652Y-47901522D01*
X170375695Y-48026697D01*
X170282885Y-48177262D01*
X170227203Y-48345139D01*
X170216500Y-48449600D01*
X170216500Y-49750400D01*
X170227474Y-49856166D01*
X170283450Y-50023946D01*
X170376522Y-50174348D01*
X170501697Y-50299305D01*
X170652262Y-50392115D01*
X170732005Y-50418564D01*
X170813611Y-50445632D01*
X170813613Y-50445632D01*
X170820139Y-50447797D01*
X170826975Y-50448497D01*
X170826978Y-50448498D01*
X170870031Y-50452909D01*
X170924600Y-50458500D01*
X172469329Y-50458500D01*
X172537450Y-50478502D01*
X172583943Y-50532158D01*
X172594025Y-50602580D01*
X172587787Y-50645604D01*
X172597567Y-50856899D01*
X172647125Y-51062534D01*
X172649607Y-51067992D01*
X172649608Y-51067996D01*
X172693053Y-51163546D01*
X172734674Y-51255087D01*
X172857054Y-51427611D01*
X173009850Y-51573881D01*
X173187548Y-51688620D01*
X173193114Y-51690863D01*
X173378168Y-51765442D01*
X173378171Y-51765443D01*
X173383737Y-51767686D01*
X173591337Y-51808228D01*
X173596899Y-51808500D01*
X173752846Y-51808500D01*
X173910566Y-51793452D01*
X174113534Y-51733908D01*
X174197111Y-51690863D01*
X174296249Y-51639804D01*
X174296252Y-51639802D01*
X174301580Y-51637058D01*
X174467920Y-51506396D01*
X174471852Y-51501865D01*
X174471855Y-51501862D01*
X174602621Y-51351167D01*
X174606552Y-51346637D01*
X174609552Y-51341451D01*
X174609555Y-51341447D01*
X174709467Y-51168742D01*
X174712473Y-51163546D01*
X174781861Y-50963729D01*
X174812213Y-50754396D01*
X174802433Y-50543101D01*
X174752875Y-50337466D01*
X174665326Y-50144913D01*
X174542946Y-49972389D01*
X174390150Y-49826119D01*
X174212452Y-49711380D01*
X174152354Y-49687160D01*
X174021832Y-49634558D01*
X174021829Y-49634557D01*
X174016263Y-49632314D01*
X173808663Y-49591772D01*
X173803101Y-49591500D01*
X173647154Y-49591500D01*
X173489434Y-49606548D01*
X173483678Y-49608237D01*
X173483676Y-49608237D01*
X173344969Y-49648929D01*
X173273973Y-49648912D01*
X173214256Y-49610514D01*
X173184778Y-49545926D01*
X173183500Y-49528024D01*
X173183500Y-48449600D01*
X173172526Y-48343834D01*
X173116550Y-48176054D01*
X173023478Y-48025652D01*
X172898303Y-47900695D01*
X172752660Y-47810919D01*
X172705168Y-47758148D01*
X172693744Y-47688076D01*
X172722018Y-47622952D01*
X172731805Y-47612490D01*
X172842278Y-47507103D01*
X172846135Y-47503424D01*
X172983754Y-47318458D01*
X173088240Y-47112949D01*
X173093870Y-47094820D01*
X173155024Y-46897871D01*
X173156607Y-46892773D01*
X173159935Y-46867660D01*
X173186198Y-46669511D01*
X173186198Y-46669506D01*
X173186898Y-46664226D01*
X173178249Y-46433842D01*
X173130907Y-46208209D01*
X173046224Y-45993779D01*
X172926623Y-45796683D01*
X172839755Y-45696576D01*
X172779023Y-45626588D01*
X172779021Y-45626586D01*
X172775523Y-45622555D01*
X172707002Y-45566371D01*
X172601373Y-45479760D01*
X172601367Y-45479756D01*
X172597245Y-45476376D01*
X172565750Y-45458448D01*
X172516445Y-45407368D01*
X172502583Y-45337738D01*
X172528566Y-45271667D01*
X172557716Y-45244427D01*
X172593642Y-45220240D01*
X172679319Y-45162559D01*
X172746482Y-45098489D01*
X172842278Y-45007103D01*
X172846135Y-45003424D01*
X172850593Y-44997433D01*
X172963664Y-44845460D01*
X172983754Y-44818458D01*
X173088240Y-44612949D01*
X173124321Y-44496752D01*
X173155024Y-44397871D01*
X173156607Y-44392773D01*
X173157308Y-44387484D01*
X173186198Y-44169511D01*
X173186198Y-44169506D01*
X173186898Y-44164226D01*
X173178249Y-43933842D01*
X173130907Y-43708209D01*
X173046224Y-43493779D01*
X173040151Y-43483770D01*
X172929390Y-43301243D01*
X172926623Y-43296683D01*
X172839755Y-43196576D01*
X172779023Y-43126588D01*
X172779021Y-43126586D01*
X172775523Y-43122555D01*
X172710925Y-43069588D01*
X172601373Y-42979760D01*
X172601367Y-42979756D01*
X172597245Y-42976376D01*
X172565750Y-42958448D01*
X172516445Y-42907368D01*
X172502583Y-42837738D01*
X172528566Y-42771667D01*
X172557716Y-42744427D01*
X172593642Y-42720240D01*
X172679319Y-42662559D01*
X172846135Y-42503424D01*
X172983754Y-42318458D01*
X173088240Y-42112949D01*
X173124321Y-41996752D01*
X173155024Y-41897871D01*
X173156607Y-41892773D01*
X173164182Y-41835619D01*
X173186198Y-41669511D01*
X173186198Y-41669506D01*
X173186898Y-41664226D01*
X173185507Y-41627159D01*
X173178449Y-41439173D01*
X173178249Y-41433842D01*
X173130907Y-41208209D01*
X173121271Y-41183808D01*
X173048185Y-40998744D01*
X173048184Y-40998742D01*
X173046224Y-40993779D01*
X173030127Y-40967251D01*
X172929390Y-40801243D01*
X172926623Y-40796683D01*
X172903213Y-40769705D01*
X172779023Y-40626588D01*
X172779021Y-40626586D01*
X172775523Y-40622555D01*
X172733970Y-40588484D01*
X172601373Y-40479760D01*
X172601367Y-40479756D01*
X172597245Y-40476376D01*
X172592609Y-40473737D01*
X172592606Y-40473735D01*
X172401529Y-40364968D01*
X172396886Y-40362325D01*
X172180175Y-40283663D01*
X172174926Y-40282714D01*
X172174923Y-40282713D01*
X171957392Y-40243377D01*
X171957385Y-40243376D01*
X171953308Y-40242639D01*
X171935586Y-40241803D01*
X171930644Y-40241570D01*
X171930637Y-40241570D01*
X171929156Y-40241500D01*
X171517110Y-40241500D01*
X171450191Y-40247178D01*
X171350591Y-40255629D01*
X171350587Y-40255630D01*
X171345280Y-40256080D01*
X171340125Y-40257418D01*
X171340119Y-40257419D01*
X171127297Y-40312657D01*
X171127293Y-40312658D01*
X171122128Y-40313999D01*
X171117262Y-40316191D01*
X171117259Y-40316192D01*
X171008980Y-40364968D01*
X170911925Y-40408688D01*
X170720681Y-40537441D01*
X170553865Y-40696576D01*
X170416246Y-40881542D01*
X170413830Y-40886293D01*
X170413828Y-40886297D01*
X170387026Y-40939013D01*
X170311760Y-41087051D01*
X170310178Y-41092145D01*
X170310177Y-41092148D01*
X170271685Y-41216113D01*
X170243393Y-41307227D01*
X170242692Y-41312516D01*
X170217830Y-41500104D01*
X170213102Y-41535774D01*
X170213302Y-41541103D01*
X170213302Y-41541105D01*
X170216285Y-41620554D01*
X170221751Y-41766158D01*
X170269093Y-41991791D01*
X170353776Y-42206221D01*
X170473377Y-42403317D01*
X170476874Y-42407347D01*
X170586456Y-42533629D01*
X170624477Y-42577445D01*
X170628608Y-42580832D01*
X170798627Y-42720240D01*
X170798633Y-42720244D01*
X170802755Y-42723624D01*
X170834250Y-42741552D01*
X170883555Y-42792632D01*
X170897417Y-42862262D01*
X170871434Y-42928333D01*
X170842284Y-42955573D01*
X170720681Y-43037441D01*
X170716824Y-43041120D01*
X170716822Y-43041122D01*
X170686982Y-43069588D01*
X170553865Y-43196576D01*
X170416246Y-43381542D01*
X170413830Y-43386293D01*
X170413828Y-43386297D01*
X170364271Y-43483770D01*
X170311760Y-43587051D01*
X170310178Y-43592145D01*
X170310177Y-43592148D01*
X170248115Y-43792020D01*
X170243393Y-43807227D01*
X170242692Y-43812516D01*
X170227304Y-43928623D01*
X170213102Y-44035774D01*
X170221751Y-44266158D01*
X170269093Y-44491791D01*
X170353776Y-44706221D01*
X170473377Y-44903317D01*
X170476874Y-44907347D01*
X170616493Y-45068244D01*
X170624477Y-45077445D01*
X170666030Y-45111516D01*
X170798627Y-45220240D01*
X170798633Y-45220244D01*
X170802755Y-45223624D01*
X170834250Y-45241552D01*
X170883555Y-45292632D01*
X170897417Y-45362262D01*
X170871434Y-45428333D01*
X170842284Y-45455573D01*
X170838011Y-45458450D01*
X170720681Y-45537441D01*
X170716824Y-45541120D01*
X170716822Y-45541122D01*
X170676189Y-45579884D01*
X170553865Y-45696576D01*
X170416246Y-45881542D01*
X170311760Y-46087051D01*
X170310178Y-46092145D01*
X170310177Y-46092148D01*
X170248115Y-46292020D01*
X170243393Y-46307227D01*
X170242692Y-46312516D01*
X170227304Y-46428623D01*
X170213102Y-46535774D01*
X161636907Y-46535774D01*
X164688911Y-43483770D01*
X164703323Y-43471384D01*
X164714918Y-43462851D01*
X164714923Y-43462846D01*
X164720818Y-43458508D01*
X164725557Y-43452930D01*
X164725560Y-43452927D01*
X164755035Y-43418232D01*
X164761965Y-43410716D01*
X164767660Y-43405021D01*
X164785281Y-43382749D01*
X164788072Y-43379345D01*
X164830591Y-43329297D01*
X164830592Y-43329295D01*
X164835333Y-43323715D01*
X164838661Y-43317199D01*
X164842028Y-43312150D01*
X164845195Y-43307021D01*
X164849734Y-43301284D01*
X164880655Y-43235125D01*
X164882561Y-43231225D01*
X164915769Y-43166192D01*
X164917508Y-43159084D01*
X164919607Y-43153441D01*
X164921524Y-43147678D01*
X164924622Y-43141050D01*
X164929174Y-43119168D01*
X164939486Y-43069588D01*
X164940457Y-43065299D01*
X164956473Y-42999845D01*
X164957808Y-42994390D01*
X164958500Y-42983236D01*
X164958536Y-42983238D01*
X164958775Y-42979245D01*
X164959149Y-42975053D01*
X164960640Y-42967885D01*
X164958546Y-42890479D01*
X164958500Y-42887072D01*
X164958500Y-41816371D01*
X164978502Y-41748250D01*
X164995405Y-41727276D01*
X167738911Y-38983770D01*
X167753323Y-38971384D01*
X167764918Y-38962851D01*
X167764923Y-38962846D01*
X167770818Y-38958508D01*
X167775557Y-38952930D01*
X167775560Y-38952927D01*
X167805035Y-38918232D01*
X167811965Y-38910716D01*
X167817660Y-38905021D01*
X167826828Y-38893433D01*
X167835281Y-38882749D01*
X167838072Y-38879345D01*
X167880591Y-38829297D01*
X167880592Y-38829295D01*
X167885333Y-38823715D01*
X167888661Y-38817199D01*
X167892028Y-38812150D01*
X167895195Y-38807021D01*
X167899734Y-38801284D01*
X167930655Y-38735125D01*
X167932561Y-38731225D01*
X167934486Y-38727456D01*
X167965769Y-38666192D01*
X167967508Y-38659084D01*
X167969607Y-38653441D01*
X167971524Y-38647678D01*
X167974622Y-38641050D01*
X167989487Y-38569583D01*
X167990457Y-38565299D01*
X168000566Y-38523987D01*
X168007808Y-38494390D01*
X168008500Y-38483236D01*
X168008536Y-38483238D01*
X168008775Y-38479245D01*
X168009149Y-38475053D01*
X168010640Y-38467885D01*
X168008546Y-38390479D01*
X168008500Y-38387072D01*
X168008500Y-36503267D01*
X168016712Y-36458523D01*
X168035555Y-36408920D01*
X168035556Y-36408918D01*
X168038055Y-36402338D01*
X168039035Y-36395366D01*
X168062748Y-36226639D01*
X168062748Y-36226636D01*
X168063299Y-36222717D01*
X168063616Y-36200000D01*
X168043397Y-36019745D01*
X168041080Y-36013091D01*
X167986064Y-35855106D01*
X167986062Y-35855103D01*
X167983745Y-35848448D01*
X167967671Y-35822724D01*
X167891359Y-35700598D01*
X167887626Y-35694624D01*
X167850800Y-35657540D01*
X167764778Y-35570915D01*
X167764774Y-35570912D01*
X167759815Y-35565918D01*
X167748697Y-35558862D01*
X167695822Y-35525307D01*
X167606666Y-35468727D01*
X167555097Y-35450364D01*
X167442425Y-35410243D01*
X167442420Y-35410242D01*
X167435790Y-35407881D01*
X167428802Y-35407048D01*
X167428799Y-35407047D01*
X167305698Y-35392368D01*
X167255680Y-35386404D01*
X167248677Y-35387140D01*
X167248676Y-35387140D01*
X167082288Y-35404628D01*
X167082286Y-35404629D01*
X167075288Y-35405364D01*
X166903579Y-35463818D01*
X166841109Y-35502250D01*
X166755095Y-35555166D01*
X166755092Y-35555168D01*
X166749088Y-35558862D01*
X166744053Y-35563793D01*
X166744050Y-35563795D01*
X166638314Y-35667340D01*
X166619493Y-35685771D01*
X166521235Y-35838238D01*
X166518826Y-35844858D01*
X166518824Y-35844861D01*
X166474598Y-35966371D01*
X166459197Y-36008685D01*
X166436463Y-36188640D01*
X166454163Y-36369160D01*
X166475455Y-36433166D01*
X166485058Y-36462033D01*
X166491500Y-36501805D01*
X166491500Y-38033629D01*
X166471498Y-38101750D01*
X166454595Y-38122724D01*
X163711089Y-40866230D01*
X163696677Y-40878616D01*
X163685082Y-40887149D01*
X163685077Y-40887154D01*
X163679182Y-40891492D01*
X163674443Y-40897070D01*
X163674440Y-40897073D01*
X163644965Y-40931768D01*
X163638035Y-40939284D01*
X163632340Y-40944979D01*
X163630060Y-40947861D01*
X163614719Y-40967251D01*
X163611928Y-40970655D01*
X163592283Y-40993779D01*
X163564667Y-41026285D01*
X163561339Y-41032801D01*
X163557972Y-41037850D01*
X163554805Y-41042979D01*
X163550266Y-41048716D01*
X163519345Y-41114875D01*
X163517442Y-41118769D01*
X163484231Y-41183808D01*
X163482492Y-41190916D01*
X163480393Y-41196559D01*
X163478476Y-41202322D01*
X163475378Y-41208950D01*
X163473888Y-41216112D01*
X163473888Y-41216113D01*
X163460514Y-41280412D01*
X163459544Y-41284696D01*
X163442192Y-41355610D01*
X163441500Y-41366764D01*
X163441464Y-41366762D01*
X163441225Y-41370755D01*
X163440851Y-41374947D01*
X163439360Y-41382115D01*
X163439558Y-41389432D01*
X163441454Y-41459521D01*
X163441500Y-41462928D01*
X163441500Y-42533629D01*
X163421498Y-42601750D01*
X163404595Y-42622724D01*
X160522724Y-45504595D01*
X160460412Y-45538621D01*
X160433629Y-45541500D01*
X151951966Y-45541500D01*
X151909699Y-45534199D01*
X151842424Y-45510243D01*
X151842422Y-45510242D01*
X151835790Y-45507881D01*
X151828802Y-45507048D01*
X151828799Y-45507047D01*
X151705698Y-45492368D01*
X151655680Y-45486404D01*
X151648677Y-45487140D01*
X151648676Y-45487140D01*
X151482288Y-45504628D01*
X151482286Y-45504629D01*
X151475288Y-45505364D01*
X151390585Y-45534199D01*
X151388884Y-45534778D01*
X151348279Y-45541500D01*
X137516371Y-45541500D01*
X137448250Y-45521498D01*
X137427276Y-45504595D01*
X134395405Y-42472724D01*
X134361379Y-42410412D01*
X134358500Y-42383629D01*
X134358500Y-41427169D01*
X144024501Y-41427169D01*
X144024871Y-41433990D01*
X144030395Y-41484852D01*
X144034021Y-41500104D01*
X144079176Y-41620554D01*
X144087714Y-41636149D01*
X144164215Y-41738224D01*
X144176776Y-41750785D01*
X144278851Y-41827286D01*
X144294446Y-41835824D01*
X144414894Y-41880978D01*
X144430149Y-41884605D01*
X144481014Y-41890131D01*
X144487828Y-41890500D01*
X144935385Y-41890500D01*
X144950624Y-41886025D01*
X144951829Y-41884635D01*
X144953500Y-41876952D01*
X144953500Y-41872384D01*
X145461500Y-41872384D01*
X145465975Y-41887623D01*
X145467365Y-41888828D01*
X145475048Y-41890499D01*
X145927169Y-41890499D01*
X145933990Y-41890129D01*
X145984852Y-41884605D01*
X146000104Y-41880979D01*
X146120554Y-41835824D01*
X146136149Y-41827286D01*
X146238224Y-41750785D01*
X146250785Y-41738224D01*
X146327286Y-41636149D01*
X146335824Y-41620554D01*
X146380978Y-41500106D01*
X146384605Y-41484851D01*
X146390131Y-41433986D01*
X146390500Y-41427172D01*
X146390500Y-40979615D01*
X146386025Y-40964376D01*
X146384635Y-40963171D01*
X146376952Y-40961500D01*
X145479615Y-40961500D01*
X145464376Y-40965975D01*
X145463171Y-40967365D01*
X145461500Y-40975048D01*
X145461500Y-41872384D01*
X144953500Y-41872384D01*
X144953500Y-40979615D01*
X144949025Y-40964376D01*
X144947635Y-40963171D01*
X144939952Y-40961500D01*
X144042616Y-40961500D01*
X144027377Y-40965975D01*
X144026172Y-40967365D01*
X144024501Y-40975048D01*
X144024501Y-41427169D01*
X134358500Y-41427169D01*
X134358500Y-35667070D01*
X134359933Y-35648120D01*
X134362099Y-35633885D01*
X134362099Y-35633881D01*
X134363199Y-35626651D01*
X134362597Y-35619241D01*
X134358915Y-35573982D01*
X134358500Y-35563767D01*
X134358500Y-35555707D01*
X134355209Y-35527480D01*
X134354778Y-35523121D01*
X134349454Y-35457662D01*
X134349453Y-35457659D01*
X134348860Y-35450364D01*
X134346604Y-35443400D01*
X134345417Y-35437461D01*
X134344030Y-35431590D01*
X134343182Y-35424319D01*
X134340686Y-35417443D01*
X134340684Y-35417434D01*
X134318275Y-35355702D01*
X134316865Y-35351598D01*
X134294352Y-35282101D01*
X134290556Y-35275846D01*
X134288057Y-35270387D01*
X134285329Y-35264939D01*
X134282833Y-35258063D01*
X134242805Y-35197010D01*
X134240481Y-35193327D01*
X134205500Y-35135680D01*
X134205499Y-35135679D01*
X134202595Y-35130893D01*
X134195198Y-35122517D01*
X134195225Y-35122493D01*
X134192570Y-35119499D01*
X134189868Y-35116268D01*
X134185856Y-35110148D01*
X134129617Y-35056872D01*
X134127175Y-35054494D01*
X133291270Y-34218589D01*
X133278884Y-34204177D01*
X133270351Y-34192582D01*
X133270346Y-34192577D01*
X133266008Y-34186682D01*
X133260430Y-34181943D01*
X133260427Y-34181940D01*
X133225732Y-34152465D01*
X133218216Y-34145535D01*
X133212521Y-34139840D01*
X133206380Y-34134982D01*
X133190249Y-34122219D01*
X133186845Y-34119428D01*
X133136797Y-34076909D01*
X133136795Y-34076908D01*
X133131215Y-34072167D01*
X133124699Y-34068839D01*
X133119650Y-34065472D01*
X133114521Y-34062305D01*
X133108784Y-34057766D01*
X133042625Y-34026845D01*
X133038725Y-34024939D01*
X132973692Y-33991731D01*
X132966584Y-33989992D01*
X132960941Y-33987893D01*
X132955178Y-33985976D01*
X132948550Y-33982878D01*
X132877083Y-33968013D01*
X132872799Y-33967043D01*
X132801890Y-33949692D01*
X132796288Y-33949344D01*
X132796285Y-33949344D01*
X132790736Y-33949000D01*
X132790738Y-33948964D01*
X132786745Y-33948725D01*
X132782553Y-33948351D01*
X132775385Y-33946860D01*
X132709175Y-33948651D01*
X132697979Y-33948954D01*
X132694572Y-33949000D01*
X132579311Y-33949000D01*
X132511190Y-33928998D01*
X132491060Y-33911888D01*
X132490780Y-33912191D01*
X132368578Y-33799229D01*
X132332133Y-33738300D01*
X132334414Y-33667340D01*
X132373538Y-33609830D01*
X132443508Y-33551637D01*
X132447946Y-33547946D01*
X132587032Y-33380713D01*
X132693313Y-33190935D01*
X132695169Y-33185468D01*
X132695171Y-33185463D01*
X132761374Y-32990435D01*
X132761375Y-32990430D01*
X132763230Y-32984966D01*
X132794441Y-32769705D01*
X132796070Y-32707500D01*
X132776167Y-32490900D01*
X132762855Y-32443699D01*
X132763616Y-32372708D01*
X132802638Y-32313397D01*
X132867531Y-32284597D01*
X132884125Y-32283500D01*
X137803497Y-32283500D01*
X137819944Y-32284578D01*
X137850000Y-32288535D01*
X137858188Y-32287457D01*
X137888244Y-32283500D01*
X137942386Y-32276372D01*
X138002324Y-32268481D01*
X138144267Y-32209686D01*
X138244792Y-32132551D01*
X138259611Y-32121180D01*
X138266157Y-32116157D01*
X138284619Y-32092097D01*
X138295486Y-32079707D01*
X139047288Y-31327905D01*
X139109600Y-31293879D01*
X139136383Y-31291000D01*
X144105304Y-31291000D01*
X144173425Y-31311002D01*
X144208200Y-31344279D01*
X144267208Y-31427773D01*
X144296199Y-31468794D01*
X144303704Y-31479414D01*
X144404743Y-31577841D01*
X144447241Y-31619241D01*
X144482079Y-31681102D01*
X144477942Y-31751978D01*
X144442399Y-31804226D01*
X144345342Y-31889342D01*
X144341770Y-31893873D01*
X144221402Y-32046559D01*
X144210681Y-32060158D01*
X144109405Y-32252654D01*
X144107692Y-32258171D01*
X144049101Y-32446863D01*
X144044903Y-32460382D01*
X144019337Y-32676387D01*
X144033563Y-32893433D01*
X144034984Y-32899029D01*
X144034985Y-32899034D01*
X144085684Y-33098658D01*
X144087105Y-33104253D01*
X144178168Y-33301785D01*
X144303704Y-33479414D01*
X144307846Y-33483449D01*
X144447241Y-33619241D01*
X144482079Y-33681102D01*
X144477942Y-33751978D01*
X144442399Y-33804226D01*
X144345342Y-33889342D01*
X144341770Y-33893873D01*
X144215007Y-34054671D01*
X144210681Y-34060158D01*
X144207993Y-34065267D01*
X144182363Y-34113982D01*
X144109405Y-34252654D01*
X144044903Y-34460382D01*
X144019337Y-34676387D01*
X144033563Y-34893433D01*
X144034984Y-34899029D01*
X144034985Y-34899034D01*
X144060734Y-35000419D01*
X144087105Y-35104253D01*
X144089522Y-35109496D01*
X144129883Y-35197047D01*
X144178168Y-35301785D01*
X144181501Y-35306501D01*
X144264767Y-35424319D01*
X144303704Y-35479414D01*
X144437514Y-35609765D01*
X144447241Y-35619241D01*
X144482079Y-35681102D01*
X144477942Y-35751978D01*
X144442399Y-35804226D01*
X144345342Y-35889342D01*
X144341770Y-35893873D01*
X144237023Y-36026744D01*
X144210681Y-36060158D01*
X144207993Y-36065267D01*
X144190896Y-36097764D01*
X144109405Y-36252654D01*
X144107692Y-36258171D01*
X144053129Y-36433891D01*
X144044903Y-36460382D01*
X144019337Y-36676387D01*
X144033563Y-36893433D01*
X144034984Y-36899029D01*
X144034985Y-36899034D01*
X144079717Y-37075164D01*
X144087105Y-37104253D01*
X144178168Y-37301785D01*
X144181501Y-37306501D01*
X144296871Y-37469745D01*
X144303704Y-37479414D01*
X144307846Y-37483449D01*
X144447241Y-37619241D01*
X144482079Y-37681102D01*
X144477942Y-37751978D01*
X144442399Y-37804226D01*
X144345342Y-37889342D01*
X144341770Y-37893873D01*
X144215067Y-38054595D01*
X144210681Y-38060158D01*
X144207993Y-38065267D01*
X144182005Y-38114662D01*
X144109405Y-38252654D01*
X144107692Y-38258171D01*
X144048127Y-38450000D01*
X144044903Y-38460382D01*
X144019337Y-38676387D01*
X144033563Y-38893433D01*
X144034984Y-38899029D01*
X144034985Y-38899034D01*
X144085067Y-39096230D01*
X144087105Y-39104253D01*
X144089522Y-39109496D01*
X144110021Y-39153962D01*
X144178168Y-39301785D01*
X144274419Y-39437977D01*
X144297399Y-39505149D01*
X144280415Y-39574084D01*
X144247086Y-39611522D01*
X144176772Y-39664219D01*
X144164215Y-39676776D01*
X144087714Y-39778851D01*
X144079176Y-39794446D01*
X144034022Y-39914894D01*
X144030395Y-39930149D01*
X144024869Y-39981014D01*
X144024500Y-39987828D01*
X144024500Y-40435385D01*
X144028975Y-40450624D01*
X144030365Y-40451829D01*
X144038048Y-40453500D01*
X146372384Y-40453500D01*
X146387623Y-40449025D01*
X146388828Y-40447635D01*
X146390499Y-40439952D01*
X146390499Y-39987831D01*
X146390129Y-39981010D01*
X146384605Y-39930148D01*
X146380979Y-39914896D01*
X146335824Y-39794446D01*
X146327286Y-39778851D01*
X146250785Y-39676776D01*
X146238224Y-39664215D01*
X146167502Y-39611212D01*
X146124987Y-39554353D01*
X146119961Y-39483535D01*
X146146193Y-39429817D01*
X146183341Y-39385151D01*
X146187032Y-39380713D01*
X146189851Y-39375679D01*
X146193129Y-39370910D01*
X146195369Y-39372449D01*
X146237850Y-39330812D01*
X146297123Y-39316000D01*
X149453261Y-39316000D01*
X149521382Y-39336002D01*
X149542356Y-39352905D01*
X151085685Y-40896234D01*
X151096552Y-40908625D01*
X151116013Y-40933987D01*
X151122563Y-40939013D01*
X151147921Y-40958471D01*
X151147937Y-40958485D01*
X151193934Y-40993779D01*
X151243124Y-41031524D01*
X151391149Y-41092838D01*
X151399336Y-41093916D01*
X151399337Y-41093916D01*
X151410542Y-41095391D01*
X151435358Y-41098658D01*
X151510115Y-41108500D01*
X151510118Y-41108500D01*
X151510126Y-41108501D01*
X151541811Y-41112672D01*
X151550000Y-41113750D01*
X151581693Y-41109578D01*
X151598136Y-41108500D01*
X153265699Y-41108500D01*
X153334692Y-41129068D01*
X153467711Y-41216113D01*
X153483159Y-41226222D01*
X153489763Y-41228678D01*
X153489765Y-41228679D01*
X153646558Y-41286990D01*
X153646560Y-41286990D01*
X153653168Y-41289448D01*
X153736995Y-41300633D01*
X153825980Y-41312507D01*
X153825984Y-41312507D01*
X153832961Y-41313438D01*
X153839972Y-41312800D01*
X153839976Y-41312800D01*
X153982459Y-41299832D01*
X154013600Y-41296998D01*
X154020302Y-41294820D01*
X154020304Y-41294820D01*
X154179409Y-41243124D01*
X154179412Y-41243123D01*
X154186108Y-41240947D01*
X154341912Y-41148069D01*
X154473266Y-41022982D01*
X154573643Y-40871902D01*
X154638055Y-40702338D01*
X154649744Y-40619168D01*
X154662748Y-40526639D01*
X154662748Y-40526636D01*
X154663299Y-40522717D01*
X154663616Y-40500000D01*
X154643397Y-40319745D01*
X154621693Y-40257419D01*
X154586064Y-40155106D01*
X154586062Y-40155103D01*
X154583745Y-40148448D01*
X154487626Y-39994624D01*
X154480880Y-39987831D01*
X154364778Y-39870915D01*
X154364774Y-39870912D01*
X154359815Y-39865918D01*
X154348697Y-39858862D01*
X154262605Y-39804227D01*
X154206666Y-39768727D01*
X154121217Y-39738300D01*
X154042425Y-39710243D01*
X154042420Y-39710242D01*
X154035790Y-39707881D01*
X154028802Y-39707048D01*
X154028799Y-39707047D01*
X153905698Y-39692368D01*
X153855680Y-39686404D01*
X153848677Y-39687140D01*
X153848676Y-39687140D01*
X153682288Y-39704628D01*
X153682286Y-39704629D01*
X153675288Y-39705364D01*
X153503579Y-39763818D01*
X153349088Y-39858862D01*
X153344054Y-39863791D01*
X153342776Y-39864790D01*
X153276782Y-39890967D01*
X153265204Y-39891500D01*
X151854239Y-39891500D01*
X151786118Y-39871498D01*
X151765144Y-39854595D01*
X150221815Y-38311266D01*
X150210948Y-38298875D01*
X150196513Y-38280063D01*
X150191487Y-38273513D01*
X150159575Y-38249026D01*
X150159572Y-38249023D01*
X150075034Y-38184154D01*
X150070929Y-38181004D01*
X150070927Y-38181003D01*
X150064376Y-38175976D01*
X149916351Y-38114662D01*
X149908164Y-38113584D01*
X149908163Y-38113584D01*
X149896958Y-38112109D01*
X149865762Y-38108002D01*
X149797385Y-38099000D01*
X149797382Y-38099000D01*
X149797374Y-38098999D01*
X149765689Y-38094828D01*
X149757500Y-38093750D01*
X149725807Y-38097922D01*
X149709364Y-38099000D01*
X146293442Y-38099000D01*
X146225321Y-38078998D01*
X146192484Y-38048389D01*
X146094233Y-37916815D01*
X146094232Y-37916814D01*
X146090780Y-37912191D01*
X146080285Y-37902489D01*
X145968578Y-37799229D01*
X145932133Y-37738300D01*
X145934414Y-37667340D01*
X145973538Y-37609830D01*
X146043508Y-37551637D01*
X146047946Y-37547946D01*
X146187032Y-37380713D01*
X146189851Y-37375679D01*
X146193129Y-37370910D01*
X146195369Y-37372449D01*
X146237850Y-37330812D01*
X146297123Y-37316000D01*
X149953261Y-37316000D01*
X150021382Y-37336002D01*
X150042356Y-37352905D01*
X151785685Y-39096234D01*
X151796552Y-39108625D01*
X151816013Y-39133987D01*
X151822563Y-39139013D01*
X151847921Y-39158471D01*
X151847937Y-39158485D01*
X151897305Y-39196366D01*
X151943124Y-39231524D01*
X152017137Y-39262181D01*
X152083520Y-39289678D01*
X152083523Y-39289679D01*
X152091150Y-39292838D01*
X152250000Y-39313751D01*
X152281699Y-39309578D01*
X152298144Y-39308500D01*
X161301864Y-39308500D01*
X161318307Y-39309578D01*
X161350000Y-39313750D01*
X161358189Y-39312672D01*
X161389874Y-39308501D01*
X161389884Y-39308500D01*
X161389885Y-39308500D01*
X161489457Y-39295391D01*
X161500664Y-39293916D01*
X161500666Y-39293915D01*
X161508851Y-39292838D01*
X161656876Y-39231524D01*
X161663430Y-39226495D01*
X161752069Y-39158480D01*
X161752075Y-39158474D01*
X161757955Y-39153962D01*
X161783987Y-39133987D01*
X161789017Y-39127432D01*
X161803452Y-39108621D01*
X161814319Y-39096230D01*
X162356234Y-38554315D01*
X162368625Y-38543448D01*
X162387437Y-38529013D01*
X162393987Y-38523987D01*
X162418474Y-38492075D01*
X162418477Y-38492072D01*
X162418481Y-38492066D01*
X162418491Y-38492055D01*
X162478522Y-38413820D01*
X162478523Y-38413818D01*
X162486498Y-38403425D01*
X162491524Y-38396875D01*
X162494878Y-38388779D01*
X162549678Y-38256479D01*
X162552838Y-38248850D01*
X162553916Y-38240662D01*
X162556053Y-38232686D01*
X162559499Y-38233609D01*
X162580697Y-38185428D01*
X162583266Y-38182982D01*
X162590021Y-38172816D01*
X162639780Y-38097922D01*
X162683643Y-38031902D01*
X162748055Y-37862338D01*
X162749035Y-37855366D01*
X162772748Y-37686639D01*
X162772748Y-37686636D01*
X162773299Y-37682717D01*
X162773514Y-37667340D01*
X162773561Y-37663962D01*
X162773561Y-37663957D01*
X162773616Y-37660000D01*
X162753397Y-37479745D01*
X162749915Y-37469745D01*
X162696064Y-37315106D01*
X162696062Y-37315103D01*
X162693745Y-37308448D01*
X162597626Y-37154624D01*
X162595215Y-37152196D01*
X162569117Y-37087716D01*
X162568500Y-37075263D01*
X162568500Y-25508136D01*
X162569578Y-25491690D01*
X162572672Y-25468188D01*
X162573750Y-25460000D01*
X162568500Y-25420120D01*
X162568500Y-25420115D01*
X162555391Y-25320543D01*
X162552838Y-25301149D01*
X162491524Y-25153124D01*
X162429864Y-25072768D01*
X162393987Y-25026013D01*
X162368620Y-25006548D01*
X162356229Y-24995681D01*
X153331086Y-15970537D01*
X153297060Y-15908225D01*
X153302125Y-15837410D01*
X153344672Y-15780574D01*
X153411192Y-15755763D01*
X153420489Y-15755442D01*
X164729655Y-15783832D01*
X174241251Y-15807710D01*
X174309322Y-15827883D01*
X174355680Y-15881656D01*
X174365607Y-15951955D01*
X174335952Y-16016461D01*
X174282993Y-16052483D01*
X174264706Y-16058958D01*
X174264691Y-16058964D01*
X174260657Y-16060393D01*
X174005188Y-16192250D01*
X174001687Y-16194711D01*
X174001683Y-16194713D01*
X173991594Y-16201804D01*
X173769977Y-16357559D01*
X173559378Y-16553260D01*
X173377287Y-16775732D01*
X173227073Y-17020858D01*
X173225347Y-17024791D01*
X173225346Y-17024792D01*
X173113243Y-17280170D01*
X173111517Y-17284102D01*
X173032756Y-17560594D01*
X172992249Y-17845216D01*
X172992227Y-17849505D01*
X172992226Y-17849512D01*
X172990765Y-18128417D01*
X172990743Y-18132703D01*
X173028268Y-18417734D01*
X173104129Y-18695036D01*
X173105813Y-18698984D01*
X173210362Y-18944093D01*
X173216923Y-18959476D01*
X173274611Y-19055866D01*
X173346302Y-19175652D01*
X173364561Y-19206161D01*
X173544313Y-19430528D01*
X173752851Y-19628423D01*
X173986317Y-19796186D01*
X173990112Y-19798195D01*
X173990113Y-19798196D01*
X174010690Y-19809091D01*
X174240392Y-19930712D01*
X174264699Y-19939607D01*
X174423342Y-19997662D01*
X174510373Y-20029511D01*
X174791264Y-20090755D01*
X174819841Y-20093004D01*
X175014282Y-20108307D01*
X175014291Y-20108307D01*
X175016739Y-20108500D01*
X175172271Y-20108500D01*
X175174407Y-20108354D01*
X175174418Y-20108354D01*
X175382548Y-20094165D01*
X175382554Y-20094164D01*
X175386825Y-20093873D01*
X175391020Y-20093004D01*
X175391022Y-20093004D01*
X175527584Y-20064723D01*
X175668342Y-20035574D01*
X175939343Y-19939607D01*
X176178721Y-19816055D01*
X176191005Y-19809715D01*
X176191006Y-19809715D01*
X176194812Y-19807750D01*
X176198313Y-19805289D01*
X176198317Y-19805287D01*
X176379265Y-19678114D01*
X176430023Y-19642441D01*
X176551652Y-19529416D01*
X176637479Y-19449661D01*
X176637481Y-19449658D01*
X176640622Y-19446740D01*
X176822713Y-19224268D01*
X176972927Y-18979142D01*
X176980318Y-18962306D01*
X177086757Y-18719830D01*
X177088483Y-18715898D01*
X177167244Y-18439406D01*
X177207751Y-18154784D01*
X177207845Y-18136951D01*
X177209235Y-17871583D01*
X177209235Y-17871576D01*
X177209257Y-17867297D01*
X177171732Y-17582266D01*
X177095871Y-17304964D01*
X177085295Y-17280170D01*
X176984763Y-17044476D01*
X176984761Y-17044472D01*
X176983077Y-17040524D01*
X176835439Y-16793839D01*
X176655687Y-16569472D01*
X176447149Y-16371577D01*
X176213683Y-16203814D01*
X176191843Y-16192250D01*
X176168654Y-16179972D01*
X175959608Y-16069288D01*
X175924308Y-16056370D01*
X175867210Y-16014176D01*
X175841988Y-15947810D01*
X175856650Y-15878344D01*
X175906541Y-15827832D01*
X175967924Y-15812044D01*
X177366319Y-15815555D01*
X177434387Y-15835727D01*
X177480745Y-15889500D01*
X177492000Y-15941554D01*
X177492000Y-89366000D01*
X177471998Y-89434121D01*
X177418342Y-89480614D01*
X177366000Y-89492000D01*
X176208738Y-89492000D01*
X176140617Y-89471998D01*
X176094124Y-89418342D01*
X176084020Y-89348068D01*
X176113514Y-89283488D01*
X176142795Y-89258791D01*
X176144812Y-89257750D01*
X176380023Y-89092441D01*
X176590622Y-88896740D01*
X176772713Y-88674268D01*
X176922927Y-88429142D01*
X177038483Y-88165898D01*
X177045550Y-88141091D01*
X177116068Y-87893534D01*
X177117244Y-87889406D01*
X177157751Y-87604784D01*
X177157845Y-87586951D01*
X177159235Y-87321583D01*
X177159235Y-87321576D01*
X177159257Y-87317297D01*
X177121732Y-87032266D01*
X177045871Y-86754964D01*
X176933077Y-86490524D01*
X176785439Y-86243839D01*
X176605687Y-86019472D01*
X176397149Y-85821577D01*
X176163683Y-85653814D01*
X176148087Y-85645556D01*
X176074258Y-85606466D01*
X175909608Y-85519288D01*
X175639627Y-85420489D01*
X175358736Y-85359245D01*
X175327685Y-85356801D01*
X175135718Y-85341693D01*
X175135709Y-85341693D01*
X175133261Y-85341500D01*
X174977729Y-85341500D01*
X174975593Y-85341646D01*
X174975582Y-85341646D01*
X174767452Y-85355835D01*
X174767446Y-85355836D01*
X174763175Y-85356127D01*
X174758980Y-85356996D01*
X174758978Y-85356996D01*
X174622417Y-85385276D01*
X174481658Y-85414426D01*
X174210657Y-85510393D01*
X174206848Y-85512359D01*
X174016521Y-85610594D01*
X173955188Y-85642250D01*
X173951687Y-85644711D01*
X173951683Y-85644713D01*
X173899405Y-85681455D01*
X173719977Y-85807559D01*
X173509378Y-86003260D01*
X173327287Y-86225732D01*
X173177073Y-86470858D01*
X173061517Y-86734102D01*
X173060342Y-86738229D01*
X173060341Y-86738230D01*
X173052460Y-86765898D01*
X172982756Y-87010594D01*
X172942249Y-87295216D01*
X172942227Y-87299505D01*
X172942226Y-87299512D01*
X172941193Y-87496740D01*
X172940743Y-87582703D01*
X172941302Y-87586947D01*
X172941302Y-87586951D01*
X172957810Y-87712340D01*
X172978268Y-87867734D01*
X173054129Y-88145036D01*
X173166923Y-88409476D01*
X173314561Y-88656161D01*
X173494313Y-88880528D01*
X173702851Y-89078423D01*
X173936317Y-89246186D01*
X173952297Y-89254647D01*
X174003139Y-89304199D01*
X174019120Y-89373373D01*
X173995166Y-89440207D01*
X173938882Y-89483480D01*
X173893336Y-89492000D01*
X91634000Y-89492000D01*
X91565879Y-89471998D01*
X91519386Y-89418342D01*
X91508000Y-89366000D01*
X91508000Y-86182703D01*
X93440743Y-86182703D01*
X93478268Y-86467734D01*
X93554129Y-86745036D01*
X93666923Y-87009476D01*
X93814561Y-87256161D01*
X93994313Y-87480528D01*
X94202851Y-87678423D01*
X94436317Y-87846186D01*
X94440112Y-87848195D01*
X94440113Y-87848196D01*
X94461869Y-87859715D01*
X94690392Y-87980712D01*
X94960373Y-88079511D01*
X95241264Y-88140755D01*
X95269841Y-88143004D01*
X95464282Y-88158307D01*
X95464291Y-88158307D01*
X95466739Y-88158500D01*
X95622271Y-88158500D01*
X95624407Y-88158354D01*
X95624418Y-88158354D01*
X95832548Y-88144165D01*
X95832554Y-88144164D01*
X95836825Y-88143873D01*
X95841020Y-88143004D01*
X95841022Y-88143004D01*
X95977584Y-88114723D01*
X96118342Y-88085574D01*
X96389343Y-87989607D01*
X96575482Y-87893534D01*
X96641005Y-87859715D01*
X96641006Y-87859715D01*
X96644812Y-87857750D01*
X96648313Y-87855289D01*
X96648317Y-87855287D01*
X96762417Y-87775096D01*
X96880023Y-87692441D01*
X97090622Y-87496740D01*
X97272713Y-87274268D01*
X97422927Y-87029142D01*
X97538483Y-86765898D01*
X97546365Y-86738230D01*
X97616068Y-86493534D01*
X97617244Y-86489406D01*
X97657751Y-86204784D01*
X97657845Y-86186951D01*
X97659235Y-85921583D01*
X97659235Y-85921576D01*
X97659257Y-85917297D01*
X97644486Y-85805096D01*
X97628181Y-85681250D01*
X97621732Y-85632266D01*
X97545871Y-85354964D01*
X97516865Y-85286961D01*
X97434763Y-85094476D01*
X97434761Y-85094472D01*
X97433077Y-85090524D01*
X97327710Y-84914468D01*
X97287643Y-84847521D01*
X97287640Y-84847517D01*
X97285439Y-84843839D01*
X97215593Y-84756657D01*
X107672000Y-84756657D01*
X107672301Y-84762805D01*
X107685812Y-84900603D01*
X107688195Y-84912638D01*
X107741767Y-85090076D01*
X107746441Y-85101416D01*
X107833460Y-85265077D01*
X107840249Y-85275294D01*
X107957397Y-85418933D01*
X107966041Y-85427637D01*
X108108856Y-85545784D01*
X108119027Y-85552644D01*
X108282076Y-85640804D01*
X108293381Y-85645556D01*
X108408692Y-85681250D01*
X108422795Y-85681456D01*
X108426000Y-85674701D01*
X108426000Y-85667924D01*
X108934000Y-85667924D01*
X108937973Y-85681455D01*
X108945768Y-85682575D01*
X109053521Y-85650862D01*
X109064889Y-85646269D01*
X109229154Y-85560393D01*
X109239415Y-85553679D01*
X109383873Y-85437532D01*
X109392632Y-85428954D01*
X109511778Y-85286961D01*
X109518708Y-85276841D01*
X109608002Y-85114415D01*
X109612834Y-85103142D01*
X109668880Y-84926462D01*
X109671430Y-84914468D01*
X109687607Y-84770239D01*
X109688000Y-84763215D01*
X109688000Y-84756657D01*
X116312000Y-84756657D01*
X116312301Y-84762805D01*
X116325812Y-84900603D01*
X116328195Y-84912638D01*
X116381767Y-85090076D01*
X116386441Y-85101416D01*
X116473460Y-85265077D01*
X116480249Y-85275294D01*
X116597397Y-85418933D01*
X116606041Y-85427637D01*
X116748856Y-85545784D01*
X116759027Y-85552644D01*
X116922076Y-85640804D01*
X116933381Y-85645556D01*
X117048692Y-85681250D01*
X117062795Y-85681456D01*
X117066000Y-85674701D01*
X117066000Y-85667924D01*
X117574000Y-85667924D01*
X117577973Y-85681455D01*
X117585768Y-85682575D01*
X117693521Y-85650862D01*
X117704889Y-85646269D01*
X117869154Y-85560393D01*
X117879415Y-85553679D01*
X118023873Y-85437532D01*
X118032632Y-85428954D01*
X118151778Y-85286961D01*
X118158708Y-85276841D01*
X118248002Y-85114415D01*
X118252834Y-85103142D01*
X118308880Y-84926462D01*
X118311430Y-84914468D01*
X118327607Y-84770239D01*
X118328000Y-84763215D01*
X118328000Y-84682115D01*
X118323525Y-84666876D01*
X118322135Y-84665671D01*
X118314452Y-84664000D01*
X117592115Y-84664000D01*
X117576876Y-84668475D01*
X117575671Y-84669865D01*
X117574000Y-84677548D01*
X117574000Y-85667924D01*
X117066000Y-85667924D01*
X117066000Y-84682115D01*
X117061525Y-84666876D01*
X117060135Y-84665671D01*
X117052452Y-84664000D01*
X116330115Y-84664000D01*
X116314876Y-84668475D01*
X116313671Y-84669865D01*
X116312000Y-84677548D01*
X116312000Y-84756657D01*
X109688000Y-84756657D01*
X109688000Y-84682115D01*
X109683525Y-84666876D01*
X109682135Y-84665671D01*
X109674452Y-84664000D01*
X108952115Y-84664000D01*
X108936876Y-84668475D01*
X108935671Y-84669865D01*
X108934000Y-84677548D01*
X108934000Y-85667924D01*
X108426000Y-85667924D01*
X108426000Y-84682115D01*
X108421525Y-84666876D01*
X108420135Y-84665671D01*
X108412452Y-84664000D01*
X107690115Y-84664000D01*
X107674876Y-84668475D01*
X107673671Y-84669865D01*
X107672000Y-84677548D01*
X107672000Y-84756657D01*
X97215593Y-84756657D01*
X97105687Y-84619472D01*
X96897149Y-84421577D01*
X96663683Y-84253814D01*
X96641843Y-84242250D01*
X96618654Y-84229972D01*
X96444732Y-84137885D01*
X107672000Y-84137885D01*
X107676475Y-84153124D01*
X107677865Y-84154329D01*
X107685548Y-84156000D01*
X108407885Y-84156000D01*
X108423124Y-84151525D01*
X108424329Y-84150135D01*
X108426000Y-84142452D01*
X108426000Y-84137885D01*
X108934000Y-84137885D01*
X108938475Y-84153124D01*
X108939865Y-84154329D01*
X108947548Y-84156000D01*
X109669885Y-84156000D01*
X109685124Y-84151525D01*
X109686329Y-84150135D01*
X109688000Y-84142452D01*
X109688000Y-84137885D01*
X116312000Y-84137885D01*
X116316475Y-84153124D01*
X116317865Y-84154329D01*
X116325548Y-84156000D01*
X117047885Y-84156000D01*
X117063124Y-84151525D01*
X117064329Y-84150135D01*
X117066000Y-84142452D01*
X117066000Y-84137885D01*
X117574000Y-84137885D01*
X117578475Y-84153124D01*
X117579865Y-84154329D01*
X117587548Y-84156000D01*
X118309885Y-84156000D01*
X118325124Y-84151525D01*
X118326329Y-84150135D01*
X118328000Y-84142452D01*
X118328000Y-84063343D01*
X118327699Y-84057195D01*
X118314188Y-83919397D01*
X118311805Y-83907362D01*
X118258233Y-83729924D01*
X118253559Y-83718584D01*
X118166540Y-83554923D01*
X118159751Y-83544706D01*
X118042603Y-83401067D01*
X118033959Y-83392363D01*
X117891144Y-83274216D01*
X117880973Y-83267356D01*
X117717924Y-83179196D01*
X117706619Y-83174444D01*
X117591308Y-83138750D01*
X117577205Y-83138544D01*
X117574000Y-83145299D01*
X117574000Y-84137885D01*
X117066000Y-84137885D01*
X117066000Y-83152076D01*
X117062027Y-83138545D01*
X117054232Y-83137425D01*
X116946479Y-83169138D01*
X116935111Y-83173731D01*
X116770846Y-83259607D01*
X116760585Y-83266321D01*
X116616127Y-83382468D01*
X116607368Y-83391046D01*
X116488222Y-83533039D01*
X116481292Y-83543159D01*
X116391998Y-83705585D01*
X116387166Y-83716858D01*
X116331120Y-83893538D01*
X116328570Y-83905532D01*
X116312393Y-84049761D01*
X116312000Y-84056785D01*
X116312000Y-84137885D01*
X109688000Y-84137885D01*
X109688000Y-84063343D01*
X109687699Y-84057195D01*
X109674188Y-83919397D01*
X109671805Y-83907362D01*
X109618233Y-83729924D01*
X109613559Y-83718584D01*
X109526540Y-83554923D01*
X109519751Y-83544706D01*
X109402603Y-83401067D01*
X109393959Y-83392363D01*
X109251144Y-83274216D01*
X109240973Y-83267356D01*
X109077924Y-83179196D01*
X109066619Y-83174444D01*
X108951308Y-83138750D01*
X108937205Y-83138544D01*
X108934000Y-83145299D01*
X108934000Y-84137885D01*
X108426000Y-84137885D01*
X108426000Y-83152076D01*
X108422027Y-83138545D01*
X108414232Y-83137425D01*
X108306479Y-83169138D01*
X108295111Y-83173731D01*
X108130846Y-83259607D01*
X108120585Y-83266321D01*
X107976127Y-83382468D01*
X107967368Y-83391046D01*
X107848222Y-83533039D01*
X107841292Y-83543159D01*
X107751998Y-83705585D01*
X107747166Y-83716858D01*
X107691120Y-83893538D01*
X107688570Y-83905532D01*
X107672393Y-84049761D01*
X107672000Y-84056785D01*
X107672000Y-84137885D01*
X96444732Y-84137885D01*
X96409608Y-84119288D01*
X96239931Y-84057195D01*
X96143658Y-84021964D01*
X96143656Y-84021963D01*
X96139627Y-84020489D01*
X95858736Y-83959245D01*
X95827685Y-83956801D01*
X95635718Y-83941693D01*
X95635709Y-83941693D01*
X95633261Y-83941500D01*
X95477729Y-83941500D01*
X95475593Y-83941646D01*
X95475582Y-83941646D01*
X95267452Y-83955835D01*
X95267446Y-83955836D01*
X95263175Y-83956127D01*
X95258980Y-83956996D01*
X95258978Y-83956996D01*
X95122417Y-83985276D01*
X94981658Y-84014426D01*
X94710657Y-84110393D01*
X94455188Y-84242250D01*
X94451687Y-84244711D01*
X94451683Y-84244713D01*
X94441594Y-84251804D01*
X94219977Y-84407559D01*
X94009378Y-84603260D01*
X93827287Y-84825732D01*
X93677073Y-85070858D01*
X93561517Y-85334102D01*
X93560342Y-85338229D01*
X93560341Y-85338230D01*
X93554395Y-85359103D01*
X93482756Y-85610594D01*
X93442249Y-85895216D01*
X93442227Y-85899505D01*
X93442226Y-85899512D01*
X93440765Y-86178417D01*
X93440743Y-86182703D01*
X91508000Y-86182703D01*
X91508000Y-82295193D01*
X121297289Y-82295193D01*
X121306124Y-82399325D01*
X121307914Y-82409797D01*
X121363130Y-82622535D01*
X121366665Y-82632575D01*
X121456937Y-82832970D01*
X121462106Y-82842256D01*
X121584850Y-83024575D01*
X121591519Y-83032870D01*
X121743228Y-83191900D01*
X121751186Y-83198941D01*
X121927525Y-83330141D01*
X121936562Y-83335745D01*
X122132484Y-83435357D01*
X122142335Y-83439357D01*
X122352240Y-83504534D01*
X122362624Y-83506817D01*
X122378043Y-83508861D01*
X122392207Y-83506665D01*
X122396000Y-83493478D01*
X122396000Y-83491192D01*
X122904000Y-83491192D01*
X122907973Y-83504723D01*
X122918580Y-83506248D01*
X123036421Y-83481523D01*
X123046617Y-83478463D01*
X123251029Y-83397737D01*
X123260561Y-83393006D01*
X123448462Y-83278984D01*
X123457052Y-83272720D01*
X123623052Y-83128673D01*
X123630470Y-83121044D01*
X123656391Y-83089431D01*
X123715051Y-83049436D01*
X123786021Y-83047504D01*
X123846770Y-83084248D01*
X123860969Y-83103017D01*
X123951522Y-83249348D01*
X124076697Y-83374305D01*
X124082927Y-83378145D01*
X124082928Y-83378146D01*
X124220090Y-83462694D01*
X124227262Y-83467115D01*
X124270701Y-83481523D01*
X124388611Y-83520632D01*
X124388613Y-83520632D01*
X124395139Y-83522797D01*
X124401975Y-83523497D01*
X124401978Y-83523498D01*
X124445031Y-83527909D01*
X124499600Y-83533500D01*
X125800400Y-83533500D01*
X125803646Y-83533163D01*
X125803650Y-83533163D01*
X125899308Y-83523238D01*
X125899312Y-83523237D01*
X125906166Y-83522526D01*
X125912702Y-83520345D01*
X125912704Y-83520345D01*
X126044806Y-83476272D01*
X126073946Y-83466550D01*
X126224348Y-83373478D01*
X126349305Y-83248303D01*
X126379732Y-83198941D01*
X126438275Y-83103968D01*
X126438276Y-83103966D01*
X126442115Y-83097738D01*
X126497797Y-82929861D01*
X126508500Y-82825400D01*
X126508500Y-81258995D01*
X126528502Y-81190874D01*
X126582158Y-81144381D01*
X126641239Y-81135226D01*
X126641337Y-81133228D01*
X126645357Y-81133425D01*
X126645374Y-81133425D01*
X126646899Y-81133500D01*
X126802846Y-81133500D01*
X126960566Y-81118452D01*
X127163534Y-81058908D01*
X127264908Y-81006697D01*
X127346249Y-80964804D01*
X127346252Y-80964802D01*
X127351580Y-80962058D01*
X127517920Y-80831396D01*
X127521852Y-80826865D01*
X127521855Y-80826862D01*
X127652621Y-80676167D01*
X127656552Y-80671637D01*
X127659552Y-80666451D01*
X127659555Y-80666447D01*
X127759467Y-80493742D01*
X127762473Y-80488546D01*
X127831861Y-80288729D01*
X127832722Y-80282792D01*
X127861352Y-80085336D01*
X127861352Y-80085333D01*
X127862213Y-80079396D01*
X127855212Y-79928134D01*
X140636500Y-79928134D01*
X140643255Y-79990316D01*
X140694385Y-80126705D01*
X140781739Y-80243261D01*
X140898295Y-80330615D01*
X141034684Y-80381745D01*
X141096866Y-80388500D01*
X143173134Y-80388500D01*
X143235316Y-80381745D01*
X143371705Y-80330615D01*
X143488261Y-80243261D01*
X143575615Y-80126705D01*
X143626745Y-79990316D01*
X143633500Y-79928134D01*
X143633500Y-78949857D01*
X145637000Y-78949857D01*
X145637212Y-78955030D01*
X145651626Y-79130350D01*
X145653309Y-79140512D01*
X145710800Y-79369396D01*
X145714121Y-79379151D01*
X145808218Y-79595557D01*
X145813096Y-79604655D01*
X145941273Y-79802787D01*
X145947563Y-79810956D01*
X146106387Y-79985501D01*
X146113920Y-79992526D01*
X146299120Y-80138787D01*
X146307707Y-80144492D01*
X146514297Y-80258536D01*
X146523709Y-80262766D01*
X146746156Y-80341539D01*
X146756127Y-80344173D01*
X146863163Y-80363239D01*
X146876460Y-80361779D01*
X146880591Y-80348534D01*
X147389000Y-80348534D01*
X147392918Y-80361878D01*
X147407194Y-80363865D01*
X147478236Y-80352994D01*
X147488263Y-80350605D01*
X147712570Y-80277291D01*
X147722079Y-80273294D01*
X147931395Y-80164331D01*
X147940120Y-80158837D01*
X148128835Y-80017146D01*
X148136542Y-80010303D01*
X148299584Y-79839690D01*
X148306067Y-79831684D01*
X148439057Y-79636726D01*
X148444143Y-79627774D01*
X148543506Y-79413715D01*
X148547060Y-79404055D01*
X148610130Y-79176631D01*
X148612057Y-79166527D01*
X148632644Y-78973898D01*
X148633000Y-78967206D01*
X148633000Y-78172115D01*
X148628525Y-78156876D01*
X148627135Y-78155671D01*
X148619452Y-78154000D01*
X147407115Y-78154000D01*
X147391876Y-78158475D01*
X147390671Y-78159865D01*
X147389000Y-78167548D01*
X147389000Y-80348534D01*
X146880591Y-80348534D01*
X146881000Y-80347222D01*
X146881000Y-78172115D01*
X146876525Y-78156876D01*
X146875135Y-78155671D01*
X146867452Y-78154000D01*
X145655115Y-78154000D01*
X145639876Y-78158475D01*
X145638671Y-78159865D01*
X145637000Y-78167548D01*
X145637000Y-78949857D01*
X143633500Y-78949857D01*
X143633500Y-77627885D01*
X145637000Y-77627885D01*
X145641475Y-77643124D01*
X145642865Y-77644329D01*
X145650548Y-77646000D01*
X146862885Y-77646000D01*
X146878124Y-77641525D01*
X146879329Y-77640135D01*
X146881000Y-77632452D01*
X146881000Y-77627885D01*
X147389000Y-77627885D01*
X147393475Y-77643124D01*
X147394865Y-77644329D01*
X147402548Y-77646000D01*
X148614885Y-77646000D01*
X148630124Y-77641525D01*
X148631329Y-77640135D01*
X148633000Y-77632452D01*
X148633000Y-76850143D01*
X148632788Y-76844970D01*
X148618374Y-76669650D01*
X148616691Y-76659488D01*
X148559200Y-76430604D01*
X148555879Y-76420849D01*
X148461782Y-76204443D01*
X148456904Y-76195345D01*
X148328727Y-75997213D01*
X148322437Y-75989044D01*
X148163613Y-75814499D01*
X148156080Y-75807474D01*
X147970880Y-75661213D01*
X147962293Y-75655508D01*
X147755703Y-75541464D01*
X147746291Y-75537234D01*
X147523844Y-75458461D01*
X147513873Y-75455827D01*
X147406837Y-75436761D01*
X147393540Y-75438221D01*
X147389000Y-75452778D01*
X147389000Y-77627885D01*
X146881000Y-77627885D01*
X146881000Y-75451466D01*
X146877082Y-75438122D01*
X146862806Y-75436135D01*
X146791764Y-75447006D01*
X146781737Y-75449395D01*
X146557430Y-75522709D01*
X146547921Y-75526706D01*
X146338605Y-75635669D01*
X146329880Y-75641163D01*
X146141165Y-75782854D01*
X146133458Y-75789697D01*
X145970416Y-75960310D01*
X145963933Y-75968316D01*
X145830943Y-76163274D01*
X145825857Y-76172226D01*
X145726494Y-76386285D01*
X145722940Y-76395945D01*
X145659870Y-76623369D01*
X145657943Y-76633473D01*
X145637356Y-76826102D01*
X145637000Y-76832794D01*
X145637000Y-77627885D01*
X143633500Y-77627885D01*
X143633500Y-75871866D01*
X143626745Y-75809684D01*
X143575615Y-75673295D01*
X143488261Y-75556739D01*
X143371705Y-75469385D01*
X143235316Y-75418255D01*
X143173134Y-75411500D01*
X141096866Y-75411500D01*
X141034684Y-75418255D01*
X140898295Y-75469385D01*
X140781739Y-75556739D01*
X140694385Y-75673295D01*
X140643255Y-75809684D01*
X140636500Y-75871866D01*
X140636500Y-79928134D01*
X127855212Y-79928134D01*
X127852433Y-79868101D01*
X127802875Y-79662466D01*
X127787102Y-79627774D01*
X127717806Y-79475368D01*
X127715326Y-79469913D01*
X127592946Y-79297389D01*
X127440150Y-79151119D01*
X127262452Y-79036380D01*
X127202354Y-79012160D01*
X127071832Y-78959558D01*
X127071829Y-78959557D01*
X127066263Y-78957314D01*
X126858663Y-78916772D01*
X126853101Y-78916500D01*
X126697154Y-78916500D01*
X126539434Y-78931548D01*
X126336466Y-78991092D01*
X126331139Y-78993836D01*
X126331138Y-78993836D01*
X126153751Y-79085196D01*
X126153748Y-79085198D01*
X126148420Y-79087942D01*
X125982080Y-79218604D01*
X125978148Y-79223135D01*
X125978145Y-79223138D01*
X125911514Y-79299924D01*
X125843448Y-79378363D01*
X125840448Y-79383549D01*
X125840445Y-79383553D01*
X125779213Y-79489397D01*
X125737527Y-79561454D01*
X125668139Y-79761271D01*
X125667278Y-79767206D01*
X125667278Y-79767208D01*
X125642059Y-79941143D01*
X125637787Y-79970604D01*
X125647567Y-80181899D01*
X125648971Y-80187724D01*
X125648971Y-80187725D01*
X125690725Y-80360979D01*
X125687240Y-80431890D01*
X125645970Y-80489660D01*
X125580020Y-80515947D01*
X125568232Y-80516500D01*
X124499600Y-80516500D01*
X124496354Y-80516837D01*
X124496350Y-80516837D01*
X124400692Y-80526762D01*
X124400688Y-80526763D01*
X124393834Y-80527474D01*
X124387298Y-80529655D01*
X124387296Y-80529655D01*
X124255194Y-80573728D01*
X124226054Y-80583450D01*
X124075652Y-80676522D01*
X123950695Y-80801697D01*
X123946855Y-80807927D01*
X123946854Y-80807928D01*
X123860648Y-80947780D01*
X123807876Y-80995273D01*
X123737804Y-81006697D01*
X123672680Y-80978423D01*
X123662218Y-80968636D01*
X123556766Y-80858094D01*
X123548814Y-80851059D01*
X123372475Y-80719859D01*
X123363438Y-80714255D01*
X123167516Y-80614643D01*
X123157665Y-80610643D01*
X122947760Y-80545466D01*
X122937376Y-80543183D01*
X122921957Y-80541139D01*
X122907793Y-80543335D01*
X122904000Y-80556522D01*
X122904000Y-83491192D01*
X122396000Y-83491192D01*
X122396000Y-82297115D01*
X122391525Y-82281876D01*
X122390135Y-82280671D01*
X122382452Y-82279000D01*
X121314030Y-82279000D01*
X121299352Y-82283310D01*
X121297289Y-82295193D01*
X91508000Y-82295193D01*
X91508000Y-81755376D01*
X121292732Y-81755376D01*
X121296475Y-81768124D01*
X121297865Y-81769329D01*
X121305548Y-81771000D01*
X122377885Y-81771000D01*
X122393124Y-81766525D01*
X122394329Y-81765135D01*
X122396000Y-81757452D01*
X122396000Y-80558808D01*
X122392027Y-80545277D01*
X122381420Y-80543752D01*
X122263579Y-80568477D01*
X122253383Y-80571537D01*
X122048971Y-80652263D01*
X122039439Y-80656994D01*
X121851538Y-80771016D01*
X121842948Y-80777280D01*
X121676948Y-80921327D01*
X121669528Y-80928958D01*
X121530174Y-81098911D01*
X121524150Y-81107678D01*
X121415424Y-81298682D01*
X121410959Y-81308346D01*
X121335969Y-81514941D01*
X121333198Y-81525208D01*
X121293877Y-81742655D01*
X121292944Y-81750884D01*
X121292732Y-81755376D01*
X91508000Y-81755376D01*
X91508000Y-80826657D01*
X107672000Y-80826657D01*
X107672301Y-80832805D01*
X107685812Y-80970603D01*
X107688195Y-80982638D01*
X107741767Y-81160076D01*
X107746441Y-81171416D01*
X107833460Y-81335077D01*
X107840249Y-81345294D01*
X107957397Y-81488933D01*
X107966041Y-81497637D01*
X108108856Y-81615784D01*
X108119027Y-81622644D01*
X108282076Y-81710804D01*
X108293381Y-81715556D01*
X108408692Y-81751250D01*
X108422795Y-81751456D01*
X108426000Y-81744701D01*
X108426000Y-81737924D01*
X108934000Y-81737924D01*
X108937973Y-81751455D01*
X108945768Y-81752575D01*
X109053521Y-81720862D01*
X109064889Y-81716269D01*
X109229154Y-81630393D01*
X109239415Y-81623679D01*
X109383873Y-81507532D01*
X109392632Y-81498954D01*
X109437000Y-81446079D01*
X109496110Y-81406752D01*
X109567098Y-81405626D01*
X109610048Y-81426972D01*
X109675678Y-81477150D01*
X109762372Y-81517576D01*
X109833631Y-81550805D01*
X109833634Y-81550806D01*
X109839808Y-81553685D01*
X109846456Y-81555171D01*
X109846459Y-81555172D01*
X109952421Y-81578857D01*
X110016543Y-81593190D01*
X110022088Y-81593500D01*
X110155244Y-81593500D01*
X110290037Y-81578857D01*
X110449451Y-81525208D01*
X110455204Y-81523272D01*
X110455206Y-81523271D01*
X110461675Y-81521094D01*
X110616905Y-81427823D01*
X110621862Y-81423135D01*
X110621865Y-81423133D01*
X110743527Y-81308082D01*
X110743529Y-81308080D01*
X110748485Y-81303393D01*
X110752317Y-81297755D01*
X110752320Y-81297751D01*
X110846442Y-81159255D01*
X110850277Y-81153612D01*
X110917530Y-80985466D01*
X110918644Y-80978738D01*
X110918645Y-80978734D01*
X110945993Y-80813539D01*
X110945993Y-80813536D01*
X110947108Y-80806802D01*
X110942552Y-80719859D01*
X110942203Y-80713198D01*
X115052892Y-80713198D01*
X115053249Y-80720015D01*
X115053249Y-80720019D01*
X115059160Y-80832805D01*
X115062370Y-80894047D01*
X115064181Y-80900620D01*
X115064181Y-80900623D01*
X115086772Y-80982638D01*
X115110461Y-81068641D01*
X115194922Y-81228836D01*
X115199327Y-81234049D01*
X115199330Y-81234053D01*
X115307406Y-81361943D01*
X115307410Y-81361947D01*
X115311813Y-81367157D01*
X115317237Y-81371304D01*
X115317238Y-81371305D01*
X115450257Y-81473006D01*
X115450261Y-81473009D01*
X115455678Y-81477150D01*
X115542372Y-81517576D01*
X115613631Y-81550805D01*
X115613634Y-81550806D01*
X115619808Y-81553685D01*
X115626456Y-81555171D01*
X115626459Y-81555172D01*
X115732421Y-81578857D01*
X115796543Y-81593190D01*
X115802088Y-81593500D01*
X115935244Y-81593500D01*
X116070037Y-81578857D01*
X116229451Y-81525208D01*
X116235204Y-81523272D01*
X116235206Y-81523271D01*
X116241675Y-81521094D01*
X116393651Y-81429778D01*
X116393654Y-81429777D01*
X116396905Y-81427823D01*
X116397255Y-81428406D01*
X116458917Y-81404935D01*
X116528391Y-81419561D01*
X116566391Y-81450915D01*
X116597397Y-81488933D01*
X116606041Y-81497637D01*
X116748856Y-81615784D01*
X116759027Y-81622644D01*
X116922076Y-81710804D01*
X116933381Y-81715556D01*
X117048692Y-81751250D01*
X117062795Y-81751456D01*
X117066000Y-81744701D01*
X117066000Y-81737924D01*
X117574000Y-81737924D01*
X117577973Y-81751455D01*
X117585768Y-81752575D01*
X117693521Y-81720862D01*
X117704889Y-81716269D01*
X117869154Y-81630393D01*
X117879415Y-81623679D01*
X118023873Y-81507532D01*
X118032632Y-81498954D01*
X118151778Y-81356961D01*
X118158708Y-81346841D01*
X118248002Y-81184415D01*
X118252834Y-81173142D01*
X118308880Y-80996462D01*
X118311430Y-80984468D01*
X118327607Y-80840239D01*
X118328000Y-80833215D01*
X118328000Y-80502115D01*
X118323525Y-80486876D01*
X118322135Y-80485671D01*
X118314452Y-80484000D01*
X117592115Y-80484000D01*
X117576876Y-80488475D01*
X117575671Y-80489865D01*
X117574000Y-80497548D01*
X117574000Y-81737924D01*
X117066000Y-81737924D01*
X117066000Y-79957885D01*
X117574000Y-79957885D01*
X117578475Y-79973124D01*
X117579865Y-79974329D01*
X117587548Y-79976000D01*
X118309885Y-79976000D01*
X118325124Y-79971525D01*
X118326329Y-79970135D01*
X118328000Y-79962452D01*
X118328000Y-79633343D01*
X118327699Y-79627195D01*
X118314188Y-79489397D01*
X118311805Y-79477362D01*
X118258233Y-79299924D01*
X118253559Y-79288584D01*
X118166540Y-79124923D01*
X118159751Y-79114706D01*
X118042603Y-78971067D01*
X118033959Y-78962363D01*
X117891144Y-78844216D01*
X117880973Y-78837356D01*
X117717924Y-78749196D01*
X117706619Y-78744444D01*
X117591308Y-78708750D01*
X117577205Y-78708544D01*
X117574000Y-78715299D01*
X117574000Y-79957885D01*
X117066000Y-79957885D01*
X117066000Y-78722076D01*
X117062027Y-78708545D01*
X117054232Y-78707425D01*
X116946479Y-78739138D01*
X116935111Y-78743731D01*
X116770846Y-78829607D01*
X116760585Y-78836321D01*
X116616127Y-78952468D01*
X116607368Y-78961046D01*
X116488222Y-79103039D01*
X116481292Y-79113159D01*
X116391998Y-79275585D01*
X116387166Y-79286858D01*
X116331120Y-79463538D01*
X116328570Y-79475532D01*
X116312393Y-79619761D01*
X116312000Y-79626785D01*
X116312000Y-79842974D01*
X116291998Y-79911095D01*
X116238342Y-79957588D01*
X116168068Y-79967692D01*
X116158514Y-79965939D01*
X115988506Y-79927938D01*
X115988499Y-79927937D01*
X115983457Y-79926810D01*
X115977912Y-79926500D01*
X115844756Y-79926500D01*
X115841359Y-79926869D01*
X115808761Y-79930410D01*
X115709963Y-79941143D01*
X115591810Y-79980906D01*
X115544796Y-79996728D01*
X115544794Y-79996729D01*
X115538325Y-79998906D01*
X115383095Y-80092177D01*
X115378138Y-80096865D01*
X115378135Y-80096867D01*
X115256473Y-80211918D01*
X115251515Y-80216607D01*
X115247683Y-80222245D01*
X115247680Y-80222249D01*
X115164820Y-80344173D01*
X115149723Y-80366388D01*
X115082470Y-80534534D01*
X115081356Y-80541262D01*
X115081355Y-80541266D01*
X115058106Y-80681704D01*
X115052892Y-80713198D01*
X110942203Y-80713198D01*
X110937987Y-80632766D01*
X110937630Y-80625953D01*
X110925285Y-80581132D01*
X110891352Y-80457941D01*
X110889539Y-80451359D01*
X110805078Y-80291164D01*
X110800673Y-80285951D01*
X110800670Y-80285947D01*
X110692594Y-80158057D01*
X110692590Y-80158053D01*
X110688187Y-80152843D01*
X110682762Y-80148695D01*
X110549743Y-80046994D01*
X110549739Y-80046991D01*
X110544322Y-80042850D01*
X110414815Y-79982460D01*
X110386369Y-79969195D01*
X110386366Y-79969194D01*
X110380192Y-79966315D01*
X110373544Y-79964829D01*
X110373541Y-79964828D01*
X110232899Y-79933391D01*
X110203457Y-79926810D01*
X110197912Y-79926500D01*
X110064756Y-79926500D01*
X110061359Y-79926869D01*
X110028761Y-79930410D01*
X109929963Y-79941143D01*
X109923499Y-79943318D01*
X109923496Y-79943319D01*
X109866645Y-79962452D01*
X109855167Y-79966315D01*
X109854189Y-79966644D01*
X109783247Y-79969414D01*
X109722068Y-79933391D01*
X109690077Y-79870010D01*
X109688000Y-79847225D01*
X109688000Y-79633343D01*
X109687699Y-79627195D01*
X109674188Y-79489397D01*
X109671805Y-79477362D01*
X109618233Y-79299924D01*
X109613559Y-79288584D01*
X109526540Y-79124923D01*
X109519751Y-79114706D01*
X109402603Y-78971067D01*
X109393959Y-78962363D01*
X109251144Y-78844216D01*
X109240973Y-78837356D01*
X109077924Y-78749196D01*
X109066619Y-78744444D01*
X108951308Y-78708750D01*
X108937205Y-78708544D01*
X108934000Y-78715299D01*
X108934000Y-81737924D01*
X108426000Y-81737924D01*
X108426000Y-80502115D01*
X108421525Y-80486876D01*
X108420135Y-80485671D01*
X108412452Y-80484000D01*
X107690115Y-80484000D01*
X107674876Y-80488475D01*
X107673671Y-80489865D01*
X107672000Y-80497548D01*
X107672000Y-80826657D01*
X91508000Y-80826657D01*
X91508000Y-79957885D01*
X107672000Y-79957885D01*
X107676475Y-79973124D01*
X107677865Y-79974329D01*
X107685548Y-79976000D01*
X108407885Y-79976000D01*
X108423124Y-79971525D01*
X108424329Y-79970135D01*
X108426000Y-79962452D01*
X108426000Y-78722076D01*
X108422027Y-78708545D01*
X108414232Y-78707425D01*
X108306479Y-78739138D01*
X108295111Y-78743731D01*
X108130846Y-78829607D01*
X108120585Y-78836321D01*
X107976127Y-78952468D01*
X107967368Y-78961046D01*
X107848222Y-79103039D01*
X107841292Y-79113159D01*
X107751998Y-79275585D01*
X107747166Y-79286858D01*
X107691120Y-79463538D01*
X107688570Y-79475532D01*
X107672393Y-79619761D01*
X107672000Y-79626785D01*
X107672000Y-79957885D01*
X91508000Y-79957885D01*
X91508000Y-55288640D01*
X114436463Y-55288640D01*
X114454163Y-55469160D01*
X114511418Y-55641273D01*
X114515065Y-55647295D01*
X114515066Y-55647297D01*
X114525978Y-55665314D01*
X114605380Y-55796424D01*
X114731382Y-55926902D01*
X114883159Y-56026222D01*
X114889763Y-56028678D01*
X114889765Y-56028679D01*
X115046558Y-56086990D01*
X115046560Y-56086990D01*
X115053168Y-56089448D01*
X115136995Y-56100633D01*
X115225980Y-56112507D01*
X115225984Y-56112507D01*
X115232961Y-56113438D01*
X115239972Y-56112800D01*
X115239976Y-56112800D01*
X115382459Y-56099832D01*
X115413600Y-56096998D01*
X115420302Y-56094820D01*
X115420304Y-56094820D01*
X115579409Y-56043124D01*
X115579412Y-56043123D01*
X115586108Y-56040947D01*
X115741912Y-55948069D01*
X115873266Y-55822982D01*
X115973643Y-55671902D01*
X116038055Y-55502338D01*
X116039035Y-55495366D01*
X116062748Y-55326639D01*
X116062748Y-55326636D01*
X116063299Y-55322717D01*
X116063616Y-55300000D01*
X116043397Y-55119745D01*
X116041080Y-55113091D01*
X115986064Y-54955106D01*
X115986062Y-54955103D01*
X115983745Y-54948448D01*
X115887626Y-54794624D01*
X115885215Y-54792196D01*
X115859117Y-54727716D01*
X115858500Y-54715263D01*
X115858500Y-39733248D01*
X115879552Y-39663521D01*
X115938973Y-39574084D01*
X115973643Y-39521902D01*
X116025587Y-39385159D01*
X116035555Y-39358920D01*
X116035556Y-39358918D01*
X116038055Y-39352338D01*
X116041080Y-39330812D01*
X116062748Y-39176639D01*
X116062748Y-39176636D01*
X116063299Y-39172717D01*
X116063616Y-39150000D01*
X116043397Y-38969745D01*
X116040996Y-38962851D01*
X115986064Y-38805106D01*
X115986062Y-38805103D01*
X115983745Y-38798448D01*
X115887626Y-38644624D01*
X115808853Y-38565299D01*
X115764778Y-38520915D01*
X115764774Y-38520912D01*
X115759815Y-38515918D01*
X115748697Y-38508862D01*
X115663604Y-38454861D01*
X115606666Y-38418727D01*
X115563693Y-38403425D01*
X115442425Y-38360243D01*
X115442420Y-38360242D01*
X115435790Y-38357881D01*
X115428802Y-38357048D01*
X115428799Y-38357047D01*
X115305698Y-38342368D01*
X115255680Y-38336404D01*
X115248677Y-38337140D01*
X115248676Y-38337140D01*
X115082288Y-38354628D01*
X115082286Y-38354629D01*
X115075288Y-38355364D01*
X114903579Y-38413818D01*
X114897575Y-38417512D01*
X114755095Y-38505166D01*
X114755092Y-38505168D01*
X114749088Y-38508862D01*
X114744053Y-38513793D01*
X114744050Y-38513795D01*
X114624525Y-38630843D01*
X114619493Y-38635771D01*
X114521235Y-38788238D01*
X114518826Y-38794858D01*
X114518824Y-38794861D01*
X114485046Y-38887665D01*
X114459197Y-38958685D01*
X114436463Y-39138640D01*
X114454163Y-39319160D01*
X114511418Y-39491273D01*
X114515065Y-39497295D01*
X114515066Y-39497297D01*
X114601730Y-39640398D01*
X114601733Y-39640401D01*
X114605380Y-39646424D01*
X114610275Y-39651492D01*
X114614571Y-39657071D01*
X114612243Y-39658864D01*
X114639071Y-39710115D01*
X114641500Y-39734734D01*
X114641500Y-54715164D01*
X114621498Y-54783285D01*
X114620188Y-54785090D01*
X114619493Y-54785771D01*
X114617894Y-54788253D01*
X114617892Y-54788255D01*
X114609934Y-54800603D01*
X114521235Y-54938238D01*
X114518826Y-54944858D01*
X114518824Y-54944861D01*
X114461606Y-55102066D01*
X114459197Y-55108685D01*
X114436463Y-55288640D01*
X91508000Y-55288640D01*
X91508000Y-15726337D01*
X91528002Y-15658216D01*
X91581658Y-15611723D01*
X91634315Y-15600337D01*
X98102726Y-15616575D01*
G37*
%TD.AperFunction*%
%TD*%
M02*
