%TF.GenerationSoftware,KiCad,Pcbnew,9.0.1*%
%TF.CreationDate,2025-04-07T12:08:44+02:00*%
%TF.ProjectId,sensor,73656e73-6f72-42e6-9b69-6361645f7063,rev?*%
%TF.SameCoordinates,Original*%
%TF.FileFunction,Soldermask,Bot*%
%TF.FilePolarity,Negative*%
%FSLAX46Y46*%
G04 Gerber Fmt 4.6, Leading zero omitted, Abs format (unit mm)*
G04 Created by KiCad (PCBNEW 9.0.1) date 2025-04-07 12:08:44*
%MOMM*%
%LPD*%
G01*
G04 APERTURE LIST*
G04 Aperture macros list*
%AMRoundRect*
0 Rectangle with rounded corners*
0 $1 Rounding radius*
0 $2 $3 $4 $5 $6 $7 $8 $9 X,Y pos of 4 corners*
0 Add a 4 corners polygon primitive as box body*
4,1,4,$2,$3,$4,$5,$6,$7,$8,$9,$2,$3,0*
0 Add four circle primitives for the rounded corners*
1,1,$1+$1,$2,$3*
1,1,$1+$1,$4,$5*
1,1,$1+$1,$6,$7*
1,1,$1+$1,$8,$9*
0 Add four rect primitives between the rounded corners*
20,1,$1+$1,$2,$3,$4,$5,0*
20,1,$1+$1,$4,$5,$6,$7,0*
20,1,$1+$1,$6,$7,$8,$9,0*
20,1,$1+$1,$8,$9,$2,$3,0*%
G04 Aperture macros list end*
%ADD10O,3.500000X3.500000*%
%ADD11R,2.000000X1.905000*%
%ADD12O,2.000000X1.905000*%
%ADD13C,1.400000*%
%ADD14C,1.600000*%
%ADD15O,1.600000X1.600000*%
%ADD16C,2.250000*%
%ADD17R,1.600000X1.600000*%
%ADD18RoundRect,0.250000X-0.600000X-0.750000X0.600000X-0.750000X0.600000X0.750000X-0.600000X0.750000X0*%
%ADD19O,1.700000X2.000000*%
%ADD20R,2.500000X2.500000*%
%ADD21C,2.500000*%
%ADD22C,1.200000*%
%ADD23RoundRect,0.250000X-0.600000X-0.725000X0.600000X-0.725000X0.600000X0.725000X-0.600000X0.725000X0*%
%ADD24O,1.700000X1.950000*%
%ADD25RoundRect,0.250000X-0.725000X0.600000X-0.725000X-0.600000X0.725000X-0.600000X0.725000X0.600000X0*%
%ADD26O,1.950000X1.700000*%
%ADD27R,1.700000X1.700000*%
%ADD28O,1.700000X1.700000*%
G04 APERTURE END LIST*
D10*
%TO.C,Q2*%
X119420000Y-47325000D03*
D11*
X136080000Y-49865000D03*
D12*
X136080000Y-47325000D03*
X136080000Y-44785000D03*
%TD*%
D10*
%TO.C,Q1*%
X142695000Y-71275000D03*
D11*
X159355000Y-73815000D03*
D12*
X159355000Y-71275000D03*
X159355000Y-68735000D03*
%TD*%
D13*
%TO.C,C4*%
X142500000Y-80500000D03*
X142500000Y-83000000D03*
%TD*%
D14*
%TO.C,R31*%
X122351800Y-86944200D03*
D15*
X122351800Y-97104200D03*
%TD*%
D14*
%TO.C,R2*%
X143075000Y-88970000D03*
D15*
X143075000Y-99130000D03*
%TD*%
D14*
%TO.C,R4*%
X135450000Y-101180000D03*
D15*
X135450000Y-91020000D03*
%TD*%
D14*
%TO.C,R11*%
X123850400Y-73990200D03*
D15*
X113690400Y-73990200D03*
%TD*%
D16*
%TO.C,J1*%
X89408000Y-106172000D03*
X91948000Y-103632000D03*
X86868000Y-103632000D03*
X91948000Y-108712000D03*
X86868000Y-108712000D03*
%TD*%
D13*
%TO.C,C1*%
X168375000Y-90300000D03*
X168375000Y-92800000D03*
%TD*%
D14*
%TO.C,R3*%
X138450000Y-101180000D03*
D15*
X138450000Y-91020000D03*
%TD*%
D17*
%TO.C,C6*%
X176469888Y-52425000D03*
D14*
X178969888Y-52425000D03*
%TD*%
%TO.C,R1*%
X126339600Y-86944200D03*
D15*
X126339600Y-97104200D03*
%TD*%
D18*
%TO.C,J7*%
X151988200Y-47719100D03*
D19*
X154488200Y-47719100D03*
%TD*%
D13*
%TO.C,C2*%
X176000000Y-59525000D03*
X178500000Y-59525000D03*
%TD*%
D14*
%TO.C,R21*%
X109495000Y-86950000D03*
D15*
X119655000Y-86950000D03*
%TD*%
D17*
%TO.C,C3*%
X94538800Y-69494400D03*
D14*
X97038800Y-69494400D03*
%TD*%
D20*
%TO.C,J4*%
X173000000Y-87000000D03*
D21*
X178000000Y-87000000D03*
%TD*%
D22*
%TO.C,I2C_Sensor_out1*%
X170875200Y-73179200D03*
D23*
X172475200Y-71179200D03*
D24*
X174975200Y-71179200D03*
X177475200Y-71179200D03*
X179975200Y-71179200D03*
%TD*%
D22*
%TO.C,J3*%
X72185000Y-76438000D03*
D25*
X74185000Y-78038000D03*
D26*
X74185000Y-80538000D03*
X74185000Y-83038000D03*
X74185000Y-85538000D03*
%TD*%
D27*
%TO.C,J2*%
X73400000Y-38675000D03*
D28*
X73400000Y-41215000D03*
X73400000Y-43755000D03*
X73400000Y-46295000D03*
X73400000Y-48835000D03*
X73400000Y-51375000D03*
X73400000Y-53915000D03*
%TD*%
M02*
