M48
; DRILL file {KiCad 9.0.1} date 2025-04-07T12:08:39+0200
; FORMAT={-:-/ absolute / inch / decimal}
; #@! TF.CreationDate,2025-04-07T12:08:39+02:00
; #@! TF.GenerationSoftware,Kicad,Pcbnew,9.0.1
; #@! TF.FileFunction,Plated,1,2,PTH
FMAT,2
INCH
; #@! TA.AperFunction,Plated,PTH,ViaDrill
T1C0.0118
; #@! TA.AperFunction,Plated,PTH,ViaDrill
T2C0.0157
; #@! TA.AperFunction,Plated,PTH,ComponentDrill
T3C0.0276
; #@! TA.AperFunction,Plated,PTH,ComponentDrill
T4C0.0315
; #@! TA.AperFunction,Plated,PTH,ComponentDrill
T5C0.0374
; #@! TA.AperFunction,Plated,PTH,ComponentDrill
T6C0.0394
; #@! TA.AperFunction,Plated,PTH,ComponentDrill
T7C0.0433
; #@! TA.AperFunction,Plated,PTH,ComponentDrill
T8C0.0512
; #@! TA.AperFunction,Plated,PTH,ComponentDrill
T9C0.0591
; #@! TA.AperFunction,Plated,PTH,ComponentDrill
T10C0.0669
%
G90
G05
T1
X5.825Y-3.555
X6.248Y-3.3553
T2
X6.532Y-2.065
X6.8307Y-1.685
T3
X5.6102Y-3.1693
X5.6102Y-3.2677
X6.6289Y-3.5551
X6.6289Y-3.6535
X6.9291Y-2.3435
X7.0276Y-2.3435
T4
X3.722Y-2.736
X3.8204Y-2.736
X4.3108Y-3.4232
X4.476Y-2.913
X4.7108Y-3.4232
X4.817Y-3.423
X4.817Y-3.823
X4.876Y-2.913
X4.974Y-3.423
X4.974Y-3.823
X5.3327Y-3.5835
X5.3327Y-3.9835
X5.4508Y-3.5835
X5.4508Y-3.9835
X5.6329Y-3.5028
X5.6329Y-3.9028
X6.9476Y-2.064
X7.0461Y-2.064
T5
X2.9207Y-3.0724
X2.9207Y-3.1708
X2.9207Y-3.2692
X2.9207Y-3.3676
X6.7904Y-2.8023
X6.8888Y-2.8023
X6.9872Y-2.8023
X7.0856Y-2.8023
T6
X2.8898Y-1.5226
X2.8898Y-1.6226
X2.8898Y-1.7226
X2.8898Y-1.8226
X2.8898Y-1.9226
X2.8898Y-2.0226
X2.8898Y-2.1226
X5.9838Y-1.8787
X6.0822Y-1.8787
T7
X5.3575Y-1.7632
X5.3575Y-1.8632
X5.3575Y-1.9632
X6.2738Y-2.7061
X6.2738Y-2.8061
X6.2738Y-2.9061
T8
X6.811Y-3.4252
X7.0079Y-3.4252
T9
X3.52Y-4.18
T10
X3.42Y-4.08
X3.42Y-4.28
X3.62Y-4.08
X3.62Y-4.28
M30
