%TF.GenerationSoftware,KiCad,Pcbnew,6.0.2+dfsg-1*%
%TF.CreationDate,2023-05-08T14:40:52+02:00*%
%TF.ProjectId,sensor,73656e73-6f72-42e6-9b69-6361645f7063,rev?*%
%TF.SameCoordinates,Original*%
%TF.FileFunction,Copper,L1,Top*%
%TF.FilePolarity,Positive*%
%FSLAX46Y46*%
G04 Gerber Fmt 4.6, Leading zero omitted, Abs format (unit mm)*
G04 Created by KiCad (PCBNEW 6.0.2+dfsg-1) date 2023-05-08 14:40:52*
%MOMM*%
%LPD*%
G01*
G04 APERTURE LIST*
G04 Aperture macros list*
%AMRoundRect*
0 Rectangle with rounded corners*
0 $1 Rounding radius*
0 $2 $3 $4 $5 $6 $7 $8 $9 X,Y pos of 4 corners*
0 Add a 4 corners polygon primitive as box body*
4,1,4,$2,$3,$4,$5,$6,$7,$8,$9,$2,$3,0*
0 Add four circle primitives for the rounded corners*
1,1,$1+$1,$2,$3*
1,1,$1+$1,$4,$5*
1,1,$1+$1,$6,$7*
1,1,$1+$1,$8,$9*
0 Add four rect primitives between the rounded corners*
20,1,$1+$1,$2,$3,$4,$5,0*
20,1,$1+$1,$4,$5,$6,$7,0*
20,1,$1+$1,$6,$7,$8,$9,0*
20,1,$1+$1,$8,$9,$2,$3,0*%
%AMFreePoly0*
4,1,22,0.500000,-0.750000,0.000000,-0.750000,0.000000,-0.745033,-0.079941,-0.743568,-0.215256,-0.701293,-0.333266,-0.622738,-0.424486,-0.514219,-0.481581,-0.384460,-0.499164,-0.250000,-0.500000,-0.250000,-0.500000,0.250000,-0.499164,0.250000,-0.499963,0.256109,-0.478152,0.396186,-0.417904,0.524511,-0.324060,0.630769,-0.204165,0.706417,-0.067858,0.745374,0.000000,0.744959,0.000000,0.750000,
0.500000,0.750000,0.500000,-0.750000,0.500000,-0.750000,$1*%
%AMFreePoly1*
4,1,20,0.000000,0.744959,0.073905,0.744508,0.209726,0.703889,0.328688,0.626782,0.421226,0.519385,0.479903,0.390333,0.500000,0.250000,0.500000,-0.250000,0.499851,-0.262216,0.476331,-0.402017,0.414519,-0.529596,0.319384,-0.634700,0.198574,-0.708877,0.061801,-0.746166,0.000000,-0.745033,0.000000,-0.750000,-0.500000,-0.750000,-0.500000,0.750000,0.000000,0.750000,0.000000,0.744959,
0.000000,0.744959,$1*%
G04 Aperture macros list end*
%TA.AperFunction,ComponentPad*%
%ADD10C,5.600000*%
%TD*%
%TA.AperFunction,ComponentPad*%
%ADD11RoundRect,0.250000X-0.600000X-0.725000X0.600000X-0.725000X0.600000X0.725000X-0.600000X0.725000X0*%
%TD*%
%TA.AperFunction,ComponentPad*%
%ADD12O,1.700000X1.950000*%
%TD*%
%TA.AperFunction,ComponentPad*%
%ADD13C,1.400000*%
%TD*%
%TA.AperFunction,ComponentPad*%
%ADD14O,1.400000X1.400000*%
%TD*%
%TA.AperFunction,ComponentPad*%
%ADD15R,2.500000X2.500000*%
%TD*%
%TA.AperFunction,ComponentPad*%
%ADD16C,2.500000*%
%TD*%
%TA.AperFunction,ComponentPad*%
%ADD17C,1.600000*%
%TD*%
%TA.AperFunction,ComponentPad*%
%ADD18R,1.700000X1.700000*%
%TD*%
%TA.AperFunction,ComponentPad*%
%ADD19O,1.700000X1.700000*%
%TD*%
%TA.AperFunction,SMDPad,CuDef*%
%ADD20FreePoly0,90.000000*%
%TD*%
%TA.AperFunction,SMDPad,CuDef*%
%ADD21FreePoly1,90.000000*%
%TD*%
%TA.AperFunction,ComponentPad*%
%ADD22R,1.560000X1.560000*%
%TD*%
%TA.AperFunction,ComponentPad*%
%ADD23C,1.560000*%
%TD*%
%TA.AperFunction,ComponentPad*%
%ADD24R,1.350000X1.350000*%
%TD*%
%TA.AperFunction,ComponentPad*%
%ADD25C,1.350000*%
%TD*%
%TA.AperFunction,ComponentPad*%
%ADD26C,2.250000*%
%TD*%
%TA.AperFunction,Conductor*%
%ADD27C,0.600000*%
%TD*%
%TA.AperFunction,Conductor*%
%ADD28C,1.000000*%
%TD*%
G04 APERTURE END LIST*
D10*
%TO.P,REF\u002A\u002A,1*%
%TO.N,N/C*%
X184950000Y-106050000D03*
%TD*%
D11*
%TO.P,I2C_Sensor_out,1,Pin_1*%
%TO.N,VCC*%
X158260000Y-66000000D03*
D12*
%TO.P,I2C_Sensor_out,2,Pin_2*%
%TO.N,GND*%
X160760000Y-66000000D03*
%TO.P,I2C_Sensor_out,3,Pin_3*%
%TO.N,SCL*%
X163260000Y-66000000D03*
%TO.P,I2C_Sensor_out,4,Pin_4*%
%TO.N,SDA*%
X165760000Y-66000000D03*
%TD*%
D13*
%TO.P,R2,1*%
%TO.N,V_PANEL*%
X132200000Y-36460000D03*
D14*
%TO.P,R2,2*%
%TO.N,GND*%
X132200000Y-41540000D03*
%TD*%
D15*
%TO.P,V_BAT_IN,1,Pin_1*%
%TO.N,Net-(J6-Pad1)*%
X158400000Y-38300000D03*
D16*
%TO.P,V_BAT_IN,2,Pin_2*%
%TO.N,GND*%
X158400000Y-43300000D03*
%TD*%
D10*
%TO.P,REF\u002A\u002A,1*%
%TO.N,N/C*%
X58200000Y-88300000D03*
%TD*%
D17*
%TO.P,C2,1*%
%TO.N,V_BAT*%
X131350000Y-49000000D03*
%TO.P,C2,2*%
%TO.N,GND*%
X131350000Y-46500000D03*
%TD*%
D15*
%TO.P,V_BAT_OUT,1,Pin_1*%
%TO.N,Net-(J4-Pad1)*%
X158500000Y-50200000D03*
D16*
%TO.P,V_BAT_OUT,2,Pin_2*%
%TO.N,GND*%
X158500000Y-55200000D03*
%TD*%
D18*
%TO.P,PS +3\u002C3V,1,Pin_1*%
%TO.N,VCC*%
X149500000Y-40725000D03*
D19*
%TO.P,PS +3\u002C3V,2,Pin_2*%
%TO.N,GND*%
X149500000Y-43265000D03*
%TD*%
D10*
%TO.P,REF\u002A\u002A,1*%
%TO.N,N/C*%
X194000000Y-88300000D03*
%TD*%
D18*
%TO.P,PANEL_OUT,1,Pin_1*%
%TO.N,Net-(J4-Pad1)*%
X149500000Y-50260000D03*
D19*
%TO.P,PANEL_OUT,2,Pin_2*%
%TO.N,GND*%
X149500000Y-52800000D03*
%TD*%
D13*
%TO.P,R4,1*%
%TO.N,V_BAT*%
X139300000Y-46340000D03*
D14*
%TO.P,R4,2*%
%TO.N,GND*%
X139300000Y-41260000D03*
%TD*%
D10*
%TO.P,REF\u002A\u002A,1*%
%TO.N,N/C*%
X58200000Y-58050000D03*
%TD*%
D13*
%TO.P,R3,1*%
%TO.N,Net-(J6-Pad1)*%
X141700000Y-41260000D03*
D14*
%TO.P,R3,2*%
%TO.N,V_BAT*%
X141700000Y-46340000D03*
%TD*%
D10*
%TO.P,REF\u002A\u002A,1*%
%TO.N,N/C*%
X71800000Y-101300000D03*
%TD*%
%TO.P,REF\u002A\u002A,1*%
%TO.N,N/C*%
X121000000Y-43100000D03*
%TD*%
D17*
%TO.P,C1,1*%
%TO.N,V_PANEL*%
X128900000Y-49000000D03*
%TO.P,C1,2*%
%TO.N,GND*%
X128900000Y-46500000D03*
%TD*%
D13*
%TO.P,R1,1*%
%TO.N,Net-(J4-Pad1)*%
X129900000Y-41500000D03*
D14*
%TO.P,R1,2*%
%TO.N,V_PANEL*%
X129900000Y-36420000D03*
%TD*%
D20*
%TO.P,Address,1,A*%
%TO.N,Net-(J3-Pad5)*%
X168360000Y-76750000D03*
D21*
%TO.P,Address,2,B*%
%TO.N,VCC*%
X168360000Y-75450000D03*
%TD*%
D18*
%TO.P,BAT_OUT,1,Pin_1*%
%TO.N,Net-(J6-Pad1)*%
X141725000Y-38100000D03*
D19*
%TO.P,BAT_OUT,2,Pin_2*%
%TO.N,GND*%
X139185000Y-38100000D03*
%TD*%
D10*
%TO.P,REF\u002A\u002A,1*%
%TO.N,N/C*%
X71800000Y-43100000D03*
%TD*%
%TO.P,REF\u002A\u002A,1*%
%TO.N,N/C*%
X121000000Y-101300000D03*
%TD*%
D22*
%TO.P,U1,1,3V3*%
%TO.N,VCC*%
X136360000Y-58700000D03*
D23*
%TO.P,U1,2,CHIP_PU*%
%TO.N,unconnected-(U1-Pad2)*%
X133820000Y-58700000D03*
%TO.P,U1,3,SENSOR_VP/GPIO36/ADC1_CH0*%
%TO.N,V_BAT*%
X131280000Y-58700000D03*
%TO.P,U1,4,SENSOR_VN/GPIO39/ADC1_CH3*%
%TO.N,V_PANEL*%
X128740000Y-58700000D03*
%TO.P,U1,5,VDET_1/GPIO34/ADC1_CH6*%
%TO.N,unconnected-(U1-Pad5)*%
X126200000Y-58700000D03*
%TO.P,U1,6,VDET_2/GPIO35/ADC1_CH7*%
%TO.N,unconnected-(U1-Pad6)*%
X123660000Y-58700000D03*
%TO.P,U1,7,32K_XP/GPIO32/ADC1_CH4*%
%TO.N,unconnected-(U1-Pad7)*%
X121120000Y-58700000D03*
%TO.P,U1,8,32K_XN/GPIO33/ADC1_CH5*%
%TO.N,unconnected-(U1-Pad8)*%
X118580000Y-58700000D03*
%TO.P,U1,9,DAC_1/ADC2_CH8/GPIO25*%
%TO.N,unconnected-(U1-Pad9)*%
X116040000Y-58700000D03*
%TO.P,U1,10,DAC_2/ADC2_CH9/GPIO26*%
%TO.N,unconnected-(U1-Pad10)*%
X113500000Y-58700000D03*
%TO.P,U1,11,ADC2_CH7/GPIO27*%
%TO.N,unconnected-(U1-Pad11)*%
X110960000Y-58700000D03*
%TO.P,U1,12,MTMS/GPIO14/ADC2_CH6*%
%TO.N,Net-(U1-Pad12)*%
X108420000Y-58700000D03*
%TO.P,U1,13,\u002AMTDI/GPIO12/ADC2_CH5*%
%TO.N,unconnected-(U1-Pad13)*%
X105880000Y-58700000D03*
%TO.P,U1,14,GND*%
%TO.N,GND*%
X103340000Y-58700000D03*
%TO.P,U1,15,MTCK/GPIO13/ADC2_CH4*%
%TO.N,unconnected-(U1-Pad15)*%
X100800000Y-58700000D03*
%TO.P,U1,16,SD_DATA2/GPIO9*%
%TO.N,unconnected-(U1-Pad16)*%
X98260000Y-58700000D03*
%TO.P,U1,17,SD_DATA3/GPIO10*%
%TO.N,unconnected-(U1-Pad17)*%
X95720000Y-58700000D03*
%TO.P,U1,18,CMD*%
%TO.N,unconnected-(U1-Pad18)*%
X93180000Y-58700000D03*
%TO.P,U1,19,5V*%
%TO.N,unconnected-(U1-Pad19)*%
X90640000Y-58700000D03*
%TO.P,U1,20,SD_CLK/GPIO6*%
%TO.N,unconnected-(U1-Pad20)*%
X136360000Y-84100000D03*
%TO.P,U1,21,SD_DATA0/GPIO7*%
%TO.N,unconnected-(U1-Pad21)*%
X133820000Y-84100000D03*
%TO.P,U1,22,SD_DATA1/GPIO8*%
%TO.N,unconnected-(U1-Pad22)*%
X131280000Y-84100000D03*
%TO.P,U1,23,\u002AMTDO/GPIO15/ADC2_CH3*%
%TO.N,unconnected-(U1-Pad23)*%
X128740000Y-84100000D03*
%TO.P,U1,24,ADC2_CH2/\u002AGPIO2*%
%TO.N,DI0*%
X126200000Y-84100000D03*
%TO.P,U1,25,\u002AGPIO0/BOOT/ADC2_CH1*%
%TO.N,unconnected-(U1-Pad25)*%
X123660000Y-84100000D03*
%TO.P,U1,26,ADC2_CH0/GPIO4*%
%TO.N,unconnected-(U1-Pad26)*%
X121120000Y-84100000D03*
%TO.P,U1,27,GPIO16*%
%TO.N,unconnected-(U1-Pad27)*%
X118580000Y-84100000D03*
%TO.P,U1,28,GPIO17*%
%TO.N,unconnected-(U1-Pad28)*%
X116040000Y-84100000D03*
%TO.P,U1,29,\u002AGPIO5*%
%TO.N,NSS*%
X113500000Y-84100000D03*
%TO.P,U1,30,GPIO18*%
%TO.N,CLK*%
X110960000Y-84100000D03*
%TO.P,U1,31,GPIO19*%
%TO.N,MISO*%
X108420000Y-84100000D03*
%TO.P,U1,32,GND*%
%TO.N,GND*%
X105880000Y-84100000D03*
%TO.P,U1,33,GPIO21*%
%TO.N,SDA*%
X103340000Y-84100000D03*
%TO.P,U1,34,U0RXD/GPIO3*%
%TO.N,unconnected-(U1-Pad34)*%
X100800000Y-84100000D03*
%TO.P,U1,35,U0TXD/GPIO1*%
%TO.N,unconnected-(U1-Pad35)*%
X98260000Y-84100000D03*
%TO.P,U1,36,GPIO22*%
%TO.N,SCL*%
X95720000Y-84100000D03*
%TO.P,U1,37,GPIO23*%
%TO.N,MOSI*%
X93180000Y-84100000D03*
%TO.P,U1,38,GND*%
%TO.N,GND*%
X90640000Y-84100000D03*
%TD*%
D10*
%TO.P,REF\u002A\u002A,1*%
%TO.N,N/C*%
X194000000Y-58050000D03*
%TD*%
D24*
%TO.P,U2,1,GND*%
%TO.N,GND*%
X139292500Y-105007500D03*
D25*
%TO.P,U2,2,MISO*%
%TO.N,MISO*%
X141292500Y-105007500D03*
%TO.P,U2,3,MOSI*%
%TO.N,MOSI*%
X143292500Y-105007500D03*
%TO.P,U2,4,SCK*%
%TO.N,CLK*%
X145292500Y-105007500D03*
%TO.P,U2,5,NSS*%
%TO.N,NSS*%
X147292500Y-105007500D03*
%TO.P,U2,6,RESET*%
%TO.N,Net-(U1-Pad12)*%
X149292500Y-105007500D03*
%TO.P,U2,7,DIO5*%
%TO.N,unconnected-(U2-Pad7)*%
X151292500Y-105007500D03*
%TO.P,U2,8,GND*%
%TO.N,GND*%
X153292500Y-105007500D03*
%TO.P,U2,9,ANT*%
%TO.N,Net-(J1-Pad1)*%
X153292500Y-91407500D03*
%TO.P,U2,10,GND*%
%TO.N,GND*%
X151292500Y-91407500D03*
%TO.P,U2,11,DIO3*%
%TO.N,unconnected-(U2-Pad11)*%
X149292500Y-91407500D03*
%TO.P,U2,12,DIO4*%
%TO.N,unconnected-(U2-Pad12)*%
X147292500Y-91407500D03*
%TO.P,U2,13,3.3V*%
%TO.N,VCC*%
X145292500Y-91407500D03*
%TO.P,U2,14,DIO0*%
%TO.N,DI0*%
X143292500Y-91407500D03*
%TO.P,U2,15,DIO1*%
%TO.N,unconnected-(U2-Pad15)*%
X141292500Y-91407500D03*
%TO.P,U2,16,DIO2*%
%TO.N,unconnected-(U2-Pad16)*%
X139292500Y-91407500D03*
%TD*%
D26*
%TO.P,Antenna,1,In*%
%TO.N,Net-(J1-Pad1)*%
X182300000Y-91250000D03*
%TO.P,Antenna,2,Ext*%
%TO.N,GND*%
X184840000Y-93790000D03*
X179760000Y-88710000D03*
X184840000Y-88710000D03*
X179760000Y-93790000D03*
%TD*%
D18*
%TO.P,J3,1,Pin_1*%
%TO.N,VCC*%
X158240000Y-80800000D03*
D19*
%TO.P,J3,2,Pin_2*%
%TO.N,GND*%
X160780000Y-80800000D03*
%TO.P,J3,3,Pin_3*%
%TO.N,SCL*%
X163320000Y-80800000D03*
%TO.P,J3,4,Pin_4*%
%TO.N,SDA*%
X165860000Y-80800000D03*
%TO.P,J3,5,Pin_5*%
%TO.N,Net-(J3-Pad5)*%
X168400000Y-80800000D03*
%TO.P,J3,6,Pin_6*%
%TO.N,unconnected-(J3-Pad6)*%
X170940000Y-80800000D03*
%TO.P,J3,7,Pin_7*%
%TO.N,unconnected-(J3-Pad7)*%
X173480000Y-80800000D03*
%TD*%
D10*
%TO.P,REF\u002A\u002A,1*%
%TO.N,N/C*%
X184650000Y-40350000D03*
%TD*%
D27*
%TO.N,VCC*%
X168360000Y-75450000D02*
X159610000Y-75450000D01*
X159610000Y-75450000D02*
X158240000Y-76820000D01*
X158240000Y-76820000D02*
X158240000Y-80800000D01*
%TO.N,SDA*%
X106100000Y-73400000D02*
X103340000Y-76160000D01*
X103340000Y-76160000D02*
X103340000Y-84100000D01*
X165760000Y-66000000D02*
X165760000Y-70540000D01*
X165760000Y-70540000D02*
X162900000Y-73400000D01*
X162900000Y-73400000D02*
X106100000Y-73400000D01*
%TO.N,SCL*%
X161300000Y-70800000D02*
X100900000Y-70800000D01*
X95720000Y-75980000D02*
X95720000Y-84100000D01*
X163260000Y-68840000D02*
X161300000Y-70800000D01*
X100900000Y-70800000D02*
X95720000Y-75980000D01*
X163260000Y-66000000D02*
X163260000Y-68840000D01*
%TO.N,Net-(J3-Pad5)*%
X168360000Y-80760000D02*
X168400000Y-80800000D01*
X168360000Y-76750000D02*
X168360000Y-80760000D01*
D28*
%TO.N,Net-(J4-Pad1)*%
X129900000Y-43400000D02*
X129900000Y-41500000D01*
X135200000Y-45500000D02*
X133800000Y-44100000D01*
X135200000Y-48300000D02*
X135200000Y-45500000D01*
X130600000Y-44100000D02*
X129900000Y-43400000D01*
X133800000Y-44100000D02*
X130600000Y-44100000D01*
X149500000Y-50260000D02*
X137160000Y-50260000D01*
X137160000Y-50260000D02*
X135200000Y-48300000D01*
%TD*%
M02*
