%TF.GenerationSoftware,KiCad,Pcbnew,6.0.2+dfsg-1*%
%TF.CreationDate,2023-03-16T17:45:45+01:00*%
%TF.ProjectId,sensor,73656e73-6f72-42e6-9b69-6361645f7063,rev?*%
%TF.SameCoordinates,Original*%
%TF.FileFunction,Soldermask,Bot*%
%TF.FilePolarity,Negative*%
%FSLAX46Y46*%
G04 Gerber Fmt 4.6, Leading zero omitted, Abs format (unit mm)*
G04 Created by KiCad (PCBNEW 6.0.2+dfsg-1) date 2023-03-16 17:45:45*
%MOMM*%
%LPD*%
G01*
G04 APERTURE LIST*
G04 Aperture macros list*
%AMRoundRect*
0 Rectangle with rounded corners*
0 $1 Rounding radius*
0 $2 $3 $4 $5 $6 $7 $8 $9 X,Y pos of 4 corners*
0 Add a 4 corners polygon primitive as box body*
4,1,4,$2,$3,$4,$5,$6,$7,$8,$9,$2,$3,0*
0 Add four circle primitives for the rounded corners*
1,1,$1+$1,$2,$3*
1,1,$1+$1,$4,$5*
1,1,$1+$1,$6,$7*
1,1,$1+$1,$8,$9*
0 Add four rect primitives between the rounded corners*
20,1,$1+$1,$2,$3,$4,$5,0*
20,1,$1+$1,$4,$5,$6,$7,0*
20,1,$1+$1,$6,$7,$8,$9,0*
20,1,$1+$1,$8,$9,$2,$3,0*%
G04 Aperture macros list end*
%ADD10C,3.200000*%
%ADD11O,1.980000X3.960000*%
%ADD12R,1.980000X3.960000*%
%ADD13C,1.200000*%
%ADD14RoundRect,0.250000X0.725000X-0.600000X0.725000X0.600000X-0.725000X0.600000X-0.725000X-0.600000X0*%
%ADD15O,1.950000X1.700000*%
%ADD16RoundRect,0.250000X0.600000X0.750000X-0.600000X0.750000X-0.600000X-0.750000X0.600000X-0.750000X0*%
%ADD17O,1.700000X2.000000*%
%ADD18C,0.650000*%
%ADD19O,1.000000X2.100000*%
%ADD20O,1.000000X1.600000*%
%ADD21RoundRect,0.250000X-0.600000X-0.725000X0.600000X-0.725000X0.600000X0.725000X-0.600000X0.725000X0*%
%ADD22O,1.700000X1.950000*%
%ADD23R,1.350000X1.350000*%
%ADD24C,1.350000*%
%ADD25C,2.050000*%
%ADD26C,2.250000*%
G04 APERTURE END LIST*
D10*
%TO.C,*%
X175100000Y-18000000D03*
%TD*%
%TO.C,*%
X175050000Y-87450000D03*
%TD*%
%TO.C,REF\u002A\u002A*%
X95550000Y-86050000D03*
%TD*%
D11*
%TO.C,J2*%
X147135000Y-77900000D03*
D12*
X142135000Y-77900000D03*
%TD*%
D13*
%TO.C,J5*%
X173700000Y-50700000D03*
D14*
X171700000Y-49100000D03*
D15*
X171700000Y-46600000D03*
X171700000Y-44100000D03*
X171700000Y-41600000D03*
%TD*%
D13*
%TO.C,J3*%
X126750000Y-80025000D03*
D16*
X125150000Y-82025000D03*
D17*
X122650000Y-82025000D03*
%TD*%
D18*
%TO.C,P1*%
X115890000Y-80760000D03*
X110110000Y-80760000D03*
D19*
X117320000Y-80230000D03*
X108680000Y-80230000D03*
D20*
X108680000Y-84410000D03*
X117320000Y-84410000D03*
%TD*%
D13*
%TO.C,J1*%
X99950000Y-22375000D03*
D21*
X101550000Y-20375000D03*
D22*
X104050000Y-20375000D03*
X106550000Y-20375000D03*
X109050000Y-20375000D03*
%TD*%
D23*
%TO.C,U4*%
X145207500Y-40707500D03*
D24*
X145207500Y-38707500D03*
X145207500Y-36707500D03*
X145207500Y-34707500D03*
X145207500Y-32707500D03*
X145207500Y-30707500D03*
X145207500Y-28707500D03*
X145207500Y-26707500D03*
X131607500Y-26707500D03*
X131607500Y-28707500D03*
X131607500Y-30707500D03*
X131607500Y-32707500D03*
X131607500Y-34707500D03*
X131607500Y-36707500D03*
X131607500Y-38707500D03*
X131607500Y-40707500D03*
%TD*%
D25*
%TO.C,J4*%
X138200000Y-20900000D03*
D26*
X135660000Y-18360000D03*
X135660000Y-23440000D03*
X140740000Y-18360000D03*
X140740000Y-23440000D03*
%TD*%
M02*
