%TF.GenerationSoftware,KiCad,Pcbnew,6.0.2+dfsg-1*%
%TF.CreationDate,2023-05-08T14:40:52+02:00*%
%TF.ProjectId,sensor,73656e73-6f72-42e6-9b69-6361645f7063,rev?*%
%TF.SameCoordinates,Original*%
%TF.FileFunction,Soldermask,Top*%
%TF.FilePolarity,Negative*%
%FSLAX46Y46*%
G04 Gerber Fmt 4.6, Leading zero omitted, Abs format (unit mm)*
G04 Created by KiCad (PCBNEW 6.0.2+dfsg-1) date 2023-05-08 14:40:52*
%MOMM*%
%LPD*%
G01*
G04 APERTURE LIST*
G04 Aperture macros list*
%AMRoundRect*
0 Rectangle with rounded corners*
0 $1 Rounding radius*
0 $2 $3 $4 $5 $6 $7 $8 $9 X,Y pos of 4 corners*
0 Add a 4 corners polygon primitive as box body*
4,1,4,$2,$3,$4,$5,$6,$7,$8,$9,$2,$3,0*
0 Add four circle primitives for the rounded corners*
1,1,$1+$1,$2,$3*
1,1,$1+$1,$4,$5*
1,1,$1+$1,$6,$7*
1,1,$1+$1,$8,$9*
0 Add four rect primitives between the rounded corners*
20,1,$1+$1,$2,$3,$4,$5,0*
20,1,$1+$1,$4,$5,$6,$7,0*
20,1,$1+$1,$6,$7,$8,$9,0*
20,1,$1+$1,$8,$9,$2,$3,0*%
%AMFreePoly0*
4,1,22,0.500000,-0.750000,0.000000,-0.750000,0.000000,-0.745033,-0.079941,-0.743568,-0.215256,-0.701293,-0.333266,-0.622738,-0.424486,-0.514219,-0.481581,-0.384460,-0.499164,-0.250000,-0.500000,-0.250000,-0.500000,0.250000,-0.499164,0.250000,-0.499963,0.256109,-0.478152,0.396186,-0.417904,0.524511,-0.324060,0.630769,-0.204165,0.706417,-0.067858,0.745374,0.000000,0.744959,0.000000,0.750000,
0.500000,0.750000,0.500000,-0.750000,0.500000,-0.750000,$1*%
%AMFreePoly1*
4,1,20,0.000000,0.744959,0.073905,0.744508,0.209726,0.703889,0.328688,0.626782,0.421226,0.519385,0.479903,0.390333,0.500000,0.250000,0.500000,-0.250000,0.499851,-0.262216,0.476331,-0.402017,0.414519,-0.529596,0.319384,-0.634700,0.198574,-0.708877,0.061801,-0.746166,0.000000,-0.745033,0.000000,-0.750000,-0.500000,-0.750000,-0.500000,0.750000,0.000000,0.750000,0.000000,0.744959,
0.000000,0.744959,$1*%
G04 Aperture macros list end*
%ADD10C,5.600000*%
%ADD11C,1.200000*%
%ADD12RoundRect,0.250000X-0.600000X-0.725000X0.600000X-0.725000X0.600000X0.725000X-0.600000X0.725000X0*%
%ADD13O,1.700000X1.950000*%
%ADD14C,1.400000*%
%ADD15O,1.400000X1.400000*%
%ADD16R,2.500000X2.500000*%
%ADD17C,2.500000*%
%ADD18C,1.600000*%
%ADD19R,1.700000X1.700000*%
%ADD20O,1.700000X1.700000*%
%ADD21FreePoly0,90.000000*%
%ADD22FreePoly1,90.000000*%
%ADD23R,1.560000X1.560000*%
%ADD24C,1.560000*%
%ADD25R,1.350000X1.350000*%
%ADD26C,1.350000*%
%ADD27C,2.250000*%
G04 APERTURE END LIST*
D10*
%TO.C,REF\u002A\u002A*%
X184950000Y-106050000D03*
%TD*%
D11*
%TO.C,I2C_Sensor_out*%
X156660000Y-68000000D03*
D12*
X158260000Y-66000000D03*
D13*
X160760000Y-66000000D03*
X163260000Y-66000000D03*
X165760000Y-66000000D03*
%TD*%
D14*
%TO.C,R2*%
X132200000Y-36460000D03*
D15*
X132200000Y-41540000D03*
%TD*%
D16*
%TO.C,V_BAT_IN*%
X158400000Y-38300000D03*
D17*
X158400000Y-43300000D03*
%TD*%
D10*
%TO.C,REF\u002A\u002A*%
X58200000Y-88300000D03*
%TD*%
D18*
%TO.C,C2*%
X131350000Y-49000000D03*
X131350000Y-46500000D03*
%TD*%
D16*
%TO.C,V_BAT_OUT*%
X158500000Y-50200000D03*
D17*
X158500000Y-55200000D03*
%TD*%
D19*
%TO.C,PS +3\u002C3V*%
X149500000Y-40725000D03*
D20*
X149500000Y-43265000D03*
%TD*%
D10*
%TO.C,REF\u002A\u002A*%
X194000000Y-88300000D03*
%TD*%
D19*
%TO.C,PANEL_OUT*%
X149500000Y-50260000D03*
D20*
X149500000Y-52800000D03*
%TD*%
D14*
%TO.C,R4*%
X139300000Y-46340000D03*
D15*
X139300000Y-41260000D03*
%TD*%
D10*
%TO.C,REF\u002A\u002A*%
X58200000Y-58050000D03*
%TD*%
D14*
%TO.C,R3*%
X141700000Y-41260000D03*
D15*
X141700000Y-46340000D03*
%TD*%
D10*
%TO.C,REF\u002A\u002A*%
X71800000Y-101300000D03*
%TD*%
%TO.C,REF\u002A\u002A*%
X121000000Y-43100000D03*
%TD*%
D18*
%TO.C,C1*%
X128900000Y-49000000D03*
X128900000Y-46500000D03*
%TD*%
D14*
%TO.C,R1*%
X129900000Y-41500000D03*
D15*
X129900000Y-36420000D03*
%TD*%
D21*
%TO.C,Address*%
X168360000Y-76750000D03*
D22*
X168360000Y-75450000D03*
%TD*%
D19*
%TO.C,BAT_OUT*%
X141725000Y-38100000D03*
D20*
X139185000Y-38100000D03*
%TD*%
D10*
%TO.C,REF\u002A\u002A*%
X71800000Y-43100000D03*
%TD*%
%TO.C,REF\u002A\u002A*%
X121000000Y-101300000D03*
%TD*%
D23*
%TO.C,U1*%
X136360000Y-58700000D03*
D24*
X133820000Y-58700000D03*
X131280000Y-58700000D03*
X128740000Y-58700000D03*
X126200000Y-58700000D03*
X123660000Y-58700000D03*
X121120000Y-58700000D03*
X118580000Y-58700000D03*
X116040000Y-58700000D03*
X113500000Y-58700000D03*
X110960000Y-58700000D03*
X108420000Y-58700000D03*
X105880000Y-58700000D03*
X103340000Y-58700000D03*
X100800000Y-58700000D03*
X98260000Y-58700000D03*
X95720000Y-58700000D03*
X93180000Y-58700000D03*
X90640000Y-58700000D03*
X136360000Y-84100000D03*
X133820000Y-84100000D03*
X131280000Y-84100000D03*
X128740000Y-84100000D03*
X126200000Y-84100000D03*
X123660000Y-84100000D03*
X121120000Y-84100000D03*
X118580000Y-84100000D03*
X116040000Y-84100000D03*
X113500000Y-84100000D03*
X110960000Y-84100000D03*
X108420000Y-84100000D03*
X105880000Y-84100000D03*
X103340000Y-84100000D03*
X100800000Y-84100000D03*
X98260000Y-84100000D03*
X95720000Y-84100000D03*
X93180000Y-84100000D03*
X90640000Y-84100000D03*
%TD*%
D10*
%TO.C,REF\u002A\u002A*%
X194000000Y-58050000D03*
%TD*%
D25*
%TO.C,U2*%
X139292500Y-105007500D03*
D26*
X141292500Y-105007500D03*
X143292500Y-105007500D03*
X145292500Y-105007500D03*
X147292500Y-105007500D03*
X149292500Y-105007500D03*
X151292500Y-105007500D03*
X153292500Y-105007500D03*
X153292500Y-91407500D03*
X151292500Y-91407500D03*
X149292500Y-91407500D03*
X147292500Y-91407500D03*
X145292500Y-91407500D03*
X143292500Y-91407500D03*
X141292500Y-91407500D03*
X139292500Y-91407500D03*
%TD*%
D27*
%TO.C,Antenna*%
X182300000Y-91250000D03*
X184840000Y-93790000D03*
X179760000Y-88710000D03*
X184840000Y-88710000D03*
X179760000Y-93790000D03*
%TD*%
D19*
%TO.C,J3*%
X158240000Y-80800000D03*
D20*
X160780000Y-80800000D03*
X163320000Y-80800000D03*
X165860000Y-80800000D03*
X168400000Y-80800000D03*
X170940000Y-80800000D03*
X173480000Y-80800000D03*
%TD*%
D10*
%TO.C,REF\u002A\u002A*%
X184650000Y-40350000D03*
%TD*%
M02*
