%TF.GenerationSoftware,KiCad,Pcbnew,6.0.2+dfsg-1*%
%TF.CreationDate,2023-05-08T14:40:52+02:00*%
%TF.ProjectId,sensor,73656e73-6f72-42e6-9b69-6361645f7063,rev?*%
%TF.SameCoordinates,Original*%
%TF.FileFunction,Legend,Top*%
%TF.FilePolarity,Positive*%
%FSLAX46Y46*%
G04 Gerber Fmt 4.6, Leading zero omitted, Abs format (unit mm)*
G04 Created by KiCad (PCBNEW 6.0.2+dfsg-1) date 2023-05-08 14:40:52*
%MOMM*%
%LPD*%
G01*
G04 APERTURE LIST*
%ADD10C,0.152400*%
%ADD11C,0.250000*%
%ADD12C,0.150000*%
%ADD13C,0.120000*%
%ADD14C,0.127000*%
G04 APERTURE END LIST*
D10*
X69566876Y-107181162D02*
X69953923Y-107181162D01*
X69489466Y-107413391D02*
X69760400Y-106600591D01*
X70031333Y-107413391D01*
X70302266Y-107413391D02*
X70302266Y-106871524D01*
X70302266Y-106948934D02*
X70340971Y-106910229D01*
X70418380Y-106871524D01*
X70534495Y-106871524D01*
X70611904Y-106910229D01*
X70650609Y-106987638D01*
X70650609Y-107413391D01*
X70650609Y-106987638D02*
X70689314Y-106910229D01*
X70766723Y-106871524D01*
X70882838Y-106871524D01*
X70960247Y-106910229D01*
X70998952Y-106987638D01*
X70998952Y-107413391D01*
X71386000Y-107413391D02*
X71386000Y-106600591D01*
X71386000Y-106910229D02*
X71463409Y-106871524D01*
X71618228Y-106871524D01*
X71695638Y-106910229D01*
X71734342Y-106948934D01*
X71773047Y-107026343D01*
X71773047Y-107258572D01*
X71734342Y-107335981D01*
X71695638Y-107374686D01*
X71618228Y-107413391D01*
X71463409Y-107413391D01*
X71386000Y-107374686D01*
X72121390Y-107413391D02*
X72121390Y-106871524D01*
X72121390Y-106600591D02*
X72082685Y-106639296D01*
X72121390Y-106678000D01*
X72160095Y-106639296D01*
X72121390Y-106600591D01*
X72121390Y-106678000D01*
X72818076Y-107374686D02*
X72740666Y-107413391D01*
X72585847Y-107413391D01*
X72508438Y-107374686D01*
X72469733Y-107297276D01*
X72469733Y-106987638D01*
X72508438Y-106910229D01*
X72585847Y-106871524D01*
X72740666Y-106871524D01*
X72818076Y-106910229D01*
X72856780Y-106987638D01*
X72856780Y-107065048D01*
X72469733Y-107142457D01*
X73205123Y-106871524D02*
X73205123Y-107413391D01*
X73205123Y-106948934D02*
X73243828Y-106910229D01*
X73321238Y-106871524D01*
X73437352Y-106871524D01*
X73514761Y-106910229D01*
X73553466Y-106987638D01*
X73553466Y-107413391D01*
X73824400Y-106871524D02*
X74134038Y-106871524D01*
X73940514Y-106600591D02*
X73940514Y-107297276D01*
X73979219Y-107374686D01*
X74056628Y-107413391D01*
X74134038Y-107413391D01*
X74985542Y-107374686D02*
X75101657Y-107413391D01*
X75295180Y-107413391D01*
X75372590Y-107374686D01*
X75411295Y-107335981D01*
X75450000Y-107258572D01*
X75450000Y-107181162D01*
X75411295Y-107103753D01*
X75372590Y-107065048D01*
X75295180Y-107026343D01*
X75140361Y-106987638D01*
X75062952Y-106948934D01*
X75024247Y-106910229D01*
X74985542Y-106832819D01*
X74985542Y-106755410D01*
X75024247Y-106678000D01*
X75062952Y-106639296D01*
X75140361Y-106600591D01*
X75333885Y-106600591D01*
X75450000Y-106639296D01*
X76107980Y-107374686D02*
X76030571Y-107413391D01*
X75875752Y-107413391D01*
X75798342Y-107374686D01*
X75759638Y-107297276D01*
X75759638Y-106987638D01*
X75798342Y-106910229D01*
X75875752Y-106871524D01*
X76030571Y-106871524D01*
X76107980Y-106910229D01*
X76146685Y-106987638D01*
X76146685Y-107065048D01*
X75759638Y-107142457D01*
X76495028Y-106871524D02*
X76495028Y-107413391D01*
X76495028Y-106948934D02*
X76533733Y-106910229D01*
X76611142Y-106871524D01*
X76727257Y-106871524D01*
X76804666Y-106910229D01*
X76843371Y-106987638D01*
X76843371Y-107413391D01*
X77191714Y-107374686D02*
X77269123Y-107413391D01*
X77423942Y-107413391D01*
X77501352Y-107374686D01*
X77540057Y-107297276D01*
X77540057Y-107258572D01*
X77501352Y-107181162D01*
X77423942Y-107142457D01*
X77307828Y-107142457D01*
X77230419Y-107103753D01*
X77191714Y-107026343D01*
X77191714Y-106987638D01*
X77230419Y-106910229D01*
X77307828Y-106871524D01*
X77423942Y-106871524D01*
X77501352Y-106910229D01*
X78004514Y-107413391D02*
X77927104Y-107374686D01*
X77888400Y-107335981D01*
X77849695Y-107258572D01*
X77849695Y-107026343D01*
X77888400Y-106948934D01*
X77927104Y-106910229D01*
X78004514Y-106871524D01*
X78120628Y-106871524D01*
X78198038Y-106910229D01*
X78236742Y-106948934D01*
X78275447Y-107026343D01*
X78275447Y-107258572D01*
X78236742Y-107335981D01*
X78198038Y-107374686D01*
X78120628Y-107413391D01*
X78004514Y-107413391D01*
X78623790Y-107413391D02*
X78623790Y-106871524D01*
X78623790Y-107026343D02*
X78662495Y-106948934D01*
X78701200Y-106910229D01*
X78778609Y-106871524D01*
X78856019Y-106871524D01*
X79707523Y-106678000D02*
X79746228Y-106639296D01*
X79823638Y-106600591D01*
X80017161Y-106600591D01*
X80094571Y-106639296D01*
X80133276Y-106678000D01*
X80171980Y-106755410D01*
X80171980Y-106832819D01*
X80133276Y-106948934D01*
X79668819Y-107413391D01*
X80171980Y-107413391D01*
X80520323Y-107335981D02*
X80559028Y-107374686D01*
X80520323Y-107413391D01*
X80481619Y-107374686D01*
X80520323Y-107335981D01*
X80520323Y-107413391D01*
X81062190Y-106600591D02*
X81139600Y-106600591D01*
X81217009Y-106639296D01*
X81255714Y-106678000D01*
X81294419Y-106755410D01*
X81333123Y-106910229D01*
X81333123Y-107103753D01*
X81294419Y-107258572D01*
X81255714Y-107335981D01*
X81217009Y-107374686D01*
X81139600Y-107413391D01*
X81062190Y-107413391D01*
X80984780Y-107374686D01*
X80946076Y-107335981D01*
X80907371Y-107258572D01*
X80868666Y-107103753D01*
X80868666Y-106910229D01*
X80907371Y-106755410D01*
X80946076Y-106678000D01*
X80984780Y-106639296D01*
X81062190Y-106600591D01*
X71327942Y-108721999D02*
X71327942Y-107909199D01*
X71327942Y-108218837D02*
X71405352Y-108180132D01*
X71560171Y-108180132D01*
X71637580Y-108218837D01*
X71676285Y-108257542D01*
X71714990Y-108334951D01*
X71714990Y-108567180D01*
X71676285Y-108644589D01*
X71637580Y-108683294D01*
X71560171Y-108721999D01*
X71405352Y-108721999D01*
X71327942Y-108683294D01*
X71985923Y-108180132D02*
X72179447Y-108721999D01*
X72372971Y-108180132D02*
X72179447Y-108721999D01*
X72102038Y-108915523D01*
X72063333Y-108954227D01*
X71985923Y-108992932D01*
X73572819Y-108296246D02*
X73301885Y-108296246D01*
X73301885Y-108721999D02*
X73301885Y-107909199D01*
X73688933Y-107909199D01*
X74346914Y-108180132D02*
X74346914Y-108721999D01*
X73998571Y-108180132D02*
X73998571Y-108605884D01*
X74037276Y-108683294D01*
X74114685Y-108721999D01*
X74230800Y-108721999D01*
X74308209Y-108683294D01*
X74346914Y-108644589D01*
X74733961Y-108180132D02*
X74733961Y-108721999D01*
X74733961Y-108257542D02*
X74772666Y-108218837D01*
X74850076Y-108180132D01*
X74966190Y-108180132D01*
X75043600Y-108218837D01*
X75082304Y-108296246D01*
X75082304Y-108721999D01*
X75469352Y-108180132D02*
X75469352Y-108721999D01*
X75469352Y-108257542D02*
X75508057Y-108218837D01*
X75585466Y-108180132D01*
X75701580Y-108180132D01*
X75778990Y-108218837D01*
X75817695Y-108296246D01*
X75817695Y-108721999D01*
X76127333Y-108180132D02*
X76320857Y-108721999D01*
X76514380Y-108180132D02*
X76320857Y-108721999D01*
X76243447Y-108915523D01*
X76204742Y-108954227D01*
X76127333Y-108992932D01*
X76824019Y-108180132D02*
X76824019Y-108992932D01*
X76824019Y-108218837D02*
X76901428Y-108180132D01*
X77056247Y-108180132D01*
X77133657Y-108218837D01*
X77172361Y-108257542D01*
X77211066Y-108334951D01*
X77211066Y-108567180D01*
X77172361Y-108644589D01*
X77133657Y-108683294D01*
X77056247Y-108721999D01*
X76901428Y-108721999D01*
X76824019Y-108683294D01*
X77559409Y-108721999D02*
X77559409Y-108180132D01*
X77559409Y-107909199D02*
X77520704Y-107947904D01*
X77559409Y-107986608D01*
X77598114Y-107947904D01*
X77559409Y-107909199D01*
X77559409Y-107986608D01*
X77946457Y-108180132D02*
X77946457Y-108721999D01*
X77946457Y-108257542D02*
X77985161Y-108218837D01*
X78062571Y-108180132D01*
X78178685Y-108180132D01*
X78256095Y-108218837D01*
X78294800Y-108296246D01*
X78294800Y-108721999D01*
X78681847Y-108721999D02*
X78681847Y-107909199D01*
X78759257Y-108412361D02*
X78991485Y-108721999D01*
X78991485Y-108180132D02*
X78681847Y-108489770D01*
X79262419Y-108180132D02*
X79455942Y-108721999D01*
X79649466Y-108180132D02*
X79455942Y-108721999D01*
X79378533Y-108915523D01*
X79339828Y-108954227D01*
X79262419Y-108992932D01*
D11*
X151719047Y-50271428D02*
X152480952Y-50271428D01*
X152100000Y-50652380D02*
X152100000Y-49890476D01*
X158119047Y-34771428D02*
X158880952Y-34771428D01*
X158500000Y-35152380D02*
X158500000Y-34390476D01*
X143819047Y-38171428D02*
X144580952Y-38171428D01*
X144200000Y-38552380D02*
X144200000Y-37790476D01*
X158119047Y-46771428D02*
X158880952Y-46771428D01*
X158500000Y-47152380D02*
X158500000Y-46390476D01*
X151719047Y-40771428D02*
X152480952Y-40771428D01*
X152100000Y-41152380D02*
X152100000Y-40390476D01*
D12*
%TO.C,I2C_Sensor_out*%
X156557619Y-62902380D02*
X156557619Y-61902380D01*
X156986190Y-61997619D02*
X157033809Y-61950000D01*
X157129047Y-61902380D01*
X157367142Y-61902380D01*
X157462380Y-61950000D01*
X157510000Y-61997619D01*
X157557619Y-62092857D01*
X157557619Y-62188095D01*
X157510000Y-62330952D01*
X156938571Y-62902380D01*
X157557619Y-62902380D01*
X158557619Y-62807142D02*
X158510000Y-62854761D01*
X158367142Y-62902380D01*
X158271904Y-62902380D01*
X158129047Y-62854761D01*
X158033809Y-62759523D01*
X157986190Y-62664285D01*
X157938571Y-62473809D01*
X157938571Y-62330952D01*
X157986190Y-62140476D01*
X158033809Y-62045238D01*
X158129047Y-61950000D01*
X158271904Y-61902380D01*
X158367142Y-61902380D01*
X158510000Y-61950000D01*
X158557619Y-61997619D01*
X158748095Y-62997619D02*
X159510000Y-62997619D01*
X159700476Y-62854761D02*
X159843333Y-62902380D01*
X160081428Y-62902380D01*
X160176666Y-62854761D01*
X160224285Y-62807142D01*
X160271904Y-62711904D01*
X160271904Y-62616666D01*
X160224285Y-62521428D01*
X160176666Y-62473809D01*
X160081428Y-62426190D01*
X159890952Y-62378571D01*
X159795714Y-62330952D01*
X159748095Y-62283333D01*
X159700476Y-62188095D01*
X159700476Y-62092857D01*
X159748095Y-61997619D01*
X159795714Y-61950000D01*
X159890952Y-61902380D01*
X160129047Y-61902380D01*
X160271904Y-61950000D01*
X161081428Y-62854761D02*
X160986190Y-62902380D01*
X160795714Y-62902380D01*
X160700476Y-62854761D01*
X160652857Y-62759523D01*
X160652857Y-62378571D01*
X160700476Y-62283333D01*
X160795714Y-62235714D01*
X160986190Y-62235714D01*
X161081428Y-62283333D01*
X161129047Y-62378571D01*
X161129047Y-62473809D01*
X160652857Y-62569047D01*
X161557619Y-62235714D02*
X161557619Y-62902380D01*
X161557619Y-62330952D02*
X161605238Y-62283333D01*
X161700476Y-62235714D01*
X161843333Y-62235714D01*
X161938571Y-62283333D01*
X161986190Y-62378571D01*
X161986190Y-62902380D01*
X162414761Y-62854761D02*
X162510000Y-62902380D01*
X162700476Y-62902380D01*
X162795714Y-62854761D01*
X162843333Y-62759523D01*
X162843333Y-62711904D01*
X162795714Y-62616666D01*
X162700476Y-62569047D01*
X162557619Y-62569047D01*
X162462380Y-62521428D01*
X162414761Y-62426190D01*
X162414761Y-62378571D01*
X162462380Y-62283333D01*
X162557619Y-62235714D01*
X162700476Y-62235714D01*
X162795714Y-62283333D01*
X163414761Y-62902380D02*
X163319523Y-62854761D01*
X163271904Y-62807142D01*
X163224285Y-62711904D01*
X163224285Y-62426190D01*
X163271904Y-62330952D01*
X163319523Y-62283333D01*
X163414761Y-62235714D01*
X163557619Y-62235714D01*
X163652857Y-62283333D01*
X163700476Y-62330952D01*
X163748095Y-62426190D01*
X163748095Y-62711904D01*
X163700476Y-62807142D01*
X163652857Y-62854761D01*
X163557619Y-62902380D01*
X163414761Y-62902380D01*
X164176666Y-62902380D02*
X164176666Y-62235714D01*
X164176666Y-62426190D02*
X164224285Y-62330952D01*
X164271904Y-62283333D01*
X164367142Y-62235714D01*
X164462380Y-62235714D01*
X164557619Y-62997619D02*
X165319523Y-62997619D01*
X165700476Y-62902380D02*
X165605238Y-62854761D01*
X165557619Y-62807142D01*
X165510000Y-62711904D01*
X165510000Y-62426190D01*
X165557619Y-62330952D01*
X165605238Y-62283333D01*
X165700476Y-62235714D01*
X165843333Y-62235714D01*
X165938571Y-62283333D01*
X165986190Y-62330952D01*
X166033809Y-62426190D01*
X166033809Y-62711904D01*
X165986190Y-62807142D01*
X165938571Y-62854761D01*
X165843333Y-62902380D01*
X165700476Y-62902380D01*
X166890952Y-62235714D02*
X166890952Y-62902380D01*
X166462380Y-62235714D02*
X166462380Y-62759523D01*
X166510000Y-62854761D01*
X166605238Y-62902380D01*
X166748095Y-62902380D01*
X166843333Y-62854761D01*
X166890952Y-62807142D01*
X167224285Y-62235714D02*
X167605238Y-62235714D01*
X167367142Y-61902380D02*
X167367142Y-62759523D01*
X167414761Y-62854761D01*
X167510000Y-62902380D01*
X167605238Y-62902380D01*
%TO.C,R2*%
X134572380Y-39166666D02*
X134096190Y-39500000D01*
X134572380Y-39738095D02*
X133572380Y-39738095D01*
X133572380Y-39357142D01*
X133620000Y-39261904D01*
X133667619Y-39214285D01*
X133762857Y-39166666D01*
X133905714Y-39166666D01*
X134000952Y-39214285D01*
X134048571Y-39261904D01*
X134096190Y-39357142D01*
X134096190Y-39738095D01*
X133667619Y-38785714D02*
X133620000Y-38738095D01*
X133572380Y-38642857D01*
X133572380Y-38404761D01*
X133620000Y-38309523D01*
X133667619Y-38261904D01*
X133762857Y-38214285D01*
X133858095Y-38214285D01*
X134000952Y-38261904D01*
X134572380Y-38833333D01*
X134572380Y-38214285D01*
%TO.C,V_BAT_IN*%
X163012380Y-43966666D02*
X164012380Y-43633333D01*
X163012380Y-43300000D01*
X164107619Y-43204761D02*
X164107619Y-42442857D01*
X163488571Y-41871428D02*
X163536190Y-41728571D01*
X163583809Y-41680952D01*
X163679047Y-41633333D01*
X163821904Y-41633333D01*
X163917142Y-41680952D01*
X163964761Y-41728571D01*
X164012380Y-41823809D01*
X164012380Y-42204761D01*
X163012380Y-42204761D01*
X163012380Y-41871428D01*
X163060000Y-41776190D01*
X163107619Y-41728571D01*
X163202857Y-41680952D01*
X163298095Y-41680952D01*
X163393333Y-41728571D01*
X163440952Y-41776190D01*
X163488571Y-41871428D01*
X163488571Y-42204761D01*
X163726666Y-41252380D02*
X163726666Y-40776190D01*
X164012380Y-41347619D02*
X163012380Y-41014285D01*
X164012380Y-40680952D01*
X163012380Y-40490476D02*
X163012380Y-39919047D01*
X164012380Y-40204761D02*
X163012380Y-40204761D01*
X164107619Y-39823809D02*
X164107619Y-39061904D01*
X164012380Y-38823809D02*
X163012380Y-38823809D01*
X164012380Y-38347619D02*
X163012380Y-38347619D01*
X164012380Y-37776190D01*
X163012380Y-37776190D01*
%TO.C,C2*%
X133657142Y-47866666D02*
X133704761Y-47914285D01*
X133752380Y-48057142D01*
X133752380Y-48152380D01*
X133704761Y-48295238D01*
X133609523Y-48390476D01*
X133514285Y-48438095D01*
X133323809Y-48485714D01*
X133180952Y-48485714D01*
X132990476Y-48438095D01*
X132895238Y-48390476D01*
X132800000Y-48295238D01*
X132752380Y-48152380D01*
X132752380Y-48057142D01*
X132800000Y-47914285D01*
X132847619Y-47866666D01*
X132847619Y-47485714D02*
X132800000Y-47438095D01*
X132752380Y-47342857D01*
X132752380Y-47104761D01*
X132800000Y-47009523D01*
X132847619Y-46961904D01*
X132942857Y-46914285D01*
X133038095Y-46914285D01*
X133180952Y-46961904D01*
X133752380Y-47533333D01*
X133752380Y-46914285D01*
%TO.C,V_BAT_OUT*%
X163112380Y-56533333D02*
X164112380Y-56200000D01*
X163112380Y-55866666D01*
X164207619Y-55771428D02*
X164207619Y-55009523D01*
X163588571Y-54438095D02*
X163636190Y-54295238D01*
X163683809Y-54247619D01*
X163779047Y-54200000D01*
X163921904Y-54200000D01*
X164017142Y-54247619D01*
X164064761Y-54295238D01*
X164112380Y-54390476D01*
X164112380Y-54771428D01*
X163112380Y-54771428D01*
X163112380Y-54438095D01*
X163160000Y-54342857D01*
X163207619Y-54295238D01*
X163302857Y-54247619D01*
X163398095Y-54247619D01*
X163493333Y-54295238D01*
X163540952Y-54342857D01*
X163588571Y-54438095D01*
X163588571Y-54771428D01*
X163826666Y-53819047D02*
X163826666Y-53342857D01*
X164112380Y-53914285D02*
X163112380Y-53580952D01*
X164112380Y-53247619D01*
X163112380Y-53057142D02*
X163112380Y-52485714D01*
X164112380Y-52771428D02*
X163112380Y-52771428D01*
X164207619Y-52390476D02*
X164207619Y-51628571D01*
X163112380Y-51200000D02*
X163112380Y-51009523D01*
X163160000Y-50914285D01*
X163255238Y-50819047D01*
X163445714Y-50771428D01*
X163779047Y-50771428D01*
X163969523Y-50819047D01*
X164064761Y-50914285D01*
X164112380Y-51009523D01*
X164112380Y-51200000D01*
X164064761Y-51295238D01*
X163969523Y-51390476D01*
X163779047Y-51438095D01*
X163445714Y-51438095D01*
X163255238Y-51390476D01*
X163160000Y-51295238D01*
X163112380Y-51200000D01*
X163112380Y-50342857D02*
X163921904Y-50342857D01*
X164017142Y-50295238D01*
X164064761Y-50247619D01*
X164112380Y-50152380D01*
X164112380Y-49961904D01*
X164064761Y-49866666D01*
X164017142Y-49819047D01*
X163921904Y-49771428D01*
X163112380Y-49771428D01*
X163112380Y-49438095D02*
X163112380Y-48866666D01*
X164112380Y-49152380D02*
X163112380Y-49152380D01*
%TO.C,PS +3\u002C3V*%
X146142857Y-38847380D02*
X146142857Y-37847380D01*
X146523809Y-37847380D01*
X146619047Y-37895000D01*
X146666666Y-37942619D01*
X146714285Y-38037857D01*
X146714285Y-38180714D01*
X146666666Y-38275952D01*
X146619047Y-38323571D01*
X146523809Y-38371190D01*
X146142857Y-38371190D01*
X147095238Y-38799761D02*
X147238095Y-38847380D01*
X147476190Y-38847380D01*
X147571428Y-38799761D01*
X147619047Y-38752142D01*
X147666666Y-38656904D01*
X147666666Y-38561666D01*
X147619047Y-38466428D01*
X147571428Y-38418809D01*
X147476190Y-38371190D01*
X147285714Y-38323571D01*
X147190476Y-38275952D01*
X147142857Y-38228333D01*
X147095238Y-38133095D01*
X147095238Y-38037857D01*
X147142857Y-37942619D01*
X147190476Y-37895000D01*
X147285714Y-37847380D01*
X147523809Y-37847380D01*
X147666666Y-37895000D01*
X148857142Y-38466428D02*
X149619047Y-38466428D01*
X149238095Y-38847380D02*
X149238095Y-38085476D01*
X150000000Y-37847380D02*
X150619047Y-37847380D01*
X150285714Y-38228333D01*
X150428571Y-38228333D01*
X150523809Y-38275952D01*
X150571428Y-38323571D01*
X150619047Y-38418809D01*
X150619047Y-38656904D01*
X150571428Y-38752142D01*
X150523809Y-38799761D01*
X150428571Y-38847380D01*
X150142857Y-38847380D01*
X150047619Y-38799761D01*
X150000000Y-38752142D01*
X151095238Y-38799761D02*
X151095238Y-38847380D01*
X151047619Y-38942619D01*
X151000000Y-38990238D01*
X151428571Y-37847380D02*
X152047619Y-37847380D01*
X151714285Y-38228333D01*
X151857142Y-38228333D01*
X151952380Y-38275952D01*
X152000000Y-38323571D01*
X152047619Y-38418809D01*
X152047619Y-38656904D01*
X152000000Y-38752142D01*
X151952380Y-38799761D01*
X151857142Y-38847380D01*
X151571428Y-38847380D01*
X151476190Y-38799761D01*
X151428571Y-38752142D01*
X152333333Y-37847380D02*
X152666666Y-38847380D01*
X153000000Y-37847380D01*
%TO.C,PANEL_OUT*%
X145619047Y-48382380D02*
X145619047Y-47382380D01*
X146000000Y-47382380D01*
X146095238Y-47430000D01*
X146142857Y-47477619D01*
X146190476Y-47572857D01*
X146190476Y-47715714D01*
X146142857Y-47810952D01*
X146095238Y-47858571D01*
X146000000Y-47906190D01*
X145619047Y-47906190D01*
X146571428Y-48096666D02*
X147047619Y-48096666D01*
X146476190Y-48382380D02*
X146809523Y-47382380D01*
X147142857Y-48382380D01*
X147476190Y-48382380D02*
X147476190Y-47382380D01*
X148047619Y-48382380D01*
X148047619Y-47382380D01*
X148523809Y-47858571D02*
X148857142Y-47858571D01*
X149000000Y-48382380D02*
X148523809Y-48382380D01*
X148523809Y-47382380D01*
X149000000Y-47382380D01*
X149904761Y-48382380D02*
X149428571Y-48382380D01*
X149428571Y-47382380D01*
X150000000Y-48477619D02*
X150761904Y-48477619D01*
X151190476Y-47382380D02*
X151380952Y-47382380D01*
X151476190Y-47430000D01*
X151571428Y-47525238D01*
X151619047Y-47715714D01*
X151619047Y-48049047D01*
X151571428Y-48239523D01*
X151476190Y-48334761D01*
X151380952Y-48382380D01*
X151190476Y-48382380D01*
X151095238Y-48334761D01*
X151000000Y-48239523D01*
X150952380Y-48049047D01*
X150952380Y-47715714D01*
X151000000Y-47525238D01*
X151095238Y-47430000D01*
X151190476Y-47382380D01*
X152047619Y-47382380D02*
X152047619Y-48191904D01*
X152095238Y-48287142D01*
X152142857Y-48334761D01*
X152238095Y-48382380D01*
X152428571Y-48382380D01*
X152523809Y-48334761D01*
X152571428Y-48287142D01*
X152619047Y-48191904D01*
X152619047Y-47382380D01*
X152952380Y-47382380D02*
X153523809Y-47382380D01*
X153238095Y-48382380D02*
X153238095Y-47382380D01*
%TO.C,R4*%
X137832380Y-43966666D02*
X137356190Y-44300000D01*
X137832380Y-44538095D02*
X136832380Y-44538095D01*
X136832380Y-44157142D01*
X136880000Y-44061904D01*
X136927619Y-44014285D01*
X137022857Y-43966666D01*
X137165714Y-43966666D01*
X137260952Y-44014285D01*
X137308571Y-44061904D01*
X137356190Y-44157142D01*
X137356190Y-44538095D01*
X137165714Y-43109523D02*
X137832380Y-43109523D01*
X136784761Y-43347619D02*
X137499047Y-43585714D01*
X137499047Y-42966666D01*
%TO.C,R3*%
X144072380Y-43966666D02*
X143596190Y-44300000D01*
X144072380Y-44538095D02*
X143072380Y-44538095D01*
X143072380Y-44157142D01*
X143120000Y-44061904D01*
X143167619Y-44014285D01*
X143262857Y-43966666D01*
X143405714Y-43966666D01*
X143500952Y-44014285D01*
X143548571Y-44061904D01*
X143596190Y-44157142D01*
X143596190Y-44538095D01*
X143072380Y-43633333D02*
X143072380Y-43014285D01*
X143453333Y-43347619D01*
X143453333Y-43204761D01*
X143500952Y-43109523D01*
X143548571Y-43061904D01*
X143643809Y-43014285D01*
X143881904Y-43014285D01*
X143977142Y-43061904D01*
X144024761Y-43109523D01*
X144072380Y-43204761D01*
X144072380Y-43490476D01*
X144024761Y-43585714D01*
X143977142Y-43633333D01*
%TO.C,C1*%
X127207142Y-47916666D02*
X127254761Y-47964285D01*
X127302380Y-48107142D01*
X127302380Y-48202380D01*
X127254761Y-48345238D01*
X127159523Y-48440476D01*
X127064285Y-48488095D01*
X126873809Y-48535714D01*
X126730952Y-48535714D01*
X126540476Y-48488095D01*
X126445238Y-48440476D01*
X126350000Y-48345238D01*
X126302380Y-48202380D01*
X126302380Y-48107142D01*
X126350000Y-47964285D01*
X126397619Y-47916666D01*
X127302380Y-46964285D02*
X127302380Y-47535714D01*
X127302380Y-47250000D02*
X126302380Y-47250000D01*
X126445238Y-47345238D01*
X126540476Y-47440476D01*
X126588095Y-47535714D01*
%TO.C,R1*%
X128432380Y-39126666D02*
X127956190Y-39460000D01*
X128432380Y-39698095D02*
X127432380Y-39698095D01*
X127432380Y-39317142D01*
X127480000Y-39221904D01*
X127527619Y-39174285D01*
X127622857Y-39126666D01*
X127765714Y-39126666D01*
X127860952Y-39174285D01*
X127908571Y-39221904D01*
X127956190Y-39317142D01*
X127956190Y-39698095D01*
X128432380Y-38174285D02*
X128432380Y-38745714D01*
X128432380Y-38460000D02*
X127432380Y-38460000D01*
X127575238Y-38555238D01*
X127670476Y-38650476D01*
X127718095Y-38745714D01*
%TO.C,Address*%
X170726666Y-78090476D02*
X170726666Y-77614285D01*
X171012380Y-78185714D02*
X170012380Y-77852380D01*
X171012380Y-77519047D01*
X171012380Y-76757142D02*
X170012380Y-76757142D01*
X170964761Y-76757142D02*
X171012380Y-76852380D01*
X171012380Y-77042857D01*
X170964761Y-77138095D01*
X170917142Y-77185714D01*
X170821904Y-77233333D01*
X170536190Y-77233333D01*
X170440952Y-77185714D01*
X170393333Y-77138095D01*
X170345714Y-77042857D01*
X170345714Y-76852380D01*
X170393333Y-76757142D01*
X171012380Y-75852380D02*
X170012380Y-75852380D01*
X170964761Y-75852380D02*
X171012380Y-75947619D01*
X171012380Y-76138095D01*
X170964761Y-76233333D01*
X170917142Y-76280952D01*
X170821904Y-76328571D01*
X170536190Y-76328571D01*
X170440952Y-76280952D01*
X170393333Y-76233333D01*
X170345714Y-76138095D01*
X170345714Y-75947619D01*
X170393333Y-75852380D01*
X171012380Y-75376190D02*
X170345714Y-75376190D01*
X170536190Y-75376190D02*
X170440952Y-75328571D01*
X170393333Y-75280952D01*
X170345714Y-75185714D01*
X170345714Y-75090476D01*
X170964761Y-74376190D02*
X171012380Y-74471428D01*
X171012380Y-74661904D01*
X170964761Y-74757142D01*
X170869523Y-74804761D01*
X170488571Y-74804761D01*
X170393333Y-74757142D01*
X170345714Y-74661904D01*
X170345714Y-74471428D01*
X170393333Y-74376190D01*
X170488571Y-74328571D01*
X170583809Y-74328571D01*
X170679047Y-74804761D01*
X170964761Y-73947619D02*
X171012380Y-73852380D01*
X171012380Y-73661904D01*
X170964761Y-73566666D01*
X170869523Y-73519047D01*
X170821904Y-73519047D01*
X170726666Y-73566666D01*
X170679047Y-73661904D01*
X170679047Y-73804761D01*
X170631428Y-73900000D01*
X170536190Y-73947619D01*
X170488571Y-73947619D01*
X170393333Y-73900000D01*
X170345714Y-73804761D01*
X170345714Y-73661904D01*
X170393333Y-73566666D01*
X170964761Y-73138095D02*
X171012380Y-73042857D01*
X171012380Y-72852380D01*
X170964761Y-72757142D01*
X170869523Y-72709523D01*
X170821904Y-72709523D01*
X170726666Y-72757142D01*
X170679047Y-72852380D01*
X170679047Y-72995238D01*
X170631428Y-73090476D01*
X170536190Y-73138095D01*
X170488571Y-73138095D01*
X170393333Y-73090476D01*
X170345714Y-72995238D01*
X170345714Y-72852380D01*
X170393333Y-72757142D01*
%TO.C,BAT_OUT*%
X137952380Y-35428571D02*
X138095238Y-35476190D01*
X138142857Y-35523809D01*
X138190476Y-35619047D01*
X138190476Y-35761904D01*
X138142857Y-35857142D01*
X138095238Y-35904761D01*
X138000000Y-35952380D01*
X137619047Y-35952380D01*
X137619047Y-34952380D01*
X137952380Y-34952380D01*
X138047619Y-35000000D01*
X138095238Y-35047619D01*
X138142857Y-35142857D01*
X138142857Y-35238095D01*
X138095238Y-35333333D01*
X138047619Y-35380952D01*
X137952380Y-35428571D01*
X137619047Y-35428571D01*
X138571428Y-35666666D02*
X139047619Y-35666666D01*
X138476190Y-35952380D02*
X138809523Y-34952380D01*
X139142857Y-35952380D01*
X139333333Y-34952380D02*
X139904761Y-34952380D01*
X139619047Y-35952380D02*
X139619047Y-34952380D01*
X140000000Y-36047619D02*
X140761904Y-36047619D01*
X141190476Y-34952380D02*
X141380952Y-34952380D01*
X141476190Y-35000000D01*
X141571428Y-35095238D01*
X141619047Y-35285714D01*
X141619047Y-35619047D01*
X141571428Y-35809523D01*
X141476190Y-35904761D01*
X141380952Y-35952380D01*
X141190476Y-35952380D01*
X141095238Y-35904761D01*
X141000000Y-35809523D01*
X140952380Y-35619047D01*
X140952380Y-35285714D01*
X141000000Y-35095238D01*
X141095238Y-35000000D01*
X141190476Y-34952380D01*
X142047619Y-34952380D02*
X142047619Y-35761904D01*
X142095238Y-35857142D01*
X142142857Y-35904761D01*
X142238095Y-35952380D01*
X142428571Y-35952380D01*
X142523809Y-35904761D01*
X142571428Y-35857142D01*
X142619047Y-35761904D01*
X142619047Y-34952380D01*
X142952380Y-34952380D02*
X143523809Y-34952380D01*
X143238095Y-35952380D02*
X143238095Y-34952380D01*
%TO.C,U1*%
X144498214Y-61333023D02*
X145308050Y-61333023D01*
X145403325Y-61285386D01*
X145450963Y-61237749D01*
X145498600Y-61142474D01*
X145498600Y-60951924D01*
X145450963Y-60856649D01*
X145403325Y-60809012D01*
X145308050Y-60761374D01*
X144498214Y-60761374D01*
X145498600Y-59760988D02*
X145498600Y-60332637D01*
X145498600Y-60046813D02*
X144498214Y-60046813D01*
X144641126Y-60142088D01*
X144736401Y-60237363D01*
X144784039Y-60332637D01*
%TO.C,U2*%
X136574880Y-98969404D02*
X137384404Y-98969404D01*
X137479642Y-98921785D01*
X137527261Y-98874166D01*
X137574880Y-98778928D01*
X137574880Y-98588452D01*
X137527261Y-98493214D01*
X137479642Y-98445595D01*
X137384404Y-98397976D01*
X136574880Y-98397976D01*
X136670119Y-97969404D02*
X136622500Y-97921785D01*
X136574880Y-97826547D01*
X136574880Y-97588452D01*
X136622500Y-97493214D01*
X136670119Y-97445595D01*
X136765357Y-97397976D01*
X136860595Y-97397976D01*
X137003452Y-97445595D01*
X137574880Y-98017023D01*
X137574880Y-97397976D01*
%TO.C,Antenna*%
X177266666Y-94011904D02*
X177266666Y-93535714D01*
X177552380Y-94107142D02*
X176552380Y-93773809D01*
X177552380Y-93440476D01*
X176885714Y-93107142D02*
X177552380Y-93107142D01*
X176980952Y-93107142D02*
X176933333Y-93059523D01*
X176885714Y-92964285D01*
X176885714Y-92821428D01*
X176933333Y-92726190D01*
X177028571Y-92678571D01*
X177552380Y-92678571D01*
X176885714Y-92345238D02*
X176885714Y-91964285D01*
X176552380Y-92202380D02*
X177409523Y-92202380D01*
X177504761Y-92154761D01*
X177552380Y-92059523D01*
X177552380Y-91964285D01*
X177504761Y-91250000D02*
X177552380Y-91345238D01*
X177552380Y-91535714D01*
X177504761Y-91630952D01*
X177409523Y-91678571D01*
X177028571Y-91678571D01*
X176933333Y-91630952D01*
X176885714Y-91535714D01*
X176885714Y-91345238D01*
X176933333Y-91250000D01*
X177028571Y-91202380D01*
X177123809Y-91202380D01*
X177219047Y-91678571D01*
X176885714Y-90773809D02*
X177552380Y-90773809D01*
X176980952Y-90773809D02*
X176933333Y-90726190D01*
X176885714Y-90630952D01*
X176885714Y-90488095D01*
X176933333Y-90392857D01*
X177028571Y-90345238D01*
X177552380Y-90345238D01*
X176885714Y-89869047D02*
X177552380Y-89869047D01*
X176980952Y-89869047D02*
X176933333Y-89821428D01*
X176885714Y-89726190D01*
X176885714Y-89583333D01*
X176933333Y-89488095D01*
X177028571Y-89440476D01*
X177552380Y-89440476D01*
X177552380Y-88535714D02*
X177028571Y-88535714D01*
X176933333Y-88583333D01*
X176885714Y-88678571D01*
X176885714Y-88869047D01*
X176933333Y-88964285D01*
X177504761Y-88535714D02*
X177552380Y-88630952D01*
X177552380Y-88869047D01*
X177504761Y-88964285D01*
X177409523Y-89011904D01*
X177314285Y-89011904D01*
X177219047Y-88964285D01*
X177171428Y-88869047D01*
X177171428Y-88630952D01*
X177123809Y-88535714D01*
%TO.C,J3*%
X155362380Y-81133333D02*
X156076666Y-81133333D01*
X156219523Y-81180952D01*
X156314761Y-81276190D01*
X156362380Y-81419047D01*
X156362380Y-81514285D01*
X155362380Y-80752380D02*
X155362380Y-80133333D01*
X155743333Y-80466666D01*
X155743333Y-80323809D01*
X155790952Y-80228571D01*
X155838571Y-80180952D01*
X155933809Y-80133333D01*
X156171904Y-80133333D01*
X156267142Y-80180952D01*
X156314761Y-80228571D01*
X156362380Y-80323809D01*
X156362380Y-80609523D01*
X156314761Y-80704761D01*
X156267142Y-80752380D01*
D13*
%TO.C,I2C_Sensor_out*%
X157510000Y-63550000D02*
X155710000Y-63550000D01*
X162010000Y-68750000D02*
X157520000Y-68750000D01*
X165010000Y-63550000D02*
X159010000Y-63550000D01*
X155710000Y-63550000D02*
X155710000Y-64300000D01*
X166510000Y-63550000D02*
X166510000Y-64300000D01*
X155410000Y-63250000D02*
X155410000Y-64500000D01*
X165010000Y-64300000D02*
X165010000Y-63550000D01*
X159010000Y-63550000D02*
X159010000Y-64300000D01*
X157510000Y-64300000D02*
X157510000Y-63550000D01*
X166510000Y-64300000D02*
X168310000Y-64300000D01*
X155710000Y-64300000D02*
X157510000Y-64300000D01*
X159010000Y-64300000D02*
X165010000Y-64300000D01*
X168320000Y-69510000D02*
X168320000Y-63540000D01*
X155710000Y-65800000D02*
X156460000Y-65800000D01*
X168310000Y-65800000D02*
X167560000Y-65800000D01*
X167560000Y-68750000D02*
X162010000Y-68750000D01*
X168310000Y-64300000D02*
X168310000Y-63550000D01*
X167560000Y-65800000D02*
X167560000Y-68750000D01*
X155700000Y-63540000D02*
X155700000Y-69510000D01*
X155700000Y-69510000D02*
X168320000Y-69510000D01*
X168310000Y-63550000D02*
X166510000Y-63550000D01*
X168320000Y-63540000D02*
X155700000Y-63540000D01*
X156460000Y-65800000D02*
X156460000Y-67140000D01*
X156660000Y-63250000D02*
X155410000Y-63250000D01*
%TO.C,R2*%
X131280000Y-37080000D02*
X131280000Y-40920000D01*
X133120000Y-37080000D02*
X133120000Y-40920000D01*
%TO.C,V_BAT_IN*%
X159675000Y-44370000D02*
X159616000Y-44311000D01*
X157184000Y-42290000D02*
X157126000Y-42231000D01*
X154600000Y-35500000D02*
X154600000Y-36100000D01*
X154839000Y-35740000D02*
X154839000Y-45860000D01*
X162560000Y-35740000D02*
X154839000Y-35740000D01*
X155500000Y-35740000D02*
X155500000Y-45860000D01*
X155440000Y-35500000D02*
X154600000Y-35500000D01*
X157424000Y-42120000D02*
X157331000Y-42026000D01*
X156100000Y-35740000D02*
X156100000Y-45860000D01*
X162560000Y-35740000D02*
X162560000Y-45860000D01*
X160800000Y-35740000D02*
X160800000Y-45860000D01*
X159469000Y-44575000D02*
X159376000Y-44481000D01*
X162560000Y-45860000D02*
X154839000Y-45860000D01*
X159884000Y-39089000D02*
G75*
G03*
X159883953Y-37510911I-1483995J789000D01*
G01*
X159189000Y-36816000D02*
G75*
G03*
X157610911Y-36816047I-789000J-1483995D01*
G01*
X156916000Y-37511000D02*
G75*
G03*
X156719550Y-38329383I1483995J-788998D01*
G01*
X157611000Y-39784000D02*
G75*
G03*
X159189089Y-39783953I789000J1483995D01*
G01*
X156720000Y-38300000D02*
G75*
G03*
X156916648Y-39088712I1679991J-2D01*
G01*
X160080000Y-43300000D02*
G75*
G03*
X160080000Y-43300000I-1680000J0D01*
G01*
X161950000Y-43300000D02*
G75*
G03*
X161950000Y-43300000I-550000J0D01*
G01*
X161950000Y-38300000D02*
G75*
G03*
X161950000Y-38300000I-550000J0D01*
G01*
%TO.C,C2*%
X130430000Y-48379000D02*
X130430000Y-47121000D01*
X132270000Y-48379000D02*
X132270000Y-47121000D01*
%TO.C,V_BAT_OUT*%
X159569000Y-56475000D02*
X159476000Y-56381000D01*
X157284000Y-54190000D02*
X157226000Y-54131000D01*
X162660000Y-47640000D02*
X154939000Y-47640000D01*
X160900000Y-47640000D02*
X160900000Y-57760000D01*
X162660000Y-57760000D02*
X154939000Y-57760000D01*
X159775000Y-56270000D02*
X159716000Y-56211000D01*
X162660000Y-47640000D02*
X162660000Y-57760000D01*
X154700000Y-47400000D02*
X154700000Y-48000000D01*
X154939000Y-47640000D02*
X154939000Y-57760000D01*
X157524000Y-54020000D02*
X157431000Y-53926000D01*
X155540000Y-47400000D02*
X154700000Y-47400000D01*
X155600000Y-47640000D02*
X155600000Y-57760000D01*
X156200000Y-47640000D02*
X156200000Y-57760000D01*
X156820000Y-50200000D02*
G75*
G03*
X157016648Y-50988712I1679991J-2D01*
G01*
X159289000Y-48716000D02*
G75*
G03*
X157710911Y-48716047I-789000J-1483995D01*
G01*
X157711000Y-51684000D02*
G75*
G03*
X159289089Y-51683953I789000J1483995D01*
G01*
X157016000Y-49411000D02*
G75*
G03*
X156819550Y-50229383I1483995J-788998D01*
G01*
X159984000Y-50989000D02*
G75*
G03*
X159983953Y-49410911I-1483995J789000D01*
G01*
X162050000Y-50200000D02*
G75*
G03*
X162050000Y-50200000I-550000J0D01*
G01*
X162050000Y-55200000D02*
G75*
G03*
X162050000Y-55200000I-550000J0D01*
G01*
X160180000Y-55200000D02*
G75*
G03*
X160180000Y-55200000I-1680000J0D01*
G01*
%TO.C,PS +3\u002C3V*%
X148170000Y-41995000D02*
X148170000Y-44595000D01*
X148170000Y-41995000D02*
X150830000Y-41995000D01*
X148170000Y-40725000D02*
X148170000Y-39395000D01*
X148170000Y-39395000D02*
X149500000Y-39395000D01*
X148170000Y-44595000D02*
X150830000Y-44595000D01*
X150830000Y-41995000D02*
X150830000Y-44595000D01*
%TO.C,PANEL_OUT*%
X148170000Y-50260000D02*
X148170000Y-48930000D01*
X148170000Y-51530000D02*
X148170000Y-54130000D01*
X150830000Y-51530000D02*
X150830000Y-54130000D01*
X148170000Y-51530000D02*
X150830000Y-51530000D01*
X148170000Y-48930000D02*
X149500000Y-48930000D01*
X148170000Y-54130000D02*
X150830000Y-54130000D01*
%TO.C,R4*%
X140220000Y-45720000D02*
X140220000Y-41880000D01*
X138380000Y-45720000D02*
X138380000Y-41880000D01*
%TO.C,R3*%
X142620000Y-41880000D02*
X142620000Y-45720000D01*
X140780000Y-41880000D02*
X140780000Y-45720000D01*
%TO.C,C1*%
X129820000Y-48379000D02*
X129820000Y-47121000D01*
X127980000Y-48379000D02*
X127980000Y-47121000D01*
%TO.C,R1*%
X130820000Y-40880000D02*
X130820000Y-37040000D01*
X128980000Y-40880000D02*
X128980000Y-37040000D01*
%TO.C,Address*%
X169360000Y-75400000D02*
X169360000Y-76800000D01*
X168660000Y-77500000D02*
X168060000Y-77500000D01*
X167360000Y-76800000D02*
X167360000Y-75400000D01*
X168060000Y-74700000D02*
X168660000Y-74700000D01*
X169360000Y-75400000D02*
G75*
G03*
X168660000Y-74700000I-699999J1D01*
G01*
X167360000Y-76800000D02*
G75*
G03*
X168060000Y-77500000I699999J-1D01*
G01*
X168660000Y-77500000D02*
G75*
G03*
X169360000Y-76800000I1J699999D01*
G01*
X168060000Y-74700000D02*
G75*
G03*
X167360000Y-75400000I-1J-699999D01*
G01*
%TO.C,BAT_OUT*%
X140455000Y-36770000D02*
X137855000Y-36770000D01*
X143055000Y-36770000D02*
X143055000Y-38100000D01*
X141725000Y-36770000D02*
X143055000Y-36770000D01*
X137855000Y-36770000D02*
X137855000Y-39430000D01*
X140455000Y-39430000D02*
X137855000Y-39430000D01*
X140455000Y-36770000D02*
X140455000Y-39430000D01*
D14*
%TO.C,U1*%
X143750000Y-57450000D02*
X143750000Y-85350000D01*
X89350000Y-85350000D02*
X89350000Y-57450000D01*
X89350000Y-57450000D02*
X143750000Y-57450000D01*
X143750000Y-85350000D02*
X89350000Y-85350000D01*
D13*
%TO.C,U2*%
X138167500Y-106332500D02*
X138167500Y-90082500D01*
X138167500Y-90082500D02*
X154417500Y-90082500D01*
X137892500Y-106607500D02*
X137892500Y-104307500D01*
X154417500Y-90082500D02*
X154417500Y-106332500D01*
X139992500Y-106607500D02*
X137892500Y-106607500D01*
X154417500Y-106332500D02*
X138167500Y-106332500D01*
%TO.C,Antenna*%
X178150000Y-87100000D02*
X178150000Y-95400000D01*
X178150000Y-87100000D02*
X186450000Y-87100000D01*
X178150000Y-95400000D02*
X186450000Y-95400000D01*
X186450000Y-87100000D02*
X186450000Y-95400000D01*
%TO.C,J3*%
X159510000Y-79470000D02*
X174810000Y-79470000D01*
X159510000Y-82130000D02*
X174810000Y-82130000D01*
X158240000Y-82130000D02*
X156910000Y-82130000D01*
X159510000Y-82130000D02*
X159510000Y-79470000D01*
X156910000Y-82130000D02*
X156910000Y-80800000D01*
X174810000Y-82130000D02*
X174810000Y-79470000D01*
%TD*%
M02*
