%TF.GenerationSoftware,KiCad,Pcbnew,9.0.1*%
%TF.CreationDate,2025-04-07T12:08:43+02:00*%
%TF.ProjectId,sensor,73656e73-6f72-42e6-9b69-6361645f7063,rev?*%
%TF.SameCoordinates,Original*%
%TF.FileFunction,Paste,Top*%
%TF.FilePolarity,Positive*%
%FSLAX46Y46*%
G04 Gerber Fmt 4.6, Leading zero omitted, Abs format (unit mm)*
G04 Created by KiCad (PCBNEW 9.0.1) date 2025-04-07 12:08:43*
%MOMM*%
%LPD*%
G01*
G04 APERTURE LIST*
G04 Aperture macros list*
%AMRoundRect*
0 Rectangle with rounded corners*
0 $1 Rounding radius*
0 $2 $3 $4 $5 $6 $7 $8 $9 X,Y pos of 4 corners*
0 Add a 4 corners polygon primitive as box body*
4,1,4,$2,$3,$4,$5,$6,$7,$8,$9,$2,$3,0*
0 Add four circle primitives for the rounded corners*
1,1,$1+$1,$2,$3*
1,1,$1+$1,$4,$5*
1,1,$1+$1,$6,$7*
1,1,$1+$1,$8,$9*
0 Add four rect primitives between the rounded corners*
20,1,$1+$1,$2,$3,$4,$5,0*
20,1,$1+$1,$4,$5,$6,$7,0*
20,1,$1+$1,$6,$7,$8,$9,0*
20,1,$1+$1,$8,$9,$2,$3,0*%
G04 Aperture macros list end*
%ADD10R,1.500000X2.000000*%
%ADD11R,3.800000X2.000000*%
%ADD12RoundRect,0.075000X-0.650000X-0.075000X0.650000X-0.075000X0.650000X0.075000X-0.650000X0.075000X0*%
%ADD13RoundRect,0.250000X-1.425000X0.362500X-1.425000X-0.362500X1.425000X-0.362500X1.425000X0.362500X0*%
%ADD14RoundRect,0.250000X1.425000X-0.362500X1.425000X0.362500X-1.425000X0.362500X-1.425000X-0.362500X0*%
%ADD15R,1.200000X0.900000*%
%ADD16R,2.300000X1.000000*%
%ADD17R,1.000000X2.300000*%
%ADD18RoundRect,0.075000X-0.225000X0.910000X-0.225000X-0.910000X0.225000X-0.910000X0.225000X0.910000X0*%
%ADD19RoundRect,0.150000X0.825000X0.150000X-0.825000X0.150000X-0.825000X-0.150000X0.825000X-0.150000X0*%
%ADD20R,1.500000X1.500000*%
G04 APERTURE END LIST*
D10*
%TO.C,U3*%
X166714200Y-49402600D03*
X164414200Y-49402600D03*
X162114200Y-49402600D03*
D11*
X164414200Y-55702600D03*
%TD*%
D12*
%TO.C,U5*%
X161985600Y-60036200D03*
X161985600Y-60536200D03*
X161985600Y-61036200D03*
X161985600Y-61536200D03*
X161985600Y-62036200D03*
X166385600Y-62036200D03*
X166385600Y-61536200D03*
X166385600Y-61036200D03*
X166385600Y-60536200D03*
X166385600Y-60036200D03*
%TD*%
D13*
%TO.C,R_SNS1*%
X161772600Y-85302500D03*
X161772600Y-91227500D03*
%TD*%
D14*
%TO.C,R_Sense1*%
X154406600Y-59985500D03*
X154406600Y-54060500D03*
%TD*%
D15*
%TO.C,D1*%
X168376600Y-86587600D03*
X168376600Y-83287600D03*
%TD*%
D16*
%TO.C,U1*%
X88488000Y-78038000D03*
X88488000Y-79288000D03*
X88488000Y-80538000D03*
X88488000Y-81788000D03*
X88488000Y-83038000D03*
X88488000Y-84288000D03*
X88488000Y-85538000D03*
D17*
X90738000Y-87788000D03*
X91988000Y-87788000D03*
X93238000Y-87788000D03*
X94488000Y-87788000D03*
X95738000Y-87788000D03*
X96988000Y-87788000D03*
X98238000Y-87788000D03*
D16*
X100488000Y-85538000D03*
X100488000Y-84288000D03*
X100488000Y-83038000D03*
X100488000Y-81788000D03*
X100488000Y-80538000D03*
X100488000Y-79288000D03*
X100488000Y-78038000D03*
D17*
X98238000Y-75788000D03*
X96988000Y-75788000D03*
X95738000Y-75788000D03*
X94488000Y-75788000D03*
X93238000Y-75788000D03*
X91988000Y-75788000D03*
X90738000Y-75788000D03*
%TD*%
D18*
%TO.C,U6*%
X151905000Y-80530000D03*
X150635000Y-80530000D03*
X149365000Y-80530000D03*
X148095000Y-80530000D03*
X148095000Y-85470000D03*
X149365000Y-85470000D03*
X150635000Y-85470000D03*
X151905000Y-85470000D03*
%TD*%
D19*
%TO.C,U2*%
X126274600Y-81711800D03*
X126274600Y-80441800D03*
X126274600Y-79171800D03*
X126274600Y-77901800D03*
X121324600Y-77901800D03*
X121324600Y-79171800D03*
X121324600Y-80441800D03*
X121324600Y-81711800D03*
%TD*%
D20*
%TO.C,SW1*%
X106705400Y-74789200D03*
X106705400Y-82589200D03*
%TD*%
M02*
