M48
; DRILL file {KiCad 6.0.2+dfsg-1} date Mo 08 Mai 2023 14:40:45 CEST
; FORMAT={-:-/ absolute / inch / decimal}
; #@! TF.CreationDate,2023-05-08T14:40:45+02:00
; #@! TF.GenerationSoftware,Kicad,Pcbnew,6.0.2+dfsg-1
; #@! TF.FileFunction,Plated,1,2,PTH
FMAT,2
INCH
; #@! TA.AperFunction,Plated,PTH,ComponentDrill
T1C0.0276
; #@! TA.AperFunction,Plated,PTH,ComponentDrill
T2C0.0315
; #@! TA.AperFunction,Plated,PTH,ComponentDrill
T3C0.0374
; #@! TA.AperFunction,Plated,PTH,ComponentDrill
T4C0.0394
; #@! TA.AperFunction,Plated,PTH,ComponentDrill
T5C0.0409
; #@! TA.AperFunction,Plated,PTH,ComponentDrill
T6C0.0512
; #@! TA.AperFunction,Plated,PTH,ComponentDrill
T7C0.0591
; #@! TA.AperFunction,Plated,PTH,ComponentDrill
T8C0.0669
; #@! TA.AperFunction,Plated,PTH,ComponentDrill
T9C0.1260
%
G90
G05
T1
X5.1142Y-1.4339
X5.1142Y-1.6339
X5.2047Y-1.4354
X5.2047Y-1.6354
X5.4843Y-1.6244
X5.4843Y-1.8244
X5.5787Y-1.6244
X5.5787Y-1.8244
T2
X5.0748Y-1.8307
X5.0748Y-1.9291
X5.1713Y-1.8307
X5.1713Y-1.9291
X5.484Y-3.5987
X5.484Y-4.1342
X5.5627Y-3.5987
X5.5627Y-4.1342
X5.6414Y-3.5987
X5.6414Y-4.1342
X5.7202Y-3.5987
X5.7202Y-4.1342
X5.7989Y-3.5987
X5.7989Y-4.1342
X5.8777Y-3.5987
X5.8777Y-4.1342
X5.9564Y-3.5987
X5.9564Y-4.1342
X6.0351Y-3.5987
X6.0351Y-4.1342
T3
X6.2307Y-2.5984
X6.3291Y-2.5984
X6.4276Y-2.5984
X6.526Y-2.5984
T4
X5.4797Y-1.5
X5.5797Y-1.5
X5.8858Y-1.6033
X5.8858Y-1.7033
X5.8858Y-1.9787
X5.8858Y-2.0787
X6.2299Y-3.1811
X6.3299Y-3.1811
X6.4299Y-3.1811
X6.5299Y-3.1811
X6.6299Y-3.1811
X6.7299Y-3.1811
X6.8299Y-3.1811
T5
X3.5685Y-2.311
X3.5685Y-3.311
X3.6685Y-2.311
X3.6685Y-3.311
X3.7685Y-2.311
X3.7685Y-3.311
X3.8685Y-2.311
X3.8685Y-3.311
X3.9685Y-2.311
X3.9685Y-3.311
X4.0685Y-2.311
X4.0685Y-3.311
X4.1685Y-2.311
X4.1685Y-3.311
X4.2685Y-2.311
X4.2685Y-3.311
X4.3685Y-2.311
X4.3685Y-3.311
X4.4685Y-2.311
X4.4685Y-3.311
X4.5685Y-2.311
X4.5685Y-3.311
X4.6685Y-2.311
X4.6685Y-3.311
X4.7685Y-2.311
X4.7685Y-3.311
X4.8685Y-2.311
X4.8685Y-3.311
X4.9685Y-2.311
X4.9685Y-3.311
X5.0685Y-2.311
X5.0685Y-3.311
X5.1685Y-2.311
X5.1685Y-3.311
X5.2685Y-2.311
X5.2685Y-3.311
X5.3685Y-2.311
X5.3685Y-3.311
T6
X6.2362Y-1.5079
X6.2362Y-1.7047
X6.2402Y-1.9764
X6.2402Y-2.1732
T7
X7.1772Y-3.5925
T8
X7.0772Y-3.4925
X7.0772Y-3.6925
X7.2772Y-3.4925
X7.2772Y-3.6925
T9
X2.2913Y-2.2854
X2.2913Y-3.4764
X2.8268Y-1.6969
X2.8268Y-3.9882
X4.7638Y-1.6969
X4.7638Y-3.9882
X7.2697Y-1.5886
X7.2815Y-4.1752
X7.6378Y-2.2854
X7.6378Y-3.4764
T0
M30
