%TF.GenerationSoftware,KiCad,Pcbnew,9.0.1*%
%TF.CreationDate,2025-04-07T12:08:43+02:00*%
%TF.ProjectId,sensor,73656e73-6f72-42e6-9b69-6361645f7063,rev?*%
%TF.SameCoordinates,Original*%
%TF.FileFunction,Copper,L2,Bot*%
%TF.FilePolarity,Positive*%
%FSLAX46Y46*%
G04 Gerber Fmt 4.6, Leading zero omitted, Abs format (unit mm)*
G04 Created by KiCad (PCBNEW 9.0.1) date 2025-04-07 12:08:43*
%MOMM*%
%LPD*%
G01*
G04 APERTURE LIST*
G04 Aperture macros list*
%AMRoundRect*
0 Rectangle with rounded corners*
0 $1 Rounding radius*
0 $2 $3 $4 $5 $6 $7 $8 $9 X,Y pos of 4 corners*
0 Add a 4 corners polygon primitive as box body*
4,1,4,$2,$3,$4,$5,$6,$7,$8,$9,$2,$3,0*
0 Add four circle primitives for the rounded corners*
1,1,$1+$1,$2,$3*
1,1,$1+$1,$4,$5*
1,1,$1+$1,$6,$7*
1,1,$1+$1,$8,$9*
0 Add four rect primitives between the rounded corners*
20,1,$1+$1,$2,$3,$4,$5,0*
20,1,$1+$1,$4,$5,$6,$7,0*
20,1,$1+$1,$6,$7,$8,$9,0*
20,1,$1+$1,$8,$9,$2,$3,0*%
G04 Aperture macros list end*
%TA.AperFunction,ComponentPad*%
%ADD10R,2.000000X1.905000*%
%TD*%
%TA.AperFunction,ComponentPad*%
%ADD11O,2.000000X1.905000*%
%TD*%
%TA.AperFunction,ComponentPad*%
%ADD12C,1.400000*%
%TD*%
%TA.AperFunction,ComponentPad*%
%ADD13C,1.600000*%
%TD*%
%TA.AperFunction,ComponentPad*%
%ADD14O,1.600000X1.600000*%
%TD*%
%TA.AperFunction,ComponentPad*%
%ADD15C,2.250000*%
%TD*%
%TA.AperFunction,ComponentPad*%
%ADD16R,1.600000X1.600000*%
%TD*%
%TA.AperFunction,ComponentPad*%
%ADD17RoundRect,0.250000X-0.600000X-0.750000X0.600000X-0.750000X0.600000X0.750000X-0.600000X0.750000X0*%
%TD*%
%TA.AperFunction,ComponentPad*%
%ADD18O,1.700000X2.000000*%
%TD*%
%TA.AperFunction,ComponentPad*%
%ADD19R,2.500000X2.500000*%
%TD*%
%TA.AperFunction,ComponentPad*%
%ADD20C,2.500000*%
%TD*%
%TA.AperFunction,ComponentPad*%
%ADD21RoundRect,0.250000X-0.600000X-0.725000X0.600000X-0.725000X0.600000X0.725000X-0.600000X0.725000X0*%
%TD*%
%TA.AperFunction,ComponentPad*%
%ADD22O,1.700000X1.950000*%
%TD*%
%TA.AperFunction,ComponentPad*%
%ADD23RoundRect,0.250000X-0.725000X0.600000X-0.725000X-0.600000X0.725000X-0.600000X0.725000X0.600000X0*%
%TD*%
%TA.AperFunction,ComponentPad*%
%ADD24O,1.950000X1.700000*%
%TD*%
%TA.AperFunction,ComponentPad*%
%ADD25R,1.700000X1.700000*%
%TD*%
%TA.AperFunction,ComponentPad*%
%ADD26O,1.700000X1.700000*%
%TD*%
%TA.AperFunction,ViaPad*%
%ADD27C,0.900000*%
%TD*%
%TA.AperFunction,ViaPad*%
%ADD28C,0.600000*%
%TD*%
%TA.AperFunction,Conductor*%
%ADD29C,1.000000*%
%TD*%
%TA.AperFunction,Conductor*%
%ADD30C,1.200000*%
%TD*%
%TA.AperFunction,Conductor*%
%ADD31C,0.600000*%
%TD*%
%TA.AperFunction,Conductor*%
%ADD32C,0.800000*%
%TD*%
G04 APERTURE END LIST*
D10*
%TO.P,Q2,1,G*%
%TO.N,Net-(Q2-G)*%
X136080000Y-49865000D03*
D11*
%TO.P,Q2,2,D*%
%TO.N,Net-(Q2-D)*%
X136080000Y-47325000D03*
%TO.P,Q2,3,S*%
%TO.N,BAT+*%
X136080000Y-44785000D03*
%TD*%
D10*
%TO.P,Q1,1,G*%
%TO.N,Net-(Q1-G)*%
X159355000Y-73815000D03*
D11*
%TO.P,Q1,2,D*%
%TO.N,VIN+*%
X159355000Y-71275000D03*
%TO.P,Q1,3,S*%
%TO.N,Net-(Q1-S)*%
X159355000Y-68735000D03*
%TD*%
D12*
%TO.P,C4,1*%
%TO.N,VIN+*%
X142500000Y-80500000D03*
%TO.P,C4,2*%
%TO.N,BAT+*%
X142500000Y-83000000D03*
%TD*%
D13*
%TO.P,R31,1*%
%TO.N,Net-(U2-HYST1)*%
X122351800Y-86944200D03*
D14*
%TO.P,R31,2*%
%TO.N,BAT+*%
X122351800Y-97104200D03*
%TD*%
D13*
%TO.P,R2,1*%
%TO.N,Net-(Q1-G)*%
X143075000Y-88970000D03*
D14*
%TO.P,R2,2*%
%TO.N,Net-(D1-K)*%
X143075000Y-99130000D03*
%TD*%
D13*
%TO.P,R4,1*%
%TO.N,Net-(U6-TS)*%
X135450000Y-101180000D03*
D14*
%TO.P,R4,2*%
%TO.N,BAT-*%
X135450000Y-91020000D03*
%TD*%
D13*
%TO.P,R11,1*%
%TO.N,BAT-*%
X123850400Y-73990200D03*
D14*
%TO.P,R11,2*%
%TO.N,Net-(U2-SET1)*%
X113690400Y-73990200D03*
%TD*%
D15*
%TO.P,J1,1,In*%
%TO.N,RFIO*%
X89408000Y-106172000D03*
%TO.P,J1,2,Ext*%
%TO.N,BAT-*%
X91948000Y-103632000D03*
X86868000Y-103632000D03*
X91948000Y-108712000D03*
X86868000Y-108712000D03*
%TD*%
D12*
%TO.P,C1,1*%
%TO.N,Net-(D1-K)*%
X168375000Y-90300000D03*
%TO.P,C1,2*%
%TO.N,BAT-*%
X168375000Y-92800000D03*
%TD*%
D13*
%TO.P,R3,1*%
%TO.N,Net-(U6-TS)*%
X138450000Y-101180000D03*
D14*
%TO.P,R3,2*%
%TO.N,Net-(D1-K)*%
X138450000Y-91020000D03*
%TD*%
D16*
%TO.P,C6,1*%
%TO.N,Net-(Q2-D)*%
X176469888Y-52425000D03*
D13*
%TO.P,C6,2*%
%TO.N,BAT-*%
X178969888Y-52425000D03*
%TD*%
%TO.P,R1,1*%
%TO.N,Net-(Q2-G)*%
X126339600Y-86944200D03*
D14*
%TO.P,R1,2*%
%TO.N,BAT+*%
X126339600Y-97104200D03*
%TD*%
D17*
%TO.P,J7,1,Pin_1*%
%TO.N,BAT-*%
X151988200Y-47719100D03*
D18*
%TO.P,J7,2,Pin_2*%
%TO.N,BAT+*%
X154488200Y-47719100D03*
%TD*%
D12*
%TO.P,C2,1*%
%TO.N,VIN+*%
X176000000Y-59525000D03*
%TO.P,C2,2*%
%TO.N,BAT-*%
X178500000Y-59525000D03*
%TD*%
D13*
%TO.P,R21,1*%
%TO.N,Net-(U2-SET1)*%
X109495000Y-86950000D03*
D14*
%TO.P,R21,2*%
%TO.N,Net-(U2-HYST1)*%
X119655000Y-86950000D03*
%TD*%
D16*
%TO.P,C3,1*%
%TO.N,VCC*%
X94538800Y-69494400D03*
D13*
%TO.P,C3,2*%
%TO.N,BAT-*%
X97038800Y-69494400D03*
%TD*%
D19*
%TO.P,J4,1,Pin_1*%
%TO.N,VD*%
X173000000Y-87000000D03*
D20*
%TO.P,J4,2,Pin_2*%
%TO.N,BAT-*%
X178000000Y-87000000D03*
%TD*%
D21*
%TO.P,I2C_Sensor_out1,1,Pin_1*%
%TO.N,VCC*%
X172475200Y-71179200D03*
D22*
%TO.P,I2C_Sensor_out1,2,Pin_2*%
%TO.N,BAT-*%
X174975200Y-71179200D03*
%TO.P,I2C_Sensor_out1,3,Pin_3*%
%TO.N,SCL*%
X177475200Y-71179200D03*
%TO.P,I2C_Sensor_out1,4,Pin_4*%
%TO.N,SDA*%
X179975200Y-71179200D03*
%TD*%
D23*
%TO.P,J3,1,Pin_1*%
%TO.N,VCC*%
X74185000Y-78038000D03*
D24*
%TO.P,J3,2,Pin_2*%
%TO.N,SWDIO*%
X74185000Y-80538000D03*
%TO.P,J3,3,Pin_3*%
%TO.N,SWCLK*%
X74185000Y-83038000D03*
%TO.P,J3,4,Pin_4*%
%TO.N,BAT-*%
X74185000Y-85538000D03*
%TD*%
D25*
%TO.P,J2,1,Pin_1*%
%TO.N,VCC*%
X73400000Y-38675000D03*
D26*
%TO.P,J2,2,Pin_2*%
%TO.N,BAT-*%
X73400000Y-41215000D03*
%TO.P,J2,3,Pin_3*%
%TO.N,SCL*%
X73400000Y-43755000D03*
%TO.P,J2,4,Pin_4*%
%TO.N,SDA*%
X73400000Y-46295000D03*
%TO.P,J2,5,Pin_5*%
%TO.N,Net-(J2-Pin_5)*%
X73400000Y-48835000D03*
%TO.P,J2,6,Pin_6*%
%TO.N,unconnected-(J2-Pin_6-Pad6)*%
X73400000Y-51375000D03*
%TO.P,J2,7,Pin_7*%
%TO.N,unconnected-(J2-Pin_7-Pad7)*%
X73400000Y-53915000D03*
%TD*%
D27*
%TO.N,VCC*%
X173500000Y-42800000D03*
D28*
%TO.N,Net-(Q1-G)*%
X158700000Y-85225000D03*
X147955000Y-90297000D03*
D27*
%TO.N,Net-(Q2-D)*%
X165912800Y-52451000D03*
%TD*%
D29*
%TO.N,VCC*%
X173500000Y-41375000D02*
X173500000Y-42800000D01*
X170800000Y-38675000D02*
X173500000Y-41375000D01*
D30*
%TO.N,VIN+*%
X176000000Y-59525000D02*
X164250000Y-71275000D01*
X164250000Y-71275000D02*
X159355000Y-71275000D01*
D31*
%TO.N,Net-(Q1-G)*%
X147955000Y-90297000D02*
X144402000Y-90297000D01*
X144402000Y-90297000D02*
X143075000Y-88970000D01*
D32*
X153644600Y-90297000D02*
X147955000Y-90297000D01*
X158700000Y-85225000D02*
X153644600Y-90280400D01*
X153644600Y-90280400D02*
X153644600Y-90297000D01*
D30*
%TO.N,Net-(Q2-D)*%
X136080000Y-47325000D02*
X142900000Y-47325000D01*
X142900000Y-47325000D02*
X148026000Y-52451000D01*
X148026000Y-52451000D02*
X165912800Y-52451000D01*
D29*
%TO.N,VCC*%
X73400000Y-38675000D02*
X170800000Y-38675000D01*
D30*
%TO.N,SDA*%
X156939000Y-81661000D02*
X153050000Y-85550000D01*
X153050000Y-85550000D02*
X140250000Y-85550000D01*
X179975200Y-75117000D02*
X173431200Y-81661000D01*
X136361000Y-81661000D02*
X113893600Y-81661000D01*
X113893600Y-81661000D02*
X78527600Y-46295000D01*
X179975200Y-71179200D02*
X179975200Y-75117000D01*
X173431200Y-81661000D02*
X156939000Y-81661000D01*
X78527600Y-46295000D02*
X73400000Y-46295000D01*
X140250000Y-85550000D02*
X136361000Y-81661000D01*
%TO.N,SCL*%
X137575400Y-79349600D02*
X139250000Y-77675000D01*
X139250000Y-77675000D02*
X146150000Y-77675000D01*
X115519200Y-79349600D02*
X137575400Y-79349600D01*
X171754800Y-79349600D02*
X177475200Y-73629200D01*
X73400000Y-43755000D02*
X79924600Y-43755000D01*
X147824600Y-79349600D02*
X171754800Y-79349600D01*
X79924600Y-43755000D02*
X115519200Y-79349600D01*
X146150000Y-77675000D02*
X147824600Y-79349600D01*
X177475200Y-73629200D02*
X177475200Y-71179200D01*
%TD*%
%TA.AperFunction,Conductor*%
%TO.N,BAT-*%
G36*
X191841621Y-32720502D02*
G01*
X191888114Y-32774158D01*
X191899500Y-32826500D01*
X191899500Y-51300208D01*
X191899791Y-51300499D01*
X191899793Y-51300500D01*
X191900207Y-51300500D01*
X201473210Y-51300500D01*
X201541331Y-51320502D01*
X201587824Y-51374158D01*
X201599209Y-51426786D01*
X201507071Y-91784009D01*
X201499789Y-94973788D01*
X201479631Y-95041863D01*
X201425869Y-95088233D01*
X201373789Y-95099500D01*
X191899791Y-95099500D01*
X191899500Y-95099791D01*
X191899500Y-113573500D01*
X191879498Y-113641621D01*
X191825842Y-113688114D01*
X191773500Y-113699500D01*
X60426500Y-113699500D01*
X60358379Y-113679498D01*
X60311886Y-113625842D01*
X60300500Y-113573500D01*
X60300500Y-108583482D01*
X85235000Y-108583482D01*
X85235000Y-108840517D01*
X85275210Y-109094399D01*
X85354637Y-109338850D01*
X85354640Y-109338856D01*
X85471333Y-109567878D01*
X85547742Y-109673045D01*
X85547743Y-109673045D01*
X86112227Y-109108560D01*
X86114740Y-109114626D01*
X86207762Y-109253844D01*
X86326156Y-109372238D01*
X86465374Y-109465260D01*
X86471437Y-109467771D01*
X85906953Y-110032255D01*
X85906953Y-110032256D01*
X86012121Y-110108666D01*
X86241143Y-110225359D01*
X86241149Y-110225362D01*
X86485600Y-110304789D01*
X86739482Y-110345000D01*
X86996518Y-110345000D01*
X87250399Y-110304789D01*
X87494850Y-110225362D01*
X87494856Y-110225359D01*
X87723877Y-110108667D01*
X87829046Y-110032256D01*
X87264562Y-109467771D01*
X87270626Y-109465260D01*
X87409844Y-109372238D01*
X87528238Y-109253844D01*
X87621260Y-109114626D01*
X87623771Y-109108561D01*
X88188256Y-109673046D01*
X88264667Y-109567877D01*
X88381359Y-109338856D01*
X88381362Y-109338850D01*
X88460789Y-109094399D01*
X88501000Y-108840517D01*
X88501000Y-108583482D01*
X90315000Y-108583482D01*
X90315000Y-108840517D01*
X90355210Y-109094399D01*
X90434637Y-109338850D01*
X90434640Y-109338856D01*
X90551333Y-109567878D01*
X90627742Y-109673045D01*
X90627743Y-109673045D01*
X91192227Y-109108560D01*
X91194740Y-109114626D01*
X91287762Y-109253844D01*
X91406156Y-109372238D01*
X91545374Y-109465260D01*
X91551437Y-109467771D01*
X90986953Y-110032255D01*
X90986953Y-110032256D01*
X91092121Y-110108666D01*
X91321143Y-110225359D01*
X91321149Y-110225362D01*
X91565600Y-110304789D01*
X91819482Y-110345000D01*
X92076518Y-110345000D01*
X92330399Y-110304789D01*
X92574850Y-110225362D01*
X92574856Y-110225359D01*
X92803877Y-110108667D01*
X92909046Y-110032256D01*
X92344562Y-109467771D01*
X92350626Y-109465260D01*
X92489844Y-109372238D01*
X92608238Y-109253844D01*
X92701260Y-109114626D01*
X92703771Y-109108561D01*
X93268256Y-109673046D01*
X93344667Y-109567877D01*
X93461359Y-109338856D01*
X93461362Y-109338850D01*
X93540789Y-109094399D01*
X93581000Y-108840517D01*
X93581000Y-108583482D01*
X93540789Y-108329600D01*
X93461362Y-108085149D01*
X93461359Y-108085143D01*
X93344666Y-107856121D01*
X93268256Y-107750953D01*
X93268255Y-107750953D01*
X92703771Y-108315437D01*
X92701260Y-108309374D01*
X92608238Y-108170156D01*
X92489844Y-108051762D01*
X92350626Y-107958740D01*
X92344561Y-107956227D01*
X92909045Y-107391743D01*
X92909045Y-107391742D01*
X92803878Y-107315333D01*
X92574856Y-107198640D01*
X92574850Y-107198637D01*
X92330399Y-107119210D01*
X92076518Y-107079000D01*
X91819482Y-107079000D01*
X91565600Y-107119210D01*
X91321149Y-107198637D01*
X91321143Y-107198640D01*
X91092117Y-107315335D01*
X90986953Y-107391741D01*
X90986953Y-107391743D01*
X91551438Y-107956228D01*
X91545374Y-107958740D01*
X91406156Y-108051762D01*
X91287762Y-108170156D01*
X91194740Y-108309374D01*
X91192228Y-108315438D01*
X90627743Y-107750953D01*
X90627741Y-107750953D01*
X90551335Y-107856117D01*
X90434640Y-108085143D01*
X90434637Y-108085149D01*
X90355210Y-108329600D01*
X90315000Y-108583482D01*
X88501000Y-108583482D01*
X88460789Y-108329600D01*
X88381362Y-108085149D01*
X88381359Y-108085143D01*
X88264666Y-107856121D01*
X88188256Y-107750953D01*
X88188255Y-107750953D01*
X87623771Y-108315437D01*
X87621260Y-108309374D01*
X87528238Y-108170156D01*
X87409844Y-108051762D01*
X87270626Y-107958740D01*
X87264561Y-107956227D01*
X87829045Y-107391743D01*
X87829045Y-107391742D01*
X87723878Y-107315333D01*
X87494856Y-107198640D01*
X87494850Y-107198637D01*
X87250399Y-107119210D01*
X86996518Y-107079000D01*
X86739482Y-107079000D01*
X86485600Y-107119210D01*
X86241149Y-107198637D01*
X86241143Y-107198640D01*
X86012117Y-107315335D01*
X85906953Y-107391741D01*
X85906953Y-107391743D01*
X86471438Y-107956228D01*
X86465374Y-107958740D01*
X86326156Y-108051762D01*
X86207762Y-108170156D01*
X86114740Y-108309374D01*
X86112228Y-108315438D01*
X85547743Y-107750953D01*
X85547741Y-107750953D01*
X85471335Y-107856117D01*
X85354640Y-108085143D01*
X85354637Y-108085149D01*
X85275210Y-108329600D01*
X85235000Y-108583482D01*
X60300500Y-108583482D01*
X60300500Y-106043441D01*
X87774500Y-106043441D01*
X87774500Y-106300559D01*
X87814722Y-106554512D01*
X87814723Y-106554517D01*
X87894174Y-106799041D01*
X87894176Y-106799046D01*
X88010906Y-107028141D01*
X88162036Y-107236154D01*
X88162038Y-107236156D01*
X88162040Y-107236159D01*
X88343840Y-107417959D01*
X88343843Y-107417961D01*
X88343846Y-107417964D01*
X88551859Y-107569094D01*
X88780954Y-107685824D01*
X89025488Y-107765278D01*
X89279441Y-107805500D01*
X89279444Y-107805500D01*
X89536556Y-107805500D01*
X89536559Y-107805500D01*
X89790512Y-107765278D01*
X90035046Y-107685824D01*
X90264141Y-107569094D01*
X90472154Y-107417964D01*
X90498377Y-107391741D01*
X90539450Y-107350669D01*
X90653959Y-107236159D01*
X90653964Y-107236154D01*
X90805094Y-107028141D01*
X90921824Y-106799046D01*
X91001278Y-106554512D01*
X91041500Y-106300559D01*
X91041500Y-106043441D01*
X91001278Y-105789488D01*
X90921824Y-105544954D01*
X90805094Y-105315859D01*
X90653964Y-105107846D01*
X90653961Y-105107843D01*
X90653959Y-105107840D01*
X90472159Y-104926040D01*
X90472156Y-104926038D01*
X90472154Y-104926036D01*
X90264141Y-104774906D01*
X90035046Y-104658176D01*
X90035043Y-104658175D01*
X90035041Y-104658174D01*
X89790517Y-104578723D01*
X89790513Y-104578722D01*
X89790512Y-104578722D01*
X89536559Y-104538500D01*
X89279441Y-104538500D01*
X89025488Y-104578722D01*
X89025482Y-104578723D01*
X88780958Y-104658174D01*
X88780952Y-104658177D01*
X88551855Y-104774908D01*
X88343843Y-104926038D01*
X88343840Y-104926040D01*
X88162040Y-105107840D01*
X88162038Y-105107843D01*
X88010908Y-105315855D01*
X87894177Y-105544952D01*
X87894174Y-105544958D01*
X87814723Y-105789482D01*
X87814722Y-105789487D01*
X87814722Y-105789488D01*
X87774500Y-106043441D01*
X60300500Y-106043441D01*
X60300500Y-103503482D01*
X85235000Y-103503482D01*
X85235000Y-103760517D01*
X85275210Y-104014399D01*
X85354637Y-104258850D01*
X85354640Y-104258856D01*
X85471333Y-104487878D01*
X85547742Y-104593045D01*
X85547743Y-104593045D01*
X86112227Y-104028560D01*
X86114740Y-104034626D01*
X86207762Y-104173844D01*
X86326156Y-104292238D01*
X86465374Y-104385260D01*
X86471437Y-104387771D01*
X85906953Y-104952255D01*
X85906953Y-104952256D01*
X86012121Y-105028666D01*
X86241143Y-105145359D01*
X86241149Y-105145362D01*
X86485600Y-105224789D01*
X86739482Y-105265000D01*
X86996518Y-105265000D01*
X87250399Y-105224789D01*
X87494850Y-105145362D01*
X87494856Y-105145359D01*
X87723877Y-105028667D01*
X87829046Y-104952256D01*
X87264562Y-104387771D01*
X87270626Y-104385260D01*
X87409844Y-104292238D01*
X87528238Y-104173844D01*
X87621260Y-104034626D01*
X87623771Y-104028561D01*
X88188256Y-104593046D01*
X88264667Y-104487877D01*
X88381359Y-104258856D01*
X88381362Y-104258850D01*
X88460789Y-104014399D01*
X88501000Y-103760517D01*
X88501000Y-103503482D01*
X90315000Y-103503482D01*
X90315000Y-103760517D01*
X90355210Y-104014399D01*
X90434637Y-104258850D01*
X90434640Y-104258856D01*
X90551333Y-104487878D01*
X90627742Y-104593045D01*
X90627743Y-104593045D01*
X91192227Y-104028560D01*
X91194740Y-104034626D01*
X91287762Y-104173844D01*
X91406156Y-104292238D01*
X91545374Y-104385260D01*
X91551437Y-104387771D01*
X90986953Y-104952255D01*
X90986953Y-104952256D01*
X91092121Y-105028666D01*
X91321143Y-105145359D01*
X91321149Y-105145362D01*
X91565600Y-105224789D01*
X91819482Y-105265000D01*
X92076518Y-105265000D01*
X92330399Y-105224789D01*
X92574850Y-105145362D01*
X92574856Y-105145359D01*
X92803877Y-105028667D01*
X92909046Y-104952256D01*
X92344562Y-104387771D01*
X92350626Y-104385260D01*
X92489844Y-104292238D01*
X92608238Y-104173844D01*
X92701260Y-104034626D01*
X92703771Y-104028561D01*
X93268256Y-104593046D01*
X93344667Y-104487877D01*
X93461359Y-104258856D01*
X93461362Y-104258850D01*
X93540789Y-104014399D01*
X93581000Y-103760517D01*
X93581000Y-103503482D01*
X93540789Y-103249600D01*
X93461362Y-103005149D01*
X93461359Y-103005143D01*
X93344666Y-102776121D01*
X93268256Y-102670953D01*
X93268255Y-102670953D01*
X92703771Y-103235437D01*
X92701260Y-103229374D01*
X92608238Y-103090156D01*
X92489844Y-102971762D01*
X92350626Y-102878740D01*
X92344561Y-102876227D01*
X92909045Y-102311743D01*
X92909045Y-102311742D01*
X92803878Y-102235333D01*
X92574856Y-102118640D01*
X92574850Y-102118637D01*
X92330399Y-102039210D01*
X92076518Y-101999000D01*
X91819482Y-101999000D01*
X91565600Y-102039210D01*
X91321149Y-102118637D01*
X91321143Y-102118640D01*
X91092117Y-102235335D01*
X90986953Y-102311741D01*
X90986953Y-102311743D01*
X91551438Y-102876228D01*
X91545374Y-102878740D01*
X91406156Y-102971762D01*
X91287762Y-103090156D01*
X91194740Y-103229374D01*
X91192228Y-103235438D01*
X90627743Y-102670953D01*
X90627741Y-102670953D01*
X90551335Y-102776117D01*
X90434640Y-103005143D01*
X90434637Y-103005149D01*
X90355210Y-103249600D01*
X90315000Y-103503482D01*
X88501000Y-103503482D01*
X88460789Y-103249600D01*
X88381362Y-103005149D01*
X88381359Y-103005143D01*
X88264666Y-102776121D01*
X88188256Y-102670953D01*
X88188255Y-102670953D01*
X87623771Y-103235437D01*
X87621260Y-103229374D01*
X87528238Y-103090156D01*
X87409844Y-102971762D01*
X87270626Y-102878740D01*
X87264561Y-102876227D01*
X87829045Y-102311743D01*
X87829045Y-102311742D01*
X87723878Y-102235333D01*
X87494856Y-102118640D01*
X87494850Y-102118637D01*
X87250399Y-102039210D01*
X86996518Y-101999000D01*
X86739482Y-101999000D01*
X86485600Y-102039210D01*
X86241149Y-102118637D01*
X86241143Y-102118640D01*
X86012117Y-102235335D01*
X85906953Y-102311741D01*
X85906953Y-102311743D01*
X86471438Y-102876228D01*
X86465374Y-102878740D01*
X86326156Y-102971762D01*
X86207762Y-103090156D01*
X86114740Y-103229374D01*
X86112228Y-103235438D01*
X85547743Y-102670953D01*
X85547741Y-102670953D01*
X85471335Y-102776117D01*
X85354640Y-103005143D01*
X85354637Y-103005149D01*
X85275210Y-103249600D01*
X85235000Y-103503482D01*
X60300500Y-103503482D01*
X60300500Y-101077019D01*
X134141500Y-101077019D01*
X134141500Y-101282981D01*
X134173720Y-101486408D01*
X134237366Y-101682290D01*
X134330871Y-101865803D01*
X134451932Y-102032430D01*
X134451934Y-102032432D01*
X134451936Y-102032435D01*
X134597564Y-102178063D01*
X134597567Y-102178065D01*
X134597570Y-102178068D01*
X134764197Y-102299129D01*
X134947710Y-102392634D01*
X135143592Y-102456280D01*
X135347019Y-102488500D01*
X135347022Y-102488500D01*
X135552978Y-102488500D01*
X135552981Y-102488500D01*
X135756408Y-102456280D01*
X135952290Y-102392634D01*
X136135803Y-102299129D01*
X136302430Y-102178068D01*
X136448068Y-102032430D01*
X136569129Y-101865803D01*
X136662634Y-101682290D01*
X136726280Y-101486408D01*
X136758500Y-101282981D01*
X136758500Y-101077019D01*
X137141500Y-101077019D01*
X137141500Y-101282981D01*
X137173720Y-101486408D01*
X137237366Y-101682290D01*
X137330871Y-101865803D01*
X137451932Y-102032430D01*
X137451934Y-102032432D01*
X137451936Y-102032435D01*
X137597564Y-102178063D01*
X137597567Y-102178065D01*
X137597570Y-102178068D01*
X137764197Y-102299129D01*
X137947710Y-102392634D01*
X138143592Y-102456280D01*
X138347019Y-102488500D01*
X138347022Y-102488500D01*
X138552978Y-102488500D01*
X138552981Y-102488500D01*
X138756408Y-102456280D01*
X138952290Y-102392634D01*
X139135803Y-102299129D01*
X139302430Y-102178068D01*
X139448068Y-102032430D01*
X139569129Y-101865803D01*
X139662634Y-101682290D01*
X139726280Y-101486408D01*
X139758500Y-101282981D01*
X139758500Y-101077019D01*
X139726280Y-100873592D01*
X139662634Y-100677710D01*
X139569129Y-100494197D01*
X139448068Y-100327570D01*
X139448065Y-100327567D01*
X139448063Y-100327564D01*
X139302435Y-100181936D01*
X139302432Y-100181934D01*
X139302430Y-100181932D01*
X139135803Y-100060871D01*
X138952290Y-99967366D01*
X138952287Y-99967365D01*
X138952285Y-99967364D01*
X138756412Y-99903721D01*
X138756410Y-99903720D01*
X138756408Y-99903720D01*
X138552981Y-99871500D01*
X138347019Y-99871500D01*
X138143592Y-99903720D01*
X138143590Y-99903720D01*
X138143587Y-99903721D01*
X137947714Y-99967364D01*
X137947708Y-99967367D01*
X137764193Y-100060873D01*
X137597567Y-100181934D01*
X137597564Y-100181936D01*
X137451936Y-100327564D01*
X137451934Y-100327567D01*
X137330873Y-100494193D01*
X137237367Y-100677708D01*
X137237364Y-100677714D01*
X137173721Y-100873587D01*
X137173720Y-100873590D01*
X137173720Y-100873592D01*
X137141500Y-101077019D01*
X136758500Y-101077019D01*
X136726280Y-100873592D01*
X136662634Y-100677710D01*
X136569129Y-100494197D01*
X136448068Y-100327570D01*
X136448065Y-100327567D01*
X136448063Y-100327564D01*
X136302435Y-100181936D01*
X136302432Y-100181934D01*
X136302430Y-100181932D01*
X136135803Y-100060871D01*
X135952290Y-99967366D01*
X135952287Y-99967365D01*
X135952285Y-99967364D01*
X135756412Y-99903721D01*
X135756410Y-99903720D01*
X135756408Y-99903720D01*
X135552981Y-99871500D01*
X135347019Y-99871500D01*
X135143592Y-99903720D01*
X135143590Y-99903720D01*
X135143587Y-99903721D01*
X134947714Y-99967364D01*
X134947708Y-99967367D01*
X134764193Y-100060873D01*
X134597567Y-100181934D01*
X134597564Y-100181936D01*
X134451936Y-100327564D01*
X134451934Y-100327567D01*
X134330873Y-100494193D01*
X134237367Y-100677708D01*
X134237364Y-100677714D01*
X134173721Y-100873587D01*
X134173720Y-100873590D01*
X134173720Y-100873592D01*
X134141500Y-101077019D01*
X60300500Y-101077019D01*
X60300500Y-99027019D01*
X141766500Y-99027019D01*
X141766500Y-99232981D01*
X141798720Y-99436408D01*
X141862366Y-99632290D01*
X141955871Y-99815803D01*
X142076932Y-99982430D01*
X142076934Y-99982432D01*
X142076936Y-99982435D01*
X142222564Y-100128063D01*
X142222567Y-100128065D01*
X142222570Y-100128068D01*
X142389197Y-100249129D01*
X142572710Y-100342634D01*
X142768592Y-100406280D01*
X142972019Y-100438500D01*
X142972022Y-100438500D01*
X143177978Y-100438500D01*
X143177981Y-100438500D01*
X143381408Y-100406280D01*
X143577290Y-100342634D01*
X143760803Y-100249129D01*
X143927430Y-100128068D01*
X144073068Y-99982430D01*
X144194129Y-99815803D01*
X144287634Y-99632290D01*
X144351280Y-99436408D01*
X144383500Y-99232981D01*
X144383500Y-99027019D01*
X144351280Y-98823592D01*
X144287634Y-98627710D01*
X144194129Y-98444197D01*
X144073068Y-98277570D01*
X144073065Y-98277567D01*
X144073063Y-98277564D01*
X143927435Y-98131936D01*
X143927432Y-98131934D01*
X143927430Y-98131932D01*
X143760803Y-98010871D01*
X143577290Y-97917366D01*
X143577287Y-97917365D01*
X143577285Y-97917364D01*
X143381412Y-97853721D01*
X143381410Y-97853720D01*
X143381408Y-97853720D01*
X143177981Y-97821500D01*
X142972019Y-97821500D01*
X142768592Y-97853720D01*
X142768590Y-97853720D01*
X142768587Y-97853721D01*
X142572714Y-97917364D01*
X142572708Y-97917367D01*
X142389193Y-98010873D01*
X142222567Y-98131934D01*
X142222564Y-98131936D01*
X142076936Y-98277564D01*
X142076934Y-98277567D01*
X141955873Y-98444193D01*
X141862367Y-98627708D01*
X141862364Y-98627714D01*
X141798721Y-98823587D01*
X141798720Y-98823590D01*
X141798720Y-98823592D01*
X141766500Y-99027019D01*
X60300500Y-99027019D01*
X60300500Y-97001219D01*
X121043300Y-97001219D01*
X121043300Y-97207181D01*
X121075520Y-97410608D01*
X121139166Y-97606490D01*
X121232671Y-97790003D01*
X121353732Y-97956630D01*
X121353734Y-97956632D01*
X121353736Y-97956635D01*
X121499364Y-98102263D01*
X121499367Y-98102265D01*
X121499370Y-98102268D01*
X121665997Y-98223329D01*
X121849510Y-98316834D01*
X122045392Y-98380480D01*
X122248819Y-98412700D01*
X122248822Y-98412700D01*
X122454778Y-98412700D01*
X122454781Y-98412700D01*
X122658208Y-98380480D01*
X122854090Y-98316834D01*
X123037603Y-98223329D01*
X123204230Y-98102268D01*
X123349868Y-97956630D01*
X123470929Y-97790003D01*
X123564434Y-97606490D01*
X123628080Y-97410608D01*
X123660300Y-97207181D01*
X123660300Y-97001219D01*
X125031100Y-97001219D01*
X125031100Y-97207181D01*
X125063320Y-97410608D01*
X125126966Y-97606490D01*
X125220471Y-97790003D01*
X125341532Y-97956630D01*
X125341534Y-97956632D01*
X125341536Y-97956635D01*
X125487164Y-98102263D01*
X125487167Y-98102265D01*
X125487170Y-98102268D01*
X125653797Y-98223329D01*
X125837310Y-98316834D01*
X126033192Y-98380480D01*
X126236619Y-98412700D01*
X126236622Y-98412700D01*
X126442578Y-98412700D01*
X126442581Y-98412700D01*
X126646008Y-98380480D01*
X126841890Y-98316834D01*
X127025403Y-98223329D01*
X127192030Y-98102268D01*
X127337668Y-97956630D01*
X127458729Y-97790003D01*
X127552234Y-97606490D01*
X127615880Y-97410608D01*
X127648100Y-97207181D01*
X127648100Y-97001219D01*
X127615880Y-96797792D01*
X127552234Y-96601910D01*
X127458729Y-96418397D01*
X127337668Y-96251770D01*
X127337665Y-96251767D01*
X127337663Y-96251764D01*
X127192035Y-96106136D01*
X127192032Y-96106134D01*
X127192030Y-96106132D01*
X127025403Y-95985071D01*
X126841890Y-95891566D01*
X126841887Y-95891565D01*
X126841885Y-95891564D01*
X126646012Y-95827921D01*
X126646010Y-95827920D01*
X126646008Y-95827920D01*
X126442581Y-95795700D01*
X126236619Y-95795700D01*
X126033192Y-95827920D01*
X126033190Y-95827920D01*
X126033187Y-95827921D01*
X125837314Y-95891564D01*
X125837308Y-95891567D01*
X125653793Y-95985073D01*
X125487167Y-96106134D01*
X125487164Y-96106136D01*
X125341536Y-96251764D01*
X125341534Y-96251767D01*
X125220473Y-96418393D01*
X125126967Y-96601908D01*
X125126964Y-96601914D01*
X125063321Y-96797787D01*
X125063320Y-96797790D01*
X125063320Y-96797792D01*
X125031100Y-97001219D01*
X123660300Y-97001219D01*
X123628080Y-96797792D01*
X123564434Y-96601910D01*
X123470929Y-96418397D01*
X123349868Y-96251770D01*
X123349865Y-96251767D01*
X123349863Y-96251764D01*
X123204235Y-96106136D01*
X123204232Y-96106134D01*
X123204230Y-96106132D01*
X123037603Y-95985071D01*
X122854090Y-95891566D01*
X122854087Y-95891565D01*
X122854085Y-95891564D01*
X122658212Y-95827921D01*
X122658210Y-95827920D01*
X122658208Y-95827920D01*
X122454781Y-95795700D01*
X122248819Y-95795700D01*
X122045392Y-95827920D01*
X122045390Y-95827920D01*
X122045387Y-95827921D01*
X121849514Y-95891564D01*
X121849508Y-95891567D01*
X121665993Y-95985073D01*
X121499367Y-96106134D01*
X121499364Y-96106136D01*
X121353736Y-96251764D01*
X121353734Y-96251767D01*
X121232673Y-96418393D01*
X121139167Y-96601908D01*
X121139164Y-96601914D01*
X121075521Y-96797787D01*
X121075520Y-96797790D01*
X121075520Y-96797792D01*
X121043300Y-97001219D01*
X60300500Y-97001219D01*
X60300500Y-95099793D01*
X60300499Y-95099791D01*
X60300208Y-95099500D01*
X60300207Y-95099500D01*
X50726500Y-95099500D01*
X50658379Y-95079498D01*
X50611886Y-95025842D01*
X50600500Y-94973500D01*
X50600500Y-93815990D01*
X167718219Y-93815990D01*
X167741866Y-93833171D01*
X167741868Y-93833172D01*
X167911290Y-93919497D01*
X168092122Y-93978253D01*
X168279931Y-94008000D01*
X168470069Y-94008000D01*
X168657877Y-93978253D01*
X168838712Y-93919496D01*
X169008121Y-93833178D01*
X169008134Y-93833170D01*
X169031779Y-93815990D01*
X169031779Y-93815988D01*
X168375001Y-93159210D01*
X168375000Y-93159210D01*
X167718219Y-93815990D01*
X50600500Y-93815990D01*
X50600500Y-92704931D01*
X167167000Y-92704931D01*
X167167000Y-92895068D01*
X167196746Y-93082877D01*
X167255502Y-93263709D01*
X167341828Y-93433134D01*
X167359008Y-93456779D01*
X167359009Y-93456779D01*
X168015790Y-92799999D01*
X167969713Y-92753922D01*
X168025000Y-92753922D01*
X168025000Y-92846078D01*
X168048852Y-92935095D01*
X168094930Y-93014905D01*
X168160095Y-93080070D01*
X168239905Y-93126148D01*
X168328922Y-93150000D01*
X168421078Y-93150000D01*
X168510095Y-93126148D01*
X168589905Y-93080070D01*
X168655070Y-93014905D01*
X168701148Y-92935095D01*
X168725000Y-92846078D01*
X168725000Y-92799999D01*
X168734210Y-92799999D01*
X168734210Y-92800001D01*
X169390988Y-93456779D01*
X169390990Y-93456779D01*
X169408170Y-93433134D01*
X169408178Y-93433121D01*
X169494496Y-93263712D01*
X169553253Y-93082877D01*
X169583000Y-92895068D01*
X169583000Y-92704931D01*
X169553253Y-92517122D01*
X169494497Y-92336290D01*
X169408172Y-92166868D01*
X169408171Y-92166866D01*
X169390990Y-92143219D01*
X168734210Y-92799999D01*
X168725000Y-92799999D01*
X168725000Y-92753922D01*
X168701148Y-92664905D01*
X168655070Y-92585095D01*
X168589905Y-92519930D01*
X168510095Y-92473852D01*
X168421078Y-92450000D01*
X168328922Y-92450000D01*
X168239905Y-92473852D01*
X168160095Y-92519930D01*
X168094930Y-92585095D01*
X168048852Y-92664905D01*
X168025000Y-92753922D01*
X167969713Y-92753922D01*
X167359010Y-92143219D01*
X167359008Y-92143219D01*
X167341824Y-92166871D01*
X167255503Y-92336287D01*
X167196746Y-92517122D01*
X167167000Y-92704931D01*
X50600500Y-92704931D01*
X50600500Y-90766000D01*
X134165926Y-90766000D01*
X135138314Y-90766000D01*
X135129920Y-90774394D01*
X135077259Y-90865606D01*
X135050000Y-90967339D01*
X135050000Y-91072661D01*
X135077259Y-91174394D01*
X135129920Y-91265606D01*
X135138314Y-91274000D01*
X134165926Y-91274000D01*
X134174208Y-91326295D01*
X134237826Y-91522093D01*
X134237829Y-91522099D01*
X134331300Y-91705545D01*
X134452315Y-91872107D01*
X134452317Y-91872110D01*
X134597889Y-92017682D01*
X134597892Y-92017684D01*
X134764454Y-92138699D01*
X134947900Y-92232170D01*
X134947906Y-92232173D01*
X135143705Y-92295791D01*
X135143717Y-92295794D01*
X135195999Y-92304074D01*
X135196000Y-92304074D01*
X135196000Y-91331686D01*
X135204394Y-91340080D01*
X135295606Y-91392741D01*
X135397339Y-91420000D01*
X135502661Y-91420000D01*
X135604394Y-91392741D01*
X135695606Y-91340080D01*
X135704000Y-91331686D01*
X135704000Y-92304074D01*
X135756282Y-92295794D01*
X135756294Y-92295791D01*
X135952093Y-92232173D01*
X135952099Y-92232170D01*
X136135545Y-92138699D01*
X136302107Y-92017684D01*
X136302110Y-92017682D01*
X136447682Y-91872110D01*
X136447684Y-91872107D01*
X136568699Y-91705545D01*
X136662170Y-91522099D01*
X136662173Y-91522093D01*
X136725791Y-91326295D01*
X136734074Y-91274000D01*
X135761686Y-91274000D01*
X135770080Y-91265606D01*
X135822741Y-91174394D01*
X135850000Y-91072661D01*
X135850000Y-90967339D01*
X135836517Y-90917019D01*
X137141500Y-90917019D01*
X137141500Y-91122981D01*
X137173702Y-91326295D01*
X137173721Y-91326412D01*
X137223216Y-91478743D01*
X137237366Y-91522290D01*
X137330871Y-91705803D01*
X137451932Y-91872430D01*
X137451934Y-91872432D01*
X137451936Y-91872435D01*
X137597564Y-92018063D01*
X137597567Y-92018065D01*
X137597570Y-92018068D01*
X137764197Y-92139129D01*
X137947710Y-92232634D01*
X138143592Y-92296280D01*
X138347019Y-92328500D01*
X138347022Y-92328500D01*
X138552978Y-92328500D01*
X138552981Y-92328500D01*
X138756408Y-92296280D01*
X138952290Y-92232634D01*
X139135803Y-92139129D01*
X139302430Y-92018068D01*
X139448068Y-91872430D01*
X139569129Y-91705803D01*
X139662634Y-91522290D01*
X139726280Y-91326408D01*
X139758500Y-91122981D01*
X139758500Y-90917019D01*
X139726280Y-90713592D01*
X139662634Y-90517710D01*
X139569129Y-90334197D01*
X139448068Y-90167570D01*
X139448065Y-90167567D01*
X139448063Y-90167564D01*
X139302435Y-90021936D01*
X139302432Y-90021934D01*
X139302430Y-90021932D01*
X139176999Y-89930802D01*
X139135806Y-89900873D01*
X139135805Y-89900872D01*
X139135803Y-89900871D01*
X138952290Y-89807366D01*
X138952287Y-89807365D01*
X138952285Y-89807364D01*
X138756412Y-89743721D01*
X138756410Y-89743720D01*
X138756408Y-89743720D01*
X138552981Y-89711500D01*
X138347019Y-89711500D01*
X138143592Y-89743720D01*
X138143590Y-89743720D01*
X138143587Y-89743721D01*
X137947714Y-89807364D01*
X137947708Y-89807367D01*
X137764193Y-89900873D01*
X137597567Y-90021934D01*
X137597564Y-90021936D01*
X137451936Y-90167564D01*
X137451934Y-90167567D01*
X137330873Y-90334193D01*
X137237367Y-90517708D01*
X137237364Y-90517714D01*
X137173721Y-90713587D01*
X137173720Y-90713590D01*
X137173720Y-90713592D01*
X137141500Y-90917019D01*
X135836517Y-90917019D01*
X135822741Y-90865606D01*
X135770080Y-90774394D01*
X135761686Y-90766000D01*
X136734074Y-90766000D01*
X136725791Y-90713704D01*
X136662173Y-90517906D01*
X136662170Y-90517900D01*
X136568699Y-90334454D01*
X136447684Y-90167892D01*
X136447682Y-90167889D01*
X136302110Y-90022317D01*
X136302107Y-90022315D01*
X136135545Y-89901300D01*
X135952099Y-89807829D01*
X135952093Y-89807826D01*
X135756294Y-89744208D01*
X135756296Y-89744208D01*
X135704000Y-89735925D01*
X135704000Y-90708314D01*
X135695606Y-90699920D01*
X135604394Y-90647259D01*
X135502661Y-90620000D01*
X135397339Y-90620000D01*
X135295606Y-90647259D01*
X135204394Y-90699920D01*
X135196000Y-90708314D01*
X135196000Y-89735925D01*
X135143704Y-89744208D01*
X134947906Y-89807826D01*
X134947900Y-89807829D01*
X134764454Y-89901300D01*
X134597892Y-90022315D01*
X134597889Y-90022317D01*
X134452317Y-90167889D01*
X134452315Y-90167892D01*
X134331300Y-90334454D01*
X134237829Y-90517900D01*
X134237826Y-90517906D01*
X134174208Y-90713704D01*
X134165926Y-90766000D01*
X50600500Y-90766000D01*
X50600500Y-88867019D01*
X141766500Y-88867019D01*
X141766500Y-89072981D01*
X141783457Y-89180040D01*
X141798721Y-89276412D01*
X141855641Y-89451595D01*
X141862366Y-89472290D01*
X141955871Y-89655803D01*
X142076932Y-89822430D01*
X142076934Y-89822432D01*
X142076936Y-89822435D01*
X142222564Y-89968063D01*
X142222567Y-89968065D01*
X142222570Y-89968068D01*
X142389197Y-90089129D01*
X142572710Y-90182634D01*
X142768592Y-90246280D01*
X142972019Y-90278500D01*
X142972022Y-90278500D01*
X143182932Y-90278500D01*
X143182932Y-90279632D01*
X143247140Y-90293116D01*
X143276648Y-90315040D01*
X143769591Y-90807982D01*
X143769612Y-90808005D01*
X143886606Y-90924999D01*
X143886610Y-90925002D01*
X143886611Y-90925003D01*
X143949227Y-90966841D01*
X144019031Y-91013483D01*
X144062127Y-91031333D01*
X144166169Y-91074430D01*
X144322370Y-91105500D01*
X144481630Y-91105500D01*
X147507804Y-91105500D01*
X147556020Y-91115090D01*
X147690000Y-91170587D01*
X147865521Y-91205500D01*
X147865522Y-91205500D01*
X153734078Y-91205500D01*
X153734079Y-91205500D01*
X153909600Y-91170587D01*
X154074936Y-91102102D01*
X154223735Y-91002678D01*
X154350278Y-90876135D01*
X154376810Y-90836425D01*
X154392476Y-90817335D01*
X155004922Y-90204889D01*
X167166500Y-90204889D01*
X167166500Y-90395111D01*
X167196257Y-90582991D01*
X167255039Y-90763903D01*
X167337124Y-90925003D01*
X167341400Y-90933395D01*
X167453209Y-91087287D01*
X167587712Y-91221790D01*
X167587715Y-91221792D01*
X167741608Y-91333602D01*
X167911097Y-91419961D01*
X167943318Y-91430430D01*
X168001924Y-91470504D01*
X168029560Y-91535901D01*
X168017453Y-91605858D01*
X167969446Y-91658164D01*
X167943318Y-91670096D01*
X167911287Y-91680503D01*
X167741871Y-91766824D01*
X167718219Y-91784008D01*
X167718219Y-91784010D01*
X168374999Y-92440790D01*
X168375000Y-92440790D01*
X169031779Y-91784009D01*
X169031779Y-91784008D01*
X169008134Y-91766828D01*
X168838707Y-91680501D01*
X168806682Y-91670096D01*
X168748076Y-91630022D01*
X168720439Y-91564626D01*
X168732546Y-91494669D01*
X168780552Y-91442363D01*
X168806680Y-91430430D01*
X168838903Y-91419961D01*
X169008392Y-91333602D01*
X169162285Y-91221792D01*
X169296792Y-91087285D01*
X169408602Y-90933392D01*
X169494961Y-90763903D01*
X169553743Y-90582991D01*
X169583500Y-90395111D01*
X169583500Y-90204889D01*
X169553743Y-90017009D01*
X169494961Y-89836097D01*
X169408602Y-89666608D01*
X169296792Y-89512715D01*
X169296790Y-89512712D01*
X169162287Y-89378209D01*
X169008395Y-89266400D01*
X169008394Y-89266399D01*
X169008392Y-89266398D01*
X168838903Y-89180039D01*
X168657991Y-89121257D01*
X168470111Y-89091500D01*
X168279889Y-89091500D01*
X168092009Y-89121257D01*
X168092006Y-89121257D01*
X168092005Y-89121258D01*
X167911097Y-89180039D01*
X167911095Y-89180040D01*
X167741604Y-89266400D01*
X167587712Y-89378209D01*
X167453209Y-89512712D01*
X167341400Y-89666604D01*
X167255040Y-89836095D01*
X167255039Y-89836097D01*
X167212161Y-89968063D01*
X167196257Y-90017009D01*
X167166500Y-90204889D01*
X155004922Y-90204889D01*
X159405678Y-85804135D01*
X159474357Y-85701350D01*
X171241500Y-85701350D01*
X171241500Y-88298649D01*
X171248009Y-88359196D01*
X171248011Y-88359204D01*
X171299110Y-88496202D01*
X171299112Y-88496207D01*
X171386738Y-88613261D01*
X171503792Y-88700887D01*
X171503794Y-88700888D01*
X171503796Y-88700889D01*
X171562875Y-88722924D01*
X171640795Y-88751988D01*
X171640803Y-88751990D01*
X171701350Y-88758499D01*
X171701355Y-88758499D01*
X171701362Y-88758500D01*
X171701368Y-88758500D01*
X174298632Y-88758500D01*
X174298638Y-88758500D01*
X174298645Y-88758499D01*
X174298649Y-88758499D01*
X174359196Y-88751990D01*
X174359199Y-88751989D01*
X174359201Y-88751989D01*
X174496204Y-88700889D01*
X174539773Y-88668274D01*
X174613261Y-88613261D01*
X174700887Y-88496207D01*
X174700887Y-88496206D01*
X174700889Y-88496204D01*
X174751989Y-88359201D01*
X174758500Y-88298638D01*
X174758500Y-86884772D01*
X176242000Y-86884772D01*
X176242000Y-87115227D01*
X176272078Y-87343698D01*
X176331724Y-87566298D01*
X176331725Y-87566302D01*
X176419916Y-87779213D01*
X176419921Y-87779224D01*
X176535137Y-87978784D01*
X176535142Y-87978791D01*
X176590220Y-88050569D01*
X177397301Y-87243488D01*
X177423978Y-87307890D01*
X177495112Y-87414351D01*
X177585649Y-87504888D01*
X177692110Y-87576022D01*
X177756510Y-87602698D01*
X176949429Y-88409778D01*
X176949429Y-88409779D01*
X177021209Y-88464857D01*
X177021215Y-88464862D01*
X177220775Y-88580078D01*
X177220786Y-88580083D01*
X177433697Y-88668274D01*
X177433701Y-88668275D01*
X177656301Y-88727921D01*
X177884772Y-88757999D01*
X177884782Y-88758000D01*
X178115218Y-88758000D01*
X178115227Y-88757999D01*
X178343698Y-88727921D01*
X178566298Y-88668275D01*
X178566302Y-88668274D01*
X178779213Y-88580083D01*
X178779224Y-88580078D01*
X178978784Y-88464862D01*
X178978792Y-88464856D01*
X179050569Y-88409778D01*
X178243489Y-87602698D01*
X178307890Y-87576022D01*
X178414351Y-87504888D01*
X178504888Y-87414351D01*
X178576022Y-87307890D01*
X178602698Y-87243489D01*
X179409778Y-88050569D01*
X179464856Y-87978792D01*
X179464862Y-87978784D01*
X179580078Y-87779224D01*
X179580083Y-87779213D01*
X179668274Y-87566302D01*
X179668275Y-87566298D01*
X179727921Y-87343698D01*
X179757999Y-87115227D01*
X179758000Y-87115218D01*
X179758000Y-86884782D01*
X179757999Y-86884772D01*
X179727921Y-86656301D01*
X179668275Y-86433701D01*
X179668274Y-86433697D01*
X179580083Y-86220786D01*
X179580078Y-86220775D01*
X179464862Y-86021215D01*
X179464857Y-86021209D01*
X179409778Y-85949429D01*
X178602697Y-86756509D01*
X178576022Y-86692110D01*
X178504888Y-86585649D01*
X178414351Y-86495112D01*
X178307890Y-86423978D01*
X178243488Y-86397301D01*
X179050569Y-85590220D01*
X179050569Y-85590219D01*
X178978791Y-85535142D01*
X178978784Y-85535137D01*
X178779224Y-85419921D01*
X178779213Y-85419916D01*
X178566302Y-85331725D01*
X178566298Y-85331724D01*
X178343698Y-85272078D01*
X178115227Y-85242000D01*
X177884772Y-85242000D01*
X177656301Y-85272078D01*
X177433701Y-85331724D01*
X177433697Y-85331725D01*
X177220786Y-85419916D01*
X177220775Y-85419921D01*
X177021215Y-85535137D01*
X176949429Y-85590220D01*
X177756510Y-86397301D01*
X177692110Y-86423978D01*
X177585649Y-86495112D01*
X177495112Y-86585649D01*
X177423978Y-86692110D01*
X177397301Y-86756510D01*
X176590220Y-85949429D01*
X176535137Y-86021215D01*
X176419921Y-86220775D01*
X176419916Y-86220786D01*
X176331725Y-86433697D01*
X176331724Y-86433701D01*
X176272078Y-86656301D01*
X176242000Y-86884772D01*
X174758500Y-86884772D01*
X174758500Y-85701362D01*
X174753238Y-85652416D01*
X174753238Y-85652412D01*
X174751990Y-85640804D01*
X174751988Y-85640795D01*
X174722924Y-85562875D01*
X174700889Y-85503796D01*
X174700888Y-85503794D01*
X174700887Y-85503792D01*
X174613261Y-85386738D01*
X174496207Y-85299112D01*
X174496202Y-85299110D01*
X174359204Y-85248011D01*
X174359196Y-85248009D01*
X174298649Y-85241500D01*
X174298638Y-85241500D01*
X171701362Y-85241500D01*
X171701350Y-85241500D01*
X171640803Y-85248009D01*
X171640795Y-85248011D01*
X171503797Y-85299110D01*
X171503792Y-85299112D01*
X171386738Y-85386738D01*
X171299112Y-85503792D01*
X171299110Y-85503797D01*
X171248011Y-85640795D01*
X171248009Y-85640803D01*
X171241500Y-85701350D01*
X159474357Y-85701350D01*
X159505102Y-85655336D01*
X159573586Y-85490000D01*
X159608500Y-85314480D01*
X159608500Y-85135521D01*
X159573586Y-84960001D01*
X159505102Y-84794664D01*
X159405678Y-84645865D01*
X159279135Y-84519322D01*
X159130336Y-84419898D01*
X159073848Y-84396500D01*
X158965002Y-84351415D01*
X158964999Y-84351414D01*
X158789479Y-84316500D01*
X158610520Y-84316500D01*
X158522760Y-84333957D01*
X158434999Y-84351414D01*
X158434996Y-84351415D01*
X158269663Y-84419898D01*
X158120869Y-84519319D01*
X158120862Y-84519324D01*
X153288592Y-89351595D01*
X153226280Y-89385621D01*
X153199497Y-89388500D01*
X147865518Y-89388500D01*
X147689999Y-89423413D01*
X147689998Y-89423413D01*
X147556020Y-89478909D01*
X147507804Y-89488500D01*
X144789082Y-89488500D01*
X144720961Y-89468498D01*
X144699986Y-89451595D01*
X144420040Y-89171648D01*
X144386015Y-89109336D01*
X144383883Y-89077932D01*
X144383500Y-89077932D01*
X144383500Y-88867022D01*
X144383500Y-88867019D01*
X144351280Y-88663592D01*
X144287634Y-88467710D01*
X144194129Y-88284197D01*
X144073068Y-88117570D01*
X144073065Y-88117567D01*
X144073063Y-88117564D01*
X143927435Y-87971936D01*
X143927432Y-87971934D01*
X143927430Y-87971932D01*
X143760803Y-87850871D01*
X143577290Y-87757366D01*
X143577287Y-87757365D01*
X143577285Y-87757364D01*
X143381412Y-87693721D01*
X143381410Y-87693720D01*
X143381408Y-87693720D01*
X143177981Y-87661500D01*
X142972019Y-87661500D01*
X142768592Y-87693720D01*
X142768590Y-87693720D01*
X142768587Y-87693721D01*
X142572714Y-87757364D01*
X142572708Y-87757367D01*
X142389193Y-87850873D01*
X142222567Y-87971934D01*
X142222564Y-87971936D01*
X142076936Y-88117564D01*
X142076934Y-88117567D01*
X141955873Y-88284193D01*
X141862367Y-88467708D01*
X141862364Y-88467714D01*
X141798721Y-88663587D01*
X141798720Y-88663590D01*
X141798720Y-88663592D01*
X141766500Y-88867019D01*
X50600500Y-88867019D01*
X50600500Y-76354230D01*
X71334500Y-76354230D01*
X71334500Y-76354233D01*
X71334500Y-76521767D01*
X71359551Y-76647710D01*
X71367185Y-76686085D01*
X71371233Y-76695857D01*
X71431297Y-76840863D01*
X71431298Y-76840864D01*
X71524373Y-76980161D01*
X71524378Y-76980167D01*
X71642832Y-77098621D01*
X71642838Y-77098626D01*
X71782137Y-77191703D01*
X71936918Y-77255816D01*
X72101233Y-77288500D01*
X72101234Y-77288500D01*
X72268766Y-77288500D01*
X72268767Y-77288500D01*
X72433082Y-77255816D01*
X72473988Y-77238872D01*
X72532383Y-77214684D01*
X72602972Y-77207094D01*
X72666460Y-77238872D01*
X72702688Y-77299930D01*
X72705950Y-77343898D01*
X72701500Y-77387455D01*
X72701500Y-78688544D01*
X72712112Y-78792425D01*
X72767885Y-78960738D01*
X72860970Y-79111652D01*
X72860975Y-79111658D01*
X72986341Y-79237024D01*
X72986347Y-79237029D01*
X72986348Y-79237030D01*
X73131157Y-79326349D01*
X73178634Y-79379134D01*
X73190037Y-79449209D01*
X73161745Y-79514324D01*
X73154105Y-79522684D01*
X73023794Y-79652995D01*
X72898108Y-79825987D01*
X72801029Y-80016515D01*
X72801026Y-80016521D01*
X72734952Y-80219878D01*
X72734951Y-80219883D01*
X72734951Y-80219884D01*
X72701500Y-80431084D01*
X72701500Y-80644916D01*
X72728516Y-80815485D01*
X72734952Y-80856121D01*
X72801026Y-81059478D01*
X72801028Y-81059483D01*
X72898106Y-81250009D01*
X73023794Y-81423004D01*
X73023796Y-81423006D01*
X73023798Y-81423009D01*
X73174990Y-81574201D01*
X73174993Y-81574203D01*
X73174996Y-81574206D01*
X73237974Y-81619962D01*
X73328955Y-81686064D01*
X73372309Y-81742286D01*
X73378384Y-81813023D01*
X73345252Y-81875814D01*
X73328955Y-81889936D01*
X73174993Y-82001796D01*
X73174990Y-82001798D01*
X73023798Y-82152990D01*
X73023796Y-82152993D01*
X72898108Y-82325987D01*
X72801029Y-82516515D01*
X72801026Y-82516521D01*
X72734952Y-82719878D01*
X72734951Y-82719883D01*
X72734951Y-82719884D01*
X72701500Y-82931084D01*
X72701500Y-83144916D01*
X72723369Y-83282991D01*
X72734952Y-83356121D01*
X72801026Y-83559478D01*
X72801028Y-83559483D01*
X72898106Y-83750009D01*
X73023794Y-83923004D01*
X73023796Y-83923006D01*
X73023798Y-83923009D01*
X73174990Y-84074201D01*
X73174993Y-84074203D01*
X73174996Y-84074206D01*
X73318879Y-84178743D01*
X73329381Y-84186373D01*
X73372735Y-84242595D01*
X73378810Y-84313331D01*
X73345679Y-84376123D01*
X73329382Y-84390245D01*
X73175316Y-84502181D01*
X73024177Y-84653320D01*
X72898536Y-84826249D01*
X72801493Y-85016707D01*
X72801490Y-85016713D01*
X72735440Y-85219995D01*
X72725302Y-85284000D01*
X73783164Y-85284000D01*
X73742370Y-85354657D01*
X73710000Y-85475465D01*
X73710000Y-85600535D01*
X73742370Y-85721343D01*
X73783164Y-85792000D01*
X72725302Y-85792000D01*
X72735440Y-85856004D01*
X72801490Y-86059286D01*
X72801493Y-86059292D01*
X72898536Y-86249750D01*
X73024177Y-86422679D01*
X73175320Y-86573822D01*
X73348249Y-86699463D01*
X73538707Y-86796506D01*
X73538713Y-86796509D01*
X73741996Y-86862559D01*
X73931000Y-86892495D01*
X73931000Y-85939836D01*
X74001657Y-85980630D01*
X74122465Y-86013000D01*
X74247535Y-86013000D01*
X74368343Y-85980630D01*
X74439000Y-85939836D01*
X74439000Y-86892495D01*
X74628003Y-86862559D01*
X74675831Y-86847019D01*
X108186500Y-86847019D01*
X108186500Y-87052981D01*
X108217802Y-87250612D01*
X108218721Y-87256412D01*
X108280481Y-87446491D01*
X108282366Y-87452290D01*
X108375871Y-87635803D01*
X108496932Y-87802430D01*
X108496934Y-87802432D01*
X108496936Y-87802435D01*
X108642564Y-87948063D01*
X108642567Y-87948065D01*
X108642570Y-87948068D01*
X108809197Y-88069129D01*
X108992710Y-88162634D01*
X109188592Y-88226280D01*
X109392019Y-88258500D01*
X109392022Y-88258500D01*
X109597978Y-88258500D01*
X109597981Y-88258500D01*
X109801408Y-88226280D01*
X109997290Y-88162634D01*
X110180803Y-88069129D01*
X110347430Y-87948068D01*
X110493068Y-87802430D01*
X110614129Y-87635803D01*
X110707634Y-87452290D01*
X110771280Y-87256408D01*
X110803500Y-87052981D01*
X110803500Y-86847019D01*
X118346500Y-86847019D01*
X118346500Y-87052981D01*
X118377802Y-87250612D01*
X118378721Y-87256412D01*
X118440481Y-87446491D01*
X118442366Y-87452290D01*
X118535871Y-87635803D01*
X118656932Y-87802430D01*
X118656934Y-87802432D01*
X118656936Y-87802435D01*
X118802564Y-87948063D01*
X118802567Y-87948065D01*
X118802570Y-87948068D01*
X118969197Y-88069129D01*
X119152710Y-88162634D01*
X119348592Y-88226280D01*
X119552019Y-88258500D01*
X119552022Y-88258500D01*
X119757978Y-88258500D01*
X119757981Y-88258500D01*
X119961408Y-88226280D01*
X120157290Y-88162634D01*
X120340803Y-88069129D01*
X120507430Y-87948068D01*
X120653068Y-87802430D01*
X120774129Y-87635803D01*
X120867634Y-87452290D01*
X120884509Y-87400351D01*
X120924582Y-87341747D01*
X120989978Y-87314109D01*
X121059935Y-87326215D01*
X121112242Y-87374221D01*
X121124174Y-87400350D01*
X121139166Y-87446490D01*
X121232671Y-87630003D01*
X121353732Y-87796630D01*
X121353734Y-87796632D01*
X121353736Y-87796635D01*
X121499364Y-87942263D01*
X121499367Y-87942265D01*
X121499370Y-87942268D01*
X121665997Y-88063329D01*
X121849510Y-88156834D01*
X122045392Y-88220480D01*
X122248819Y-88252700D01*
X122248822Y-88252700D01*
X122454778Y-88252700D01*
X122454781Y-88252700D01*
X122658208Y-88220480D01*
X122854090Y-88156834D01*
X123037603Y-88063329D01*
X123204230Y-87942268D01*
X123349868Y-87796630D01*
X123470929Y-87630003D01*
X123564434Y-87446490D01*
X123628080Y-87250608D01*
X123660300Y-87047181D01*
X123660300Y-86841219D01*
X125031100Y-86841219D01*
X125031100Y-87047181D01*
X125041878Y-87115227D01*
X125063321Y-87250612D01*
X125111974Y-87400352D01*
X125126966Y-87446490D01*
X125220471Y-87630003D01*
X125341532Y-87796630D01*
X125341534Y-87796632D01*
X125341536Y-87796635D01*
X125487164Y-87942263D01*
X125487167Y-87942265D01*
X125487170Y-87942268D01*
X125653797Y-88063329D01*
X125837310Y-88156834D01*
X126033192Y-88220480D01*
X126236619Y-88252700D01*
X126236622Y-88252700D01*
X126442578Y-88252700D01*
X126442581Y-88252700D01*
X126646008Y-88220480D01*
X126841890Y-88156834D01*
X127025403Y-88063329D01*
X127192030Y-87942268D01*
X127337668Y-87796630D01*
X127458729Y-87630003D01*
X127552234Y-87446490D01*
X127615880Y-87250608D01*
X127648100Y-87047181D01*
X127648100Y-86841219D01*
X127615880Y-86637792D01*
X127552234Y-86441910D01*
X127458729Y-86258397D01*
X127337668Y-86091770D01*
X127337665Y-86091767D01*
X127337663Y-86091764D01*
X127192035Y-85946136D01*
X127192032Y-85946134D01*
X127192030Y-85946132D01*
X127025403Y-85825071D01*
X126841890Y-85731566D01*
X126841887Y-85731565D01*
X126841885Y-85731564D01*
X126646012Y-85667921D01*
X126646010Y-85667920D01*
X126646008Y-85667920D01*
X126442581Y-85635700D01*
X126236619Y-85635700D01*
X126033192Y-85667920D01*
X126033190Y-85667920D01*
X126033187Y-85667921D01*
X125837314Y-85731564D01*
X125837308Y-85731567D01*
X125653793Y-85825073D01*
X125487167Y-85946134D01*
X125487164Y-85946136D01*
X125341536Y-86091764D01*
X125341534Y-86091767D01*
X125220473Y-86258393D01*
X125126967Y-86441908D01*
X125126964Y-86441914D01*
X125063321Y-86637787D01*
X125063320Y-86637790D01*
X125063320Y-86637792D01*
X125031100Y-86841219D01*
X123660300Y-86841219D01*
X123628080Y-86637792D01*
X123564434Y-86441910D01*
X123470929Y-86258397D01*
X123349868Y-86091770D01*
X123349865Y-86091767D01*
X123349863Y-86091764D01*
X123204235Y-85946136D01*
X123204232Y-85946134D01*
X123204230Y-85946132D01*
X123037603Y-85825071D01*
X122854090Y-85731566D01*
X122854087Y-85731565D01*
X122854085Y-85731564D01*
X122658212Y-85667921D01*
X122658210Y-85667920D01*
X122658208Y-85667920D01*
X122454781Y-85635700D01*
X122248819Y-85635700D01*
X122045392Y-85667920D01*
X122045390Y-85667920D01*
X122045387Y-85667921D01*
X121849514Y-85731564D01*
X121849508Y-85731567D01*
X121665993Y-85825073D01*
X121499367Y-85946134D01*
X121499364Y-85946136D01*
X121353736Y-86091764D01*
X121353734Y-86091767D01*
X121232673Y-86258393D01*
X121232671Y-86258397D01*
X121139166Y-86441910D01*
X121122291Y-86493846D01*
X121122290Y-86493849D01*
X121082215Y-86552454D01*
X121016818Y-86580090D01*
X120946861Y-86567982D01*
X120894556Y-86519975D01*
X120882625Y-86493849D01*
X120867634Y-86447710D01*
X120774129Y-86264197D01*
X120653068Y-86097570D01*
X120653065Y-86097567D01*
X120653063Y-86097564D01*
X120507435Y-85951936D01*
X120507432Y-85951934D01*
X120507430Y-85951932D01*
X120340803Y-85830871D01*
X120157290Y-85737366D01*
X120157287Y-85737365D01*
X120157285Y-85737364D01*
X119961412Y-85673721D01*
X119961410Y-85673720D01*
X119961408Y-85673720D01*
X119757981Y-85641500D01*
X119552019Y-85641500D01*
X119348592Y-85673720D01*
X119348590Y-85673720D01*
X119348587Y-85673721D01*
X119152714Y-85737364D01*
X119152708Y-85737367D01*
X118969193Y-85830873D01*
X118802567Y-85951934D01*
X118802564Y-85951936D01*
X118656936Y-86097564D01*
X118656934Y-86097567D01*
X118535873Y-86264193D01*
X118442367Y-86447708D01*
X118442364Y-86447714D01*
X118378721Y-86643587D01*
X118378720Y-86643590D01*
X118378720Y-86643592D01*
X118346500Y-86847019D01*
X110803500Y-86847019D01*
X110771280Y-86643592D01*
X110707634Y-86447710D01*
X110614129Y-86264197D01*
X110493068Y-86097570D01*
X110493065Y-86097567D01*
X110493063Y-86097564D01*
X110347435Y-85951936D01*
X110347432Y-85951934D01*
X110347430Y-85951932D01*
X110180803Y-85830871D01*
X109997290Y-85737366D01*
X109997287Y-85737365D01*
X109997285Y-85737364D01*
X109801412Y-85673721D01*
X109801410Y-85673720D01*
X109801408Y-85673720D01*
X109597981Y-85641500D01*
X109392019Y-85641500D01*
X109188592Y-85673720D01*
X109188590Y-85673720D01*
X109188587Y-85673721D01*
X108992714Y-85737364D01*
X108992708Y-85737367D01*
X108809193Y-85830873D01*
X108642567Y-85951934D01*
X108642564Y-85951936D01*
X108496936Y-86097564D01*
X108496934Y-86097567D01*
X108375873Y-86264193D01*
X108282367Y-86447708D01*
X108282364Y-86447714D01*
X108218721Y-86643587D01*
X108218720Y-86643590D01*
X108218720Y-86643592D01*
X108186500Y-86847019D01*
X74675831Y-86847019D01*
X74831286Y-86796509D01*
X74831292Y-86796506D01*
X74962210Y-86729801D01*
X75021750Y-86699463D01*
X75194679Y-86573822D01*
X75345822Y-86422679D01*
X75471463Y-86249750D01*
X75568506Y-86059292D01*
X75568509Y-86059286D01*
X75634559Y-85856004D01*
X75644698Y-85792000D01*
X74586836Y-85792000D01*
X74627630Y-85721343D01*
X74660000Y-85600535D01*
X74660000Y-85475465D01*
X74627630Y-85354657D01*
X74586836Y-85284000D01*
X75644697Y-85284000D01*
X75634559Y-85219995D01*
X75568509Y-85016713D01*
X75568506Y-85016707D01*
X75471463Y-84826249D01*
X75345822Y-84653320D01*
X75194679Y-84502177D01*
X75040618Y-84390245D01*
X74997264Y-84334022D01*
X74991189Y-84263286D01*
X75024321Y-84200495D01*
X75040612Y-84186377D01*
X75195004Y-84074206D01*
X75346206Y-83923004D01*
X75471894Y-83750009D01*
X75568972Y-83559483D01*
X75635049Y-83356116D01*
X75668500Y-83144916D01*
X75668500Y-82931084D01*
X75635049Y-82719884D01*
X75568972Y-82516517D01*
X75471894Y-82325991D01*
X75346206Y-82152996D01*
X75346203Y-82152993D01*
X75346201Y-82152990D01*
X75195009Y-82001798D01*
X75195006Y-82001796D01*
X75195004Y-82001794D01*
X75041043Y-81889935D01*
X74997690Y-81833714D01*
X74991615Y-81762978D01*
X75024746Y-81700186D01*
X75041044Y-81686064D01*
X75195004Y-81574206D01*
X75346206Y-81423004D01*
X75471894Y-81250009D01*
X75568972Y-81059483D01*
X75635049Y-80856116D01*
X75668500Y-80644916D01*
X75668500Y-80431084D01*
X75635049Y-80219884D01*
X75568972Y-80016517D01*
X75471894Y-79825991D01*
X75346206Y-79652996D01*
X75346203Y-79652993D01*
X75346201Y-79652990D01*
X75215895Y-79522684D01*
X75181869Y-79460372D01*
X75186934Y-79389557D01*
X75229481Y-79332721D01*
X75238831Y-79326356D01*
X75383652Y-79237030D01*
X75509030Y-79111652D01*
X75602115Y-78960738D01*
X75657887Y-78792426D01*
X75668500Y-78688545D01*
X75668499Y-77387456D01*
X75657887Y-77283574D01*
X75602115Y-77115262D01*
X75509030Y-76964348D01*
X75509029Y-76964347D01*
X75509024Y-76964341D01*
X75383658Y-76838975D01*
X75383652Y-76838970D01*
X75368271Y-76829483D01*
X75232738Y-76745885D01*
X75081761Y-76695857D01*
X75064427Y-76690113D01*
X75064420Y-76690112D01*
X74960553Y-76679500D01*
X73409455Y-76679500D01*
X73305573Y-76690113D01*
X73186025Y-76729726D01*
X73115070Y-76732166D01*
X73054060Y-76695857D01*
X73022365Y-76632328D01*
X73022813Y-76585544D01*
X73035500Y-76521767D01*
X73035500Y-76354233D01*
X73002816Y-76189918D01*
X72938703Y-76035137D01*
X72845626Y-75895838D01*
X72845621Y-75895832D01*
X72727167Y-75777378D01*
X72727161Y-75777373D01*
X72587864Y-75684298D01*
X72587865Y-75684298D01*
X72587863Y-75684297D01*
X72478420Y-75638964D01*
X72433085Y-75620185D01*
X72433083Y-75620184D01*
X72433082Y-75620184D01*
X72350368Y-75603731D01*
X72268769Y-75587500D01*
X72268767Y-75587500D01*
X72101233Y-75587500D01*
X72101230Y-75587500D01*
X71978830Y-75611847D01*
X71936918Y-75620184D01*
X71936917Y-75620184D01*
X71936914Y-75620185D01*
X71782135Y-75684298D01*
X71642838Y-75777373D01*
X71642832Y-75777378D01*
X71524378Y-75895832D01*
X71524373Y-75895838D01*
X71431298Y-76035135D01*
X71367185Y-76189914D01*
X71334500Y-76354230D01*
X50600500Y-76354230D01*
X50600500Y-68645750D01*
X93230300Y-68645750D01*
X93230300Y-70343049D01*
X93236809Y-70403596D01*
X93236811Y-70403604D01*
X93287910Y-70540602D01*
X93287912Y-70540607D01*
X93375538Y-70657661D01*
X93492592Y-70745287D01*
X93492594Y-70745288D01*
X93492596Y-70745289D01*
X93551675Y-70767324D01*
X93629595Y-70796388D01*
X93629603Y-70796390D01*
X93690150Y-70802899D01*
X93690155Y-70802899D01*
X93690162Y-70802900D01*
X93690168Y-70802900D01*
X95387432Y-70802900D01*
X95387438Y-70802900D01*
X95387445Y-70802899D01*
X95387449Y-70802899D01*
X95447996Y-70796390D01*
X95447999Y-70796389D01*
X95448001Y-70796389D01*
X95585004Y-70745289D01*
X95597301Y-70736084D01*
X95702061Y-70657661D01*
X95789687Y-70540607D01*
X95789687Y-70540606D01*
X95789689Y-70540604D01*
X95840789Y-70403601D01*
X95847300Y-70343038D01*
X95847300Y-70334211D01*
X95850924Y-70319917D01*
X95862969Y-70299540D01*
X95870838Y-70277215D01*
X95880698Y-70269550D01*
X95887053Y-70258801D01*
X95908204Y-70248170D01*
X95926893Y-70233644D01*
X95941427Y-70231472D01*
X95943616Y-70230372D01*
X96638800Y-69535188D01*
X96638800Y-69547061D01*
X96666059Y-69648794D01*
X96718720Y-69740006D01*
X96793194Y-69814480D01*
X96884406Y-69867141D01*
X96986139Y-69894400D01*
X96998010Y-69894400D01*
X96310426Y-70581982D01*
X96310426Y-70581983D01*
X96353254Y-70613099D01*
X96536700Y-70706570D01*
X96536706Y-70706573D01*
X96732505Y-70770191D01*
X96732501Y-70770191D01*
X96935861Y-70802400D01*
X97141739Y-70802400D01*
X97345096Y-70770191D01*
X97540893Y-70706573D01*
X97540899Y-70706570D01*
X97724341Y-70613101D01*
X97767172Y-70581982D01*
X97767172Y-70581981D01*
X97079591Y-69894400D01*
X97091461Y-69894400D01*
X97193194Y-69867141D01*
X97284406Y-69814480D01*
X97358880Y-69740006D01*
X97411541Y-69648794D01*
X97438800Y-69547061D01*
X97438800Y-69535191D01*
X98126381Y-70222772D01*
X98126382Y-70222772D01*
X98157501Y-70179941D01*
X98250970Y-69996499D01*
X98250973Y-69996493D01*
X98314591Y-69800696D01*
X98346800Y-69597338D01*
X98346800Y-69391461D01*
X98314591Y-69188103D01*
X98250973Y-68992306D01*
X98250970Y-68992300D01*
X98157499Y-68808854D01*
X98126383Y-68766026D01*
X98126382Y-68766026D01*
X97438800Y-69453608D01*
X97438800Y-69441739D01*
X97411541Y-69340006D01*
X97358880Y-69248794D01*
X97284406Y-69174320D01*
X97193194Y-69121659D01*
X97091461Y-69094400D01*
X97079590Y-69094400D01*
X97767172Y-68406816D01*
X97724341Y-68375698D01*
X97724340Y-68375697D01*
X97540899Y-68282229D01*
X97540893Y-68282226D01*
X97345094Y-68218608D01*
X97345098Y-68218608D01*
X97141739Y-68186400D01*
X96935861Y-68186400D01*
X96732503Y-68218608D01*
X96536706Y-68282226D01*
X96536700Y-68282229D01*
X96353252Y-68375701D01*
X96310425Y-68406816D01*
X96998009Y-69094400D01*
X96986139Y-69094400D01*
X96884406Y-69121659D01*
X96793194Y-69174320D01*
X96718720Y-69248794D01*
X96666059Y-69340006D01*
X96638800Y-69441739D01*
X96638800Y-69453609D01*
X95939616Y-68754425D01*
X95913465Y-68748931D01*
X95862906Y-68699089D01*
X95850924Y-68668880D01*
X95847300Y-68654585D01*
X95847300Y-68645762D01*
X95840789Y-68585199D01*
X95806194Y-68492447D01*
X95806193Y-68492443D01*
X95789689Y-68448197D01*
X95789687Y-68448192D01*
X95702061Y-68331138D01*
X95585007Y-68243512D01*
X95585002Y-68243510D01*
X95448004Y-68192411D01*
X95447996Y-68192409D01*
X95387449Y-68185900D01*
X95387438Y-68185900D01*
X93690162Y-68185900D01*
X93690150Y-68185900D01*
X93629603Y-68192409D01*
X93629595Y-68192411D01*
X93492597Y-68243510D01*
X93492592Y-68243512D01*
X93375538Y-68331138D01*
X93287912Y-68448192D01*
X93287910Y-68448197D01*
X93236811Y-68585195D01*
X93236809Y-68585203D01*
X93230300Y-68645750D01*
X50600500Y-68645750D01*
X50600500Y-51426500D01*
X50620502Y-51358379D01*
X50674158Y-51311886D01*
X50726500Y-51300500D01*
X60300207Y-51300500D01*
X60300500Y-51300207D01*
X60300500Y-37776350D01*
X72041500Y-37776350D01*
X72041500Y-39573649D01*
X72048009Y-39634196D01*
X72048011Y-39634204D01*
X72099110Y-39771202D01*
X72099112Y-39771207D01*
X72186738Y-39888261D01*
X72303792Y-39975887D01*
X72303796Y-39975889D01*
X72422224Y-40020061D01*
X72479059Y-40062607D01*
X72503870Y-40129128D01*
X72488778Y-40198502D01*
X72467287Y-40227211D01*
X72364176Y-40330322D01*
X72238536Y-40503249D01*
X72141493Y-40693707D01*
X72141490Y-40693713D01*
X72075440Y-40896995D01*
X72065302Y-40961000D01*
X72969297Y-40961000D01*
X72934075Y-41022007D01*
X72900000Y-41149174D01*
X72900000Y-41280826D01*
X72934075Y-41407993D01*
X72969297Y-41469000D01*
X72065302Y-41469000D01*
X72075440Y-41533004D01*
X72141490Y-41736286D01*
X72141493Y-41736292D01*
X72238536Y-41926750D01*
X72364177Y-42099679D01*
X72515320Y-42250822D01*
X72688244Y-42376460D01*
X72689560Y-42377266D01*
X72689955Y-42377703D01*
X72692258Y-42379376D01*
X72691906Y-42379859D01*
X72737196Y-42429910D01*
X72748809Y-42499950D01*
X72720712Y-42565150D01*
X72691925Y-42590098D01*
X72691996Y-42590196D01*
X72690862Y-42591019D01*
X72689580Y-42592131D01*
X72687998Y-42593100D01*
X72514993Y-42718796D01*
X72514990Y-42718798D01*
X72363798Y-42869990D01*
X72363796Y-42869993D01*
X72238108Y-43042987D01*
X72141029Y-43233515D01*
X72141026Y-43233521D01*
X72074952Y-43436878D01*
X72074951Y-43436883D01*
X72074951Y-43436884D01*
X72041500Y-43648084D01*
X72041500Y-43861916D01*
X72074951Y-44073116D01*
X72074952Y-44073121D01*
X72124028Y-44224163D01*
X72141028Y-44276483D01*
X72238106Y-44467009D01*
X72363794Y-44640004D01*
X72363796Y-44640006D01*
X72363798Y-44640009D01*
X72514990Y-44791201D01*
X72514993Y-44791203D01*
X72514996Y-44791206D01*
X72687991Y-44916894D01*
X72687996Y-44916896D01*
X72689088Y-44917566D01*
X72689418Y-44917931D01*
X72691996Y-44919804D01*
X72691602Y-44920345D01*
X72736721Y-44970213D01*
X72748328Y-45040255D01*
X72720226Y-45105453D01*
X72691870Y-45130023D01*
X72691996Y-45130196D01*
X72689982Y-45131658D01*
X72689088Y-45132434D01*
X72687987Y-45133108D01*
X72514993Y-45258796D01*
X72514990Y-45258798D01*
X72363798Y-45409990D01*
X72363796Y-45409993D01*
X72238108Y-45582987D01*
X72141029Y-45773515D01*
X72141026Y-45773521D01*
X72074952Y-45976878D01*
X72074951Y-45976883D01*
X72074951Y-45976884D01*
X72041500Y-46188084D01*
X72041500Y-46401916D01*
X72072473Y-46597471D01*
X72074952Y-46613121D01*
X72098012Y-46684093D01*
X72141028Y-46816483D01*
X72238106Y-47007009D01*
X72363794Y-47180004D01*
X72363796Y-47180006D01*
X72363798Y-47180009D01*
X72514990Y-47331201D01*
X72514993Y-47331203D01*
X72514996Y-47331206D01*
X72687991Y-47456894D01*
X72687996Y-47456896D01*
X72689088Y-47457566D01*
X72689418Y-47457931D01*
X72691996Y-47459804D01*
X72691602Y-47460345D01*
X72736721Y-47510213D01*
X72748328Y-47580255D01*
X72720226Y-47645453D01*
X72691870Y-47670023D01*
X72691996Y-47670196D01*
X72689982Y-47671658D01*
X72689088Y-47672434D01*
X72687987Y-47673108D01*
X72514993Y-47798796D01*
X72514990Y-47798798D01*
X72363798Y-47949990D01*
X72363796Y-47949993D01*
X72238108Y-48122987D01*
X72141029Y-48313515D01*
X72141026Y-48313521D01*
X72074952Y-48516878D01*
X72074951Y-48516883D01*
X72074951Y-48516884D01*
X72041500Y-48728084D01*
X72041500Y-48941916D01*
X72070985Y-49128073D01*
X72074952Y-49153121D01*
X72140522Y-49354926D01*
X72141028Y-49356483D01*
X72238106Y-49547009D01*
X72363794Y-49720004D01*
X72363796Y-49720006D01*
X72363798Y-49720009D01*
X72514990Y-49871201D01*
X72514993Y-49871203D01*
X72514996Y-49871206D01*
X72687991Y-49996894D01*
X72687996Y-49996896D01*
X72689088Y-49997566D01*
X72689418Y-49997931D01*
X72691996Y-49999804D01*
X72691602Y-50000345D01*
X72736721Y-50050213D01*
X72748328Y-50120255D01*
X72720226Y-50185453D01*
X72691870Y-50210023D01*
X72691996Y-50210196D01*
X72689982Y-50211658D01*
X72689088Y-50212434D01*
X72687987Y-50213108D01*
X72514993Y-50338796D01*
X72514990Y-50338798D01*
X72363798Y-50489990D01*
X72363796Y-50489993D01*
X72238108Y-50662987D01*
X72141029Y-50853515D01*
X72141026Y-50853521D01*
X72074952Y-51056878D01*
X72074951Y-51056883D01*
X72074951Y-51056884D01*
X72041500Y-51268084D01*
X72041500Y-51481916D01*
X72073670Y-51685025D01*
X72074952Y-51693121D01*
X72132428Y-51870015D01*
X72141028Y-51896483D01*
X72238106Y-52087009D01*
X72363794Y-52260004D01*
X72363796Y-52260006D01*
X72363798Y-52260009D01*
X72514990Y-52411201D01*
X72514993Y-52411203D01*
X72514996Y-52411206D01*
X72687991Y-52536894D01*
X72687996Y-52536896D01*
X72689088Y-52537566D01*
X72689418Y-52537931D01*
X72691996Y-52539804D01*
X72691602Y-52540345D01*
X72736721Y-52590213D01*
X72748328Y-52660255D01*
X72720226Y-52725453D01*
X72691870Y-52750023D01*
X72691996Y-52750196D01*
X72689982Y-52751658D01*
X72689088Y-52752434D01*
X72687987Y-52753108D01*
X72514993Y-52878796D01*
X72514990Y-52878798D01*
X72363798Y-53029990D01*
X72363796Y-53029993D01*
X72238108Y-53202987D01*
X72141029Y-53393515D01*
X72141026Y-53393521D01*
X72074952Y-53596878D01*
X72074951Y-53596883D01*
X72074951Y-53596884D01*
X72041500Y-53808084D01*
X72041500Y-54021916D01*
X72074951Y-54233116D01*
X72074952Y-54233121D01*
X72141026Y-54436478D01*
X72141028Y-54436483D01*
X72238106Y-54627009D01*
X72363794Y-54800004D01*
X72363796Y-54800006D01*
X72363798Y-54800009D01*
X72514990Y-54951201D01*
X72514993Y-54951203D01*
X72514996Y-54951206D01*
X72687991Y-55076894D01*
X72878517Y-55173972D01*
X73081878Y-55240047D01*
X73081879Y-55240047D01*
X73081884Y-55240049D01*
X73293084Y-55273500D01*
X73293087Y-55273500D01*
X73506913Y-55273500D01*
X73506916Y-55273500D01*
X73718116Y-55240049D01*
X73921483Y-55173972D01*
X74112009Y-55076894D01*
X74285004Y-54951206D01*
X74436206Y-54800004D01*
X74561894Y-54627009D01*
X74658972Y-54436483D01*
X74725049Y-54233116D01*
X74758500Y-54021916D01*
X74758500Y-53808084D01*
X74725049Y-53596884D01*
X74658972Y-53393517D01*
X74561894Y-53202991D01*
X74436206Y-53029996D01*
X74436203Y-53029993D01*
X74436201Y-53029990D01*
X74285009Y-52878798D01*
X74285006Y-52878796D01*
X74285004Y-52878794D01*
X74112009Y-52753106D01*
X74112007Y-52753105D01*
X74110920Y-52752439D01*
X74110591Y-52752075D01*
X74108004Y-52750196D01*
X74108398Y-52749652D01*
X74063283Y-52699796D01*
X74051670Y-52629756D01*
X74079766Y-52564555D01*
X74108130Y-52539978D01*
X74108004Y-52539804D01*
X74110030Y-52538331D01*
X74110920Y-52537561D01*
X74111997Y-52536899D01*
X74112009Y-52536894D01*
X74285004Y-52411206D01*
X74436206Y-52260004D01*
X74561894Y-52087009D01*
X74658972Y-51896483D01*
X74725049Y-51693116D01*
X74758500Y-51481916D01*
X74758500Y-51268084D01*
X74725049Y-51056884D01*
X74658972Y-50853517D01*
X74561894Y-50662991D01*
X74436206Y-50489996D01*
X74436203Y-50489993D01*
X74436201Y-50489990D01*
X74285009Y-50338798D01*
X74285006Y-50338796D01*
X74285004Y-50338794D01*
X74112009Y-50213106D01*
X74112007Y-50213105D01*
X74110920Y-50212439D01*
X74110591Y-50212075D01*
X74108004Y-50210196D01*
X74108398Y-50209652D01*
X74063283Y-50159796D01*
X74051670Y-50089756D01*
X74079766Y-50024555D01*
X74108130Y-49999978D01*
X74108004Y-49999804D01*
X74110030Y-49998331D01*
X74110920Y-49997561D01*
X74111997Y-49996899D01*
X74112009Y-49996894D01*
X74285004Y-49871206D01*
X74436206Y-49720004D01*
X74561894Y-49547009D01*
X74658972Y-49356483D01*
X74725049Y-49153116D01*
X74758500Y-48941916D01*
X74758500Y-48728084D01*
X74725049Y-48516884D01*
X74658972Y-48313517D01*
X74561894Y-48122991D01*
X74436206Y-47949996D01*
X74436203Y-47949993D01*
X74436201Y-47949990D01*
X74285009Y-47798798D01*
X74285006Y-47798796D01*
X74285004Y-47798794D01*
X74112009Y-47673106D01*
X74112007Y-47673105D01*
X74110920Y-47672439D01*
X74110591Y-47672075D01*
X74108004Y-47670196D01*
X74108398Y-47669652D01*
X74088217Y-47647351D01*
X74064837Y-47622903D01*
X74064493Y-47621133D01*
X74063283Y-47619796D01*
X74057749Y-47586420D01*
X74051297Y-47553210D01*
X74051964Y-47551534D01*
X74051670Y-47549756D01*
X74065057Y-47518687D01*
X74077585Y-47487260D01*
X74079233Y-47485791D01*
X74079766Y-47484555D01*
X74103504Y-47462472D01*
X74109580Y-47458131D01*
X74112009Y-47456894D01*
X74152804Y-47427254D01*
X74153200Y-47426972D01*
X74186288Y-47415465D01*
X74219247Y-47403705D01*
X74220181Y-47403678D01*
X74220257Y-47403652D01*
X74220346Y-47403673D01*
X74226440Y-47403500D01*
X78016254Y-47403500D01*
X78084375Y-47423502D01*
X78105349Y-47440405D01*
X113171455Y-82506512D01*
X113171458Y-82506514D01*
X113171461Y-82506517D01*
X113312619Y-82609074D01*
X113468083Y-82688288D01*
X113634026Y-82742205D01*
X113806359Y-82769500D01*
X113980842Y-82769500D01*
X135849654Y-82769500D01*
X135917775Y-82789502D01*
X135938749Y-82806405D01*
X139527855Y-86395512D01*
X139527858Y-86395514D01*
X139527861Y-86395517D01*
X139643661Y-86479650D01*
X139663199Y-86493846D01*
X139669019Y-86498074D01*
X139824483Y-86577288D01*
X139990426Y-86631205D01*
X140162759Y-86658501D01*
X140162762Y-86658501D01*
X140342435Y-86658501D01*
X140342459Y-86658500D01*
X153137238Y-86658500D01*
X153137241Y-86658500D01*
X153309574Y-86631205D01*
X153475517Y-86577288D01*
X153630981Y-86498074D01*
X153772139Y-86395517D01*
X157361251Y-82806405D01*
X157423563Y-82772379D01*
X157450346Y-82769500D01*
X173518438Y-82769500D01*
X173518441Y-82769500D01*
X173690774Y-82742205D01*
X173856717Y-82688288D01*
X174012181Y-82609074D01*
X174153339Y-82506517D01*
X180820717Y-75839139D01*
X180923274Y-75697981D01*
X181002488Y-75542517D01*
X181056405Y-75376574D01*
X181083701Y-75204241D01*
X181083701Y-75029758D01*
X181083701Y-75025301D01*
X181083700Y-75025271D01*
X181083700Y-72130639D01*
X181103702Y-72062518D01*
X181107752Y-72056593D01*
X181137094Y-72016209D01*
X181234172Y-71825683D01*
X181300249Y-71622316D01*
X181333700Y-71411116D01*
X181333700Y-70947284D01*
X181300249Y-70736084D01*
X181234172Y-70532717D01*
X181137094Y-70342191D01*
X181011406Y-70169196D01*
X181011403Y-70169193D01*
X181011401Y-70169190D01*
X180860209Y-70017998D01*
X180860206Y-70017996D01*
X180860204Y-70017994D01*
X180687209Y-69892306D01*
X180496683Y-69795228D01*
X180496680Y-69795227D01*
X180496678Y-69795226D01*
X180293320Y-69729152D01*
X180293323Y-69729152D01*
X180232395Y-69719502D01*
X180082116Y-69695700D01*
X179868284Y-69695700D01*
X179657084Y-69729151D01*
X179657078Y-69729152D01*
X179453721Y-69795226D01*
X179453715Y-69795229D01*
X179263187Y-69892308D01*
X179090193Y-70017996D01*
X179090190Y-70017998D01*
X178938998Y-70169190D01*
X178938996Y-70169193D01*
X178827136Y-70323155D01*
X178770914Y-70366509D01*
X178700177Y-70372584D01*
X178637386Y-70339452D01*
X178623264Y-70323155D01*
X178521267Y-70182769D01*
X178511406Y-70169196D01*
X178511403Y-70169193D01*
X178511401Y-70169190D01*
X178360209Y-70017998D01*
X178360206Y-70017996D01*
X178360204Y-70017994D01*
X178187209Y-69892306D01*
X177996683Y-69795228D01*
X177996680Y-69795227D01*
X177996678Y-69795226D01*
X177793320Y-69729152D01*
X177793323Y-69729152D01*
X177732395Y-69719502D01*
X177582116Y-69695700D01*
X177368284Y-69695700D01*
X177157084Y-69729151D01*
X177157078Y-69729152D01*
X176953721Y-69795226D01*
X176953715Y-69795229D01*
X176763187Y-69892308D01*
X176590193Y-70017996D01*
X176590190Y-70017998D01*
X176438995Y-70169193D01*
X176326826Y-70323581D01*
X176270603Y-70366935D01*
X176199867Y-70373010D01*
X176137076Y-70339878D01*
X176122954Y-70323581D01*
X176011021Y-70169520D01*
X176011019Y-70169517D01*
X175859879Y-70018377D01*
X175686950Y-69892736D01*
X175496492Y-69795693D01*
X175496486Y-69795690D01*
X175293204Y-69729640D01*
X175229200Y-69719502D01*
X175229200Y-70777363D01*
X175158543Y-70736570D01*
X175037735Y-70704200D01*
X174912665Y-70704200D01*
X174791857Y-70736570D01*
X174721200Y-70777363D01*
X174721200Y-69719502D01*
X174657195Y-69729640D01*
X174453913Y-69795690D01*
X174453907Y-69795693D01*
X174263449Y-69892736D01*
X174090522Y-70018376D01*
X173960154Y-70148744D01*
X173897842Y-70182769D01*
X173827026Y-70177704D01*
X173770191Y-70135157D01*
X173763827Y-70125808D01*
X173674230Y-69980548D01*
X173674227Y-69980545D01*
X173674224Y-69980541D01*
X173548858Y-69855175D01*
X173548852Y-69855170D01*
X173546323Y-69853610D01*
X173397938Y-69762085D01*
X173269429Y-69719502D01*
X173229627Y-69706313D01*
X173229620Y-69706312D01*
X173125753Y-69695700D01*
X171824655Y-69695700D01*
X171720774Y-69706312D01*
X171552461Y-69762085D01*
X171401547Y-69855170D01*
X171401541Y-69855175D01*
X171276175Y-69980541D01*
X171276170Y-69980547D01*
X171183085Y-70131462D01*
X171127313Y-70299772D01*
X171127312Y-70299779D01*
X171116700Y-70403646D01*
X171116700Y-71954744D01*
X171127313Y-72058626D01*
X171166926Y-72178174D01*
X171169366Y-72249129D01*
X171133057Y-72310139D01*
X171069528Y-72341834D01*
X171022739Y-72341385D01*
X170958969Y-72328700D01*
X170958967Y-72328700D01*
X170791433Y-72328700D01*
X170791430Y-72328700D01*
X170687793Y-72349315D01*
X170627118Y-72361384D01*
X170627117Y-72361384D01*
X170627114Y-72361385D01*
X170472335Y-72425498D01*
X170333038Y-72518573D01*
X170333032Y-72518578D01*
X170214578Y-72637032D01*
X170214573Y-72637038D01*
X170127510Y-72767338D01*
X170121497Y-72776337D01*
X170120796Y-72778029D01*
X170057385Y-72931114D01*
X170024700Y-73095430D01*
X170024700Y-73262969D01*
X170032992Y-73304654D01*
X170057384Y-73427282D01*
X170121497Y-73582063D01*
X170121498Y-73582064D01*
X170214573Y-73721361D01*
X170214578Y-73721367D01*
X170333032Y-73839821D01*
X170333038Y-73839826D01*
X170472337Y-73932903D01*
X170627118Y-73997016D01*
X170791433Y-74029700D01*
X170791434Y-74029700D01*
X170958966Y-74029700D01*
X170958967Y-74029700D01*
X171123282Y-73997016D01*
X171278063Y-73932903D01*
X171417362Y-73839826D01*
X171535826Y-73721362D01*
X171628903Y-73582063D01*
X171693016Y-73427282D01*
X171725700Y-73262967D01*
X171725700Y-73095433D01*
X171693016Y-72931118D01*
X171668322Y-72871501D01*
X171651884Y-72831816D01*
X171644294Y-72761226D01*
X171676073Y-72697739D01*
X171737131Y-72661511D01*
X171781099Y-72658250D01*
X171824655Y-72662700D01*
X173125744Y-72662699D01*
X173229626Y-72652087D01*
X173397938Y-72596315D01*
X173548852Y-72503230D01*
X173674230Y-72377852D01*
X173763821Y-72232601D01*
X173816603Y-72185126D01*
X173886678Y-72173723D01*
X173951794Y-72202015D01*
X173960154Y-72209656D01*
X174090520Y-72340022D01*
X174263449Y-72465663D01*
X174453907Y-72562706D01*
X174453913Y-72562709D01*
X174657198Y-72628760D01*
X174721200Y-72638896D01*
X174721200Y-71581036D01*
X174791857Y-71621830D01*
X174912665Y-71654200D01*
X175037735Y-71654200D01*
X175158543Y-71621830D01*
X175229200Y-71581036D01*
X175229200Y-72638896D01*
X175293201Y-72628760D01*
X175496486Y-72562709D01*
X175496492Y-72562706D01*
X175686950Y-72465663D01*
X175859879Y-72340022D01*
X176011019Y-72188882D01*
X176011021Y-72188879D01*
X176122954Y-72034818D01*
X176145587Y-72017364D01*
X176166088Y-71997441D01*
X176173327Y-71995974D01*
X176179176Y-71991464D01*
X176207654Y-71989018D01*
X176235671Y-71983341D01*
X176242554Y-71986020D01*
X176249912Y-71985389D01*
X176275190Y-71998726D01*
X176301830Y-72009098D01*
X176309179Y-72016660D01*
X176312704Y-72018520D01*
X176326825Y-72034817D01*
X176342635Y-72056577D01*
X176366494Y-72123444D01*
X176366700Y-72130639D01*
X176366700Y-73117854D01*
X176346698Y-73185975D01*
X176329795Y-73206949D01*
X171332549Y-78204195D01*
X171270237Y-78238221D01*
X171243454Y-78241100D01*
X148335946Y-78241100D01*
X148267825Y-78221098D01*
X148246851Y-78204195D01*
X146872144Y-76829487D01*
X146872141Y-76829485D01*
X146872139Y-76829483D01*
X146757076Y-76745885D01*
X146730983Y-76726927D01*
X146725165Y-76723963D01*
X146575517Y-76647712D01*
X146575514Y-76647711D01*
X146575512Y-76647710D01*
X146409577Y-76593796D01*
X146409574Y-76593795D01*
X146237241Y-76566500D01*
X139337241Y-76566500D01*
X139162759Y-76566500D01*
X138990426Y-76593795D01*
X138990423Y-76593795D01*
X138990422Y-76593796D01*
X138824487Y-76647710D01*
X138824481Y-76647713D01*
X138669016Y-76726927D01*
X138527858Y-76829485D01*
X138527855Y-76829487D01*
X137153149Y-78204195D01*
X137090837Y-78238220D01*
X137064054Y-78241100D01*
X116030546Y-78241100D01*
X115962425Y-78221098D01*
X115941451Y-78204195D01*
X113191825Y-75454569D01*
X113157799Y-75392257D01*
X113162864Y-75321442D01*
X113205411Y-75264606D01*
X113271931Y-75239795D01*
X113319855Y-75245640D01*
X113383992Y-75266480D01*
X113587419Y-75298700D01*
X113587422Y-75298700D01*
X113793378Y-75298700D01*
X113793381Y-75298700D01*
X113996808Y-75266480D01*
X114192690Y-75202834D01*
X114376203Y-75109329D01*
X114542830Y-74988268D01*
X114542835Y-74988263D01*
X114590433Y-74940666D01*
X114688463Y-74842635D01*
X114688468Y-74842630D01*
X114809529Y-74676003D01*
X114903034Y-74492490D01*
X114966680Y-74296608D01*
X114998900Y-74093181D01*
X114998900Y-73887261D01*
X122542400Y-73887261D01*
X122542400Y-74093138D01*
X122574608Y-74296496D01*
X122638226Y-74492293D01*
X122638229Y-74492299D01*
X122731697Y-74675740D01*
X122731698Y-74675741D01*
X122762816Y-74718572D01*
X123450400Y-74030988D01*
X123450400Y-74042861D01*
X123477659Y-74144594D01*
X123530320Y-74235806D01*
X123604794Y-74310280D01*
X123696006Y-74362941D01*
X123797739Y-74390200D01*
X123809610Y-74390200D01*
X123122026Y-75077782D01*
X123122026Y-75077783D01*
X123164854Y-75108899D01*
X123348300Y-75202370D01*
X123348306Y-75202373D01*
X123544105Y-75265991D01*
X123544101Y-75265991D01*
X123747461Y-75298200D01*
X123953339Y-75298200D01*
X124156696Y-75265991D01*
X124352493Y-75202373D01*
X124352499Y-75202370D01*
X124535941Y-75108901D01*
X124578772Y-75077782D01*
X124578772Y-75077781D01*
X123891191Y-74390200D01*
X123903061Y-74390200D01*
X124004794Y-74362941D01*
X124096006Y-74310280D01*
X124170480Y-74235806D01*
X124223141Y-74144594D01*
X124250400Y-74042861D01*
X124250400Y-74030991D01*
X124937981Y-74718572D01*
X124937982Y-74718572D01*
X124969101Y-74675741D01*
X125062570Y-74492299D01*
X125062573Y-74492293D01*
X125126191Y-74296496D01*
X125158400Y-74093138D01*
X125158400Y-73887261D01*
X125126191Y-73683903D01*
X125062573Y-73488106D01*
X125062570Y-73488100D01*
X124969099Y-73304654D01*
X124937983Y-73261826D01*
X124937982Y-73261826D01*
X124250400Y-73949408D01*
X124250400Y-73937539D01*
X124223141Y-73835806D01*
X124170480Y-73744594D01*
X124096006Y-73670120D01*
X124004794Y-73617459D01*
X123903061Y-73590200D01*
X123891190Y-73590200D01*
X124578772Y-72902616D01*
X124535941Y-72871498D01*
X124535940Y-72871497D01*
X124352499Y-72778029D01*
X124352493Y-72778026D01*
X124156694Y-72714408D01*
X124156698Y-72714408D01*
X123953339Y-72682200D01*
X123747461Y-72682200D01*
X123544103Y-72714408D01*
X123348306Y-72778026D01*
X123348300Y-72778029D01*
X123164852Y-72871501D01*
X123122025Y-72902616D01*
X123809609Y-73590200D01*
X123797739Y-73590200D01*
X123696006Y-73617459D01*
X123604794Y-73670120D01*
X123530320Y-73744594D01*
X123477659Y-73835806D01*
X123450400Y-73937539D01*
X123450400Y-73949409D01*
X122762816Y-73261825D01*
X122731701Y-73304652D01*
X122638229Y-73488100D01*
X122638226Y-73488106D01*
X122574608Y-73683903D01*
X122542400Y-73887261D01*
X114998900Y-73887261D01*
X114998900Y-73887219D01*
X114966680Y-73683792D01*
X114903034Y-73487910D01*
X114809529Y-73304397D01*
X114688468Y-73137770D01*
X114688465Y-73137767D01*
X114688463Y-73137764D01*
X114542835Y-72992136D01*
X114542832Y-72992134D01*
X114542830Y-72992132D01*
X114376791Y-72871498D01*
X114376206Y-72871073D01*
X114376205Y-72871072D01*
X114376203Y-72871071D01*
X114192690Y-72777566D01*
X114192687Y-72777565D01*
X114192685Y-72777564D01*
X113996812Y-72713921D01*
X113996810Y-72713920D01*
X113996808Y-72713920D01*
X113793381Y-72681700D01*
X113587419Y-72681700D01*
X113383992Y-72713920D01*
X113383990Y-72713920D01*
X113383987Y-72713921D01*
X113188114Y-72777564D01*
X113188108Y-72777567D01*
X113004593Y-72871073D01*
X112837967Y-72992134D01*
X112837964Y-72992136D01*
X112692336Y-73137764D01*
X112692334Y-73137767D01*
X112571273Y-73304393D01*
X112477767Y-73487908D01*
X112477764Y-73487914D01*
X112414121Y-73683787D01*
X112414120Y-73683790D01*
X112414120Y-73683792D01*
X112381900Y-73887219D01*
X112381900Y-74093181D01*
X112400431Y-74210181D01*
X112414121Y-74296614D01*
X112434958Y-74360744D01*
X112436985Y-74431711D01*
X112400322Y-74492509D01*
X112336610Y-74523834D01*
X112266076Y-74515740D01*
X112226030Y-74488774D01*
X108864223Y-71126967D01*
X140436500Y-71126967D01*
X140436500Y-71423032D01*
X140475142Y-71716550D01*
X140475144Y-71716557D01*
X140551769Y-72002529D01*
X140600642Y-72120517D01*
X140665067Y-72276053D01*
X140665073Y-72276064D01*
X140813094Y-72532444D01*
X140813096Y-72532447D01*
X140813097Y-72532448D01*
X140893347Y-72637032D01*
X140993326Y-72767328D01*
X140993335Y-72767338D01*
X141202661Y-72976664D01*
X141202671Y-72976673D01*
X141202672Y-72976674D01*
X141412617Y-73137770D01*
X141437555Y-73156905D01*
X141693935Y-73304926D01*
X141693946Y-73304932D01*
X141693948Y-73304933D01*
X141967471Y-73418231D01*
X142253443Y-73494856D01*
X142253447Y-73494856D01*
X142253449Y-73494857D01*
X142329096Y-73504816D01*
X142546970Y-73533500D01*
X142546977Y-73533500D01*
X142843023Y-73533500D01*
X142843030Y-73533500D01*
X143108310Y-73498574D01*
X143136550Y-73494857D01*
X143136550Y-73494856D01*
X143136557Y-73494856D01*
X143422529Y-73418231D01*
X143696052Y-73304933D01*
X143952448Y-73156903D01*
X144187328Y-72976674D01*
X144396674Y-72767328D01*
X144576903Y-72532448D01*
X144724933Y-72276052D01*
X144838231Y-72002529D01*
X144914856Y-71716557D01*
X144953500Y-71423030D01*
X144953500Y-71126970D01*
X144924816Y-70909096D01*
X144914857Y-70833449D01*
X144914856Y-70833447D01*
X144914856Y-70833443D01*
X144838231Y-70547471D01*
X144724933Y-70273948D01*
X144724932Y-70273946D01*
X144724926Y-70273935D01*
X144576905Y-70017555D01*
X144567271Y-70005000D01*
X144396674Y-69782672D01*
X144396673Y-69782671D01*
X144396664Y-69782661D01*
X144187338Y-69573335D01*
X144187328Y-69573326D01*
X144092720Y-69500731D01*
X143952448Y-69393097D01*
X143952447Y-69393096D01*
X143952444Y-69393094D01*
X143696064Y-69245073D01*
X143696053Y-69245067D01*
X143525255Y-69174320D01*
X143422529Y-69131769D01*
X143136557Y-69055144D01*
X143136550Y-69055142D01*
X142843032Y-69016500D01*
X142843030Y-69016500D01*
X142546970Y-69016500D01*
X142546967Y-69016500D01*
X142253449Y-69055142D01*
X141967471Y-69131769D01*
X141693946Y-69245067D01*
X141693935Y-69245073D01*
X141437555Y-69393094D01*
X141202671Y-69573326D01*
X141202661Y-69573335D01*
X140993335Y-69782661D01*
X140993326Y-69782671D01*
X140813094Y-70017555D01*
X140665073Y-70273935D01*
X140665067Y-70273946D01*
X140551769Y-70547471D01*
X140475142Y-70833449D01*
X140436500Y-71126967D01*
X108864223Y-71126967D01*
X106441418Y-68704162D01*
X106357275Y-68620019D01*
X157846500Y-68620019D01*
X157846500Y-68849980D01*
X157882474Y-69077120D01*
X157888089Y-69094400D01*
X157953538Y-69295829D01*
X157953539Y-69295832D01*
X157953541Y-69295836D01*
X158003098Y-69393097D01*
X158057940Y-69500731D01*
X158193111Y-69686778D01*
X158193113Y-69686780D01*
X158193115Y-69686783D01*
X158355719Y-69849387D01*
X158429599Y-69903064D01*
X158472953Y-69959287D01*
X158479028Y-70030023D01*
X158445896Y-70092814D01*
X158429599Y-70106936D01*
X158355719Y-70160612D01*
X158193115Y-70323216D01*
X158193113Y-70323219D01*
X158057940Y-70509268D01*
X157953541Y-70714163D01*
X157953538Y-70714172D01*
X157882474Y-70932879D01*
X157872500Y-70995857D01*
X157846500Y-71160017D01*
X157846500Y-71389983D01*
X157859309Y-71470857D01*
X157882474Y-71617120D01*
X157914782Y-71716550D01*
X157953538Y-71835829D01*
X157953539Y-71835832D01*
X157953541Y-71835836D01*
X158045675Y-72016660D01*
X158057940Y-72040731D01*
X158118034Y-72123444D01*
X158183316Y-72213296D01*
X158207174Y-72280164D01*
X158191094Y-72349315D01*
X158140180Y-72398795D01*
X158125417Y-72405411D01*
X158108795Y-72411611D01*
X158108792Y-72411612D01*
X157991738Y-72499238D01*
X157904112Y-72616292D01*
X157904110Y-72616297D01*
X157853011Y-72753295D01*
X157853009Y-72753303D01*
X157846500Y-72813850D01*
X157846500Y-74816149D01*
X157853009Y-74876696D01*
X157853011Y-74876704D01*
X157904110Y-75013702D01*
X157904112Y-75013707D01*
X157991738Y-75130761D01*
X158108792Y-75218387D01*
X158108794Y-75218388D01*
X158108796Y-75218389D01*
X158166187Y-75239795D01*
X158245795Y-75269488D01*
X158245803Y-75269490D01*
X158306350Y-75275999D01*
X158306355Y-75275999D01*
X158306362Y-75276000D01*
X158306368Y-75276000D01*
X160403632Y-75276000D01*
X160403638Y-75276000D01*
X160403645Y-75275999D01*
X160403649Y-75275999D01*
X160464196Y-75269490D01*
X160464199Y-75269489D01*
X160464201Y-75269489D01*
X160472269Y-75266480D01*
X160528139Y-75245641D01*
X160601204Y-75218389D01*
X160620104Y-75204241D01*
X160718261Y-75130761D01*
X160805887Y-75013707D01*
X160805887Y-75013706D01*
X160805889Y-75013704D01*
X160856989Y-74876701D01*
X160860652Y-74842635D01*
X160863499Y-74816149D01*
X160863500Y-74816132D01*
X160863500Y-72813867D01*
X160863499Y-72813850D01*
X160856990Y-72753303D01*
X160856988Y-72753295D01*
X160805889Y-72616297D01*
X160805889Y-72616296D01*
X160790931Y-72596315D01*
X160782467Y-72585008D01*
X160757657Y-72518490D01*
X160772748Y-72449116D01*
X160822950Y-72398913D01*
X160883336Y-72383500D01*
X164337238Y-72383500D01*
X164337241Y-72383500D01*
X164509574Y-72356205D01*
X164675517Y-72302288D01*
X164830981Y-72223074D01*
X164972139Y-72120517D01*
X176418511Y-60674142D01*
X176459403Y-60646824D01*
X176463896Y-60644963D01*
X176463903Y-60644961D01*
X176633392Y-60558602D01*
X176657633Y-60540990D01*
X177843219Y-60540990D01*
X177866866Y-60558171D01*
X177866868Y-60558172D01*
X178036290Y-60644497D01*
X178217122Y-60703253D01*
X178404931Y-60733000D01*
X178595069Y-60733000D01*
X178782877Y-60703253D01*
X178963712Y-60644496D01*
X179133121Y-60558178D01*
X179133134Y-60558170D01*
X179156779Y-60540990D01*
X179156779Y-60540988D01*
X178500001Y-59884210D01*
X178500000Y-59884210D01*
X177843219Y-60540990D01*
X176657633Y-60540990D01*
X176787285Y-60446792D01*
X176787290Y-60446787D01*
X176830205Y-60403873D01*
X176921787Y-60312290D01*
X176921790Y-60312287D01*
X176921792Y-60312285D01*
X177033602Y-60158392D01*
X177119961Y-59988903D01*
X177130430Y-59956681D01*
X177170504Y-59898076D01*
X177235900Y-59870439D01*
X177305857Y-59882546D01*
X177358163Y-59930552D01*
X177370096Y-59956682D01*
X177380501Y-59988707D01*
X177466828Y-60158134D01*
X177484008Y-60181779D01*
X177484009Y-60181779D01*
X178140790Y-59524999D01*
X178094713Y-59478922D01*
X178150000Y-59478922D01*
X178150000Y-59571078D01*
X178173852Y-59660095D01*
X178219930Y-59739905D01*
X178285095Y-59805070D01*
X178364905Y-59851148D01*
X178453922Y-59875000D01*
X178546078Y-59875000D01*
X178635095Y-59851148D01*
X178714905Y-59805070D01*
X178780070Y-59739905D01*
X178826148Y-59660095D01*
X178850000Y-59571078D01*
X178850000Y-59524999D01*
X178859210Y-59524999D01*
X178859210Y-59525001D01*
X179515988Y-60181779D01*
X179515990Y-60181779D01*
X179533170Y-60158134D01*
X179533178Y-60158121D01*
X179619496Y-59988712D01*
X179678253Y-59807877D01*
X179708000Y-59620068D01*
X179708000Y-59429931D01*
X179678253Y-59242122D01*
X179619497Y-59061290D01*
X179533172Y-58891868D01*
X179533171Y-58891866D01*
X179515990Y-58868219D01*
X178859210Y-59524999D01*
X178850000Y-59524999D01*
X178850000Y-59478922D01*
X178826148Y-59389905D01*
X178780070Y-59310095D01*
X178714905Y-59244930D01*
X178635095Y-59198852D01*
X178546078Y-59175000D01*
X178453922Y-59175000D01*
X178364905Y-59198852D01*
X178285095Y-59244930D01*
X178219930Y-59310095D01*
X178173852Y-59389905D01*
X178150000Y-59478922D01*
X178094713Y-59478922D01*
X177484010Y-58868219D01*
X177484008Y-58868219D01*
X177466824Y-58891871D01*
X177380503Y-59061287D01*
X177370096Y-59093318D01*
X177330022Y-59151924D01*
X177264625Y-59179560D01*
X177194668Y-59167453D01*
X177142362Y-59119446D01*
X177130430Y-59093318D01*
X177127762Y-59085107D01*
X177119961Y-59061097D01*
X177033602Y-58891608D01*
X176921792Y-58737715D01*
X176921790Y-58737712D01*
X176787287Y-58603209D01*
X176657630Y-58509008D01*
X177843219Y-58509008D01*
X177843219Y-58509010D01*
X178499999Y-59165790D01*
X178500000Y-59165790D01*
X179156779Y-58509009D01*
X179156779Y-58509008D01*
X179133134Y-58491828D01*
X178963709Y-58405502D01*
X178782877Y-58346746D01*
X178595069Y-58317000D01*
X178404931Y-58317000D01*
X178217122Y-58346746D01*
X178036287Y-58405503D01*
X177866871Y-58491824D01*
X177843219Y-58509008D01*
X176657630Y-58509008D01*
X176633395Y-58491400D01*
X176633394Y-58491399D01*
X176633392Y-58491398D01*
X176463903Y-58405039D01*
X176282991Y-58346257D01*
X176095111Y-58316500D01*
X175904889Y-58316500D01*
X175717009Y-58346257D01*
X175717006Y-58346257D01*
X175717005Y-58346258D01*
X175536097Y-58405039D01*
X175536095Y-58405040D01*
X175366604Y-58491400D01*
X175212712Y-58603209D01*
X175078209Y-58737712D01*
X174966400Y-58891604D01*
X174880037Y-59061100D01*
X174878168Y-59065613D01*
X174850855Y-59106488D01*
X163827749Y-70129595D01*
X163765437Y-70163621D01*
X163738654Y-70166500D01*
X160403323Y-70166500D01*
X160382573Y-70160407D01*
X160360981Y-70159173D01*
X160339165Y-70147661D01*
X160335202Y-70146498D01*
X160329262Y-70142436D01*
X160280399Y-70106934D01*
X160237046Y-70050714D01*
X160230970Y-69979978D01*
X160264102Y-69917186D01*
X160280396Y-69903067D01*
X160354278Y-69849389D01*
X160516889Y-69686778D01*
X160652060Y-69500731D01*
X160756462Y-69295829D01*
X160827526Y-69077118D01*
X160863500Y-68849983D01*
X160863500Y-68620017D01*
X160827526Y-68392882D01*
X160756462Y-68174171D01*
X160652060Y-67969269D01*
X160516889Y-67783222D01*
X160516886Y-67783219D01*
X160516884Y-67783216D01*
X160354283Y-67620615D01*
X160354280Y-67620613D01*
X160354278Y-67620611D01*
X160168231Y-67485440D01*
X159963336Y-67381041D01*
X159963332Y-67381039D01*
X159963329Y-67381038D01*
X159853973Y-67345506D01*
X159744620Y-67309974D01*
X159631050Y-67291987D01*
X159517483Y-67274000D01*
X159192517Y-67274000D01*
X159101663Y-67288389D01*
X158965379Y-67309974D01*
X158801348Y-67363272D01*
X158746671Y-67381038D01*
X158746669Y-67381038D01*
X158746663Y-67381041D01*
X158541768Y-67485440D01*
X158355719Y-67620613D01*
X158355716Y-67620615D01*
X158193115Y-67783216D01*
X158193113Y-67783219D01*
X158057940Y-67969268D01*
X157953541Y-68174163D01*
X157953538Y-68174169D01*
X157953538Y-68174171D01*
X157935772Y-68228848D01*
X157882474Y-68392879D01*
X157846500Y-68620019D01*
X106357275Y-68620019D01*
X84999197Y-47261940D01*
X84914224Y-47176967D01*
X117161500Y-47176967D01*
X117161500Y-47473032D01*
X117200142Y-47766550D01*
X117200144Y-47766557D01*
X117269689Y-48026107D01*
X117276769Y-48052528D01*
X117390067Y-48326053D01*
X117390073Y-48326064D01*
X117538094Y-48582444D01*
X117538096Y-48582447D01*
X117538097Y-48582448D01*
X117602436Y-48666296D01*
X117718326Y-48817328D01*
X117718335Y-48817338D01*
X117927661Y-49026664D01*
X117927671Y-49026673D01*
X117927672Y-49026674D01*
X118059818Y-49128073D01*
X118162555Y-49206905D01*
X118418935Y-49354926D01*
X118418946Y-49354932D01*
X118418948Y-49354933D01*
X118692471Y-49468231D01*
X118978443Y-49544856D01*
X118978447Y-49544856D01*
X118978449Y-49544857D01*
X119054096Y-49554816D01*
X119271970Y-49583500D01*
X119271977Y-49583500D01*
X119568023Y-49583500D01*
X119568030Y-49583500D01*
X119845204Y-49547009D01*
X119861550Y-49544857D01*
X119861550Y-49544856D01*
X119861557Y-49544856D01*
X120147529Y-49468231D01*
X120421052Y-49354933D01*
X120677448Y-49206903D01*
X120912328Y-49026674D01*
X121121674Y-48817328D01*
X121301903Y-48582448D01*
X121449933Y-48326052D01*
X121563231Y-48052529D01*
X121639856Y-47766557D01*
X121678500Y-47473030D01*
X121678500Y-47176970D01*
X121639856Y-46883443D01*
X121563231Y-46597471D01*
X121449933Y-46323948D01*
X121449932Y-46323946D01*
X121449926Y-46323935D01*
X121301905Y-46067555D01*
X121292271Y-46055000D01*
X121121674Y-45832672D01*
X121121673Y-45832671D01*
X121121664Y-45832661D01*
X120912338Y-45623335D01*
X120912328Y-45623326D01*
X120677444Y-45443094D01*
X120421064Y-45295073D01*
X120421053Y-45295067D01*
X120224848Y-45213796D01*
X120147529Y-45181769D01*
X119943566Y-45127118D01*
X119861550Y-45105142D01*
X119568032Y-45066500D01*
X119568030Y-45066500D01*
X119271970Y-45066500D01*
X119271967Y-45066500D01*
X118978449Y-45105142D01*
X118692471Y-45181769D01*
X118418946Y-45295067D01*
X118418935Y-45295073D01*
X118162555Y-45443094D01*
X117927671Y-45623326D01*
X117927661Y-45623335D01*
X117718335Y-45832661D01*
X117718326Y-45832671D01*
X117538094Y-46067555D01*
X117390073Y-46323935D01*
X117390067Y-46323946D01*
X117276769Y-46597471D01*
X117200142Y-46883449D01*
X117161500Y-47176967D01*
X84914224Y-47176967D01*
X82407274Y-44670017D01*
X134571500Y-44670017D01*
X134571500Y-44899983D01*
X134588218Y-45005540D01*
X134607474Y-45127120D01*
X134643006Y-45236473D01*
X134678538Y-45345829D01*
X134678539Y-45345832D01*
X134678541Y-45345836D01*
X134728098Y-45443097D01*
X134782940Y-45550731D01*
X134918111Y-45736778D01*
X134918113Y-45736780D01*
X134918115Y-45736783D01*
X135080719Y-45899387D01*
X135154599Y-45953064D01*
X135197953Y-46009287D01*
X135204028Y-46080023D01*
X135170896Y-46142814D01*
X135154599Y-46156936D01*
X135080719Y-46210612D01*
X134918115Y-46373216D01*
X134918113Y-46373219D01*
X134782940Y-46559268D01*
X134678541Y-46764163D01*
X134678538Y-46764172D01*
X134607474Y-46982879D01*
X134585889Y-47119163D01*
X134571500Y-47210017D01*
X134571500Y-47439983D01*
X134588886Y-47549756D01*
X134607474Y-47667120D01*
X134609420Y-47673108D01*
X134678538Y-47885829D01*
X134678539Y-47885832D01*
X134678541Y-47885836D01*
X134763475Y-48052528D01*
X134782940Y-48090731D01*
X134876205Y-48219100D01*
X134908316Y-48263296D01*
X134932174Y-48330164D01*
X134916094Y-48399315D01*
X134865180Y-48448795D01*
X134850417Y-48455411D01*
X134833795Y-48461611D01*
X134833792Y-48461612D01*
X134716738Y-48549238D01*
X134629112Y-48666292D01*
X134629110Y-48666297D01*
X134578011Y-48803295D01*
X134578009Y-48803303D01*
X134571500Y-48863850D01*
X134571500Y-50866149D01*
X134578009Y-50926696D01*
X134578011Y-50926704D01*
X134629110Y-51063702D01*
X134629112Y-51063707D01*
X134716738Y-51180761D01*
X134833792Y-51268387D01*
X134833794Y-51268388D01*
X134833796Y-51268389D01*
X134892875Y-51290424D01*
X134970795Y-51319488D01*
X134970803Y-51319490D01*
X135031350Y-51325999D01*
X135031355Y-51325999D01*
X135031362Y-51326000D01*
X135031368Y-51326000D01*
X137128632Y-51326000D01*
X137128638Y-51326000D01*
X137128645Y-51325999D01*
X137128649Y-51325999D01*
X137189196Y-51319490D01*
X137189199Y-51319489D01*
X137189201Y-51319489D01*
X137326204Y-51268389D01*
X137326608Y-51268087D01*
X137443261Y-51180761D01*
X137530887Y-51063707D01*
X137530887Y-51063706D01*
X137530889Y-51063704D01*
X137581989Y-50926701D01*
X137588500Y-50866138D01*
X137588500Y-48863862D01*
X137588499Y-48863850D01*
X137581990Y-48803303D01*
X137581988Y-48803295D01*
X137530889Y-48666297D01*
X137530889Y-48666296D01*
X137530886Y-48666292D01*
X137507467Y-48635008D01*
X137482657Y-48568490D01*
X137497748Y-48499116D01*
X137547950Y-48448913D01*
X137608336Y-48433500D01*
X142388654Y-48433500D01*
X142456775Y-48453502D01*
X142477749Y-48470405D01*
X147303855Y-53296512D01*
X147303858Y-53296514D01*
X147303861Y-53296517D01*
X147355722Y-53334196D01*
X147437367Y-53393515D01*
X147445019Y-53399074D01*
X147600483Y-53478288D01*
X147766426Y-53532205D01*
X147938759Y-53559500D01*
X147938762Y-53559500D01*
X166000038Y-53559500D01*
X166000041Y-53559500D01*
X166172374Y-53532205D01*
X166338316Y-53478288D01*
X166493781Y-53399074D01*
X166634939Y-53296517D01*
X166758317Y-53173139D01*
X166860874Y-53031981D01*
X166940088Y-52876516D01*
X166994005Y-52710574D01*
X167021300Y-52538241D01*
X167021300Y-52363759D01*
X166994005Y-52191426D01*
X166940088Y-52025484D01*
X166860874Y-51870019D01*
X166758317Y-51728861D01*
X166758314Y-51728858D01*
X166758312Y-51728855D01*
X166634944Y-51605487D01*
X166634941Y-51605485D01*
X166634939Y-51605483D01*
X166594841Y-51576350D01*
X175161388Y-51576350D01*
X175161388Y-53273649D01*
X175167897Y-53334196D01*
X175167899Y-53334204D01*
X175218998Y-53471202D01*
X175219000Y-53471207D01*
X175306626Y-53588261D01*
X175423680Y-53675887D01*
X175423682Y-53675888D01*
X175423684Y-53675889D01*
X175482763Y-53697924D01*
X175560683Y-53726988D01*
X175560691Y-53726990D01*
X175621238Y-53733499D01*
X175621243Y-53733499D01*
X175621250Y-53733500D01*
X175621256Y-53733500D01*
X177318520Y-53733500D01*
X177318526Y-53733500D01*
X177318533Y-53733499D01*
X177318537Y-53733499D01*
X177379084Y-53726990D01*
X177379087Y-53726989D01*
X177379089Y-53726989D01*
X177516092Y-53675889D01*
X177567811Y-53637173D01*
X177633149Y-53588261D01*
X177720775Y-53471207D01*
X177720775Y-53471206D01*
X177720777Y-53471204D01*
X177771877Y-53334201D01*
X177778388Y-53273638D01*
X177778388Y-53264811D01*
X177782012Y-53250517D01*
X177794057Y-53230140D01*
X177801926Y-53207815D01*
X177811786Y-53200150D01*
X177818141Y-53189401D01*
X177839292Y-53178770D01*
X177857981Y-53164244D01*
X177872515Y-53162072D01*
X177874704Y-53160972D01*
X178569888Y-52465788D01*
X178569888Y-52477661D01*
X178597147Y-52579394D01*
X178649808Y-52670606D01*
X178724282Y-52745080D01*
X178815494Y-52797741D01*
X178917227Y-52825000D01*
X178929098Y-52825000D01*
X178241514Y-53512582D01*
X178241514Y-53512583D01*
X178284342Y-53543699D01*
X178467788Y-53637170D01*
X178467794Y-53637173D01*
X178663593Y-53700791D01*
X178663589Y-53700791D01*
X178866949Y-53733000D01*
X179072827Y-53733000D01*
X179276184Y-53700791D01*
X179471981Y-53637173D01*
X179471987Y-53637170D01*
X179655429Y-53543701D01*
X179698260Y-53512582D01*
X179698260Y-53512581D01*
X179010679Y-52825000D01*
X179022549Y-52825000D01*
X179124282Y-52797741D01*
X179215494Y-52745080D01*
X179289968Y-52670606D01*
X179342629Y-52579394D01*
X179369888Y-52477661D01*
X179369888Y-52465791D01*
X180057469Y-53153372D01*
X180057470Y-53153372D01*
X180088589Y-53110541D01*
X180182058Y-52927099D01*
X180182061Y-52927093D01*
X180245679Y-52731296D01*
X180277888Y-52527938D01*
X180277888Y-52322061D01*
X180245679Y-52118703D01*
X180182061Y-51922906D01*
X180182058Y-51922900D01*
X180088587Y-51739454D01*
X180057471Y-51696626D01*
X180057470Y-51696626D01*
X179369888Y-52384208D01*
X179369888Y-52372339D01*
X179342629Y-52270606D01*
X179289968Y-52179394D01*
X179215494Y-52104920D01*
X179124282Y-52052259D01*
X179022549Y-52025000D01*
X179010678Y-52025000D01*
X179698260Y-51337416D01*
X179655429Y-51306298D01*
X179655428Y-51306297D01*
X179471987Y-51212829D01*
X179471981Y-51212826D01*
X179276182Y-51149208D01*
X179276186Y-51149208D01*
X179072827Y-51117000D01*
X178866949Y-51117000D01*
X178663591Y-51149208D01*
X178467794Y-51212826D01*
X178467788Y-51212829D01*
X178284340Y-51306301D01*
X178241513Y-51337416D01*
X178929097Y-52025000D01*
X178917227Y-52025000D01*
X178815494Y-52052259D01*
X178724282Y-52104920D01*
X178649808Y-52179394D01*
X178597147Y-52270606D01*
X178569888Y-52372339D01*
X178569888Y-52384209D01*
X177870704Y-51685025D01*
X177844553Y-51679531D01*
X177793994Y-51629689D01*
X177782012Y-51599480D01*
X177778388Y-51585185D01*
X177778388Y-51576362D01*
X177771877Y-51515799D01*
X177737282Y-51423047D01*
X177737281Y-51423043D01*
X177720777Y-51378797D01*
X177720775Y-51378792D01*
X177633149Y-51261738D01*
X177516095Y-51174112D01*
X177516090Y-51174110D01*
X177379092Y-51123011D01*
X177379084Y-51123009D01*
X177318537Y-51116500D01*
X177318526Y-51116500D01*
X175621250Y-51116500D01*
X175621238Y-51116500D01*
X175560691Y-51123009D01*
X175560683Y-51123011D01*
X175423685Y-51174110D01*
X175423680Y-51174112D01*
X175306626Y-51261738D01*
X175219000Y-51378792D01*
X175218998Y-51378797D01*
X175167899Y-51515795D01*
X175167897Y-51515803D01*
X175161388Y-51576350D01*
X166594841Y-51576350D01*
X166493781Y-51502926D01*
X166338316Y-51423712D01*
X166338313Y-51423711D01*
X166338311Y-51423710D01*
X166172377Y-51369796D01*
X166172374Y-51369795D01*
X166000041Y-51342500D01*
X166000038Y-51342500D01*
X148537346Y-51342500D01*
X148469225Y-51322498D01*
X148448251Y-51305595D01*
X145152661Y-48010004D01*
X144061240Y-46918583D01*
X150630200Y-46918583D01*
X150630200Y-47465100D01*
X151557497Y-47465100D01*
X151522275Y-47526107D01*
X151488200Y-47653274D01*
X151488200Y-47784926D01*
X151522275Y-47912093D01*
X151557497Y-47973100D01*
X150630200Y-47973100D01*
X150630200Y-48519616D01*
X150640805Y-48623418D01*
X150640806Y-48623421D01*
X150696542Y-48791625D01*
X150789565Y-48942439D01*
X150789570Y-48942445D01*
X150914854Y-49067729D01*
X150914860Y-49067734D01*
X151065674Y-49160757D01*
X151233878Y-49216493D01*
X151233881Y-49216494D01*
X151337683Y-49227099D01*
X151337683Y-49227100D01*
X151734200Y-49227100D01*
X151734200Y-48149802D01*
X151795207Y-48185025D01*
X151922374Y-48219100D01*
X152054026Y-48219100D01*
X152181193Y-48185025D01*
X152242200Y-48149802D01*
X152242200Y-49227100D01*
X152638717Y-49227100D01*
X152638716Y-49227099D01*
X152742518Y-49216494D01*
X152742521Y-49216493D01*
X152910725Y-49160757D01*
X153061539Y-49067734D01*
X153061545Y-49067729D01*
X153186829Y-48942445D01*
X153186836Y-48942436D01*
X153276184Y-48797580D01*
X153328969Y-48750101D01*
X153399044Y-48738698D01*
X153464160Y-48766990D01*
X153472520Y-48774631D01*
X153603190Y-48905301D01*
X153603193Y-48905303D01*
X153603196Y-48905306D01*
X153776191Y-49030994D01*
X153966717Y-49128072D01*
X154170078Y-49194147D01*
X154170079Y-49194147D01*
X154170084Y-49194149D01*
X154381284Y-49227600D01*
X154381287Y-49227600D01*
X154595113Y-49227600D01*
X154595116Y-49227600D01*
X154806316Y-49194149D01*
X155009683Y-49128072D01*
X155200209Y-49030994D01*
X155373204Y-48905306D01*
X155524406Y-48754104D01*
X155650094Y-48581109D01*
X155747172Y-48390583D01*
X155813249Y-48187216D01*
X155846700Y-47976016D01*
X155846700Y-47462184D01*
X155813249Y-47250984D01*
X155747172Y-47047617D01*
X155650094Y-46857091D01*
X155524406Y-46684096D01*
X155524403Y-46684093D01*
X155524401Y-46684090D01*
X155373209Y-46532898D01*
X155373206Y-46532896D01*
X155373204Y-46532894D01*
X155200209Y-46407206D01*
X155009683Y-46310128D01*
X155009680Y-46310127D01*
X155009678Y-46310126D01*
X154806320Y-46244052D01*
X154806323Y-46244052D01*
X154767001Y-46237824D01*
X154595116Y-46210600D01*
X154381284Y-46210600D01*
X154171694Y-46243796D01*
X154170078Y-46244052D01*
X153966721Y-46310126D01*
X153966715Y-46310129D01*
X153776187Y-46407208D01*
X153603195Y-46532894D01*
X153472520Y-46663569D01*
X153410208Y-46697594D01*
X153339392Y-46692529D01*
X153282557Y-46649982D01*
X153276184Y-46640620D01*
X153186834Y-46495760D01*
X153186829Y-46495754D01*
X153061545Y-46370470D01*
X153061539Y-46370465D01*
X152910725Y-46277442D01*
X152742521Y-46221706D01*
X152742518Y-46221705D01*
X152638716Y-46211100D01*
X152242200Y-46211100D01*
X152242200Y-47288397D01*
X152181193Y-47253175D01*
X152054026Y-47219100D01*
X151922374Y-47219100D01*
X151795207Y-47253175D01*
X151734200Y-47288397D01*
X151734200Y-46211100D01*
X151337683Y-46211100D01*
X151233881Y-46221705D01*
X151233878Y-46221706D01*
X151065674Y-46277442D01*
X150914860Y-46370465D01*
X150914854Y-46370470D01*
X150789570Y-46495754D01*
X150789565Y-46495760D01*
X150696542Y-46646574D01*
X150640806Y-46814778D01*
X150640805Y-46814781D01*
X150630200Y-46918583D01*
X144061240Y-46918583D01*
X143622144Y-46479487D01*
X143622141Y-46479485D01*
X143622139Y-46479483D01*
X143515377Y-46401916D01*
X143480983Y-46376927D01*
X143377003Y-46323946D01*
X143325517Y-46297712D01*
X143325514Y-46297711D01*
X143325512Y-46297710D01*
X143159577Y-46243796D01*
X143159574Y-46243795D01*
X142987241Y-46216500D01*
X142987238Y-46216500D01*
X137128323Y-46216500D01*
X137107573Y-46210407D01*
X137085981Y-46209173D01*
X137064165Y-46197661D01*
X137060202Y-46196498D01*
X137054262Y-46192436D01*
X137048272Y-46188084D01*
X137005399Y-46156934D01*
X136962046Y-46100714D01*
X136955970Y-46029978D01*
X136989102Y-45967186D01*
X137005396Y-45953067D01*
X137079278Y-45899389D01*
X137241889Y-45736778D01*
X137377060Y-45550731D01*
X137481462Y-45345829D01*
X137552526Y-45127118D01*
X137588500Y-44899983D01*
X137588500Y-44670017D01*
X137552526Y-44442882D01*
X137481462Y-44224171D01*
X137377060Y-44019269D01*
X137241889Y-43833222D01*
X137241886Y-43833219D01*
X137241884Y-43833216D01*
X137079283Y-43670615D01*
X137079280Y-43670613D01*
X137079278Y-43670611D01*
X136893231Y-43535440D01*
X136688336Y-43431041D01*
X136688332Y-43431039D01*
X136688329Y-43431038D01*
X136578973Y-43395506D01*
X136469620Y-43359974D01*
X136356050Y-43341987D01*
X136242483Y-43324000D01*
X135917517Y-43324000D01*
X135826663Y-43338389D01*
X135690379Y-43359974D01*
X135526348Y-43413272D01*
X135471671Y-43431038D01*
X135471669Y-43431038D01*
X135471663Y-43431041D01*
X135266768Y-43535440D01*
X135080719Y-43670613D01*
X135080716Y-43670615D01*
X134918115Y-43833216D01*
X134918113Y-43833219D01*
X134782940Y-44019268D01*
X134678541Y-44224163D01*
X134678538Y-44224172D01*
X134607474Y-44442879D01*
X134603652Y-44467012D01*
X134571500Y-44670017D01*
X82407274Y-44670017D01*
X80646744Y-42909487D01*
X80646741Y-42909485D01*
X80646739Y-42909483D01*
X80569539Y-42853394D01*
X80505583Y-42806927D01*
X80499765Y-42803963D01*
X80350117Y-42727712D01*
X80350114Y-42727711D01*
X80350112Y-42727710D01*
X80184177Y-42673796D01*
X80184174Y-42673795D01*
X80011841Y-42646500D01*
X80011838Y-42646500D01*
X74226440Y-42646500D01*
X74206199Y-42640556D01*
X74185127Y-42639535D01*
X74162523Y-42627732D01*
X74158319Y-42626498D01*
X74153265Y-42623074D01*
X74152804Y-42622745D01*
X74112009Y-42593106D01*
X74109377Y-42591765D01*
X74103089Y-42587279D01*
X74083778Y-42562679D01*
X74062797Y-42539488D01*
X74062054Y-42535006D01*
X74059250Y-42531434D01*
X74056303Y-42500300D01*
X74051191Y-42469446D01*
X74052988Y-42465275D01*
X74052561Y-42460753D01*
X74066917Y-42432964D01*
X74079296Y-42404249D01*
X74083743Y-42400396D01*
X74085148Y-42397677D01*
X74090326Y-42394693D01*
X74107844Y-42379516D01*
X74107742Y-42379376D01*
X74109382Y-42378184D01*
X74110448Y-42377261D01*
X74111754Y-42376460D01*
X74284679Y-42250822D01*
X74435822Y-42099679D01*
X74561463Y-41926750D01*
X74658506Y-41736292D01*
X74658509Y-41736286D01*
X74724559Y-41533004D01*
X74734698Y-41469000D01*
X73830703Y-41469000D01*
X73865925Y-41407993D01*
X73900000Y-41280826D01*
X73900000Y-41149174D01*
X73865925Y-41022007D01*
X73830703Y-40961000D01*
X74734697Y-40961000D01*
X74724559Y-40896995D01*
X74658509Y-40693713D01*
X74658506Y-40693707D01*
X74561463Y-40503249D01*
X74435822Y-40330320D01*
X74332713Y-40227211D01*
X74298687Y-40164899D01*
X74303752Y-40094084D01*
X74346299Y-40037248D01*
X74377768Y-40020063D01*
X74496204Y-39975889D01*
X74613261Y-39888261D01*
X74700889Y-39771204D01*
X74703029Y-39765467D01*
X74745576Y-39708631D01*
X74812096Y-39683821D01*
X74821084Y-39683500D01*
X170330076Y-39683500D01*
X170398197Y-39703502D01*
X170419171Y-39720405D01*
X172454595Y-41755829D01*
X172488621Y-41818141D01*
X172491500Y-41844924D01*
X172491500Y-42899331D01*
X172520075Y-43042987D01*
X172530256Y-43094169D01*
X172606279Y-43277704D01*
X172716647Y-43442881D01*
X172857119Y-43583353D01*
X173022296Y-43693721D01*
X173205831Y-43769744D01*
X173400671Y-43808500D01*
X173400672Y-43808500D01*
X173599328Y-43808500D01*
X173599329Y-43808500D01*
X173794169Y-43769744D01*
X173977704Y-43693721D01*
X174142881Y-43583353D01*
X174283353Y-43442881D01*
X174393721Y-43277704D01*
X174469744Y-43094169D01*
X174508500Y-42899329D01*
X174508500Y-41275671D01*
X174469744Y-41080831D01*
X174438254Y-41004809D01*
X174393722Y-40897297D01*
X174283354Y-40732119D01*
X171442881Y-37891647D01*
X171277704Y-37781279D01*
X171265833Y-37776362D01*
X171094169Y-37705256D01*
X170899331Y-37666500D01*
X170899329Y-37666500D01*
X74821084Y-37666500D01*
X74752963Y-37646498D01*
X74706470Y-37592842D01*
X74703029Y-37584533D01*
X74700889Y-37578797D01*
X74700887Y-37578792D01*
X74613261Y-37461738D01*
X74496207Y-37374112D01*
X74496202Y-37374110D01*
X74359204Y-37323011D01*
X74359196Y-37323009D01*
X74298649Y-37316500D01*
X74298638Y-37316500D01*
X72501362Y-37316500D01*
X72501350Y-37316500D01*
X72440803Y-37323009D01*
X72440795Y-37323011D01*
X72303797Y-37374110D01*
X72303792Y-37374112D01*
X72186738Y-37461738D01*
X72099112Y-37578792D01*
X72099110Y-37578797D01*
X72048011Y-37715795D01*
X72048009Y-37715803D01*
X72041500Y-37776350D01*
X60300500Y-37776350D01*
X60300500Y-32826500D01*
X60320502Y-32758379D01*
X60374158Y-32711886D01*
X60426500Y-32700500D01*
X126099793Y-32700500D01*
X191773500Y-32700500D01*
X191841621Y-32720502D01*
G37*
%TD.AperFunction*%
%TD*%
M02*
